<svg xmlns="http://www.w3.org/2000/svg" viewBox="0 0 198.56 47.09"><defs><style>.cls-1{fill:#ffffff;fill-rule:evenodd;}</style></defs><title>Tattoos11</title><g id="Calque_2" data-name="Calque 2"><g id="Tatoo_11" data-name="Tatoo 11"><path class="cls-1" d="M60.85,23.18c-.13.12-.28.24-.4.37l0-.16s-12,9.54-15.29,22.33c0,0,9.06-11.09,13.09-12.09a1.91,1.91,0,0,0,.16.32c7.37,11.38,22.6,9.38,22.34,9.38C58,34.53,60.85,23.18,60.85,23.18Z"/><path class="cls-1" d="M84.26,33.59c-1.24,1.38-6,2.68-6,2.68a35.17,35.17,0,0,0,18.56,7C93.55,42,84.13,33.59,84.26,33.59Z"/><path class="cls-1" d="M162.14,17.41c.9-2.08,12.47,1,23-11.86A39.13,39.13,0,0,1,158.54,12c-11-2.33-10-1.94-13.42-.62,3-3.17,7.52-6.7,16.38-6.56,0,0-16.56-3.58-25.09,7.55C134.48,8.55,130.48,5.05,124,1.66c0,0,10.77,10.57,5.25,24.31-.25,1.09-9.12,19.44-24.65,16.18,0,.39,20.71,7.47,28.82-11.82a27.6,27.6,0,0,0,4.2-9.87c3.94-3.4,9.11-5.54,15.2-2.9,14.68,6.35,1.51,20.93,1.51,20.93s-6.85,5.95-12.41-4.29c0,0-1.42-6.3,4.41-5.8,3.25-.15,4,4.56,3.29,5.74,0,.28,6-4.73.84-10.19S137.07,25.44,137,26.8,130.88,42.51,125,43.71c.24.19,8.19-1.29,12.17-6.15.58-1.65,3.68,12.68,19.12,5.6C156.88,43.5,173.06,33.4,162.14,17.41Z"/><path class="cls-1" d="M176,22.5l3.53-.69,1.26,8.2s4.79-.87,5.05-1.36S183,12.87,182.65,12.26c-2.23,3.36-14.72,6.89-14.72,6.89,5.65,14.26-4.22,22.48-4.22,22.48C186.21,42.2,190.85,29,190.85,29c-7.44,6.85-17.67,6.83-17.67,6.83C176.07,31.42,176,22.5,176,22.5Z"/><path class="cls-1" d="M182.31,39.47c2.1,1.84,1,7.48,1,7.62,4.85-4.89,4.7-11,4.4-11.42C187,36.37,182.31,39.47,182.31,39.47Z"/><path class="cls-1" d="M187.06,21.47S198.9,8.81,198.55,4.06c0-.12-12.51,7.81-13.93,8.2Z"/><path class="cls-1" d="M79.77,11.55c3.07.57,7.94,4.67,16.37,17.89,8.59,13.3,13.61,11.85,13.61,11.16-2.52-.37-4.13-5.54-3.15-4.1C121.5,37,124.38,24.72,124.46,25,129.71,9.84,112.59.64,112.59.64a41.12,41.12,0,0,1,4.77,7.64c-7.59-4.63-12.21-.8-14.45,2.31A24.9,24.9,0,0,0,85.32.67C92.6,4.86,97.14,13,97.14,13s1.24,3.55,5.7,9.07c7.31,6.36,12-.95,12-.95-4.64,1-7.4-.43-9-2.5h0c-.44-5.37,5.11-5.63,6.44-5.34,6.49,2.62,6.76,8.4,6.49,11.13a13,13,0,0,1-2.49,3.4c-.42.31-4.21,4.39-12.5-.1C96.38,22.64,85.29,7,81,4.4S62.68-.45,58.2,2.14c-.2.55,7.7-.78,15.46,4.56C70,6.81,58.65,7.81,53.43,16c-.79-1.93-5.4-11.59-16.5-4.43.32.23,17.13-1.72,10.4,13.5-1.14,2.53-12.1,6.4-10.47-4.26,0,0,.37-2.85,6.2-2.74.14,0-3.56-5.39-10.67,1-.08.39-4.83-9.89-.08-19.06-5,4.35-5.08,10.26-5.23,19.06S40.67,33.58,40.67,33.58s0,12.77,0,13.19C46.53,30.66,60.39,19.4,63.22,17.39,60.8,25.81,65.79,33.64,73,34.45a14.68,14.68,0,0,0,12-4.56c8,11.31,15.48,10.29,15.48,10.29s-9.19-11-14.27-17.68-13-5.36-12.26-5.27,6.09,1.49,5.52,7-5.75,3.91-6.09,3.8c-3.84-.63-4.38-7.27-4.41-8C69,11.05,76.71,11,79.77,11.55Z"/><path class="cls-1" d="M11.78,18C9.19,13.64,0,9.18,0,9.18c5.25,4.54,7.88,13.9,7.94,14C8.12,21.79,12.25,18.45,11.78,18Z"/><path class="cls-1" d="M5,47.09a92.47,92.47,0,0,1,7.94-4.81L11,35.82C7.24,38.31,5,47.09,5,47.09Z"/><path class="cls-1" d="M23.61,12.6C7.23,19.43,2.79,35.82,2.79,35.82,8,27.31,20.15,22.6,20.15,22.6c.63,6.45,5,12.52,5,12.52l-4.7,1.65-3.88-8.46-3.94,2.14,4.82,13.94s18.31-7.69,18-8.1C21.83,28.07,23.61,12.6,23.61,12.6Z"/></g></g></svg>