<svg xmlns="http://www.w3.org/2000/svg" viewBox="0 0 85.72 181.58"><defs><style>.cls-1{fill:#ffffff;}</style></defs><title>Tattoos04</title><g id="Calque_2" data-name="Calque 2"><g id="Tatoo_04_-" data-name="Tatoo 04 -"><path class="cls-1" d="M13.38,54.22a.88.88,0,0,0,.17.12c.39.23,1.9,1,3-.05,1.22-1.22,1.22-4.26-1.81-9.13a.25.25,0,0,1,0-.07C4.81,26.76,18.48,15.32,25.28,11a1,1,0,0,1-.07-.15c-2.65,1-6.49,2.79-12.32,9.77a.76.76,0,0,0-.08.11C-1.18,41.22,12.25,53.27,13.38,54.22Z"/><path class="cls-1" d="M15.89,67.9c-.84-3.38-2.57-8.77-5.37-10.49a1.84,1.84,0,0,1-.22-.17C4.37,51.23,3.49,44,3.92,38.63a1.19,1.19,0,0,0-2.31-.5c-6.13,15.72,6.79,27,12.44,31A1.19,1.19,0,0,0,15.89,67.9Z"/><path class="cls-1" d="M83.4,64.16C78.83,76.53,69.57,78.31,63.52,76.27c-4.87-1.66-6.43-6.48-7.17-7.23a1.69,1.69,0,0,1-.29-.37c-2.43-5.2.16-9.56,3.45-12.83a1.36,1.36,0,0,1,.49-.29c5.45-1.72,12.7-2.11,11.37,8.74a1.23,1.23,0,0,1-1.13,1.07,6,6,0,0,1-2.94-.64,1.27,1.27,0,0,1-.22-.13c-1.75-1.29-2.31-4.82-1.12-5.42.61-.61-6,3-1.28,9.08a.86.86,0,0,0,.13.14c.91.83,6.83,5.23,12.75-1.28,5.46-6.67,6.7-14.54.75-21.22a1.21,1.21,0,0,1-.28-.58c-.25-1.63-.43-7.64-2.11-13.64a1.19,1.19,0,0,0-2.32.53,27.9,27.9,0,0,1-.71,14.17,1.17,1.17,0,0,0,.25,1.2c1.49,1.58,6,5.68,4.42,9.77-.1.3-.2.59-.31.89-1.13-3-3.51-7.2-8.3-8.79a1.18,1.18,0,0,1-.67-1.7c5.17-9.08.12-22.21-1.34-25.6-.23-.53-.37-.83-.37-.83s.61,4.28.61,6.11,0,14.65-8.54,19.54c-6.49,4-10.19,8.38-12.27,12.28a16.17,16.17,0,0,0-1.61,10.83,1.19,1.19,0,0,1-1.82,1.22l-.36-.24a1.32,1.32,0,0,1-.5-.57c-.57-1.39-4.33-4.55,1.9-11.92,6.72-7.94,17.71-21.37,15.27-27.48S56.8,14,37.27,16.43s-9.77,17.1-9.16,17.71,8.69,7.29,14.65-1.22c2.82-4,.86-6.46-1-7.65a1.2,1.2,0,0,0-1.86,1c.08,2.36-.51,5.83-5.11,4.16-.6,0-5.41-7.8,6.42-9.12a1.29,1.29,0,0,1,.58.07c4.92,1.95,13,8,7.66,18.82C44,51.23,29.94,61,33.6,74.43c.34,1.23.74,2.43,1.18,3.58C32,74,29.6,69.83,29.34,66.57a.76.76,0,0,1,0-.15c0-8.53,7.33-17.64,9.77-21.29.84-1.27,1.61-2.39,2.26-3.31a3.22,3.22,0,0,0,.69-1l.39-.55a1.18,1.18,0,0,0-.88-1.88h0l-.1,0C39.76,38.71,18,42.14,22,28.69a.36.36,0,0,0,0-.1c3.07-18.13,31.11-22.5,41.27.12a.56.56,0,0,1,0,.12c.1.27.16.42.2.42.41,1,.39-.09-.22-2.15a1.16,1.16,0,0,1,0-.18C59.45-3.25,40.25-2.28,26.53,2.6a1.19,1.19,0,0,0,.6,2.29c7.5-1.33,13.48-.5,18.25,1.49a1.19,1.19,0,0,1-.66,2.27c-4.11-.53-9,.19-14.78,2.9C5.25,23.1,14.46,42.8,26.46,45.73a1.19,1.19,0,0,1,.72,1.81c-3.7,5.66-7.71,15.89-1,28.58A1.19,1.19,0,0,1,25,77.85c-3-.34-6.16-.6-9.63-.77a1.19,1.19,0,0,0-.47,2.31c13,4.63,34.46,16.39,23.23,41.53a1.19,1.19,0,0,1-2.26-.25c-1.32-6.43-4.82-15.06-14-19.59a1.19,1.19,0,0,0-1.48,1.76c5.23,7.42,15.22,25.77.23,42q-1.1,1.11-2.25,2.25l.08-.07c1.88-1.54,36.47-28.65,37.11-48.7a.37.37,0,0,1,0-.11,26.32,26.32,0,0,0-1.29-13.52,1.19,1.19,0,0,1,1.62-1.5,22.6,22.6,0,0,0,4.93,1.59,1.17,1.17,0,0,1,.94,1.07c.95,11.05-.28,39.39-32.77,61.38a1.19,1.19,0,0,0,1.14,2.08,72.59,72.59,0,0,0,6.54-3.18,1.19,1.19,0,0,1,1.7,1.46c-2.92,7.9-5.12,21.57,7.18,33.64a1.19,1.19,0,0,0,1.9-1.4c-3.74-7.17-8.1-21.16,2.24-42.85a1.11,1.11,0,0,1,.27-.37c10.93-10,20.94-26,22-51.2a1.19,1.19,0,0,1,.91-1.11l.31-.07.18-.06c9.2-3.65,11.8-12.3,12.33-19.52A1.19,1.19,0,0,0,83.4,64.16Z"/></g></g></svg>