<svg xmlns="http://www.w3.org/2000/svg" viewBox="0 0 156.3 156.5"><defs><style>.cls-1{fill:#ffffff;}</style></defs><title>Tattoos13</title><g id="Calque_2" data-name="Calque 2"><g id="Tatoo_13" data-name="Tatoo 13"><path class="cls-1" d="M155.19,79c-4.48-2.78-11.34,1.78-17.39,5.8a57.14,57.14,0,0,1-6,3.67c-5.59,2.7-11.83-6.24-11.9-6.33l-.61-.89-.45,1a7.46,7.46,0,0,1-3.06,3.26,2.3,2.3,0,0,1-2.27-.42,4.72,4.72,0,0,1-1.82-4.3,2.34,2.34,0,0,1,1.35-1.91c1.92-1,5.36-.6,7.25.41,2.46,1.31,7.8-.29,10.77-1.36l-.16-.59c1.93-.37,1-.37,1-.37l-1,.37-.16-.59-2.33.4c-2.61.42-2.87.08-3.66-.9a11,11,0,0,0-3.46-3c-4-2.31-5.25-1.66-7.17-.3-.41.29-.84.59-1.36.89-2.71,1.54-4.06,1.62-6.54.38l-.57-.28a6.21,6.21,0,0,0-3.41-.61l-.08-.06c-.44-.32-1.38-3-2.28-7.36.57-.84,1.64-2.32,3.6-4.87,1-1.29,2-1.94,3.06-1.9,1.57,0,2.79,1.62,3,1.95l1.44,4.33.7-.86a28.35,28.35,0,0,0,3-5c1-1.93,2.5-1.84,5.12-1.53a20.18,20.18,0,0,0,3,.19c3.21-.12,3.89-4.14,4.43-7.37.15-.9.3-1.75.48-2.47a12.66,12.66,0,0,1,.62-1.87c.58-1.46,1-2.51.79-9.22-.23-7.44,3-11,4.11-12.16a3,3,0,0,0,.45-.56l.6-1.18-1.29.3c-5.13,1.2-6.76,9.28-8.19,16.41a59.41,59.41,0,0,1-1.63,6.81c-2,5.86-12.78,4-12.88,3.94l-1.06-.2.37,1a7.58,7.58,0,0,1,.13,4.47,2.27,2.27,0,0,1-1.9,1.3,4.7,4.7,0,0,1-4.32-1.75,2.33,2.33,0,0,1-.4-2.3c.64-2.08,3.37-4.22,5.42-4.84,2.77-.85,5.51-6.16,6.59-8.48.7-1,1-1.55.54-2-.14-.12-.52-.33-1,.18l-.08.08-.05.11s-.16.37-.43.94-.72,1-1.32,1.88c-1.55,2.13-2,2.09-3.23,2a11,11,0,0,0-4.55.33c-4.43,1.17-4.88,2.54-5.28,4.86-.09.5-.17,1-.33,1.59-.82,3-1.72,4-4.37,4.9l-.2.07-.39.14a6.39,6.39,0,0,0-2.88,2c-2.85-.51-7.05-2.77-8.63-3.66-.21-1.19-.45-2.87-.72-5-.21-1.63.06-2.81.82-3.51a4.49,4.49,0,0,1,3.52-.77l4.08,2-.11-1.11a29.48,29.48,0,0,0-1.41-5.68c-.68-2,.46-3.07,2.54-4.71a20.15,20.15,0,0,0,2.28-2c2.19-2.37-.18-5.7-2.09-8.37-.53-.74-1-1.43-1.4-2.06a14.53,14.53,0,0,1-.89-1.77c-.61-1.44-1.06-2.48-6-7.08C78.27,8.37,78.06,3.55,78,2a2.32,2.32,0,0,0-.08-.71L77.5,0l-.69,1.12C74,5.59,78.59,12.45,82.62,18.51a58.59,58.59,0,0,1,3.66,6C89,30.06,80,36.31,80,36.37l-.89.61,1,.45A7.46,7.46,0,0,1,83.3,40.5a2.26,2.26,0,0,1-.42,2.26,4.72,4.72,0,0,1-4.3,1.82,2.34,2.34,0,0,1-1.91-1.35c-1-1.92-.6-5.36.41-7.25,1.3-2.44-.27-7.75-1.34-10.73-.23-1.17-.36-1.77-1-1.7-.18,0-.6.13-.6.85v.13l0,.11s.15.36.36.94.23,1.27.39,2.29c.42,2.6.09,2.87-.9,3.65a11.1,11.1,0,0,0-3,3.46c-2.31,4-1.66,5.25-.3,7.17.29.42.59.84.89,1.37,1.55,2.7,1.62,4,.38,6.55l-.28.56a6.17,6.17,0,0,0-.64,2.67,2.27,2.27,0,0,0-.48.4,5.89,5.89,0,0,1-4.17,1.87h-.24l-.21.18c-1.14-.82-2.52-1.84-4.08-3.05-1.3-1-1.94-2-1.91-3.06,0-1.57,1.62-2.79,1.95-3l4.33-1.45-.86-.71a30.12,30.12,0,0,0-5-3c-1.92-1-1.84-2.49-1.53-5.12a17.75,17.75,0,0,0,.19-3c-.13-3.23-4.15-3.9-7.39-4.44-.89-.15-1.73-.29-2.45-.47a13.11,13.11,0,0,1-1.88-.63c-1.45-.58-2.51-1-9.21-.79-7.4.23-11-3-12.15-4.1a3.12,3.12,0,0,0-.57-.46l-1.17-.57.3,1.27c1.19,5.13,9.28,6.75,16.41,8.19a57.83,57.83,0,0,1,6.8,1.62c5.86,2,3.95,12.78,3.93,12.89l-.19,1.06,1-.37A7.45,7.45,0,0,1,57,46.34a2.28,2.28,0,0,1,1.3,1.9,4.7,4.7,0,0,1-1.74,4.33,2.37,2.37,0,0,1-2.31.39c-2.08-.64-4.22-3.37-4.84-5.41-.84-2.78-6.16-5.52-8.48-6.6-1.06-.72-1.55-1-2-.54-.12.14-.33.52.18,1l.09.08.11,0,.94.43c.44.3,1,.72,1.87,1.32,2.13,1.55,2.09,2,2,3.23a10.91,10.91,0,0,0,.34,4.55C45.61,55.54,47,56,49.29,56.39a14.29,14.29,0,0,1,1.6.33c3,.82,4,1.72,4.9,4.36l.2.6a6.35,6.35,0,0,0,1.56,2.48.9.9,0,0,0,0,.16c-.1.36-1,2.49-3.07,7.41-1.48.27-3.49.57-6,.89-1.63.21-2.81-.07-3.51-.82a4.5,4.5,0,0,1-.77-3.52l2-4.09-1.11.11a29.15,29.15,0,0,0-5.68,1.42c-2,.68-3.07-.46-4.71-2.54a19.32,19.32,0,0,0-2-2.28c-2.38-2.19-5.7.18-8.37,2.08-.74.53-1.43,1-2.06,1.41a12.94,12.94,0,0,1-1.77.88c-1.44.62-2.48,1.06-7.08,6C8.37,76.65,3.55,76.85,2,76.92a3.41,3.41,0,0,0-.72.08L0,77.42l1.11.69c4.48,2.77,11.34-1.79,17.4-5.81a56.84,56.84,0,0,1,6-3.66c5.59-2.71,11.83,6.23,11.9,6.32l.61.89.45-1a7.51,7.51,0,0,1,3.06-3.26,2.28,2.28,0,0,1,2.27.43,4.72,4.72,0,0,1,1.82,4.29,2.33,2.33,0,0,1-1.35,1.91c-1.92,1-5.36.6-7.25-.41-2.45-1.3-7.75.28-10.73,1.35-1.17.22-1.76.35-1.7,1,0,.18.13.6.85.6h.13l.11,0s.36-.15.94-.36,1.27-.24,2.29-.4c2.6-.41,2.86-.08,3.65.91a11.24,11.24,0,0,0,3.46,3c4,2.31,5.25,1.65,7.17.3a13.59,13.59,0,0,1,1.37-.89c2.7-1.55,4-1.63,6.53-.39l.38.19.2.1a6.36,6.36,0,0,0,3.69.58c.47,1.15,1.17,2.77,1.7,4,.34.79.6,1.38.64,1.49a3.12,3.12,0,0,0,.27.55c-.82,1.17-2,2.68-3.34,4.49-1,1.29-2,1.93-3.06,1.9-1.57-.05-2.79-1.62-3-2L46,89.91l-.7.86a29.15,29.15,0,0,0-3,5c-1,1.93-2.5,1.85-5.12,1.54a18.94,18.94,0,0,0-3-.2c-3.22.13-3.9,4.15-4.44,7.39-.15.89-.29,1.74-.47,2.45a12.45,12.45,0,0,1-.62,1.88c-.58,1.45-1,2.51-.8,9.21.23,7.42-3,11-4.09,12.15a2.72,2.72,0,0,0-.46.58L22.71,132l1.27-.3c5.13-1.2,6.75-9.28,8.19-16.4a57.59,57.59,0,0,1,1.63-6.82c2-5.86,12.78-4,12.88-3.93l1.07.19-.38-1a7.52,7.52,0,0,1-.14-4.47,2.28,2.28,0,0,1,1.91-1.3,4.68,4.68,0,0,1,4.31,1.75,2.33,2.33,0,0,1,.4,2.3c-.64,2.08-3.36,4.22-5.41,4.84-2.64.8-5.28,5.68-6.63,8.53-.67,1-1,1.51-.51,1.92a.64.64,0,0,0,.39.14.9.9,0,0,0,.64-.33l.09-.08,0-.11s.16-.37.42-.94.74-1.05,1.34-1.88c1.54-2.13,2-2.09,3.22-2a11,11,0,0,0,4.55-.33c4.44-1.17,4.88-2.54,5.28-4.86.09-.5.18-1,.34-1.59.82-3,1.71-4,4.35-4.9l.1,0c.19-.06.37-.12.51-.18A6.48,6.48,0,0,0,64.7,99a74.42,74.42,0,0,0,7.43,2.15c.15.66.51,2.47,1.08,6.89.21,1.63-.06,2.81-.82,3.51a4.49,4.49,0,0,1-3.52.77l-4.09-2,.12,1.11a28.73,28.73,0,0,0,1.41,5.68c.68,2-.46,3.07-2.54,4.71a20.15,20.15,0,0,0-2.28,2c-2.19,2.37.18,5.7,2.09,8.37.52.74,1,1.43,1.4,2.06a14.53,14.53,0,0,1,.89,1.77c.61,1.44,1.06,2.48,5.95,7.08,5.42,5.09,5.63,9.91,5.69,11.49a3.44,3.44,0,0,0,.08.73L78,156.5l.69-1.11c2.78-4.48-1.78-11.34-5.81-17.4a58.59,58.59,0,0,1-3.66-6c-2.7-5.59,6.24-11.84,6.33-11.9l.89-.61-1-.45A7.46,7.46,0,0,1,72.21,116a2.26,2.26,0,0,1,.42-2.26,4.7,4.7,0,0,1,4.3-1.82,2.32,2.32,0,0,1,1.9,1.35c1,1.92.61,5.36-.4,7.25-1.3,2.44.27,7.75,1.34,10.73.22,1.12.34,1.7.91,1.7h.09c.18,0,.6-.14.6-.85V132l-.05-.11s-.15-.36-.36-.94-.23-1.27-.39-2.29c-.42-2.6-.09-2.87.9-3.65a11.23,11.23,0,0,0,3-3.46c2.31-4,1.66-5.25.3-7.17-.29-.42-.59-.84-.89-1.37-1.55-2.7-1.63-4-.38-6.53l.29-.58a6.37,6.37,0,0,0,.47-4.23,47.26,47.26,0,0,1,5.66-2.9c.75.5,2.3,1.59,5.27,3.88,1.29,1,1.93,2,1.9,3.06a4.54,4.54,0,0,1-1.94,3l-4.33,1.45.86.71a29.68,29.68,0,0,0,5,3c1.93,1,1.85,2.5,1.54,5.13a18.69,18.69,0,0,0-.2,3c.13,3.23,4.16,3.9,7.39,4.45.9.14,1.74.29,2.46.46a13.77,13.77,0,0,1,1.87.63c1.46.58,2.51,1,9.22.79,7.42-.24,11,3,12.15,4.1a3.12,3.12,0,0,0,.57.46l1.17.57-.3-1.27c-1.2-5.13-9.29-6.75-16.42-8.19a57.13,57.13,0,0,1-6.79-1.62c-5.87-2-4-12.78-3.94-12.89l.2-1.06-1,.37a7.35,7.35,0,0,1-4.47.14,2.3,2.3,0,0,1-1.3-1.91,4.7,4.7,0,0,1,1.75-4.31,2.33,2.33,0,0,1,2.3-.4c2.08.64,4.22,3.37,4.85,5.42.84,2.77,6.17,5.52,8.48,6.6a3.59,3.59,0,0,0,1.5.77.57.57,0,0,0,.46-.24c.11-.14.33-.52-.18-1l-.08-.09-.12-.05s-.37-.15-.94-.43-1-.72-1.87-1.32c-2.14-1.55-2.09-2-2-3.23a11.27,11.27,0,0,0-.34-4.55c-1.17-4.44-2.54-4.88-4.86-5.28-.5-.09-1-.18-1.59-.34-3-.82-4-1.71-4.9-4.36l-.2-.6a6.38,6.38,0,0,0-2.38-3.13,18.64,18.64,0,0,1,2.58-5c1.46-.29,3.7-.63,6.52-1,1.62-.2,2.8.07,3.5.83a4.49,4.49,0,0,1,.77,3.52l-2,4.08,1.11-.11a29.48,29.48,0,0,0,5.68-1.41c2-.68,3.07.46,4.71,2.54a19.24,19.24,0,0,0,2,2.27c2.38,2.2,5.7-.18,8.37-2.08.74-.53,1.43-1,2.07-1.4a11.59,11.59,0,0,1,1.76-.89c1.44-.61,2.48-1.06,7.08-5.95,5.09-5.42,9.91-5.63,11.5-5.7a2.45,2.45,0,0,0,.72-.08l1.24-.41ZM79.83,91.26A13.48,13.48,0,1,1,91.45,79.67,13.5,13.5,0,0,1,79.83,91.26Z"/></g></g></svg>