<svg xmlns="http://www.w3.org/2000/svg" viewBox="0 0 183.28 155.79"><defs><style>.cls-1{fill:#ffffff;}</style></defs><title>Tattoos10</title><g id="Calque_2" data-name="Calque 2"><g id="Tatoo_10_-" data-name="Tatoo 10 -"><path class="cls-1" d="M28.31,63.43S20.39,55.88,17,59.66,28.31,63.43,28.31,63.43Z"/><path class="cls-1" d="M20,67.2s-13.21-6-15.09-.75S20,67.2,20,67.2Z"/><path class="cls-1" d="M0,78.9c-.38,4.91,9.44-4.15,9.44-4.15S.39,74,0,78.9Z"/><path class="cls-1" d="M13.22,89.85c4.15,1.51,1.13-8.31,1.13-8.31S9.07,88.34,13.22,89.85Z"/><path class="cls-1" d="M21.52,90.6c4.91,2.27,3-11.32,3-11.32S16.62,88.34,21.52,90.6Z"/><path class="cls-1" d="M124.92,25.69c-15.47,20.76-12.45,39.63-12.45,39.63,6-13.59,27.17-9.06,42.27-24.16s-9.06-23.77-6.42-29.43-3-9.81-3-9.81c-10.57,10.56-32.08-3.78-41.89,16.22S103,64.56,103,64.56C110.21,35.88,124.92,25.69,124.92,25.69Z"/><path class="cls-1" d="M151.45,54.58c-22.26-.84-42.57,18.5-42.57,18.5,29.12-5.09,44.4,4.23,44.4,4.23C128,71.59,112,82,112,82c14.86,0,19.3,21.16,39.22,28.82S169.3,92.91,175.54,93s7.74-6.74,7.74-6.74C169.34,80.91,173.71,55.43,151.45,54.58Z"/><path class="cls-1" d="M106,81.93c15.93,24.9,13.23,42.6,13.23,42.6C114.81,99,99,88.27,99,88.27c5.73,13.72-12.08,26-11.47,47.31s23.51,9.74,25.81,15.55,9.2,4.54,9.2,4.54c-.42-14.94,24.77-20.73,17-41.6S106,81.93,106,81.93Z"/><path class="cls-1" d="M93,80c-15.75,25-32.91,30.11-32.91,30.11C81.3,95.18,84.31,76.31,84.31,76.31c-10,11-28.64.13-47.69,9.77s1.2,25.41-3.08,30-.19,10.26-.19,10.26c13.33-6.74,29.3,13.59,44.86-2.35S93,80,93,80Z"/><path class="cls-1" d="M48.92,48.41C64,64.8,92.05,65.57,92.05,65.57,67.92,48.5,63.75,31.09,63.75,31.09c13.74,21.94,32.42,26,32.42,26C85.7,46.5,97.57,28.44,89,8.91S63.53,8.74,59.21,4.23,49,3.49,49,3.49C55,17.17,33.83,32,48.92,48.41Z"/><path class="cls-1" d="M80,71.36c10.56,3.77,18.11,10.56,23,3.39C105.6,71,58.3,50,13.6,76.26c-6.42,3.78,5.66,1.51,16.22-3S69.45,67.58,80,71.36Z"/><path class="cls-1" d="M30.2,84.56c3.77,1.14,1.89-9.81,1.89-9.81S26.43,83.43,30.2,84.56Z"/></g></g></svg>