<svg xmlns="http://www.w3.org/2000/svg" viewBox="0 0 194 139.42"><defs><style>.cls-1{fill:#ffffff;}</style></defs><title>Tattoos15</title><g id="Calque_2" data-name="Calque 2"><g id="Tatoo_16" data-name="Tatoo 16"><path class="cls-1" d="M192.73,1.65c-6,8.71-13.44,15.36-24,17.81-2.5.58-5,1.26-7.49,1.81a108.57,108.57,0,0,0-25.33,8.81c-13.61,6.78-22.5,17.86-29.05,31.15-1.85,3.75-3.39,7.66-5.08,11.5a44.47,44.47,0,0,1-1.89-8.22,3.22,3.22,0,0,1,.59-1.92c2-3.12,1.29-4.73-2.35-5.17a9.22,9.22,0,0,0-3.68.39c-2,.6-2.4,1.86-1.42,3.72.41.79,1.26,1.61,1.19,2.35-.3,3-.86,6-1.33,9a89.09,89.09,0,0,1-4.14-8.77C81.07,47,69.54,33.65,51.52,27.06A179,179,0,0,0,28,20.2C16.9,17.79,8.57,11.84,2.19,2.76L.25,0,0,.15Q4.34,12.08,8.66,24l.25-.09-3-11.36c5.2,4.42,11.16,7.06,17.22,9.52,2.64,1.07,5.32,2,8,3.07,5.07,2,10,4.24,14,8a17,17,0,0,1,5.41,8.72,8.46,8.46,0,0,1-3.63,8.9c-3,1.8-7.36,1.19-10.5-1.46-2.27-1.91-2.47-3.84-.83-7.93,0-.11,0-.26,0-.38-4.89,2.55-4.18,8.26,1.54,13.21-7.37-2.8-13.23-7.75-18.82-13.16A112.49,112.49,0,0,0,29,51.93a27.08,27.08,0,0,0,13.84,6.39c6.92,1,12-3.46,11.57-10.43A17.11,17.11,0,0,0,53,42.08C51,37.72,48.82,33.47,46.6,28.93A52.79,52.79,0,0,1,65,36.51c10.1,6.47,15.84,16.15,20,27,1.84,4.77,3.28,9.62,2.87,14.82-.27,3.54-2,6-4.66,6.76a7.83,7.83,0,0,1-8.55-2.92,13.89,13.89,0,0,1-1.33-13.72,4,4,0,0,1,7.3-.5,6.34,6.34,0,0,1,.86,3.91c-.16,1.17-1.24,2.2-1.86,3.2a4.59,4.59,0,0,0,3.29-4.75,6.48,6.48,0,0,0-4.16-6.17c-3.34-1.36-5.6-.48-9,3.49,2.66-13.24-1.7-21.24-8-26.2,7.31,8.73,7,21.19,4.07,28.17-2.2,5.16-6.11,7.65-11.69,7.22a21,21,0,0,1-14.2-7.1c-1-1-1.82-2.18-2.74-3.29-.1.15-.18.23-.16.27a4.13,4.13,0,0,0,.32.75,25.18,25.18,0,0,0,17,12.37,159.17,159.17,0,0,1,16.36,4.76A11.57,11.57,0,0,1,75,88a5.38,5.38,0,0,1,.16,6.09c-1.22,1.8-3,2.07-5,1.68a16.83,16.83,0,0,1-9.55-5.16c-1.66-1.83-3.29-3.69-4.92-5.54,2.32,5.74,2.54,11.58,1.77,17.63a15.88,15.88,0,0,0,.71,7.38,123.67,123.67,0,0,0,6.2,13.38c1.71,3.29,3.46,6.52,3.8,10.28.16,1.77.18,3.54.29,5.66l10.19-17.74-.21-.15-5.9,6.6-5.93-7.47c.56-.09,1.1-.19,1.64-.26,9.19-1.14,15.55-6.26,19.8-14.24a9.3,9.3,0,0,0,1.3-4.33,5.35,5.35,0,0,0-1.72-3.66,4.53,4.53,0,0,0-5.1-.12c-.11.06,0,.49,0,.74,4.33.06,5.34,1.56,4,5.71l-.21.59c-2.42,6.44-7.9,10.43-14,10.21-8.49-.32-13.69-9.48-10.32-18.19,7.37,3.14,12,2.59,18.31-2.58a70.2,70.2,0,0,0,7.28-7.15c1.9-2.06,3.51-4.38,5.25-6.59l.67-.06c.43,2.32,1.18,4.62,1.21,6.94.06,5.14-.39,10.29-.33,15.43a25.61,25.61,0,0,0,1.29,6.28A2,2,0,0,0,97,110.61a2.1,2.1,0,0,0,1.48-1.19,10.34,10.34,0,0,0,1-3.78c.06-5.9.17-11.82-.21-17.7-.18-2.81,1-4.86,1.93-7.45l1.3,1.81c3.63,5,7.57,9.65,12.61,13.25,5.27,3.76,10.84,4.91,16.81,1.59.09,0,.26,0,.6.08.2,1.88.55,3.8.59,5.73A12.13,12.13,0,0,1,123.93,115c-7.55,1.77-16.69-5.43-16.79-13.22,0-2.23,1-3.16,3.19-3,.44,0,.89,0,1.37,0,0-.42,0-.76-.06-.81a4.62,4.62,0,0,0-5.11.14,6.36,6.36,0,0,0-1.77,3.67,5.85,5.85,0,0,0,.79,3.18c3.72,7.88,9.62,13.18,18.27,15.1,1.2.26,2.43.35,3.71.52l-5.92,7.48-5.88-6.52-.19.18,10,17.33c.15-.1.25-.13.25-.17,0-.55,0-1.11,0-1.66a24,24,0,0,1,3.4-12.72c1.87-3.17,3.61-6.43,5.19-9.75a22.67,22.67,0,0,0,2.24-13.58,27.72,27.72,0,0,1,1.32-14.18c.19-.51.32-1.06.63-2.1-1.65,1.89-2.93,3.35-4.2,4.82a17.48,17.48,0,0,1-10.64,6.07c-3.66.61-6.25-1.94-5.43-5.56a6.75,6.75,0,0,1,2.44-3.91,35,35,0,0,1,8.18-4c4.09-1.29,8.37-2,12.55-3.05,7.57-1.87,12.67-6.71,16-13.53a8.54,8.54,0,0,0-1.41,1.64,22.34,22.34,0,0,1-14.41,9.18c-6.13,1.14-11-1.25-13.26-7.09a31.72,31.72,0,0,1-1.93-9.31,26.71,26.71,0,0,1,5.78-18.81c-8,6.86-9.9,15.68-7.78,26.11-3.92-4.09-6.19-4.79-9.51-3.26a6.51,6.51,0,0,0-3.72,6.84,4.15,4.15,0,0,0,3.63,3.93,15,15,0,0,1-1.41-1.26,4.27,4.27,0,0,1-.65-4.69,4.58,4.58,0,0,1,4-3.24A3.8,3.8,0,0,1,120.57,68c2.35,4,1.47,11.58-1.72,14.92a7.69,7.69,0,0,1-8.25,2c-2.92-.89-4-3.37-4.26-6.12a22.91,22.91,0,0,1,.18-6c1.4-8.36,4.9-16,9.42-23,7.38-11.51,18.35-17.82,31.89-21-.94,1.71-1.74,3-2.35,4.33-1.89,4.17-4.22,8.23-5.45,12.59-2.21,7.87,3.65,14,11.66,12.45a32.69,32.69,0,0,0,8.58-3.06c6.27-3.21,10.92-8.32,15.14-13.85C170,46.61,164.29,51.5,157,54.2c5.67-4.86,6.43-11,1.5-13.07,1.35,3.75,1.44,4.85.53,6.55-1.39,2.6-6.24,4.67-9.48,4a8,8,0,0,1-6.16-7.06,11.68,11.68,0,0,1,2.37-7.82c3.26-4.78,8-7.68,13.11-10,2.79-1.24,5.66-2.32,8.51-3.42,7.32-2.8,14.61-5.63,20.78-10.89q-1.29,5-2.56,10l.35.09,8-22.2A3,3,0,0,0,192.73,1.65Z"/><path class="cls-1" d="M81.75,28.78A6,6,0,0,1,84,30.61a35.68,35.68,0,0,1,3,6.15c1.49,4.23,2.74,8.54,4.08,12.83l.24,0A58.85,58.85,0,0,0,90,43.78c-1.72-5-3.5-10-5.46-15a4.7,4.7,0,0,0-4.38-3.1A2.84,2.84,0,0,0,81.75,28.78Z"/><path class="cls-1" d="M100.69,34.67c1-2.47,1.74-5.27,4.92-6.23.63-.19.88-1.64,1.3-2.51l-.89-.65a21.32,21.32,0,0,0-3.46,3.23,19.3,19.3,0,0,0-2.42,5C98.37,39,96.76,44.46,95.08,49.93l.4,0C97.2,44.86,98.77,39.69,100.69,34.67Z"/></g></g></svg>