<svg xmlns="http://www.w3.org/2000/svg" viewBox="0 0 186.21 64"><defs><style>.cls-1{fill:#ffffff;}</style></defs><title>Tattoos01</title><g id="Calque_2" data-name="Calque 2"><g id="Tatoo_01" data-name="Tatoo 01"><path class="cls-1" d="M93.12,57.21l.63-1.66c0-.07.06-.15.09-.23l0-.12c.05-.12.11-.25.16-.38s.2-.46.31-.72a68.78,68.78,0,0,1,4.39-8.31c.17-.28.34-.56.52-.84l.33-.51c.56-.86,1.2-1.79,1.9-2.77l.61-.83.58-.76,0,0,.09-.12.31-.39c.13-.18.28-.36.44-.55s.29-.36.46-.55l0,0,.42-.49h0c.17-.21.35-.41.53-.62l.2-.22a52.11,52.11,0,0,0,9.16,5.23,63.13,63.13,0,0,0-12.52,21,.55.55,0,0,0,.29.7.54.54,0,0,0,.25.06.55.55,0,0,0,.48-.28c4.47-7.48,11.38-14.07,17.72-19.12a61,61,0,0,0,17.6,2.49c11.95,0,38.88-8.56,39.65-9.1.68-.32,0-.61-.16-.62s-8.17,1.35-12.71,2.39c-11,2.53-24.53,5.64-39.82,1.39,4.44-3.21,8.14-5.44,9.8-6.4,12.86,3.89,31.58,5.47,51-6.85a.52.52,0,0,0-.45-.93c-8.4,3.23-37.86,12.27-64-6.93a.52.52,0,0,0-.33-.11h-.07a28.15,28.15,0,0,0-9.87,2.84,39.74,39.74,0,0,0-9.25,6.2c-1.92-1.51-3.85-3.16-5.8-5-.4-.37-.79-.74-1.17-1.12.71-1,1.35-2,1.94-2.91,3.53-5.63,7.23-17,7.65-19.37l.06-.15h0a.55.55,0,0,0,0-.27l-.1-.17-.4,0L104,.23C100.49,9.94,97.33,16,93.11,20.88,88.89,16,85.72,9.94,82.2.23L82.13,0l-.4,0-.1.17a.55.55,0,0,0,0,.27h0l.06.15C82.07,3,85.77,14.34,89.3,20c.59.94,1.23,1.91,1.94,2.91-.38.38-.77.75-1.17,1.12-1.95,1.81-3.88,3.46-5.8,5A39.53,39.53,0,0,0,75,22.77a28.15,28.15,0,0,0-9.87-2.84h-.07a.52.52,0,0,0-.33.11C38.56,39.24,9.1,30.2.7,27a.52.52,0,0,0-.45.93c19.43,12.32,38.15,10.74,51,6.85,1.66,1,5.36,3.19,9.8,6.4-15.28,4.25-28.83,1.14-39.82-1.39-4.54-1-12.5-2.39-12.71-2.39s-.84.3-.16.62c.77.54,27.7,9.1,39.65,9.1a61,61,0,0,0,17.6-2.49c6.34,5,13.25,11.64,17.72,19.12a.55.55,0,0,0,.48.28.54.54,0,0,0,.25-.06.56.56,0,0,0,.3-.7,63.2,63.2,0,0,0-12.53-21A52.11,52.11,0,0,0,81,37.05l.2.22c.18.21.36.41.53.62h0l.42.49a.1.1,0,0,0,0,0l.45.55c.16.19.31.37.44.55l.31.39.09.12,0,0,.58.76.61.83c.7,1,1.34,1.91,1.9,2.77L87,45c.18.28.35.56.52.84a68.78,68.78,0,0,1,4.39,8.31c.11.26.22.5.31.72s.11.26.16.38l0,.12c0,.08.07.16.09.23l.63,1.66ZM68.21,38.64A52.77,52.77,0,0,0,59,31.91,57,57,0,0,0,68.16,27c.46.22.91.45,1.35.7.87.48,1.7,1,2.47,1.48l.52.35a43.18,43.18,0,0,1,5.18,4.13A66.31,66.31,0,0,1,68.21,38.64Zm25.1.28a.65.65,0,0,0-.09.26v.13l-.11-.15-.21-.24a56.19,56.19,0,0,0-5.64-7A60,60,0,0,0,93.1,25.4,61.18,61.18,0,0,0,99,31.87,56.19,56.19,0,0,0,93.31,38.92ZM118,38.64a65.69,65.69,0,0,1-9.46-5,42.32,42.32,0,0,1,5.17-4.13l.52-.35c.77-.5,1.6-1,2.47-1.48.44-.25.89-.48,1.35-.7a57,57,0,0,0,9.17,4.92A53.15,53.15,0,0,0,118,38.64Z"/></g></g></svg>