<svg xmlns="http://www.w3.org/2000/svg" viewBox="0 0 168.88 188.34"><defs><style>.cls-1{fill:#ffffff;}</style></defs><title>Tattoos05</title><g id="Calque_2" data-name="Calque 2"><g id="Tatoo_07_-" data-name="Tatoo 07 -"><path class="cls-1" d="M81.56,166.25c-.06-7.28-.12-14.56-.19-22.49l16.69,15.65c-1.07-3.35-1.89-5.88-3-9.19,1.19,1.22,1.77,1.88,2.41,2.46,5.31,4.83,10.66,9.62,17.74,11.76,3.4,1,6.9,1.69,10.27,2.78,4.56,1.47,8.26,4,9.27,9.13.87,4.45-.69,7.81-5.41,10.21,4.57-.44,6.77-3,7.35-6.18,1.16-6.41-2.21-10.78-8.41-13.75,12.51-.94,20.93-7.13,24.68-17.61,2.92-8.18.13-18.1-6.35-22.55a8.23,8.23,0,0,0-10.22.21c6.85-1.29,10.83.62,13.58,6.51a20.68,20.68,0,0,1-4.83,23.89c-8.58,7.86-22.36,8.93-34.47,3.26s-18.91-16.19-25.9-27c6.37,1.32,12.58,3.12,18.82,4.78a8.21,8.21,0,0,0,2.81-.33l-.29-1.14-1.51.88-1.45-3.83c-2.23-3.76-5.27-7.26-6.52-11.32-2.13-6.89-5-12.92-11.89-17.64l3.5.48a6.94,6.94,0,0,1,1.84-.81,31.79,31.79,0,0,0,25.79-21.23c-2.47,2.83-4.84,5.74-7,8.77-7.45,10.22-24.83,13.81-34.57,7l5.28-1.58-.15-.48-1.81,0,8.89-7.13-6.75.71,1.48-2.07-6.09.88c12-7,25.12-8.24,38.73-7.46-9.09-6.82-27.41-7.9-36.52.65a32.22,32.22,0,0,1-4.37,3l-.54-1.25c9.68-9.66,21.43-10.67,34.23-7.32-9.85-4.5-18.41-3.51-32.24,3.59a14.5,14.5,0,0,1,.44-2.06c2.54-6.53,2.58-13.18,1-19.91-2-8.8-7.46-15.86-12.24-23.24-.29-.43-1.35-.35-2.06-.51,9.83,9.28,14.81,33.09,9.06,44.73-.4-2.86-.8-5.65-1.19-8.44l-.44.06c-.12,2.6-.25,5.21-.37,7.81l-.4,0q-.75-4.19-1.52-8.38l-.63.1L65,78.52l-.34,0-2-10.31a14.17,14.17,0,0,0-.8,5.22c-.07,1.67-.23,3.34-.42,5.8-6.28-14.36-1.34-27.66.27-41-9.37,13.11-15.48,26.64-6,42.31,1.32,2.19,2.69,4.35,4.34,7,.39-1.38.57-2,.83-2.92.47.85.86,1.53,1.34,2.39l1-2.92c.43,1.72.71,2.83,1,4.13,1-1.16,1.74-2,2.48-2.88l1.15.58-3.39,9c-2.32-2.81-4.11-5.48-6.38-7.63-9.06-8.59-10.62-19.08-8-30.61.59-2.57,2-5,3-7.44-3.93,5.14-4.76,11.27-5.49,18.43C43,61.56,39.08,56.3,35,51.12,29,43.34,25.69,35,27.22,24.75,30,5.91,48.15-1.12,62.3,3.09,68.71,5,74.42,8,78.89,13,73.48,4.81,65.39,1,56,.16c-15.87-1.45-25.3,7-30.54,21.56-.59-1.48-1-2.55-1.44-3.58A18.1,18.1,0,0,0,5.84,7.29C2.06,7.68.07,9.89,0,13.74,2,9,5,7.48,10.46,8.51,17.64,9.87,24,16.67,25,24.57,25.69,30,26,35.49,26.51,40.82L39.1,59.53l-.45.75L14.19,49.49C16.31,61.7,18,74.37,29.51,82.42L4.09,98.89l3.25,1.92L6.37,99c5.76-3.21,11.39-6.18,16.86-9.43A28.89,28.89,0,0,1,41,85.38c4.78.43,9.73.89,12.34,6.05l-5.93.28-.06.48,3.13.74-5,1.31.15.49,3.83.54c0,.18,0,.37,0,.56l-9.79,2,0,.41,5.81.81c-12,4.45-23.89,3.11-35.84.82,10.7,8.88,22.71,12.41,36.35,10.1-8.88,5-17.72,2.28-26.58-.36,7.25,4.47,15.14,5.06,24.31,3.59-9.35,12.21-7.28,25.23-5.65,38.66l2.77-1c-.63-1-1.5-1.68-1.55-2.46-.24-3.53-.72-7.15-.25-10.61.74-5.4,1.57-10.92,3.47-16,2.66-7.08,3.66-7.55,9.8-11.1-.39,1.14-.72,2.14-1.12,3.33l1.66-.67c-.61,2.56-1.2,5-1.79,7.48l.49.11q1.5-2.31,3-4.62l.63.25L54,124.45c1.37-2,2.14-3.22,3-4.47,1.72,2.85-.61,4.59-1.12,6.75-1.53,6.42-5.73,10.77-10.12,15.18a76.26,76.26,0,0,0-5.35,6.6c11.84-6.38,23.67-12.73,24.17-28.39,2.15,11.69-5.22,18.55-12.66,25.43,5.53-2.42,8.72-7.23,12-12,6.83,10.44,14.77,20.1,16.84,32.83ZM35.43,77.52l4.16-.33c-3.43-5.72-9.42-5.52-14.59-7.14l6.14.5c.18-.3.36-.59.53-.89L21,60.4c0,.14,0-.68-.05-1.66l7.34,6c.08-1.35.14-2.28.19-3.22-.07,5.25,4.2,7.32,7.58,10.64l.82-5.84.42,0c.19.88.73,1.87.5,2.62-1.58,5,2,6.47,6,8.4,0-2.93-.07-5.56-.1-8.18l.58-.09c.32,2.23,1,4.5.83,6.67-.26,2.54.84,3.45,2.87,4.22,1.64.63,3.16,1.58,5.46,2.75Zm57.41,73.86c-2.73-2.4-5.25-5.12-8.25-7.12a16.26,16.26,0,0,1-7.29-9.77,21.27,21.27,0,0,0-1.73-3.69l.74-.57C84.24,135.2,89.42,142.5,92.84,151.38ZM66,106l-2.56-1.73a9.73,9.73,0,0,1,.62-3.38c.23-.48,2-.19,2.68-.22Zm1.1-12.28a23.79,23.79,0,0,1,2,2,10.25,10.25,0,0,1,1,1.91l-3.69,1.87c-.36-1.29-.91-2.17-.75-2.91A12,12,0,0,1,67.05,93.71Zm-12,6.06,2.73-1.13-.28-.55-3.95.47c-.07-.14-.13-.28-.19-.43l3.76-1.37L55.7,96V95.4l4.68,0C60.44,99,58.79,100.56,55.09,99.77Zm1.73,7.66L58,103.91l-2.59,1.4c-.12-.19-.23-.39-.34-.59a16.54,16.54,0,0,1,2.4-2.27,36,36,0,0,1,3.91-1.87,26.43,26.43,0,0,1-.49,5.14c-.32,1.09-1.44,1.94-2.77,3.62.43-1.78.65-2.71,1-4Zm7.83,3.62,4.21,4.08c-.4-1.3-.59-1.91-1-3.16l3.74,3.15c-.09-.79-.16-1.38-.27-2.26l2.86,1.51c-.71-1.35-1.07-2.05-1.43-2.74l.41-.53,6.69,3.55.39-.32-6.17-6.28c8.29,1.7,12.38,8,16.87,13.53,3.64,4.53,6.83,9.41,10.34,14.3-7.57-2.41-15.39-4.32-22.72-7.38S66.41,119.86,64.65,111.05Zm3.47,25.11c-2.63-4.07-2.84-8.26-1.34-13,10,8.55,11.93,20.18,13.45,32.59C76,148.9,72.19,142.45,68.12,136.16Z"/><path class="cls-1" d="M107.32,38.82c-4.84-.28-7.36,2.89-9.8,6.33a4.57,4.57,0,0,1-2.37,1.31c-.18,0-.82-1-1-1.6-1.24-3.55-3-6.65-6.67-8.26-3.25-1.43-4.45-.41-4.79,3-.4,4.09,1.34,6.72,4,8.2L87.57,55l1.14.74L95,51a2,2,0,0,1,1,1c.77,2.45,2.47,4.54,4.76,3.93,1.23-.33,1.75-3.41,2.57-5.26a3.51,3.51,0,0,0,.14-.9c4.15-.85,5.72-3.66,6.45-7.48C110.43,39.85,109.69,39,107.32,38.82Z"/><path class="cls-1" d="M121.26,105c-.46.25-.83.77-1.3.86-5.73,1-5.72,1-2.32,5.71.29.4.43.92.34.73l-4.22,4.85c1.93.69,3.18,1.07,4.38,1.58a16.56,16.56,0,0,1,2.09,1.26,42,42,0,0,0,5.55,3.33c2.37,1,3.59-.75,2.73-2.59-1.14-2.44-3.18-4.47-4.88-6.64a12.94,12.94,0,0,0-1.47-1.47,72.67,72.67,0,0,0,7-6c.71-.77.59-2.62.26-3.82-.12-.42-2.1-.78-3-.46A35.41,35.41,0,0,0,121.26,105Z"/><path class="cls-1" d="M143.79,77c-1.32,1.35-1.9,3.4-2.82,5.14a9.65,9.65,0,0,1-1,1.8c-.95,1.12-2,2.15-3.38,3.63l5.55,2.5.39,5.56c1.55-.33,3.08-.74,4.65-.94a3.74,3.74,0,0,1,1.78.54c2.72,1.2,5.17.35,7.42-1.14a2.46,2.46,0,0,0,.43-2.08,33.69,33.69,0,0,0-5.92-3.42,17.24,17.24,0,0,0-4.43-.69c.73-3.62,1.85-6.47,1.75-9.29C148.14,75.43,146,74.74,143.79,77Z"/><path class="cls-1" d="M121.93,27.65c-1.83,2.4-3.3,5.06-5.13,8,1.26.72,2.7,1.54,4.18,2.4.12,1.53-2.66,4,1.15,4.57a23.42,23.42,0,0,0,6.42.15c1.43-.19,2.75-1.19,4.12-1.82-1-1.21-1.82-2.87-3.12-3.53-1.5-.74-3.45-.6-5.67-.91C124.51,35,125,34,125.33,33a9.23,9.23,0,0,0,1-3.22,12.51,12.51,0,0,0-1.17-3.44C124,26.74,122.53,26.85,121.93,27.65Z"/><path class="cls-1" d="M155.15,61.68c-.06,2,.47,4.31-.28,6-2,4.52.85,3.27,2.86,2.79.55,1.26,1,2.33,1.44,3.27a38.94,38.94,0,0,0,5.09-2.52,11.56,11.56,0,0,0,2.17-2.8,12.36,12.36,0,0,0-3.53-1.12,9.78,9.78,0,0,0-3.12,1L157,61.37Z"/><path class="cls-1" d="M142.18,33.51c-.09,2.12-.18,4.24-.25,5.92l4.27,2.18-.8-.84,6.7-1.55-1.18-2.13-5.21.55-2.12-4.44Z"/><path class="cls-1" d="M119.89,171.44a14.63,14.63,0,0,1-2,11.79c-2.57,3.9-6.67,4.56-10.92,4.88C117.22,189.83,123.66,181.45,119.89,171.44Z"/><path class="cls-1" d="M163.8,33.11l5.08-1.19V31l-3.7-1.26c-.1-1.3-.2-2.61-.34-4.63C161.08,28,162.32,30.53,163.8,33.11Z"/><path class="cls-1" d="M106.11,170.13c-2.66-1.42-5.37-1.64-7.46.72-2.71,3.06-3.24,6.64-1.38,10.82C96.86,172.43,99.31,169.39,106.11,170.13Z"/><path class="cls-1" d="M94.62,112.77c1,3,2,6.06,3.19,9,1,2.49,2.19,4.89,3.3,7.32-1.13-3.79-2.1-7.65-3.45-11.37C97,116,95.65,114.42,94.62,112.77Z"/></g></g></svg>