<svg xmlns="http://www.w3.org/2000/svg" viewBox="0 0 127.71 181.24"><defs><style>.cls-1{fill:#ffffff;}</style></defs><title>Tattoos09</title><g id="Calque_2" data-name="Calque 2"><g id="Tatoo_09_-" data-name="Tatoo 09 -"><path class="cls-1" d="M29.67,37.91A9.2,9.2,0,0,0,35.13,33c-.74.23-1.48.46-2.21.72a31,31,0,0,0-8.45,4.54A8.86,8.86,0,0,0,29.67,37.91Z"/><path class="cls-1" d="M37,53.86a9.4,9.4,0,0,0-4.86,4.89,52.23,52.23,0,0,0,12.28-2.93C42.58,53.72,40.05,52.58,37,53.86Z"/><path class="cls-1" d="M69.25,127.79q2-1.58,4.07-3c2.29-1.6,4.62-3.16,7-4.72A59.24,59.24,0,0,0,76,114.42c-2.27-2.66-4.93-5.53-8.14-7.14-.44.25-.88.51-1.31.78a61.62,61.62,0,0,0-11.87,9.49c4.18,1.45,7.93,4.72,11.2,7.41C67,125.9,68.12,126.86,69.25,127.79Z"/><path class="cls-1" d="M66.75,129.82c-1.21-1-2.4-2-3.62-3-3.13-2.57-6.78-5.66-10.85-6.65a45.58,45.58,0,0,0-11.22,28.28,34.85,34.85,0,0,0,.06,3.54,34.43,34.43,0,0,1,13-5.37C56.34,140,61.28,134.44,66.75,129.82Z"/><path class="cls-1" d="M89.22,143.89c-10-7.53-25.4.62-24.18,13.19.22,2.32,3.63,3.11,4.26.58,1.06-4.28,5.21-8.27,9.75-8.47s8.07,3.39,8.9,7.62c1,4.87-3.85,9.77-7.56,12.05q-.67.4-1.38.75a90.72,90.72,0,0,0,7.83,6.81,9.49,9.49,0,0,0,2.91-3.52h0a23.22,23.22,0,0,0,7-13.9C97.48,152.9,93.88,147.39,89.22,143.89Z"/><path class="cls-1" d="M66.21,170.94a18.12,18.12,0,0,1-10.72-8.07,18.46,18.46,0,0,1-2.31-12.82,32,32,0,0,0-11.65,5.52,36.34,36.34,0,0,0,1.9,7,26.11,26.11,0,0,0,1.63,5.74,18.42,18.42,0,0,0,3,4.94c2.79,3.19,7.07,5,11,6.31a34.48,34.48,0,0,0,13.65,1.52A33.76,33.76,0,0,0,84,178.19a105,105,0,0,1-8.24-7.34A19,19,0,0,1,66.21,170.94Z"/><path class="cls-1" d="M116.11,74.9A10.78,10.78,0,0,0,122,81.78a27.77,27.77,0,0,0,1.74-12.08,40.1,40.1,0,0,0-2.05-10A14.74,14.74,0,0,0,116.11,74.9Z"/><path class="cls-1" d="M96.48,72.34c-.59-3.2-2.69-5.5-5.25-7.29a35.94,35.94,0,0,1,1.32,16A8.07,8.07,0,0,0,96.48,72.34Z"/><path class="cls-1" d="M123.64,131.9v0a16.3,16.3,0,0,0-6.26-9.95,13,13,0,0,0-2.71-1.6l-.37-.17a58.32,58.32,0,0,1,4.69-6.37,21.53,21.53,0,0,0,3.89-6.1c1.05-2.74,0-6-1.27-8.4S118,94.64,116,92.59l-1-1.07s0,0,0,0a29.89,29.89,0,0,0,5.7-6.91c-3.9-2-7-5.12-7.85-9.91a18.08,18.08,0,0,1,7.8-18,72.7,72.7,0,0,0-7.9-14.27,26.49,26.49,0,0,0-13.44-9.74h0a45.58,45.58,0,0,0-14.94-5.89,0,0,0,0,1,0,0,19.2,19.2,0,0,0,2.54-4.93c.75-2.45-.2-5.06-1.4-7.18a27.32,27.32,0,0,0-17-12.45A4.72,4.72,0,0,0,63.55,4h0A13.88,13.88,0,0,1,57.64.47a1.65,1.65,0,0,0-2.74,1.6A12.1,12.1,0,0,0,57.84,7.5s0,0,0,0c-.85,0-1.69,0-2.53.06a1.76,1.76,0,0,0-.88,3.24,19.59,19.59,0,0,0,4.83,2.54s0,0,0,0a16.06,16.06,0,0,0-4.12,2.18,2,2,0,0,0,.42,3.2c2.72,1.5,6.48.67,9.24-.35a23.08,23.08,0,0,0,5.28-2.69h0c1,1,2,2,2.86,3.05A3.08,3.08,0,0,1,73.52,20l-.07.1c-1,1.13-2.54,1.74-3.78,2.58a17.52,17.52,0,0,0-4.6,4.84h0A23.61,23.61,0,0,0,57,32h0a16.88,16.88,0,0,0-2.58-.67,34.75,34.75,0,0,0-7.34-.52,45.65,45.65,0,0,0-8,1.11l0,0a12.57,12.57,0,0,1-9.24,9.48,11.78,11.78,0,0,1-8.18-.65h0A22.12,22.12,0,0,0,15.3,54.13a3.25,3.25,0,0,0,.09,1c-.17.13-.33.27-.5.39-1.06.79-2.34,1.45-3.55,2.18a1,1,0,0,1-1.27-.12,2,2,0,0,0-2.59-.25c-1.74,1.12-3.38,2-5.51,1.81s-2.72,3-.73,3.71a9.66,9.66,0,0,0,4,.57,1.07,1.07,0,0,1,1.13,1.18,13.5,13.5,0,0,1-.27,1.65A1.67,1.67,0,0,0,9.21,67.3a14.64,14.64,0,0,0,1.42-5.52,1,1,0,0,1,.76-1,35.14,35.14,0,0,0,4.76-2.13c.43-.2.85-.42,1.28-.64a3.05,3.05,0,0,0,1.26.51,53.08,53.08,0,0,0,9.67.47h0a12.88,12.88,0,0,1,8.1-8.62c4.61-1.45,8.64.52,11.23,4,0,0,0,0,0,0a47.55,47.55,0,0,0,13.51-9.19l.86,0a4,4,0,0,0,1.35,1.19s0,0,0,0c-1.48,3.16-1.29,6.69-.79,10.06.54,3.67,1.59,7.27,1.45,11-.08,2.08-1.58,3.68-3.19,5h0a4.18,4.18,0,0,1-4-3.33c-.49-2.11-3.29-1.39-3.5.48a6.88,6.88,0,0,0,1.5,5.06s0,0,0,0a12.34,12.34,0,0,1-3.25-.92c-2.2-1-4.08,2-1.93,3.29A21.5,21.5,0,0,0,56,79.73s0,0,0,0a15.14,15.14,0,0,1-6.63,1.68c-.79,0-1.63.83-1.29,1.7,1.35,3.51,5.32,3.67,8.51,3.23,4-.56,7.19-4.08,10.86-5.56a3.74,3.74,0,0,0,1.4-1h0A20.66,20.66,0,0,0,74,75.75c3.87-4.22,4.83-9,2.7-14.31A22.6,22.6,0,0,1,75,50.52a10.93,10.93,0,0,1,.3-1.65,0,0,0,0,1,0,0,27.76,27.76,0,0,1,6.22,2.54,20.13,20.13,0,0,1,7.71,8.8c5.41,2.89,10.38,7,10.55,13.64.14,5.54-3.41,9.2-8,11-.06.26-.12.52-.19.78,0,0,0,0,0,0a15.07,15.07,0,0,1-3.82.73c-4.06.27-7.35-2.24-11.27-2.63-4.8-.49-9.09,2.11-13.17,4.27-3.83,2-7.71,4-11.49,6.1l-.4-.27a25.2,25.2,0,0,1-2.62-2.65,1.57,1.57,0,0,0-2.67,1.11,8.8,8.8,0,0,0,1.9,4.73l0,0c-2.57-.31-4.63-1.64-7-2.35A1.63,1.63,0,0,0,39.2,97.1c1.3,2.65,4.53,4.47,7.18,5.5a16.12,16.12,0,0,0,2.27.72s0,0,0,0a46,46,0,0,1-4.44,1.75c-1.51.52-1.34,3,.39,2.89,5.34-.23,11.21-2.2,15.16-6h0a22.68,22.68,0,0,0,4.6-1.33c3.2-1.32,6-3.78,9.35-4.6,1.28-.31,2.82.47,4,1a40.41,40.41,0,0,0,5,1.91s0,0,0,0a64.83,64.83,0,0,1-5.4,3.74h0c-2.1.88-4.18,1.79-6.22,2.8a34.18,34.18,0,0,1,6.69,6.12,64.9,64.9,0,0,1,5.12,6.65c7-4.77,13.94-9.78,19.28-16.49l.33-.44,3.15,2.35,3.48,2.59.94.71-.07.18a68.52,68.52,0,0,1-9.55,12.84c-2,2.17-.8,6.61,2.61,6.31,4.56-.41,8.09,2.19,10.68,5.61v0a2.44,2.44,0,0,0-1.21,1.91,36,36,0,0,0,.1,5.69,18,18,0,0,0,.54,5.14A1,1,0,0,0,115,145a17.67,17.67,0,0,0,1.33-4.87l.09-.41a15.35,15.35,0,0,1,.89,1.82c.68,1.72,1.33,3.46,1.86,5.23a1,1,0,0,0,2,0,13,13,0,0,0,.3-8.61s0,0,0,0a4.66,4.66,0,0,0,.66-.43,0,0,0,0,1,0,0,9.27,9.27,0,0,1,1.07,1,8,8,0,0,1,1.45,4.46,1.36,1.36,0,0,0,2.66.36C128.49,139.53,127.17,134.27,123.64,131.9ZM84,40.3a1.52,1.52,0,0,1-1,.32,1.59,1.59,0,0,1,0-3.18,1.43,1.43,0,0,1,1.33.76A1.16,1.16,0,0,1,84,40.3Zm6.31,4.56a1.59,1.59,0,0,1,0-3.18A1.59,1.59,0,0,1,90.35,44.86Zm7.57,6.36a1.59,1.59,0,0,1,0-3.18A1.59,1.59,0,0,1,97.92,51.22ZM104.28,60a1.59,1.59,0,0,1,0-3.18A1.59,1.59,0,0,1,104.28,60Z"/></g></g></svg>