<svg xmlns="http://www.w3.org/2000/svg" viewBox="0 0 72.7 71.75"><defs><style>.cls-1{fill:#fff;}.cls-2{fill:#324b58;}.cls-3{fill:#ff7c96;}</style></defs><title>Holidays-13</title><g id="Calque_2" data-name="Calque 2"><g id="Planche_Vacance_-_17" data-name="Planche Vacance - 17"><path class="cls-1" d="M41.82,6.38a6.65,6.65,0,0,1,.36.56,2.75,2.75,0,0,0,.17.29.25.25,0,0,0,.27.07A.22.22,0,0,0,42.71,7c-.11-.17-.2-.36-.3-.53-.22-.38-.46-.74-.7-1.1l-.29-.42a7.9,7.9,0,0,0-3.9-3.06,5.59,5.59,0,0,1-1.07-.52L36,1.06A5.84,5.84,0,0,0,33.33.43a5.35,5.35,0,0,0-2.7.7.7.7,0,0,1-.32.06,4.2,4.2,0,0,1-.6-.06l-.3,0H29l-.84,0a25.73,25.73,0,0,0-3.66.38,6.27,6.27,0,0,0-3,1.7,3.63,3.63,0,0,1-.74.54,2.23,2.23,0,0,0-.84.76A10.13,10.13,0,0,0,19,6.72a3.75,3.75,0,0,0,.31,2.89A6.54,6.54,0,0,0,21,11.46a3.22,3.22,0,0,0,1.53.72c.14,0,.19,0,.22-.1s-.05-.3-.12-.46a1.6,1.6,0,0,1-.16-.53,2.51,2.51,0,0,1,.46-1.39,1.19,1.19,0,0,1,.89-.5l.17,0,.38-.07C25,9,25.93,8.84,26,8.26a1,1,0,0,0,0-.35.77.77,0,0,1,.3-.89,1.89,1.89,0,0,1,1.16-.41,1.5,1.5,0,0,1,1.49,1.18c.12.45.45.93.81.93a.69.69,0,0,0,.41-.17.76.76,0,0,0,.24-.45,1.67,1.67,0,0,1,.17-.43A1.34,1.34,0,0,1,31.86,7l.49,0,.18,0,.3,0a.68.68,0,0,0,.26,0,.73.73,0,0,0,.18-.14,1,1,0,0,1,.33-.24A1.18,1.18,0,0,1,34,6.53a3.78,3.78,0,0,1,.74.11,2.69,2.69,0,0,0,.64.11A.58.58,0,0,0,36,6.37a2,2,0,0,0,.17-.87,1.27,1.27,0,0,1,.78-1.36A2.36,2.36,0,0,1,38,3.87a4.32,4.32,0,0,1,2.3,1A6.51,6.51,0,0,1,41.82,6.38Z"/><path class="cls-2" d="M68.73,27.33c-1-1-2-2-3-3.16-.37-.4-.75-.82-1.14-1.23l-1-1.08a33.64,33.64,0,0,0-4.36-4.24,10.72,10.72,0,0,0-4.33-2.32,1,1,0,0,0,0-.18v0a5.05,5.05,0,0,0-.45-1.23A13.74,13.74,0,0,0,50.69,9a9.36,9.36,0,0,0-5.77-2,7.33,7.33,0,0,0-1.65.17,18.21,18.21,0,0,0-1.49-2.47,8.33,8.33,0,0,0-4.13-3.23,4.46,4.46,0,0,1-1-.48l-.5-.29A6.29,6.29,0,0,0,33.33,0a5.84,5.84,0,0,0-2.91.75s0,0-.11,0a3.61,3.61,0,0,1-.54-.05l-.35,0H29l-.86,0a28.44,28.44,0,0,0-3.71.39,6.6,6.6,0,0,0-3.23,1.82,3.93,3.93,0,0,1-.66.48,2.49,2.49,0,0,0-1,.9,10.21,10.21,0,0,0-1,2.32A4.21,4.21,0,0,0,19,9.84a6.85,6.85,0,0,0,1.81,2,3.7,3.7,0,0,0,1.77.8.66.66,0,0,0,.59-.31,1,1,0,0,0-.1-.85,1.43,1.43,0,0,1-.13-.38A2.12,2.12,0,0,1,23.27,10a.81.81,0,0,1,.64-.33l.18,0,.35-.07a6.41,6.41,0,0,0,1-.24,3,3,0,0,1,1.76,1.19A5.35,5.35,0,0,1,28,13.88a9.21,9.21,0,0,1-1.63,4.25c-1.72,2.55-4.81,5-8.94,7A59.11,59.11,0,0,1,9,28.49,108.74,108.74,0,0,0,36.86,32,106.81,106.81,0,0,0,67,27.87l-.33-.3a17.94,17.94,0,0,0-2.24-1.79,5,5,0,0,0-2-.65,6.66,6.66,0,0,1-1.38-.35,2.21,2.21,0,0,1-.91-1.05A2.46,2.46,0,0,0,59,22.5a1.45,1.45,0,0,0-.54-.11,3.19,3.19,0,0,0-1.1.28,2.37,2.37,0,0,1-.93.26l-.22,0a.85.85,0,0,1-.67-.73,2,2,0,0,1,0-.68,2.15,2.15,0,0,0,0-.94,1,1,0,0,0-1-.64h-.07a4.12,4.12,0,0,0-1.65.54,6.09,6.09,0,0,1-.74.34,2.93,2.93,0,0,1-.91.18,1.34,1.34,0,0,1-1.38-1.34c-.27-1.89,1.86-3.41,3.38-3.84a3.42,3.42,0,0,1,1-.13c1.81,0,3.61,1.37,4.8,2.29a33.5,33.5,0,0,1,4.31,4.19l1,1.08,1.13,1.23c1,1.07,1.91,2.09,2.9,3l.17.16.38-.24ZM36.94,4.14a1.27,1.27,0,0,0-.78,1.36,2,2,0,0,1-.17.87.58.58,0,0,1-.58.38,2.69,2.69,0,0,1-.64-.11A3.78,3.78,0,0,0,34,6.53a1.18,1.18,0,0,0-.43.07,1,1,0,0,0-.33.24.73.73,0,0,1-.18.14.68.68,0,0,1-.26,0l-.3,0-.18,0-.49,0a1.34,1.34,0,0,0-1.29.72,1.67,1.67,0,0,0-.17.43.76.76,0,0,1-.24.45.69.69,0,0,1-.41.17c-.36,0-.69-.48-.81-.93a1.5,1.5,0,0,0-1.49-1.18A1.89,1.89,0,0,0,26.29,7a.77.77,0,0,0-.3.89,1,1,0,0,1,0,.35c-.08.58-1,.73-1.64.84L24,9.17l-.17,0a1.19,1.19,0,0,0-.89.5,2.51,2.51,0,0,0-.46,1.39,1.6,1.6,0,0,0,.16.53c.07.16.16.38.12.46s-.08.1-.22.1A3.22,3.22,0,0,1,21,11.46a6.54,6.54,0,0,1-1.69-1.85A3.75,3.75,0,0,1,19,6.72,10.13,10.13,0,0,1,20,4.49a2.23,2.23,0,0,1,.84-.76,3.63,3.63,0,0,0,.74-.54,6.27,6.27,0,0,1,3-1.7,25.73,25.73,0,0,1,3.66-.38l.84,0h.38l.3,0a4.2,4.2,0,0,0,.6.06.7.7,0,0,0,.32-.06,5.35,5.35,0,0,1,2.7-.7A5.84,5.84,0,0,1,36,1.06l.48.28a5.59,5.59,0,0,0,1.07.52,7.9,7.9,0,0,1,3.9,3.06l.29.42c.24.36.48.72.7,1.1.1.17.19.36.3.53a.22.22,0,0,1-.09.33.25.25,0,0,1-.27-.07,2.75,2.75,0,0,1-.17-.29,6.65,6.65,0,0,0-.36-.56,6.51,6.51,0,0,0-1.51-1.5,4.32,4.32,0,0,0-2.3-1A2.36,2.36,0,0,0,36.94,4.14ZM54.16,14.65c-.16-.2-.33-.4-.5-.59s-.25-.29-.38-.44c-.49-.6-2.44-2.17-3.93-2.17a1.45,1.45,0,0,0-1.42.92,1.41,1.41,0,0,0-.12.62c0,.26,0,.36-.34.51a.78.78,0,0,1-.33.07,2.13,2.13,0,0,1-1.2-.72,2.5,2.5,0,0,0-1.5-.83,1.37,1.37,0,0,0-.48.1.78.78,0,0,0-.49.66.57.57,0,0,1-.13.33.48.48,0,0,1-.39.15,2.18,2.18,0,0,1-.59-.11l-.27-.1A3.81,3.81,0,0,0,41,12.74a.48.48,0,0,0-.43.2c-.14.22,0,.51.08.72a.93.93,0,0,0,.49.42c.16.08.2.1.2.27,0,.44-.61.82-1.1.82a.73.73,0,0,1-.3-.06c-.5-.24-.78-1.22-.8-1.84A6.22,6.22,0,0,1,39.84,10,5.79,5.79,0,0,1,44.91,7.4a9.06,9.06,0,0,1,5.52,1.94A13.44,13.44,0,0,1,54,14.05a6.71,6.71,0,0,1,.34.84Z"/><path class="cls-1" d="M50.43,9.34A9.06,9.06,0,0,0,44.91,7.4,5.79,5.79,0,0,0,39.84,10a6.22,6.22,0,0,0-.75,3.31c0,.62.3,1.6.8,1.84a.73.73,0,0,0,.3.06c.49,0,1.09-.38,1.1-.82,0-.17,0-.19-.2-.27a.93.93,0,0,1-.49-.42c-.1-.21-.22-.5-.08-.72a.48.48,0,0,1,.43-.2,3.81,3.81,0,0,1,1.14.31l.27.1a2.18,2.18,0,0,0,.59.11.48.48,0,0,0,.39-.15.57.57,0,0,0,.13-.33.78.78,0,0,1,.49-.66,1.37,1.37,0,0,1,.48-.1,2.5,2.5,0,0,1,1.5.83,2.13,2.13,0,0,0,1.2.72.78.78,0,0,0,.33-.07c.32-.15.32-.25.34-.51a1.41,1.41,0,0,1,.12-.62,1.45,1.45,0,0,1,1.42-.92c1.49,0,3.44,1.57,3.93,2.17.13.15.26.29.38.44s.34.39.5.59l.19.24a6.71,6.71,0,0,0-.34-.84A13.44,13.44,0,0,0,50.43,9.34Z"/><path class="cls-1" d="M65.37,24.46l-1.13-1.23-1-1.08A33.5,33.5,0,0,0,58.94,18c-1.19-.92-3-2.29-4.8-2.29a3.42,3.42,0,0,0-1,.13c-1.52.43-3.65,1.95-3.38,3.84A1.34,1.34,0,0,0,51.18,21a2.93,2.93,0,0,0,.91-.18,6.09,6.09,0,0,0,.74-.34,4.12,4.12,0,0,1,1.65-.54h.07a1,1,0,0,1,1,.64,2.15,2.15,0,0,1,0,.94,2,2,0,0,0,0,.68.85.85,0,0,0,.67.73l.22,0a2.37,2.37,0,0,0,.93-.26,3.19,3.19,0,0,1,1.1-.28,1.45,1.45,0,0,1,.54.11,2.46,2.46,0,0,1,1.13,1.23,2.21,2.21,0,0,0,.91,1.05,6.66,6.66,0,0,0,1.38.35,5,5,0,0,1,2,.65,17.94,17.94,0,0,1,2.24,1.79l.33.3.46.4,1-.63-.17-.16C67.28,26.55,66.35,25.53,65.37,24.46Z"/><path class="cls-3" d="M5.14,31.19c1.41.43,2.16.63,3.69,1v4.5l-.93-.15V52.71l.93-.15v4.49c-1.53.38-2.28.59-3.69,1V53.21L6,53.05V46.3l-3.64.16V53.8l.82-.18V58.7c-1.34.46-2,.7-3.19,1.2V54.39l.74-.19V35.11L0,34.93V29.39c1.21.49,1.85.73,3.19,1.18v5.1l-.82-.17v6L6,41.71V36.23l-.87-.16Z"/><path class="cls-3" d="M14.5,56.23a1.92,1.92,0,0,1-1.27-.18,3.18,3.18,0,0,1-1.11-1,7.42,7.42,0,0,1-.92-1.74,14.75,14.75,0,0,1-.7-2.41A26.32,26.32,0,0,1,10.06,48a35,35,0,0,1,0-6.69,26.16,26.16,0,0,1,.44-3,14.75,14.75,0,0,1,.7-2.41,7.3,7.3,0,0,1,.92-1.75,3.18,3.18,0,0,1,1.11-1A1.92,1.92,0,0,1,14.5,33a2.88,2.88,0,0,1,1.3.64A6.59,6.59,0,0,1,17,34.93a10.83,10.83,0,0,1,1,1.86,16.59,16.59,0,0,1,.78,2.29,20.42,20.42,0,0,1,.51,2.63,24.54,24.54,0,0,1,.17,2.89,24.49,24.49,0,0,1-.17,2.88,20.09,20.09,0,0,1-.51,2.63,17.21,17.21,0,0,1-.78,2.3,10.36,10.36,0,0,1-1,1.85,6.39,6.39,0,0,1-1.17,1.32A3,3,0,0,1,14.5,56.23Zm0-4.65a1.57,1.57,0,0,0,1-.66,5.36,5.36,0,0,0,.83-1.55,11.77,11.77,0,0,0,.54-2.18,16.3,16.3,0,0,0,.19-2.58A16.69,16.69,0,0,0,16.91,42a11.86,11.86,0,0,0-.55-2.19,5.29,5.29,0,0,0-.83-1.54,1.54,1.54,0,0,0-1-.66,1.18,1.18,0,0,0-1,.45,4.2,4.2,0,0,0-.79,1.47,11.81,11.81,0,0,0-.51,2.27,20.8,20.8,0,0,0,0,5.61,12.05,12.05,0,0,0,.51,2.26,4.29,4.29,0,0,0,.79,1.47A1.17,1.17,0,0,0,14.5,51.58Z"/><path class="cls-3" d="M20.82,34.34c1.82.23,2.76.32,4.66.48v3.55l-1.17-.07V50.91l2.42-.14a.28.28,0,0,0,.19-.1.82.82,0,0,0,.16-.26,1.61,1.61,0,0,0,.12-.33,1.45,1.45,0,0,0,0-.35V47.15l2.43,0v7c-3.66.2-5.45.36-8.85.78V51.15l1.11-.08V38.15l-1.11-.09Z"/><path class="cls-3" d="M30.69,35.16c2,.09,3,.12,5,.14v3.36H34.45V50.54l1.25,0v3.36c-2,0-3,0-5,.15V50.62l1.2,0v-12l-1.2,0Z"/><path class="cls-3" d="M36.73,35.31c1.83,0,2.72,0,4.49-.05a3.57,3.57,0,0,1,1.52.28,4.78,4.78,0,0,1,1.34.9,6.82,6.82,0,0,1,1.12,1.42,9.83,9.83,0,0,1,.85,1.88A13.59,13.59,0,0,1,46.6,42a17.21,17.21,0,0,1,0,5.1,13.59,13.59,0,0,1-.55,2.28,10.12,10.12,0,0,1-.85,1.91,7.25,7.25,0,0,1-1.12,1.44,4.54,4.54,0,0,1-1.34.89,3.58,3.58,0,0,1-1.52.29c-1.77,0-2.66-.06-4.49-.06V50.52h1V38.68h-1Zm3.51,3.35V50.54h1a1.72,1.72,0,0,0,1.16-.44,4,4,0,0,0,1-1.27,8.46,8.46,0,0,0,.63-1.9,11.76,11.76,0,0,0,.23-2.37A11.56,11.56,0,0,0,44,42.22a8.64,8.64,0,0,0-.63-1.9,3.87,3.87,0,0,0-1-1.24,1.77,1.77,0,0,0-1.16-.44Z"/><path class="cls-3" d="M53.61,51.14l1,.08c-.19-1.2-.28-1.81-.47-3-1.28-.06-1.94-.09-3.26-.13-.19,1.13-.29,1.7-.49,2.83l1.14.07v3.62c-1.62-.17-2.45-.25-4.13-.37V50.75l.82,0c1.2-6.3,1.79-9.51,3-16.16,1.14-.12,1.7-.18,2.81-.32,1.11,6.61,1.66,10,2.74,17.11l.73.07v3.9c-1.52-.24-2.3-.35-3.89-.55Zm-2.13-6.41h2.14c-.43-2.67-.64-4-1.07-6.59C52.12,40.82,51.91,42.13,51.48,44.73Z"/><path class="cls-3" d="M57,33.91c1.73-.26,2.58-.41,4.22-.72v4.14l-.81.1c.52,2,.77,3,1.28,5.13.54-2.13.81-3.22,1.33-5.46l-.89.12V33c1.61-.33,2.4-.5,3.9-.88v4.53l-.65.1c-1.06,4.15-1.61,6.11-2.72,9.85v5.48l1.13.16v4.32c-1.64-.36-2.49-.53-4.23-.84v-4l1.07.12V46.48c-1.08-3.67-1.63-5.41-2.75-8.78l-.88.09Z"/><path class="cls-3" d="M70.88,38.57a8.5,8.5,0,0,0-.13-1.19,5.06,5.06,0,0,0-.26-.93,1.87,1.87,0,0,0-.36-.57.47.47,0,0,0-.43-.15.75.75,0,0,0-.38.22,1.29,1.29,0,0,0-.31.49,3.89,3.89,0,0,0-.22.78,6.85,6.85,0,0,0-.08,1.09,5.65,5.65,0,0,0,.11,1.24,2.54,2.54,0,0,0,.27.73,1.54,1.54,0,0,0,.37.45,4.27,4.27,0,0,1,.38.36c.59.61.87.93,1.44,1.58a4.05,4.05,0,0,1,.54,1,9.34,9.34,0,0,1,.43,1.6,22,22,0,0,1,.29,2.2c.07.84.1,1.77.1,2.81a33.45,33.45,0,0,1-.2,3.8,14.69,14.69,0,0,1-.56,2.79,3.68,3.68,0,0,1-.9,1.59,1.11,1.11,0,0,1-1.18.27,2,2,0,0,1-.89-.63,4.87,4.87,0,0,1-.77-1.2,10.06,10.06,0,0,1-.63-1.67,14.12,14.12,0,0,1-.42-2.06l-.59-.1v-5l2,.16V49.3a13.25,13.25,0,0,0,.08,1.46,8.16,8.16,0,0,0,.24,1.18,2.74,2.74,0,0,0,.4.84.91.91,0,0,0,.55.38c.32.06.56-.14.72-.61a6.41,6.41,0,0,0,.25-2.06,6.51,6.51,0,0,0-.09-1.18,4.33,4.33,0,0,0-.22-.8,2.28,2.28,0,0,0-.31-.56q-.16-.23-.33-.42c-.49-.56-.73-.84-1.24-1.37a4.06,4.06,0,0,1-.69-1,7,7,0,0,1-.6-1.53,13.1,13.1,0,0,1-.42-2.11,20.54,20.54,0,0,1-.16-2.76,21.54,21.54,0,0,1,.23-3.26A12.91,12.91,0,0,1,67.57,33a6.36,6.36,0,0,1,1-1.77,2.61,2.61,0,0,1,1.18-.89,1,1,0,0,1,.91.09,2.29,2.29,0,0,1,.73.82,5.85,5.85,0,0,1,.53,1.37,12.62,12.62,0,0,1,.34,1.73l.49-.13V40l-1.82.2Z"/><polygon class="cls-3" points="10.51 66.85 11.21 68.27 12.77 68.5 11.64 69.61 11.91 71.17 10.51 70.43 9.1 71.17 9.37 69.61 8.24 68.5 9.8 68.27 10.51 66.85"/><polygon class="cls-3" points="62.19 66.85 62.9 68.27 64.46 68.5 63.33 69.61 63.59 71.17 62.19 70.43 60.79 71.17 61.06 69.61 59.93 68.5 61.49 68.27 62.19 66.85"/><path class="cls-1" d="M18.91,67h1.55v.54H20v3.69h.46v.54H18.91v-.54h.48V69.49H16.63v1.72h.48v.54H15.56v-.54H16V67.52h-.45V67h1.55v.54h-.48V69h2.76V67.52h-.48Z"/><path class="cls-1" d="M24.18,71.21h.39l-.38-1.08H22.36L22,71.21h.49v.54H20.94v-.54h.41L22.84,67h.92l1.48,4.23h.48v.54H24.18ZM22.54,69.6H24l-.74-2.13Z"/><path class="cls-1" d="M26.2,67h1.93a2.16,2.16,0,0,1,.59.08,1.41,1.41,0,0,1,.47.25,1.08,1.08,0,0,1,.3.4,1.4,1.4,0,0,1,.11.56,1.17,1.17,0,0,1-.11.49,1.21,1.21,0,0,1-.3.41,1.53,1.53,0,0,1-.47.27,1.64,1.64,0,0,1-.6.1h-.85v1.67h.48v.54H26.2v-.54h.46V67.53H26.2Zm1.07.55V69h.86a1.14,1.14,0,0,0,.33,0,.74.74,0,0,0,.26-.15.66.66,0,0,0,.17-.23.88.88,0,0,0,.06-.33.72.72,0,0,0-.21-.55,1,1,0,0,0-.69-.19Z"/><path class="cls-1" d="M30.21,67h1.92a2.16,2.16,0,0,1,.59.08,1.41,1.41,0,0,1,.47.25,1.08,1.08,0,0,1,.3.4,1.25,1.25,0,0,1,.11.56,1,1,0,0,1-.11.49,1.21,1.21,0,0,1-.3.41,1.6,1.6,0,0,1-.46.27,1.74,1.74,0,0,1-.61.1h-.85v1.67h.48v.54H30.21v-.54h.45V67.53h-.45Zm1.06.55V69h.86a1.14,1.14,0,0,0,.33,0,.74.74,0,0,0,.26-.15.66.66,0,0,0,.17-.23.88.88,0,0,0,.06-.33.72.72,0,0,0-.21-.55,1,1,0,0,0-.69-.19Z"/><path class="cls-1" d="M33.92,67h1.54v.55H35l.9,1.53,1-1.53h-.5V67h1.55v.55h-.41l-1.34,2v1.65h.49v.54H35.11v-.54h.44V69.54l-1.26-2h-.37Z"/><path class="cls-1" d="M40.85,71.21h.44V67.5H40.2v.74h-.65V67H43.8v1.26h-.64V67.5H41.9v3.71h.49v.54H40.85Z"/><path class="cls-1" d="M44.38,67H45.9v.55h-.45v3.68h.45v.54H44.38v-.54h.46V67.53h-.46Z"/><path class="cls-1" d="M46.8,71.21h.46V67.58H46.8V67h1.51l1.52,4.12L51.36,67h1.43v.6h-.45v3.63h.45v.54H51.24v-.54h.51V67.55l-1.67,4.2h-.53l-1.69-4.21v3.67h.49v.54H46.8Z"/><path class="cls-1" d="M53.69,67H57.1v1.35h-.64v-.8h-1.7v1.52h1.43v.54H54.76v1.62h1.7V70.4h.64v1.35H53.69v-.54h.45V67.53h-.45Z"/></g></g></svg>