<svg xmlns="http://www.w3.org/2000/svg" viewBox="0 0 208.92 198.7"><defs><style>.cls-1{fill:#324b56;}.cls-2{fill:#fff;}</style></defs><title>Shapes08</title><g id="Calque_2" data-name="Calque 2"><g id="Shape_08" data-name="Shape 08"><polygon class="cls-1" points="104.46 149.3 43.39 193.89 66.93 122.03 5.65 77.73 81.26 77.91 104.46 5.94 127.66 77.91 203.27 77.73 141.99 122.03 165.53 193.89 104.46 149.3"/><path class="cls-2" d="M169,198.7l-64.56-47.14L39.9,198.69l24.88-76L0,75.89l79.94.19L104.46,0,129,76.08l79.94-.19-64.78,46.84ZM104.46,147l57.57,42-22.18-67.75,57.77-41.76-71.29.17L104.46,11.88,82.59,79.74,11.3,79.57l57.77,41.76L46.88,189.08Z"/></g></g></svg>