<svg xmlns="http://www.w3.org/2000/svg" viewBox="0 0 197.99 203.95"><defs><style>.cls-1{fill:#324b56;fill-rule:evenodd;}.cls-2{fill:#fff;}</style></defs><title>Shapes14</title><g id="Calque_2" data-name="Calque 2"><g id="Shape_14" data-name="Shape 14"><path class="cls-1" d="M99.24,202.05A151,151,0,0,1,4.65,168.63l-.63-.5-.13-.8a152.17,152.17,0,0,1-2-24.46C1.91,81.1,40.62,24.62,98.23,2.34L99,2.05l.75.29c57.63,22.28,96.33,78.76,96.33,140.53A152.29,152.29,0,0,1,194,167.8l-.13.8-.63.5A149,149,0,0,1,99.24,202.05Z"/><path class="cls-2" d="M99.24,204A152.87,152.87,0,0,1,3.45,170.11l-1.2-1L2,167.64a153.64,153.64,0,0,1-2-24.77C0,80.32,39.2,23.12,97.55.56L99,0l1.44.56C158.79,23.12,198,80.31,198,142.87a154,154,0,0,1-2.09,25.24l-.25,1.52-1.2,1A150.88,150.88,0,0,1,99.24,204ZM5.78,167.1l.06,0a149.05,149.05,0,0,0,93.4,33,147.15,147.15,0,0,0,92.83-32.53l.06-.05v-.07a150.91,150.91,0,0,0,2-24.62c0-61-38.22-116.75-95.11-138.75l-.08,0-.07,0C42,26.12,3.81,81.88,3.81,142.87a150.64,150.64,0,0,0,2,24.16Z"/></g></g></svg>