<svg xmlns="http://www.w3.org/2000/svg" viewBox="0 0 155.54 204.08"><defs><style>.cls-1{fill:#324b56;}.cls-2{fill:#fff;}</style></defs><title>Shapes15</title><g id="Calque_2" data-name="Calque 2"><g id="Shape_15" data-name="Shape 15"><path class="cls-1" d="M102,202A100,100,0,1,1,145.81,12.11l4.63,2.26-4.8,1.86A91.44,91.44,0,0,0,86.83,102a92.61,92.61,0,0,0,58.81,85.8l4.8,1.87L145.81,192A99.12,99.12,0,0,1,102,202Z"/><path class="cls-2" d="M102,204.08A102,102,0,0,1,102,0,101.06,101.06,0,0,1,146.7,10.28l8.84,4.31-9.17,3.55A89.39,89.39,0,0,0,88.87,102a90.56,90.56,0,0,0,57.5,83.9l9.16,3.55-8.83,4.31A101,101,0,0,1,102,204.08Zm0-200A98,98,0,0,0,102,200a97,97,0,0,0,42.87-9.87l.44-.21-.45-.17A94.66,94.66,0,0,1,84.8,102a93.46,93.46,0,0,1,60.1-87.71l.45-.17-.44-.21A97,97,0,0,0,102,4.08Z"/></g></g></svg>