<svg xmlns="http://www.w3.org/2000/svg" viewBox="0 0 73.68 95.15"><defs><style>.cls-1{fill:#324b58;}.cls-2{fill:#ff7c96;}.cls-3{fill:#ffffff;}.cls-4{fill:#b6dffc;}.cls-5{fill:#000000;opacity:0.4;}</style></defs><title>Holidays-01</title><g id="Calque_2" data-name="Calque 2"><g id="Planche_Vacance_-_02" data-name="Planche Vacance - 02"><path class="cls-1" d="M44.13,1.85,21.43,8.39v2.89H45.32A31.35,31.35,0,0,1,44.13,1.85ZM27.51,10.18,27.39,9.1c-.09-1,.81-1.56,1.75-1.75L35.87,6c1.33-.25,1.75.2,2.3,1.63l1,2.54Z"/><rect class="cls-2" y="45.39" width="73.68" height="1.33"/><path class="cls-3" d="M25.07,36.91a2.48,2.48,0,1,1-2.48-2.47A2.48,2.48,0,0,1,25.07,36.91Z"/><path class="cls-4" d="M29.82,19.33v4.88a.64.64,0,0,1-.64.64H16.58a.64.64,0,0,1-.64-.64V19.33a.64.64,0,0,1,.64-.65h12.6A.65.65,0,0,1,29.82,19.33Z"/><path class="cls-4" d="M45.11,19.33v4.88a.65.65,0,0,1-.65.64H31.87a.65.65,0,0,1-.65-.64V19.33a.65.65,0,0,1,.65-.65H44.46A.65.65,0,0,1,45.11,19.33Z"/><path class="cls-3" d="M60.27,36.91a2.48,2.48,0,1,1-2.47-2.47A2.47,2.47,0,0,1,60.27,36.91Z"/><path class="cls-1" d="M19.11,7.19V8.4l25-7.19V0ZM8.79,18.85a2,2,0,0,0-2,2V31.21a.92.92,0,0,0,.88.87h3.93c0-.63,0-1.25,0-1.88,0-2.75.11-7.57.28-11.35Z"/><path class="cls-1" d="M66.25,31.69c-.79-4.93.19-5.29-3.52-6.74-1.92-.74-5.7-4.67-7.4-6.23-.22-.2-.74-.73-1.43-1.4l-2.2-4a2.75,2.75,0,0,0-2.1-1H14a.93.93,0,0,0-1,.77c-.44,2.15-.64,12-.68,16.5,0,.79,0,1.57,0,2.36a1.29,1.29,0,0,1-.53,1.26.65.65,0,0,0-.17.54v3c0,.91.6,1.18,1.33,1.22h5a4.81,4.81,0,0,0,9.38,0H53.11a4.81,4.81,0,0,0,9.38,0l2.82-.51c.76-.14,1.27-.2,1.35-1l.27-3C67,32.41,66.43,32.72,66.25,31.69ZM55.32,36.91a2.48,2.48,0,1,1,2.48,2.48A2.47,2.47,0,0,1,55.32,36.91ZM54.16,19.68l.67.61,3.4,3.11c.44.44.33,1.45-.45,1.45H47.38a.8.8,0,0,1-.79-.71V19.57c0-.57.26-.87.8-.88H52a2.54,2.54,0,0,1,.41,0A2.42,2.42,0,0,1,54.16,19.68ZM22.59,39.39a2.48,2.48,0,1,1,2.48-2.48A2.47,2.47,0,0,1,22.59,39.39Zm-6-14.54a.64.64,0,0,1-.64-.64V19.33a.64.64,0,0,1,.64-.65h12.6a.65.65,0,0,1,.64.65v4.88a.64.64,0,0,1-.64.64Zm28.53-5.52v4.88a.65.65,0,0,1-.65.64H31.87a.65.65,0,0,1-.65-.64V19.33a.65.65,0,0,1,.65-.65H44.46A.65.65,0,0,1,45.11,19.33Z"/><path class="cls-4" d="M57.78,24.85H47.38a.8.8,0,0,1-.79-.71V19.57c0-.57.26-.87.8-.88H52a2.54,2.54,0,0,1,.41,0,2.42,2.42,0,0,1,1.72,1l.67.61,3.4,3.11C58.67,23.84,58.56,24.85,57.78,24.85Z"/><path class="cls-2" d="M6.85,49.73l5.3,0L12,53l-1.09,0C9.5,58.33,8.23,63.6,7,68.89c-1.25.28-1.87.42-3.09.73Q2.62,61.54,1.16,53.49L0,53.55V49.76l5.3,0L5.2,53.3l-1.3.06q.91,5.49,1.77,11,1.19-5.58,2.47-11.15l-1.41.06C6.78,51.83,6.81,51.13,6.85,49.73Z"/><path class="cls-2" d="M17.81,67.31a3.88,3.88,0,0,1-1.6-.09,4,4,0,0,1-1.37-.71,5.1,5.1,0,0,1-1.11-1.27,7.21,7.21,0,0,1-.81-1.77,11.38,11.38,0,0,1-.46-2.17,13.45,13.45,0,0,1-.08-2.48,14.94,14.94,0,0,1,.35-2.54A14.13,14.13,0,0,1,13.44,54a10.32,10.32,0,0,1,1-1.92,7.65,7.65,0,0,1,1.29-1.46,5.61,5.61,0,0,1,1.49-.93,4.3,4.3,0,0,1,1.63-.32,4.07,4.07,0,0,1,1.59.32,4.87,4.87,0,0,1,1.39.88A6.36,6.36,0,0,1,23,51.92a8.77,8.77,0,0,1,.84,1.74,10.6,10.6,0,0,1,.5,2.05,11.58,11.58,0,0,1,.1,2.3,13.43,13.43,0,0,1-.34,2.3,12.79,12.79,0,0,1-.73,2.11,10.74,10.74,0,0,1-1.06,1.84A9,9,0,0,1,21,65.74a6.67,6.67,0,0,1-1.52,1.05A5.08,5.08,0,0,1,17.81,67.31ZM18,63.73a2.67,2.67,0,0,0,1.34-.56,4.64,4.64,0,0,0,1.1-1.25,7,7,0,0,0,.77-1.73,9.07,9.07,0,0,0,.35-2,8.38,8.38,0,0,0-.12-2,6,6,0,0,0-.58-1.67,3.28,3.28,0,0,0-1-1.11A1.92,1.92,0,0,0,18.66,53a2.24,2.24,0,0,0-1.31.46,4.19,4.19,0,0,0-1.09,1.22,7.71,7.71,0,0,0-.76,1.79,10.05,10.05,0,0,0-.37,2.16,9,9,0,0,0,.12,2.11,5.82,5.82,0,0,0,.56,1.68,2.83,2.83,0,0,0,.94,1.07A1.94,1.94,0,0,0,18,63.73Z"/><path class="cls-2" d="M26,49.68h5.31c0,1.18-.05,1.77-.09,2.94H30.13c.62,1.49.93,2.23,1.58,3.71.77-1.5,1.15-2.25,1.89-3.73H32.39c0-1.18,0-1.77.07-2.94h5.32c0,1.17,0,1.75,0,2.92h-.93C35.59,54.79,34.29,57,33,59.13c0,1.51,0,2.27-.08,3.78l1.61,0c0,1.17,0,1.75,0,2.92-2.42,0-3.61.08-6,.21l.11-3L30.07,63c.05-1.54.08-2.31.13-3.85-1.36-2.57-2-3.86-3.29-6.49l-1.1,0Z"/><path class="cls-2" d="M45.15,63.06l1.3.06-.68-2.38c-1.59-.07-2.39-.1-4-.13-.21.92-.32,1.39-.54,2.31l1.4,0c0,1.17,0,1.76.08,2.93-2-.08-3-.1-5.11-.11,0-1.16,0-1.75,0-2.91h1c1.16-4.39,2.24-8.79,3.27-13.21h3.28c1.31,4.55,2.65,9.08,4,13.62l.93.06c.06,1.21.1,1.81.16,3-2-.18-2.95-.25-4.95-.36C45.22,64.83,45.2,64.24,45.15,63.06Zm-2.77-5.18L45,58c-.6-2.14-.89-3.21-1.48-5.33C43.06,54.73,42.84,55.79,42.38,57.88Z"/><path class="cls-2" d="M60.44,67.67c-.07-1.23-.1-1.85-.17-3.08a6.1,6.1,0,0,1-.87,1.75,3,3,0,0,1-1,.8,2.91,2.91,0,0,1-1.61.11,4.6,4.6,0,0,1-1-.3,6.37,6.37,0,0,1-1-.56,8.47,8.47,0,0,1-1-.77,6.4,6.4,0,0,1-.89-1,11.58,11.58,0,0,1-1.61-3A12.64,12.64,0,0,1,50.52,58a11.41,11.41,0,0,1,.1-2.28,10,10,0,0,1,.49-2.06A8.23,8.23,0,0,1,51.94,52a6.38,6.38,0,0,1,1.14-1.36,4.86,4.86,0,0,1,1.38-.89,4.07,4.07,0,0,1,1.59-.32,3.7,3.7,0,0,1,1.7.37,5.51,5.51,0,0,1,1.6,1.4l1.83,0c.09,1.62.13,2.44.21,4.06l-2.51-.13a5.39,5.39,0,0,0-.77-1.24,3.75,3.75,0,0,0-.75-.64,2.25,2.25,0,0,0-1.1-.28,2,2,0,0,0-1.25.4,3.31,3.31,0,0,0-.95,1.13,5.69,5.69,0,0,0-.58,1.69,7.88,7.88,0,0,0-.13,2,8.37,8.37,0,0,0,.33,2,6.56,6.56,0,0,0,.78,1.72,4.42,4.42,0,0,0,1.12,1.25,2.77,2.77,0,0,0,1.3.54,1.67,1.67,0,0,0,1.47-.55,3.68,3.68,0,0,0,.82-1.88L56.81,61l-.18-3.16c2.29.16,3.43.25,5.69.44.16,3.27.33,6.54.49,9.81C61.87,67.91,61.4,67.83,60.44,67.67Z"/><path class="cls-2" d="M63.83,49.72l9.85,0v7.12l-2.56-.23c0-1.15,0-1.73,0-2.87L68,53.62c.05,1.54.07,2.31.12,3.86l2.37.22.07,3.84-2.33-.33c0,1.81.08,2.72.13,4.53,1.19.22,1.78.34,2.94.59l-.05-3.59c1,.16,1.49.24,2.47.42v7.47c-3-.81-6-1.53-9-2.18-.07-1.36-.1-2-.16-3.39l1.25.21L65.29,53.5l-1.29,0C63.93,52,63.9,51.21,63.83,49.72Z"/><path class="cls-4" d="M39.14,10.18H27.51L27.39,9.1c-.09-1,.81-1.56,1.75-1.75L35.87,6c1.33-.25,1.75.2,2.3,1.63Z"/><polygon class="cls-1" points="13.95 79.49 11.82 84.01 8.63 79.01 13.95 79.49"/><polygon class="cls-1" points="65.05 79.46 61.87 84.46 59.76 79.94 65.05 79.46"/><path class="cls-1" d="M15.84,83.84c-1,.52-2,1.1-3,1.72-.82.5-1.64,1-2.47,1.6L11.82,84,14,79.49Z"/><path class="cls-4" d="M63.14,87.16c-.4-.31-1.1-.82-2.06-1.45s-1.84-1.16-3-1.81l1.71-4,2.11,4.52Z"/><line class="cls-4" x1="11.82" y1="84.01" x2="13.95" y2="79.49"/><path class="cls-1" d="M63.14,87.16c-.4-.31-1.1-.82-2.06-1.45s-1.84-1.16-3-1.81l1.71-4,2.11,4.52Z"/><path class="cls-1" d="M63.54,87.48,56.8,95.15C37.17,79.82,16.63,95,16.63,95l-6.29-7.83c.83-.56,1.65-1.1,2.47-1.6,1-.62,2-1.2,3-1.72,18.49-9.81,34.27-4.26,42.21.06,1.19.65,2.21,1.27,3,1.81s1.66,1.14,2.06,1.45Z"/><path class="cls-3" d="M25.73,88.19q-.89-2.67-1.83-5.34c1.19-.39,2.4-.73,3.62-1l.15.61c-.93.21-1.84.46-2.75.74l.55,1.69c.75-.23,1.52-.44,2.29-.63,0,.18.09.37.14.55-.76.18-1.52.39-2.26.62.21.65.41,1.31.61,2,.88-.27,1.76-.5,2.66-.71,0,.21.09.41.14.61A33.93,33.93,0,0,0,25.73,88.19Z"/><path class="cls-3" d="M30.62,87l-.68.13q-.56-2.76-1.15-5.52l.85-.16A38.49,38.49,0,0,1,33.1,85l.3.42-.06-.44-.42-4,.8-.07c.16,1.87.32,3.75.47,5.62l-.73.06A38.59,38.59,0,0,0,30.13,83l-.35-.4c0,.15.07.3.1.44C30.13,84.31,30.38,85.63,30.62,87Z"/><path class="cls-3" d="M34.82,85.49l.77,0v0a.45.45,0,0,0,.1.27.54.54,0,0,0,.27.18,1.36,1.36,0,0,0,.41,0,.92.92,0,0,0,.43-.11.65.65,0,0,0,.29-.32,3.06,3.06,0,0,0,.09-1c0-1.29,0-2.58,0-3.87h.87c0,1.3-.07,2.59-.1,3.88a2.62,2.62,0,0,1-.24,1.26,1.3,1.3,0,0,1-.5.49,1.68,1.68,0,0,1-.81.17,1.71,1.71,0,0,1-1.2-.3,1,1,0,0,1-.4-.73Z"/><path class="cls-3" d="M41.23,86.79a2.38,2.38,0,0,1-1.69-.94A3.24,3.24,0,0,1,39,83.6a2.9,2.9,0,0,1,.89-2.16A2.63,2.63,0,0,1,42,80.86a2.57,2.57,0,0,1,1.9,1,2.9,2.9,0,0,1,.34,2.3,3.37,3.37,0,0,1-1.1,2.06A2.44,2.44,0,0,1,41.23,86.79Zm.07-.56a1.48,1.48,0,0,0,1.33-.49,3.2,3.2,0,0,0,.75-1.67,2.8,2.8,0,0,0-.2-1.81,1.57,1.57,0,0,0-1.29-.84,1.61,1.61,0,0,0-1.47.52,2.85,2.85,0,0,0-.63,1.72,3.18,3.18,0,0,0,.33,1.79A1.5,1.5,0,0,0,41.3,86.23Z"/><path class="cls-3" d="M46.63,87.66l-.72-.19.66-2.57c-.39-1.13-.84-2.25-1.33-3.36.33.07.66.13,1,.21.37.86.7,1.72,1,2.58.7-.59,1.43-1.17,2.19-1.73l.8.25c-1,.72-2,1.47-2.87,2.25Z"/><path class="cls-5" d="M15.84,83.84c-1,.52-2,1.1-3,1.72-.82.5-1.64,1-2.47,1.6L11.82,84,14,79.49Z"/><path class="cls-5" d="M63.14,87.16c-.4-.31-1.1-.82-2.06-1.45s-1.84-1.16-3-1.81l1.71-4,2.11,4.52Z"/></g></g></svg>