<svg xmlns="http://www.w3.org/2000/svg" viewBox="0 0 76.72 90.69"><defs><style>.cls-1{fill:#ff7c96;}.cls-2{fill:#b6dffc;}.cls-3{fill:#324b58;}.cls-5{fill:#ffffff;}.cls-6{fill:#000000;opacity:0.4;}</style></defs><title>Holidays-07</title><g id="Calque_2" data-name="Calque 2"><g id="Planche_Vacance_-_08" data-name="Planche Vacance - 08"><rect class="cls-1" x="1.53" y="42.68" width="73.68" height="1.33"/><path class="cls-2" d="M29.06,20.26a2.54,2.54,0,0,1-.15.49c0-.08-.06-.17-.11-.26A1.13,1.13,0,0,0,29.06,20.26Z"/><path class="cls-2" d="M43.29,23.73a14.23,14.23,0,0,1-3.94,4.9,8.87,8.87,0,0,1-4-4.13,4.34,4.34,0,0,0,4.24.19A6.73,6.73,0,0,0,43.29,23.73Z"/><path class="cls-2" d="M38.36,20.25a9.89,9.89,0,0,0,6.07-2.7,8.46,8.46,0,0,1-7.27,6.12,5.8,5.8,0,0,1-2.62-3.41,6.74,6.74,0,0,0,4.14,1.85c-3.7-3.29-6.39-10.9-6.89-13.85a34.19,34.19,0,0,1-3.64,9.62,14.51,14.51,0,0,1-.17-2.2A14.21,14.21,0,0,1,42.19,1.47a13.91,13.91,0,0,1,5.63,1.17C46.38,7.82,42.9,16.24,38.36,20.25Z"/><path class="cls-2" d="M55.84,19.67a13.47,13.47,0,0,1-.77,2,8.62,8.62,0,0,1-2.64-4.13A9.48,9.48,0,0,0,55.84,19.67Z"/><path class="cls-2" d="M56.4,15.68a14.8,14.8,0,0,1-.15,2.12c-3.25-4.16-5.73-10.19-7-14.45A14.2,14.2,0,0,1,56.4,15.68Z"/><path class="cls-3" d="M75.59,30.78a3.55,3.55,0,0,1-2.31-1,3.46,3.46,0,0,0,3.44-.33c-2.18.26-3.28-2.16-3.28-2.16a2,2,0,0,0,2.18,0,2.77,2.77,0,0,1-2.55-2,3.26,3.26,0,0,0,2,.88c-1.75-1.57-3-5.18-3.26-6.58-.24,1.38-1.48,4.91-3.21,6.51l.06.06a3.32,3.32,0,0,0,1.85-.87,2.79,2.79,0,0,1-1.1,1.52c-.25-.19-.5-.42-.75-.65H68.5a.23.23,0,0,0,.07-.07,21,21,0,0,1-4.92-8.73c-.44,2.08-2.86,7.47-6.21,9.8a7.11,7.11,0,0,0,3.74-1.31,4.6,4.6,0,0,1-3.57,2.82A14.1,14.1,0,0,1,53.71,24l-.14-.28.24.13a6.2,6.2,0,0,0,6.48-.13,8.9,8.9,0,0,1-5.22-2.05,8.62,8.62,0,0,1-2.64-4.13,9.48,9.48,0,0,0,3.41,2.12,9.25,9.25,0,0,0,2.66.58,18.43,18.43,0,0,1-2.25-2.45c-3.25-4.16-5.72-10.19-7-14.45A31.68,31.68,0,0,1,48.43,0a25.92,25.92,0,0,1-.61,2.64c-1.44,5.18-4.92,13.6-9.46,17.61a9.89,9.89,0,0,0,6.07-2.7,8.46,8.46,0,0,1-7.27,6.12,5.8,5.8,0,0,1-2.62-3.41,6.74,6.74,0,0,0,4.14,1.85c-3.7-3.29-6.39-10.9-6.89-13.85a34.19,34.19,0,0,1-3.64,9.62h0c-.36.63-.74,1.22-1.14,1.79a27.46,27.46,0,0,1-1.88-2.49s0,0,0,0a14.31,14.31,0,0,1-.57-2.06,6.35,6.35,0,0,1-.19.84A50.4,50.4,0,0,1,18.54,1.08c-.7,4.31-4.63,15.44-10.06,20.25a9.89,9.89,0,0,0,6.07-2.7,8.53,8.53,0,0,1-7.86,6.19,6.26,6.26,0,0,0,6.71,0c-.12.28-2.23,4.69-6.3,6.19a15.89,15.89,0,0,1-2.16-5.25c-.22,1.4-1.5,5-3.27,6.58a3.19,3.19,0,0,0,1.83-.76l-.16-.13.28,0h0s0,.08,0,.15a2.77,2.77,0,0,1-2.5,1.84,2,2,0,0,0,2.18,0S2.18,35.9,0,35.64A3.46,3.46,0,0,0,3.46,36a3.61,3.61,0,0,1-2.31,1,28.83,28.83,0,0,0,3.53.39v1.18h.85V37.32a29.8,29.8,0,0,0,3.22-.38,3.61,3.61,0,0,1-2.31-1,3.35,3.35,0,0,0,3-.08,78.36,78.36,0,0,0,8.25.78V39H1.58v1.5H75.15V39H50.21V35.55a91.83,91.83,0,0,0,9.7-1.13l-.68-.06a7.07,7.07,0,0,0,.92,0l-.22,0c1.07.1,2.23.18,3.3.2v2H64.6v-2c2.87-.09,6.26-.56,6.26-.56a7.68,7.68,0,0,1-4.39-1.46A8,8,0,0,0,73,32.1l-.68,0v-1A31.06,31.06,0,0,0,75.59,30.78ZM8.35,35.35a4.12,4.12,0,0,1-1.73-1.86,2,2,0,0,0,2.17,0,2.7,2.7,0,0,1-.44-.07A9.61,9.61,0,0,0,14,32.47,11.74,11.74,0,0,1,8.35,35.35ZM39.56,24.69a6.73,6.73,0,0,0,3.73-1,14.23,14.23,0,0,1-3.94,4.9,8.87,8.87,0,0,1-4-4.13A4.34,4.34,0,0,0,39.56,24.69Zm-3.4,5.5a4.54,4.54,0,0,1-.53.12c-.39-.3-.64-.53-.7-.58A6.64,6.64,0,0,0,36.16,30.19Zm-8.4-9h0a6.46,6.46,0,0,0,.83.1c-.13-.12-.26-.24-.39-.38a4.67,4.67,0,0,0,.58-.46,1.13,1.13,0,0,0,.26-.23,2.54,2.54,0,0,1-.15.49A6.13,6.13,0,0,1,28,22.32a7.42,7.42,0,0,1-.7-.84A3.47,3.47,0,0,0,27.76,21.23Zm.91,8.49s-.17.16-.46.4L28,30A6.93,6.93,0,0,0,28.67,29.72Zm-2.32-7.88a3.55,3.55,0,0,0,1.49.68,5.91,5.91,0,0,1-.72.68,3.06,3.06,0,0,1-1-1.3Zm-3.19-2.66a4.66,4.66,0,0,1-.25.5,9.11,9.11,0,0,1-.37-1.05A7.65,7.65,0,0,0,23.16,19.18ZM20.31,39V36.63a94,94,0,0,0,10-1.16c-4,.1-7.15-3-7.15-3a10,10,0,0,0,8.12.31v2.3H33V32.57c1.48-.07,3-.25,4.31-.41h0a9.66,9.66,0,0,0,6.54-.78s-3.13,3.11-7.13,3a89.76,89.76,0,0,0,10.88,1.19V39ZM60.48,28.88a6.52,6.52,0,0,1-.75,1,7.34,7.34,0,0,1-1.13-.54A5,5,0,0,0,60.48,28.88ZM57.42,34A12,12,0,0,1,53,31.38a9.67,9.67,0,0,0,2,.74,6.09,6.09,0,0,1-.73,0,8,8,0,0,0,6.53.49A7.65,7.65,0,0,1,57.42,34Zm8.69-8.1a6.75,6.75,0,0,0,2.81,1.2,3.06,3.06,0,0,1-1,.24,2,2,0,0,0,2.18,0,4.89,4.89,0,0,1-.88,1.25A4.44,4.44,0,0,1,66.11,25.88Zm.71,3a5.11,5.11,0,0,0,1.35.4,2.19,2.19,0,0,1-.92.2A5.34,5.34,0,0,1,66.82,28.89Zm.77,1a3.3,3.3,0,0,0,2.7-.07,4,4,0,0,1-1.8.93A6.26,6.26,0,0,1,67.59,29.88Zm3.92,2.18a6.18,6.18,0,0,1-2.78-1.16,25.21,25.21,0,0,0,2.78.27Z"/><path class="cls-1" d="M9.53,46.13h4.81c-.07,1.35-.1,2-.18,3.38l-1,0L12.36,65c-1.07.2-1.6.3-2.64.52-1.56-4-3.08-8.07-4.6-12.11l-.2,9.54,1-.2c0,1.47-.05,2.2-.09,3.66-1.75.43-2.61.66-4.28,1.15V63.65l.93-.21L2.55,50l-1,0V46.13H5.37c1.56,4.22,3.11,8.45,4.7,12.67l.39-9.16-1.07,0C9.45,48.26,9.48,47.55,9.53,46.13Z"/><path class="cls-1" d="M21.4,60.45l1.28-.12c-.17-1-.26-1.47-.43-2.45-1.59.12-2.37.19-3.93.34-.29,1.05-.43,1.58-.72,2.64l1.34-.15c-.08,1.28-.12,1.93-.19,3.21-1.93.27-2.89.41-4.76.74.07-1.34.11-2,.18-3.35l.93-.13q2.05-7.55,4.29-15h3.35c.85,4.67,1.72,9.33,2.64,14l1-.07c-.06,1.23-.1,1.84-.16,3.07-2,.16-3,.27-5,.5C21.29,62.34,21.32,61.71,21.4,60.45Zm-2.24-5.3L21.73,55c-.38-2.24-.58-3.37-1-5.65C20.13,51.63,19.81,52.8,19.16,55.15Z"/><path class="cls-1" d="M28.92,59.88l1.38-.07.41-10.76-1.55,0-.1,2.17-2.76.07c.1-2.08.16-3.11.26-5.18H38.09c0,2,0,3,0,5H35.26l0-2.13H33.52q-.14,5.34-.28,10.68l1.43,0c0,1.19,0,1.79-.06,3-2.36.06-3.52.11-5.82.26C28.84,61.7,28.87,61.1,28.92,59.88Z"/><path class="cls-1" d="M38.77,46.13h5.08c0,1.2.06,1.81.09,3H42.76c.07,2.75.1,4.12.16,6.87a7.06,7.06,0,0,0,.21,1.6,3.39,3.39,0,0,0,.51,1.08,2,2,0,0,0,.75.63,2.28,2.28,0,0,0,.94.22,2.58,2.58,0,0,0,.94-.12,1.49,1.49,0,0,0,.71-.54,2.67,2.67,0,0,0,.42-1.06,7.06,7.06,0,0,0,.09-1.68c-.12-2.78-.18-4.18-.29-7H45.84c-.05-1.21-.07-1.82-.11-3h5.08c.06,1.24.09,1.86.16,3.1l-1,0c.13,2.64.2,4,.33,6.61A11.16,11.16,0,0,1,50,59a6.32,6.32,0,0,1-1,2.27,4.07,4.07,0,0,1-1.61,1.35,4.25,4.25,0,0,1-2,.39,5,5,0,0,1-2.08-.57A5.27,5.27,0,0,1,41.59,61a7.22,7.22,0,0,1-1.15-2.25,9.84,9.84,0,0,1-.44-3c0-2.64,0-4-.06-6.61H38.78C38.78,47.92,38.77,47.33,38.77,46.13Z"/><path class="cls-1" d="M52.34,46.13H59a3.73,3.73,0,0,1,1.77.42,4.27,4.27,0,0,1,1.35,1.15,5.81,5.81,0,0,1,.9,1.69,8,8,0,0,1,.38,2,8.64,8.64,0,0,1-.06,1.66,4.32,4.32,0,0,1-.33,1.24,3.33,3.33,0,0,1-.58.93,3.91,3.91,0,0,1-.83.68,3.43,3.43,0,0,1,.8,1A6.91,6.91,0,0,1,63,58.7c.22,1,.33,1.49.54,2.48l1,.15.2,3.68c-1.42-.27-2.13-.4-3.58-.63-.3-1.77-.45-2.64-.74-4.39a8,8,0,0,0-.31-1.35,3.36,3.36,0,0,0-.46-1,2,2,0,0,0-.66-.58,2.38,2.38,0,0,0-.89-.24l-1.08-.09.22,3.86,1.17.13c.08,1.29.11,1.93.19,3.22-2.11-.29-3.18-.42-5.34-.64l-.18-3.11,1.35.11-.63-11.07-1.32,0C52.44,48,52.41,47.38,52.34,46.13Zm4.27,3.21.25,4.29,1.67.1a2.83,2.83,0,0,0,.85-.08A1.32,1.32,0,0,0,60,53.3a1.56,1.56,0,0,0,.38-.65,2.89,2.89,0,0,0,.09-1A2.57,2.57,0,0,0,59.85,50a2.12,2.12,0,0,0-1.57-.63Z"/><path class="cls-1" d="M65.12,46.13H75.2v7.28l-2.62-.22c0-1.18,0-1.77,0-2.94l-3.19-.15c.05,1.58.07,2.37.12,3.94l2.43.22c0,1.57,0,2.36.07,3.93l-2.38-.33c0,1.85.08,2.77.14,4.62,1.21.23,1.82.35,3,.6l0-3.67c1,.16,1.52.25,2.52.43v7.64c-3-.87-6.11-1.61-9.2-2.23-.07-1.38-.1-2.08-.16-3.46l1.27.21q-.26-6-.5-12l-1.31-.05C65.23,48.41,65.19,47.65,65.12,46.13Z"/><polygon class="cls-3" points="15.47 75.03 13.34 79.55 10.15 74.55 15.47 75.03"/><polygon class="cls-3" points="66.57 75 63.39 80 61.28 75.48 66.57 75"/><path class="cls-3" d="M17.36,79.38c-1,.52-2,1.1-3,1.72-.82.5-1.64,1-2.47,1.6l1.48-3.15L15.47,75Z"/><path class="cls-2" d="M64.66,82.7c-.4-.31-1.1-.82-2.06-1.45s-1.84-1.16-3-1.81l1.71-4L63.39,80Z"/><line class="cls-2" x1="13.34" y1="79.55" x2="15.47" y2="75.03"/><path class="cls-3" d="M64.66,82.7c-.4-.31-1.1-.82-2.06-1.45s-1.84-1.16-3-1.81l1.71-4L63.39,80Z"/><path class="cls-3" d="M65.06,83l-6.74,7.67c-19.63-15.33-40.17-.16-40.17-.16L11.86,82.7c.83-.56,1.65-1.1,2.47-1.6,1-.62,2-1.2,3-1.72,18.49-9.81,34.27-4.26,42.21.06,1.19.65,2.21,1.27,3,1.81s1.66,1.14,2.06,1.45Z"/><path class="cls-5" d="M27.25,83.73q-.88-2.69-1.83-5.34c1.19-.4,2.4-.74,3.62-1l.15.6c-.92.22-1.84.47-2.75.75.18.56.37,1.12.55,1.69.76-.23,1.52-.45,2.29-.63,0,.18.1.36.14.54-.76.19-1.51.4-2.26.62l.62,2c.87-.27,1.76-.51,2.65-.71,0,.2.09.4.14.61C29.45,83.06,28.34,83.37,27.25,83.73Z"/><path class="cls-5" d="M32.14,82.49l-.67.12c-.38-1.84-.76-3.68-1.16-5.52l.85-.16a39.88,39.88,0,0,1,3.46,3.56l.3.42-.06-.44-.42-4,.8-.07q.24,2.81.47,5.62c-.25,0-.49,0-.73.06a37.37,37.37,0,0,0-3.33-3.6c-.11-.14-.23-.27-.35-.4,0,.14.07.29.1.44C31.66,79.85,31.9,81.17,32.14,82.49Z"/><path class="cls-5" d="M36.34,81l.77,0v0a.53.53,0,0,0,.1.28.46.46,0,0,0,.28.17,1.25,1.25,0,0,0,.4.06,1.05,1.05,0,0,0,.43-.11.65.65,0,0,0,.29-.32,3.34,3.34,0,0,0,.1-.95c0-1.29,0-2.58,0-3.87h.87c0,1.29-.07,2.59-.1,3.88a2.71,2.71,0,0,1-.23,1.26,1.4,1.4,0,0,1-.51.49,1.81,1.81,0,0,1-.81.17,1.78,1.78,0,0,1-1.2-.3,1,1,0,0,1-.39-.73Z"/><path class="cls-5" d="M42.76,82.32a2.39,2.39,0,0,1-1.7-.93,3.31,3.31,0,0,1-.58-2.25A2.94,2.94,0,0,1,41.37,77a2.68,2.68,0,0,1,2.11-.59,2.62,2.62,0,0,1,1.9,1,2.89,2.89,0,0,1,.34,2.31,3.31,3.31,0,0,1-1.1,2A2.34,2.34,0,0,1,42.76,82.32Zm.06-.56a1.46,1.46,0,0,0,1.34-.49,3.24,3.24,0,0,0,.74-1.66,2.79,2.79,0,0,0-.2-1.81A1.57,1.57,0,0,0,43.41,77a1.59,1.59,0,0,0-1.46.53,2.7,2.7,0,0,0-.63,1.71A3.09,3.09,0,0,0,41.64,81,1.48,1.48,0,0,0,42.82,81.76Z"/><path class="cls-5" d="M48.15,83.2,47.43,83l.66-2.58c-.39-1.12-.83-2.24-1.33-3.35l1,.2c.36.86.69,1.73,1,2.59q1.05-.9,2.19-1.74l.8.26c-1,.71-2,1.47-2.87,2.25Z"/><path class="cls-6" d="M17.36,79.38c-1,.52-2,1.1-3,1.72-.82.5-1.64,1-2.47,1.6l1.48-3.15L15.47,75Z"/><path class="cls-6" d="M64.66,82.7c-.4-.31-1.1-.82-2.06-1.45s-1.84-1.16-3-1.81l1.71-4L63.39,80Z"/></g></g></svg>