<svg xmlns="http://www.w3.org/2000/svg" viewBox="0 0 76.89 92.73"><defs><style>.cls-1{fill:#ff7c96;}.cls-2{fill:#b6dffc;}.cls-4{fill:#324b58;}.cls-6{fill:#ffffff;}.cls-7{fill:#000000;opacity:0.4;}</style></defs><title>Holidays-08</title><g id="Calque_2" data-name="Calque 2"><g id="Planche_Vacance_-_10" data-name="Planche Vacance - 10"><path class="cls-1" d="M8.51,53.84a5.5,5.5,0,0,0-.63-1.41,1.74,1.74,0,0,0-.63-.59,1.52,1.52,0,0,0-.73-.15,1.58,1.58,0,0,0-1.06.54,4.72,4.72,0,0,0-.86,1.41,10.14,10.14,0,0,0-.57,2,13.88,13.88,0,0,0-.23,2.46A14.23,14.23,0,0,0,4,60.56a9.28,9.28,0,0,0,.49,1.91,3.1,3.1,0,0,0,.76,1.19,1.1,1.1,0,0,0,1,.3,1.5,1.5,0,0,0,.73-.39,4.56,4.56,0,0,0,.63-.77,6.93,6.93,0,0,0,.51-1,9.61,9.61,0,0,0,.37-1.15l2.07.82a15.78,15.78,0,0,1-.7,2.36,11.22,11.22,0,0,1-1,2,6.87,6.87,0,0,1-1.26,1.48,3.41,3.41,0,0,1-1.45.79A1.91,1.91,0,0,1,4.87,68a2.65,2.65,0,0,1-1.07-.77,5.73,5.73,0,0,1-.89-1.44,11.62,11.62,0,0,1-.69-2,20.24,20.24,0,0,1-.45-2.49,23.65,23.65,0,0,1-.17-2.86A23,23,0,0,1,2,54.18,14.93,14.93,0,0,1,3,50.73a7,7,0,0,1,1.6-2.3,3,3,0,0,1,2-.82A2.44,2.44,0,0,1,8,48a4.62,4.62,0,0,1,1.21,1.51l1.52,0c-.07,1.69-.11,2.53-.18,4.21Z"/><path class="cls-1" d="M17.07,62.42l1-.13c-.12-1-.19-1.48-.31-2.47-1.28.13-1.91.19-3.17.34-.24,1.06-.36,1.59-.6,2.67l1.08-.16c-.08,1.3-.11,2-.19,3.25-1.54.26-2.31.4-3.81.7.06-1.35.1-2,.16-3.37l.75-.12q1.7-7.62,3.57-15.18h2.75q.95,7.06,1.94,14.11L21,62c-.07,1.24-.11,1.86-.18,3.1-1.61.2-2.4.3-4,.54C17,64.33,17,63.69,17.07,62.42Zm-1.75-5.36,2.09-.17c-.29-2.26-.44-3.41-.72-5.71C16.14,53.51,15.86,54.69,15.32,57.06Z"/><path class="cls-1" d="M22,61.88l1-.09c.2-3.6.41-7.2.61-10.79l-1,0c.07-1.24.11-1.86.18-3.09h4.28q1.24,5.92,2.58,11.81,1.71-5.9,3.34-11.82h4.35c0,1.17,0,1.76,0,2.93h-1L36.2,61.13h1l0,2.91c-1.7,0-2.55,0-4.23.09,0-1.17.05-1.75.08-2.93l.76,0c.08-3.1.15-6.2.23-9.31-1.17,4.08-2.39,8.13-3.63,12.19-.83,0-1.23.06-2.05.12Q27,58.26,25.69,52.33l-.49,9.28.8-.06-.15,3c-1.64.14-2.45.22-4.05.4C21.87,63.73,21.91,63.11,22,61.88Z"/><path class="cls-1" d="M38.89,47.91H43.7a2.87,2.87,0,0,1,1.49.4,3.89,3.89,0,0,1,1.2,1.06,5.61,5.61,0,0,1,.83,1.55,6.33,6.33,0,0,1,.36,1.84,9.89,9.89,0,0,1-.13,2.14,5,5,0,0,1-.62,1.71,3.16,3.16,0,0,1-1.15,1.12,3.26,3.26,0,0,1-1.7.38l-1.52,0c0,1.24,0,1.85.06,3.09l1,0c0,1.17.05,1.76.07,2.93-1.85-.06-2.79-.08-4.68-.09V61.11h1.16L40,50.84H38.9C38.9,49.67,38.89,49.08,38.89,47.91Zm3.42,2.93.09,4.34,1,0a1.58,1.58,0,0,0,1.26-.49,2.22,2.22,0,0,0,.42-1.62,2.73,2.73,0,0,0-.49-1.64,1.53,1.53,0,0,0-1.3-.6Z"/><path class="cls-1" d="M48.51,47.92H53c.07,1.22.1,1.83.17,3L52,51q.28,5.35.58,10.71l1.12.09c.07,1.23.11,1.84.17,3.06-1.83-.2-2.76-.28-4.64-.41,0-1.19-.08-1.79-.13-3l1.12.07c-.17-3.53-.35-7.06-.52-10.58l-1.09,0C48.59,49.71,48.56,49.11,48.51,47.92Z"/><path class="cls-1" d="M60.64,47.94l3.94,0,.16,3.37-.83,0,.75,15.08c-.88-.17-1.32-.25-2.21-.4-1.57-4-3.24-8-5-11.9.16,2.7.31,5.4.47,8.1l.88.1c.07,1.27.11,1.9.18,3.17-1.58-.23-2.38-.33-4-.51-.07-1.23-.11-1.84-.18-3.07l.88.08L55.1,51l-.84,0c-.07-1.23-.11-1.85-.18-3.08h3.14c1.71,3.91,3.37,7.85,4.94,11.83-.15-2.85-.31-5.7-.46-8.55l-.88,0C60.74,49.89,60.71,49.24,60.64,47.94Z"/><path class="cls-1" d="M73.47,68.38l0-3.5a8.93,8.93,0,0,1-.72,2,2.68,2.68,0,0,1-.81.88,1.54,1.54,0,0,1-1.24.09,2.67,2.67,0,0,1-.78-.38,3.91,3.91,0,0,1-.78-.66,8.93,8.93,0,0,1-.75-.9,8.28,8.28,0,0,1-.69-1.13,17.45,17.45,0,0,1-1.27-3.42,19.67,19.67,0,0,1-.58-4,17.89,17.89,0,0,1,.06-2.55,15.6,15.6,0,0,1,.39-2.29,11,11,0,0,1,.68-1.94,7.53,7.53,0,0,1,1-1.53,4.47,4.47,0,0,1,1.17-1,2.67,2.67,0,0,1,1.34-.36,2.4,2.4,0,0,1,1.41.42,5.07,5.07,0,0,1,1.3,1.58l1.52,0c0,1.85,0,2.77,0,4.62l-2.05-.17a6.33,6.33,0,0,0-.6-1.4,3.23,3.23,0,0,0-.6-.74,1.39,1.39,0,0,0-.9-.31,1.32,1.32,0,0,0-1,.44,3.65,3.65,0,0,0-.8,1.27,7.66,7.66,0,0,0-.48,1.89,12,12,0,0,0-.12,2.25,14.07,14.07,0,0,0,.26,2.21,9.55,9.55,0,0,0,.6,2,5.47,5.47,0,0,0,.87,1.43,1.84,1.84,0,0,0,1,.63A1.08,1.08,0,0,0,72,63.17a5,5,0,0,0,.69-2.11l-1.86-.29-.09-3.58c1.85.21,2.76.32,4.57.55V68.88C74.56,68.67,74.2,68.57,73.47,68.38Z"/><rect class="cls-1" x="2" y="43.37" width="72.88" height="1.33"/><path class="cls-2" d="M50.57,7.29a49.35,49.35,0,0,1-3.87,8,5.49,5.49,0,0,1-1.35.17,5.74,5.74,0,1,1,5.22-8.12Z"/><g id="TENT"><path class="cls-6" d="M15.2,13.51c-.63,11-1.82,20.74-8.3,24.4,0,0,1.17-4.6-.89-6.46C8.54,29.7,12,27,15.2,13.51Z"/><polygon class="cls-6" points="29.13 37.91 15.2 37.68 15.2 13.51 29.13 37.91"/><path class="cls-6" d="M15.2,13.51c-.63,11-1.82,20.74-8.3,24.4,0,0,1.17-4.6-.89-6.46C8.54,29.7,12,27,15.2,13.51Z"/><polygon class="cls-6" points="29.13 37.91 15.2 37.68 15.2 13.51 29.13 37.91"/></g><path class="cls-4" d="M76.89,33.46c-4.45.53-6.75-4.24-6.88-4.53a4.25,4.25,0,0,0,4.58,0,5.83,5.83,0,0,1-5.37-4.23,6.78,6.78,0,0,0,4.15,1.85c-3.71-3.29-6.4-10.91-6.89-13.86a34,34,0,0,1-4.23,10.6,8.45,8.45,0,0,1-5.52-5.73,9.89,9.89,0,0,0,6.07,2.71C57.38,15.44,53.45,4.31,52.74,0a41.46,41.46,0,0,1-2.17,7.29,49.35,49.35,0,0,1-3.87,8,22.79,22.79,0,0,1-4,5,9.89,9.89,0,0,0,6.07-2.71,8.53,8.53,0,0,1-7.86,6.19,6.22,6.22,0,0,0,6.7,0c-.14.31-2.48,5.23-7,6.42l-6.47-9.58L15.24,12.28,7.62,25.49,0,38.69H30.39l0,.07H46.35l-2.66-3.94a77.9,77.9,0,0,0,8.22.77v3.63H54.5V35.55c3-.14,6.29-.59,8.24-.88a7.15,7.15,0,0,1-4.26,1.54,61.13,61.13,0,0,0,7.44.81v2.49h1.77V37a64.62,64.62,0,0,0,6.8-.79,7.6,7.6,0,0,1-4.88-2.06A7.29,7.29,0,0,0,76.89,33.46ZM15.2,37.68V13.51c-.63,11-1.82,20.74-8.3,24.4,0,0,1.17-4.6-.89-6.46C8.54,29.7,12,27,15.2,13.51l13.93,24.4Zm28-3.54L42,32.24a9.72,9.72,0,0,0,6.22-.85A12,12,0,0,1,43.23,34.14ZM59.3,32.88a11.73,11.73,0,0,1-2-1.49,10,10,0,0,0,2.91.92A6.48,6.48,0,0,1,59.3,32.88Zm3.48-3.6-.24-.14a4.11,4.11,0,0,0,.42-.21A1.86,1.86,0,0,1,62.78,29.28Zm.39,5-.13,0,.31-.14Zm-2-6.23a12.7,12.7,0,0,1-1.49-1.56H59.6s0,0,0,0a14,14,0,0,1-1.76-2.76,6.8,6.8,0,0,0,3.38,1,12.93,12.93,0,0,1-1.62,1.79s0,0,0,0a6.72,6.72,0,0,0,4.09-1.84A5.81,5.81,0,0,1,61.15,28.09Z"/><path class="cls-4" d="M59.66,26.53H59.6s0,0,0,0S59.65,26.52,59.66,26.53Z"/><polygon class="cls-4" points="15.55 77.07 13.43 81.59 10.23 76.59 15.55 77.07"/><polygon class="cls-4" points="66.66 77.04 63.48 82.04 61.37 77.52 66.66 77.04"/><path class="cls-4" d="M17.44,81.42c-1,.52-2,1.1-3,1.72-.81.5-1.64,1-2.47,1.6l1.48-3.15,2.13-4.52Z"/><path class="cls-2" d="M64.74,84.74c-.39-.31-1.1-.82-2.06-1.45s-1.83-1.16-3-1.81l1.71-4L63.48,82Z"/><line class="cls-2" x1="13.42" y1="81.59" x2="15.55" y2="77.07"/><path class="cls-4" d="M64.74,84.74c-.39-.31-1.1-.82-2.06-1.45s-1.83-1.16-3-1.81l1.71-4L63.48,82Z"/><path class="cls-4" d="M65.14,85.06,58.4,92.73c-19.63-15.33-40.17-.16-40.17-.16l-6.29-7.83c.83-.56,1.66-1.1,2.47-1.6,1-.62,2-1.2,3-1.72,18.49-9.81,34.27-4.26,42.21.06,1.2.65,2.21,1.27,3,1.81s1.67,1.14,2.06,1.45Z"/><path class="cls-6" d="M27.33,85.77q-.88-2.68-1.82-5.34a37.34,37.34,0,0,1,3.62-1l.15.6c-.93.22-1.85.47-2.76.74.19.57.37,1.13.55,1.7.76-.24,1.53-.45,2.3-.63.05.18.09.36.14.54-.76.19-1.52.39-2.27.62.21.66.42,1.31.62,2,.88-.27,1.76-.51,2.65-.71,0,.2.1.4.14.61C29.53,85.1,28.42,85.41,27.33,85.77Z"/><path class="cls-6" d="M32.23,84.53l-.68.12c-.37-1.84-.76-3.68-1.15-5.52l.84-.16a38.71,38.71,0,0,1,3.47,3.56L35,83l-.06-.44c-.13-1.33-.27-2.66-.41-4l.8-.07q.24,2.8.46,5.61l-.73.07a38.57,38.57,0,0,0-3.32-3.6l-.35-.4c0,.14.07.29.1.44C31.74,81.89,32,83.21,32.23,84.53Z"/><path class="cls-6" d="M36.43,83.06l.77,0v0a.4.4,0,0,0,.1.28.47.47,0,0,0,.27.17,1.29,1.29,0,0,0,.4.06,1.1,1.1,0,0,0,.44-.11.65.65,0,0,0,.29-.32,3.1,3.1,0,0,0,.09-1c0-1.29,0-2.58,0-3.87h.88c0,1.29-.07,2.58-.1,3.88a2.82,2.82,0,0,1-.24,1.26,1.4,1.4,0,0,1-.51.49,1.73,1.73,0,0,1-.8.17,1.77,1.77,0,0,1-1.2-.3,1.06,1.06,0,0,1-.4-.73Z"/><path class="cls-6" d="M42.84,84.36a2.35,2.35,0,0,1-1.69-.93,3.27,3.27,0,0,1-.58-2.25A2.87,2.87,0,0,1,41.46,79a2.65,2.65,0,0,1,2.1-.59,2.6,2.6,0,0,1,1.9,1,2.89,2.89,0,0,1,.35,2.31,3.36,3.36,0,0,1-1.1,2A2.37,2.37,0,0,1,42.84,84.36Zm.07-.56a1.49,1.49,0,0,0,1.33-.49A3.08,3.08,0,0,0,45,81.65a2.73,2.73,0,0,0-.19-1.81,1.58,1.58,0,0,0-1.3-.85,1.62,1.62,0,0,0-1.46.52,2.81,2.81,0,0,0-.63,1.72A3.08,3.08,0,0,0,41.73,83,1.46,1.46,0,0,0,42.91,83.8Z"/><path class="cls-6" d="M48.24,85.23,47.52,85c.21-.85.44-1.71.66-2.57-.39-1.12-.84-2.24-1.34-3.35l1,.2c.37.86.7,1.72,1,2.59.7-.6,1.44-1.18,2.2-1.74l.8.26A33.91,33.91,0,0,0,49,82.68Q48.59,84,48.24,85.23Z"/><path class="cls-7" d="M17.44,81.42c-1,.52-2,1.1-3,1.72-.81.5-1.64,1-2.47,1.6l1.48-3.15,2.13-4.52Z"/><path class="cls-7" d="M64.74,84.74c-.39-.31-1.1-.82-2.06-1.45s-1.83-1.16-3-1.81l1.71-4L63.48,82Z"/></g></g></svg>