<svg xmlns="http://www.w3.org/2000/svg" viewBox="0 0 72.7 70.74"><defs><style>.cls-1{fill:#324b58;}.cls-2{fill:#fff;}.cls-3{fill:#ff7c96;}</style></defs><title>Holidays-12</title><g id="Calque_2" data-name="Calque 2"><g id="Planche_Vacance_-_16" data-name="Planche Vacance - 16"><path class="cls-1" d="M52.3,28.42a11.14,11.14,0,0,1,1.49.36,3.86,3.86,0,0,1-.49.09,7.26,7.26,0,0,0-1-.24,7.49,7.49,0,0,0-1.16-.09c-.43,0-.89,0-1.3,0a5.51,5.51,0,0,0-1.79.43c-.73.27-1.55.59-2.43.88l-.93.3h0l-3.19.26a.49.49,0,0,1,0-.11,3.06,3.06,0,0,1,.41-.73,4.58,4.58,0,0,1,.76-.77,5.53,5.53,0,0,1,2.4-1.09,5.76,5.76,0,0,1,1.59-.09,7.63,7.63,0,0,1,1.38.23c.83.21,1.43.46,1.76.5s.8,0,1.25,0A8.45,8.45,0,0,1,52.3,28.42Z"/><path class="cls-1" d="M55.14,28.51,54,28.74c-1.08-.78-2-1.38-2.68-1.81-.52-.34-1.07-.66-1.61-1-.22-.06-.47-.1-.72-.15-.43-.07-.89-.11-1.29-.17a5,5,0,0,0-1.81.28c-.74.22-1.58.5-2.52.71a20.09,20.09,0,0,1-2.06.33,12.13,12.13,0,0,1-1.8.1c-.18,0-.57-.06-.94-.11l-.48-.09c-.13,0-.22-.07-.24-.11a5.19,5.19,0,0,0,.7-.23,1.83,1.83,0,0,0,.66-.43,5.24,5.24,0,0,1,1.46-1,7.38,7.38,0,0,1,2.4-.66,6.3,6.3,0,0,1,1.57,0,7.15,7.15,0,0,1,1.36.32c.81.26,1.39.58,1.71.64s.8.1,1.24.16l.2,0q-.69-.37-1.38-.72a27,27,0,0,0-2.55-1.08c-.43-.16-.87-.3-1.31-.43l-.67-.19c-.19,0-.36-.14-.55-.2L42.53,23h0a10.06,10.06,0,0,0-1.23-.31l-.56-.1c-.76-.13-1.52-.26-2.29-.37-.49-.07-1-.13-1.46-.16-.71-.05-1.41-.13-2.12-.15a22.41,22.41,0,0,0-5.47.64,28.13,28.13,0,0,0-7.61,3l-.05,0-.53.33a4.55,4.55,0,0,0-1,.78,2.33,2.33,0,0,0-.39.65,8.36,8.36,0,0,0-.27.8.73.73,0,0,0,0,.22,1.47,1.47,0,0,0,0,.27,4.58,4.58,0,0,0,.27.63c.08.15.17.3.26.45l-1.52-.22a2.49,2.49,0,0,1,.11-.29,5,5,0,0,1,.4-.71l.17-.24a.94.94,0,0,0,.11-.17c.09-.22.16-.51.27-.79a3.66,3.66,0,0,1,.28-.56c-.19.14-.38.27-.57.42l-1.18.91a3.07,3.07,0,0,1-.26.25.3.3,0,0,1-.1.09c-.29.27-.57.55-.85.84l-.38-.07L16.8,29c.05-.07.11-.12.16-.19a3.06,3.06,0,0,1-.89.22H16A7.71,7.71,0,0,1,14.15,29c-.31-.05-.71-.1-1.14-.2a5.33,5.33,0,0,1-1.26-.42l-.34-.14L11,28.05c-.13,0-.25-.08-.38-.12h0c-.21-.07-.43-.16-.66-.26A7,7,0,0,1,8.72,27,4.91,4.91,0,0,1,7.56,25.8,4.45,4.45,0,0,1,7,24.66a4.77,4.77,0,0,1-.3-1.28,3.91,3.91,0,0,1,.09-1.2,2.65,2.65,0,0,1,.38-.88A3.1,3.1,0,0,1,7.4,21c.13-.12.28-.24.42-.35s.57-.41.65-.38a4.4,4.4,0,0,0-.33.65,1.27,1.27,0,0,0-.06.18l0,.17a.8.8,0,0,0,0,.34,13.3,13.3,0,0,0,.46,1.31,17.55,17.55,0,0,0,.87,1.74c.43.76.85,1.56,1.28,2.21a7.38,7.38,0,0,0,.61.84,4,4,0,0,0,.28.29,1.64,1.64,0,0,0,.24.19l.21.1a5,5,0,0,0,1,.29c.42.09.85.14,1.16.19l.59.08h0a6.64,6.64,0,0,0,1.18,0,3.54,3.54,0,0,0,.85-.22l.2-.1.21-.12.24-.13a19.4,19.4,0,0,1,4.09-3.17l0,0-.15.05-.9.25c-.3.08-.69.21-1.12.31a7.35,7.35,0,0,1-1.31.17c-.44,0-1.08.18-1.94.22a5,5,0,0,1-1.44-.14,4.11,4.11,0,0,1-1.59-.82A3.58,3.58,0,0,1,12.23,24a3.69,3.69,0,0,1-.37-1.38,2.71,2.71,0,0,1,0-.64.77.77,0,0,1,0-.15.51.51,0,0,1,0-.13l.06-.23a5.6,5.6,0,0,1,.25-.81c.15-.34.73-1.42.91-1.43a2.37,2.37,0,0,0,.1,1.48,3.66,3.66,0,0,1,.27.7,1.29,1.29,0,0,1,.07.21l0,.11,0,.09c0,.12.08.24.13.36a4.35,4.35,0,0,0,.88,1.37,7.32,7.32,0,0,0,.85.8,10.72,10.72,0,0,0,1,.68,4.56,4.56,0,0,0,1.6.66,5,5,0,0,0,1.21-.16c.43-.1.84-.24,1.14-.32s.59-.17.88-.27l.44-.15.44-.17.45-.16a28.27,28.27,0,0,1,3.85-1.83l1.27-.44a5.79,5.79,0,0,1-1.08-.31,8.79,8.79,0,0,1-2-1.13l0,0-.28-.13-.29-.15-.55-.3a5.45,5.45,0,0,0-1.14-.49,2.75,2.75,0,0,0-.75-.09,7,7,0,0,0-.83.07,1.82,1.82,0,0,0-.94.71c-.32.38-.62.84-.86,1.18a2.27,2.27,0,0,1-.23.31c-.07.09-.14.16-.21.26a1.21,1.21,0,0,0-.17.36,2.3,2.3,0,0,0-.1.47c-.08.22-.08,1.18-.22,1.29a1.62,1.62,0,0,0-.24-.42,1.6,1.6,0,0,0-.45-.39,1.39,1.39,0,0,1-.49-.44,2.08,2.08,0,0,1-.34-.88,2.45,2.45,0,0,1,.15-1.15,2.86,2.86,0,0,1,.67-1,2.55,2.55,0,0,1,1.09-.59,3.18,3.18,0,0,1,1-.12,4,4,0,0,1,.79.11,2.34,2.34,0,0,0,.49.07c.23,0,.53-.06.83-.06a2.88,2.88,0,0,1,.82.07,6.48,6.48,0,0,1,1,.35c-.35-.4-.71-.8-1.08-1.18a8.34,8.34,0,0,0-1.48-1.18,7.78,7.78,0,0,0-1-.51l-1.22-.44a3.85,3.85,0,0,0-1.8-.05c-.37.06-.76.14-1.15.24s-.78.22-1.18.35c-.56.18-1.15.4-1.73.65l-.82.38-.39.18-.36.15a4.48,4.48,0,0,1-1.66.33,2.36,2.36,0,0,0,1-1.09l.06-.16a1.22,1.22,0,0,1,.08-.17,4,4,0,0,1,.22-.38,5.18,5.18,0,0,1,.68-.8,5.32,5.32,0,0,1,1.05-.75,4.7,4.7,0,0,1,1.38-.48,4.42,4.42,0,0,1,1.7,0,5.53,5.53,0,0,1,1.39.46c.78.39,1.28.83,1.59.95s.75.27,1.17.43a6.44,6.44,0,0,1,1.11.52A9.38,9.38,0,0,1,22,18a2.6,2.6,0,0,1-.44-.64c-.13-.19-.22-.39-.34-.59a11.79,11.79,0,0,1-.63-1.35c-.1-.22-.22-.42-.32-.64a3.26,3.26,0,0,0-1.53-1.4,4.87,4.87,0,0,0-1.41-.41,8.15,8.15,0,0,0-1.21,0s-.12,0-.07-.08a1.56,1.56,0,0,1,1.16-.2,5.07,5.07,0,0,1,1.57.46,5.53,5.53,0,0,1,.74.4,3,3,0,0,0-.23-.3A5.63,5.63,0,0,0,17.8,12a6.77,6.77,0,0,0-1.06-.47l-.62-.22c-.21-.07-.41-.16-.6-.23a3.26,3.26,0,0,0-1.77.05,14,14,0,0,0-2.26.76l-.75.36a3.33,3.33,0,0,0-.6.41,2.29,2.29,0,0,0-.46.52,4.57,4.57,0,0,0-.32.62c0,.08-.09.2-.15.35s-.12.33-.17.5-.1.35-.15.47-.09.22-.13.23l0-.18a1.35,1.35,0,0,0,0-.18c0-.13,0-.26-.08-.39a4.13,4.13,0,0,0-.27-.82,2.24,2.24,0,0,1-.18-.9,2.72,2.72,0,0,1,.29-1.24,3.27,3.27,0,0,1,1-1.15,4,4,0,0,1,1.39-.69,4.61,4.61,0,0,1,1.71-.14,6.28,6.28,0,0,1,1.42.35,8.67,8.67,0,0,1,1,.52,6.37,6.37,0,0,0,.62.36l.55.23.62.21a6.39,6.39,0,0,1,1.13.48A6.53,6.53,0,0,1,19.4,13a5,5,0,0,1,.55.67c0,.05.07.18.14.16s.09-.14.08-.2-.17-.36-.23-.55a3.83,3.83,0,0,1-.16-.58A8.75,8.75,0,0,0,19.24,11a8.23,8.23,0,0,0-.59-1c-.24-.36-.52-.73-.75-1.07a4.24,4.24,0,0,0-1.43-1.12,9.36,9.36,0,0,0-1-.53c-.37-.16-.75-.31-1.13-.44a8.23,8.23,0,0,0-1.66-.41c-.29,0-.58,0-.86-.07h-.41l-.4,0a4.58,4.58,0,0,1-1.63-.44,2.39,2.39,0,0,0,1.38-.54L11,5.14a4.2,4.2,0,0,1,.38-.24,4.1,4.1,0,0,1,1-.4,4.3,4.3,0,0,1,1.36-.08,4.61,4.61,0,0,1,1.46.43,4.49,4.49,0,0,1,1.36,1.07,5.1,5.1,0,0,1,.79,1.21c.38.78.53,1.42.71,1.7s.46.66.71,1a7,7,0,0,1,.64,1,11.88,11.88,0,0,1,.65,1.68c0-.28-.09-.62-.13-1s0-.44-.05-.66l0-.33c0-.11,0-.22,0-.33s0-.49,0-.82a7.67,7.67,0,0,1,0-1.15,5.12,5.12,0,0,1,.32-1.39,4.36,4.36,0,0,1,.91-1.46,3.66,3.66,0,0,1,1.12-.84,3.3,3.3,0,0,1,1.45-.35,2.77,2.77,0,0,1,1.3.3,2.43,2.43,0,0,1,.77.64,2.56,2.56,0,0,1,.22.37,3.24,3.24,0,0,1,.19.52,2.29,2.29,0,0,1,.08.48.38.38,0,0,1,0,.26l-.1-.15A.76.76,0,0,0,26,6.53a1,1,0,0,0-.22-.25A.92.92,0,0,0,25.17,6c-.19,0-.39,0-.6,0a2.61,2.61,0,0,0-.6.14,4.23,4.23,0,0,0-.64.32,6.73,6.73,0,0,0-.72.54,12.85,12.85,0,0,0-1.73,1.73,3.52,3.52,0,0,0-.82,1.5,3.73,3.73,0,0,0,0,.58c0,.21,0,.43.06.64.05.45.12.87.16,1.18a11.08,11.08,0,0,0,.33,1.81,12.67,12.67,0,0,0,.59,1.77,1.21,1.21,0,0,1,.05.14,11,11,0,0,0,2.44,3.08,8.9,8.9,0,0,0,3,1.72,8.47,8.47,0,0,0,1.33.26l-.52-.24c-.18-.09-.43-.18-.69-.31a3.32,3.32,0,0,1-.75-.45c-.22-.19-.66-.35-1.16-.69a3.74,3.74,0,0,1-.75-.66,3.08,3.08,0,0,1-.56-1,2.75,2.75,0,0,1-.11-1,2.59,2.59,0,0,1,.26-1,2,2,0,0,1,.59-.75,1.51,1.51,0,0,1,.67-.32,1.13,1.13,0,0,1,.33,0,2,2,0,0,1,.42.07,1.27,1.27,0,0,1,.58.22,1.54,1.54,0,0,0-.45.17l-.1.07a.23.23,0,0,0-.07.07.65.65,0,0,0-.07.21c0,.13,0,.26,0,.39a2.47,2.47,0,0,0,.05.38c0,.12,0,.25.05.41s0,.34.06.54c0,.49,0,1.07.09,1.6a2.16,2.16,0,0,0,.3,1.12,2.47,2.47,0,0,0,.68.42c.26.11.52.2.7.29a6,6,0,0,0,1.09.41,3.25,3.25,0,0,0,.42.11,7.87,7.87,0,0,0,1,0c1.51-.09,3-.12,4.52-.1l1.36,0h.28l1.38.07c.29,0,.59,0,.88,0s.72.09,1.09.13c.66.07,1.31.17,2,.3s1.13.23,1.68.37l.1,0A26.71,26.71,0,0,1,47,23.61c.8.34,1.58.7,2.34,1.11.5.26,1,.55,1.47.84l.76.45c.24.15.48.26.72.39s.25.18.38.27a1.45,1.45,0,0,1,.29.19C53.48,27.29,54.49,28,55.14,28.51Z"/><path class="cls-2" d="M63.23,4.89a5.5,5.5,0,0,1-1.12.6c-.28,0-.42-.12-.67-.09a1.27,1.27,0,0,0-.72.34,11.62,11.62,0,0,1-4,2.38A7.62,7.62,0,0,1,52.16,8a15.76,15.76,0,0,1-3.89-2.21,12.11,12.11,0,0,0-5.19-2.1c-.63-.11-1.28,0-1.91-.1A5.57,5.57,0,0,1,39.34,3c-1-.44-1.41-1.26-2.12-1.95A4.11,4.11,0,0,0,36.15.31a2.42,2.42,0,0,0-.72-.23A4.9,4.9,0,0,0,34.11,0a6.71,6.71,0,0,0-2.18.79c-.3.16-.28.14-.56.31a.86.86,0,0,1-.61.19l-.26,0-.89-.08c-.11,0-.66-.17-.7,0s.25.15.33.19.33.11.49.19.51.2.51.31a3.13,3.13,0,0,1-.53.12,2.16,2.16,0,0,0-.44.1c-.12.08.06.1.15.12s.37.1.56.16a1.06,1.06,0,0,1,.58.33c.16.2.32.39.47.6a7.78,7.78,0,0,1,.72,1.33c1.16,2.94,1.12,5.17,2.7,7.73a15.39,15.39,0,0,0,1.1,1.66,10.49,10.49,0,0,0,7.12,3.77c.2.18.38.36.27.65s-.46.31-.66.38c-.66.22-1.34.39-2,.57s-1.3.3-1.94.48a1.16,1.16,0,0,0-.57.27c-.2.19-.48.41-.18.63s1.38.57,1.56,0c.07-.18,0-.4.08-.57s.58-.29.82-.35c1-.28,2.16-.48,3.18-.85.52-.18.21-.47.49-.81.11-.13.25-.23.34-.36a13.71,13.71,0,0,0,3-.41l.08.05c.11.1.3.18.38.31.2.34-.3.85-.5,1.09a13.92,13.92,0,0,1-2,1.76c-.56.44-1.22.7-1.78,1.12-.78.58,1,.52,1.26.49s.81-.11,1-.4-.05-.33-.1-.5c-.15-.54.73-1.09,1-1.41a10.93,10.93,0,0,0,1.84-2,1.43,1.43,0,0,0,.14-.9l.56-.2c.13-.05.72-.19.71-.37s-.3-.23-.41-.24a12.19,12.19,0,0,1-2.87-.58,21.69,21.69,0,0,1-4.66-2.29,12.28,12.28,0,0,1-3.57-3.68,4.15,4.15,0,0,1-.77-3.25c.07-.21.27-.79.56-.5s0,.68-.08.87a3.56,3.56,0,0,0,0,1.08,4.44,4.44,0,0,0,.84,2A13.82,13.82,0,0,0,43.33,14,25.29,25.29,0,0,0,49.13,16l.58.13.12,0c.19,0,.4.09.6.12a13.47,13.47,0,0,0,5.65.1c.46-.12,2.58-.57,2.57-1.21s-1.57-.87-2-1.14c1.94-.6-1-.66-.3-1.7s2.06-1.57,3-2.33a21.86,21.86,0,0,1,3.81-2.59c.46-.24,1.28-1,.13-.87l0,0a8.5,8.5,0,0,0,.79-.89C64.8,4.63,64,4.48,63.23,4.89Z"/><path class="cls-3" d="M5.14,30.32c1.41.42,2.16.62,3.69,1v4.51l-.93-.15V51.83l.93-.15v4.49c-1.53.39-2.28.59-3.69,1V52.34L6,52.17V45.42l-3.64.16v7.35l.82-.19v5.09c-1.34.45-2,.7-3.19,1.2V53.51l.74-.19V34.24L0,34.05V28.52c1.21.49,1.85.73,3.19,1.18v5.1l-.82-.18v6c1.38.11,2.11.16,3.64.25V35.35l-.87-.16Z"/><path class="cls-3" d="M14.5,55.35a1.92,1.92,0,0,1-1.27-.17,3.29,3.29,0,0,1-1.11-1,7.3,7.3,0,0,1-.92-1.75,14.62,14.62,0,0,1-.7-2.4,26.67,26.67,0,0,1-.44-2.95,35.15,35.15,0,0,1,0-6.7,26.86,26.86,0,0,1,.44-3A15.05,15.05,0,0,1,11.2,35a7.42,7.42,0,0,1,.92-1.74,3.32,3.32,0,0,1,1.11-1,1.92,1.92,0,0,1,1.27-.17,2.86,2.86,0,0,1,1.3.63A6.66,6.66,0,0,1,17,34.06a10.47,10.47,0,0,1,1,1.86,16.59,16.59,0,0,1,.78,2.29,20.09,20.09,0,0,1,.51,2.63,24.54,24.54,0,0,1,.17,2.89,24.49,24.49,0,0,1-.17,2.88,20.42,20.42,0,0,1-.51,2.63A17.06,17.06,0,0,1,18,51.53a10.83,10.83,0,0,1-1,1.86,6.39,6.39,0,0,1-1.17,1.32A2.88,2.88,0,0,1,14.5,55.35Zm0-4.65a1.54,1.54,0,0,0,1-.66,5.29,5.29,0,0,0,.83-1.54,12,12,0,0,0,.54-2.18,16.52,16.52,0,0,0,.19-2.59,16.69,16.69,0,0,0-.19-2.61,11.74,11.74,0,0,0-.55-2.18,5.36,5.36,0,0,0-.83-1.55,1.56,1.56,0,0,0-1-.65,1.14,1.14,0,0,0-1,.44,4.29,4.29,0,0,0-.79,1.47,12.17,12.17,0,0,0-.51,2.27A19.34,19.34,0,0,0,12,43.74a18.92,18.92,0,0,0,.19,2.79,12.17,12.17,0,0,0,.51,2.27,4.23,4.23,0,0,0,.79,1.46A1.14,1.14,0,0,0,14.5,50.7Z"/><path class="cls-3" d="M20.82,33.47c1.82.22,2.76.32,4.66.48v3.54l-1.17-.06V50l2.42-.13a.29.29,0,0,0,.19-.11.77.77,0,0,0,.16-.25,2,2,0,0,0,.12-.34,1.37,1.37,0,0,0,0-.34V46.28l2.43-.05v7c-3.66.2-5.45.36-8.85.78v-3.7l1.11-.09V37.27l-1.11-.08Z"/><path class="cls-3" d="M30.69,34.29c2,.09,3,.12,5,.14v3.36l-1.25,0V49.66H35.7V53c-2,0-3,.05-5,.14V49.74l1.2,0v-12l-1.2,0Z"/><path class="cls-3" d="M36.73,34.44c1.83,0,2.72,0,4.49-.06a3.58,3.58,0,0,1,1.52.29,4.54,4.54,0,0,1,1.34.89A6.82,6.82,0,0,1,45.2,37a9.65,9.65,0,0,1,.85,1.89,13.71,13.71,0,0,1,.55,2.27,17.27,17.27,0,0,1,0,5.11,14.08,14.08,0,0,1-.55,2.28,10,10,0,0,1-.85,1.9,6.71,6.71,0,0,1-1.12,1.44,4.78,4.78,0,0,1-1.34.9,3.57,3.57,0,0,1-1.52.28c-1.77,0-2.66-.06-4.49,0V49.64h1V37.8h-1Zm3.51,3.34V49.66l1,0a1.69,1.69,0,0,0,1.16-.45,3.86,3.86,0,0,0,1-1.26,8.64,8.64,0,0,0,.63-1.9,11.94,11.94,0,0,0,.23-2.38A11.63,11.63,0,0,0,44,41.34a8.37,8.37,0,0,0-.63-1.89,3.92,3.92,0,0,0-1-1.25,1.76,1.76,0,0,0-1.16-.43Z"/><path class="cls-3" d="M53.61,50.26l1,.09c-.19-1.21-.28-1.81-.47-3l-3.26-.14c-.19,1.14-.29,1.7-.49,2.83l1.14.07v3.62c-1.62-.17-2.45-.24-4.13-.37V49.88l.82,0c1.2-6.3,1.79-9.52,3-16.17,1.14-.11,1.7-.18,2.81-.31,1.11,6.6,1.66,10,2.74,17.1l.73.07v3.9c-1.52-.24-2.3-.35-3.89-.55Zm-2.13-6.4h2.14c-.43-2.66-.64-4-1.07-6.58C52.12,39.94,51.91,41.26,51.48,43.86Z"/><path class="cls-3" d="M57,33c1.73-.26,2.58-.4,4.22-.72v4.15l-.81.09c.52,2,.77,3,1.28,5.14.54-2.14.81-3.23,1.33-5.46l-.89.11V32.13c1.61-.32,2.4-.5,3.9-.87v4.53l-.65.1C64.29,40,63.74,42,62.63,45.73v5.49l1.13.16V55.7c-1.64-.37-2.49-.54-4.23-.85v-4L60.6,51V45.6c-1.08-3.66-1.63-5.41-2.75-8.77l-.88.08Z"/><path class="cls-3" d="M70.88,37.69a8.67,8.67,0,0,0-.13-1.19,5.16,5.16,0,0,0-.26-.92,1.81,1.81,0,0,0-.36-.58.47.47,0,0,0-.43-.14.73.73,0,0,0-.38.21,1.38,1.38,0,0,0-.31.49,3.89,3.89,0,0,0-.22.78,7,7,0,0,0-.08,1.1,5.61,5.61,0,0,0,.11,1.23,2.62,2.62,0,0,0,.27.74,1.37,1.37,0,0,0,.37.44,4.27,4.27,0,0,1,.38.36c.59.62.87.93,1.44,1.59a3.88,3.88,0,0,1,.54,1,9.09,9.09,0,0,1,.43,1.6,21.6,21.6,0,0,1,.29,2.2c.07.83.1,1.77.1,2.8a33.2,33.2,0,0,1-.2,3.8,14.81,14.81,0,0,1-.56,2.8A3.74,3.74,0,0,1,71,57.6a1.13,1.13,0,0,1-1.18.26,2.1,2.1,0,0,1-.89-.62,5.07,5.07,0,0,1-.77-1.2,10.41,10.41,0,0,1-.63-1.67,14.39,14.39,0,0,1-.42-2.06l-.59-.11v-5l2,.16v1.08a13.07,13.07,0,0,0,.08,1.45,8,8,0,0,0,.24,1.19,2.79,2.79,0,0,0,.4.83.87.87,0,0,0,.55.38q.48.11.72-.6a8.29,8.29,0,0,0,.16-3.24,4.24,4.24,0,0,0-.22-.81,2.47,2.47,0,0,0-.31-.56q-.16-.23-.33-.42c-.49-.56-.73-.83-1.24-1.37a4.19,4.19,0,0,1-.69-1,7.18,7.18,0,0,1-.6-1.53,13.24,13.24,0,0,1-.42-2.12,20.48,20.48,0,0,1-.16-2.75,21.35,21.35,0,0,1,.23-3.26,13,13,0,0,1,.63-2.55,6.66,6.66,0,0,1,1-1.77,2.61,2.61,0,0,1,1.18-.89,1.11,1.11,0,0,1,.91.09,2.38,2.38,0,0,1,.73.82,5.94,5.94,0,0,1,.53,1.38,12.62,12.62,0,0,1,.34,1.73l.49-.13v5.79l-1.82.2Z"/><polygon class="cls-3" points="10.51 65.85 11.21 67.27 12.77 67.5 11.64 68.6 11.91 70.16 10.51 69.42 9.1 70.16 9.37 68.6 8.24 67.5 9.8 67.27 10.51 65.85"/><polygon class="cls-3" points="62.19 65.85 62.9 67.27 64.46 67.5 63.33 68.6 63.59 70.16 62.19 69.42 60.79 70.16 61.06 68.6 59.93 67.5 61.49 67.27 62.19 65.85"/><path class="cls-2" d="M18.91,66h1.55v.54H20V70.2h.46v.54H18.91V70.2h.48V68.49H16.63V70.2h.48v.54H15.56V70.2H16V66.52h-.45V66h1.55v.54h-.48V68h2.76V66.52h-.48Z"/><path class="cls-2" d="M24.18,70.2h.39l-.38-1.08H22.36L22,70.2h.49v.54H20.94V70.2h.41L22.84,66h.92l1.48,4.22h.48v.54H24.18Zm-1.64-1.6H24l-.74-2.13Z"/><path class="cls-2" d="M26.2,66h1.93a1.83,1.83,0,0,1,.59.08,1.6,1.6,0,0,1,.47.24,1.12,1.12,0,0,1,.3.41,1.4,1.4,0,0,1,.11.56,1.21,1.21,0,0,1-.11.49,1.17,1.17,0,0,1-.3.4,1.37,1.37,0,0,1-.47.28,1.89,1.89,0,0,1-.6.1h-.85V70.2h.48v.54H26.2V70.2h.46V66.52H26.2Zm1.07.54V68h.86a1.14,1.14,0,0,0,.33,0,.72.72,0,0,0,.26-.14.61.61,0,0,0,.17-.24.79.79,0,0,0,.06-.32.71.71,0,0,0-.21-.55,1,1,0,0,0-.69-.2Z"/><path class="cls-2" d="M30.21,66h1.92a1.83,1.83,0,0,1,.59.08,1.6,1.6,0,0,1,.47.24,1.12,1.12,0,0,1,.3.41,1.25,1.25,0,0,1,.11.56,1.06,1.06,0,0,1-.11.49,1.17,1.17,0,0,1-.3.4,1.42,1.42,0,0,1-.46.28,2,2,0,0,1-.61.1h-.85V70.2h.48v.54H30.21V70.2h.45V66.52h-.45Zm1.06.54V68h.86a1.14,1.14,0,0,0,.33,0,.72.72,0,0,0,.26-.14.61.61,0,0,0,.17-.24.79.79,0,0,0,.06-.32.71.71,0,0,0-.21-.55,1,1,0,0,0-.69-.2Z"/><path class="cls-2" d="M33.92,66h1.54v.54H35l.9,1.53,1-1.53h-.5V66h1.55v.54h-.41l-1.34,2V70.2h.49v.54H35.11V70.2h.44V68.54l-1.26-2h-.37Z"/><path class="cls-2" d="M40.85,70.2h.44V66.49H40.2v.74h-.65V66H43.8v1.25h-.64v-.74H41.9V70.2h.49v.54H40.85Z"/><path class="cls-2" d="M44.38,66H45.9v.54h-.45V70.2h.45v.54H44.38V70.2h.46V66.52h-.46Z"/><path class="cls-2" d="M46.8,70.2h.46V66.58H46.8V66h1.51l1.52,4.11L51.36,66h1.43v.6h-.45V70.2h.45v.54H51.24V70.2h.51V66.54l-1.67,4.2h-.53l-1.69-4.21V70.2h.49v.54H46.8Z"/><path class="cls-2" d="M53.69,66H57.1v1.35h-.64v-.81h-1.7v1.53h1.43v.54H54.76V70.2h1.7v-.8h.64v1.34H53.69V70.2h.45V66.52h-.45Z"/></g></g></svg>