<svg xmlns="http://www.w3.org/2000/svg" viewBox="0 0 192 41.04"><defs><style>.cls-1{fill:#f7f8f9;}.cls-2{fill:#324b56;}.cls-3{opacity:0.5;}</style></defs><title>Banners02</title><g id="Calque_2" data-name="Calque 2"><g id="Ribbon_02" data-name="Ribbon 02"><polygon class="cls-1" points="192 16.63 172.62 16.63 172.62 9.74 123.59 9.74 96 0 68.4 9.74 19.38 9.74 19.38 16.63 0 16.63 5.54 26.07 0 35.51 23.43 35.51 28.44 36.32 28.44 31.68 69.31 31.68 96 41.04 122.69 31.68 163.56 31.68 163.56 36.32 168.56 35.51 192 35.51 186.46 26.07 192 16.63"/><polygon class="cls-2" points="26.75 33.81 26.75 31.52 21.08 31.52 26.75 33.81"/><polygon class="cls-2" points="165.25 31.52 165.25 33.81 170.92 31.52 165.25 31.52"/><polygon class="cls-3" points="26.75 33.81 26.75 31.52 21.08 31.52 26.75 33.81"/><polygon class="cls-3" points="165.25 31.52 165.25 33.81 170.92 31.52 165.25 31.52"/><polygon class="cls-2" points="10.42 26.07 7.75 31.13 19.93 31.13 19.93 20.9 7.75 20.9 10.42 26.07"/><polygon class="cls-2" points="23.43 33.81 19.93 32.35 19.93 31.9 6.49 31.9 9.56 26.06 6.49 20.14 19.93 20.14 19.93 18.32 2.96 18.32 7.5 26.07 2.96 33.81 23.43 33.81"/><polygon class="cls-2" points="181.58 26.07 184.25 20.9 172.07 20.9 172.07 31.13 184.25 31.13 181.58 26.07"/><polygon class="cls-2" points="189.04 18.32 172.07 18.32 172.07 20.14 185.51 20.14 182.44 26.06 185.51 31.9 172.07 31.9 172.07 32.35 168.56 33.81 189.04 33.81 184.5 26.07 189.04 18.32"/><polygon class="cls-2" points="96 5.67 71.72 14.69 24.29 14.69 24.29 26.93 71.85 26.95 95.96 35.95 120.28 26.93 167.7 26.93 167.7 14.69 120.15 14.67 96 5.67"/><path class="cls-2" d="M123.32,11.44,96,1.79h0L68.68,11.44H21.08V30h48.5L96,39.26h0L122.42,30h48.5V11.44Zm45.15,16.25H120.34L96,36.76l-.16,0-24.14-9H23.53V13.93H71.66L96,4.86l24.34,9.07h48.13Z"/></g></g></svg>