<svg xmlns="http://www.w3.org/2000/svg" viewBox="0 0 201 133.38"><defs><style>.cls-1{fill:#fff;}.cls-2{fill:#324b56;}.cls-3{opacity:0.5;}</style></defs><title>Banners10</title><g id="Calque_2" data-name="Calque 2"><g id="Ribbon_10" data-name="Ribbon 10"><polygon class="cls-1" points="105.4 38.6 168.65 45.56 168.65 37.72 168.65 15.56 90.62 6.97 32.34 0.56 32.34 8.27 32.34 30.56 48.03 32.28 105.4 38.6"/><polygon class="cls-1" points="93.4 102.83 51.5 98.22 51.5 103.76 51.5 119.79 104.02 125.57 170.91 132.82 170.91 127.19 170.91 111.26 154.64 109.49 93.4 102.83"/><polygon class="cls-1" points="121.13 52.15 86.01 48.28 0.5 38.87 0.5 46.59 0.5 50.19 0.5 68.88 0.5 82.89 87.94 92.52 107.69 94.69 200.5 104.91 200.5 97.07 200.5 93.4 200.5 74.9 200.5 60.88 121.13 52.15"/><path class="cls-2" d="M123.15,51.87,139,49.67l27.61-3.83,2.54.28v-31L32.4.06,31.85,0V31L46,32.56,35,34.08h0L2.52,38.59l-2-.21L0,38.32v45L71.43,91.2l14.62,1.61L75.76,94.42,53.4,97.92,51,97.66v22.58l53,5.83,66.88,7.25.55.06V110.81l-14.32-1.57,10.52-1,30.5-3,2.35.25.55.06v-45ZM32.85,30.11v-29L168.15,16V45ZM170.4,111.7v20.57l-66.32-7.2L52,119.34V98.78l41.35,4.55ZM1,82.45v-43l199,21.9v43Z"/><polygon class="cls-3" points="166.61 45.84 139 49.67 35.01 34.08 45.95 32.56 166.61 45.84"/><polygon class="cls-3" points="201 105.43 201 105.46 200.45 105.4 198.1 105.15 167.6 108.19 75.76 94.42 86.05 92.81 71.43 91.2 71.43 91.17 201 105.43"/></g></g></svg>