<svg xmlns="http://www.w3.org/2000/svg" viewBox="0 0 161.85 33"><defs><style>.cls-1{fill:#324b56;}.cls-2{opacity:0.3;}.cls-3{opacity:0.2;}</style></defs><title>Banners06</title><g id="Calque_2" data-name="Calque 2"><g id="Ribbon_14" data-name="Ribbon 14"><polygon class="cls-1" points="158.35 10.7 161.85 0 136.57 0 136.57 0.08 136.54 0.05 136.54 8.91 25.31 8.91 25.31 0.05 25.27 0.08 25.27 0 0 0 3.88 10.17 0 20.75 12.42 20.75 12.42 33 149.42 33 149.42 20.75 161.85 20.75 158.35 10.7"/><polygon class="cls-2" points="149.42 8.91 136.57 0.08 136.57 8.91 149.42 8.91"/><polygon class="cls-2" points="25.27 8.91 25.27 0.08 12.42 8.91 25.27 8.91"/><polygon class="cls-3" points="161.85 0 136.57 0 136.57 0.08 149.42 8.91 149.42 20.75 161.85 20.75 158.35 10.7 161.85 0"/><polygon class="cls-3" points="25.27 0.08 25.27 0 0 0 3.88 10.17 0 20.75 12.42 20.75 12.42 8.91 25.27 0.08"/></g></g></svg>