<svg xmlns="http://www.w3.org/2000/svg" viewBox="0 0 104.74 179.64"><defs><style>.cls-1{fill:#324b56;}.cls-2{fill:#cce3e8;}</style></defs><title>Banners13</title><g id="Calque_2" data-name="Calque 2"><g id="Ribbon_13" data-name="Ribbon 13"><polygon class="cls-1" points="93.81 0 93.81 175.29 87.28 179.64 78.55 173.82 69.83 179.64 61.1 173.82 52.37 179.64 43.64 173.82 34.91 179.64 26.19 173.82 17.46 179.64 11.09 175.39 11.09 0 93.81 0"/><polygon class="cls-1" points="6.43 0 6.43 175.36 0 179.64 0 0 6.43 0"/><polygon class="cls-1" points="104.74 0 104.74 179.64 98.46 175.46 98.46 0 104.74 0"/><polygon class="cls-2" points="6.39 175.36 8.69 173.82 6.39 175.36 6.39 175.36"/><polygon class="cls-2" points="11.01 0 11.01 175.39 8.65 173.82 6.43 175.31 6.35 175.36 6.35 0 11.01 0"/><polygon class="cls-2" points="98.38 0 98.38 175.46 95.94 173.82 93.81 175.24 93.73 175.29 93.73 0 98.38 0"/></g></g></svg>