<svg xmlns="http://www.w3.org/2000/svg" viewBox="0 0 190 24.83"><defs><style>.cls-1{fill:#fff;}.cls-1,.cls-2{fill-rule:evenodd;}.cls-2{fill:#324b56;}</style></defs><title>Banners07</title><g id="Calque_2" data-name="Calque 2"><g id="Ribbon_07" data-name="Ribbon 07"><polygon class="cls-1" points="144.9 24.83 143.46 19.47 51.76 19.47 53.19 24.83 29.63 24.83 28.19 19.47 2.09 19.47 9.69 10.01 0 0 187.91 0 180.31 9.46 190 19.47 167.03 19.47 168.47 24.83 144.9 24.83"/><path class="cls-2" d="M5.3,17.94H28.14L24.88,5.75l6.43-2.86-4.7,2.86h8.28L33.76,1.54H4.63l7.26,8.2L5.3,17.94Zm180.07,0H166.25L163,5.75l-8-2.86,6.22,2.86H153l-1.13-4.21h32.87l-6.59,8.2,7.25,8.2ZM149,1.54l4.39,16.4H41l-4.4-16.4Zm13,5.36H151.7L155,19.08l-6.43,2.86,4.7-2.86H145l1.13,4.22h20.38L162.07,6.9ZM26.41,6.9H36.78l3.27,12.18,8,2.86-6.23-2.86h8.28l1.13,4.22H30.81L26.41,6.9Z"/></g></g></svg>