<svg xmlns="http://www.w3.org/2000/svg" viewBox="0 0 179.54 184"><defs><style>.cls-1{fill:#324b56;}.cls-2{fill:#fff;}.cls-3{opacity:0.5;}</style></defs><title>Banners08</title><g id="Calque_2" data-name="Calque 2"><g id="Ribbon_08" data-name="Ribbon 08"><path class="cls-1" d="M179.54,131.66l-1.23-44.19-4,.52h0L122,81.3l-17.37-2.22-.22,0,74-9.49V26l-2.34.29-6.88-3.74L127.56,0l5.23,19.07L104,22.35l12.36,7,6.88,3.88-8.94,1.17L0,49.29V92.44l5.52-.72h.06l19.76,2.53,50.88,6.53L0,110.73v43.15l1.56-.19,0,.12-.05.23,5.86,4,38.49,26-5.72-22.16L69.4,160.7l-13.8-9.18L50,147.78,152.58,135Z"/><polygon class="cls-2" points="176.56 28.14 176.56 68.04 97.31 78.14 1.78 90.36 1.78 50.82 6.59 50.2 125.87 34.7 176.07 28.2 176.56 28.14"/><polygon class="cls-2" points="83.27 101.7 83.24 101.7 1.78 112.26 1.78 151.8 1.98 151.77 47.56 146.15 177.72 130.13 177.21 111.58 176.59 89.58 83.27 101.7"/><polygon class="cls-3" points="121.95 81.3 25.34 94.26 5.58 91.73 104.58 79.08 121.95 81.3"/><polyline class="cls-3" points="49.97 147.78 1.54 153.81 1.49 154.04 7.35 158 55.6 151.52 49.97 147.78"/></g></g></svg>