<svg xmlns="http://www.w3.org/2000/svg" viewBox="0 0 198 44.44"><defs><style>.cls-1{fill:#fff;}.cls-2{fill:#324b56;}.cls-3{opacity:0.3;}</style></defs><title>Banners 01</title><g id="Calque_2" data-name="Calque 2"><g id="Ribbon_01" data-name="Ribbon 01"><path class="cls-1" d="M192.7,27.92l5.17-13.57A2,2,0,0,0,196,11.64H175.18V7.82a2,2,0,0,0-1-1.73C167.74,2.37,159,.56,147.6.56c-14.13,0-31,2.78-47.25,5.46-16.48,2.71-33.51,5.52-47.93,5.52H51.16V2a2,2,0,0,0-2-2H2A2,2,0,0,0,.13,2.7L5.3,16.52.13,30.09a2,2,0,0,0,.22,1.85A2,2,0,0,0,2,32.8H22.82v3.82a2,2,0,0,0,1,1.73c7,4,16.34,6,28.6,6h0c14.74,0,31.94-2.83,48.57-5.57,15.82-2.61,32.18-5.3,45.84-5.4v9.07a2,2,0,0,0,2,2H196a2,2,0,0,0,1.87-2.7Z"/><path class="cls-2" d="M173.17,7.82C141.05-10.73,58.56,27.3,24.82,7.82v28.8c33.74,19.48,116.23-18.54,148.35,0Z"/><path class="cls-2" d="M28,7.06a39.48,39.48,0,0,0,10.48,3.47,51.77,51.77,0,0,0,10.67.82V2H2L7.43,16.52,2,30.8H22.64V6L49.16,2Z"/><path class="cls-2" d="M196,13.64H175.35V38.4l-26.51,4L170,37.38a40.23,40.23,0,0,0-10.48-3.48,52.58,52.58,0,0,0-10.67-.81v9.35H196l-5.44-14.53Z"/><g class="cls-3"><path d="M49.16,2v9.35a51.82,51.82,0,0,1-10.67-.82A39.48,39.48,0,0,1,28,7.06Z"/><path d="M170,37.38l-21.15,5.06V33.09a52.47,52.47,0,0,1,10.67.81A40.23,40.23,0,0,1,170,37.38Z"/></g></g></g></svg>