<svg xmlns="http://www.w3.org/2000/svg" viewBox="0 0 215.09 49.76"><defs><style>.cls-1{fill:#324b56;}.cls-2{opacity:0.2;}.cls-3{opacity:0.5;}</style></defs><title>Banners12</title><g id="Calque_2" data-name="Calque 2"><g id="Ribbon_14" data-name="Ribbon 14"><polygon class="cls-1" points="209.81 1.52 142.91 0 142.91 0.01 142.91 0 142.94 0.2 144.85 12.19 26.67 9.59 28.61 20.23 28.63 20.32 0 19.77 8.5 34.27 2.54 48.58 64.09 49.76 62.19 39.1 188.83 41.99 186.61 29.8 215.09 30.46 204.03 16.19 209.81 1.52"/><polygon class="cls-2" points="28.63 20.32 0 19.77 8.5 34.27 2.54 48.58 64.09 49.76 31.92 38.42 28.63 20.32"/><polygon class="cls-3" points="31.92 38.42 64.09 49.76 62.15 39.1 31.92 38.42"/><polygon class="cls-2" points="142.91 0 142.91 0.01 183.19 13.03 183.56 13.04 186.61 29.8 215.09 30.46 204.03 16.19 209.81 1.52 142.91 0"/><polygon class="cls-3" points="183.19 13.03 142.91 0.01 142.94 0.2 145.04 12.19 183.19 13.03"/></g></g></svg>