<?xml version="1.0" encoding="UTF-8"?><svg id="Calque_2" xmlns="http://www.w3.org/2000/svg" viewBox="0 0 647.72 200.12"><defs><style>.cls-1{fill:none;}.cls-2{fill:#181e30;}</style></defs><g id="Layer_1"><rect class="cls-1" width="647.72" height="200.12"/><path id="Tracé_13093" class="cls-2" d="m214.11,57.16c0,4.48-3.62,8.11-8.1,8.11-4.48,0-8.11-3.62-8.11-8.1h0c-.12-4.42,3.35-8.1,7.77-8.23.14,0,.27,0,.41,0,4.3-.14,7.9,3.23,8.04,7.53h0c0,.23,0,.46,0,.69m-14.59,20.32h13.09v72.36h-13.09v-72.36Z"/><path id="Tracé_13094" class="cls-2" d="m234.34,97.09c0-7.49-.15-13.6-.62-19.58h11.6l.75,11.95h.3c4.78-8.61,13.96-13.85,23.8-13.59,9.97,0,25.45,5.97,25.45,30.79v43.2h-13.09v-41.7c0-11.66-4.35-21.38-16.66-21.38-8.16.15-15.28,5.6-17.55,13.45-.63,1.98-.93,4.05-.9,6.13v43.5h-13.09v-52.77Z"/><path id="Tracé_13095" class="cls-2" d="m317.34,50.31c8.21-1.34,16.51-1.99,24.83-1.94,10.08-.77,20.1,2.22,28.12,8.38,5.88,5.39,9.09,13.1,8.78,21.07.39,7.92-2.39,15.66-7.74,21.52-8.28,7.72-19.35,11.71-30.64,11.06-3.49.11-6.99-.19-10.41-.89v40.36h-12.94V50.31Zm12.94,48.58c3.51.79,7.11,1.15,10.71,1.05,15.62,0,25.15-7.62,25.15-21.53s-9.38-19.73-23.66-19.73c-4.09-.11-8.19.24-12.2,1.05v39.16Z"/><path id="Tracé_13096" class="cls-2" d="m408.23,57.16c.05,4.48-3.54,8.15-8.02,8.2-4.48.05-8.15-3.54-8.2-8.02v-.18c-.12-4.41,3.35-8.09,7.77-8.22.14,0,.27,0,.41,0,4.29-.14,7.89,3.22,8.04,7.52h0c0,.23,0,.47,0,.7m-14.58,20.32h13.08v72.37h-13.08v-72.37Z"/><path id="Tracé_13097" class="cls-2" d="m434.56,77.51l10.26,15.55c2.68,4.03,4.91,7.77,7.29,11.81h.45c2.39-4.37,4.76-8.07,7.14-11.95l10.12-15.4h14.14l-24.54,34.98,25.29,37.36h-14.87l-10.55-16.29c-2.82-4.19-5.21-8.22-7.73-12.56h-.33c-2.39,4.33-4.92,8.22-7.59,12.56l-10.41,16.29h-14.41l25.58-36.89-24.4-35.43,14.59-.03Z"/><path id="Tracé_13098" class="cls-2" d="m511.92,57.16c.05,4.48-3.54,8.15-8.02,8.2-4.48.05-8.15-3.54-8.2-8.02h0v-.18c-.12-4.41,3.35-8.09,7.77-8.22.14,0,.27,0,.41,0,4.3-.15,7.9,3.22,8.04,7.51h0c0,.24,0,.47,0,.71m-14.58,20.32h13.09v72.37h-13.09v-72.37Z"/><path id="Tracé_13099" class="cls-2" d="m597.3,113.09c0,26.76-18.44,38.42-35.85,38.42-19.5,0-34.51-14.35-34.51-37.23,0-24.21,15.77-38.41,35.7-38.41s34.66,15.1,34.66,37.22m-57.12.75c0,15.84,9.07,27.8,21.87,27.8s21.87-11.81,21.87-28.07c0-12.26-6.1-27.8-21.57-27.8s-22.17,14.3-22.17,28.06h.01Z"/><path class="cls-2" d="m130,70v-20H50v100h100v-80h-20Zm-49.68,61.03v-58.37l50.55,29.18-50.55,29.19Z"/><rect class="cls-2" x="143.89" y="38.39" width="20.22" height="20.22" transform="translate(16.31 -35.81) rotate(14)"/><polygon class="cls-1" points="130.87 101.84 80.32 72.66 80.32 131.03 130.87 101.84"/></g></svg>