<?xml version="1.0" encoding="UTF-8"?><svg id="Calque_2" xmlns="http://www.w3.org/2000/svg" viewBox="0 0 168.35 51.88"><defs><style>.cls-1{fill:none;}.cls-2{fill:#dd1513;}</style></defs><g id="Calque_1-2"><rect id="Rectangle_321-2" class="cls-1" width="168.35" height="51.88"/><rect id="Rectangle_1101" class="cls-2" x="36.98" y="9.81" width="5.49" height="5.49" transform="translate(17.65 47.88) rotate(-75.54)"/><path id="Tracé_527" class="cls-2" d="m34.04,18.15v-5.13H13.28v25.88h25.88v-20.75h-5.13Zm-4.59,10.26l-.07.04-.34.2-.13.08-.24.14-4.89,2.82-.24.13-2.8,1.62v-14.53l2.8,1.62.24.13,4.55,2.63.34.2.07.04.64.37,3.95,2.28-3.88,2.24Z"/><path id="Tracé_529" class="cls-2" d="m56.19,15.08c0,1.17-.95,2.11-2.11,2.11-1.16,0-2.11-.94-2.11-2.11-.03-1.15.88-2.1,2.02-2.13.04,0,.07,0,.11,0,1.12-.04,2.05.83,2.09,1.95,0,.06,0,.12,0,.18Zm-3.8,24.01v-18.74h3.41v18.74h-3.41Z"/><path id="Tracé_530" class="cls-2" d="m61.45,25.43c0-1.94-.04-3.52-.16-5.07h3.02l.19,3.1h.08c1.25-2.23,3.64-3.59,6.2-3.52,2.59,0,6.63,1.55,6.63,7.98v11.19h-3.41v-10.8c0-3.02-1.13-5.54-4.34-5.54-2.12.04-3.97,1.45-4.57,3.48-.16.51-.24,1.05-.23,1.59v11.27h-3.41v-13.67Z"/><path id="Tracé_531" class="cls-2" d="m83.06,13.31c2.14-.35,4.3-.52,6.46-.5,2.62-.2,5.23.57,7.32,2.17,1.53,1.39,2.37,3.39,2.28,5.46.1,2.05-.62,4.06-2.01,5.57-2.16,2-5.04,3.04-7.98,2.86-.91.03-1.82-.05-2.71-.23v10.45h-3.37V13.31Zm3.37,12.58c.91.21,1.85.3,2.79.27,4.07,0,6.54-1.97,6.54-5.58s-2.44-5.11-6.16-5.11c-1.07-.03-2.13.06-3.18.27v10.14Z"/><path id="Tracé_532" class="cls-2" d="m106.71,15.08c0,1.17-.95,2.11-2.11,2.11-1.16,0-2.11-.94-2.11-2.11-.03-1.15.88-2.1,2.02-2.13.04,0,.07,0,.11,0,1.12-.04,2.05.83,2.09,1.95,0,.06,0,.12,0,.18Zm-3.79,24.01v-18.74h3.41v18.74h-3.41Z"/><path id="Tracé_533" class="cls-2" d="m113.56,20.35l2.67,4.03c.7,1.05,1.28,2.01,1.9,3.06h.12c.62-1.13,1.24-2.09,1.86-3.1l2.63-3.99h3.68l-6.39,9.06,6.58,9.68h-3.87l-2.75-4.22c-.74-1.08-1.36-2.13-2.01-3.25h-.09c-.62,1.12-1.28,2.13-1.97,3.25l-2.71,4.22h-3.75l6.66-9.56-6.35-9.18h3.8Z"/><path id="Tracé_534" class="cls-2" d="m133.7,15.08c0,1.17-.95,2.11-2.11,2.11-1.16,0-2.11-.94-2.11-2.11-.03-1.15.88-2.1,2.02-2.13.04,0,.07,0,.11,0,1.12-.04,2.05.83,2.09,1.95,0,.06,0,.12,0,.18Zm-3.8,24.01v-18.74h3.41v18.74h-3.41Z"/><path id="Tracé_535" class="cls-2" d="m155.92,29.57c0,6.93-4.8,9.95-9.33,9.95-5.07,0-8.98-3.72-8.98-9.64,0-6.27,4.11-9.95,9.29-9.95s9.02,3.91,9.02,9.64Zm-14.87.19c0,4.1,2.36,7.2,5.69,7.2s5.69-3.06,5.69-7.27c0-3.18-1.59-7.2-5.62-7.2s-5.77,3.71-5.77,7.27h0Z"/></g></svg>