<svg xmlns="http://www.w3.org/2000/svg" viewBox="0 0 72.7 90.29"><defs><style>.cls-1{fill:#324b58;}.cls-2{fill:#fff;}.cls-3{fill:#b6dffc;}.cls-4{fill:#ff7c96;}</style></defs><title>Holidays-09</title><g id="Calque_2" data-name="Calque 2"><g id="Planche_Vacance_-_11" data-name="Planche Vacance - 11"><path class="cls-1" d="M39.18,41.5a7.6,7.6,0,0,1-4.88,2.06,61.13,61.13,0,0,0,7.44.81v2.49h1.77V44.35a64.22,64.22,0,0,0,6.8-.79,6.56,6.56,0,0,1-3.41-1,79.53,79.53,0,0,0,9.25.94v3.63h2.59V43.48a94,94,0,0,0,9.95-1.16c-4,.1-7.14-3-7.14-3,5.64,2.8,10.64-1,10.64-1-6.72.81-10.07-6.64-10.07-6.64a6.25,6.25,0,0,0,6.71,0A8.53,8.53,0,0,1,61,25.48,10,10,0,0,0,67,28.19C61.62,23.37,57.69,12.24,57,7.93c-.72,4.31-4.65,15.44-10.07,20.26A10,10,0,0,0,53,25.48a8.44,8.44,0,0,1-6,5.86A33.36,33.36,0,0,1,42.31,20c-.49,2.95-3.18,10.56-6.89,13.86A6.75,6.75,0,0,0,39.57,32a5.84,5.84,0,0,1-5.37,4.24,4.25,4.25,0,0,0,4.58,0c-.13.28-2.33,4.82-6.57,4.54,0,.06,0,.11,0,.17A7.2,7.2,0,0,0,39.18,41.5Zm7.21.76a7,7,0,0,1-1-.76,6.61,6.61,0,0,0,1.82.61A5.94,5.94,0,0,1,46.39,42.26Zm.11-4.81a8.48,8.48,0,0,1-.67-1.17,4.85,4.85,0,0,0,1.65.59A8.71,8.71,0,0,1,46.5,37.45Zm4.14,3.22a5.28,5.28,0,0,1-1.13-.43,9.92,9.92,0,0,0,2.9-.92A11.45,11.45,0,0,1,50.64,40.67Zm-1.45-6.78A12.45,12.45,0,0,1,48,32.61a6.6,6.6,0,0,0,3.86-.94,14.49,14.49,0,0,1-3.15,4.24A5.78,5.78,0,0,1,45,32,6.75,6.75,0,0,0,49.19,33.89Z"/><path class="cls-2" d="M28.25,29.29c-.65-.93-2.57-.52-3.39.15,2.78,2.55,3.52,3.36,3.79,5.77.32,2.9,1.07,5-2.45,4.47a2.87,2.87,0,0,0-1.82.31C23,40.74,23,38.51,23,37.42a14.58,14.58,0,0,0-1.25-6.3A1.58,1.58,0,0,0,19.88,30,29.29,29.29,0,0,1,7.11,28.61a1,1,0,0,0-1.39.5A14,14,0,0,0,3.1,36.25a13.83,13.83,0,0,0,3.26,10c2.06.65,4.19,1.24,6.41,1.77A1,1,0,0,1,13.36,47c.49-.14,1,.3,1.24,1a1.46,1.46,0,0,1,.06.5q3.9.84,8.07,1.43a13.89,13.89,0,0,0,5.52-20.62ZM10.3,33.78c.25-.6.8-.94,1.24-.76a1.07,1.07,0,0,1,.33,1.42c-.26.6-.81.94-1.24.76A1.06,1.06,0,0,1,10.3,33.78ZM9,39.36a1.05,1.05,0,0,1,.67-1.29c.46-.07.92.4,1,1s-.2,1.22-.67,1.29S9.12,40,9,39.36Zm2.59,6c-.44.17-1-.19-1.21-.8s-.07-1.24.37-1.4,1,.19,1.22.8A1,1,0,0,1,11.62,45.41Z"/><path class="cls-2" d="M24,15.56A20.28,20.28,0,0,0,12.3,11.88a1.92,1.92,0,0,0-1.59.73,8.49,8.49,0,0,0-1.49,9.06,3.22,3.22,0,0,0,2.83,2.2c1.59.19,3.17.32,5.16.44,1-.09,2.48-.15,3.9-.38,2.74-.42,3.52-1.23,4-4a13.41,13.41,0,0,0,.19-2A2.71,2.71,0,0,0,24,15.56ZM18.18,13.9a1,1,0,0,1,1.1,1A1.07,1.07,0,0,1,18.2,16,1,1,0,0,1,17.12,15,1,1,0,0,1,18.18,13.9Zm-4.52-.48a1,1,0,0,1,1,1.06c-.06.73-.44,1.11-1.1,1.09a1,1,0,0,1-1.05-1.1A1,1,0,0,1,13.66,13.42ZM10,17.77c-.28-.08-.67-.09-.65-.52s.37-.45.66-.49c1.68-.21,3.35-.43,5-.63,1-.13,1.32.52,1.42,1.25,0,1.23-.64,1.83-1.71,1.58C13.19,18.59,11.61,18.18,10,17.77ZM21.36,20a5.86,5.86,0,0,1-3.29,2.57A5.68,5.68,0,0,1,14,22.33c-.45-.2-.82-.49-.61-1s.63-.59,1.14-.41a4.27,4.27,0,0,0,5.58-1.8c.29-.44.65-.7,1.14-.4S21.63,19.53,21.36,20Z"/><path class="cls-1" d="M16.47,0c-.84,0-1.14.5-1.34,1.21-.5,1.83-1.06,3.65-1.59,5.47-.09.4-.24.83.51,1a48.51,48.51,0,0,1,11.34,4.1c.8.41.93-.1,1.14-.53.67-1.65,1.27-3.35,2.06-5a1.8,1.8,0,0,0-.5-2.4C24.84.69,20.84-.15,16.47,0Z"/><path class="cls-1" d="M32.45,35a17.86,17.86,0,0,0-4.55-9.38c-1.4-1.63-2.2-2.62-1.21-4.72.49-1,.72-1.65,2-1.66s2-.12,2.17-1.06-.47-1.55-1-2.15a15,15,0,0,0-4.09-3A44.88,44.88,0,0,0,10.52,8.18a9.48,9.48,0,0,0-4.27.15c-1.31.44-1.56,1.2-.8,2.35a6.62,6.62,0,0,0,1.88,1.81c.53.35.76.64.42,1.34a9.73,9.73,0,0,0,.07,9c.22.45.4.8-.19,1.12-2.46,1.34-3.17,3.48-4.46,5.67A15.41,15.41,0,0,0,1.48,40.14a15.68,15.68,0,0,0,2,5.18c.57.21,1.15.4,1.73.6l1.18.37a13.83,13.83,0,0,1-3.26-10,14,14,0,0,1,2.62-7.14,1,1,0,0,1,1.39-.5A29.29,29.29,0,0,0,19.88,30a1.58,1.58,0,0,1,1.87,1.1A14.58,14.58,0,0,1,23,37.42c0,1.09,0,3.32,1.38,2.57a2.87,2.87,0,0,1,1.82-.31c3.52.55,2.77-1.57,2.45-4.47-.27-2.41-1-3.22-3.79-5.77.82-.67,2.74-1.08,3.39-.15a13.89,13.89,0,0,1-5.52,20.62l1.17.16,1.84.21a15.61,15.61,0,0,0,5.31-6.17A15.34,15.34,0,0,0,32.17,41l-.27-.18.31,0A17,17,0,0,0,32.45,35Zm-11.34-11c-1.42.23-2.86.29-3.9.38-2-.12-3.57-.25-5.16-.44a3.22,3.22,0,0,1-2.83-2.2,8.49,8.49,0,0,1,1.49-9.06,1.92,1.92,0,0,1,1.59-.73A20.28,20.28,0,0,1,24,15.56,2.71,2.71,0,0,1,25.32,18a13.41,13.41,0,0,1-.19,2C24.63,22.7,23.85,23.51,21.11,23.93Z"/><path class="cls-1" d="M21.24,18.66c-.49-.3-.85,0-1.14.41a4.28,4.28,0,0,1-5.59,1.8c-.5-.19-.93-.14-1.13.4s.16.85.61,1.06a5.79,5.79,0,0,0,4.08.24A5.87,5.87,0,0,0,21.36,20C21.63,19.53,21.84,19,21.24,18.66Z"/><path class="cls-1" d="M16.49,17.38c-.1-.73-.39-1.38-1.43-1.26l-5,.64c-.3,0-.64.1-.66.49s.37.44.64.51c1.59.41,3.17.83,4.76,1.2C15.85,19.21,16.53,18.61,16.49,17.38Z"/><path class="cls-1" d="M18.2,16a1.07,1.07,0,0,0,1.08-1.1,1,1,0,0,0-1.1-1A1,1,0,0,0,17.12,15,1,1,0,0,0,18.2,16Z"/><path class="cls-1" d="M13.59,15.56c.66,0,1-.35,1.1-1.08a1.08,1.08,0,1,0-1.1,1.08Z"/><path class="cls-1" d="M10.63,35.2c.43.18,1-.16,1.24-.76A1.06,1.06,0,0,0,11.54,33c-.44-.18-1,.16-1.24.76A1.06,1.06,0,0,0,10.63,35.2Z"/><path class="cls-1" d="M10.71,39.11c-.1-.65-.55-1.11-1-1s-.77.64-.67,1.29.55,1.11,1,1A1.05,1.05,0,0,0,10.71,39.11Z"/><path class="cls-1" d="M10.78,43.2a1.06,1.06,0,0,0-.37,1.41c.23.61.77,1,1.21.8A1.07,1.07,0,0,0,12,44C11.76,43.39,11.22,43,10.78,43.2Z"/><path class="cls-1" d="M13.36,47a1,1,0,0,0-.59,1l1.89.43a1.75,1.75,0,0,0-.06-.5C14.4,47.3,13.85,46.87,13.36,47Z"/><path class="cls-3" d="M44.8,3.72a6.69,6.69,0,1,0,6.69,6.69A6.7,6.7,0,0,0,44.8,3.72Z"/><path class="cls-4" d="M5.14,50.08c1.41.43,2.16.63,3.69,1V55.6l-.93-.15V71.6l.93-.15v4.49c-1.53.39-2.28.59-3.69,1V72.11L6,71.94V65.19l-3.64.16v7.34l.82-.18v5.08c-1.34.46-2,.7-3.19,1.21V73.28l.74-.19V54L0,53.82V48.29c1.21.49,1.85.73,3.19,1.18v5.1l-.82-.18v6c1.38.11,2.11.16,3.64.25V55.12L5.14,55Z"/><path class="cls-4" d="M14.5,75.12A2,2,0,0,1,13.23,75a3.32,3.32,0,0,1-1.11-1,7,7,0,0,1-.92-1.74,14.47,14.47,0,0,1-.7-2.41,26.13,26.13,0,0,1-.44-2.94,35.15,35.15,0,0,1,0-6.7,26.51,26.51,0,0,1,.44-3,15.05,15.05,0,0,1,.7-2.41,7.42,7.42,0,0,1,.92-1.74,3.32,3.32,0,0,1,1.11-1,2,2,0,0,1,1.27-.18,3,3,0,0,1,1.3.64A6.39,6.39,0,0,1,17,53.83a10.36,10.36,0,0,1,1,1.85,17.21,17.21,0,0,1,.78,2.3,20.09,20.09,0,0,1,.51,2.63,24.54,24.54,0,0,1,.17,2.89,24.2,24.2,0,0,1-.17,2.87A20.58,20.58,0,0,1,18.75,69,17.06,17.06,0,0,1,18,71.3a10.83,10.83,0,0,1-1,1.86,7,7,0,0,1-1.17,1.32A3,3,0,0,1,14.5,75.12Zm0-4.65a1.54,1.54,0,0,0,1-.66,5.29,5.29,0,0,0,.83-1.54,12,12,0,0,0,.54-2.18,16.52,16.52,0,0,0,.19-2.59,16.69,16.69,0,0,0-.19-2.61,11.74,11.74,0,0,0-.55-2.18,5.36,5.36,0,0,0-.83-1.55,1.56,1.56,0,0,0-1-.65,1.14,1.14,0,0,0-1,.44,4.29,4.29,0,0,0-.79,1.47,12.17,12.17,0,0,0-.51,2.27A19.34,19.34,0,0,0,12,63.51a18.92,18.92,0,0,0,.19,2.79,11.87,11.87,0,0,0,.51,2.26A4.2,4.2,0,0,0,13.48,70,1.14,1.14,0,0,0,14.5,70.47Z"/><path class="cls-4" d="M20.82,53.24c1.82.22,2.76.32,4.66.48v3.54l-1.17-.06V69.8l2.42-.13a.29.29,0,0,0,.19-.11.77.77,0,0,0,.16-.25A2,2,0,0,0,27.2,69a1.37,1.37,0,0,0,0-.34V66.05l2.43,0v7c-3.66.2-5.45.36-8.85.78v-3.7L21.93,70V57L20.82,57Z"/><path class="cls-4" d="M30.69,54.06c2,.09,3,.12,5,.14v3.36l-1.25,0V69.43H35.7v3.36c-2,0-3,0-5,.14V69.51l1.2,0v-12l-1.2,0Z"/><path class="cls-4" d="M36.73,54.2c1.83,0,2.72,0,4.49-.05a3.58,3.58,0,0,1,1.52.29,4.54,4.54,0,0,1,1.34.89,6.82,6.82,0,0,1,1.12,1.42,9.65,9.65,0,0,1,.85,1.89,13.47,13.47,0,0,1,.55,2.27,17.27,17.27,0,0,1,0,5.11,14.08,14.08,0,0,1-.55,2.28,10,10,0,0,1-.85,1.9,6.71,6.71,0,0,1-1.12,1.44,4.78,4.78,0,0,1-1.34.9,3.57,3.57,0,0,1-1.52.28c-1.77,0-2.66-.06-4.49,0V69.41h1V57.57h-1Zm3.51,3.35V69.43l1,0A1.74,1.74,0,0,0,42.37,69a3.86,3.86,0,0,0,1-1.26A8.55,8.55,0,0,0,44,65.83a11.76,11.76,0,0,0,.23-2.37A11.63,11.63,0,0,0,44,61.11a8.37,8.37,0,0,0-.63-1.89,3.92,3.92,0,0,0-1-1.25,1.76,1.76,0,0,0-1.16-.43Z"/><path class="cls-4" d="M53.61,70l1,.09c-.19-1.21-.28-1.81-.47-3L50.92,67c-.19,1.14-.29,1.7-.49,2.83l1.14.07V73.5c-1.62-.17-2.45-.24-4.13-.37V69.65l.82,0c1.2-6.3,1.79-9.52,3-16.17,1.14-.11,1.7-.18,2.81-.31,1.11,6.6,1.66,10,2.74,17.1l.73.07v3.9c-1.52-.24-2.3-.35-3.89-.55Zm-2.13-6.4h2.14c-.43-2.66-.64-4-1.07-6.58C52.12,59.71,51.91,61,51.48,63.63Z"/><path class="cls-4" d="M57,52.8c1.73-.26,2.58-.4,4.22-.72v4.15l-.81.09c.52,2,.77,3,1.28,5.14.54-2.14.81-3.23,1.33-5.46l-.89.11V51.9c1.61-.32,2.4-.5,3.9-.87v4.53l-.65.1c-1.06,4.14-1.61,6.1-2.72,9.84V71l1.13.16v4.32c-1.64-.37-2.49-.54-4.23-.85v-4l1.07.13V65.37C59.52,61.71,59,60,57.85,56.6l-.88.08Z"/><path class="cls-4" d="M70.88,57.46a8.67,8.67,0,0,0-.13-1.19,5.16,5.16,0,0,0-.26-.92,1.81,1.81,0,0,0-.36-.58.47.47,0,0,0-.43-.14.73.73,0,0,0-.38.21,1.38,1.38,0,0,0-.31.49,3.89,3.89,0,0,0-.22.78,7,7,0,0,0-.08,1.1,5.61,5.61,0,0,0,.11,1.23,2.74,2.74,0,0,0,.27.74,1.37,1.37,0,0,0,.37.44,4.27,4.27,0,0,1,.38.36c.59.62.87.93,1.44,1.59a3.88,3.88,0,0,1,.54,1,8.86,8.86,0,0,1,.43,1.6,21.6,21.6,0,0,1,.29,2.2c.07.83.1,1.77.1,2.8a33.32,33.32,0,0,1-.2,3.8,14.81,14.81,0,0,1-.56,2.8,3.74,3.74,0,0,1-.9,1.59,1.13,1.13,0,0,1-1.18.26,2.1,2.1,0,0,1-.89-.62,5.07,5.07,0,0,1-.77-1.2,10.41,10.41,0,0,1-.63-1.67,14.39,14.39,0,0,1-.42-2.06L66.5,72V67l2,.16V68.2a13.07,13.07,0,0,0,.08,1.45,8.31,8.31,0,0,0,.24,1.19,2.79,2.79,0,0,0,.4.83.91.91,0,0,0,.55.38c.32.07.56-.13.72-.61a8.24,8.24,0,0,0,.16-3.23,4.24,4.24,0,0,0-.22-.81,2.47,2.47,0,0,0-.31-.56q-.16-.23-.33-.42c-.49-.56-.73-.83-1.24-1.37a4.19,4.19,0,0,1-.69-1,7.4,7.4,0,0,1-.6-1.53,13.24,13.24,0,0,1-.42-2.12,20.48,20.48,0,0,1-.16-2.75,21.35,21.35,0,0,1,.23-3.26,12.84,12.84,0,0,1,.63-2.55,6.66,6.66,0,0,1,1-1.77,2.61,2.61,0,0,1,1.18-.89,1.07,1.07,0,0,1,.91.09,2.38,2.38,0,0,1,.73.82,5.94,5.94,0,0,1,.53,1.38,12.33,12.33,0,0,1,.34,1.73l.49-.13v5.79l-1.82.19Z"/><polygon class="cls-4" points="10.51 85.4 11.21 86.82 12.77 87.05 11.64 88.15 11.91 89.71 10.51 88.97 9.1 89.71 9.37 88.15 8.24 87.05 9.8 86.82 10.51 85.4"/><polygon class="cls-4" points="62.19 85.4 62.9 86.82 64.46 87.05 63.33 88.15 63.59 89.71 62.19 88.97 60.79 89.71 61.06 88.15 59.93 87.05 61.49 86.82 62.19 85.4"/><path class="cls-2" d="M18.91,85.53h1.55v.54H20v3.68h.46v.54H18.91v-.54h.48V88H16.63v1.71h.48v.54H15.56v-.54H16V86.07h-.45v-.54h1.55v.54h-.48v1.44h2.76V86.07h-.48Z"/><path class="cls-2" d="M24.18,89.75h.39l-.38-1.08H22.36L22,89.75h.49v.54H20.94v-.54h.41l1.49-4.22h.92l1.48,4.22h.48v.54H24.18Zm-1.64-1.6H24L23.27,86Z"/><path class="cls-2" d="M26.2,85.53h1.93a1.83,1.83,0,0,1,.59.08,1.41,1.41,0,0,1,.47.25,1,1,0,0,1,.3.4,1.4,1.4,0,0,1,.11.56,1.21,1.21,0,0,1-.11.49,1.17,1.17,0,0,1-.3.4,1.37,1.37,0,0,1-.47.28,1.89,1.89,0,0,1-.6.1h-.85v1.66h.48v.54H26.2v-.54h.46V86.07H26.2Zm1.07.54v1.5h.86a1.14,1.14,0,0,0,.33,0,.72.72,0,0,0,.26-.14.61.61,0,0,0,.17-.24.79.79,0,0,0,.06-.32.71.71,0,0,0-.21-.55,1,1,0,0,0-.69-.2Z"/><path class="cls-2" d="M30.21,85.53h1.92a1.83,1.83,0,0,1,.59.08,1.41,1.41,0,0,1,.47.25,1,1,0,0,1,.3.4,1.25,1.25,0,0,1,.11.56,1.06,1.06,0,0,1-.11.49,1.17,1.17,0,0,1-.3.4,1.42,1.42,0,0,1-.46.28,2,2,0,0,1-.61.1h-.85v1.66h.48v.54H30.21v-.54h.45V86.07h-.45Zm1.06.54v1.5h.86a1.14,1.14,0,0,0,.33,0,.72.72,0,0,0,.26-.14.61.61,0,0,0,.17-.24.79.79,0,0,0,.06-.32.71.71,0,0,0-.21-.55,1,1,0,0,0-.69-.2Z"/><path class="cls-2" d="M33.92,85.53h1.54v.54H35l.9,1.53,1-1.53h-.5v-.54h1.55v.54h-.41l-1.34,2v1.65h.49v.54H35.11v-.54h.44V88.09l-1.26-2h-.37Z"/><path class="cls-2" d="M40.85,89.75h.44V86H40.2v.75h-.65V85.53H43.8v1.26h-.64V86H41.9v3.71h.49v.54H40.85Z"/><path class="cls-2" d="M44.38,85.53H45.9v.54h-.45v3.68h.45v.54H44.38v-.54h.46V86.07h-.46Z"/><path class="cls-2" d="M46.8,89.75h.46V86.13H46.8v-.6h1.51l1.52,4.11,1.53-4.11h1.43v.6h-.45v3.62h.45v.54H51.24v-.54h.51V86.09l-1.67,4.2h-.53l-1.69-4.21v3.67h.49v.54H46.8Z"/><path class="cls-2" d="M53.69,85.53H57.1v1.35h-.64v-.81h-1.7V87.6h1.43v.54H54.76v1.61h1.7V89h.64v1.34H53.69v-.54h.45V86.07h-.45Z"/></g></g></svg>