<svg xmlns="http://www.w3.org/2000/svg" viewBox="0 0 72.7 91.18"><defs><style>.cls-1{fill:#b6dffc;}.cls-2{fill:#324b58;}.cls-4{fill:#ff7c96;}.cls-6{fill:#fff;}</style></defs><title>Holidays-14</title><g id="Calque_2" data-name="Calque 2"><g id="Planche_Vacance_-_18" data-name="Planche Vacance - 18"><path class="cls-1" d="M38,37.31a20.44,20.44,0,0,1-6.46,2h0l-.69.09-.63.05c-.22,0-.45,0-.67,0s-.6,0-.9,0c-.46,0-.91,0-1.36,0a30.84,30.84,0,0,1-2.61-7.22l-7.74,1.07h0L16.48,33l8-1.06-.15-.19a.32.32,0,0,1-.06-.2l-7.59,1-.52-.49c-.25,0-.41.55-.22.89l1.43,1.31c.36.92.71,1.77,1.08,2.56a20.18,20.18,0,0,1-5.67-4.71,6.53,6.53,0,0,0,1.83-.58,29.45,29.45,0,0,0,5.72-4.51s-.38-.39-.54-2.14c0-.14,0-.29,0-.45s0-.31,0-.48,0-.3,0-.46c.05-.39.11-.82.19-1.29,0-.17.06-.35.1-.53s.09-.45.14-.68.08-.39.13-.59c.45-2,1.11-4.23,1.72-6.2.06-.2.13-.4.19-.59.19-.62.39-1.21.56-1.74.1-.29.2-.57.28-.83l.5-1.46.17-.48a1,1,0,0,1,0-.1c-.35,1.28-3.16,11.67-3.68,15.8a5.37,5.37,0,0,0,.8,1.92S28.58,25.18,31,24c.14-.07.29-.14.44-.23a.36.36,0,0,0,0,.32Z"/><path class="cls-1" d="M45.68,8.89c-6.34-1.34-19.53,0-21.22-.28h-.12l-.1,0a4.1,4.1,0,0,0-.19-.46c-.22-.45-.49-.78-.59-.73s0,.47.21.92a2.87,2.87,0,0,0,.25.43l0,0v0l0,.06s0,0,0,0h0v0c-.89,1.55-11.39,12-14.27,17.84a19,19,0,0,1-1.33-7C8.22,8.85,17.36,0,28.64,0A20.55,20.55,0,0,1,45.68,8.89Z"/><path class="cls-1" d="M49.05,19.76A19.63,19.63,0,0,1,38.65,37l-6.58-13.2a.34.34,0,0,0-.31-.2,49.39,49.39,0,0,0,5.87-4.75,3.19,3.19,0,0,0-.39-1.11C35.3,14.77,28,10.57,25.38,9.1c2.73,1.42,10.51,5.66,12.24,8.42a4.41,4.41,0,0,1,.42.88,37.84,37.84,0,0,0,7.49-2,10.52,10.52,0,0,0,2.72-2.07A19,19,0,0,1,49.05,19.76Z"/><path class="cls-2" d="M16.89,48.48l0,0,.56-.4.63.1,5.72-4.66-.89-.08-6.28,4.9c-.22.3.08.83.34.75l.22-.18,7.34,1.94a.77.77,0,0,1,.09-.47Zm16.33-7,1.13-1.37c.18-.25,0-.61-.21-.55l-1.26,1.48-.22-.28a7.05,7.05,0,0,0,.91-1.06l-1.73,0-.3-.4h0l-1.85-2.44-.22-1c-.24-.25-.67.14-.67.59l.75,3.07c.22,0,.45,0,.67,0L30,38.3l.87,1.1,4.8,6c.14.16.5.11.5-.11Zm-3.83-5c-.05,0-.09-.08-.09-.18s0-.17.09-.17.1.08.1.17S29.44,36.49,29.39,36.49Zm3.74,5.43c-.06,0-.1-.08-.1-.18s0-.17.1-.17.09.08.09.17S33.18,41.92,33.13,41.92Zm-8.2-11.27c-.25,0-.49.48-.35.86l3.94,5a.84.84,0,0,1,.29-.74ZM30.43,44,25,50.39a1,1,0,0,0,.1,1l5.53-6.72Zm-1.8,0-.76-.08.85.74c.23.09.45-.05.45-.18Z"/><path class="cls-2" d="M31.21,44l3.12.21L34,43.9l-2.63-.2,1.32-1.6-.36-.42L31,43.29l-.33-1.59a2.71,2.71,0,0,0,1.39-.44L30.79,39.7h-.53l-.05-.24c-.22,0-.45,0-.67,0l.62,2.57a3.48,3.48,0,0,1-2.44-1.86v0a5.21,5.21,0,0,0,2.1,1.43l-.45-1.89-2,0a2,2,0,0,1-.11-.2,30.84,30.84,0,0,1-2.61-7.22l-7.74,1.07h0L16.48,33l8-1.06-.15-.19a.32.32,0,0,1-.06-.2l-7.59,1-.52-.49c-.25,0-.41.55-.22.89l1.43,1.31c.36.92.71,1.77,1.08,2.56a9.83,9.83,0,0,0,2.52,3.61L21.77,44l.42-.3-.07-.36-.44,0,0-.21h0l8.69.84-.05-.23-2.13-.19-1.36-1.27a27.56,27.56,0,0,0,3.34-.19l.73,3c.17.1.38,0,.43-.24L31.15,44ZM22,43l-.41-2a7.92,7.92,0,0,0,3,1.08l-1.32,1Zm5.37.47-3.22-.28,1.23-1,.62,0Z"/><path class="cls-2" d="M46.08,43.94l-.54.48c0,.13.23.27.45.18l.85-.74Zm3.65,6.45L44.28,44l-.18.71,5.53,6.72A1,1,0,0,0,49.73,50.39Zm.05-19.74L45.9,35.74a.84.84,0,0,1,.29.74l4-5C50.27,31.13,50,30.6,49.78,30.65ZM58.1,48.32l-6.28-4.9-.89.08,5.72,4.66.63-.1.56.4,0,0-7.71,1.88a.85.85,0,0,1,.1.47l7.33-1.94.22.18C58,49.15,58.33,48.62,58.1,48.32Z"/><path class="cls-2" d="M58.6,32.09l-.52.49-7.59-1a.27.27,0,0,1-.06.2l-.14.19L58.23,33l-.45.32h0L50,32.24a29.57,29.57,0,0,1-2.72,7.42l-2,0-.45,1.89A5.21,5.21,0,0,0,47,40.15a.06.06,0,0,1,0,0,3.48,3.48,0,0,1-2.44,1.86l1.38-5.64c0-.45-.44-.84-.68-.59l-.21,1-2.17,2.84-1.72,0a6.49,6.49,0,0,0,.9,1.06l-.22.28-1.26-1.48c-.2-.06-.38.3-.21.55l1.13,1.37-.35.46-2.49-5-6.58-13.2a.34.34,0,0,0-.31-.2,49.39,49.39,0,0,0,5.87-4.75,3.19,3.19,0,0,0-.39-1.11C35.3,14.77,28,10.57,25.38,9.1L25.13,9l-.22-.12s0,0,0,0l-.33-.18-.09-.05h-.12l-.1,0a4.1,4.1,0,0,0-.19-.46c-.22-.45-.49-.78-.59-.73s0,.47.21.92a2.87,2.87,0,0,0,.25.43l0,0v0l0,.06s0,0,0,0h0v0a.62.62,0,0,0,0,.1c-.35,1.28-3.16,11.67-3.68,15.8a5.37,5.37,0,0,0,.8,1.92S28.58,25.18,31,24c.14-.07.29-.14.44-.23a.36.36,0,0,0,0,.32L38,37.31l2.65,5.31-2.07,2.71c0,.22.35.27.49.11l1.83-2.31.36.72-.59,0-.28.26,1-.07,3.37,6.76a.36.36,0,0,0,.65-.33L42.17,44,43.5,44l.06.07-.17.82c0,.27.26.34.42.24l.74-3a27.3,27.3,0,0,0,3.33.19l-1.36,1.27-2.13.19,0,.23L53,43.1h0l0,.21-.44,0-.08.36.42.3.85-3.54c1.68-1.39,2.56-3.54,3.61-6.17L58.82,33C59,32.64,58.85,32.07,58.6,32.09Zm-13.28,4s.1.08.1.17-.05.18-.1.18-.1-.08-.1-.18S45.27,36.14,45.32,36.14Zm-3.74,5.43c.06,0,.1.08.1.17s0,.18-.1.18-.09-.08-.09-.18S41.53,41.57,41.58,41.57Zm2.87-1.88h-.53l-1.27,1.56A2.71,2.71,0,0,0,44,41.7l-.33,1.59-1.37-1.61L42,42.1l1.32,1.6-1.25.1-.65-1.3,3.34-4.2Zm2.85,3.76,1.37-1.23.62,0,1.23,1ZM52.67,43l-1.27.11-1.32-1a8,8,0,0,0,3-1.08Z"/><path class="cls-2" d="M49.84,12.41a16.43,16.43,0,0,1-1.59,1.88,10.52,10.52,0,0,1-2.72,2.07,37.84,37.84,0,0,1-7.49,2,4.41,4.41,0,0,0-.42-.88c-1.73-2.76-9.51-7-12.24-8.42L25.13,9l-.22-.12s0,0,0,0l-.33-.18-.09-.05c1.69.26,14.88-1.06,21.22.28,1.55.32,2.69.81,3.15,1.51C49.12,10.83,49.84,12.41,49.84,12.41Z"/><path class="cls-2" d="M23.82,8.93a.62.62,0,0,0,0,.1,1,1,0,0,0,0,.1c-.05.12-.1.28-.17.48l-.5,1.46-.28.83c-.17.53-.37,1.12-.56,1.74-.06.19-.13.39-.19.59-.61,2-1.27,4.21-1.72,6.2,0,.2-.09.4-.13.59s-.1.46-.14.68-.07.36-.1.53c-.08.47-.14.9-.19,1.29,0,.16,0,.31,0,.46s0,.33,0,.48,0,.31,0,.45c.16,1.75.54,2.14.54,2.14a29.45,29.45,0,0,1-5.72,4.51,6.53,6.53,0,0,1-1.83.58A6.24,6.24,0,0,1,10,32s-.93-1.75-1.1-2.24a4.4,4.4,0,0,1,.64-3C12.43,20.88,22.93,10.48,23.82,8.93Z"/><path class="cls-4" d="M5.14,50.79c1.41.42,2.16.62,3.69,1V56.3l-.93-.15V72.31l.93-.16v4.49c-1.53.39-2.28.59-3.69,1V72.81L6,72.64V65.89l-3.64.16V73.4l.82-.19V78.3c-1.34.46-2,.7-3.19,1.2V74l.74-.19V54.71L0,54.52V49c1.21.49,1.85.73,3.19,1.18v5.1l-.82-.18v6c1.38.11,2.11.16,3.64.25V55.82l-.87-.16Z"/><path class="cls-4" d="M14.5,75.82a1.92,1.92,0,0,1-1.27-.17,3.29,3.29,0,0,1-1.11-1,7.3,7.3,0,0,1-.92-1.75,14.62,14.62,0,0,1-.7-2.4,26.67,26.67,0,0,1-.44-3,35.15,35.15,0,0,1,0-6.7,26.86,26.86,0,0,1,.44-3,15.05,15.05,0,0,1,.7-2.41,7.42,7.42,0,0,1,.92-1.74,3.32,3.32,0,0,1,1.11-1,1.92,1.92,0,0,1,1.27-.17,2.88,2.88,0,0,1,1.3.64A6.59,6.59,0,0,1,17,54.53a10.47,10.47,0,0,1,1,1.86,16.59,16.59,0,0,1,.78,2.29,20.09,20.09,0,0,1,.51,2.63,24.54,24.54,0,0,1,.17,2.89,24.49,24.49,0,0,1-.17,2.88,20.42,20.42,0,0,1-.51,2.63A16.59,16.59,0,0,1,18,72a10.83,10.83,0,0,1-1,1.86,6.39,6.39,0,0,1-1.17,1.32A2.88,2.88,0,0,1,14.5,75.82Zm0-4.64a1.59,1.59,0,0,0,1-.67A5.29,5.29,0,0,0,16.37,69a12,12,0,0,0,.54-2.18,16.52,16.52,0,0,0,.19-2.59,16.78,16.78,0,0,0-.19-2.61,11.74,11.74,0,0,0-.55-2.18,5.16,5.16,0,0,0-.83-1.54,1.54,1.54,0,0,0-1-.66,1.17,1.17,0,0,0-1,.44,4.29,4.29,0,0,0-.79,1.47,12.17,12.17,0,0,0-.51,2.27A19.34,19.34,0,0,0,12,64.21,18.92,18.92,0,0,0,12.18,67a12,12,0,0,0,.51,2.27,4.23,4.23,0,0,0,.79,1.46A1.18,1.18,0,0,0,14.5,71.18Z"/><path class="cls-4" d="M20.82,53.94c1.82.22,2.76.32,4.66.48V58l-1.17-.06V70.5l2.42-.13a.26.26,0,0,0,.19-.11.77.77,0,0,0,.16-.25,2,2,0,0,0,.12-.34,1.37,1.37,0,0,0,0-.34V66.75l2.43,0v7c-3.66.2-5.45.36-8.85.78v-3.7l1.11-.09V57.74l-1.11-.08Z"/><path class="cls-4" d="M30.69,54.76c2,.09,3,.12,5,.14v3.36l-1.25,0V70.13H35.7v3.36c-2,0-3,0-5,.14V70.21l1.2,0v-12l-1.2,0Z"/><path class="cls-4" d="M36.73,54.91c1.83,0,2.72,0,4.49-.06a3.58,3.58,0,0,1,1.52.29,4.74,4.74,0,0,1,1.34.89,7.1,7.1,0,0,1,1.12,1.42,9.65,9.65,0,0,1,.85,1.89,13.71,13.71,0,0,1,.55,2.27,17.27,17.27,0,0,1,0,5.11A13.83,13.83,0,0,1,46.05,69a10,10,0,0,1-.85,1.9,6.71,6.71,0,0,1-1.12,1.44,4.58,4.58,0,0,1-1.34.9,3.57,3.57,0,0,1-1.52.28c-1.77,0-2.66-.06-4.49,0V70.11h1V58.27h-1Zm3.51,3.35V70.13l1,0a1.69,1.69,0,0,0,1.16-.45,3.86,3.86,0,0,0,1-1.26,8.64,8.64,0,0,0,.63-1.9,11.94,11.94,0,0,0,.23-2.38A11.71,11.71,0,0,0,44,61.81a8.37,8.37,0,0,0-.63-1.89,3.77,3.77,0,0,0-1-1.24,1.72,1.72,0,0,0-1.16-.44Z"/><path class="cls-4" d="M53.61,70.73l1,.09c-.19-1.21-.28-1.81-.47-3l-3.26-.14c-.19,1.14-.29,1.71-.49,2.83l1.14.08V74.2C50,74,49.12,74,47.44,73.83V70.35l.82,0c1.2-6.3,1.79-9.51,3-16.17,1.14-.11,1.7-.18,2.81-.31,1.11,6.6,1.66,10,2.74,17.1l.73.08V75c-1.52-.24-2.3-.35-3.89-.54Zm-2.13-6.4h2.14c-.43-2.66-.64-4-1.07-6.58C52.12,60.41,51.91,61.73,51.48,64.33Z"/><path class="cls-4" d="M57,53.5c1.73-.26,2.58-.4,4.22-.72v4.15l-.81.09c.52,2,.77,3,1.28,5.14.54-2.14.81-3.23,1.33-5.46l-.89.11V52.6c1.61-.32,2.4-.5,3.9-.87v4.53l-.65.1c-1.06,4.14-1.61,6.1-2.72,9.84v5.49l1.13.16v4.32c-1.64-.37-2.49-.54-4.23-.85v-4l1.07.13V66.07c-1.08-3.66-1.63-5.41-2.75-8.77l-.88.08Z"/><path class="cls-4" d="M70.88,58.16A8.67,8.67,0,0,0,70.75,57a5.16,5.16,0,0,0-.26-.92,1.81,1.81,0,0,0-.36-.58.49.49,0,0,0-.43-.14.73.73,0,0,0-.38.21A1.38,1.38,0,0,0,69,56a3.89,3.89,0,0,0-.22.78,7.08,7.08,0,0,0-.08,1.1,5.61,5.61,0,0,0,.11,1.23,2.62,2.62,0,0,0,.27.74,1.37,1.37,0,0,0,.37.44,4.27,4.27,0,0,1,.38.36c.59.62.87.93,1.44,1.59a3.88,3.88,0,0,1,.54,1,9.09,9.09,0,0,1,.43,1.6,21.6,21.6,0,0,1,.29,2.2c.07.83.1,1.77.1,2.8a33.2,33.2,0,0,1-.2,3.8,14.81,14.81,0,0,1-.56,2.8,3.68,3.68,0,0,1-.9,1.59,1.11,1.11,0,0,1-1.18.26,2.1,2.1,0,0,1-.89-.62,5.07,5.07,0,0,1-.77-1.2,10.41,10.41,0,0,1-.63-1.67,14.39,14.39,0,0,1-.42-2.06l-.59-.11v-5l2,.16V68.9a13.07,13.07,0,0,0,.08,1.45,8,8,0,0,0,.24,1.19,2.79,2.79,0,0,0,.4.83.87.87,0,0,0,.55.38q.48.1.72-.6a8.29,8.29,0,0,0,.16-3.24,4.12,4.12,0,0,0-.22-.8,2.1,2.1,0,0,0-.31-.56,5.36,5.36,0,0,0-.33-.43c-.49-.56-.73-.83-1.24-1.36a4.27,4.27,0,0,1-.69-1,7,7,0,0,1-.6-1.53,13.33,13.33,0,0,1-.42-2.11,20.74,20.74,0,0,1-.16-2.76,21.35,21.35,0,0,1,.23-3.26,13,13,0,0,1,.63-2.55,6.66,6.66,0,0,1,1-1.77,2.51,2.51,0,0,1,1.18-.88,1,1,0,0,1,.91.09,2.25,2.25,0,0,1,.73.81,5.94,5.94,0,0,1,.53,1.38,12.62,12.62,0,0,1,.34,1.73l.49-.13v5.79l-1.82.2Z"/><polygon class="cls-4" points="10.51 86.29 11.21 87.71 12.77 87.94 11.64 89.04 11.91 90.6 10.51 89.86 9.1 90.6 9.37 89.04 8.24 87.94 9.8 87.71 10.51 86.29"/><polygon class="cls-4" points="62.19 86.29 62.9 87.71 64.46 87.94 63.33 89.04 63.59 90.6 62.19 89.86 60.79 90.6 61.06 89.04 59.93 87.94 61.49 87.71 62.19 86.29"/><path class="cls-6" d="M18.91,86.42h1.55V87H20v3.68h.46v.54H18.91v-.54h.48V88.93H16.63v1.71h.48v.54H15.56v-.54H16V87h-.45v-.54h1.55V87h-.48V88.4h2.76V87h-.48Z"/><path class="cls-6" d="M24.18,90.64h.39l-.38-1.08H22.36L22,90.64h.49v.54H20.94v-.54h.41l1.49-4.22h.92l1.48,4.22h.48v.54H24.18ZM22.54,89H24l-.74-2.13Z"/><path class="cls-6" d="M26.2,86.42h1.93a1.83,1.83,0,0,1,.59.08,1.6,1.6,0,0,1,.47.24,1.12,1.12,0,0,1,.3.41,1.4,1.4,0,0,1,.11.56,1.21,1.21,0,0,1-.11.49,1.17,1.17,0,0,1-.3.4,1.37,1.37,0,0,1-.47.28,1.89,1.89,0,0,1-.6.1h-.85v1.66h.48v.54H26.2v-.54h.46V87H26.2Zm1.07.54v1.5h.86a1.14,1.14,0,0,0,.33,0,.72.72,0,0,0,.26-.14.61.61,0,0,0,.17-.24.79.79,0,0,0,.06-.32.71.71,0,0,0-.21-.55,1,1,0,0,0-.69-.2Z"/><path class="cls-6" d="M30.21,86.42h1.92a1.83,1.83,0,0,1,.59.08,1.6,1.6,0,0,1,.47.24,1.12,1.12,0,0,1,.3.41,1.25,1.25,0,0,1,.11.56,1.06,1.06,0,0,1-.11.49,1.17,1.17,0,0,1-.3.4,1.42,1.42,0,0,1-.46.28,2,2,0,0,1-.61.1h-.85v1.66h.48v.54H30.21v-.54h.45V87h-.45Zm1.06.54v1.5h.86a1.14,1.14,0,0,0,.33,0,.72.72,0,0,0,.26-.14.61.61,0,0,0,.17-.24.79.79,0,0,0,.06-.32.71.71,0,0,0-.21-.55,1,1,0,0,0-.69-.2Z"/><path class="cls-6" d="M33.92,86.42h1.54V87H35l.9,1.53,1-1.53h-.5v-.54h1.55V87h-.41l-1.34,2v1.65h.49v.54H35.11v-.54h.44V89l-1.26-2h-.37Z"/><path class="cls-6" d="M40.85,90.64h.44V86.93H40.2v.74h-.65V86.42H43.8v1.25h-.64v-.74H41.9v3.71h.49v.54H40.85Z"/><path class="cls-6" d="M44.38,86.42H45.9V87h-.45v3.68h.45v.54H44.38v-.54h.46V87h-.46Z"/><path class="cls-6" d="M46.8,90.64h.46V87H46.8v-.6h1.51l1.52,4.11,1.53-4.11h1.43V87h-.45v3.62h.45v.54H51.24v-.54h.51V87l-1.67,4.2h-.53L47.86,87v3.67h.49v.54H46.8Z"/><path class="cls-6" d="M53.69,86.42H57.1v1.35h-.64V87h-1.7v1.53h1.43V89H54.76v1.61h1.7v-.8h.64v1.34H53.69v-.54h.45V87h-.45Z"/></g></g></svg>