<svg xmlns="http://www.w3.org/2000/svg" viewBox="0 0 95.33 102.6"><defs><style>.cls-1{fill:#ff7c96;}.cls-2{fill:#324b58;}.cls-3{fill:#b6dffc;}.cls-4{fill:none;}.cls-6{fill:#ffffff;}.cls-7{fill:#000000;opacity:0.4;}</style></defs><title>Holidays-03</title><g id="Calque_2" data-name="Calque 2"><g id="Planche_Vacance_-_04" data-name="Planche Vacance - 04"><rect class="cls-1" x="11.48" y="60.45" width="73.68" height="1.33"/><path class="cls-2" d="M74.5,30l.25.22-12-4.83-1-.51-5.91-3-2.14-1.09a92.9,92.9,0,0,0-15.61-.58l1.76-.5,11.84-1.19s-10-.74-14.43.22l-1.19,1.62c-.49,0-1,.08-1.47.14l1.88-2.6a56,56,0,0,1,18.38,0l4.33,2.23.66-.69-2.53-.59,3.41-.33,12.1,6.41,2.06,5.33Z"/><polygon class="cls-3" points="89.18 40.45 69.5 31.8 57.75 25.42 89.18 40.45"/><path class="cls-3" d="M90.58,42.4h0l-37-15.23-.33-.13-.44-.19h0l-.62-.25-.2-.09a.11.11,0,0,0,0,.08c-.57-.16-1.2-.3-1.87-.42q-.72-.14-1.5-.24h0C41.82,25,32,25.4,28.32,25.6l0,0V23.66s7.38-2.07,24.2-1.32c.51.28.35,1.47-.12,3l.43.19,1.26.57.54.24Z"/><polygon class="cls-4" points="69.5 31.8 89.18 40.45 57.75 25.42 69.5 31.8"/><path class="cls-2" d="M91.59,43l-.1-2.44L88.35,39,55.49,22.77l-.87-.43-1.81,3.15,1.26.57.54.24,36,16.1h0l-37-15.22h0l-.33-.13-.44-.19h0c-.21-.07-.42-.14-.65-.2a.76.76,0,0,0-.2-.06c-.57-.16-1.2-.3-1.87-.42q-.72-.14-1.5-.24h0C41.82,25,32,25.4,28.32,25.6l0,0V23.66s7.38-2.07,24.2-1.32a66.18,66.18,0,0,0-25,.44l-.7,2.91.74,1.41-.89,1.08,2.11.27h0l.46-.71,2,.13a.55.55,0,0,1,.43-.37h.06l.28.06a.41.41,0,0,1,.27.37l15.22,1c.09-.29.29-.48.48-.48h0l.29.07c.17,0,.27.24.28.49l1.42.09.81.06.68.05L50.92,33l.13,0,1,.28c3.44,1,7.36,2.07,11.4,3.22,1.25.36,2.52,1.9,3.79,2.27h0l.24.07.1,0c4.87,1.38,10.29,2.74,15,3.87l.42.1,1.24.28a5,5,0,0,1,1.38-.27l6.46,1.86.07,0ZM69.5,31.8,57.75,25.42l31.43,15ZM62.26,34l-7.91-3.1L81.64,40Z"/><polygon class="cls-3" points="62.26 34.02 81.64 40.04 54.35 30.92 62.26 34.02"/><path class="cls-3" d="M92.29,45,89,44.25l-1.78-.41H87c-.57,0-1.14.49-1.72.35-2.29-.55-6.36-1.46-10.51-2.4s-8.58-2-11.18-2.67a6.71,6.71,0,0,0-.87-.78,5.34,5.34,0,0,0-2-1l-2.91-.7c-1.72-.41-3.37-.81-4.93-1.17l-2.25-.54-.33-.08-2.22-.53c-3.93-.93-6.66-1.55-7.3-1.66-6.05-1-11.38-1.73-15.9-2.27A142.49,142.49,0,0,0,9.75,29.18a33.34,33.34,0,0,0-6.07.54l-2.37-2.1a30.83,30.83,0,0,1,7.82-.92,156.63,156.63,0,0,1,17.53,1.48l2.11.27h0l.46-.71,2,.13a.55.55,0,0,1,.43-.37h.06l.28.06a.41.41,0,0,1,.27.37l15.22,1c.09-.29.29-.48.48-.48h0l.29.07c.17,0,.27.24.28.49l1.42.09.81.06c-.61,1.41-1.23,2.67-1.57,3.36l1.64.46.13,0,1,.28c3.44,1,7.36,2.07,11.4,3.22,1.25.36,2.52,1.9,3.79,2.27h0l.24.07.1,0c4.87,1.38,10.29,2.74,15,3.87l.42.1,1.21.28h0a5,5,0,0,1,1.38-.27l6.46,1.86Z"/><path class="cls-2" d="M95.27,45.69l-.48-.11-.45-.1-2-.44,0,0L89,44.25l-1.78-.41H87c-.57,0-1.14.49-1.72.35-2.29-.55-6.36-1.46-10.51-2.4s-8.58-2-11.18-2.67a6.71,6.71,0,0,0-.87-.78,5.34,5.34,0,0,0-2-1l-2.91-.7c-1.72-.41-3.37-.81-4.93-1.17l-2.25-.54-.33-.08-2.22-.53c-3.93-.93-6.66-1.55-7.3-1.66-6.05-1-11.38-1.73-15.9-2.27A142.49,142.49,0,0,0,9.75,29.18a33.34,33.34,0,0,0-6.07.54c-1.12.2-1.75.38-1.75.38l9.82,8.69c4.09,3.38,8.18,7.65,9.44,10.55a.07.07,0,0,1,0,.07,4.74,4.74,0,0,1,.2.56L22,50c.55,0,1.11,0,1.66,0s1.18,0,1.76,0a.58.58,0,0,1,.37.22s-.23.16-.35.16c-1.28,0-2.58.09-3.87,0a3,3,0,0,1,0,.5H24l-.06,0a1.29,1.29,0,0,1,.41-.16c.88-.06,1.76-.13,2.63-.12,1.19,0,1.22.11,2.4.14,1.59,0,3.18,0,4.77.09.41,0,.83,0,1.24.07H47.8a.6.6,0,0,1,.24-.12,16.93,16.93,0,0,1,1.74-.11c.79,0,1.58.11,2.37.14,1.05,0,2.11,0,3.17.07l.26,0H74.2a2.35,2.35,0,0,1-.51-.16,6.26,6.26,0,0,1,2.4,0,3.63,3.63,0,0,1-.64.13h5.17a2.08,2.08,0,0,1-.3-.13c.71,0,1.26,0,1.81,0a.41.41,0,0,1,.28.13h8.46l2-.44c1.53,0,2.48-4.76,2.48-4.76ZM15.74,38.14a45.65,45.65,0,0,0-7.7-7c.55.23,7.21,3.13,9.48,6.08a40.41,40.41,0,0,1,4.36,8C21.73,45,20.08,42.92,15.74,38.14ZM76.51,49.42c.41.06.87,0,1.3.06l1,0a.78.78,0,0,1,0,.16l-3.76,0A2.16,2.16,0,0,1,76.51,49.42Zm.34,1.46a.31.31,0,0,1,0-.1,3.88,3.88,0,0,1,2,.09Zm-3.7-.69a38.35,38.35,0,0,1,7.63.06A42.26,42.26,0,0,1,73.15,50.19Zm8.06-.52-1.65-.05.06-.2,1.62.08Zm.41.52,2.15-.09A2.62,2.62,0,0,1,81.62,50.19Z"/><path class="cls-3" d="M21.88,45.22c-.15-.2-1.8-2.3-6.14-7.08a45.65,45.65,0,0,0-7.7-7c.55.23,7.21,3.13,9.48,6.08A40.41,40.41,0,0,1,21.88,45.22Z"/><polygon class="cls-3" points="88.35 39.03 55.49 22.77 55.89 21.85 61.8 24.87 62.02 25.07 62.78 25.38 74.75 30.21 74.76 30.22 74.97 30.3 74.94 30.23 82.66 34.44 82.69 34.45 87.94 36.14 87.9 37.28 87.94 37.3 87.87 38.21 87.65 38.1 87.79 38.18 88.35 39.03"/><path class="cls-3" d="M51.74,18.49,39.9,19.68l-1.76.5-2.43.7.41-.55,1.19-1.62C41.75,17.75,51.74,18.49,51.74,18.49Z"/><path class="cls-2" d="M18.77,20.12s-2.51.52-3.41,2.05a3.41,3.41,0,0,0-2.71-1.87,2,2,0,0,1,2.69.84A3,3,0,0,1,18.77,20.12Z"/><path class="cls-2" d="M7,6.44S4.1,7,3.08,8.77A3.87,3.87,0,0,0,0,6.64a2.3,2.3,0,0,1,3.06,1A3.38,3.38,0,0,1,7,6.44Z"/><path class="cls-2" d="M57.13.22S54.25.8,53.22,2.56A3.89,3.89,0,0,0,50.12.41a2.33,2.33,0,0,1,3.08,1A3.4,3.4,0,0,1,57.13.22Z"/><path class="cls-2" d="M26.27,11.82s-3.52.71-4.77,2.86c-1.08-2.09-2.46-2.26-3.8-2.62a2.83,2.83,0,0,1,3.76,1.17A4.18,4.18,0,0,1,26.27,11.82Z"/><path class="cls-3" d="M36.11,51.17c-.34,0-.69,0-1,0-.58,0-1.15-.14-1.72-.14-3.2,0-5.24,0-8.43,0a3,3,0,0,1-.52,0c-.16,0-.3-.08-.45-.12l-.06,0a1.29,1.29,0,0,1,.41-.16c.88-.06,1.76-.13,2.63-.12,1.19,0,1.22.11,2.4.14,1.59,0,3.18,0,4.77.09.41,0,.83,0,1.24.07l.74.05A1.55,1.55,0,0,0,36.11,51.17Z"/><path class="cls-3" d="M73,50.71a10.09,10.09,0,0,0-1.1-.18c-1.12-.07-2.26-.15-3.39-.16-.94,0-1.88.07-2.81.11-.36,0-.72,0-1.07,0-.68,0-1.35-.14-2-.12a6.67,6.67,0,0,0-1.24.26l.07.13,11.46.13Z"/><path class="cls-3" d="M43.9,50.18a13.42,13.42,0,0,0-1.67,0,19.38,19.38,0,0,1-2.75,0c-1.23-.06-2.49,0-3.74,0-.54,0-1.07,0-1.61,0s-.81.06-1.21.09v.16a8,8,0,0,0,.84.09h5.91c1.32,0,2.63-.07,3.94-.1a1.57,1.57,0,0,0,.29-.08Z"/><path class="cls-3" d="M66.07,50.18a6.16,6.16,0,0,0-2.83-.4,13.2,13.2,0,0,0-1.51.13,2.34,2.34,0,0,1-.53,0,16,16,0,0,0-3.46-.1l-.08.14a8.81,8.81,0,0,0,1,.15c1.49,0,3,0,4.48.08.48,0,1,.06,1.45.07S65.49,50.21,66.07,50.18Z"/><path class="cls-3" d="M25.75,50.19s-.23.16-.35.16c-1.28,0-2.58.09-3.87,0a11.55,11.55,0,0,1-1.31-.1c-.29,0-.59,0-.89-.08v-.17L21.42,50,22,50c.55,0,1.11,0,1.66,0s1.18,0,1.76,0A.58.58,0,0,1,25.75,50.19Z"/><path class="cls-3" d="M52.63,50.37c.27,0,.54.06.81.07l2.17.14,4.15.21c.21,0,.43-.06.89-.12a4.46,4.46,0,0,0-.81-.24c-2.26-.08-4.51-.14-6.77-.2a2.85,2.85,0,0,0-.41,0Z"/><path class="cls-3" d="M80.78,50.25a42.26,42.26,0,0,1-7.63-.06A38.35,38.35,0,0,1,80.78,50.25Z"/><path class="cls-3" d="M67.22,51.51a7.09,7.09,0,0,0,1.3,0,23.65,23.65,0,0,1,4.29,0,6.77,6.77,0,0,0,1.35-.11c-2.31-.12-4.61-.51-6.91,0Z"/><path class="cls-3" d="M18.7,49.82l-1.82-.1c-1-.06-2.07-.14-3.11-.19a3.84,3.84,0,0,0-.76.07.19.19,0,0,0-.14.18.52.52,0,0,0,.28.08l5.52.11Z"/><path class="cls-3" d="M51.67,50.25l-1.91-.34a.94.94,0,0,0-.29,0c-1,.08-2,.17-3.26.33l.5.05a8.65,8.65,0,0,0,1.24.06,13.2,13.2,0,0,1,2.74,0A4.8,4.8,0,0,0,51.67,50.25Z"/><path class="cls-3" d="M35.11,51.5a31,31,0,0,0-5.37-.07A21.56,21.56,0,0,0,35.11,51.5Z"/><path class="cls-3" d="M56.64,51v.19a3.77,3.77,0,0,1-.67,0c-.39,0-.77-.12-1.15-.13-2.13,0-4.25,0-6.37-.05a2,2,0,0,1-.35,0,2.37,2.37,0,0,1-.34-.13l0,0a.6.6,0,0,1,.24-.12,16.93,16.93,0,0,1,1.74-.11c.79,0,1.58.11,2.37.14,1.05,0,2.11,0,3.17.07l.26,0C55.93,50.92,56.29,51,56.64,51Z"/><path class="cls-3" d="M51.08,51.64a31,31,0,0,0-5.37-.07A21.56,21.56,0,0,0,51.08,51.64Z"/><path class="cls-3" d="M35.16,49.63a18.24,18.24,0,0,0,5,.09v-.11Z"/><path class="cls-3" d="M42,51l4.71-.12A11.5,11.5,0,0,0,42,51Z"/><path class="cls-3" d="M78.85,49.5a.78.78,0,0,1,0,.16l-3.76,0a2.16,2.16,0,0,1,1.44-.26c.41.06.87,0,1.3.06Z"/><path class="cls-3" d="M21.79,51a10,10,0,0,0-3.53-.07A18.07,18.07,0,0,0,21.79,51Z"/><path class="cls-3" d="M31.09,49.46l2.92.06A4.72,4.72,0,0,0,31.09,49.46Z"/><path class="cls-3" d="M28.12,50l3.56,0A8.55,8.55,0,0,0,28.12,50Z"/><path class="cls-3" d="M63.88,49.44a2.46,2.46,0,0,0-.5-.13c-.79,0-1.59,0-2.37,0,0,0-.15.1-.13.11a1,1,0,0,0,.37.13h2.47Z"/><path class="cls-3" d="M18,49.52h3.16c.08,0,.27-.22-.26-.23-1,0-1.92,0-2.88,0Z"/><path class="cls-3" d="M58.18,51.28l2.77.15A3.33,3.33,0,0,0,58.18,51.28Z"/><path class="cls-3" d="M68.06,49.77l4,.15A6.9,6.9,0,0,0,68.06,49.77Z"/><path class="cls-3" d="M21.81,49.51l2.53.17A2.61,2.61,0,0,0,21.81,49.51Z"/><path class="cls-3" d="M37,50.89a2.25,2.25,0,0,0,2.33.08Z"/><path class="cls-3" d="M18.36,50.25l-2.66.09a5.08,5.08,0,0,0,2.67,0Z"/><path class="cls-3" d="M46.63,49.4a13.49,13.49,0,0,0-2.77,0v.13h2.77Z"/><path class="cls-3" d="M83.77,50.1a2.62,2.62,0,0,1-2.15.09Z"/><path class="cls-3" d="M55.27,50h1.91c-.23-.12-.37-.23-.49-.23-.49,0-1,.06-1.46.1Z"/><path class="cls-3" d="M78.83,50.87h-2a.31.31,0,0,1,0-.1A3.88,3.88,0,0,1,78.83,50.87Z"/><path class="cls-3" d="M81.24,49.5l0,.17-1.65-.05.06-.2Z"/><path class="cls-3" d="M26.41,49.21l1.64,0,0-.17L26.46,49Z"/><path class="cls-3" d="M26.48,51.49h1.64v-.12l-1.64,0Z"/><path class="cls-3" d="M66.42,51.27l-1.25.08,0,.17,1.29-.05Z"/><path class="cls-3" d="M22,49.05l.85-.1c0-.05-.08-.14-.12-.14l-.84,0Z"/><path class="cls-3" d="M51.08,60A51.28,51.28,0,0,0,44,59.88,37.92,37.92,0,0,0,51.08,60Z"/><path class="cls-3" d="M52.87,57.78c-.48-.07-.95-.16-1.45-.19-1.5-.08-3-.16-4.51-.17-1.24,0-2.48.08-3.73.12-.47,0-1,0-1.42,0-.9,0-1.79-.14-2.67-.12a11.49,11.49,0,0,0-1.66.27l.1.13L52.75,58Z"/><path class="cls-3" d="M43.72,57.23A10.25,10.25,0,0,0,40,56.81c-.65,0-1.33.09-2,.13a3.35,3.35,0,0,1-.71,0,28.23,28.23,0,0,0-4.6-.1l-.1.14c.45.05.9.14,1.36.15,2,0,4,.05,6,.09.65,0,1.29.07,1.93.08S43,57.25,43.72,57.23Z"/><path class="cls-3" d="M25.87,57.41l1.08.08,2.87.14c1.84.08,3.68.16,5.52.22.28,0,.57-.06,1.17-.12a6.49,6.49,0,0,0-1.07-.25c-3-.08-6-.14-9-.21a4.9,4.9,0,0,0-.54,0Z"/><path class="cls-3" d="M53.12,57.24a73,73,0,0,0,10.14.06A65.1,65.1,0,0,0,53.12,57.24Z"/><path class="cls-3" d="M45.24,58.6a14.26,14.26,0,0,0,1.72,0,40.31,40.31,0,0,1,5.71,0,9.73,9.73,0,0,0,1.79-.11c-3.07-.13-6.12-.53-9.18,0Z"/><path class="cls-3" d="M60.69,56.53l-1.38,0c-.57,0-1.18,0-1.72-.06a3.61,3.61,0,0,0-1.92.27l5,0Z"/><path class="cls-3" d="M40.8,56.46a3.11,3.11,0,0,0-.66-.14c-1,0-2.1,0-3.15,0-.06,0-.19.1-.17.11a1.43,1.43,0,0,0,.5.14c1.09,0,2.18,0,3.28,0Z"/><path class="cls-3" d="M47.26,56.75h4.59c.11-.05.39-.23-.38-.24-1.39,0-2.79,0-4.18,0Z"/><path class="cls-3" d="M33.24,58.36l3.68.16A5.5,5.5,0,0,0,33.24,58.36Z"/><path class="cls-3" d="M53.83,57.81a6.44,6.44,0,0,0,3.2,0A10.42,10.42,0,0,0,53.83,57.81Z"/><path class="cls-3" d="M62.65,57.85a5.09,5.09,0,0,0,2.53.26c.12,0,.27-.11.24-.14a.8.8,0,0,0-.37-.13C64.32,57.83,63.58,57.84,62.65,57.85Z"/><path class="cls-3" d="M64.38,57.24a4.22,4.22,0,0,0,2.84-.09Z"/><path class="cls-3" d="M29.37,57h2.54a2.11,2.11,0,0,0-.65-.23c-.65,0-1.3.06-1.94.1Z"/><path class="cls-3" d="M60.66,58a6.41,6.41,0,0,0-2.62-.1V58Z"/><path class="cls-3" d="M61.64,56.65l2.18.05,0-.17-2.15-.09Z"/><path class="cls-3" d="M68.9,57.53l1.62.15.15-.2-1.61-.16Z"/><path class="cls-3" d="M44.18,58.36l-1.66.08,0,.17,1.72,0Z"/><path class="cls-3" d="M51.57,54.74c-1-.05-1.91-.12-2.87-.14-2.32,0-4.64,0-7-.09-1.73,0-1.78-.14-3.51-.16-1.27,0-2.55.07-3.83.12a2.56,2.56,0,0,0-.6.17c.25,0,.48.12.75.15s.5,0,.75,0l12.28.06c.84,0,1.67.12,2.51.15.49,0,1,0,1.49,0Z"/><path class="cls-3" d="M62.94,54c-.81,0-1.65-.1-2.43-.06a38.26,38.26,0,0,1-4,0c-1.79-.06-3.63,0-5.45,0-.78,0-1.56,0-2.35,0-.59,0-1.17.06-1.76.09v.17c.41,0,.82.09,1.23.09,2.87,0,5.74,0,8.61,0,1.91,0,3.82-.06,5.73-.1a3,3,0,0,0,.43-.07Z"/><path class="cls-3" d="M27.14,54c.43,0,.88,0,1.3.08,2.5.24,5,0,7.55.06.17,0,.54-.13.51-.17A1.08,1.08,0,0,0,36,53.7c-.85,0-1.71,0-2.56,0s-1.62,0-2.43,0c-1.28,0-2.55.06-3.83.09Z"/><path class="cls-3" d="M26.22,53.53l-2.65-.11c-1.51-.06-3-.14-4.54-.19a5.86,5.86,0,0,0-1.11.07c-.12,0-.21.12-.19.18a.86.86,0,0,0,.4.09l8.05.12Z"/><path class="cls-3" d="M74.26,54l-2.78-.36a1.93,1.93,0,0,0-.42,0c-1.45.08-2.89.17-4.75.34l.73.05c.6,0,1.21.09,1.8.07a25.42,25.42,0,0,1,4,0A11.92,11.92,0,0,0,74.26,54Z"/><path class="cls-3" d="M50.13,55.31a61.65,61.65,0,0,0-7.82-.09A44.42,44.42,0,0,0,50.13,55.31Z"/><path class="cls-3" d="M78.85,54.83c-.51,0-1-.11-1.52-.12l-3.68-.09c-.91,0-1.82-.13-2.74-.15-.67,0-1.35.06-2,.11a1,1,0,0,0-.32.14,1.9,1.9,0,0,0,.4.14,2.54,2.54,0,0,0,.39,0l7.38.07c.45,0,.89.11,1.33.14a7,7,0,0,0,.79,0Z"/><path class="cls-3" d="M73.41,55.48a60,60,0,0,0-7.83-.08A45.61,45.61,0,0,0,73.41,55.48Z"/><path class="cls-3" d="M50.21,53.37a36.85,36.85,0,0,0,7.2.1v-.11Z"/><path class="cls-3" d="M60.22,54.77l6.86-.12A23.52,23.52,0,0,0,60.22,54.77Z"/><path class="cls-3" d="M30.71,54.72a20.92,20.92,0,0,0-5.13-.08A38.15,38.15,0,0,0,30.71,54.72Z"/><path class="cls-3" d="M64.4,53.19a20.53,20.53,0,0,0-5.14-.07A36.69,36.69,0,0,0,64.4,53.19Z"/><path class="cls-3" d="M44.27,53.09l4.26.07A7.22,7.22,0,0,0,44.27,53.09Z"/><path class="cls-3" d="M39.94,53.72l5.19,0A17.4,17.4,0,0,0,39.94,53.72Z"/><path class="cls-3" d="M25.14,53.22h4.6c.12,0,.4-.22-.38-.23-1.39,0-2.79,0-4.19,0Z"/><path class="cls-3" d="M30.75,53.21l3.68.18A5.19,5.19,0,0,0,30.75,53.21Z"/><path class="cls-3" d="M52.83,54.67a4.39,4.39,0,0,0,3.39.09Z"/><path class="cls-3" d="M25.73,54l-3.88.09a10.26,10.26,0,0,0,3.89,0Z"/><path class="cls-3" d="M56,52.74a28.8,28.8,0,0,0-4,0v.14h4Z"/><path class="cls-3" d="M37.45,52.92l2.39,0,0-.17-2.36-.09Z"/><path class="cls-3" d="M37.55,55.28h2.39l0-.12-2.4,0Z"/><path class="cls-3" d="M66.15,53.12A5.14,5.14,0,0,0,69.27,53Z"/><path class="cls-3" d="M31,52.74l1.25-.11c-.06-.05-.12-.14-.18-.14-.41,0-.81,0-1.22,0Z"/><path class="cls-1" d="M16,69.66a3.44,3.44,0,0,0-.09-.8,2.59,2.59,0,0,0-.24-.65,1.4,1.4,0,0,0-.37-.42.66.66,0,0,0-.44-.14.8.8,0,0,0-.4.11,1,1,0,0,0-.34.32,2,2,0,0,0-.23.54,3.4,3.4,0,0,0-.11.78,3.13,3.13,0,0,0,.08.89,1.57,1.57,0,0,0,.25.52,1.12,1.12,0,0,0,.35.31c.13.08.26.16.38.25l1.41,1a2.06,2.06,0,0,1,.53.62,3.79,3.79,0,0,1,.39,1,7.14,7.14,0,0,1,.2,1.35,13,13,0,0,1,0,1.74,13.63,13.63,0,0,1-.4,2.45,10.7,10.7,0,0,1-.7,2,5.87,5.87,0,0,1-.93,1.4,2.16,2.16,0,0,1-1.07.67,1.07,1.07,0,0,1-.73-.07,1.5,1.5,0,0,1-.61-.55,4,4,0,0,1-.48-1,7.85,7.85,0,0,1-.32-1.4l-.46.09V76.8l1.76-.25,0,.77a6.72,6.72,0,0,0,0,1,3.08,3.08,0,0,0,.18.79,1,1,0,0,0,.33.48.59.59,0,0,0,.49.11,1,1,0,0,0,.69-.63,3.91,3.91,0,0,0,.31-1.45,2.61,2.61,0,0,0,0-.77,1.54,1.54,0,0,0-.18-.5,1.26,1.26,0,0,0-.28-.32,3.09,3.09,0,0,0-.31-.23l-1.12-.78a2.32,2.32,0,0,1-.62-.63,4.53,4.53,0,0,1-.53-1.08A10,10,0,0,1,12,71.76a13.11,13.11,0,0,1-.13-2.1,11.43,11.43,0,0,1,.23-2.46,6.42,6.42,0,0,1,.65-1.83,3.24,3.24,0,0,1,1-1.11A2.26,2.26,0,0,1,15,63.88a2,2,0,0,1,1,.26,2.73,2.73,0,0,1,.78.7,3.57,3.57,0,0,1,.55,1A5,5,0,0,1,17.66,67h.57l-.29,3.63-2,.13Z"/><path class="cls-1" d="M19.34,64.41l7.06,0-.75,5.83-1.88.09.3-2.46-2.24.08-.39,3.48,1.71-.11-.4,3.33-1.68.15-.45,4.09,2.13-.27.38-3.07L25,75.35c-.31,2.45-.47,3.68-.79,6.12-2.73.37-4,.57-6.45,1,.12-1.31.18-2,.29-3.27l.83-.12c.43-4.45.64-6.68,1.07-11.13L19,68C19.15,66.57,19.21,65.85,19.34,64.41Z"/><path class="cls-1" d="M30.2,77.86l.92-.07L31,75.46l-2.79.19-.72,2.44.94-.09-.4,3c-1.38.15-2.05.23-3.36.4l.4-3.08.65-.07c1.69-5.65,2.56-8.42,4.27-13.89h2.35c.24,5.38.36,8,.7,13.29l.68-.05c-.14,1.17-.22,1.76-.36,2.93-1.46.11-2.17.17-3.58.3ZM29.08,72.8l1.82-.09c-.08-2.13-.12-3.2-.19-5.34C30.06,69.53,29.73,70.62,29.08,72.8Z"/><path class="cls-1" d="M44.18,69.1a5,5,0,0,0-.55-1.17,1.59,1.59,0,0,0-.56-.49,1.44,1.44,0,0,0-.65-.15,1.6,1.6,0,0,0-1,.4,4,4,0,0,0-.85,1.08,7.89,7.89,0,0,0-.65,1.57,9.54,9.54,0,0,0-.36,1.9,8.61,8.61,0,0,0,0,1.9A5.86,5.86,0,0,0,40,75.69a2.67,2.67,0,0,0,.72,1,1.42,1.42,0,0,0,1,.36,1.6,1.6,0,0,0,.76-.23,2.8,2.8,0,0,0,.66-.55,3.61,3.61,0,0,0,.53-.77,4.42,4.42,0,0,0,.38-.9l2.08.9a8.74,8.74,0,0,1-.68,1.88,6.44,6.44,0,0,1-1,1.51,5,5,0,0,1-1.35,1,3.65,3.65,0,0,1-1.58.42,3.13,3.13,0,0,1-1.3-.24A3.55,3.55,0,0,1,39,79.35a4.82,4.82,0,0,1-.85-1.25,7.52,7.52,0,0,1-.56-1.64,11.51,11.51,0,0,1-.25-2,13.78,13.78,0,0,1,.08-2.2,15.44,15.44,0,0,1,.69-3.22,12.57,12.57,0,0,1,1.22-2.63,6.43,6.43,0,0,1,1.55-1.76,2.78,2.78,0,0,1,1.73-.63,2.13,2.13,0,0,1,1.21.3,3.82,3.82,0,0,1,1,1.24h1.34l-.13,3.48Z"/><path class="cls-1" d="M47.77,64.33H52.5a2.28,2.28,0,0,1,1.25.36,3.44,3.44,0,0,1,1,1,5.09,5.09,0,0,1,.65,1.41,6.57,6.57,0,0,1,.3,1.67,9,9,0,0,1,0,1.4,4.11,4.11,0,0,1-.24,1.07A2.86,2.86,0,0,1,55,72a3.47,3.47,0,0,1-.63.64,2.59,2.59,0,0,1,.61.83,6.14,6.14,0,0,1,.45,1.44c.18.82.27,1.23.44,2l.82,0,.2,3.07-3-.09c-.23-1.49-.33-2.23-.55-3.72a6.24,6.24,0,0,0-.22-1.14,2.64,2.64,0,0,0-.34-.79,1.21,1.21,0,0,0-.51-.45,1.45,1.45,0,0,0-.68-.15h-.84l0,3.4h.93L51.8,80c-1.72,0-2.61,0-4.37,0l.06-2.83h1.07l.1-10h-.95Zm2.92,2.83.05,3.78H52a1.63,1.63,0,0,0,.64-.1,1.09,1.09,0,0,0,.48-.34,1.38,1.38,0,0,0,.29-.58,3,3,0,0,0,.08-.83A2.42,2.42,0,0,0,53,67.67a1.37,1.37,0,0,0-1.14-.51Z"/><path class="cls-1" d="M56.43,64.33H60c.1,1.16.16,1.74.26,2.89h-.83c.22,2.64.34,4,.56,6.6a8.06,8.06,0,0,0,.26,1.53,3.82,3.82,0,0,0,.43,1,1.76,1.76,0,0,0,.58.6,1.31,1.31,0,0,0,.68.22,1.44,1.44,0,0,0,.66-.12,1.08,1.08,0,0,0,.46-.52,3.08,3.08,0,0,0,.23-1,10.43,10.43,0,0,0,0-1.62c-.27-2.67-.41-4-.68-6.68h-1c-.11-1.16-.17-1.74-.28-2.91H64.9c.13,1.18.2,1.77.33,3l-.72,0c.27,2.53.41,3.8.68,6.33a14.86,14.86,0,0,1,0,3,7.22,7.22,0,0,1-.55,2.19,3.07,3.07,0,0,1-1,1.32,2.23,2.23,0,0,1-1.43.38A3,3,0,0,1,60.7,80a5,5,0,0,1-1.32-1.41,8.29,8.29,0,0,1-1-2.18,13,13,0,0,1-.51-2.86c-.18-2.54-.27-3.8-.46-6.34h-.82Z"/><path class="cls-1" d="M66,64.34h3.81c.13,1.21.2,1.82.34,3l-.94,0c.48,4.26.71,6.39,1.19,10.65l.93.09c.14,1.21.21,1.82.34,3-1.5-.17-2.27-.25-3.85-.39-.13-1.19-.2-1.78-.33-3l.94.07c-.47-4.21-.7-6.32-1.18-10.53h-.92C66.18,66.12,66.11,65.53,66,64.34Z"/><path class="cls-1" d="M75.46,69.27a3.16,3.16,0,0,0-.21-.76,2.78,2.78,0,0,0-.34-.62,1.73,1.73,0,0,0-.44-.42.92.92,0,0,0-.48-.16.94.94,0,0,0-.41.08.77.77,0,0,0-.3.27,1.36,1.36,0,0,0-.18.47,2.68,2.68,0,0,0,0,.7,2.51,2.51,0,0,0,.2.81,1.69,1.69,0,0,0,.34.5,1.75,1.75,0,0,0,.41.33,4,4,0,0,1,.44.27c.67.45,1,.68,1.66,1.14a3.3,3.3,0,0,1,.66.68,5.13,5.13,0,0,1,.56,1A8.52,8.52,0,0,1,77.79,75,13.12,13.12,0,0,1,78,76.67,12.5,12.5,0,0,1,78,79a6.11,6.11,0,0,1-.45,1.73,2.37,2.37,0,0,1-.83,1,1.66,1.66,0,0,1-1.19.23,2.51,2.51,0,0,1-.93-.34,4.14,4.14,0,0,1-.85-.74A6.12,6.12,0,0,1,73,79.82a7.94,7.94,0,0,1-.57-1.35l-.59-.06-.37-3.34,2.08.16.07.7a6.41,6.41,0,0,0,.18.95,3.36,3.36,0,0,0,.32.77,1.85,1.85,0,0,0,.46.53,1.09,1.09,0,0,0,.59.24A.63.63,0,0,0,75.9,78,2.46,2.46,0,0,0,76,76.74a2.81,2.81,0,0,0-.16-.74,2.05,2.05,0,0,0-.28-.51,1.81,1.81,0,0,0-.36-.37,4.61,4.61,0,0,0-.38-.28c-.55-.38-.82-.57-1.38-.94a4.71,4.71,0,0,1-.79-.68,5.37,5.37,0,0,1-.72-1,7.6,7.6,0,0,1-.58-1.43A9.34,9.34,0,0,1,71,68.89a8.48,8.48,0,0,1,0-2.14,4.39,4.39,0,0,1,.48-1.58,2.37,2.37,0,0,1,.87-1,2.29,2.29,0,0,1,1.24-.34,2.22,2.22,0,0,1,1,.25,3.23,3.23,0,0,1,.91.63,4.56,4.56,0,0,1,.7,1,5.9,5.9,0,0,1,.48,1.13h.57l.28,3.53-2-.11Z"/><path class="cls-1" d="M78,64.38l7,0v6.47l-1.75-.12-.07-2.65L81.07,68l.17,3.6,1.63.12L83,75.3l-1.56-.17.2,4.23,1.91.31-.08-3.31,1.63.22v6.79c-2.13-.5-3.29-.73-5.75-1.16L79.09,79l.83.12c-.29-4.46-.44-6.69-.73-11.15l-.9,0C78.18,66.51,78.13,65.8,78,64.38Z"/><polygon class="cls-2" points="25.43 86.94 23.3 91.46 20.11 86.46 25.43 86.94"/><polygon class="cls-2" points="76.53 86.91 73.35 91.91 71.24 87.39 76.53 86.91"/><path class="cls-2" d="M27.32,91.29c-1,.52-2,1.1-3,1.72-.82.5-1.64,1-2.47,1.6l1.48-3.15,2.13-4.52Z"/><path class="cls-3" d="M74.62,94.61c-.4-.31-1.1-.82-2.06-1.45s-1.84-1.16-3-1.81l1.71-4,2.11,4.52Z"/><line class="cls-3" x1="23.3" y1="91.46" x2="25.43" y2="86.94"/><path class="cls-2" d="M74.62,94.61c-.4-.31-1.1-.82-2.06-1.45s-1.84-1.16-3-1.81l1.71-4,2.11,4.52Z"/><path class="cls-2" d="M75,94.93l-6.74,7.67c-19.63-15.33-40.17-.16-40.17-.16l-6.29-7.83c.83-.56,1.65-1.1,2.47-1.6,1-.62,2-1.2,3-1.72,18.49-9.81,34.27-4.26,42.21.06,1.19.65,2.21,1.27,3,1.81s1.66,1.14,2.06,1.45Z"/><path class="cls-6" d="M37.21,95.64Q36.32,93,35.38,90.3a37.53,37.53,0,0,1,3.63-1l.15.6q-1.39.33-2.76.75c.19.56.37,1.12.55,1.69.76-.23,1.52-.44,2.3-.63,0,.18.09.36.14.54-.77.19-1.52.4-2.27.63.21.65.42,1.3.62,2,.87-.27,1.76-.51,2.65-.71,0,.2.09.4.14.61C39.41,95,38.3,95.28,37.21,95.64Z"/><path class="cls-6" d="M42.11,94.4l-.68.12q-.55-2.76-1.16-5.51l.85-.16a38.62,38.62,0,0,1,3.47,3.55l.29.42-.06-.44c-.13-1.33-.27-2.66-.41-4l.79-.07c.17,1.87.32,3.74.47,5.62l-.73.06a37.37,37.37,0,0,0-3.33-3.6c-.11-.14-.23-.27-.35-.4,0,.14.07.29.11.44C41.62,91.76,41.87,93.08,42.11,94.4Z"/><path class="cls-6" d="M46.31,92.93l.76,0v0a.45.45,0,0,0,.09.28.5.5,0,0,0,.28.17,1.29,1.29,0,0,0,.4.06,1,1,0,0,0,.43-.11.6.6,0,0,0,.29-.32,2.72,2.72,0,0,0,.1-1c0-1.29,0-2.58,0-3.87h.87l-.09,3.88a2.82,2.82,0,0,1-.24,1.26,1.4,1.4,0,0,1-.51.49,1.76,1.76,0,0,1-.8.17,1.81,1.81,0,0,1-1.21-.3,1,1,0,0,1-.39-.73Z"/><path class="cls-6" d="M52.72,94.23A2.35,2.35,0,0,1,51,93.3a3.31,3.31,0,0,1-.59-2.25,2.91,2.91,0,0,1,.9-2.16,2.65,2.65,0,0,1,2.1-.59,2.6,2.6,0,0,1,1.9,1,2.89,2.89,0,0,1,.35,2.31,3.32,3.32,0,0,1-1.11,2A2.34,2.34,0,0,1,52.72,94.23Zm.07-.56a1.45,1.45,0,0,0,1.33-.49,3.16,3.16,0,0,0,.74-1.66,2.8,2.8,0,0,0-.19-1.81,1.74,1.74,0,0,0-2.76-.32,2.76,2.76,0,0,0-.63,1.71,3.08,3.08,0,0,0,.33,1.79A1.45,1.45,0,0,0,52.79,93.67Z"/><path class="cls-6" d="M58.12,95.11l-.73-.19c.22-.86.44-1.72.67-2.58-.4-1.12-.84-2.24-1.34-3.35l1,.2c.36.86.7,1.73,1,2.59q1-.9,2.19-1.74l.8.26c-1,.71-2,1.47-2.87,2.25C58.59,93.4,58.35,94.25,58.12,95.11Z"/><path class="cls-7" d="M27.32,91.29c-1,.52-2,1.1-3,1.72-.82.5-1.64,1-2.47,1.6l1.48-3.15,2.13-4.52Z"/><path class="cls-7" d="M74.62,94.61c-.4-.31-1.1-.82-2.06-1.45s-1.84-1.16-3-1.81l1.71-4,2.11,4.52Z"/></g></g></svg>