<svg xmlns="http://www.w3.org/2000/svg" viewBox="0 0 81.19 72.65"><defs><style>.cls-1{fill:#ff7c96;}.cls-2{fill:none;}.cls-3{fill:#b6dffc;}.cls-4{fill:#ffffff;}.cls-5{fill:#324b58;}.cls-8{fill:#000000;opacity:0.4;}</style></defs><title>Holidays-05</title><g id="Calque_2" data-name="Calque 2"><g id="Planche_Vacance_-_06" data-name="Planche Vacance - 06"><rect class="cls-1" x="3.3" y="25.89" width="73.68" height="1.33"/><path class="cls-2" d="M40.6,7.93a.43.43,0,0,1,0,.07c-.13.18-.25.34-.37.48L40.55,8Z"/><path class="cls-2" d="M35.94,7.45c-.06.07-.13.13-.19.19s0,0,0,0Z"/><path class="cls-2" d="M37.9,5.23l-.15.19-.13.17-.09.11.08-.11.13-.17A1.6,1.6,0,0,1,37.9,5.23Z"/><path class="cls-2" d="M36.91,17.56s0,0,0,0,0,0,0,0a4.53,4.53,0,0,1,.12-1A5.25,5.25,0,0,0,36.91,17.56Z"/><path class="cls-2" d="M37.2,15.8a3.41,3.41,0,0,0,0-1.49,1.55,1.55,0,0,1,0-.21,1.6,1.6,0,0,0,0,.21A3.27,3.27,0,0,1,37.2,15.8Z"/><path class="cls-2" d="M65.15,15.06a1,1,0,0,1-.2-.28A1.24,1.24,0,0,0,65.15,15.06Z"/><path class="cls-2" d="M69.13,18.78h0a2.61,2.61,0,0,0-.17-.28C69,18.57,69.06,18.68,69.13,18.78Z"/><path class="cls-2" d="M35.75,7.64l-.13.12-.33.29L35.55,8Z"/><path class="cls-2" d="M18.69,14.59V15a2.13,2.13,0,0,0-.21.22c0-.06-.1.08-.1.08s-.06,0-.08,0,0,0-.06,0-.06,0-.08.06-.11,0-.09-.08v0s-.05.08-.06.08,0-.07-.06-.08h0a0,0,0,0,1,0,0c-.26.22-.54.43-.82.63h0a2.28,2.28,0,0,1-1.18-1.15,1.17,1.17,0,0,0,1.24,0,1.58,1.58,0,0,1-1.46-1.16,1.81,1.81,0,0,0,1.13.51l0,0A1.75,1.75,0,0,0,18,13.83a2,2,0,0,1-1.3.54A16.36,16.36,0,0,0,18.69,14.59Z"/><path class="cls-2" d="M15.38,16.81l-.11.06v-.05Z"/><path class="cls-2" d="M17.12,16.6h0Z"/><path class="cls-2" d="M16.4,16.22a1.88,1.88,0,0,1-.18.12h0a2.22,2.22,0,0,1-.39-.28A1.87,1.87,0,0,0,16.4,16.22Z"/><path class="cls-2" d="M14.19,13.46a1.44,1.44,0,0,1-.31.6,2.71,2.71,0,0,1-.58-.12A1.79,1.79,0,0,0,14.19,13.46Z"/><path class="cls-2" d="M14.78,16.82v.32l-.28.14-.31.16a6.67,6.67,0,0,1-3.45-3.32,3.46,3.46,0,0,0,2,.5,1.17,1.17,0,0,0,1.24,0,2,2,0,0,1-1.86,1.22,2,2,0,0,0,2,.21,2.06,2.06,0,0,1-1.31.54A16.36,16.36,0,0,0,14.78,16.82Z"/><rect class="cls-2" x="19.17" y="14.58" width="0.01" height="0.69"/><path class="cls-2" d="M20.35,14.47h0l-.23,0Z"/><polygon class="cls-2" points="49.06 3.96 49.06 3.97 49.05 3.96 49.06 3.96"/><path class="cls-2" d="M51.56,6.46v0a.44.44,0,0,0,0-.1A.22.22,0,0,1,51.56,6.46Z"/><polygon class="cls-2" points="41.09 19.43 40.05 20.47 41.08 19.43 41.09 19.43"/><path class="cls-2" d="M52.56,6.56l-.06.06s0,0,0-.06Z"/><path class="cls-2" d="M9.73,20.29H9.65S9.7,20.33,9.73,20.29Z"/><path class="cls-2" d="M11.63,19c.18-.12.36-.24.55-.35a5.11,5.11,0,0,1-1.75-.52A6.37,6.37,0,0,0,11.63,19Z"/><path class="cls-2" d="M30.44,10.23h0c-.59.13-1.29.28-1.87.45C29.15,10.52,29.84,10.36,30.44,10.23Z"/><path class="cls-2" d="M10,20.61s0,0,0,0h0v0a.1.1,0,0,0,0,0h0l-.11,0s-.09,0-.07,0,.06,0,.06,0-.05-.05-.06-.05a.16.16,0,0,1-.18-.08l0-.05-.7,0V21.5l1-.38c.05-.09-.1-.05-.13-.05s0,0,0-.1a.21.21,0,0,1-.1-.09s0,0,0,0h0l.06,0h.07s0-.08,0-.05.05,0,.06,0,0,0,0-.07,0,0,.08,0h.06s0,0,.05,0,0-.05,0-.06,0,0,0,0S10.06,20.64,10,20.61Z"/><path class="cls-2" d="M55.68,11l-.34-.43c-.24-.28-.86-1-1.21-1.49.36.46,1,1.21,1.22,1.49Z"/><path class="cls-3" d="M25.32,17.5v.08a2.17,2.17,0,0,1,0,.26h0a1.19,1.19,0,0,1-.15.46h0a.77.77,0,0,1-.14.19l-.1.1a2.37,2.37,0,0,1-1.13.48,1.52,1.52,0,0,0-.44.08l-.18.06h0l-.35.15a6.43,6.43,0,0,1-1.65.62h0s0,0,0,0a0,0,0,0,1,0,0c0-.09.18-.33.4-.59s.58-.69.58-.85a.06.06,0,0,0,0,0s0,0,0,0l-.09,0a3.19,3.19,0,0,0-1.08.26,7,7,0,0,1-1.82.55,11.21,11.21,0,0,0-1.5.23,4.55,4.55,0,0,1-.53,0h0a2.48,2.48,0,0,1-.54-.06A4.65,4.65,0,0,0,18,18.39c.67-.66,1.15-1.46,1.82-2.14a5.47,5.47,0,0,1,.85-.72,1.2,1.2,0,0,0,.35-.36,3.14,3.14,0,0,0,.18-.31,12.49,12.49,0,0,1,.53-1.18A1.46,1.46,0,0,1,22,13.4a1,1,0,0,1,.28-.22c.18-.11,1.61-1.42,1.94-1.29,0,0,0,0,.05,0a.38.38,0,0,1,0,.28,1.33,1.33,0,0,1,0,.19,1.16,1.16,0,0,0,0,.18,2.29,2.29,0,0,0-.07.34,4.82,4.82,0,0,0,0,.62,2.71,2.71,0,0,0,0,.29,4.4,4.4,0,0,0,1.15,2.27c0,.25.06.5.08.73S25.31,17.3,25.32,17.5Z"/><path class="cls-4" d="M30.43,10.24l-.32.29c-.64.58-.89.82-1.08.81H29l-.24-.08a3.82,3.82,0,0,1-.71-.39c.17-.06.35-.12.55-.17C29.14,10.52,29.84,10.37,30.43,10.24Z"/><path class="cls-3" d="M48.85,4.13a.67.67,0,0,1-.21.32c-.25.18-.62.19-.87.4a.64.64,0,0,0-.13.15.77.77,0,0,1-.39.24,4.92,4.92,0,0,1-.63.14l-.32.06a1.21,1.21,0,0,0-.67.27c-.1.17-.21.32-.3.47L44.78,7l-.48.73-.55.82c-.27.41-.53.81-.8,1.27l-.28.47c-.19.33-.4.69-.62,1.09l-.28.51a.81.81,0,0,1-.14.19l-.11.13-.14.14h0l-.34.34c-.13.12-.26.25-.4.4l-.21.2-.22.21-.44.42c-.29.28-.56.54-.77.77l-.19.21a1.89,1.89,0,0,0-.25.32.31.31,0,0,0-.05.1,4.4,4.4,0,0,1-.43.74l-.35.51a1.88,1.88,0,0,1-.18.24h0c-.06.08-.11.16-.17.23l-.16.2a.64.64,0,0,1-.13.15h0c-.09.09-.15.15-.17.14s0,0,0,0a5.25,5.25,0,0,1,.11-1c0-.11,0-.22.07-.32a.83.83,0,0,1,0-.15,2.82,2.82,0,0,1,.07-.31,3.27,3.27,0,0,0,0-1.49,1.6,1.6,0,0,1,0-.21,1.42,1.42,0,0,1,0-.2,7.11,7.11,0,0,1-.08-1.63l0-.43h0c0-.26,0-.5.08-.7a1.54,1.54,0,0,0,0-.55.09.09,0,0,0,0-.06s0,0,0,0a.14.14,0,0,0-.11,0l-.08,0-.2.12-.16.13-.49.42-.19.18c-.81.75-1.2,1.22-1.46,1.47l-.14.12a.46.46,0,0,1-.14.07c-.14,0-.28,0-.47-.18s-.12-.09-.18-.15l-.05-.05c-.06,0-.07-.2-.12-.36a1.67,1.67,0,0,0-.08-.2L33.17,12a.51.51,0,0,0-.49-.13l-.13,0-.15,0c-.15.06-.33.15-.53.25-.67.35-1.49.9-1.78,1.07l-.07.05h-.14l-.07,0c-.15-.11.09-.46.55-.94l.08-.08a1.21,1.21,0,0,1,.16-.16,1.37,1.37,0,0,1,.17-.17c.72-.7,1.71-1.56,2.62-2.31l.43-.37h0l.4-.34c.41-.34.77-.63,1-.86h0L35.55,8l.2-.32c.06-.06.13-.12.19-.19l.21-.21c.29-.29.62-.63,1-1.08l.17-.2,0,0,.15-.19,0,0,.08-.11h0l.13-.17.15-.19L38,5.07c.42-.44.75-.5,1-.32l.11.09a2.9,2.9,0,0,1,.54,1.33v0a.82.82,0,0,1,0,.18.56.56,0,0,1,0,.12h0a1.21,1.21,0,0,1,0,.14,3.43,3.43,0,0,1-.12.33l-.15.37-.15.38h0a1.42,1.42,0,0,1-.08.18h0a1.34,1.34,0,0,1-.07.18c-.07.18-.13.35-.17.49a.93.93,0,0,0,0,.13.54.54,0,0,0,0,.26c.05.13.09.25.13.34a.78.78,0,0,0,.12.21c.1.08.22,0,.43-.16a7.65,7.65,0,0,0,.75-.9c.12-.14.24-.3.37-.48a.43.43,0,0,0,0-.07c0-.08.11-.21.18-.37s.09-.22.15-.35.11-.28.18-.43l.2-.48c.17-.42.36-.88.56-1.34.08-.19.16-.37.25-.56s.3-.63.45-.92A7.17,7.17,0,0,1,43,2.69l.13-.2a3,3,0,0,1,.26-.32c.32-.36.63-.49.9-.24l1,1c.37.35.74.7,1.21,1.1.27.23,1.91-.14,2.23,0l0,0A.07.07,0,0,1,48.85,4.13Z"/><path class="cls-3" d="M59.53,15.49A11,11,0,0,1,57.19,13c-.58-.77-1.12-1.54-1.51-2.06l-.33-.43c-.24-.28-.86-1-1.22-1.49h0s0,0,0,0,0,0,0,0a2.93,2.93,0,0,0,0,.56,1.64,1.64,0,0,0,0,.22c0,.06,0,.12,0,.17h0a1.39,1.39,0,0,1,0,.5h0c-.07-.11-.42-.81-.77-1.49s-.69-1.38-.72-1.46a1.34,1.34,0,0,1-.07-.18c0-.09-.07-.18-.1-.27a.7.7,0,0,1,0-.4.22.22,0,0,1,0-.11l.06-.06c.22-.08,3.07-.27,3.2-.27s.7.14.91.14H57l.09,0a.08.08,0,0,1,0,0,.06.06,0,0,1,0,0,.37.37,0,0,1-.07.19L57,6.81a1.45,1.45,0,0,0-.1.18,1.74,1.74,0,0,0-.1.19,2.4,2.4,0,0,0-.17.4c0,.12-.08.24-.11.36a3.45,3.45,0,0,0,.34,2.88c.09.12.2.29.33.48s.48.75.74,1.19l.39.68.38.66.34.61.27.5c.08.15.14.28.18.37A.59.59,0,0,1,59.53,15.49Z"/><path class="cls-3" d="M69.1,18.76c-.12-.09-.25-.18-.36-.28l-.15-.12c-.17-.13-.33-.27-.5-.42-.32-.3-.64-.6-.94-.9-.61-.6-1.2-1.22-1.82-1.81l-.18-.17a1.24,1.24,0,0,1-.2-.28.28.28,0,0,1,0-.2,0,0,0,0,1,0,0s0,0,0,0l0,0,0,0h0a.5.5,0,0,1,.1-.11l.13-.11a3.5,3.5,0,0,1,.48-.33c.25-.09.16-.19.5-.19a.19.19,0,0,1,.12.07,1.68,1.68,0,0,1,.19.24c.07.09.12.17.17.22l0,.09,0,.14a.25.25,0,0,1,0,.07.29.29,0,0,1,0,.09s0,.07,0,.08h0l0,0v0l0,0,0,0s0,.08,0,.28a1,1,0,0,0,.23.58c0,.06.09.11.13.16l.07.09.09.09.07.09c.21.28.4.54.59.78s.36.49.53.74.36.52.55.82A2.61,2.61,0,0,1,69.1,18.76Z"/><path class="cls-5" d="M73.73,19.83A23.36,23.36,0,0,1,69,15.65a35.49,35.49,0,0,0-2.72-3.16c-.53-.47-2.19.6-3.08.18-.49-.24-1.88-2.12-2.43-2.54a24.16,24.16,0,0,1-2.9-3.8c-1-1.45-1.17-1.29-2.75-1.14-.28,0-1.1,0-1.85,0-.44,0-1.41-.47-1.64-.46-.57,0-1.1-.56-1.74-1.17C49,2.75,48.63,2.06,47.81,2c-1.87-.15-3-1.75-4.13-2C43.08-.12,42,1.65,41,2.13s-1.43.1-2.5.75a37.68,37.68,0,0,1-5.15,5.51A3.49,3.49,0,0,1,32.22,9l.22,0,.08.07,2.75-1h0l.33-.29.12-.12L37,5.46h0l2-2h0l2.5-.5,2-2,2,1,3.5,2h0l0,0,.13.1.48.41c.13.1.27.22.41.35l.65.6s.11.1.16.16a2.54,2.54,0,0,1,.28.29,2.09,2.09,0,0,1,.14.17.93.93,0,0,1,.18.28.22.22,0,0,1,0,.1v0s0,0,0,0l0,0,.16,0a19.52,19.52,0,0,0,3.66-1l.17,0,.3-.11.44-.15.13,0,0,0L58.07,8h0c.21.27,3.51,4.53,4,5.5a.4.4,0,0,0,.13.16.57.57,0,0,0,.13.08h0l.08,0h.06l.09,0,.24,0h.08a4.74,4.74,0,0,0,.87-.1l.31-.07.14,0a7.15,7.15,0,0,0,.7-.21l.64-.23.3-.11.19-.08,2,3a45.76,45.76,0,0,1,2.5,5c0,.5-6,.5-6,.5L57.07,18l-1.45-1.21h0a40.43,40.43,0,0,0-9.27,1.63,42.75,42.75,0,0,1-5.25,1l-1,1h0L15.52,21V18.47c0-.07.12-.22.32-.42l.17-.16.21-.18a5.79,5.79,0,0,1,.44-.39L17,17c.7-.56,1.53-1.2,2.25-1.74l.22-.17.46-.34a2.39,2.39,0,0,1,.22-.16l.18-.14-.23,0-.93.07v.69h-.49V15a2.13,2.13,0,0,0-.21.22c0-.06-.1.08-.1.08s-.06,0-.08,0,0,0-.06,0-.06,0-.08.06-.11,0-.09-.08v0s-.05.08-.06.08,0-.07-.06-.08h0a0,0,0,0,1,0,0c-.26.22-.54.43-.82.63a1.4,1.4,0,0,0,.47.08h.19l-.07.06a2.4,2.4,0,0,1-.42.2l-.15.05a2,2,0,0,1-.71.06h0a1.88,1.88,0,0,1-.18.12l.17.1h0l.2.08a1.57,1.57,0,0,0,.49.08h0l-.2,0-.21,0-.3,0h-.09c-.28,0-.6.07-.91.09l-.11.06v.63h-.49v-.36l-.28.14-.31.16a6.67,6.67,0,0,1-3.45-3.32,3.46,3.46,0,0,0,2,.5H13l.29-.08.18-.08a1.14,1.14,0,0,0,.3-.21l.12-.12,0,0a2.71,2.71,0,0,1-.58-.12h0a1,1,0,0,1-.21,0l0,0s0,0,0,0a4.41,4.41,0,0,1-3-3.05,5.18,5.18,0,0,0,3.2,1.43C10.45,9.74,8.38,3.88,8,1.61,7.63,3.88,5.57,9.74,2.7,12.28a5.21,5.21,0,0,0,3.21-1.43,4.49,4.49,0,0,1-4.15,3.26,3.29,3.29,0,0,0,3.54,0c-.11.22-1.87,3.91-5.3,3.5a5.62,5.62,0,0,0,5.61.52,5.87,5.87,0,0,1-3.76,1.59,46.18,46.18,0,0,0,5.72.63v1.7l-.12.05-1.72.75H38.61c6.88-.26,11,0,15.45,0H81.19C79.43,22,75.64,21.25,73.73,19.83Zm-63.59.86s0,0,0,0H10s-.07,0-.09,0,0,.05,0,.07,0,0-.06,0,0,0,0,.05H9.76l-.06,0h0a.25.25,0,0,0,.09.09c0,.07,0,.1,0,.1s.18,0,.13.05l-1,.38V20.34l.7,0h.09s-.09,0-.09,0l0,.05a.15.15,0,0,0,.18.08s.07,0,.06.05-.05,0-.06,0,.06.07.07,0l.11,0h0a.1.1,0,0,1,0,0v0h0s0,0,0,0,.06,0,.09,0l0,0S10.14,20.68,10.14,20.69ZM11.63,19a6,6,0,0,1-1.2-.87,5,5,0,0,0,1.75.52C12,18.77,11.81,18.89,11.63,19Z"/><path class="cls-1" d="M62.34,13.71h0Z"/><path class="cls-5" d="M68.07,16l-2-3-.19.08-.3.11-.64.23a7.15,7.15,0,0,1-.7.21l-.14,0-.31.07a3.35,3.35,0,0,1-1.19.08l-.09,0h-.06l-.08,0h0a.57.57,0,0,1-.13-.08.4.4,0,0,1-.13-.16c-.48-1-3.78-5.23-4-5.5h0L56.51,5.19l0,0-.13,0-.44.15-.3.11-.17,0a19.52,19.52,0,0,1-3.66,1l-.16,0,0,0s0,0,0,0v0a.44.44,0,0,0,0-.1,1.61,1.61,0,0,0-.18-.28,2.09,2.09,0,0,0-.14-.17l-.28-.29c0-.06-.11-.11-.16-.16l-.65-.6-.41-.35-.48-.41L49.1,4l0,0h0l-3.5-2-2-1-2,2-2.5.5-2,2L35.76,7.62l.18-.17.21-.21c.29-.29.62-.63,1-1.08l.17-.2,0-.07.12-.14,0,0,.08-.11.13-.17a1.6,1.6,0,0,1,.16-.19L38,5.07c.42-.44.75-.5,1-.32l.11.09a2.9,2.9,0,0,1,.54,1.33v0a.82.82,0,0,1,0,.18.56.56,0,0,1,0,.12h0a1.21,1.21,0,0,1,0,.14,3.43,3.43,0,0,1-.12.33l-.15.37-.15.38h0a1.42,1.42,0,0,1-.08.18h0a1.34,1.34,0,0,1-.07.18c-.07.18-.13.35-.17.49a.93.93,0,0,0,0,.13.54.54,0,0,0,0,.26c.05.13.09.25.13.34a.78.78,0,0,0,.12.21c.1.08.22,0,.43-.16a7.65,7.65,0,0,0,.75-.9L40.55,8l.05-.07c0-.08.11-.21.18-.37s.09-.22.15-.35.11-.28.18-.43l.2-.48c.17-.42.36-.88.56-1.34.08-.19.16-.37.25-.56s.29-.63.45-.92A7.17,7.17,0,0,1,43,2.69l.13-.2a3,3,0,0,1,.26-.32c.32-.36.63-.49.9-.24l1,1c.37.35.74.7,1.21,1.1.27.23,1.91-.14,2.23,0l0,0a0,0,0,0,1,0,.06.59.59,0,0,1-.22.32c-.25.18-.62.19-.87.4a.64.64,0,0,0-.13.15.77.77,0,0,1-.39.24,4.92,4.92,0,0,1-.63.14l-.32.06a1.21,1.21,0,0,0-.67.27c-.1.17-.21.32-.3.47L44.78,7l-.48.73-.55.82c-.26.41-.52.81-.8,1.27l-.28.47c-.19.33-.4.69-.62,1.09l-.28.51a.81.81,0,0,1-.14.19l-.11.13-.14.14h0l-.34.34-.4.4-.21.2-.22.21-.44.42c-.29.28-.56.54-.77.77l-.19.21a1.89,1.89,0,0,0-.25.32.31.31,0,0,0-.05.1,4.4,4.4,0,0,1-.43.74l-.35.51a1.88,1.88,0,0,1-.18.24h0c-.06.08-.11.16-.17.23l-.16.2a.64.64,0,0,1-.13.15h0c-.09.09-.15.15-.17.14s0,0,0,0a4.53,4.53,0,0,1,.12-1c0-.11,0-.22.07-.32a.83.83,0,0,1,0-.15,2.82,2.82,0,0,1,.07-.31,3.41,3.41,0,0,0,0-1.49,1.55,1.55,0,0,1,0-.21,1.42,1.42,0,0,1,0-.2,7.11,7.11,0,0,1-.08-1.63l0-.43h0c0-.26,0-.5.08-.7a1.54,1.54,0,0,0,0-.55.09.09,0,0,0,0-.06s0,0,0,0a.14.14,0,0,0-.11,0l-.08,0-.2.12-.16.13-.49.42-.19.18c-.81.75-1.2,1.22-1.46,1.47l-.14.12a.46.46,0,0,1-.14.07c-.14,0-.27,0-.47-.18s-.12-.09-.18-.15l-.05-.05c-.06,0-.07-.2-.12-.36a1.67,1.67,0,0,0-.08-.2L33.17,12a.51.51,0,0,0-.49-.13l-.13,0-.15,0c-.15.06-.33.15-.53.25-.67.35-1.49.9-1.78,1.07l-.07.05h-.14l-.07,0c-.15-.11.09-.46.55-.94l.08-.08a1.21,1.21,0,0,1,.16-.16,1.37,1.37,0,0,1,.17-.17c.72-.7,1.71-1.56,2.62-2.31l.43-.37h0l.4-.34c.41-.34.77-.63,1-.86L32.52,9,32.44,9l-.22,0h0l-5.43,1c-.65-.44-1.23-.76-1.63-.55-1.05.54-3.05,2.63-4.44,3.93a2.29,2.29,0,0,1-.87-1,1.13,1.13,0,0,0,1.23,0,1.58,1.58,0,0,1-1.46-1.15,1.83,1.83,0,0,0,1.13.51A8,8,0,0,1,18.84,8,8,8,0,0,1,17,11.74a1.85,1.85,0,0,0,1.13-.51,1.58,1.58,0,0,1-1.47,1.15,1.16,1.16,0,0,0,1.25,0,2.27,2.27,0,0,1-1.42,1.22,8.72,8.72,0,0,1-1.52-3.42,8.26,8.26,0,0,1-1.81,3.71s0,0,0,0l0,0a1,1,0,0,0,.21,0h0a1.79,1.79,0,0,0,.89-.48,1.44,1.44,0,0,1-.31.6l0,0-.12.12a1.14,1.14,0,0,1-.3.21l-.18.08-.29.08h-.22a1.17,1.17,0,0,0,1.24,0,2,2,0,0,1-1.86,1.22,2,2,0,0,0,2,.21,2.06,2.06,0,0,1-1.31.54,16.36,16.36,0,0,0,2,.22v.32a0,0,0,0,1,0,0v.37h.48v-.68h.11c.31,0,.63-.06.91-.09h.09l.3,0,.21,0,.2,0h0a1.57,1.57,0,0,1-.49-.08l-.2-.08h0l-.17-.1h0a2.22,2.22,0,0,1-.39-.28,1.87,1.87,0,0,0,.58.16h0a2,2,0,0,0,.71-.06l.15-.05a2.4,2.4,0,0,0,.42-.2l.07-.06h-.19a1.4,1.4,0,0,1-.47-.08h0a2.28,2.28,0,0,1-1.18-1.15,1.17,1.17,0,0,0,1.24,0,1.58,1.58,0,0,1-1.46-1.16,1.81,1.81,0,0,0,1.13.51l0,0A1.75,1.75,0,0,0,18,13.83a2,2,0,0,1-1.3.54,16.36,16.36,0,0,0,2,.22v.68h.48v-.69h0l.93-.07.24,0h0l-.18.14a2.39,2.39,0,0,0-.22.16l-.46.34-.22.17c-.72.54-1.55,1.18-2.25,1.74l-.35.29a5.79,5.79,0,0,0-.44.39l-.21.18-.17.16c-.2.2-.32.35-.32.42V21L40,20.47h0l1-1h0a42.75,42.75,0,0,0,5.25-1,40.43,40.43,0,0,1,9.27-1.63h0L57.07,18l7.5,3.51s6,0,6-.5A45.76,45.76,0,0,0,68.07,16ZM25.32,17.58a2.17,2.17,0,0,1,0,.26h0a1.19,1.19,0,0,1-.15.46h0a.77.77,0,0,1-.14.19l-.1.1a2.37,2.37,0,0,1-1.13.48,1.52,1.52,0,0,0-.44.08l-.18.06h0l-.35.15a6.43,6.43,0,0,1-1.65.62h0s0,0,0,0a0,0,0,0,1,0,0c0-.09.18-.33.4-.59s.58-.69.58-.85a.06.06,0,0,0,0,0s0,0,0,0l-.09,0a3.19,3.19,0,0,0-1.08.26,7,7,0,0,1-1.82.55,11.21,11.21,0,0,0-1.5.23,4.55,4.55,0,0,1-.53,0h0a2.48,2.48,0,0,1-.54-.06A4.65,4.65,0,0,0,18,18.39c.67-.66,1.15-1.46,1.82-2.14a5.47,5.47,0,0,1,.85-.72,1.2,1.2,0,0,0,.35-.36,3.14,3.14,0,0,0,.18-.31,12.49,12.49,0,0,1,.53-1.18A1.46,1.46,0,0,1,22,13.4a1,1,0,0,1,.28-.22c.18-.11,1.61-1.42,1.94-1.29,0,0,0,0,.05,0s0,.13,0,.28l-.06.19a1.16,1.16,0,0,0,0,.18,2.29,2.29,0,0,0-.07.34,4.82,4.82,0,0,0,0,.62,2.71,2.71,0,0,0,0,.29,4.4,4.4,0,0,0,1.15,2.27c0,.25.06.5.08.73a5.42,5.42,0,0,1,.05.66ZM29,11.33l-.24-.08a3.82,3.82,0,0,1-.71-.39c.17-.06.35-.12.55-.17.59-.17,1.28-.33,1.88-.46h0l-.32.29c-.64.58-.89.82-1.08.81Zm30.57,4.16A11,11,0,0,1,57.19,13c-.58-.77-1.12-1.54-1.51-2.06l-.34-.43c-.24-.28-.86-1-1.21-1.49h0a0,0,0,0,0,0,0s0,0,0,0a2.93,2.93,0,0,0,0,.56,1.64,1.64,0,0,0,0,.22c0,.06,0,.12,0,.17h0c0,.3,0,.54,0,.5h0c-.07-.11-.42-.81-.77-1.49s-.69-1.38-.72-1.46a1.34,1.34,0,0,1-.07-.18,1.48,1.48,0,0,1-.1-.27.7.7,0,0,1,0-.4.22.22,0,0,1,0-.11s0,0,0-.06h0c.22-.08,3.07-.27,3.2-.27s.7.14.91.14H57l.09,0a.08.08,0,0,1,0,0,.06.06,0,0,1,0,0,.37.37,0,0,1-.07.19L57,6.81a.78.78,0,0,0-.11.18,1.74,1.74,0,0,0-.1.19,2.4,2.4,0,0,0-.17.4c0,.12-.08.24-.11.36a3.5,3.5,0,0,0,.35,2.88c.09.12.2.29.32.48s.48.75.74,1.19l.39.68.38.66c.12.21.24.42.34.61s.2.36.27.5.14.28.18.37a.46.46,0,0,1,.07.18Zm9.58,3.28h0c-.12-.09-.25-.18-.36-.28l-.15-.12c-.17-.13-.33-.27-.5-.42-.32-.29-.64-.59-.94-.9-.61-.6-1.2-1.22-1.82-1.81l-.18-.17a1,1,0,0,1-.2-.28.28.28,0,0,1,0-.2,0,0,0,0,1,0,0s0,0,0,0l0,0,0,0h0a.5.5,0,0,1,.1-.11l.13-.11a3.5,3.5,0,0,1,.48-.33c.25-.09.16-.19.5-.19a.19.19,0,0,1,.12.07,1.18,1.18,0,0,1,.19.24c.07.09.12.17.17.22l0,.09,0,.14a.25.25,0,0,1,0,.07.29.29,0,0,1,0,.09s0,.07,0,.08h0l0,0v0l0,0,0,0a.74.74,0,0,0,0,.28,1,1,0,0,0,.22.58c0,.06.09.11.13.16l.07.09.09.09.07.09.59.78c.19.25.36.49.53.74s.36.52.55.82c.07.09.13.2.2.3Z"/><path class="cls-5" d="M24.25,12.22l-.06.19a1.33,1.33,0,0,0,0-.19.38.38,0,0,0,0-.28S24.29,12.07,24.25,12.22Z"/><path class="cls-5" d="M34.14,13.05c-.14,0-.27,0-.47-.18C33.86,13,34,13.09,34.14,13.05Z"/><path class="cls-5" d="M43.75,8.57c-.26.41-.52.81-.8,1.27C43.22,9.38,43.48,9,43.75,8.57Z"/><path class="cls-5" d="M48.64,4.45a.67.67,0,0,0,.21-.32.07.07,0,0,0,0-.06,0,0,0,0,1,0,.06A.59.59,0,0,1,48.64,4.45Z"/><path class="cls-5" d="M54.14,10.54a1.39,1.39,0,0,0,0-.5C54.17,10.34,54.18,10.58,54.14,10.54Z"/><path class="cls-5" d="M57.17,11.3c-.13-.19-.24-.36-.33-.48a3.45,3.45,0,0,1-.34-2.88,3.5,3.5,0,0,0,.35,2.88C56.94,10.94,57.05,11.11,57.17,11.3Z"/><path class="cls-5" d="M57.05,6.72,57,6.81a.78.78,0,0,0-.11.18,1.45,1.45,0,0,1,.1-.18Z"/><path class="cls-5" d="M59.29,14.94l-.27-.5C59.12,14.62,59.22,14.8,59.29,14.94Z"/><path class="cls-5" d="M59.54,15.49h0a.59.59,0,0,0-.06-.18A.46.46,0,0,1,59.54,15.49Z"/><path class="cls-5" d="M66.9,15.71a1,1,0,0,1-.23-.58c0-.2,0-.25,0-.28a.74.74,0,0,0,0,.28A1,1,0,0,0,66.9,15.71Z"/><path class="cls-5" d="M66.81,14.73l0,0,0,0h0Z"/><path class="cls-5" d="M14.79,17.13v.37h0v-.36A0,0,0,0,1,14.79,17.13Z"/><path class="cls-5" d="M37.05,5.46,35.76,7.62s0,0,0,0h0L37,5.46Z"/><polygon class="cls-5" points="39.05 3.46 37.05 5.46 39.04 3.46 39.05 3.46"/><path class="cls-5" d="M62.87,13.8h0Z"/><path class="cls-5" d="M62.84,13.81l-.24,0-.09,0Z"/><path class="cls-1" d="M10.16,30l4.27,0c-.14,1.35-.22,2-.36,3.39l-1,0-1.2,12,1-.14-.35,3.38c-1.56.26-2.31.41-3.75.71L9,45.86l.91-.14c.17-2,.25-2.95.41-4.92-1.65.18-2.46.27-4,.47l-.21,5.12.87-.17L6.74,49.8c-1.36.32-2,.48-3.24.83V46.91l.8-.17c.07-5.21.11-7.81.18-13l-1,.05V30l4.25,0-.18,3.59-1,0-.17,4.15c1.65-.14,2.48-.21,4.18-.33l.33-4-1,0Z"/><path class="cls-1" d="M18.14,48.14A2.34,2.34,0,0,1,16.9,48a2.79,2.79,0,0,1-1-.79,5.08,5.08,0,0,1-.76-1.35A9.63,9.63,0,0,1,14.64,44a15.32,15.32,0,0,1-.19-2.23,18.65,18.65,0,0,1,.12-2.54A20.86,20.86,0,0,1,15,36.65a18.4,18.4,0,0,1,.73-2.31,12.66,12.66,0,0,1,1-2,8.22,8.22,0,0,1,1.14-1.49A5,5,0,0,1,19.13,30a2.88,2.88,0,0,1,1.34-.33,2.65,2.65,0,0,1,1.27.31,3.47,3.47,0,0,1,1,.92,6.06,6.06,0,0,1,.81,1.4,10,10,0,0,1,.53,1.82,12.79,12.79,0,0,1,.22,2.14,14,14,0,0,1-.12,2.39,15.91,15.91,0,0,1-.47,2.4A16.14,16.14,0,0,1,23,43.19a12.06,12.06,0,0,1-1,1.89,9.86,9.86,0,0,1-1.18,1.52,6.51,6.51,0,0,1-1.3,1A3.69,3.69,0,0,1,18.14,48.14Zm.47-3.71a2,2,0,0,0,1.11-.54,5.31,5.31,0,0,0,1-1.27,9.43,9.43,0,0,0,.76-1.78,12.84,12.84,0,0,0,.46-2.12A10.86,10.86,0,0,0,22,36.61a6.5,6.5,0,0,0-.32-1.73A3.13,3.13,0,0,0,21,33.71a1.31,1.31,0,0,0-1-.41,1.74,1.74,0,0,0-1.09.47A4.55,4.55,0,0,0,18,35a9.17,9.17,0,0,0-.75,1.83,13.59,13.59,0,0,0-.46,2.2,12.41,12.41,0,0,0-.07,2.17A7,7,0,0,0,17,43a2.72,2.72,0,0,0,.65,1.14A1.18,1.18,0,0,0,18.61,44.43Z"/><path class="cls-1" d="M26.61,29.92H30.9L30.6,33l-1.08,0c-.45,4.33-.68,6.5-1.13,10.83l2.39-.12a.3.3,0,0,0,.2-.09,1.42,1.42,0,0,0,.18-.22,2.09,2.09,0,0,0,.14-.3,1.63,1.63,0,0,0,.07-.3l.19-2.25,2.34-.07c-.17,2.46-.26,3.69-.43,6.14-3.69.14-5.48.25-8.91.54L24.93,44,26,44c.5-4.37.75-6.56,1.26-10.94l-1.06,0C26.38,31.79,26.46,31.17,26.61,29.92Z"/><path class="cls-1" d="M35.52,29.9h4.31l0,3h-1.1c-.12,4.24-.19,6.36-.31,10.6h1.22l-.05,3c-2,0-3.06,0-5,.1l.18-3,1.18,0,.55-10.63H35.34Z"/><path class="cls-1" d="M40.69,29.89h3.86a3.15,3.15,0,0,1,1.34.3,4.59,4.59,0,0,1,1.22.84,7.14,7.14,0,0,1,1.09,1.3A10.33,10.33,0,0,1,49.09,34a12.79,12.79,0,0,1,.64,2,13.59,13.59,0,0,1,.34,2.24,12.83,12.83,0,0,1,0,2.24,11,11,0,0,1-.39,2,7.69,7.69,0,0,1-.74,1.67,5.26,5.26,0,0,1-1,1.28,4.39,4.39,0,0,1-1.3.8,4,4,0,0,1-1.5.26c-1.79,0-2.67,0-4.52,0l0-3h.93l0-10.58h-.83Zm3.08,3L44,43.49l.95,0a1.8,1.8,0,0,0,1.13-.4A3.12,3.12,0,0,0,47,42a6.15,6.15,0,0,0,.53-1.68,9.4,9.4,0,0,0,.11-2.09,9.82,9.82,0,0,0-.33-2.09,7.73,7.73,0,0,0-.67-1.69,3.87,3.87,0,0,0-.91-1.12,1.63,1.63,0,0,0-1.06-.41Z"/><path class="cls-1" d="M57.21,44l1,.07-.72-2.52c-1.27-.08-1.92-.11-3.21-.17-.1,1-.16,1.45-.26,2.42l1.13.06L55.48,47c-1.63-.12-2.47-.17-4.16-.25-.09-1.22-.13-1.83-.23-3l.82,0c.74-5.48,1.06-8.23,1.63-13.82h2.65c1.65,5.67,2.5,8.54,4.19,14.37l.73.07.34,3.18c-1.54-.17-2.32-.24-3.93-.38C57.4,45.9,57.34,45.27,57.21,44Zm-2.62-5.48,2.09.09L55.09,33C54.9,35.24,54.8,36.35,54.59,38.55Z"/><path class="cls-1" d="M59.06,29.91h4.28c.13,1.31.2,2,.33,3.28l-.83,0c.7,1.66,1,2.49,1.74,4.19l1-4.12-.94,0-.33-3.29h4.28c.1,1.36.15,2,.26,3.41l-.72,0c-.93,3-1.36,4.43-2.23,7.28.16,1.71.24,2.56.41,4.27l1.14.14.3,3.33c-1.65-.26-2.5-.37-4.26-.59-.13-1.29-.2-1.93-.33-3.22l1.08.11c-.17-1.7-.26-2.55-.43-4.25-1.39-3-2.11-4.42-3.52-7.28H59.4C59.26,31.82,59.19,31.19,59.06,29.91Z"/><path class="cls-1" d="M74.56,35.52a4,4,0,0,0-.18-.86A2.6,2.6,0,0,0,74,34a1.73,1.73,0,0,0-.45-.48.86.86,0,0,0-.52-.18.91.91,0,0,0-.44.08.92.92,0,0,0-.35.3,1.51,1.51,0,0,0-.22.53A3.13,3.13,0,0,0,72,35a3,3,0,0,0,.17.91,2.46,2.46,0,0,0,.34.58,2.16,2.16,0,0,0,.44.37c.15.09.3.2.45.31.69.52,1,.79,1.7,1.33a3.06,3.06,0,0,1,.65.78,5.28,5.28,0,0,1,.51,1.17A10,10,0,0,1,76.6,42a16.19,16.19,0,0,1,.12,2,14.85,14.85,0,0,1-.22,2.63,7.52,7.52,0,0,1-.57,1.93A2.67,2.67,0,0,1,75,49.64a1.47,1.47,0,0,1-1.18.2,2.22,2.22,0,0,1-.9-.44,3.85,3.85,0,0,1-.83-.87,7.39,7.39,0,0,1-.71-1.22,9.48,9.48,0,0,1-.53-1.53l-.61-.09L70,41.94l2.18.25,0,.79A6.79,6.79,0,0,0,72.37,44a3.5,3.5,0,0,0,.3.88,2.09,2.09,0,0,0,.44.62,1.06,1.06,0,0,0,.59.29.65.65,0,0,0,.75-.4A3.24,3.24,0,0,0,74.66,44a3.29,3.29,0,0,0-.11-.84,2.69,2.69,0,0,0-.26-.59,2.44,2.44,0,0,0-.35-.42l-.38-.33c-.55-.45-.83-.67-1.4-1.1a4.48,4.48,0,0,1-.8-.78,6.37,6.37,0,0,1-.73-1.19,8.75,8.75,0,0,1-.56-1.62A11,11,0,0,1,69.75,35a9.2,9.2,0,0,1,.09-2.39,5.05,5.05,0,0,1,.61-1.77,2.87,2.87,0,0,1,1-1.07,2.71,2.71,0,0,1,1.41-.38A2.35,2.35,0,0,1,74,29.7a3.18,3.18,0,0,1,1,.72,4.36,4.36,0,0,1,.71,1.09,6.46,6.46,0,0,1,.44,1.28l.63,0v4l-2.19-.15Z"/><polygon class="cls-5" points="17.7 56.99 15.57 61.51 12.38 56.51 17.7 56.99"/><polygon class="cls-5" points="68.8 56.96 65.62 61.96 63.51 57.44 68.8 56.96"/><path class="cls-5" d="M19.59,61.34c-1,.52-2,1.1-3,1.72-.82.5-1.64,1-2.47,1.6l1.48-3.15L17.7,57Z"/><path class="cls-3" d="M66.89,64.66c-.4-.31-1.1-.82-2.06-1.45s-1.84-1.16-3-1.81l1.71-4L65.62,62Z"/><line class="cls-3" x1="15.57" y1="61.51" x2="17.7" y2="56.99"/><path class="cls-5" d="M66.89,64.66c-.4-.31-1.1-.82-2.06-1.45s-1.84-1.16-3-1.81l1.71-4L65.62,62Z"/><path class="cls-5" d="M67.29,65l-6.74,7.67c-19.63-15.33-40.17-.16-40.17-.16l-6.29-7.83c.83-.56,1.65-1.1,2.47-1.6,1-.62,2-1.2,3-1.72,18.49-9.81,34.27-4.26,42.21.06,1.19.65,2.21,1.27,3,1.81s1.66,1.14,2.06,1.45Z"/><path class="cls-4" d="M29.48,65.69Q28.6,63,27.65,60.35c1.19-.39,2.4-.73,3.62-1l.15.6c-.92.22-1.84.47-2.75.75l.55,1.69c.76-.23,1.52-.44,2.29-.63,0,.18.1.36.14.55-.76.18-1.51.39-2.26.62.21.65.41,1.3.62,2,.87-.27,1.76-.5,2.65-.71,0,.2.09.41.14.61C31.68,65,30.57,65.33,29.48,65.69Z"/><path class="cls-4" d="M34.37,64.45l-.67.13c-.38-1.84-.76-3.68-1.16-5.52l.85-.16a38.49,38.49,0,0,1,3.46,3.55l.3.42-.06-.44-.42-4,.8-.07c.16,1.87.32,3.75.47,5.62l-.73.06a38.59,38.59,0,0,0-3.33-3.6l-.35-.4c0,.15.07.29.1.44C33.89,61.81,34.13,63.13,34.37,64.45Z"/><path class="cls-4" d="M38.57,63l.77,0v0a.49.49,0,0,0,.38.46,1.62,1.62,0,0,0,.4.05.92.92,0,0,0,.43-.11.65.65,0,0,0,.29-.32,3.34,3.34,0,0,0,.1-1c0-1.29,0-2.58,0-3.87h.87c0,1.3-.06,2.59-.1,3.88a2.68,2.68,0,0,1-.23,1.26,1.32,1.32,0,0,1-.51.49,1.68,1.68,0,0,1-.81.17,1.73,1.73,0,0,1-1.2-.3,1,1,0,0,1-.39-.73Z"/><path class="cls-4" d="M45,64.29a2.44,2.44,0,0,1-1.7-.94,3.31,3.31,0,0,1-.58-2.25,2.94,2.94,0,0,1,.89-2.16,2.63,2.63,0,0,1,2.11-.58,2.55,2.55,0,0,1,1.9,1,2.86,2.86,0,0,1,.34,2.3,3.31,3.31,0,0,1-1.1,2A2.38,2.38,0,0,1,45,64.29Zm.06-.56a1.51,1.51,0,0,0,1.34-.49,3.31,3.31,0,0,0,.74-1.67,2.8,2.8,0,0,0-.2-1.81,1.57,1.57,0,0,0-1.29-.85,1.62,1.62,0,0,0-1.46.53,2.72,2.72,0,0,0-.63,1.71,3.09,3.09,0,0,0,.32,1.79A1.49,1.49,0,0,0,45.05,63.73Z"/><path class="cls-4" d="M50.38,65.16,49.66,65l.66-2.57c-.39-1.13-.83-2.25-1.33-3.36l1,.21c.36.86.69,1.72,1,2.58q1.05-.9,2.19-1.74l.8.26c-1,.72-2,1.47-2.87,2.25Z"/><path class="cls-8" d="M19.59,61.34c-1,.52-2,1.1-3,1.72-.82.5-1.64,1-2.47,1.6l1.48-3.15L17.7,57Z"/><path class="cls-8" d="M66.89,64.66c-.4-.31-1.1-.82-2.06-1.45s-1.84-1.16-3-1.81l1.71-4L65.62,62Z"/></g></g></svg>