<svg xmlns="http://www.w3.org/2000/svg" viewBox="0 0 70 173.53"><defs><style>.cls-1{fill:#ffffff;}</style></defs><title>Tattoos08</title><g id="Calque_2" data-name="Calque 2"><g id="Tatoo_08_-" data-name="Tatoo 08 -"><path class="cls-1" d="M50.71,85.56c.42-.5.59-.76.81-1,4.63-4.22,7.75-9.45,10.3-15.1.27-.6,1.07-1.53,1.4-1.44a4,4,0,0,1,2.11,1.46,10.69,10.69,0,0,1,1,2.64,38.47,38.47,0,0,0,1.56-7c1.19-9.12.16-17.87-5.56-25.38A115.19,115.19,0,0,0,51.81,28.06C44,20.26,37.35,11.7,34.13.91A5.1,5.1,0,0,0,33.59,0c0,1.06,0,1.68,0,2.3.19,6.64,3,12.29,6.94,17.39,4.36,5.69,9.09,11.1,13.55,16.72,4.74,6,8.46,12.49,10,20.05.36,1.74.56,3.52.84,5.29-1.79.16-2.49-.38-2.69-2a35.57,35.57,0,0,0-13.32-23.9c-6.71-5.49-12.47-11.78-16.17-19.75-.1-.22-.19-.45-.28-.67a26.86,26.86,0,0,0,3,12.2,36.08,36.08,0,0,0,8,10.07c-3.39,0-6.3.23-9,2.32l3,.89a40.55,40.55,0,0,1,11,5C57,51.55,59.6,60.42,55.63,69.79a31.32,31.32,0,0,1-7.05,10,18.75,18.75,0,0,1-29.49-4.31c-3-5.55-3.34-11.5-2.43-17.6.08-.57.17-1.13.26-1.7s.18-1.11.31-1.89c-.34.26-.45.31-.49.38-4.2,9-4.78,17.9.78,26.61,1,1.62,1,2.84-.36,4.51-1.17-1.5-2.38-2.91-3.45-4.43-4.18-6-6.11-12.47-4.07-19.76a31.88,31.88,0,0,1,6.75-11.83c1.19-1.41,2.5-2.71,4.06-4.39a18.75,18.75,0,0,0-1.8.69,23.16,23.16,0,0,0-7.59,6.13C0,66.28,5.22,88.43,21.58,96.39c.81.39,1.64.73,2.79,1.24C23.1,94,22,90.7,22.9,86.92a22.6,22.6,0,0,0,14.36,4.39c-.46.55-1,.87-1.4,1.3-2.58,2.62-5.32,5.11-7.64,8-2.46,3-2.3,3.17-5.81,1.26-2.54-1.39-5-2.87-7.9-4.51-7.44,20.67-10.37,41.5-5.75,63l.81.05V145.27c7.38,4.89,12.54,11.31,18.13,17.5-1.09-14.21,3.93-25.49,15.58-33.73-9.78,3.22-16.35,9.79-20.49,19.41a60.54,60.54,0,0,0-11.46-11.19,2.67,2.67,0,0,1-.62-2.17c.95-5.16,1.82-10.35,3.1-15.44,1.12-4.46,2.73-8.8,4.15-13.26l4.82,3q-2.87,8.66-5.69,17.26c.65.13.87.11,1,0,5.37-3.74,11.45-5.85,17.58-7.89,4.25-1.42,8.43-3,12-5.88,6.22-5,9.62-11.87,12.2-19.22,0-.07-.07-.18,0-.11-4.4,1.74-8.83,3.39-13.17,5.24a23.84,23.84,0,0,0-10,8.54C41.19,105,45.7,102.67,51.1,102c-6.71,7.2-17.08,14.06-24,12.77A30.27,30.27,0,0,1,31.33,105C35.05,99.3,40.55,96,46.74,93.63c5.4-2,10.87-3.87,16.31-5.79.36-.13.72-.24,1.28-.42a73.8,73.8,0,0,1-6.45,19.68A29.68,29.68,0,0,1,41,122c-2.94,1-5.9,2-8.82,3.13a30.22,30.22,0,0,0-8.47,4.42c2.88-.78,5.58-1.65,8.35-2.21,7.51-1.52,15.35-2,21.62-7.12,2.09,2.37,2,2.88-.45,4.41a33.28,33.28,0,0,0-8.73,7.7c-4.6,5.81-6.63,12.64-8,19.75-.1.51-.21,1-.29,1.53s-.09.92-.14,1.38c5.76-13,13.41-24.45,25.49-31.84-1.41-1.87-2.73-3.45-3.82-5.17a2.33,2.33,0,0,1,.19-2.09,45.18,45.18,0,0,0,6-11.41,116.45,116.45,0,0,0,5.62-24.59c.18-1.29.29-2.6.43-3.91C64.57,81.21,57.88,83.48,50.71,85.56Z"/><path class="cls-1" d="M20.65,66.52c1.21,6.12,4.18,11,10.59,12.6,7.06,1.81,17-3,20.22-9.6,4.39-8.86-1.84-21-11.61-22.65C33.51,45.81,26.36,50,24.55,55.8c-1.52,4.9-.16,9.54,3.74,11.81a12.09,12.09,0,0,0,11.11.58A5,5,0,0,0,42.61,63c-.13-2.65-1.16-5-3.75-6a6.23,6.23,0,0,0-3.6.06,2.59,2.59,0,0,0-2,2.81,2.7,2.7,0,0,0,2.25,2.47,8.46,8.46,0,0,1,.8.28l.09.41a6.21,6.21,0,0,1-2,.85c-3.13.1-6-4.49-4.63-7.3a7.72,7.72,0,0,1,11-3.4,20.12,20.12,0,0,1,4,3.13,8.64,8.64,0,0,1,1.34,10.87,14.39,14.39,0,0,1-10.62,7.16,10,10,0,0,1-11-5.52,22.78,22.78,0,0,1-2-5.86c-.49-2.51-.57-5.1-.83-7.66-.07,0-.18.09-.23.16a1.59,1.59,0,0,0-.19.42A23.88,23.88,0,0,0,20.65,66.52Z"/><path class="cls-1" d="M60.56,140.67c-4.43,7.29-8.1,15.05-14,21.59-.9-2.33-.83-4.6.09-7.62a63.46,63.46,0,0,1,6.64-14.06c2-3.41,4.19-6.78,6.28-10.17a69,69,0,0,0-13.54,14.94c-5.3,8-8.21,16.76-7.39,26.51.05.53.15,1.06.23,1.67.56-.2.92-.29,1.24-.44.52-.23,1-.5,1.53-.77a25.06,25.06,0,0,0,10.63-11.7c3.07-6.47,5.66-13.16,8.44-19.76C60.74,140.83,60.64,140.76,60.56,140.67Z"/><path class="cls-1" d="M11.17,94.77C2.37,82,2,68.37,6.94,54.19c-.21.28-.44.55-.63.85-7.22,11.8-8.39,24.11-2.76,36.8a10.3,10.3,0,0,1,.54,8.3c-2.66,7.71-2,19.25,1.23,29.06C4.6,117,3.41,105.11,11.17,94.77Z"/><path class="cls-1" d="M20.32,132a4.27,4.27,0,0,0-4.08,4.09,4.2,4.2,0,0,0,4.05,4.12,4.11,4.11,0,1,0,0-8.21Z"/></g></g></svg>