<svg xmlns="http://www.w3.org/2000/svg" viewBox="0 0 156.06 154.87"><defs><style>.cls-1{fill:#ffffff;}</style></defs><title>Tattoos02</title><g id="Calque_2" data-name="Calque 2"><g id="Tatoo_02_-" data-name="Tatoo 02 -"><path class="cls-1" d="M15.6,110.27c1.5.42,5.78,3.31,8-.43a29.82,29.82,0,0,1,6.42-7s10.37-7.28,15.19-9.84,8.12-3.1,10.05-3a12.74,12.74,0,0,0,4.38-.85S48.33,81.39,45.55,75.93c-.32,0-.53-1.06-.64,0s-.22,14.44-8,16.69c-.21.11-6,2.35-9.94-.75.32-.11-.86-1.71-1.07-.32s-.22,11.55-5.46,12.73-5.77,1.49-7.7.1-2.35-1.81-2-1.07a7,7,0,0,1,.21,2.36S14.1,109.84,15.6,110.27Z"/><path class="cls-1" d="M78.27,119.84a10,10,0,0,1,7.65,1.44c4.7,2.78,16.25,14.76,35.08,7.7a44.29,44.29,0,0,1,6.63-2.35s-7.7,20.75-36.15,23.53c.43-.43-5.35-.43-5.35-4.92s.86-15,.86-15,9,8.13,21.6,7.28c.43,0-5.91,5.92-13.34,6.41a29,29,0,0,0,.08-4.49L90,137.54v9.84s10,.85,16.9-2.78c.64-.65,10.27-7.49,10.48-10.91,0-.86-16.26,1.07-22-3.43,0-.64-9.63-5.77-9.63-5.77l-2.14-.86s-3.42,26.74-2.14,31.23c0,0,35.94.86,56.47-28,0-.43-4.49-10.48-24.38-3.21-1.07.43-15.4,4.5-25.88-4.27-.81-.41-6.25-6.39-9.36-7v-.06l-.24,0-.24,0v.06c-3.11.61-8.54,6.59-9.36,7-10.48,8.77-24.81,4.7-25.88,4.27-19.89-7.27-24.38,2.78-24.38,3.21,20.53,28.88,56.47,28,56.47,28,1.28-4.49-2.14-31.23-2.14-31.23l-2.14.86s-9.63,5.13-9.63,5.77c-5.77,4.5-22,2.57-22,3.43.22,3.42,9.84,10.26,10.48,10.91,6.85,3.63,16.9,2.78,16.9,2.78v-9.84l-5.35,1.92a29,29,0,0,0,.08,4.49c-7.42-.49-13.76-6.41-13.34-6.41,12.62.85,21.61-7.28,21.61-7.28s.85,10.49.85,15-5.77,4.49-5.35,4.92c-28.45-2.78-36.15-23.53-36.15-23.53A44.51,44.51,0,0,1,35.07,129c18.82,7.06,30.37-4.92,35.07-7.7a10,10,0,0,1,7.65-1.44Z"/><path class="cls-1" d="M155.22,69.2c-.53,0-36.79-4.17-36.79-4.17s-5.46,18.39-1.5,22.56,9.2,3.1,11.77.22,2.67-5.46,2.88-8.45-1-5.56-3.2-6.31-5-.54-5.67,1.17a25.94,25.94,0,0,0-1.18,6.63c0,1.39-1,3.53,1.5,2.78s2,1.07,3-1.92,2.25-3.21,1-3.42-1-.43-1.6.53-2,3.42-1.71,1.61.21-4.17.75-4.5a2.72,2.72,0,0,1,2.24,0,2.1,2.1,0,0,1,1.61,1.93c.32,1.5.85,2.14.32,3.42a10.68,10.68,0,0,1-2.46,3.21c-.43.32-4.81,2.25-5.24,1.39s-3-2.46-1.18-9,2.14-6.85,4.49-7.06,8.35-.11,9,2,1.28,1,1.92,4.81-1.17,9-1.49,12.09-.65,6.09,0,7.7a10.69,10.69,0,0,0,12.3,4.92c.64-.32,1.39-1,2-3.32s3.42-15.72,3.42-16.25a3.36,3.36,0,0,0-.43-2.68c-.85-1.49-1-3.21-2.14-3.21h-2.89c-.64,0-1.6-.74-1.71.33a7.51,7.51,0,0,1-1.07,3.1c-.64,1.17-3.2,10.8-3.2,10.8s-.65,2.78.1,3.31,2.14,1.18,2.68-.32a21.22,21.22,0,0,0,1.07-4.27c.1-1.07,2-7.6,2-7.6s-.32-2,.85-1.07,1.71.32,1.29,3.1-1.18,7.38-1.39,7.81-3.1,6.1-5,5.67a7,7,0,0,1-3.85-2.35,5.83,5.83,0,0,1-.21-3.21,58.75,58.75,0,0,0,.85-7l1.93-9.09S142.39,70.91,146,71s6.63,2.79,7.17,5.25a24,24,0,0,1,.21,6c0,1.29-3.42,17.65-7,23.32s-6.1,8.13-10,8-5.35.11-6.74-2.14S113,97.22,110.09,95.51s-12.94-4.18-18.4-2.14-7.16,1.6-7.91,1.28-2.57.54-2.68-2.25-1.39-7.91,2.46-9.3,4.71-2.46,7.06-2.89,5.46-3,3.85,0-1.6,3-3.1,4.17-3.21,2.14-3.21,1.29,1.5-2.14.75-2.25-3.1.64-3.53,1.39-1.28,2-1,2.57a3.71,3.71,0,0,0,4.6.75,59.1,59.1,0,0,0,7.59-4.92c1-.75,3-.32,2.14-2.57s.11-2.25-1.93-3.1-2.35-1-3.42-.64S89.77,78.39,88,78.5a34.44,34.44,0,0,0-3.85.43c-1.5.21-3.85.75-3.85.75s0-.22-1-.22H76.78c-1,0-1,.22-1,.22s-2.35-.54-3.85-.75a34.17,34.17,0,0,0-3.85-.43c-1.82-.11-4.38-1.28-5.45-1.6s-1.39-.22-3.42.64-1.07.85-1.93,3.1,1.18,1.82,2.14,2.57A59.1,59.1,0,0,0,67,88.13a3.71,3.71,0,0,0,4.6-.75c.32-.54-.53-1.82-1-2.57s-2.78-1.5-3.53-1.39.75,1.39.75,2.25-1.71-.11-3.21-1.29-1.5-1.17-3.1-4.17,1.5-.43,3.85,0,3.21,1.5,7.06,2.89,2.56,6.52,2.46,9.3S73,94.33,72.28,94.65s-2.46.75-7.91-1.28-15.51.42-18.4,2.14S27.79,109.2,26.4,111.44s-2.78,2-6.74,2.14-6.52-2.35-10-8-6.95-22-6.95-23.32a24,24,0,0,1,.21-6C3.41,73.8,6.4,71.12,10,71s5.77,4.18,5.77,4.18l1.93,9.09a58.75,58.75,0,0,0,.85,7,5.83,5.83,0,0,1-.21,3.21,6.93,6.93,0,0,1-3.85,2.35c-1.92.43-4.81-5.24-5-5.67s-1-5-1.39-7.81.11-2.14,1.29-3.1.85,1.07.85,1.07,1.93,6.53,2,7.6a21.22,21.22,0,0,0,1.07,4.27c.54,1.5,1.93.86,2.68.32s.1-3.31.1-3.31-2.56-9.63-3.2-10.8a7.51,7.51,0,0,1-1.07-3.1c-.11-1.07-1.07-.33-1.71-.33H7.26c-1.18,0-1.29,1.72-2.14,3.21a3.36,3.36,0,0,0-.43,2.68c0,.53,2.78,13.9,3.42,16.25s1.39,3,2,3.32a10.68,10.68,0,0,0,12.29-4.92c.65-1.61.33-4.6,0-7.7S20.31,80.53,21,76.68s1.28-2.67,1.92-4.81,6.63-2.25,9-2,2.67.53,4.49,7.06-.75,8.12-1.18,9-4.81-1.07-5.24-1.39a10.68,10.68,0,0,1-2.46-3.21c-.53-1.28,0-1.92.32-3.42a2.1,2.1,0,0,1,1.61-1.93,2.72,2.72,0,0,1,2.24,0c.54.33.43,2.68.75,4.5s-1.07-.65-1.71-1.61-.32-.75-1.6-.53,0,.42,1,3.42.53,1.18,3,1.92,1.5-1.39,1.5-2.78a25.94,25.94,0,0,0-1.18-6.63c-.64-1.71-3.42-1.92-5.66-1.17s-3.43,3.31-3.21,6.31.32,5.56,2.88,8.45,7.81,3.85,11.77-.22S37.63,65,37.63,65,1.38,69.2.84,69.2C-.76,72.08.31,84,1,92c0,7.7,12,29.3,12,29.3a14.78,14.78,0,0,0,2.14,1.5c1.28.75,3.63-.64,3.63-.64s1.29-1.82,1.82-2.68,9.09-6.41,16.47-3.1,17.22,3.32,20.64,2.35c3.61-1,17-10.16,18.93-11.44a2.45,2.45,0,0,1,2.94,0c1.92,1.28,15.32,10.43,18.93,11.44,3.42,1,13.26,1,20.64-2.35s15.94,2.25,16.47,3.1,1.82,2.68,1.82,2.68,2.35,1.39,3.64.64a15,15,0,0,0,2.13-1.5s12-21.6,12-29.3C155.75,84,156.82,72.08,155.22,69.2ZM51.86,98c6.09-1.39,12.72-1.72,18.07,1.17,0,0-9,.32-11.34,1.39s-7,6.63-9.94,7.92a29.72,29.72,0,0,1-8.24,1.71,11,11,0,0,1-1.28-.11S43.62,100.85,51.86,98Zm20.53,4.92s-8.56,10.8-19.89,10.9-10.59.11-12.19-.64-1.93-1-1.61-1.17,8.45-.65,11.55-2.57,9-7.38,15.19-7.49,7.06.11,7.06.11ZM104.2,98c8.24,2.88,12.73,12.08,12.73,12.08a11,11,0,0,1-1.28.11,29.72,29.72,0,0,1-8.24-1.71c-3-1.29-7.59-6.85-9.94-7.92s-11.34-1.39-11.34-1.39C91.48,96.25,98.11,96.58,104.2,98Zm11.56,15.18c-1.61.75-.86.75-12.2.64s-19.89-10.9-19.89-10.9l-.11-.86s.86-.21,7.06-.11,12.09,5.56,15.19,7.49S117,111.76,117.36,112,117.36,112.4,115.76,113.15Z"/><path class="cls-1" d="M119.18,92.62c-7.81-2.25-7.92-15.62-8-16.69s-.32,0-.64,0C107.73,81.39,96.4,89.2,96.4,89.2a12.74,12.74,0,0,0,4.38.85c1.93-.11,5.24.43,10.06,3S126,102.89,126,102.89a29.82,29.82,0,0,1,6.42,7c2.25,3.74,6.52.85,8,.43s4.71-4.6,4.71-4.6a7,7,0,0,1,.21-2.36c.32-.75-.11-.32-2,1.07s-2.46,1-7.7-.1-5.24-11.34-5.46-12.73-1.39.21-1.07.32C125.17,95,119.39,92.73,119.18,92.62Z"/><path class="cls-1" d="M78,78.09c14.17.15,28-6.75,28-6.75s.32-4.92.32-5.25-3-2.13-3-2.13H102l-3.42,5.56-7-2.36L88,72.4S82.49,69,81.85,69s-3,2.34-3.82,3.09c-.78-.75-3.28-3.09-3.82-3.09s-6.1,3.42-6.1,3.42l-3.63-5.24-7,2.36L54.1,64H52.71s-3,1.81-3,2.13.32,5.25.32,5.25S63.86,78.24,78,78.09Z"/><path class="cls-1" d="M61.05,14.55s1.29-.33.54-1.93-5-6-5-6L48.43,10.7l.32,3.2s5.89-1.71,5.57-1.81-.54-1.82-.54-1.82l3.42-.43-.1,2.78-8.88,3.21-3-4.49s-.11-1,.32-1.07,15.18-8.56,27.05-8a1.67,1.67,0,0,1,1.5,1.39c0,.42.11,6.52.11,6.52a3.16,3.16,0,0,1-.64.64c-.43.32-4.82.32-4.82.32L65.12,8.45l4.7-2.25.43,1.18-1.71,1.5S69.4,10,69.82,10A19.63,19.63,0,0,0,72.93,8L70.68,3.74S63.3,5,62.87,6.1s-1.39,1.6-1.17,2,5,6.2,5,6.2L76.24,14s.43-11.23.11-12.83C76,.21,74,0,73.67,0S59.88.86,55.81,2.57c-4.27,1.6-14.22,4.92-14.76,6.09A16.1,16.1,0,0,0,40,11c0,.32,7,9.19,7,9.19Z"/><path class="cls-1" d="M54.64,20.75c2.14.21,12.3,6.52,12.3,6.52s5.45-11.87,5.77-12.19C63.83,14.12,54.21,20.21,54.64,20.75Z"/><path class="cls-1" d="M89.34,14.33s4.81-5.77,5-6.2-.74-1-1.17-2-7.81-2.36-7.81-2.36L83.14,8A19.49,19.49,0,0,0,86.24,10c.42,0,1.28-1.07,1.28-1.07l-1.71-1.5.43-1.18,4.7,2.25-3.63,2.67s-4.39,0-4.82-.32a3.16,3.16,0,0,1-.64-.64S82,4.06,82,3.64a1.67,1.67,0,0,1,1.5-1.39c11.87-.54,26.63,7.91,27.05,8s.33,1.07.33,1.07l-3,4.49L99,12.62l-.1-2.78,3.42.43s-.21,1.71-.54,1.82,5.57,1.81,5.57,1.81l.32-3.2L99.5,6.63s-4.28,4.39-5,6,.54,1.93.54,1.93l14.11,5.66s7-8.87,7-9.19A16.1,16.1,0,0,0,115,8.66c-.54-1.17-10.48-4.49-14.76-6.09C96.18.86,82.71,0,82.39,0S80,.21,79.71,1.18c-.32,1.6.11,12.83.11,12.83Z"/><path class="cls-1" d="M108.7,60.53l45.66,5s-2.46-21.92-8.44-27.49c-4.28-5.66-10.7-15-12.09-15.08-1.07.54-9.84,3.85-9.84,3.85l-8.77-5.24s4.81-5.88,5.13-5.77,4.07,3.31,4.07,3.31l-1.29.86-2.67-1.28-1.18,1.92,5.46,3.53L128.91,19s-6.52-6.42-8.77-7.06c-.11.21-10,8.13-9.63,10.05.65.43,11.34,7,11.66,8.13a1.67,1.67,0,0,1,1.07-.21l10.48-2.89s6.74,7.38,7.17,10.37c-.43.11-6.95,2.78-6.95,2.78l-4-6.84,1.6-1.07,1.29,2.46s1.28-.54,1.6-.75a2.51,2.51,0,0,0,.22-2.35c-.43-.64-1.61-2.14-1.61-2.14a4.25,4.25,0,0,0-1.71-.43c-.53.11-4.06,2.14-4.06,2.14a2.61,2.61,0,0,0-.43,1.07,3.74,3.74,0,0,0,.53,1.28l5,8.34a3.25,3.25,0,0,0,2.14.86c1.28,0,7.27-.86,8-1s1.92-.75,1.82-.22,4.81,10.06,4.7,10.38-3.85,3.42-7.06,3.53-4.7-1.5-5-2a14.47,14.47,0,0,1-.43-4.17,6.11,6.11,0,0,1,1.07-1.17l3.1-.75s.64.53.32,1S138.21,51,138.21,51s1.18,1.72,1.5,1.72,5.35-4.07,5.35-4.07l-2.35-4.49L139.82,44s-6.95,2.78-6.95,3.1-1.61,5.88-1.29,6.74,2,1.49,1.18,2.78-1.92,1.92-2.25,1.17a4.06,4.06,0,0,1-.1-1.92s-3.43,1.39-4.82,1.82-4-1.07-4.27-1.39a5.14,5.14,0,0,1-.54-1.72s4,1.39,5.14,1.07a3.62,3.62,0,0,0,2.67-2.46c.53-1.49,2-7.16,0-8.12s-4.81-4.28-4.81-4.28,1.6-6.1-5.14-9.41C112.76,27,107.2,24.28,102.81,24s-14.33,4.6-16.36,8.12c-2,4.07-3.85,5.46-4.7,6.1A19.6,19.6,0,0,1,78,39.71a19.25,19.25,0,0,1-3.71-1.53c-.86-.64-2.68-2-4.71-6.1-2-3.52-12-8.44-16.36-8.12s-10,3-15.83,7.38c-6.74,3.31-5.14,9.41-5.14,9.41S29.5,44.06,27.47,45s-.53,6.63,0,8.12a3.62,3.62,0,0,0,2.68,2.46c1.17.32,5.13-1.07,5.13-1.07a4.91,4.91,0,0,1-.54,1.72c-.32.32-2.88,1.81-4.27,1.39s-4.82-1.82-4.82-1.82a4.06,4.06,0,0,1-.1,1.92c-.32.75-1.39.11-2.25-1.17s.86-1.93,1.18-2.78-1.29-6.42-1.29-6.74-7-3.1-7-3.1l-2.89.21L11,48.66s5,4.07,5.35,4.07S17.85,51,17.85,51,15.28,48.77,15,48.34s.32-1,.32-1l3.1.75a6.11,6.11,0,0,1,1.07,1.17A14.47,14.47,0,0,1,19,53.47c-.32.54-1.71,2-5,2S7,52.3,6.94,52s4.81-9.84,4.7-10.38,1.07.11,1.82.22,6.74,1,8,1a3.25,3.25,0,0,0,2.14-.86l5-8.34a3.74,3.74,0,0,0,.53-1.28,2.61,2.61,0,0,0-.43-1.07,45.14,45.14,0,0,0-4.06-2.14,4.25,4.25,0,0,0-1.71.43s-1.18,1.5-1.6,2.14A2.48,2.48,0,0,0,21.59,34c.32.21,1.6.75,1.6.75l1.29-2.46,1.6,1.07-4,6.84s-6.52-2.67-7-2.78c.43-3,7.17-10.37,7.17-10.37L32.82,30a1.67,1.67,0,0,1,1.07.21c.32-1.18,11-7.7,11.66-8.13.32-1.92-9.52-9.84-9.63-10-2.25.64-8.77,7.06-8.77,7.06l4.17,5.13,5.46-3.53L35.6,18.72,32.93,20l-1.29-.86s3.75-3.2,4.07-3.31,5.13,5.77,5.13,5.77l-8.77,5.24S23.3,23.53,22.23,23c-1.39.11-7.81,9.42-12.08,15.08-6,5.57-8.45,27.49-8.45,27.49l45.66-5-1.6-4.17s-1.28-.85-1.5-1.5-3.42,0-3.42,0L37.31,50s-1.5,0-2.67.1-1.07.22-1.18,1.5c-.85,2-4-1.07-3.64-1.6s1.5-2.36,1.72-2.79,2.46-2.78,3.2-2c4.5,5.56,17,9,18,8.77,8,.32,17.65-5.56,17.65-5.56l3.53.43s.75,2.78.75,3.21a14.69,14.69,0,0,1-2,3.63c-.32.22-1.81-.75-1.81-.75l-1.93-2.35-8.77,5.14L60,59.78l5.78,6.64s5.45-.22,5.88-.54-1.71-3-1.71-3l-2.67.53L65.33,61s.86-.85,1.29-.85,7-.65,7-.65l.22,5.67h8.28l.22-5.67s6.63.65,7.06.65,1.28.85,1.28.85L88.8,63.42l-2.67-.53s-2.14,2.67-1.71,3,5.88.54,5.88.54l5.78-6.64L96,57.65,87.2,52.51l-1.93,2.35s-1.49,1-1.81.75a15,15,0,0,1-2-3.63c0-.43.75-3.21.75-3.21l3.53-.43s9.63,5.88,17.65,5.56c1,.22,13.47-3.21,18-8.77.75-.75,3,1.61,3.21,2s1.39,2.25,1.71,2.79-2.78,3.63-3.64,1.6c-.11-1.28,0-1.39-1.18-1.5s-2.67-.1-2.67-.1l-3.53,4.91s-3.21-.64-3.42,0-1.5,1.5-1.5,1.5ZM66.94,44.6s-11,3.31-15.83,3-13.8-5.13-14-5.45,6.95-4.92,14.76-4.39,16.36,5.89,16.36,5.89Zm38,3c-4.81.32-15.83-3-15.83-3l-1.28-1s8.56-5.35,16.36-5.89,15,4.07,14.76,4.39S109.66,47.38,105,47.59ZM35.81,36.68c.75-1.6,8.35-6.63,10.27-7.27s10.16-1.82,13.16-1.28,10.37,8.45,11.55,10.05S77.63,45,77.63,45l.4.35.4-.35s5.67-5.24,6.84-6.85,8.56-9.52,11.55-10,11.23.64,13.16,1.28,9.52,5.67,10.27,7.27.85,1.93.85,2.68-.75.21-.75.21-8.12-8.13-16.47-7.7c-7.91,1.5-17.43,6.52-21,12.19-3,2.89-3.21,2.14-4.17,2.68a4.48,4.48,0,0,1-.72.32,4.91,4.91,0,0,1-.72-.32c-1-.54-1.18.21-4.17-2.68-3.53-5.67-13-10.69-21-12.19-8.35-.43-16.47,7.7-16.47,7.7s-.75.54-.75-.21S35.07,38.29,35.81,36.68Z"/><path class="cls-1" d="M83.35,15.08c.32.32,5.77,12.19,5.77,12.19s10.16-6.31,12.3-6.52C101.85,20.21,92.23,14.12,83.35,15.08Z"/><path class="cls-1" d="M77.79,17.89a8.22,8.22,0,0,0,0,16.42v0h.48v0a8.22,8.22,0,0,0,0-16.42v0h-.48Z"/></g></g></svg>