<svg xmlns="http://www.w3.org/2000/svg" viewBox="0 0 38.29 188"><defs><style>.cls-1{fill:#ffffff;}</style></defs><title>Tattoos16</title><g id="Calque_2" data-name="Calque 2"><g id="Tatoo_16" data-name="Tatoo 16"><path class="cls-1" d="M25.36,100.05c7.25-8,11.35-22.66,8.77-34.15-1.17-5.23-3.46-9.89-8-13.12-3.42-2.44-7.22-2.43-9.8.57A18.82,18.82,0,0,0,12,69a5.77,5.77,0,0,0,11.51-.46.1.1,0,0,0-.15-.09c-3.53,1.88-5.95.52-5.85-3.67A8.09,8.09,0,0,1,19.6,60c2.24-2.52,5-2.07,6.16,1.08,2.66,7,2.45,14.07-1.3,20.71a5.69,5.69,0,0,1-6.76,2.59c-4-1.32-6.91-3.89-7.95-8-2.56-10-.39-19,6.81-26.52,3.43-3.57,8.56-4.06,13-1.72.88.46,1.75.94,2.63,1.42a.1.1,0,0,0,.14-.13c-2.27-5.75-6.89-8.08-12.65-9.15a.09.09,0,0,1-.06-.15A38.75,38.75,0,0,0,25.71,20.7,49.85,49.85,0,0,0,23.17,0c-.32.53-.47.66-.46.78.79,13-2.74,25-8.22,36.61-2.93,6.2-6,12.33-9.13,18.44-5.51,10.78-4,20.82,3.91,29.56C14.13,90.75,20,95.22,25.36,100.05ZM23,88.84c.83-.11,1.84,1.06,3.49,2.15-1.6,1.15-2.56,2.38-3.38,2.3s-1.68-1.41-2.51-2.19C21.42,90.3,22.15,89,23,88.84Z"/><path class="cls-1" d="M36.38,104.09a.26.26,0,0,0-.48,0c-2.09,4.57-4.53,8.71-9,11.27a.26.26,0,0,1-.37-.33c1.31-2.86,3.13-5.46,4.35-8.32a57.07,57.07,0,0,0,2.35-7.45L32,98.78l0,.07c-1.81,3.64-3.52,7.36-7.14,9.66-1.72,1.09-3.16,1.32-4.5-.8-1.78-2.83-3.88-5.45-5.85-8.15Q9.29,92.48,4.08,85.39c-.37.34-.55.43-.61.57a16.49,16.49,0,0,0-.8,2c-3.61,12.84-4.43,25.41,3.14,37.36,3,4.67,5.27,9.68,5.74,15.33,0,.07.27.13.42.19,4.5-6,5.79-17.55,2.81-25.26a.27.27,0,0,0-.51.06c-.59,4-.09,8.07-2.8,11.33a.26.26,0,0,1-.38,0c-6-5.57-6.67-19.16-4.09-26.36a.27.27,0,0,1,.42-.1c6.94,6.2,12.94,13,13.59,22.78a112.65,112.65,0,0,1-.48,19.43c-.68,6.32-2.33,12.54-3.55,18.81.37,0,.48-.23.6-.47,5.57-11.31,9.48-23,9.27-35.85a8,8,0,0,1,5.41-7.53.27.27,0,0,1,.34.24c1.33,24.34-4.44,47.28-13,69.69a.26.26,0,0,0,.45.25C32.94,169.93,42.53,121.26,36.38,104.09Z"/><path class="cls-1" d="M24.68,36.84c-.13.81,1.21,1.85,2.47,3.51a.1.1,0,0,0,.16,0c1.15-1.75,2.34-2.81,2.23-3.71s-1.48-1.72-2.35-2.56a.09.09,0,0,0-.13,0C26.19,35,24.84,35.82,24.68,36.84Z"/></g></g></svg>