<svg xmlns="http://www.w3.org/2000/svg" viewBox="0 0 190 124.1"><defs><style>.cls-1{fill:#ffffff;}</style></defs><title>Tattoos03</title><g id="Calque_2" data-name="Calque 2"><g id="Tatoo_03_-" data-name="Tatoo 03 -"><path class="cls-1" d="M134.85,71.13a.52.52,0,0,1-.2-.87.59.59,0,0,1,.24-.15c5.77-1.67,9-5.84,11.14-11.15,2.73-6.89,3.24-14.25,4.55-21.44a129.41,129.41,0,0,1,2.91-13.26,59.26,59.26,0,0,1,3.62-8.16.52.52,0,0,0-.45-.74,2.64,2.64,0,0,0-.4,0c-4,.19-8,.33-12.06.62a57.66,57.66,0,0,0-25.63,7.71c-1.32.77-1.91.66-2.32-.88A12.45,12.45,0,0,0,114.88,20c-3.31-5.8-8.36-10.09-12.88-14.85a31.63,31.63,0,0,0-4.82-3.94,8,8,0,0,0-1.79-1V0L95,.11,94.61,0V.25a8,8,0,0,0-1.79,1A31.63,31.63,0,0,0,88,5.16C83.48,9.92,78.43,14.21,75.12,20a12.45,12.45,0,0,0-1.37,2.79c-.41,1.54-1,1.65-2.32.88A57.66,57.66,0,0,0,45.8,16c-4-.29-8-.43-12.06-.62a2.64,2.64,0,0,0-.4,0,.52.52,0,0,0-.45.74,59.26,59.26,0,0,1,3.62,8.16,129.41,129.41,0,0,1,2.91,13.26C40.73,44.71,41.24,52.07,44,59c2.11,5.31,5.37,9.48,11.14,11.15a.59.59,0,0,1,.24.15.52.52,0,0,1-.2.87C36.94,77.18,19.44,84.77,0,86.23L2.79,88A113.87,113.87,0,0,0,34.86,101.7c9.7,2.46,19.58,3.58,29.55,1.91C74.18,102,82,96.82,88.37,89.4c.07-.07,0-.24,0-.72l-1.68.71a115.78,115.78,0,0,1-25.31,7.33,62.25,62.25,0,0,1-19.78.46,30.86,30.86,0,0,1-13.32-5.05.52.52,0,0,1,0-.83c.69-.57,1.31-1.09,2-1.54A77.08,77.08,0,0,1,59.53,77.68a59.27,59.27,0,0,1,20.53-.43c2.6.42,5.11,1.41,7.69,2,1.79.41,2.33,1.66,2.59,3.2.21,1.29.39,2.58.61,4a.52.52,0,0,0,.42.45c1.13.2,2.27.75,3.43.92a2,2,0,0,1,.4,0c1.16-.17,2.3-.72,3.43-.92a.52.52,0,0,0,.42-.45c.22-1.44.4-2.73.61-4,.26-1.54.8-2.79,2.59-3.2,2.58-.6,5.09-1.59,7.69-2a59.27,59.27,0,0,1,20.53.43,77.08,77.08,0,0,1,29.27,12.08c.65.45,1.27,1,2,1.54a.52.52,0,0,1,0,.83,30.86,30.86,0,0,1-13.32,5.05,62.25,62.25,0,0,1-19.78-.46,115.78,115.78,0,0,1-25.31-7.33l-1.68-.71c0,.48,0,.65,0,.72,6.39,7.42,14.19,12.57,24,14.21,10,1.67,19.85.55,29.55-1.91A113.87,113.87,0,0,0,187.21,88L190,86.23C170.56,84.77,153.06,77.18,134.85,71.13Zm-50,3.78h-.12C77.43,72.83,70.37,70.27,64,66.09,49.2,56.39,44.39,44,47.19,27.74a3.3,3.3,0,0,1,2-2.19,25.29,25.29,0,0,1,17.86,2.84,5.18,5.18,0,0,1,3,5.44c-.75,12.08,2.88,22.92,9.8,32.74l5.27,7.52A.52.52,0,0,1,84.81,74.91Zm6.32,3.9a.53.53,0,0,1-.92.18,10.67,10.67,0,0,1-.84-1.18c-2.53-4.53-5.07-9-7.53-13.61-1-1.93-2.36-3.88-2.73-6a49.13,49.13,0,0,1-.06-15.31.28.28,0,0,1,0-.09l1.51-.2,2.37,4.79c3.91,7.85,7.49,15.81,8.36,24.69A18.12,18.12,0,0,1,91.13,78.81Zm5-4.36a.13.13,0,0,1,0,.06,1,1,0,0,1,0,.23,0,0,0,0,1,0,0v0a1.05,1.05,0,0,1-2,0v0a0,0,0,0,1,0,0,1,1,0,0,1,0-.23.13.13,0,0,1,0-.06c-.78-4.23,0-8.4.22-12.58a23.41,23.41,0,0,0-.53-7.3,52.83,52.83,0,0,0-8.94-18.49c-3.56-4.52-3.35-8.54-.26-12.91.23-.32.4-.67.62-1,2.76-4.15,5.83-8,10-10.87,4.14,2.86,7.21,6.72,10,10.87.22.32.39.67.62,1,3.09,4.37,3.3,8.39-.26,12.91a52.83,52.83,0,0,0-8.94,18.49,23.41,23.41,0,0,0-.53,7.3C96.05,66.05,96.86,70.22,96.08,74.45Zm4.55,3.36A10.67,10.67,0,0,1,99.79,79a.53.53,0,0,1-.92-.18,18.12,18.12,0,0,1-.17-6.7c.87-8.88,4.45-16.84,8.36-24.69l2.37-4.79,1.51.2a.28.28,0,0,1,0,.09,49.13,49.13,0,0,1-.06,15.31c-.37,2.09-1.69,4-2.73,6C105.7,68.77,103.16,73.28,100.63,77.81ZM126,66.09c-6.37,4.18-13.43,6.74-20.69,8.81h-.12a.52.52,0,0,1-.35-.82l5.27-7.52c6.92-9.82,10.55-20.66,9.8-32.74a5.18,5.18,0,0,1,3-5.44,25.29,25.29,0,0,1,17.86-2.84,3.3,3.3,0,0,1,2,2.19C145.61,44,140.8,56.39,126,66.09Z"/><path class="cls-1" d="M127.39,112.57c-8.83-1-17.69-1.89-26.57-2.3-1.89-.09-3.79-.13-5.69-.14l-.13,0-.13,0c-1.9,0-3.8.05-5.69.14-8.88.41-17.74,1.26-26.57,2.3a102.14,102.14,0,0,0-29.11,8c-2.36,1-4.63,2.26-7.32,3.58,11.52-1.34,22.54-2.9,33.62-3.82s22.44-1.61,33.67-1.7h1.4l.13,0,.13,0h1.4c11.23.09,22.48.77,33.67,1.7s22.1,2.48,33.62,3.82c-2.69-1.32-5-2.55-7.32-3.58A102.14,102.14,0,0,0,127.39,112.57Z"/></g></g></svg>