<svg xmlns="http://www.w3.org/2000/svg" viewBox="0 0 184.44 80"><defs><style>.cls-1{fill:#ffffff;}</style></defs><title>Tattoos14</title><g id="Calque_2" data-name="Calque 2"><g id="Tatoo_14" data-name="Tatoo 14"><path class="cls-1" d="M49.12,16.62c-2.86.65-5.62,1.78-8.45,2.71-2.22-4.58-3.8-6.47-7.8-8a32.93,32.93,0,0,0-8.43-2.08C16.22,8.54,8,8.11,0,7.57c1.53,1.31,3.32,3,5.26,4.44a89.87,89.87,0,0,0,9.55,6.78c4.11,2.34,8.6,2.6,13.64.49-3.61-.28-6.64-.62-8.25-3.86A11.56,11.56,0,0,1,35,21.26l-6.39,4.59.63.69c2.23-.23,4.49-.8,6.68-.6s4.47,1.15,6.68,1.76c.74-7.11,2.23-8.07,15-9.33A10.63,10.63,0,0,0,49.12,16.62Z"/><path class="cls-1" d="M164.61,8.75c-8.75.71-17.84.91-21.89,11-7-4-12.37-4.38-16.21-1.54,3,.45,6.46.54,9.64,1.56,3.74,1.19,4.79,4.58,4.66,8.61,4.56-3.08,9.18-3.14,14-1.33.13-.3.27-.6.41-.89l-6.56-4.92c2.16-5.37,9.72-8.49,14.79-5.67-1.66,3.09-4.69,3.46-8.29,3.78,4.6,1.84,8.85,2.12,12.46,0,5.72-3.44,11-7.58,16.85-11.68C177.29,8,170.94,8.23,164.61,8.75Z"/><path class="cls-1" d="M60.28,37.22c-2.64-1.5-4.8-4-6.79-6.37-.54-.64.3-2.43.5-3.7,1.09.22,2.41.13,3.21.73a15.23,15.23,0,0,1,2.57,3.22L59,32l-4.59-2.52c.82,1.54,1.2,2.78,2,3.6a3.9,3.9,0,0,0,2.83,1.27A3.93,3.93,0,0,0,62,32.3a8.66,8.66,0,0,0-5.8-10.4A43.65,43.65,0,0,0,50,21.1c-1.7-.23-2.44.67-2.92,2.15a13.81,13.81,0,0,0,1.68,12.26C52,40.62,56.48,44,62.54,44.79a15.79,15.79,0,0,1,0-3.27C63.1,39.31,62.34,38.4,60.28,37.22Z"/><path class="cls-1" d="M130.23,21.26a14.1,14.1,0,0,0-2.13.43,8.83,8.83,0,0,0-6.52,10.45,3.65,3.65,0,0,0,2.06,2.16c2.45.93,3.62-.18,5.35-5.24a16.74,16.74,0,0,1-2.34,2.08,9.84,9.84,0,0,1-2.25.62c.13-1.5.43-2.76,1.21-3.24a16.88,16.88,0,0,1,4.07-1.32c.09,1.44.73,3.17.15,4.25-1,1.76-2.44,3.86-4.17,4.45-4.4,1.51-5.24,4.48-4.78,8.44,0,.08.09.16.22.37,8.3-1.18,15.17-8,16.2-16C138.05,22.89,135.94,20.66,130.23,21.26Z"/><path class="cls-1" d="M72.86,44.94c-2.16-5.61.61-9.7,6.66-9.69,4.48,0,8,2,10.86,6a8.83,8.83,0,0,0-3.34-7c-4.22-3.73-9.24-4.64-14.57-3.37-6.72,1.6-9.72,7.74-7.13,14.26a2.27,2.27,0,0,0,1.4,1.29c2.28.32,4.59.45,7,.65C73.42,46.27,73.12,45.62,72.86,44.94Z"/><path class="cls-1" d="M114.63,32.32c-5.85-3.63-15.17-2.08-19.35,3.39a29.18,29.18,0,0,0-2.5,5l.6.33c3-4.28,7-6.28,12.2-5.63,4.81.6,6.89,4,5.49,8.63-.31,1-.73,2-1.12,3.05,2.42-.21,4.67-.36,6.9-.62a2,2,0,0,0,1.23-.81C120.55,41.6,118.79,34.9,114.63,32.32Z"/><path class="cls-1" d="M144.49,14.59a58.72,58.72,0,0,1-4.41-7.22c-.42-1,.55-2.59,1.09-3.81a2.17,2.17,0,0,1,1.86.13,24.82,24.82,0,0,1,2,3.48l-.73.4-1.94-1.65-.79.35c.34.94.53,2.58,1,2.68a7.06,7.06,0,0,0,4.09-.39A3.22,3.22,0,0,0,148,6c-.07-2.66-1.84-4.26-4.13-5.24a7.23,7.23,0,0,0-7.49.71,3,3,0,0,0-.89,2.12c-.11,5.89,2.62,10.46,6.81,14.53Z"/><path class="cls-1" d="M37.8,9a4.37,4.37,0,0,0,3.31-.2c.54-.29.47-1.73.67-2.65L41.15,6,39.38,7.53l-.66-.23a6.64,6.64,0,0,1,.8-2.37c.64-.73,1.84-1.7,2.47-1.5a3,3,0,0,1,1.71,2.4,13.35,13.35,0,0,1-1.76,4.7,30.4,30.4,0,0,1-3,3.79l2.5,3.77c4-4,6.73-8.32,6.79-14a4.22,4.22,0,0,0-.48-2.31C46.53.1,42.52-.39,39.83.69s-4.7,3.64-4.19,6A3.88,3.88,0,0,0,37.8,9Z"/><path class="cls-1" d="M52.28,42.31c1.6,4.35,5.93,8.31,9.28,8.42C60.13,46,56.14,44.37,52.28,42.31Z"/><path class="cls-1" d="M121.83,51.31c5-1.43,7.13-5,9.31-8.56C127.19,44.48,123.35,46.28,121.83,51.31Z"/><path class="cls-1" d="M92.57,62.92a9.33,9.33,0,0,1-1.28,0,.64.64,0,0,1-.18-.06c-5.1-2-11.71-9-14.77-12.52-3.12.28-5.72.59-7.65.86A131.65,131.65,0,0,0,92,80a.92.92,0,0,0,0-.16C92,80,92,80,92,80a131.49,131.49,0,0,0,23.19-28.69c-2.56-.39-5.1-.7-7.59-.94C104.46,54,97.69,61.26,92.57,62.92Z"/></g></g></svg>