<svg xmlns="http://www.w3.org/2000/svg" viewBox="0 0 189.54 51"><defs><style>.cls-1{fill:#ffffff;}</style></defs><title>Tattoos07</title><g id="Calque_2" data-name="Calque 2"><g id="Tatoo_07_-" data-name="Tatoo 07 -"><path class="cls-1" d="M131.92,6.61a2.2,2.2,0,0,0-.25-.17l-.06.26Z"/><path class="cls-1" d="M175.09,9.09c-7.29,3.84-21.55.2-21.87-.07-13.41-4-19.87-2.8-21.3-2.41,2.62,2-.4,5.39-3.3,5.2s-4.3-1.26-4.57-2.85-.59-3.31,4.57-5.37S155.4.28,155.4.27C140.69.34,134.19.21,134.33.21c-11.87-1-18.56,5.1-18.56,5.1,3.18-.53,4.9.13,5.36,2.05S119.61,11,119.61,11s-9.41,2.05-9.94,2.12a2.9,2.9,0,0,1-2.46-.67C101.77,4.7,97.35,6,97.08,5.92c5.56,2.45,5.56,8.74,5.56,8.74l-1.52.15a15.49,15.49,0,0,0-4.64-3s3.3,4.55,1.9,8a5.12,5.12,0,0,1-.31.62,34.6,34.6,0,0,1-3.26,4,37.27,37.27,0,0,1-3.34-4.07,5.12,5.12,0,0,1-.31-.62c-1.4-3.48,1.9-8,1.9-8a15.5,15.5,0,0,0-4.64,3l-1.52-.16s0-6.29,5.56-8.74c-.27,0-4.7-1.22-10.14,6.49a2.89,2.89,0,0,1-2.45.66c-.53-.07-9.94-2.12-9.94-2.12s-2-1.66-1.53-3.58,2.19-2.59,5.38-2.06c0,0-6.7-6.1-18.56-5.1.13,0-6.37.13-21.08.06,0,0,21.62,1.27,26.78,3.32s4.83,3.78,4.57,5.37-1.59,2.65-4.57,2.85S55,8.47,57.62,6.51c-1.43-.39-7.89-1.63-21.3,2.41C36,9.19,21.74,12.84,14.45,9S3.78,2.1,0,3.29c.86-.07,8.42,2.58,14.78,8.49s15.91,3.11,18.76,2.58,12.59-4.91,20.75-.6-2.46,6.56-2.46,6.56-7.95-1.39-8.94-3.58S41.63,15,41.63,15l-4.84.93s4.44,5.56,9.48,8c1.06.34,2.32-2,4.24-1.45s5.83,5.1,5.83,5.1-1.06-7,3.78-9.94,7.09-4.24,16.77-2,8.15,6.1,8.75,7.16S81.79,30,74.9,28.94,63.57,27,64.16,24.24s4.45-4,6.83-4.64,5.3,1.52,5.3,2.25a2,2,0,0,1-2.19,1.86,5.45,5.45,0,0,1-2.31-.66c.07.13,1.44,2.55,5.76,1.59s.8-6.24-2.45-6.83-10.37.49-12.66,3.38C59.16,25.33,60.05,30.6,65,32.32a12.76,12.76,0,0,0,3.17.88c.65,1.56,3,6.3,7.3,6.42-1-.14-5-3.32-4.24-6.17s4-.4,4.24-.33S78,35.44,77,36s-1.06.72-1.26.72a6.54,6.54,0,0,0,3.78,1.06c1.72-.19,5.83,4,7.23,5.31,1.13,1,6.1,5.54,7.93,7.73l.11.14.09-.11c1.87-2.21,6.76-6.65,7.88-7.66,1.39-1.26,5.5-5.5,7.22-5.31a6.47,6.47,0,0,0,3.77-1.06c-.19,0-.32-.13-1.25-.72s1.32-2.86,1.59-2.92,3.45-2.52,4.24.33-3.25,6-4.24,6.16c4.33-.11,6.65-4.85,7.3-6.41a12.37,12.37,0,0,0,3.17-.88c4.91-1.72,5.17-8.48,2.52-11.13s-9.41-4-12.66-3.38-6.89,5.83-2.45,6.83,5.69-1.46,5.76-1.59a5.37,5.37,0,0,1-2.32.65A2,2,0,0,1,113.24,22c0-.73,2.92-2.92,5.31-2.25s6.23,1.85,6.83,4.63S121.53,28,114.64,29s-11.33-5.1-10.74-6.16S103,18,112.65,15.72s11.93-1,16.77,2,3.78,10,3.78,10,3.91-4.57,5.83-5.1,3.18,1.78,4.24,1.45c5-2.45,9.48-8,9.48-8l-4.84-.94s-.26-.39-1.26,1.8-8.94,3.57-8.94,3.57-10.61-2.25-2.46-6.55,17.9.06,20.75.59,12.39,3.31,18.76-2.59,13.92-8.55,14.78-8.48C185.76,2.2,182.38,5.24,175.09,9.09ZM90.82,27.23l.3.21a15.09,15.09,0,0,1,1.4,1.11c.82.71,1.6,1.52,2.3,2.26.68-.72,1.44-1.5,2.24-2.2a15.88,15.88,0,0,1,1.36-1.07l.29-.21c.66.42,4.11,2.72,3.93,4.16a13.28,13.28,0,0,0-7.85,7.63A13.26,13.26,0,0,0,86.9,31.4C86.72,30,90.17,27.65,90.82,27.23Zm13.28,6c1.39-.4,2.19.2,3.11,1.92s.4,2.06-4.1,5.43a24,24,0,0,0-8.32,10.07,24.11,24.11,0,0,0-8.36-10.17c-4.5-3.37-5-3.71-4.11-5.43s1.73-2.32,3.12-1.92,4.24,3.24,3.91,4.11S86,39.48,86.1,36.1C85.84,36,86,39,87.43,39.41s2.25.74,3.25-.26l1-1a32.23,32.23,0,0,1,2.76,2,4.57,4.57,0,0,1,.39.35l.34-.29a31.22,31.22,0,0,1,2.71-2l1,1c1,1,1.86.66,3.25.26s1.59-3.44,1.32-3.31c.07,3.38-2.91,2-3.24,1.12S102.71,33.61,104.1,33.22Z"/><path class="cls-1" d="M159,8.63s6.19-6.46,13-7.43c.27.09-5.57-3.18-17.23,5.92Z"/></g></g></svg>