<svg xmlns="http://www.w3.org/2000/svg" viewBox="0 0 200 28.03"><defs><style>.cls-1{fill:#ffffff;fill-rule:evenodd;}</style></defs><title>Tattoos06</title><g id="Calque_2" data-name="Calque 2"><g id="Tatoo_06_-" data-name="Tatoo 06 -"><path class="cls-1" d="M150.19,2.48s-7.69,17.94-22.92,17.91l2.89-7.58a29.22,29.22,0,0,1,9.63,1.51l2.49-2.89a35.15,35.15,0,0,0-10.42-3.06h0a26.82,26.82,0,0,0-3.53-.21h0c-18.22.09-27.77,18.29-28,18.86,9.17-9.83,18.57-13.18,25.91-14-2.17,4.74-5.47,11.38-7.43,12.56.43.76,12.72,0,18.93-3.34,7.29,5,18.69,5.07,18.69,5.07-3-.53-10.88-5.91-14.53-8.48C146.22,14.06,150.1,6.48,150.19,2.48Z"/><polygon class="cls-1" points="120.89 19.23 114.77 17.79 110.94 19.81 119.34 22.41 120.89 19.23"/><path class="cls-1" d="M156.85,11.43c.74-1.45,16.49.91,22,5.69-2.36-2.29-14.18-14-27.83-8.29l6.56,7.74c-3.15-1.15-6.46-2.25-9.82-3.26l-2.18,4.48s31,11.58,38.26,10.11c-.32-.06-7.55-3.86-17.78-8C163.11,17,159.16,13.31,156.85,11.43Z"/><path class="cls-1" d="M178.87,17.12c.22.22.36.35.4.38C179.14,17.37,179,17.24,178.87,17.12Z"/><path class="cls-1" d="M200,9.83c.48.16-12.21-13.22-28-2.32l2.9,3.33a16,16,0,0,1,3.69-2c2.39,2,9.54,7.87,11.46,8.66-.57-.47-6.05-7.27-7.23-9.94C187.05,6.69,192.9,6.75,200,9.83Z"/><path class="cls-1" d="M.48,20.28,0,20.39S.2,20.37.48,20.28Z"/><path class="cls-1" d="M36.73,14.9C29.55,13.79,18.36,6.67,11.12,1,19,13.86,29.8,16.12,29.8,16.12S27.44,19,27.34,19C12.07,15.69,2.62,19.55.48,20.28c12-2.84,31.51,5.23,30.89,5.31C31.77,22,36.73,14.9,36.73,14.9Z"/><path class="cls-1" d="M73.64,15l-5.37-2.51s-8.31,7.54-10.76,7c0,.12-.56-7.92-.35-13.71h0c.24-1.58.58-3.88.67-5h0c.38-.93.23-1-.19-.52h0C36.55,11.64,25.15,4.47,24.75,4.22a23.76,23.76,0,0,0,16,7.09c-3.33,5.27-7.15,14.93-7.53,15.93,2.37-5.3,8.4-11.63,13.33-16.26a34,34,0,0,0,6.4-1.69c-.18,3.85-.19,11.07,1.86,16C54.87,25.27,66.82,22.43,73.64,15Z"/><path class="cls-1" d="M51.14,15c.07-.44.13-.72.13-.72l-8.68,4s9.55,2.46,8.68,1.45C50.61,19.05,50.94,16.35,51.14,15Z"/><path class="cls-1" d="M66.66,25.59C72,25.67,82,18.81,82,18.81l-6-2.57C75.36,18.41,66.57,25.13,66.66,25.59Z"/><path class="cls-1" d="M90.29,9.7a3.31,3.31,0,0,1,.28-1.61c3.52-.37,15.61,7.63,15.61,7.63s3.2-2.89,3.43-2.69c-.55-.52-1.11-1-1.67-1.46C110.31,9.31,119.34,6,119.34,6a23.25,23.25,0,0,0-14,3.61,33,33,0,0,0-5.87-3.17c1.63-1.73,5.69-3.63,5.74-3.69C99.49,2.91,96.43,4.1,95,4.93a28.81,28.81,0,0,0-8.76-1l.25,9.25c-8.88-6-22.9-5-22.9-5,13.43,3,29.79,16,29.76,15.51a15.86,15.86,0,0,0-1-3.54c-.46-1.7-1-3.78-1.39-5.75,2.73,1.23,7.77,3.65,9.15,5.43C100.4,19.81,93.18,12.58,90.29,9.7Z"/><path class="cls-1" d="M84.68,8.55l-.26-4.63S76.5,5.57,75,7.27c0,0,4.59,1.57,5.12,1.94C80.19,8.63,84.68,8.55,84.68,8.55Z"/><path class="cls-1" d="M162.21,14.32l3.7,3.47s3.16-1,3.69-2.31a51.45,51.45,0,0,0-4.87-2.66C164,12.64,163.31,14,162.21,14.32Z"/></g></g></svg>