<svg xmlns="http://www.w3.org/2000/svg" viewBox="0 0 65.15 171.79"><defs><style>.cls-1{fill:#ffffff;}</style></defs><title>Tattoos12</title><g id="Calque_2" data-name="Calque 2"><g id="Tatoo_12_-" data-name="Tatoo 12 -"><path class="cls-1" d="M65.14,37.67a.83.83,0,0,0-.56-.64A37.51,37.51,0,0,0,54,35.49c.43-1,.8-1.9,1.14-2.74s.66-1.65.95-2.28c.85-1.85,1.82-3.82,2.67-5.55,2.85-5.81,3.32-6.9,2.8-7.65a.84.84,0,0,0-.83-.34C52.45,18.34,46.6,21.2,42.44,24.6,41.68,12.21,35.71.64,35.61.45A.83.83,0,0,0,34.9,0a.87.87,0,0,0-.74.39q-8.8,14-11,24.46A31.53,31.53,0,0,0,3.82,17.7a.84.84,0,0,0-.74.49.85.85,0,0,0,.12.88c2.93,3.49,5.76,11,7.68,16.15A36.54,36.54,0,0,0,.7,35.45a.84.84,0,0,0,0,1.65,22.93,22.93,0,0,1,1.9,2.35C5.74,43.7,11.94,52,20.72,54.38a18.72,18.72,0,0,0-5,13.7l0,1a1.49,1.49,0,0,0,0,.47.85.85,0,0,0,.83.69h.05a.83.83,0,0,0,.78-.8v-.21c.25-.76,2.86-3.26,9.89-6.86a9.37,9.37,0,0,0,3.2-2.73c-.18,1.67.19,4.1,2,7.67a.66.66,0,0,0,.14.2.64.64,0,0,0-.14.22c-9.37,22.24-5.3,27.33,2,32.62.7.41,1.37.77,2,1.09-.64.46-1.31,1-2,1.5a26.31,26.31,0,0,1-2.7,1.44c-2.93-3.2-4.4-3.72-5.31-3.75a2,2,0,0,0-1.64.71l-.08.11A3.71,3.71,0,0,0,25,106c.81.81,2.6,1.71,6.29.34,1,1.14,2.16,2.6,3.54,4.47A16.57,16.57,0,0,0,36,112c-.44.32-.88.67-1.34,1-.66.5-1.32,1-2,1.52l-.11.09L31.31,113a1,1,0,0,0-.18-.17c-.28-.2-2.85-1.94-4.74-1.26a2.66,2.66,0,0,0-1.62,1.94c-.47,1.92,0,3.55,1.22,4.37.88.58,2.78,1.13,6.22-1l3.09,4c.43.49.84.94,1.24,1.36l-9.66,5.11A.83.83,0,0,0,27,128.9l8.81,2.94-3.21,3a.79.79,0,0,0-.26.6V171a.83.83,0,0,0,.83.84A.84.84,0,0,0,34,171v-35.1l4-3.76a.85.85,0,0,0,.24-.79.83.83,0,0,0-.55-.61l-8.28-2.76,8.39-4.43c2.8,2.67,4.81,3.59,6.24,2.87,1.63-.81,1.5-3.29,1.39-3.83a3.14,3.14,0,0,0-1.62-2.81c-1.66-.75-3.77.62-4.18.91l-1.53.8c-.46-.47-.95-1-1.49-1.61l-3-3.86.09-.07c.68-.51,1.36-1,2-1.53l1.7-1.29c2.54,1.68,4.86,1.75,6.4,1.09a3.93,3.93,0,0,0,2.46-3.94s0-.07,0-.11a2.68,2.68,0,0,0-1.59-2.2c-1.72-.65-4.19.82-7.28,3.08a12,12,0,0,1-1.28-1.22c-1.21-1.64-2.28-3-3.22-4.09.76-.37,1.59-.82,2.49-1.37s1.89-1.41,2.84-2.1c4.54,1.82,6.93.88,8.18-.42a4.19,4.19,0,0,0,.82-4.69,1.94,1.94,0,0,0-1.29-.87c-1.47-.27-3.66,1-7.93,4.07A29,29,0,0,1,35.36,99c-5.79-4.17-10.8-7.78-1.85-29.51,1.66,2.17,5.29,9.53,5.18,15.43-.06,2.86-1,4.85-2.86,5.92a4.9,4.9,0,0,1-3.25-2.1c-.75-1.32-.54-3.09.62-5.26a2.22,2.22,0,0,1,1,.59,4.08,4.08,0,0,1,1,3,.84.84,0,0,0,1.68,0,5.72,5.72,0,0,0-1.46-4.22,4,4,0,0,0-2.7-1.14.85.85,0,0,0-.7.42c-2.57,4.41-1.5,7-.14,8.44s3.85,2.2,4.56,1.83c3.54-1.91,4.71-6.14,3.39-12.24-1.05-4.81-4.07-11.42-6.05-12.68a.87.87,0,0,0,.09-.11c.14-.26,2.7-4.9,1.53-8.61A8.84,8.84,0,0,0,37.79,61,12.85,12.85,0,0,0,40,62.51C42.28,63.9,45.7,66,47.18,68a.82.82,0,0,0,.67.34.84.84,0,0,0,.27,0,.85.85,0,0,0,.57-.8V66.6A24.12,24.12,0,0,0,44.84,54,11.42,11.42,0,0,0,51,51.66c.68-.36,2.15-1.75,7-6.61,2.71-2.7,5.52-5.49,6.84-6.59A.85.85,0,0,0,65.14,37.67Zm-39,67.19a2.1,2.1,0,0,1-.07-2.47.38.38,0,0,1,.27-.09c.42,0,1.46.39,3.68,2.73C28,105.66,26.75,105.45,26.17,104.86Zm.75,11.66a2.33,2.33,0,0,1-.53-2.56c.15-.57.4-.72.57-.78a1.12,1.12,0,0,1,.42-.07,6.1,6.1,0,0,1,2.69,1l1.11,1.43C28.46,117.24,27.25,116.74,26.92,116.52Zm13.52,5.57a.24.24,0,0,0,.09-.06c.52-.37,1.88-1.08,2.57-.77.44.2.59.89.66,1.52s0,1.84-.48,2.09c-.13.06-1.09.4-3.93-2.2Zm3.62-12.61c.25.09.42.4.53.91a2.27,2.27,0,0,1-1.45,2.24,4.9,4.9,0,0,1-4.3-.61C41.1,110.39,43.17,109.14,44.06,109.48Zm1.56-11.6a.22.22,0,0,1,.17.13,2.55,2.55,0,0,1-.61,2.63c-1,1.07-2.89,1.18-5.33.39C42.49,99.16,44.79,97.73,45.62,97.88Zm-3.1-71.26c3.81-3.37,9.31-6.28,17.23-7.82-.5,1.24-1.56,3.41-2.53,5.38-.86,1.74-1.83,3.72-2.69,5.59-.3.66-.62,1.46-1,2.35-.43,1.05-.9,2.22-1.43,3.41a25.59,25.59,0,0,0-11.87,3.41A29.62,29.62,0,0,0,42.52,26.62ZM34.91,46.35a22.14,22.14,0,0,0,3.45-4,21.7,21.7,0,0,1,13-5.14C48.47,42.89,43.85,48.51,34.91,46.35Zm5.4,5.22a16,16,0,0,1-3.31-2A16.34,16.34,0,0,1,40.31,51.57ZM37,41.34a21.43,21.43,0,0,0-3,3.4,25.6,25.6,0,0,1,6.88-16.5A24.77,24.77,0,0,1,37,41.34ZM34.78,2.57c1.64,3.5,5.79,13.36,6.08,23.42a27.68,27.68,0,0,0-8.21,15.86,30.15,30.15,0,0,0-8-15.62C25.7,20.34,28.61,12.62,34.78,2.57ZM24.34,28.26c3.64,4,6,9.29,7,15.76a44.32,44.32,0,0,0-4.65-3.23,14.34,14.34,0,0,1-1.4-2.68A20.34,20.34,0,0,1,24.34,28.26Zm7,20.68a6.17,6.17,0,0,1-6.63,4.41c-.16,0-.32,0-.48-.06A29.72,29.72,0,0,1,31.34,48.94ZM29.9,46.13c-3.79.31-11.39-.17-15.37-6.48a1.15,1.15,0,0,0-.14-.17,14.62,14.62,0,0,1-.93-2.16A38.9,38.9,0,0,1,25.54,42,14.8,14.8,0,0,0,29.9,46.13ZM5.56,19.44a30.7,30.7,0,0,1,11.14,3,26.16,26.16,0,0,1,6.13,4.22,22.78,22.78,0,0,0,.93,12c.08.2.17.38.25.57A39.66,39.66,0,0,0,12.77,35.5l-.19-.5C10.85,30.33,8.32,23.56,5.56,19.44Zm-1.66,19c-.48-.64-.88-1.17-1.21-1.59a34.2,34.2,0,0,1,8.85.14c.91,2.41,1.27,3.25,1.63,3.63,3.77,5.89,10.45,7.25,15.05,7.25.55,0,1.06,0,1.55-.06A29.63,29.63,0,0,0,22.09,53C13.37,51.07,7.07,42.69,3.9,38.45ZM26.42,60.88c-2.32,1.18-6.72,3.58-9.13,5.8a17.7,17.7,0,0,1,5.32-11.89,18.53,18.53,0,0,0,2,.23l.63,0a7.43,7.43,0,0,0,6.25-2.95C31,55.23,29.77,59.16,26.42,60.88Zm6.72,4.06c-2-4.55-.89-6.37-.25-7.22C34.77,59.68,33.91,63,33.14,64.94ZM33,55.69a.8.8,0,0,0-.62-.1,19.93,19.93,0,0,0,.6-2.36,17.84,17.84,0,0,0,1.15,3.39A6.23,6.23,0,0,0,33,55.69ZM47,65.33a43.15,43.15,0,0,0-6.08-4.25c-.76-.47-1.63-1-1.85-1.2a.72.72,0,0,0-.25-.24c-3.54-2.14-4.46-7.34-4.69-10.28q4.44,4,8.63,4.57A20.62,20.62,0,0,1,47,65.33Zm9.86-21.46c-2.68,2.66-6,6-6.52,6.27a.68.68,0,0,0-.27.13,9.56,9.56,0,0,1-6.49,2.1,16.67,16.67,0,0,0-4.93-3.85h.12c7.74,0,11.91-6,14.48-11.39a36.83,36.83,0,0,1,9.4,1.08C61.1,39.61,58.94,41.77,56.83,43.87Z"/></g></g></svg>