<svg xmlns="http://www.w3.org/2000/svg" viewBox="0 0 202 3"><defs><style>.cls-1{fill:#fff;}</style></defs><title>Line 02</title><g id="Calque_2" data-name="Calque 2"><g id="Line_10" data-name="Line 10"><path class="cls-1" d="M80.5,0h-1a1.5,1.5,0,0,0,0,3h1a1.5,1.5,0,0,0,0-3Z"/><path class="cls-1" d="M68.5,0h-1a1.5,1.5,0,0,0,0,3h1a1.5,1.5,0,0,0,0-3Z"/><path class="cls-1" d="M74.5,0h-1a1.5,1.5,0,0,0,0,3h1a1.5,1.5,0,0,0,0-3Z"/><path class="cls-1" d="M62.5,0h-1a1.5,1.5,0,0,0,0,3h1a1.5,1.5,0,0,0,0-3Z"/><path class="cls-1" d="M98.5,0h-1a1.5,1.5,0,0,0,0,3h1a1.5,1.5,0,0,0,0-3Z"/><path class="cls-1" d="M86.5,0h-1a1.5,1.5,0,0,0,0,3h1a1.5,1.5,0,0,0,0-3Z"/><path class="cls-1" d="M92.5,0h-1a1.5,1.5,0,0,0,0,3h1a1.5,1.5,0,0,0,0-3Z"/><path class="cls-1" d="M56.5,0h-1a1.5,1.5,0,0,0,0,3h1a1.5,1.5,0,0,0,0-3Z"/><path class="cls-1" d="M50.5,0h-1a1.5,1.5,0,0,0,0,3h1a1.5,1.5,0,0,0,0-3Z"/><path class="cls-1" d="M2.5,0h-1a1.5,1.5,0,0,0,0,3h1a1.5,1.5,0,0,0,0-3Z"/><path class="cls-1" d="M14.5,0h-1a1.5,1.5,0,0,0,0,3h1a1.5,1.5,0,0,0,0-3Z"/><path class="cls-1" d="M26.5,0h-1a1.5,1.5,0,0,0,0,3h1a1.5,1.5,0,0,0,0-3Z"/><path class="cls-1" d="M8.5,0h-1a1.5,1.5,0,0,0,0,3h1a1.5,1.5,0,0,0,0-3Z"/><path class="cls-1" d="M20.5,0h-1a1.5,1.5,0,0,0,0,3h1a1.5,1.5,0,0,0,0-3Z"/><path class="cls-1" d="M32.5,0h-1a1.5,1.5,0,0,0,0,3h1a1.5,1.5,0,0,0,0-3Z"/><path class="cls-1" d="M44.5,0h-1a1.5,1.5,0,0,0,0,3h1a1.5,1.5,0,0,0,0-3Z"/><path class="cls-1" d="M38.5,0h-1a1.5,1.5,0,0,0,0,3h1a1.5,1.5,0,0,0,0-3Z"/><path class="cls-1" d="M110.5,0h-1a1.5,1.5,0,0,0,0,3h1a1.5,1.5,0,0,0,0-3Z"/><path class="cls-1" d="M176.5,0h-1a1.5,1.5,0,0,0,0,3h1a1.5,1.5,0,0,0,0-3Z"/><path class="cls-1" d="M170.5,0h-1a1.5,1.5,0,0,0,0,3h1a1.5,1.5,0,0,0,0-3Z"/><path class="cls-1" d="M164.5,0h-1a1.5,1.5,0,0,0,0,3h1a1.5,1.5,0,0,0,0-3Z"/><path class="cls-1" d="M104.5,0h-1a1.5,1.5,0,0,0,0,3h1a1.5,1.5,0,0,0,0-3Z"/><path class="cls-1" d="M182.5,0h-1a1.5,1.5,0,0,0,0,3h1a1.5,1.5,0,0,0,0-3Z"/><path class="cls-1" d="M188.5,0h-1a1.5,1.5,0,0,0,0,3h1a1.5,1.5,0,0,0,0-3Z"/><path class="cls-1" d="M200.5,0h-1a1.5,1.5,0,0,0,0,3h1a1.5,1.5,0,0,0,0-3Z"/><path class="cls-1" d="M194.5,0h-1a1.5,1.5,0,0,0,0,3h1a1.5,1.5,0,0,0,0-3Z"/><path class="cls-1" d="M158.5,0h-1a1.5,1.5,0,0,0,0,3h1a1.5,1.5,0,0,0,0-3Z"/><path class="cls-1" d="M122.5,0h-1a1.5,1.5,0,0,0,0,3h1a1.5,1.5,0,0,0,0-3Z"/><path class="cls-1" d="M128.5,0h-1a1.5,1.5,0,0,0,0,3h1a1.5,1.5,0,0,0,0-3Z"/><path class="cls-1" d="M116.5,0h-1a1.5,1.5,0,0,0,0,3h1a1.5,1.5,0,0,0,0-3Z"/><path class="cls-1" d="M140.5,0h-1a1.5,1.5,0,0,0,0,3h1a1.5,1.5,0,0,0,0-3Z"/><path class="cls-1" d="M134.5,0h-1a1.5,1.5,0,0,0,0,3h1a1.5,1.5,0,0,0,0-3Z"/><path class="cls-1" d="M146.5,0h-1a1.5,1.5,0,0,0,0,3h1a1.5,1.5,0,0,0,0-3Z"/><path class="cls-1" d="M152.5,0h-1a1.5,1.5,0,0,0,0,3h1a1.5,1.5,0,0,0,0-3Z"/></g></g></svg>