<svg xmlns="http://www.w3.org/2000/svg" viewBox="0 0 329.42 64.7"><defs><style>.cls-1{fill:#fff;}.cls-2{fill:#ff7d97;}</style></defs><title>Lines 10</title><g id="Calque_2" data-name="Calque 2"><g id="Line_10" data-name="Line 10"><path class="cls-1" d="M329.42,14.56l-8-4.71,7.83-5.5c-.24-.41-.48-.82-.73-1.23l-9.19,4.3c.4-2.76.68-4.7,1-6.65-2.67,8.94-9.27,11.88-18.09,12.78C303,9,303.87,4.71,304.69.43L303,0c-1,3.73-1.73,7.57-3.15,11.14-.75,1.9-2.4,4.29-4.14,4.81a453.47,453.47,0,0,1-99.31,17.87c0-4.94,1.76-11.9-.41-13.5-3.25-2.38-9.27-1-14.22-1.19.58-4.4,1.71-11.69-5.73-12.73-11-1.53-10,8.87-12.08,15.85-10.14-10-14.88-11.18-20.65-5.48-4.63,4.58-3,9.29,6.69,18.41a34.29,34.29,0,0,1-4.48.22c-34.52-3.32-69-6.84-103.56-9.91-8.33-.74-13.2-4-14.2-12.52-.11-1-.95-1.89-1.46-2.84l-1.16.37,2.53,11.36c-8.38.4-14.85-1.43-18.13-9.78.47,2.09,1,4.18,1.55,6.85L.29,17.28C.2,17.7.1,18.12,0,18.54l8,3.11L1.28,26.08c8.72-3.43,17.18-4.95,26.82,0L15.88,37.36l1.3,1.4c3-2.54,6.3-4.79,8.9-7.68,3.7-4.11,7.41-4.9,13.11-4.1,25.57,3.61,51.25,6.52,76.93,9.32,9.8,1.06,19.7,1.14,27.6,1.56-.2,4.66-1.92,9.48-.24,12.14,4.71,7.42,11.47,3.1,17.52.66.7,6.44.07,13.68,8.44,14,7.94.33,9.09-6.18,9.75-12.71a54.48,54.48,0,0,0,6.57,3.35c4.73,1.68,9.27,1.25,11.78-3.63s-1-7.54-4.51-9.91c-2-1.33-4.12-2.45-7.67-4.53,3.57-.46,5.19-.77,6.83-.87A498,498,0,0,0,296,18.74c2.4-.66,5.77.53,8.16,1.83,3.56,1.94,6.65,4.75,9.94,7.19l1-1.35L304,16.94C312.4,11.56,320.59,10.8,329.42,14.56Z"/><path class="cls-2" d="M146.85,28.05c5.32,3.54,11.59,5.64,17.49,8.31l2.39-3.21c-3.73-5.06-7.15-10.41-11.3-15.1-3.24-3.66-7.89-2.2-9.89,1C144.26,21.15,145.06,26.86,146.85,28.05Z"/><path class="cls-2" d="M178.93,16.37c.58-2-2.29-4.93-3.58-7.44-2.19,1.49-5.91,2.69-6.28,4.54-1.22,6.28-1.25,12.78-1.74,19.2l4.1.94C174,27.89,177.15,22.33,178.93,16.37Z"/><path class="cls-2" d="M167.61,39c-1.12,5.41-2.91,10.81-3,16.24-.05,2.2,3.54,4.47,5.47,6.71,1.95-2.32,5.69-4.8,5.5-6.92-.48-5.39-2.73-10.63-4.27-15.92Z"/><path class="cls-2" d="M193.26,45.72c-6-3.4-12.34-6.33-18.55-9.42-.74,1.08-1.48,2.15-2.21,3.23,4.92,4.47,9.59,9.28,14.95,13.14,1.3.93,5-1.2,7.33-2.32C195,50.25,194.36,46.34,193.26,45.72Z"/><path class="cls-2" d="M163.9,37.83c-5,1-10.14,1.39-14.83,3.13-1.89.7-2.73,4.25-4,6.5,2.83,1.09,6.52,3.87,8.32,2.95,4.51-2.29,8.16-6.26,12.15-9.56Z"/><path class="cls-2" d="M193.34,28.64c1.21-1.6.47-4.68.62-7.08-2.19,0-5-.84-6.46.18-4.25,2.9-8,6.56-13.16,11C182.93,34.46,189.08,34.28,193.34,28.64Z"/></g></g></svg>