<svg xmlns="http://www.w3.org/2000/svg" viewBox="0 0 187.2 143.35"><defs><style>.cls-1{fill:#ff7d97;}.cls-2{fill:#324b56;}.cls-3{fill:none;}.cls-4{fill:#fff;}</style></defs><title>Birthday 08</title><g id="Calque_2" data-name="Calque 2"><g id="Birthday_08" data-name="Birthday 08"><path class="cls-1" d="M77.18,20.65a20.08,20.08,0,0,0,.61,3.67,54.16,54.16,0,0,0-34.7,32.33h101a54.19,54.19,0,0,0-33.57-32,32.6,32.6,0,0,0-.25-4A57.9,57.9,0,0,1,148,56.65h1.48A59.32,59.32,0,0,0,110,19.2q-.19-1.11-.48-2.22c-.52-2-1.38-4.58-2.18-6.81L93.65,8.72A67.68,67.68,0,0,0,78,10.58c-.12.5-.23,1-.32,1.42a31.85,31.85,0,0,0-.55,7.22A59.32,59.32,0,0,0,37.69,56.65h1.48A57.86,57.86,0,0,1,77.18,20.65Z"/><path class="cls-1" d="M93.59,130.13a54.07,54.07,0,0,0,50.12-33.77H43.46A54.09,54.09,0,0,0,93.59,130.13Z"/><path class="cls-1" d="M93.59,133.82A57.79,57.79,0,0,1,39.5,96.36H38a59.18,59.18,0,0,0,111.15,0h-1.49A57.76,57.76,0,0,1,93.59,133.82Z"/><path class="cls-1" d="M77.8,10.62l.15,0h0Z"/><path class="cls-2" d="M94.09,16.9c-.41-2.12-.77-4.32-1-5.95-.2,1.43-.41,2.84-.65,4-.13.65-.29,1.3-.47,1.93l1.64,0Z"/><path class="cls-2" d="M95.3,22c-.13-.4-.24-.81-.35-1.22-.2-.76-.39-1.6-.57-2.49h-.79c-.69,0-1.39,0-2.07,0A31.84,31.84,0,0,1,90,22.09C91.19,22,92.39,22,93.59,22Q94.45,22,95.3,22Z"/><path class="cls-2" d="M16.06,77.68h-2V85a17.74,17.74,0,0,0,2.27.08c2.66,0,5-1,5-3.74S19,77.68,16.06,77.68Z"/><path class="cls-2" d="M20.72,70.28c0-2-1.5-3-4.16-3a15.76,15.76,0,0,0-2.5.15v6H16C19.06,73.48,20.72,72.21,20.72,70.28Z"/><path class="cls-2" d="M55.28,71c0-2.39-1.62-3.59-4.32-3.63a14,14,0,0,0-2.65.2v7.16h2.31C53.55,74.71,55.28,73.25,55.28,71Z"/><path class="cls-2" d="M129.71,75.75c0-5.39-3.12-8.24-8.17-8.24a12,12,0,0,0-2.66.23v17a10.51,10.51,0,0,0,2.05.12C126.24,84.89,129.71,82,129.71,75.75Z"/><path class="cls-2" d="M148.9,67.59h-.08c-.38,1.54-.77,3.5-1.19,5l-1.55,5.51h5.75l-1.62-5.51C149.74,71.05,149.28,69.13,148.9,67.59Z"/><path class="cls-2" d="M158,56.65a67.39,67.39,0,0,0-50.68-46.48c.8,2.23,1.66,4.79,2.18,6.81q.28,1.11.48,2.22a59.32,59.32,0,0,1,39.46,37.45H148a57.9,57.9,0,0,0-37.75-35.93,32.6,32.6,0,0,1,.25,4,54.19,54.19,0,0,1,33.57,32h-101a54.16,54.16,0,0,1,34.7-32.33,20.08,20.08,0,0,1-.61-3.67,57.86,57.86,0,0,0-38,36H37.69A59.32,59.32,0,0,1,77.08,19.22,31.85,31.85,0,0,1,77.63,12c.09-.45.2-.92.32-1.42A67.4,67.4,0,0,0,29.14,56.65H0V96.36H29.42a67.32,67.32,0,0,0,128.35,0H187.2V56.65ZM24.81,87.08c-1.89,1.5-5,2.35-10.21,2.35a46.1,46.1,0,0,1-6.36-.38V63.54A46.54,46.54,0,0,1,15.83,63c3.58,0,5.78.35,7.67,1.46a5.67,5.67,0,0,1,3.12,5.09c0,2.31-1.35,4.47-4.28,5.55v.08a6.48,6.48,0,0,1,5.16,6.39A6.94,6.94,0,0,1,24.81,87.08ZM37.4,89.16H31.51v-26H37.4ZM113,63.54a52,52,0,0,1,7.94-.54c4.93,0,8.13.89,10.63,2.77,2.7,2,4.39,5.21,4.39,9.79,0,5-1.81,8.4-4.31,10.52-2.74,2.27-6.9,3.35-12,3.35a51.44,51.44,0,0,1-6.66-.38Zm30.72,32.82a54.09,54.09,0,0,1-100.25,0ZM86.45,63.19h5.89v10H102v-10h5.86v26H102V78.3H92.34V89.16H86.45Zm-23.08,0h20v4.93H76.24v21h-5.9v-21h-7Zm-20.88.35A51.37,51.37,0,0,1,50.31,63c3.85,0,6.55.58,8.4,2a6.61,6.61,0,0,1,2.39,5.43,6.89,6.89,0,0,1-4.59,6.4V77c1.81.73,2.81,2.46,3.47,4.85.81,2.93,1.62,6.32,2.12,7.32h-6a31.89,31.89,0,0,1-1.81-6c-.7-3.23-1.81-4.12-4.2-4.16H48.31V89.16H42.49Zm51.1,71.66A59.2,59.2,0,0,1,38,96.36H39.5a57.77,57.77,0,0,0,108.17,0h1.49A59.17,59.17,0,0,1,93.59,135.2Zm61.09-46-2-6.66h-7.43l-1.85,6.66H137.3l7.94-26h7.7l8.05,26Zm18-10.83V89.16h-5.86V78.53L158.6,63.19h6.71L168,69.43c.81,1.89,1.35,3.28,2,5h.08c.58-1.61,1.19-3.12,2-5l2.62-6.24h6.59Z"/><path class="cls-2" d="M96,17c.09.48.18.94.28,1.4.15.69.31,1.35.46,1.95s.34,1.21.55,1.8a26.5,26.5,0,0,0,4.58,8.44c1.61,1.81,3.15,2.59,3.5,3.17s1.87,5.93,2.37,7.75,1.77,6.63,1.5,7.49a5.28,5.28,0,0,1-2.2,2.45c-1.66.94-3.26,1.35-3.07,2.07,0,0,0,0,.13,0,1.41,0,13.46-3.16,13.46-3.58s-.47-.41-1-.41-1.57.12-2.58.12h-.06a5.31,5.31,0,0,1-3.11-1.06c-.66-.62-1.93-5.55-2.36-7.28s-1.72-7.26-1.7-7.93,1-2.11,1.5-4.47a21.33,21.33,0,0,0,.37-4.81,30.33,30.33,0,0,0-.33-3.91c-.08-.5-.17-1-.28-1.51s-.17-.81-.28-1.21c-.59-2.27-1.63-5.29-2.51-7.7s-1.48-4-1.48-4a.74.74,0,0,0-.68-.45.5.5,0,0,0-.17,0l-7.79,2a.73.73,0,0,0-.53.79s0,.22.09.6C94.85,10.15,95.38,13.7,96,17Z"/><path class="cls-3" d="M84.51,105.82h0c-.14.55-.29,1.11-.47,1.68l-.91,2.69h2.8L85,107.51C84.79,106.91,84.65,106.35,84.51,105.82Z"/><path class="cls-3" d="M76.82,105.64a5.53,5.53,0,0,0-1.13.09v3.62a4,4,0,0,0,1,.09c1.45,0,2.33-.7,2.33-2S78.14,105.64,76.82,105.64Z"/><path class="cls-3" d="M92.87,105.61a5.33,5.33,0,0,0-1.19.11v3.39h1.23c1.28,0,2.1-.7,2.1-1.76S94.14,105.62,92.87,105.61Z"/><path class="cls-3" d="M121.54,67.51a12,12,0,0,0-2.66.23v17a10.51,10.51,0,0,0,2.05.12c5.31,0,8.78-2.89,8.78-9.1C129.75,70.36,126.59,67.51,121.54,67.51Z"/><path class="cls-3" d="M16.06,77.68h-2V85a17.74,17.74,0,0,0,2.27.08c2.66,0,5-1,5-3.74S19,77.68,16.06,77.68Z"/><path class="cls-3" d="M20.72,70.28c0-2-1.5-3-4.16-3a15.76,15.76,0,0,0-2.5.15v6H16C19.06,73.48,20.72,72.21,20.72,70.28Z"/><path class="cls-3" d="M51,67.35a14,14,0,0,0-2.65.2v7.16h2.31c2.93,0,4.66-1.46,4.66-3.73S53.66,67.39,51,67.35Z"/><path class="cls-3" d="M148.9,67.59h-.08c-.38,1.54-.77,3.5-1.19,5l-1.55,5.51h5.75l-1.62-5.51C149.74,71.05,149.28,69.13,148.9,67.59Z"/><path class="cls-4" d="M85,48.16c.13,0,.2,0,.21,0,.14-.72-1.47-1-3.18-1.88a5.26,5.26,0,0,1-2.33-2.31c-.32-.85.69-5.83,1.07-7.58s1.62-7.28,1.94-7.87S84.52,27,86,25.12a18,18,0,0,0,1.78-2.84,29.62,29.62,0,0,0,1.68-3.85c.17-.47.33-.95.48-1.43.23-.78.44-1.59.6-2.4.33-1.67.62-3.8.87-5.81.4-3.38.65-6.43.65-6.43a.74.74,0,0,0-.57-.76L83.63,0H83.5a.73.73,0,0,0-.69.49S81.07,5.8,80,10.13c-.2.79-.37,1.55-.51,2.24A28.62,28.62,0,0,0,79,18.71c0,.49,0,1,.07,1.42a19.45,19.45,0,0,0,.57,3.67s0,0,0,0c.66,2.34,1.7,3.71,1.76,4.38s-.91,6.16-1.26,8-1.31,6.73-1.93,7.39a5.3,5.3,0,0,1-3,1.24c-.37,0-.72,0-1.06,0H73c-.88,0-1.48.06-1.57.49S83.3,48.16,85,48.16Z"/><path class="cls-4" d="M22.34,75.18V75.1c2.93-1.08,4.28-3.24,4.28-5.55a5.67,5.67,0,0,0-3.12-5.09C21.61,63.35,19.41,63,15.83,63a46.54,46.54,0,0,0-7.59.54V89.05a46.1,46.1,0,0,0,6.36.38c5.16,0,8.32-.85,10.21-2.35a6.94,6.94,0,0,0,2.69-5.51A6.48,6.48,0,0,0,22.34,75.18Zm-8.28-7.75a15.76,15.76,0,0,1,2.5-.15c2.66,0,4.16,1,4.16,3s-1.66,3.2-4.74,3.2H14.06Zm2.27,17.65A17.74,17.74,0,0,1,14.06,85V77.68h2c2.93,0,5.28,1,5.28,3.66S19,85.08,16.33,85.08Z"/><rect class="cls-4" x="31.51" y="63.19" width="5.89" height="25.97"/><path class="cls-4" d="M56.51,77v-.12a6.89,6.89,0,0,0,4.59-6.4A6.61,6.61,0,0,0,58.71,65c-1.85-1.46-4.55-2-8.4-2a51.37,51.37,0,0,0-7.82.54V89.16h5.82V79h1.77c2.39,0,3.5.93,4.2,4.16a31.89,31.89,0,0,0,1.81,6h6c-.5-1-1.31-4.39-2.12-7.32C59.32,79.45,58.32,77.72,56.51,77Zm-5.89-2.28H48.31V67.55a14,14,0,0,1,2.65-.2c2.7,0,4.32,1.24,4.32,3.63S53.55,74.71,50.62,74.71Z"/><polygon class="cls-4" points="76.24 89.16 76.24 68.12 83.33 68.12 83.33 63.19 63.37 63.19 63.37 68.12 70.34 68.12 70.34 89.16 76.24 89.16"/><polygon class="cls-4" points="86.45 63.19 86.45 89.16 92.34 89.16 92.34 78.3 102.01 78.3 102.01 89.16 107.87 89.16 107.87 63.19 102.01 63.19 102.01 73.17 92.34 73.17 92.34 63.19 86.45 63.19"/><path class="cls-4" d="M131.56,65.77c-2.5-1.88-5.7-2.77-10.63-2.77a52,52,0,0,0-7.94.54V89.05a51.44,51.44,0,0,0,6.66.38c5.09,0,9.25-1.08,12-3.35C134.14,84,136,80.53,136,75.56,136,71,134.26,67.78,131.56,65.77ZM120.93,84.85a10.51,10.51,0,0,1-2.05-.12v-17a12,12,0,0,1,2.66-.23c5,0,8.21,2.85,8.17,8.24C129.71,82,126.24,84.89,120.93,84.85Z"/><path class="cls-4" d="M145.24,63.19l-7.94,26h6.09l1.85-6.66h7.43l2,6.66H161l-8.05-26Zm.84,14.91,1.55-5.51c.42-1.5.81-3.46,1.19-5h.08c.38,1.54.84,3.46,1.31,5l1.62,5.51Z"/><path class="cls-4" d="M174.63,63.19,172,69.43c-.77,1.85-1.38,3.36-2,5H170c-.65-1.69-1.19-3.08-2-5l-2.66-6.24H158.6l8.21,15.34V89.16h5.86V78.33l8.55-15.14Z"/><path class="cls-4" d="M76.79,104.69a13.54,13.54,0,0,0-2.3.18v9.18h1.2v-3.72a4.1,4.1,0,0,0,1,.08,3.85,3.85,0,0,0,2.85-1,2.74,2.74,0,0,0,.71-2,2.5,2.5,0,0,0-.81-1.94A3.8,3.8,0,0,0,76.79,104.69Zm-.11,4.75a4,4,0,0,1-1-.09v-3.62a5.53,5.53,0,0,1,1.13-.09c1.32,0,2.19.59,2.19,1.82S78.13,109.44,76.68,109.44Z"/><path class="cls-4" d="M83.81,104.76l-3.16,9.29h1.24l1-2.92h3.3l1,2.92h1.28l-3.17-9.29Zm-.7,5.43L84,107.5c.18-.57.33-1.13.47-1.68h0c.14.53.28,1.09.49,1.69l.91,2.68Z"/><path class="cls-4" d="M94.46,109.62v0a2.43,2.43,0,0,0,1.75-2.37,2.33,2.33,0,0,0-.73-1.77,3.83,3.83,0,0,0-2.69-.75,13,13,0,0,0-2.31.19v9.17h1.2v-4h1.13c1.09,0,1.59.53,1.87,1.81a11.93,11.93,0,0,0,.62,2.22h1.24a15.58,15.58,0,0,1-.72-2.55A2.33,2.33,0,0,0,94.46,109.62Zm-1.55-.51H91.68v-3.39a5.33,5.33,0,0,1,1.19-.11c1.27,0,2.14.54,2.14,1.74S94.19,109.11,92.91,109.11Z"/><polygon class="cls-4" points="97.65 105.78 100.48 105.78 100.48 114.05 101.69 114.05 101.69 105.78 104.54 105.78 104.54 104.75 97.65 104.75 97.65 105.78"/><path class="cls-4" d="M110.34,107.32c-.36.7-.68,1.31-.94,1.92h0c-.28-.65-.56-1.22-.92-1.92l-1.31-2.56h-1.37l2.94,5.35v3.94h1.22v-4l3.11-5.33h-1.36Z"/></g></g></svg>