<svg xmlns="http://www.w3.org/2000/svg" viewBox="0 0 192 123.06"><defs><style>.cls-1{fill:#324b56;}.cls-2{fill:#ff7d97;}.cls-3{fill:#fff;}</style></defs><title>Birthday 05</title><g id="Calque_2" data-name="Calque 2"><g id="Birthday_07" data-name="Birthday 07"><path class="cls-1" d="M6.08,112a.72.72,0,0,0,.51,1.35l33.83-12.82L6.11,112Z"/><path class="cls-1" d="M178.1,120,119.6,97.42l58,23.94h0a.72.72,0,1,0,.52-1.34Z"/><path class="cls-1" d="M.44,119.9A.72.72,0,0,0,1,121.23L55.25,98.7.46,119.9Z"/><path class="cls-1" d="M11.81,88.41a.72.72,0,0,0,.81.63L24.8,87.57l-12.27,0h-.09A.73.73,0,0,0,11.81,88.41Z"/><path class="cls-1" d="M18.52,62.55a.72.72,0,0,0,.49.89l19.73,5.71L19.46,62.07h-.05A.72.72,0,0,0,18.52,62.55Z"/><path class="cls-1" d="M52.67,25.85a.72.72,0,0,0-1.21.77L67.63,52.16,52.69,25.88Z"/><path class="cls-1" d="M75.56,18.45a.72.72,0,0,0-.85-.56.73.73,0,0,0-.56.86l6.77,32.73-5.35-33Z"/><path class="cls-1" d="M99.61,18.68a.72.72,0,0,0-.6-.82.71.71,0,0,0-.82.6L92.92,51.55,99.6,18.71Z"/><path class="cls-1" d="M122.34,26.5a.73.73,0,0,0-.27-1,.71.71,0,0,0-1,.27l-13.9,24.7,15.13-24Z"/><path class="cls-1" d="M154.41,61.9,131,70.19l23.83-6.92,0,0a.72.72,0,1,0-.48-1.35Z"/><path class="cls-1" d="M31.42,43.42a.72.72,0,1,0-.74,1.23L48,55,31.46,43.44Z"/><path class="cls-1" d="M141.32,45.71a.72.72,0,1,0-.87-1.15l-11.74,9.35,12.57-8.17Z"/><path class="cls-1" d="M163,86.35a.72.72,0,0,0-.75-.69l-10,.45,10,1h.1A.72.72,0,0,0,163,86.35Z"/><path class="cls-1" d="M137.81,100.59l29.47,10h0a.72.72,0,1,0,.4-1.38Z"/><path class="cls-1" d="M3.27,96.94l23-4.38-23.2,3H3a.72.72,0,0,0,.27,1.42Z"/><path class="cls-1" d="M6.17,70.21l40,7.35L6.46,68.8h0a.72.72,0,0,0-.26,1.42Z"/><path class="cls-1" d="M17.41,45.78,38.74,57,18.12,44.52l0,0a.72.72,0,1,0-.68,1.28Z"/><path class="cls-1" d="M44.73,34.3a.72.72,0,0,0-1,0,.72.72,0,0,0,0,1l16.45,18L44.76,34.33Z"/><path class="cls-1" d="M60.79,12.8a.72.72,0,0,0-.94-.4.71.71,0,0,0-.4.93l15.1,38L60.8,12.83Z"/><path class="cls-1" d="M86.65,7.93a.71.71,0,0,0-.7.73l.9,42.82.54-42.82v0A.72.72,0,0,0,86.65,7.93Z"/><path class="cls-1" d="M113.93,13.1a.72.72,0,1,0-1.36-.48L99.07,51.48l14.85-38.36Z"/><path class="cls-1" d="M129,35.93a.72.72,0,1,0-1.13-.9L114,52.6,129,36Z"/><path class="cls-1" d="M156.21,45.23l0,0a.72.72,0,0,0,.23-1,.72.72,0,0,0-1-.23L137.81,55Z"/><path class="cls-1" d="M167.65,69.57a.72.72,0,1,0-.29-1.41L119.6,78.1l48-8.53Z"/><path class="cls-1" d="M173.13,96.28h0a.72.72,0,0,0,.14-1.44l-27.53-2.56Z"/><path class="cls-1" d="M136.14,45.88c3.49-.64,6.94-2.69,9.18-3.89a10,10,0,0,0,4.23-3.68,4.47,4.47,0,0,0,.37-3.85,4.16,4.16,0,0,0-2.11-2.32,4.68,4.68,0,0,0-3.05-.53,4.24,4.24,0,0,0-1.38.52l-1,.57-.2-1.13a4.13,4.13,0,0,0-.47-1.4,4.64,4.64,0,0,0-2.35-2,4.11,4.11,0,0,0-3.12-.16,4.39,4.39,0,0,0-2.75,2.73,10,10,0,0,0-.17,5.6C133.83,38.81,134.42,42.77,136.14,45.88Z"/><path class="cls-1" d="M32.06,28.86a9.88,9.88,0,0,0,5.24,1.75c2.5.23,6.41.8,9.84.06.39-3.48-.58-7.32-1.07-9.78a9.89,9.89,0,0,0-2.27-5,4.4,4.4,0,0,0-3.54-1.45,4.1,4.1,0,0,0-2.79,1.34,4.55,4.55,0,0,0-1.36,2.73,4,4,0,0,0,.1,1.45L36.46,21l-1.13-.14a4,4,0,0,0-1.46.05,4.56,4.56,0,0,0-2.57,1.64,4,4,0,0,0-1,2.91A4.34,4.34,0,0,0,32.06,28.86Z"/><path class="cls-2" d="M77.72,107.21a.57.57,0,0,0-.27-.13.44.44,0,0,0-.3.09c-.18.16-.41.38-.68.66s-.59.55-1,.85a10.14,10.14,0,0,1-1.23.84,5.51,5.51,0,0,1-1.5.58,6.07,6.07,0,0,0,.38-1.37,4,4,0,0,0-.28-2.27,2.53,2.53,0,0,0-.56-.84,2.46,2.46,0,0,0-.91-.56,3,3,0,0,0-1.3-.14,2.62,2.62,0,0,0-.78.19,4,4,0,0,0-.69.41,3.08,3.08,0,0,0-.56.58,3.38,3.38,0,0,0-.39.69,4.26,4.26,0,0,0-1,.7,3.81,3.81,0,0,0-.77,1,4.13,4.13,0,0,0-.41,1.3,4.06,4.06,0,0,0,0,.61l-.22.25a9,9,0,0,1-1.38,1.3,1.23,1.23,0,0,1-1.1.34.64.64,0,0,1-.41-.32,1.77,1.77,0,0,1-.17-.55,3.29,3.29,0,0,1,0-.63,4.54,4.54,0,0,1,.06-.57,6.1,6.1,0,0,1,.3-1.17c.16-.47.36-1,.6-1.55s.5-1.17.79-1.81.6-1.27.91-1.9.63-1.27.94-1.87.6-1.17.88-1.7c.87-.06,1.73-.12,2.59-.15s1.64,0,2.35,0a9.71,9.71,0,0,1,1.79.16,1.43,1.43,0,0,1,.92.41s.07,0,.13,0a.7.7,0,0,0,.14-.23.79.79,0,0,0,.06-.32.37.37,0,0,0-.14-.3,2.82,2.82,0,0,0-1.13-.61,9.37,9.37,0,0,0-1.69-.33,19.28,19.28,0,0,0-2.06-.08c-.73,0-1.47,0-2.22.08l.66-1.2a.23.23,0,0,0-.06-.34,1,1,0,0,0-.49-.16,2.51,2.51,0,0,0-.66,0,1.27,1.27,0,0,0-.59.26,2.85,2.85,0,0,0-.37.49c-.19.28-.44.66-.73,1.13l-1.76.24c-.55.08-1,.15-1.46.23l-1,.2-.51.12a1.17,1.17,0,0,0-.55.37.64.64,0,0,0-.12.4.4.4,0,0,0,.15.29.28.28,0,0,0,.28.07l.37-.07.9-.11,1.32-.15c.49-.06,1-.12,1.61-.17-.43.74-.87,1.56-1.33,2.46s-.88,1.81-1.27,2.73a27.18,27.18,0,0,0-.95,2.69,9.05,9.05,0,0,0-.39,2.34,6.15,6.15,0,0,0,.07,1,2.62,2.62,0,0,0,.26.86,1.77,1.77,0,0,0,1.49.94,2.88,2.88,0,0,0,1.59-.32,7,7,0,0,0,1.52-1l.36-.36c0,.07.06.14.09.23a2.47,2.47,0,0,0,.49.68,3.07,3.07,0,0,0,.9.6,3.55,3.55,0,0,0,1.42.27,3.2,3.2,0,0,0,1.8-.54A6,6,0,0,0,72,111.52a6.15,6.15,0,0,0,2.12-.49,9.41,9.41,0,0,0,1.75-1,7.37,7.37,0,0,0,1.28-1.18,5.46,5.46,0,0,0,.72-1,.42.42,0,0,0,0-.33A.49.49,0,0,0,77.72,107.21Zm-8,4.82a2,2,0,0,1-.94.23,1.31,1.31,0,0,1-.94-.32,1.72,1.72,0,0,1-.48-1.06,3.62,3.62,0,0,1,0-.93,1.55,1.55,0,0,1,.06-.31l.22-.32a2.57,2.57,0,0,0,.15.47,2,2,0,0,0,.41.59,3,3,0,0,0,.7.5,4.51,4.51,0,0,0,1,.41,3.31,3.31,0,0,0,.58.15A2.9,2.9,0,0,1,69.77,112Zm2-3.09a6.31,6.31,0,0,1-.43,1.29,6.23,6.23,0,0,1-1.24-.19,2.21,2.21,0,0,1-.8-.35,1.32,1.32,0,0,1-.41-.48,1.8,1.8,0,0,1-.16-.56,5.13,5.13,0,0,1,0-.53A4,4,0,0,1,70.6,108c.06,0,.09-.06.08-.21a1.9,1.9,0,0,0-.12-.53,2.63,2.63,0,0,0-.27-.56.54.54,0,0,0-.32-.29,2.81,2.81,0,0,0-.92,0,2.11,2.11,0,0,1,.39-.4,1.15,1.15,0,0,1,.52-.21,2,2,0,0,1,.91.06,1.34,1.34,0,0,1,.58.4,1.72,1.72,0,0,1,.31.62,4.7,4.7,0,0,1,.13.78A4.55,4.55,0,0,1,71.82,108.94Z"/><path class="cls-2" d="M116,106.88a.64.64,0,0,0-.33,0,.43.43,0,0,0-.23.21c0,.06-.13.22-.3.47s-.38.55-.65.89-.57.71-.92,1.1a13.39,13.39,0,0,1-1.06,1.07,7,7,0,0,1-1.11.83,2.25,2.25,0,0,1-1.06.35,1,1,0,0,1-.39-.08.84.84,0,0,1-.43-.47,10.5,10.5,0,0,0,.92-1.43,14.31,14.31,0,0,0,.67-1.38q.27-.65.42-1.11c.1-.3.16-.5.19-.58a1.31,1.31,0,0,0,0-1,1,1,0,0,0-.54-.52,1.09,1.09,0,0,0-.76,0,1.33,1.33,0,0,0-.72.54,9.63,9.63,0,0,0-1,1.81,10.36,10.36,0,0,0-.55,1.58,6.86,6.86,0,0,0-.21,1.26,8.19,8.19,0,0,0,0,.84,2,2,0,0,0,0,.42,3.34,3.34,0,0,1-.88.65,1.83,1.83,0,0,1-1,.2,1.5,1.5,0,0,1-.48-.15,1.59,1.59,0,0,1-.53-.42,2.2,2.2,0,0,1-.39-.75,2.68,2.68,0,0,1,0-1.15,6.14,6.14,0,0,1,.49-1.59,12.07,12.07,0,0,1,1.26-2.1.31.31,0,0,0-.06-.48,1.42,1.42,0,0,0-.7-.25,2.57,2.57,0,0,0-.94.09,1.28,1.28,0,0,0-.76.54,8.35,8.35,0,0,0-1.08,2.09l-.31.27a11,11,0,0,1-1.23.84,5.64,5.64,0,0,1-1.5.58,6.07,6.07,0,0,0,.38-1.37,3.71,3.71,0,0,0,0-1.33,4.2,4.2,0,0,0-.28-.94,2.53,2.53,0,0,0-.56-.84,2.46,2.46,0,0,0-.91-.56,3,3,0,0,0-1.31-.14,2.63,2.63,0,0,0-.77.19,3.69,3.69,0,0,0-.69.41,3.08,3.08,0,0,0-.56.58,3.38,3.38,0,0,0-.39.69,4.26,4.26,0,0,0-1,.7,3.81,3.81,0,0,0-.77,1,4.27,4.27,0,0,0-.32.89c-.47.39-1,.78-1.51,1.17s-1.2.84-1.84,1.26l.08-.32a6.37,6.37,0,0,0,.89-1.11,8.85,8.85,0,0,0,.67-1.25,11.51,11.51,0,0,0,.46-1.32,10.88,10.88,0,0,0,.24-1.3,1.32,1.32,0,0,0-.22-1,1.13,1.13,0,0,0-.68-.48,1.07,1.07,0,0,0-.83.22,2,2,0,0,0-.64,1.12c0,.18-.11.43-.18.74s-.16.67-.25,1.08-.21.87-.34,1.36l-.42,1.55a3.39,3.39,0,0,1-1,.47,2.69,2.69,0,0,1-1.14.08,1.48,1.48,0,0,1-1-.45,1.57,1.57,0,0,1-.36-.91,3.81,3.81,0,0,1,.08-1.19,9.91,9.91,0,0,1,.39-1.28c.16-.43.33-.84.51-1.22s.34-.71.47-1,.08-.3-.06-.35a1.26,1.26,0,0,0-.53,0,5,5,0,0,0-.64.11l-.43.1c-.18,0-.38.26-.59.61a5.83,5.83,0,0,0-.57,1.3,8.3,8.3,0,0,0-.36,1.65,5.26,5.26,0,0,0,.06,1.69,3,3,0,0,0,.66,1.39,2.37,2.37,0,0,0,1.46.76,4.59,4.59,0,0,0,1.37.06,4.77,4.77,0,0,0,1.21-.3l-.11.32-3,1.93q-1.45,1-2.64,1.86a14.8,14.8,0,0,0-2,1.76,3.85,3.85,0,0,0-1,1.63,2.54,2.54,0,0,0-.06,1.15,2.33,2.33,0,0,0,.37.91,2,2,0,0,0,.66.61,1.63,1.63,0,0,0,.81.23,5.57,5.57,0,0,0,2.16-.37,6.64,6.64,0,0,0,1.79-1.07A8.66,8.66,0,0,0,86.12,120a13.5,13.5,0,0,0,1.17-2,19.84,19.84,0,0,0,.91-2.22c.26-.77.5-1.53.7-2.28.75-.49,1.49-1,2.21-1.47.52-.35,1-.71,1.49-1.06,0,.12,0,.24.05.37a3,3,0,0,0,.2.57,2.28,2.28,0,0,0,.49.68,3.07,3.07,0,0,0,.9.6,3.55,3.55,0,0,0,1.42.27,3.15,3.15,0,0,0,1.79-.54A5.87,5.87,0,0,0,99,111.52a6.15,6.15,0,0,0,2.12-.49,8.26,8.26,0,0,0,1.44-.8,4.16,4.16,0,0,0,.15,1.15,3.13,3.13,0,0,0,1,1.56,2.71,2.71,0,0,0,1.65.64,4.29,4.29,0,0,0,1.58-.23,4.85,4.85,0,0,0,1.33-.75,2,2,0,0,0,.53.51,1.89,1.89,0,0,0,.78.28,2.65,2.65,0,0,0,1.46-.25,6.64,6.64,0,0,0,1.48-.91,12.08,12.08,0,0,0,1.38-1.31c.43-.48.82-1,1.16-1.4s.61-.87.82-1.23a5.14,5.14,0,0,0,.38-.75.66.66,0,0,0,0-.47A.41.41,0,0,0,116,106.88Zm-25.84.49a3.55,3.55,0,0,1,.22-.82.21.21,0,0,1,.08-.11.09.09,0,0,1,.06,0l0,.1a.26.26,0,0,1,0,.07,5.48,5.48,0,0,1-.2,1,7,7,0,0,1-.48,1.2C90,108.27,90.08,107.78,90.16,107.37Zm-4.33,9.81a14.13,14.13,0,0,1-1.27,2.06,7.6,7.6,0,0,1-1.49,1.55,4.12,4.12,0,0,1-1.73.82,1.22,1.22,0,0,1-.54,0,.81.81,0,0,1-.38-.2.72.72,0,0,1-.21-.33,1.16,1.16,0,0,1,0-.42,2.35,2.35,0,0,1,.61-1.27A11.35,11.35,0,0,1,82.25,118c.62-.49,1.32-1,2.12-1.53s1.63-1.08,2.5-1.64C86.56,115.62,86.21,116.41,85.83,117.18Zm11-5.15a2.07,2.07,0,0,1-.94.23,1.31,1.31,0,0,1-.94-.32,1.67,1.67,0,0,1-.48-1.06,3.63,3.63,0,0,1,0-.93,3,3,0,0,1,.14-.55l.14-.13a2.4,2.4,0,0,0,.16.52,2,2,0,0,0,.41.59,2.8,2.8,0,0,0,.7.5,4.34,4.34,0,0,0,1.05.41,3.1,3.1,0,0,0,.58.15A3.23,3.23,0,0,1,96.78,112Zm2-3.09a5.73,5.73,0,0,1-.42,1.29,6.23,6.23,0,0,1-1.24-.19,2.13,2.13,0,0,1-.8-.35,1.32,1.32,0,0,1-.41-.48,1.57,1.57,0,0,1-.16-.56,4.12,4.12,0,0,1,0-.48l0-.06a4,4,0,0,1,1.8-.12c.06,0,.09-.06.08-.21a1.9,1.9,0,0,0-.12-.53,2.63,2.63,0,0,0-.27-.56c-.11-.17-.21-.27-.32-.29a2.82,2.82,0,0,0-.92,0,2.11,2.11,0,0,1,.39-.4,1.15,1.15,0,0,1,.51-.21,2,2,0,0,1,.91.06,1.24,1.24,0,0,1,.58.4,1.59,1.59,0,0,1,.32.62,6,6,0,0,1,.13.78A4.56,4.56,0,0,1,98.82,108.94Zm11-.65c.14-.42.34-.91.58-1.45.08-.17.13-.23.16-.2s0,.13,0,.28-.21.63-.38,1.08a14.73,14.73,0,0,1-.65,1.44C109.58,109.1,109.68,108.72,109.82,108.29Z"/><path class="cls-2" d="M81.75,36.37a15.27,15.27,0,0,0,1.32-3.09,7,7,0,0,0,.29-1.57,3.08,3.08,0,0,0-.14-1.22,1.57,1.57,0,0,0-.58-.79,1.65,1.65,0,0,0-1-.29,3.08,3.08,0,0,0-1.57.45,6,6,0,0,0-1.48,1.24A12.41,12.41,0,0,0,77.22,33,21.13,21.13,0,0,0,76,35.37a28.36,28.36,0,0,0-1,2.69q-.46,1.41-.81,2.85a14.84,14.84,0,0,1-1.46.5c-.47.14-.94.26-1.4.36S70.43,42,70,42l-1.21.21c.32-1.15.61-2.3.85-3.45s.46-2.23.65-3.23.33-1.9.44-2.69.21-1.4.27-1.84a.2.2,0,0,0-.1-.21.75.75,0,0,0-.3-.12,1.75,1.75,0,0,0-.4,0,1.5,1.5,0,0,0-.39.08.62.62,0,0,0-.28.18.26.26,0,0,0-.07.27,2.61,2.61,0,0,1,0,.64q0,.52-.18,1.35c-.09.55-.21,1.18-.35,1.9s-.29,1.48-.46,2.28-.37,1.66-.59,2.53-.44,1.75-.68,2.61l-.39.09a1.5,1.5,0,0,0-.34.12,14,14,0,0,0-2.15,1,9.57,9.57,0,0,0-1.65,1.14,6.48,6.48,0,0,0-1.2,1.33,7.28,7.28,0,0,0-.8,1.51,8.14,8.14,0,0,0-.41,1.58,4.27,4.27,0,0,0,0,1.52,2,2,0,0,0,.57,1.11,1.61,1.61,0,0,0,1.28.39,3.47,3.47,0,0,0,2-.79,8.35,8.35,0,0,0,1.71-1.93,16.81,16.81,0,0,0,1.43-2.75,34,34,0,0,0,1.18-3.27c.88-.25,1.78-.48,2.71-.69s1.85-.46,2.77-.74q-.29,1.35-.45,2.64c-.1.87-.17,1.69-.19,2.46a16.36,16.36,0,0,0,.07,2.15,7.06,7.06,0,0,0,.35,1.71,3,3,0,0,0,.68,1.13,1.44,1.44,0,0,0,1,.43.63.63,0,0,0,.32-.1A.82.82,0,0,0,76,52.3.59.59,0,0,0,76,52a.2.2,0,0,0-.17-.17c-.21,0-.37-.21-.5-.5a4.58,4.58,0,0,1-.28-1.16A14.25,14.25,0,0,1,75,48.5c0-.66,0-1.36.1-2.12s.16-1.56.28-2.4.26-1.69.43-2.55A15.18,15.18,0,0,0,78,40.28a10.63,10.63,0,0,0,2-1.64A11.49,11.49,0,0,0,81.75,36.37ZM65.74,47a20.59,20.59,0,0,1-1,2.39A7.44,7.44,0,0,1,63.64,51a1.49,1.49,0,0,1-1.08.57,1,1,0,0,1-.66-.22,1.27,1.27,0,0,1-.35-.55,2.39,2.39,0,0,1-.1-.73,7.35,7.35,0,0,1,.07-.82,4.71,4.71,0,0,1,.2-.76,3.87,3.87,0,0,1,.25-.59,7,7,0,0,1,.92-1.32,7.35,7.35,0,0,1,1.12-1,9.89,9.89,0,0,1,1.28-.81,14,14,0,0,1,1.42-.64C66.4,45.13,66.08,46.1,65.74,47ZM77.81,38.8A12.81,12.81,0,0,1,76.12,40c.19-.83.4-1.64.63-2.45s.48-1.55.75-2.27a16.76,16.76,0,0,1,.85-2,10.6,10.6,0,0,1,1-1.59,5,5,0,0,1,1-1.06,2.1,2.1,0,0,1,1.11-.44.82.82,0,0,1,.58.18.94.94,0,0,1,.34.54,2.25,2.25,0,0,1,.06.84,3.77,3.77,0,0,1-.29,1.06,18.48,18.48,0,0,1-1.26,2.48,14.83,14.83,0,0,1-1.46,2A12.15,12.15,0,0,1,77.81,38.8Z"/><path class="cls-2" d="M118.33,44.09a.54.54,0,0,0-.41.3,7,7,0,0,1-.85,1,15.2,15.2,0,0,1-1.16,1c-.42.35-.88.71-1.37,1.06s-1,.7-1.53,1.05l.07-.27a5.14,5.14,0,0,0,.74-.92,6.89,6.89,0,0,0,.55-1,6.52,6.52,0,0,0,.38-1.1,7.33,7.33,0,0,0,.21-1.08,1.13,1.13,0,0,0-.19-.8.86.86,0,0,0-.56-.39.83.83,0,0,0-.69.18,1.58,1.58,0,0,0-.53.93c0,.15-.1.36-.16.62l-.21.9c-.08.35-.17.72-.28,1.13s-.22.84-.35,1.29a2.89,2.89,0,0,1-.83.4,2.48,2.48,0,0,1-1,.06,1.22,1.22,0,0,1-.82-.38,1.36,1.36,0,0,1-.3-.76,2.82,2.82,0,0,1,.08-1,6.9,6.9,0,0,1,.32-1.07,9.46,9.46,0,0,1,.43-1c.15-.31.28-.58.38-.81s.07-.24,0-.28a1,1,0,0,0-.43,0,3.41,3.41,0,0,0-.54.1l-.36.08c-.15,0-.31.21-.49.51a4.67,4.67,0,0,0-.45,1,1,1,0,0,0-.17.21s-.07.13-.17.29-.22.33-.38.55-.35.46-.57.71a8.44,8.44,0,0,1-.72.75,8.09,8.09,0,0,1-.85.67,3.94,3.94,0,0,1-.94.47,6.26,6.26,0,0,0,.42-1.12,9.2,9.2,0,0,0,.24-1.51,4.68,4.68,0,0,0,0-1.21,2,2,0,0,0-.35-.87,1.32,1.32,0,0,0-.66-.47,2,2,0,0,0-1,0,3.46,3.46,0,0,0-1.39.71,11.38,11.38,0,0,0-1.58,1.5c.07-.62.12-1.12.16-1.5s.06-.6.06-.64a.13.13,0,0,0-.13-.14,1.14,1.14,0,0,0-.34,0,4,4,0,0,0-.43.16c-.16.07-.3.15-.44.22a2.36,2.36,0,0,0-.33.24c-.09.08-.14.14-.14.19s0,.36,0,.63l0,.28,0,.06a2.71,2.71,0,0,1-.16.29l-.39.55c-.16.22-.35.46-.57.71a7.23,7.23,0,0,1-.72.75,8,8,0,0,1-.84.67,4,4,0,0,1-1,.47,6.26,6.26,0,0,0,.42-1.12,9.2,9.2,0,0,0,.24-1.51,4.68,4.68,0,0,0-.05-1.21,2,2,0,0,0-.35-.87,1.28,1.28,0,0,0-.66-.47,2,2,0,0,0-1,0,3.46,3.46,0,0,0-1.39.71,11.38,11.38,0,0,0-1.58,1.5c.07-.62.12-1.12.17-1.5s.06-.6.06-.64a.14.14,0,0,0-.14-.14,1.05,1.05,0,0,0-.33,0,3.42,3.42,0,0,0-.44.16c-.16.07-.3.15-.44.22a2.36,2.36,0,0,0-.33.24c-.09.08-.13.14-.13.19s0,.36,0,.63,0,.27,0,.42-.21.45-.36.74-.34.63-.54,1a7.54,7.54,0,0,1-.65.95,4.45,4.45,0,0,1-.72.72,1.22,1.22,0,0,1-.74.28,1.26,1.26,0,0,1-.75-.18.89.89,0,0,1-.32-.47,1.51,1.51,0,0,1,0-.64c0-.23.07-.47.12-.7a10.67,10.67,0,0,0,.51-1l.31-.69a3,3,0,0,0,.11-.33,2.08,2.08,0,0,0,.07-.5.93.93,0,0,0-.08-.45.4.4,0,0,0-.38-.22,1.35,1.35,0,0,0-.43.06,2.67,2.67,0,0,0-.15-.42,1.52,1.52,0,0,0-.29-.39,1.57,1.57,0,0,0-.49-.3,2,2,0,0,0-.74-.12,3.23,3.23,0,0,0-1.68.51,5.05,5.05,0,0,0-1.37,1.28,6.36,6.36,0,0,0-.92,1.7,4.76,4.76,0,0,0-.28,1.78,2.66,2.66,0,0,0,.27,1.14,2.19,2.19,0,0,0,.57.69,2,2,0,0,0,.73.33,2.76,2.76,0,0,0,.74.07,2.3,2.3,0,0,0,1.28-.42,4.81,4.81,0,0,0,1.08-1,2.79,2.79,0,0,0,.84.77,2,2,0,0,0,.91.32,2.24,2.24,0,0,0,1.14-.22,4,4,0,0,0,1-.68,6.94,6.94,0,0,0,.84-.94l.09-.13c0,.17,0,.33-.07.51a27,27,0,0,0-1.55,2.6,21,21,0,0,0-1.18,2.61,10.68,10.68,0,0,0-.6,2.33,3.13,3.13,0,0,0,.18,1.75,1.3,1.3,0,0,0,.58.6,1.15,1.15,0,0,0,.93,0,1.69,1.69,0,0,0,.8-.71,7.56,7.56,0,0,0,.71-1.4,18.35,18.35,0,0,0,.61-1.89c.19-.71.36-1.44.53-2.2s.3-1.52.43-2.29.24-1.49.34-2.18c.3-.39.59-.74.89-1.06a11.18,11.18,0,0,1,.88-.84,5,5,0,0,1,.82-.56,1.65,1.65,0,0,1,.74-.2.53.53,0,0,1,.29.1.68.68,0,0,1,.22.29,1.54,1.54,0,0,1,.08.52,3.22,3.22,0,0,1-.08.76,9.38,9.38,0,0,1-.33,1.26,5.77,5.77,0,0,1-.37.84,2.34,2.34,0,0,1-.58-.36l-.54-.42a2.74,2.74,0,0,0-.54-.32,1.14,1.14,0,0,0-.61-.07.84.84,0,0,0-.5.3,1.24,1.24,0,0,0-.25.56,1.8,1.8,0,0,0,0,.69,1.71,1.71,0,0,0,.33.66,2,2,0,0,0,.65.51,2.07,2.07,0,0,0,1,.21,2.93,2.93,0,0,0,.68-.12,2.44,2.44,0,0,0,.94-.51l.13,0a5,5,0,0,0,1.5-.39,6.47,6.47,0,0,0,1.24-.71,6,6,0,0,0,1-.86l.47-.54c0,.33-.08.67-.13,1a29.31,29.31,0,0,0-1.56,2.6A22.45,22.45,0,0,0,95,53.36a10.68,10.68,0,0,0-.6,2.33,3,3,0,0,0,.18,1.75,1.3,1.3,0,0,0,.58.6,1.15,1.15,0,0,0,.93,0,1.67,1.67,0,0,0,.79-.71,7,7,0,0,0,.71-1.4,16.14,16.14,0,0,0,.62-1.89c.19-.71.36-1.44.52-2.2s.31-1.52.44-2.29.24-1.49.34-2.18c.3-.39.59-.74.89-1.06a9.68,9.68,0,0,1,.88-.84,5,5,0,0,1,.82-.56,1.65,1.65,0,0,1,.74-.2.53.53,0,0,1,.29.1.68.68,0,0,1,.22.29,1.54,1.54,0,0,1,.08.52,3.22,3.22,0,0,1-.08.76,9.38,9.38,0,0,1-.33,1.26,5.77,5.77,0,0,1-.37.84,2.59,2.59,0,0,1-.59-.36l-.53-.42a3.06,3.06,0,0,0-.54-.32,1.14,1.14,0,0,0-.61-.07.84.84,0,0,0-.5.3,1.24,1.24,0,0,0-.25.56,1.62,1.62,0,0,0,0,.69,1.71,1.71,0,0,0,.33.66,2.06,2.06,0,0,0,.64.51,2.15,2.15,0,0,0,1,.21,2.93,2.93,0,0,0,.68-.12,2.44,2.44,0,0,0,.94-.51l.13,0a5,5,0,0,0,1.5-.39,6.47,6.47,0,0,0,1.24-.71,7,7,0,0,0,1-.86l.49-.57a4.2,4.2,0,0,0,.07.62,2.66,2.66,0,0,0,.55,1.16,2.08,2.08,0,0,0,1.22.63,4.06,4.06,0,0,0,1.14,0,3.65,3.65,0,0,0,1-.25l-.1.27-2.46,1.6c-.8.53-1.54,1-2.19,1.55a13.17,13.17,0,0,0-1.66,1.47,3.22,3.22,0,0,0-.83,1.36,2.27,2.27,0,0,0,0,1,2,2,0,0,0,.31.75,1.57,1.57,0,0,0,.55.51,1.32,1.32,0,0,0,.68.19,4.53,4.53,0,0,0,1.79-.31,5,5,0,0,0,1.49-.89,7.49,7.49,0,0,0,1.22-1.34,12.24,12.24,0,0,0,1-1.66,15.21,15.21,0,0,0,.75-1.85c.22-.64.42-1.27.59-1.9.62-.4,1.24-.81,1.84-1.22s1.17-.82,1.71-1.24a17,17,0,0,0,1.46-1.25,8.23,8.23,0,0,0,1.1-1.24.59.59,0,0,0,.14-.49.62.62,0,0,0-.21-.38A.48.48,0,0,0,118.33,44.09Zm-4.61.81a3.33,3.33,0,0,1,.19-.69c0-.06,0-.09.07-.09s0,0,0,0a.11.11,0,0,1,0,.08.18.18,0,0,1,0,.06,5,5,0,0,1-.17.84,6.34,6.34,0,0,1-.39,1C113.58,45.65,113.66,45.23,113.72,44.9Zm-30.35-.22a4.18,4.18,0,0,0-.41,1A5.39,5.39,0,0,0,82.79,47a1.6,1.6,0,0,0,0,.38,2.74,2.74,0,0,0,.08.37,3.33,3.33,0,0,1-.64.86,1.33,1.33,0,0,1-.84.4.72.72,0,0,1-.55-.17,1.1,1.1,0,0,1-.32-.48,2.11,2.11,0,0,1-.14-.67,5.3,5.3,0,0,1,0-.68,3.34,3.34,0,0,1,.11-.8,6.82,6.82,0,0,1,.27-.84,5.91,5.91,0,0,1,.41-.79,3.06,3.06,0,0,1,.51-.65,2.35,2.35,0,0,1,.57-.45,1.15,1.15,0,0,1,.6-.14.52.52,0,0,1,.41.19.74.74,0,0,1,.14.39,2,2,0,0,1,0,.43c0,.15,0,.25,0,.31A.07.07,0,0,0,83.37,44.68Zm3.89,8.25c-.14.73-.29,1.37-.44,1.94a9.22,9.22,0,0,1-.46,1.36q-.24.51-.45.51c-.26,0-.39-.19-.4-.54a4.66,4.66,0,0,1,.26-1.38,13.92,13.92,0,0,1,.76-1.94c.33-.72.71-1.46,1.13-2.21C87.54,51.45,87.41,52.2,87.26,52.93Zm4.4-3.56-.27-.08a.72.72,0,0,1-.25-.16.77.77,0,0,1-.14-.19.25.25,0,0,1,0-.17.15.15,0,0,1,.13-.09.35.35,0,0,1,.18.06,1.4,1.4,0,0,1,.2.17l.27.21a2.1,2.1,0,0,0,.33.22A.86.86,0,0,1,91.66,49.37ZM97,52.93c-.14.73-.29,1.37-.44,1.94a9.22,9.22,0,0,1-.46,1.36q-.24.51-.45.51c-.26,0-.39-.19-.4-.54a4.66,4.66,0,0,1,.26-1.38,15.1,15.1,0,0,1,.75-1.94c.33-.72.71-1.46,1.14-2.21C97.26,51.45,97.12,52.2,97,52.93Zm4.4-3.56-.27-.08a.72.72,0,0,1-.25-.16.77.77,0,0,1-.14-.19.2.2,0,0,1,0-.17.15.15,0,0,1,.13-.09.35.35,0,0,1,.18.06,1.4,1.4,0,0,1,.2.17l.27.21a1.72,1.72,0,0,0,.33.22A.86.86,0,0,1,101.38,49.37Zm8.74,3.69a11.42,11.42,0,0,1-1.06,1.72,6.36,6.36,0,0,1-1.24,1.29,3.3,3.3,0,0,1-1.44.68.86.86,0,0,1-.45,0,.74.74,0,0,1-.32-.16.62.62,0,0,1-.17-.28.81.81,0,0,1,0-.35,2,2,0,0,1,.51-1.06,9.42,9.42,0,0,1,1.23-1.18c.51-.41,1.1-.83,1.76-1.28L111,51.08Q110.6,52.1,110.12,53.06Z"/><path class="cls-2" d="M13.55,47.05a2.42,2.42,0,0,0-1.85-1,2.27,2.27,0,0,0-1.61.56A2.55,2.55,0,0,0,9.16,48a2.35,2.35,0,0,0,0,.8l.07.63-.62-.15a2.44,2.44,0,0,0-.8-.07A2.59,2.59,0,0,0,6.26,50a2.25,2.25,0,0,0-.75,1.53,2.43,2.43,0,0,0,.78,2,5.55,5.55,0,0,0,2.77,1.29,18.52,18.52,0,0,0,5.4.64,17.72,17.72,0,0,0,0-5.44A5.42,5.42,0,0,0,13.55,47.05Z"/><path class="cls-2" d="M73.11,6.66A16.15,16.15,0,0,0,76.33,10a16,16,0,0,0,3-3.58,4.76,4.76,0,0,0,1-2.44,2.09,2.09,0,0,0-.68-1.68,2,2,0,0,0-1.37-.51,2.17,2.17,0,0,0-1.38.44,2.08,2.08,0,0,0-.46.51l-.29.45-.33-.43a1.86,1.86,0,0,0-.49-.48A2.2,2.2,0,0,0,73.87,2a1.94,1.94,0,0,0-1.33.61A2.06,2.06,0,0,0,72,4.3,4.72,4.72,0,0,0,73.11,6.66Z"/><path class="cls-2" d="M168.82,56.08a1.74,1.74,0,0,0-.8-.85,1.55,1.55,0,0,0-.54-.16L167,55l.2-.39a1.34,1.34,0,0,0,.18-.53,1.77,1.77,0,0,0-.25-1.15,1.56,1.56,0,0,0-.91-.76,1.7,1.7,0,0,0-1.46.2A3.84,3.84,0,0,0,163.47,54a12.85,12.85,0,0,0-1.33,3.55,12.45,12.45,0,0,0,3.68.92,3.89,3.89,0,0,0,2.12-.15,1.69,1.69,0,0,0,1-1.09A1.58,1.58,0,0,0,168.82,56.08Z"/><path class="cls-2" d="M136.68,15.65a1.68,1.68,0,0,0-1.7.13l-.37.25-.11-.43a1.43,1.43,0,0,0-.22-.52,1.77,1.77,0,0,0-1-.7,1.59,1.59,0,0,0-1.21,0,1.73,1.73,0,0,0-1,1.13,4,4,0,0,0,.11,2.16,12.75,12.75,0,0,0,1.38,3.58,12.84,12.84,0,0,0,3.4-1.77A3.94,3.94,0,0,0,137.54,18a1.7,1.7,0,0,0,0-1.49A1.57,1.57,0,0,0,136.68,15.65Z"/><path class="cls-3" d="M27.7,84.31c-.48,1.63-.84,3-1.09,4a5,5,0,0,0-.29,1.63,1,1,0,0,0,.66.14,4.46,4.46,0,0,0,1-.16,6.41,6.41,0,0,0,1.09-.38A3.55,3.55,0,0,0,30,89a7.16,7.16,0,0,0,.69-1.62c.36-1,.79-2.3,1.3-3.88s1.06-3.36,1.67-5.36,1.23-4,1.84-6.13,1.2-4.16,1.77-6.18S38.3,62,38.75,60.4s.78-2.95,1-4a6.61,6.61,0,0,0,.3-1.85.59.59,0,0,0-.6-.52,2.79,2.79,0,0,0-1,.17,8,8,0,0,0-1,.44,3.91,3.91,0,0,0-.56.35,11.81,11.81,0,0,0-.57,1.55l-1.29,3.95C34.55,62.11,34,64,33.31,66s-1.32,4.18-2,6.34-1.33,4.28-2,6.37S28.17,82.67,27.7,84.31Z"/><path class="cls-3" d="M52.88,64.48a25.92,25.92,0,0,0,2.78-5.2,12.09,12.09,0,0,0,.92-5.47A11,11,0,0,0,55,48.75a10.54,10.54,0,0,0-3.92-3.68A12,12,0,0,0,45,43.73a19.93,19.93,0,0,0-4.47.6,23.68,23.68,0,0,0-3.89,1.34,22,22,0,0,0-3.21,1.76A25.65,25.65,0,0,0,31,49.23a18,18,0,0,0-1.6,1.48c-.39.43-.61.69-.68.79a1.19,1.19,0,0,0-.12.72,2,2,0,0,0,.27.87,1.36,1.36,0,0,0,.69.6,1.52,1.52,0,0,0,1.19-.16,3.89,3.89,0,0,0,1-.73c.36-.34.78-.71,1.26-1.12s1.06-.84,1.71-1.3a13.24,13.24,0,0,1,2.36-1.26,17.37,17.37,0,0,1,3.22-1,24.92,24.92,0,0,1,4.32-.44,7.46,7.46,0,0,1,2.92.48,6.63,6.63,0,0,1,2.18,1.34,6.74,6.74,0,0,1,1.46,2,9.37,9.37,0,0,1,1,4.69,9,9,0,0,1-.38,2.22,17.69,17.69,0,0,1-2.08,4.31,29.45,29.45,0,0,1-2.75,3.56,8.69,8.69,0,0,0-1.46-.38,10.49,10.49,0,0,0-1.64-.13A8.46,8.46,0,0,0,42,66a9.06,9.06,0,0,0-1.8.6,6,6,0,0,0-1.48,1,2.63,2.63,0,0,0-.83,1.33,2,2,0,0,0,.64,2.34,4.62,4.62,0,0,0,3.35.57,12.65,12.65,0,0,0,2.56-.58,14.61,14.61,0,0,0,2.91-1.38,10.09,10.09,0,0,1,1.5,2.42,10.62,10.62,0,0,1,.82,3,12,12,0,0,1-.05,3.33,11.45,11.45,0,0,1-1.1,3.5,26.07,26.07,0,0,1-3.91,6.29,25.17,25.17,0,0,1-4.93,4.49,22.34,22.34,0,0,1-5.45,2.75,21.83,21.83,0,0,1-5.47,1.12,16.21,16.21,0,0,1-5-.4,10.8,10.8,0,0,1-4-1.81,7.82,7.82,0,0,1-2.52-3.15,8.25,8.25,0,0,1-.52-4.39,15.67,15.67,0,0,1,1.41-4.78A19.19,19.19,0,0,1,21,77.81a14.14,14.14,0,0,1,3.75-3.11A8.41,8.41,0,0,1,29,73.54a1.85,1.85,0,0,0,1.14-.36,1.64,1.64,0,0,0,.61-.84,1,1,0,0,0-.09-.88,1.13,1.13,0,0,0-1-.48,11.58,11.58,0,0,0-4,.38A14.94,14.94,0,0,0,22,73a18.9,18.9,0,0,0-3.41,2.64A20.58,20.58,0,0,0,15.74,79a19.13,19.13,0,0,0-2,3.81,14.3,14.3,0,0,0-.92,4,13,13,0,0,0,.92,6.51,10.64,10.64,0,0,0,3.54,4.34,13.75,13.75,0,0,0,5.41,2.24,22.13,22.13,0,0,0,6.54.24,27.74,27.74,0,0,0,6.94-1.68A28.4,28.4,0,0,0,42.78,95a27,27,0,0,0,5.5-5.3,21.89,21.89,0,0,0,3.65-7,19.8,19.8,0,0,0,.78-3.87,18.41,18.41,0,0,0,0-4,14.48,14.48,0,0,0-.94-3.73,9.09,9.09,0,0,0-2-3A20.71,20.71,0,0,0,52.88,64.48Zm-9.61,5A2.81,2.81,0,0,1,42.1,70l-1,0a4.83,4.83,0,0,1-.86-.09.91.91,0,0,1-.49-.25c-.09-.12-.06-.29.11-.53a2.49,2.49,0,0,1,.64-.6,6.16,6.16,0,0,1,.87-.5,4.13,4.13,0,0,1,.88-.33,2.63,2.63,0,0,1,.68-.12,5.23,5.23,0,0,1,2.21.51A13.18,13.18,0,0,1,43.27,69.46Z"/><path class="cls-3" d="M60.61,74.93a1.71,1.71,0,0,0,.9.57,2.9,2.9,0,0,0,1.6,0,4.05,4.05,0,0,0,1.36-.72,5.48,5.48,0,0,0,1.09-1.24A8.37,8.37,0,0,0,66.35,72a4.47,4.47,0,0,0,.17-.83,4.38,4.38,0,0,0,0-1.25,3.44,3.44,0,0,0-.44-1.27,2,2,0,0,0-1.1-.88,2.25,2.25,0,0,0-1.24,0,4.16,4.16,0,0,0-1.28.57,5.7,5.7,0,0,0-1.13,1,4.23,4.23,0,0,0-.78,1.26.82.82,0,0,0,.09.85,1.48,1.48,0,0,0,.64.57.86.86,0,0,0-.57.18,1.26,1.26,0,0,0-.48.74,2.16,2.16,0,0,0-.08.51,2.79,2.79,0,0,0,.08.74A2.11,2.11,0,0,0,60.61,74.93ZM61.67,72l.39-.39.57-.56a2.78,2.78,0,0,1,.62-.45.84.84,0,0,1,.6-.12c.42.11.64.29.65.54a2,2,0,0,1,0,.6,3,3,0,0,1-.46.86,4.08,4.08,0,0,1-.61.63,2.2,2.2,0,0,1-.61.36.64.64,0,0,1-.38.08,1,1,0,0,1-.53-.28,1.16,1.16,0,0,1-.22-.38.85.85,0,0,1,0-.38c0-.13,0-.22,0-.29s-.05-.12-.15-.19A.23.23,0,0,0,61.67,72Z"/><path class="cls-3" d="M192,80.34a1.56,1.56,0,0,0-.49-.89,1.21,1.21,0,0,0-.93-.25,1.35,1.35,0,0,0-1,.73,16.33,16.33,0,0,1-2,2.43c-.81.83-1.72,1.65-2.72,2.49s-2.08,1.66-3.24,2.49S179.26,89,178,89.82l.16-.63A13.06,13.06,0,0,0,179.92,87,18.09,18.09,0,0,0,182.13,82a16.21,16.21,0,0,0,.47-2.55,2.64,2.64,0,0,0-.42-1.88,2.17,2.17,0,0,0-1.35-.93,2,2,0,0,0-1.61.43A3.81,3.81,0,0,0,178,79.23c-.11.36-.23.85-.37,1.46s-.3,1.32-.49,2.13-.41,1.7-.66,2.66l-.82,3a6.77,6.77,0,0,1-2,.93,5.42,5.42,0,0,1-2.25.14,2.83,2.83,0,0,1-1.93-.88,3.26,3.26,0,0,1-.71-1.79,7,7,0,0,1,.18-2.32,18.64,18.64,0,0,1,.75-2.53c.32-.84.66-1.64,1-2.39s.66-1.38.91-1.91c.19-.36.15-.59-.12-.68a2.39,2.39,0,0,0-1-.08,10.26,10.26,0,0,0-1.27.22c-.43.11-.71.17-.83.19a2.55,2.55,0,0,0-1.17,1.2A11.62,11.62,0,0,0,166.16,81l-.3.65c-.22.5-.51,1.1-.88,1.82s-.79,1.48-1.27,2.29A16.81,16.81,0,0,1,162.18,88a10.46,10.46,0,0,1-1.71,1.69,3,3,0,0,1-3.51.24,2,2,0,0,1-.74-1.1,3.72,3.72,0,0,1-.06-1.5,15.61,15.61,0,0,1,.3-1.66q.72-1.32,1.2-2.4c.31-.71.56-1.25.73-1.61.06-.14.14-.41.25-.79a4.92,4.92,0,0,0,.17-1.16,2.51,2.51,0,0,0-.2-1.08,1,1,0,0,0-.89-.5,3.26,3.26,0,0,0-1,.13,5.84,5.84,0,0,0-.36-1,3.18,3.18,0,0,0-.68-.93,3.46,3.46,0,0,0-1.16-.71,4.71,4.71,0,0,0-1.75-.29,7.45,7.45,0,0,0-3.95,1.22,12.22,12.22,0,0,0-3.25,3,15,15,0,0,0-2.14,4c0,.12-.08.24-.12.36-.31.56-.65,1.15-1,1.77a16.76,16.76,0,0,1-1.6,2.18,9.88,9.88,0,0,1-1.86,1.71,4.19,4.19,0,0,1-2.07.79,3.29,3.29,0,0,1-2.48-.58,4.25,4.25,0,0,1-1.38-2.11,37.2,37.2,0,0,0,3.15-4c1-1.47,1.92-3,2.78-4.56s1.63-3.15,2.34-4.74,1.31-3.11,1.8-4.57a36.16,36.16,0,0,0,1.14-4,13.91,13.91,0,0,0,.36-3.11,5.32,5.32,0,0,0-.57-2.63,1.94,1.94,0,0,0-1.8-.88,4.11,4.11,0,0,0-2.28.74,9.88,9.88,0,0,0-2.19,2,22.2,22.2,0,0,0-2.06,2.94,38,38,0,0,0-1.85,3.54c-.57,1.24-1.09,2.51-1.58,3.79s-.9,2.52-1.26,3.7A4.4,4.4,0,0,0,129,75.6a11.11,11.11,0,0,0-3.76.88,11.25,11.25,0,0,0-2.81,1.79,10.81,10.81,0,0,0-2,2.34c-.08.12-.13.23-.2.35a1.12,1.12,0,0,0-.42.42c-.29.53-.67,1.13-1.12,1.81s-.94,1.37-1.47,2.08-1.07,1.42-1.63,2.1-1.1,1.31-1.61,1.85a14.52,14.52,0,0,1-1.39,1.32,1.88,1.88,0,0,1-1,.49c-.46,0-.8-.29-1-.86a8.58,8.58,0,0,1-.43-2.13c-.07-.86-.1-1.78-.09-2.78s0-1.94,0-2.82a14.16,14.16,0,0,0-.25-2.18c-.13-.58-.37-.89-.73-.93a3,3,0,0,0-1.68.38,6.81,6.81,0,0,0-1.58,1.2,13.05,13.05,0,0,0-1.43,1.72c-.46.64-.88,1.3-1.27,2s-.75,1.3-1.07,1.92-.62,1.12-.87,1.54a4.94,4.94,0,0,1-.64.89c-.17.17-.29.15-.38-.06a18.2,18.2,0,0,1,.48-3.12c.27-1.19.64-2.48,1.1-3.87A37.8,37.8,0,0,0,107,78.41a41.14,41.14,0,0,0,5.17-4.74A36,36,0,0,0,116.46,68a23.24,23.24,0,0,0,2.66-6.1,3.71,3.71,0,0,0,.12-1.65,2.35,2.35,0,0,0-.49-1.12,2,2,0,0,0-.88-.61,2.92,2.92,0,0,0-1-.19,9.73,9.73,0,0,0-4.21,1.17,16.85,16.85,0,0,0-3.85,2.86A23.4,23.4,0,0,0,107,64.32l-.37,0a36.55,36.55,0,0,0-4-.18c-1.43,0-2.89.07-4.36.18l1.3-2.37a.48.48,0,0,0-.13-.67,1.91,1.91,0,0,0-1-.31,4.85,4.85,0,0,0-1.3.06A2.5,2.5,0,0,0,96,61.5a6.62,6.62,0,0,0-.72,1c-.38.56-.86,1.3-1.43,2.23-1.22.15-2.37.3-3.46.46s-2,.31-2.88.46-1.51.28-2.05.39l-1,.24a2.22,2.22,0,0,0-1.09.73,1.2,1.2,0,0,0-.23.77.83.83,0,0,0,.3.59.55.55,0,0,0,.55.12,5.58,5.58,0,0,1,.73-.12c.44-.07,1-.14,1.77-.23l2.57-.3,3.18-.33c-.84,1.46-1.72,3.07-2.62,4.84s-1.74,3.56-2.48,5.36A50.07,50.07,0,0,0,85.27,83c-.17.59-.3,1.16-.42,1.71l-.26.44c-.49.79-1,1.62-1.68,2.48a21.3,21.3,0,0,1-2,2.37,11.9,11.9,0,0,1-2.1,1.77,3.51,3.51,0,0,1-2,.67,1.76,1.76,0,0,1-.65-.16,1.54,1.54,0,0,1-.63-.57,2.4,2.4,0,0,1-.33-1.12,5.26,5.26,0,0,1,.25-1.82,15.47,15.47,0,0,1,1.12-2.67,31.5,31.5,0,0,1,2.33-3.69c.06-.08.06-.3,0-.65a5,5,0,0,0-.36-1.07,4.13,4.13,0,0,0-.6-1,.76.76,0,0,0-.7-.35,3.38,3.38,0,0,0-.6.2l-1,.4-1.25.47c-.45.17-.91.32-1.37.45a7.08,7.08,0,0,0,.64-1.47A8,8,0,0,0,74,77.53a3.41,3.41,0,0,0-.7-2.72,2.83,2.83,0,0,0-2.62-.67,3.55,3.55,0,0,0-1.76.79,5.45,5.45,0,0,0-1.21,1.46,6.33,6.33,0,0,0-.69,1.7,5.89,5.89,0,0,0-.17,1.49,5,5,0,0,0,.54,2.25,3.56,3.56,0,0,0,1.15,1.29,3.32,3.32,0,0,0,1,.42c-.29.38-.63.82-1,1.32s-1.07,1.23-1.71,1.91a18.13,18.13,0,0,1-2,1.89,13.52,13.52,0,0,1-2.18,1.42,4.62,4.62,0,0,1-2.12.57,1.45,1.45,0,0,1-.63-.13,1.13,1.13,0,0,1-.49-.44,2.22,2.22,0,0,1-.3-.86,6.09,6.09,0,0,1,0-1.39,8,8,0,0,1,.38-1.74c.21-.65.45-1.31.73-2s.56-1.34.88-2,.61-1.28.87-1.84.48-1.07.66-1.49a3.71,3.71,0,0,0,.3-.92c0-.29-.17-.49-.58-.6a4.29,4.29,0,0,0-1.42-.09,5.65,5.65,0,0,0-1.57.34,2,2,0,0,0-1,.7,19.93,19.93,0,0,0-.93,1.93c-.35.8-.68,1.67-1,2.62a22.78,22.78,0,0,0-.76,3,13.26,13.26,0,0,0-.22,3,5,5,0,0,0,.51,2.13,3.41,3.41,0,0,0,1.14,1.31,4.4,4.4,0,0,0,1.55.67,8.26,8.26,0,0,0,1.73.19,6.07,6.07,0,0,0,2.42-.54,13,13,0,0,0,2.44-1.39,22.39,22.39,0,0,0,2.29-1.9,25.42,25.42,0,0,0,2-2.07c.59-.68,1.1-1.32,1.52-1.91a12.19,12.19,0,0,0,.88-1.39.38.38,0,0,0,0-.13,5.94,5.94,0,0,0,1-.22,2.6,2.6,0,0,0,.76-.35c.19-.15.33-.22.42-.2a.25.25,0,0,1,.21.12.36.36,0,0,1,0,.25.67.67,0,0,1-.09.24,11.9,11.9,0,0,0-2.28,3.83,8.45,8.45,0,0,0-.51,3.52,4.79,4.79,0,0,0,1.09,2.69A4.05,4.05,0,0,0,75,94.88a5.08,5.08,0,0,0,3.13-.52,13.82,13.82,0,0,0,3-2.07,21.89,21.89,0,0,0,2.75-2.92c.21-.27.4-.53.59-.79,0,.29,0,.59.09.88a5.24,5.24,0,0,0,.52,1.68,3.84,3.84,0,0,0,1.09,1.25,3.75,3.75,0,0,0,1.84.6,5.64,5.64,0,0,0,3.11-.62,13.38,13.38,0,0,0,3-2.05,24.1,24.1,0,0,0,2.66-2.85c.34-.43.65-.85,1-1.26-.05.35-.11.71-.14,1.05a17.15,17.15,0,0,0,0,4.08,1.31,1.31,0,0,0,.38.79,3,3,0,0,0,.68.51,2.32,2.32,0,0,0,.69.25,1.18,1.18,0,0,0,.43,0,3,3,0,0,0,1.33-.94,14,14,0,0,0,1.22-1.66c.39-.63.76-1.27,1.1-1.95s.68-1.28,1-1.83a10.15,10.15,0,0,1,.89-1.33c.27-.34.53-.48.79-.41s.38.32.39.77,0,1,0,1.68-.06,1.37,0,2.12a5.42,5.42,0,0,0,.41,2.07A3.47,3.47,0,0,0,108.23,93a4.81,4.81,0,0,0,2.7.63,4.13,4.13,0,0,0,2.08-.6,9.3,9.3,0,0,0,2-1.57,19.23,19.23,0,0,0,1.88-2.21c.5-.67,1-1.34,1.4-2,0,0,0,.12,0,.17a16.58,16.58,0,0,0,.18,1.69,4.34,4.34,0,0,0,.69,1.77,4.47,4.47,0,0,0,1.62,1.43,6.29,6.29,0,0,0,2.92.61,8,8,0,0,0,3.7-.87,15.77,15.77,0,0,0,3.6-2.51A5.45,5.45,0,0,0,132.36,91a7.25,7.25,0,0,0,1.49.83,6.13,6.13,0,0,0,1.39.37,7.19,7.19,0,0,0,1.11.1,6,6,0,0,0,2.73-.55,8.71,8.71,0,0,0,2.26-1.52,12.28,12.28,0,0,0,1.47-1.66,6.08,6.08,0,0,0,.57,1.9,4.8,4.8,0,0,0,1.35,1.63,4.33,4.33,0,0,0,1.72.78,6.88,6.88,0,0,0,1.76.18,5.72,5.72,0,0,0,3-1,12,12,0,0,0,2.56-2.35,6.48,6.48,0,0,0,2,1.81,4.72,4.72,0,0,0,2.15.75,5.34,5.34,0,0,0,2.7-.52,9.83,9.83,0,0,0,2.36-1.6,15,15,0,0,0,2-2.21c.18-.24.34-.48.5-.71,0,.19.05.38.09.56a5.93,5.93,0,0,0,1.29,2.72A4.83,4.83,0,0,0,169.67,92a9.88,9.88,0,0,0,2.69.11,9.15,9.15,0,0,0,2.37-.59l-.22.63-5.8,3.78q-2.86,1.88-5.19,3.65a30.74,30.74,0,0,0-3.9,3.47,7.45,7.45,0,0,0-2,3.2,5.07,5.07,0,0,0-.11,2.27,4.73,4.73,0,0,0,.72,1.78,3.82,3.82,0,0,0,1.3,1.2,3.14,3.14,0,0,0,1.6.44,10.94,10.94,0,0,0,4.23-.72,12.5,12.5,0,0,0,3.51-2.1,16.47,16.47,0,0,0,2.86-3.17,27.77,27.77,0,0,0,2.3-3.9,38.24,38.24,0,0,0,1.78-4.36c.52-1.52,1-3,1.38-4.49q2.21-1.43,4.35-2.88t4-2.93q1.89-1.47,3.44-2.94a20.61,20.61,0,0,0,2.6-2.92A1.5,1.5,0,0,0,192,80.34Zm-12.29.77a6.74,6.74,0,0,1,.45-1.62q.09-.19.15-.21c.05,0,.08,0,.12.06a.6.6,0,0,1,.06.19c0,.08,0,.13,0,.15a11.41,11.41,0,0,1-.4,2,13.5,13.5,0,0,1-.93,2.37C179.37,82.88,179.55,81.9,179.69,81.11ZM71.18,77.75a7,7,0,0,1-.55,2,9,9,0,0,1-.77,1.39,1,1,0,0,1-.64-.53c-.06-.15-.12-.34-.19-.56a2.39,2.39,0,0,1-.07-.79,3.35,3.35,0,0,1,.22-1,5,5,0,0,1,.68-1.23c.46-.63.82-.84,1.09-.63S71.29,77.07,71.18,77.75Zm37.5-10.37c.12-.18.24-.34.36-.51l1,.14a2.84,2.84,0,0,1,1.8.81c.07.08.15.07.26,0a2,2,0,0,0,.28-.44,1.66,1.66,0,0,0,.13-.64.79.79,0,0,0-.29-.6,5.27,5.27,0,0,0-1.74-1q.28-.33.57-.63a14.18,14.18,0,0,1,2.39-2,5,5,0,0,1,2.35-.87c.17,0,.34.08.49.32a1,1,0,0,1,.08.88,21.86,21.86,0,0,1-2.22,4.92,31.24,31.24,0,0,1-3.2,4.31A34.28,34.28,0,0,1,107,75.74c-1.39,1.15-2.83,2.22-4.3,3.21q.75-2,1.71-4c.63-1.37,1.3-2.69,2-4S107.92,68.49,108.68,67.38Zm-10,14.36C98.1,82.46,97.55,83.2,97,84c-1,1.32-2,2.51-2.94,3.59a18.92,18.92,0,0,1-2.72,2.56,2.5,2.5,0,0,1-2.17.66,1.25,1.25,0,0,1-.79-.63A3,3,0,0,1,88,89.07a6.39,6.39,0,0,1,0-1.24c0-.42.07-.8.11-1.14a12,12,0,0,1,.6-2.29c.32-.91.71-1.93,1.17-3.05s1-2.3,1.57-3.54,1.17-2.49,1.78-3.75,1.22-2.47,1.84-3.66,1.19-2.31,1.73-3.34q2.56-.19,5.1-.3c1.19-.05,2.31-.08,3.36-.08a46.83,46.83,0,0,0-2.83,4.84,48.34,48.34,0,0,0-2.32,5.39A47.73,47.73,0,0,0,98.64,81.74Zm30.88,2.84A12.9,12.9,0,0,0,129.9,87a14.59,14.59,0,0,1-2,1.85,4.74,4.74,0,0,1-1.91.93,5.78,5.78,0,0,1-1.19.15,2.33,2.33,0,0,1-1.14-.26,2.25,2.25,0,0,1-.88-.88,3.72,3.72,0,0,1-.4-1.76,8.19,8.19,0,0,1,.1-1.55,13.11,13.11,0,0,1,.41-1.91,15.89,15.89,0,0,1,.74-2,9.76,9.76,0,0,1,1.11-1.85,6.32,6.32,0,0,1,1.52-1.4,4.49,4.49,0,0,1,1.94-.7,1.76,1.76,0,0,1,1.06.22,3,3,0,0,1,.9.73,20.45,20.45,0,0,0-.54,2.94A18.13,18.13,0,0,0,129.52,84.58ZM133,78.82a47.69,47.69,0,0,1,1.36-5.15,46.3,46.3,0,0,1,1.85-4.89,30.3,30.3,0,0,1,2.07-4,10.46,10.46,0,0,1,2-2.47c.65-.53,1.21-.64,1.7-.33.08.06,0,.46-.15,1.17s-.47,1.66-.88,2.82-.92,2.47-1.54,4-1.28,3-2,4.58-1.53,3.16-2.39,4.74-1.72,3-2.6,4.4A27.42,27.42,0,0,1,133,78.82Zm21,1.77A9.36,9.36,0,0,0,153,83a14,14,0,0,0-.41,2.94,4.47,4.47,0,0,0,0,.9,5.93,5.93,0,0,0,.19.87,7.93,7.93,0,0,1-1.5,2,3.16,3.16,0,0,1-2,.93,1.67,1.67,0,0,1-1.31-.38,2.86,2.86,0,0,1-.76-1.15,5.54,5.54,0,0,1-.33-1.57,14.68,14.68,0,0,1,0-1.61,7.55,7.55,0,0,1,.25-1.88,14.77,14.77,0,0,1,.65-2,11.63,11.63,0,0,1,.95-1.86,8.72,8.72,0,0,1,1.2-1.55,5.77,5.77,0,0,1,1.34-1,2.73,2.73,0,0,1,1.42-.34,1.27,1.27,0,0,1,1,.45,1.73,1.73,0,0,1,.32.92,4.42,4.42,0,0,1-.05,1,6,6,0,0,0-.08.73A.13.13,0,0,0,154,80.59Zm17.23,19.78a27.71,27.71,0,0,1-2.48,4.06,15.74,15.74,0,0,1-2.93,3,8.17,8.17,0,0,1-3.41,1.61,2.36,2.36,0,0,1-1.06,0,1.75,1.75,0,0,1-.74-.4,1.62,1.62,0,0,1-.42-.64,2.26,2.26,0,0,1-.09-.83,4.53,4.53,0,0,1,1.2-2.49,20.73,20.73,0,0,1,2.91-2.79c1.2-1,2.59-2,4.16-3s3.21-2.11,4.92-3.2C172.63,97.31,172,98.86,171.19,100.37Z"/><path class="cls-3" d="M155.17,51.38a4.48,4.48,0,0,0,2.74-2.74,4.13,4.13,0,0,0-.15-3.13,4.66,4.66,0,0,0-2-2.35,4.4,4.4,0,0,0-1.39-.48l-1.14-.2.57-1a4.13,4.13,0,0,0,.54-1.38,4.74,4.74,0,0,0-.52-3.05,4.15,4.15,0,0,0-2.31-2.12,4.45,4.45,0,0,0-3.86.35,10.07,10.07,0,0,0-3.7,4.21c-1.2,2.24-3.27,5.67-3.93,9.16,3.1,1.74,7.06,2.35,9.55,2.86A10,10,0,0,0,155.17,51.38Z"/><path class="cls-3" d="M21.17,41a4.63,4.63,0,0,0,2.5.73,15.62,15.62,0,0,0,4.62-.15A15.64,15.64,0,0,0,27.62,37a4.69,4.69,0,0,0-1.17-2.33,2,2,0,0,0-1.69-.61,1.87,1.87,0,0,0-1.28.68,2.11,2.11,0,0,0-.59,1.3,1.78,1.78,0,0,0,.07.68l.14.52-.54,0a1.92,1.92,0,0,0-.68,0,2.2,2.2,0,0,0-1.18.82,2,2,0,0,0-.44,1.39A2.07,2.07,0,0,0,21.17,41Z"/><path class="cls-3" d="M65.33,7a15.66,15.66,0,0,0,4.44,1.42,15.59,15.59,0,0,0,.9-4.57,4.65,4.65,0,0,0-.32-2.6A2.06,2.06,0,0,0,69,.06a1.89,1.89,0,0,0-1.44.21,2.17,2.17,0,0,0-1,1,2,2,0,0,0-.16.67l0,.53-.49-.22a2,2,0,0,0-.66-.18,2.16,2.16,0,0,0-1.4.38,1.94,1.94,0,0,0-.88,1.17,2,2,0,0,0,.34,1.77A4.63,4.63,0,0,0,65.33,7Z"/><path class="cls-3" d="M177.67,66.61a1.67,1.67,0,0,0,1-1.09,1.55,1.55,0,0,0-.11-1.18,1.76,1.76,0,0,0-.8-.86,1.55,1.55,0,0,0-.54-.16l-.44,0,.2-.39a1.39,1.39,0,0,0,.18-.53,1.83,1.83,0,0,0-.25-1.15,1.58,1.58,0,0,0-.91-.77,1.7,1.7,0,0,0-1.46.2,3.82,3.82,0,0,0-1.33,1.67,12.61,12.61,0,0,0-1.33,3.55,12.66,12.66,0,0,0,3.67.91A3.82,3.82,0,0,0,177.67,66.61Z"/><path class="cls-3" d="M102.63,24a12.67,12.67,0,0,0,3.21-2.11,3.8,3.8,0,0,0,1.35-1.69,1.7,1.7,0,0,0-.13-1.48,1.62,1.62,0,0,0-1-.73,1.8,1.8,0,0,0-1.19,0,1.55,1.55,0,0,0-.49.29l-.34.29-.15-.42a1.74,1.74,0,0,0-.28-.5,1.84,1.84,0,0,0-1-.6,1.56,1.56,0,0,0-1.19.16,1.67,1.67,0,0,0-.85,1.22,3.83,3.83,0,0,0,.32,2.14A13.26,13.26,0,0,0,102.63,24Z"/></g></g></svg>