<svg xmlns="http://www.w3.org/2000/svg" viewBox="0 0 187.61 142.02"><defs><style>.cls-1{fill:#fff;}</style></defs><title>Birthday 01</title><g id="Calque_2" data-name="Calque 2"><g id="Calque_1-2" data-name="Calque 1"><g id="Calque_2-2" data-name="Calque 2"><g id="Birthday_01" data-name="Birthday 01"><path class="cls-1" d="M58.83,66.2a3,3,0,0,0-3.2-2.8,3,3,0,0,0-2.4,1.6,3,3,0,0,0,3.2,2.8A2.71,2.71,0,0,0,58.83,66.2Z"/><path class="cls-1" d="M78.23,32.5a.91.91,0,0,0,.7-.3,3.58,3.58,0,0,0,.4-1.1l.4-1.4,4.2-.3.6,1.2.3.5a1.38,1.38,0,0,0,.3.4c.1.1.2.2.3.2a.6.6,0,0,0,.4.1,1,1,0,0,0,.7-.4.62.62,0,0,0,.2-.7,4.87,4.87,0,0,0-.4-1.1L83,23.3a5.9,5.9,0,0,1-.4-.8,2.19,2.19,0,0,0-.3-.5,1,1,0,0,0-.5-.4,1.7,1.7,0,0,0-.7-.1,1.85,1.85,0,0,0-.7.2,1,1,0,0,0-.4.5c-.1.2-.2.5-.3.7l-.2.7-2.1,6.9c-.1.2-.1.4-.2.6v.4a.82.82,0,0,0,.4.6A.62.62,0,0,0,78.23,32.5Zm3-8.7,1.9,4.1-3.1.2Z"/><path class="cls-1" d="M105.13,32.3a1.88,1.88,0,0,0,.8-.2,1.49,1.49,0,0,0,.4-.9l.3-2.9,1.9.2a4.49,4.49,0,0,0,3-.5,2.94,2.94,0,0,0,1.2-2.3,3.33,3.33,0,0,0-.1-1.4,2.38,2.38,0,0,0-.6-1.1,3.59,3.59,0,0,0-1-.7,11.63,11.63,0,0,0-1.8-.4l-2.7-.3a1.23,1.23,0,0,0-1,.2,1.28,1.28,0,0,0-.4,1l-.9,7.9a1.23,1.23,0,0,0,.2,1C104.73,32.1,104.93,32.3,105.13,32.3Zm2-8.8,1.4.2a2.41,2.41,0,0,1,1.8.7,2,2,0,0,1,.3,1.1,1.3,1.3,0,0,1-1.2,1.3,2.44,2.44,0,0,1-1.2,0l-1.4-.2Z"/><path class="cls-1" d="M63.93,33.8a1.19,1.19,0,0,0,.5.9,1.08,1.08,0,0,0,.8.2c.3,0,.5-.2.7-.5a1.18,1.18,0,0,0,.1-1l-.7-3.4,4.4-1,.7,3.4a1.38,1.38,0,0,0,.5.9,1.08,1.08,0,0,0,.8.2c.3,0,.5-.2.7-.5a1.18,1.18,0,0,0,.1-1l-1.6-8a1.19,1.19,0,0,0-.5-.9,1.08,1.08,0,0,0-1.4.2.1.1,0,0,1-.1.1,1.18,1.18,0,0,0-.1,1l.6,2.9-4.4,1-.6-2.9h0a1.19,1.19,0,0,0-.5-.9.75.75,0,0,0-.8-.1,1.16,1.16,0,0,0-.7.5,1.18,1.18,0,0,0-.1,1Z"/><path class="cls-1" d="M118.23,25.7l1.6,4.3-.7,3.2a1.18,1.18,0,0,0,.1,1,1.28,1.28,0,0,0,.7.5.78.78,0,0,0,.8-.2,1.35,1.35,0,0,0,.5-.9l.7-3.2,3.4-3.3.6-.6c.1-.2.2-.3.2-.5s0-.5-.1-.6a.92.92,0,0,0-.6-.4H125a.76.76,0,0,0-.4.2l-.3.3-.4.4-2.6,2.6-1.2-3.5c-.1-.4-.3-.7-.4-1.1a.92.92,0,0,0-.6-.4.88.88,0,0,0-.7.1.66.66,0,0,0-.4.5v.5A3.59,3.59,0,0,0,118.23,25.7Z"/><path class="cls-1" d="M92.43,31.7a1.14,1.14,0,0,0,.8-.3,1.61,1.61,0,0,0,.3-.9V27.6h1.9a4.43,4.43,0,0,0,2.9-.8,3.1,3.1,0,0,0,1-2.4,5.07,5.07,0,0,0-.2-1.3,2.29,2.29,0,0,0-.7-1,2.38,2.38,0,0,0-1.1-.6,11,11,0,0,0-1.8-.2h-2.7a1.69,1.69,0,0,0-1,.3,1.21,1.21,0,0,0-.3,1v8a1.4,1.4,0,0,0,.3.9A1.42,1.42,0,0,0,92.43,31.7Zm1.2-8.9H95a2.27,2.27,0,0,1,1.8.5,1.5,1.5,0,0,1,.4,1.1,1.4,1.4,0,0,1-.3.9,2.18,2.18,0,0,1-.8.5,2.46,2.46,0,0,1-1.2.1h-1.5Z"/><path class="cls-1" d="M130,32.9a1.5,1.5,0,1,0-1.5-1.5h0A1.47,1.47,0,0,0,130,32.9Z"/><path class="cls-1" d="M55.53,32.9A1.47,1.47,0,0,0,57,31.4a1.54,1.54,0,0,0-1.5-1.5A1.47,1.47,0,0,0,54,31.4h0A1.54,1.54,0,0,0,55.53,32.9Z"/><path class="cls-1" d="M185.63,94.1c-4.5,16.5-14.9,24.5-28.5,27.4,12.9-15.9,24-39.4,28.3-49.2,1-2.3-4.6-3.8-5.9-2-1.2,2.8-2.8,6.4-4.7,10.5-1.5,2-6.3,7.1-7.6,6.9-1.7-.3,5.2-12.8,6.5-14.7a1.08,1.08,0,0,0,.2-.8c0-1.9-3.6-4.5-5.9-1.9a32.18,32.18,0,0,0-5.9,11.3c-1.9,2-6.2,6.5-7.4,6.3-1.5-.3,4.3-11.7,5.3-13.4s-2.8-5.1-4.9-2.4c-.4.5-.7,1-1.1,1.5h0c-1.5-4.3-6-5.4-7.8-4-3.1,2.4-8.4,9-8.2,14.6-2.1,2.2-5.2,4.4-5.7,3.8-3.5-4.7,7.9-25.2,12-34.9,1.5-3.6-4-6.1-5.9-2.2-3.1,6.4-7.5,14.5-10.3,21.7-2-3.4-6-4.2-7.7-2.9-4.1,3-11.6,12.9-6.7,18.8A4.48,4.48,0,0,0,119,90c1.5-.8,4.2-4,6.6-7.4v.5c0,9.6,8.1,8.6,12.8,3.4a4.53,4.53,0,0,0,1.1,1.9c1.4,1.8,3.6,2.3,5,1.5a28.6,28.6,0,0,0,5.4-6,8.18,8.18,0,0,0,.5,4.1,4.61,4.61,0,0,0,4.2,2.3c1.2,0,4.8-3.4,7-6a6.65,6.65,0,0,0,.6,3.4,5.29,5.29,0,0,0,4.6,2.6c1.9,0,4.5-2.9,5.1-3.7-5.2,10.1-14.3,25.7-23.4,35.9a99.43,99.43,0,0,1-23.7-1.9c-3.5-6.2-3.1-14.3,1-18.5,6.7-6.7,8.8.7,8.8.7s2.5.8,2.3-2.4c-.3-4.5-8-9.8-14.9-3.2-5.1,4.8-5,14.9-.8,22.7-29.6-6.2-61.7-21.3-79-27.2A14.15,14.15,0,0,0,37,83.5c6.5-3.6,11.2-15,11-29a42.1,42.1,0,0,0-.4-5c8.5-6.6,23.3,3.1,35.7,8.6-3.3,7.6-6.6,15.7-7.5,21.7a.6.6,0,0,0-.1.4c-.8,3.1-5.2,6.9-6.3,5.6-.5-.9.8-4.9,3.9-11.8,2.4-5-1.8-6.8-6-8.3.6-4.6-.5-8.1-3.8-9-4.6-.7-6.9,4.3-3.8,7.5a22.12,22.12,0,0,0,5.4,2.9,40.83,40.83,0,0,1-7,14.9h0c-2.2,2.6-5,5.5-6,5.5-1.8,0,4.5-14.6,5.6-16.6h0c-1.5-2.4-5.1-3-6.7,0-2.7,5.4-7.2,12.8-4,17.5,1.3,1.9,3.9,2.1,5.3,1.9s4.4-3.3,6.8-6.3a34.57,34.57,0,0,0,2.2-3.1,42.14,42.14,0,0,0,5.8-13c.7.2,1.4.5,2.2.8,1.6.7-5.2,9.2-7,15.3-1.1,3.7.4,6.1,4.3,6.2,2.9.1,7.2-2.8,9.3-5.9.8,8,7.9,7,12.4,2,1,3.7,3.8,4.4,6.9,3.3.4-4.4,9.2-17.4,11.1-17.4.1,0,.1,0,.2.1,2.2,1.8-19.9,27.2,2,26.7.9-.2,1.1-1.8.4-1.3s-1.9.7-2.2.2c-3.6-6,11.2-23.6,5.1-28.2-5.7-4.2-14.9,9.4-17.6,15.6.1-6.6,4.7-17.1,8.6-25.5,10.5-5.6,8.5-18.4,1.3-13.7-2.8,1.8-5.6,8.8-7.2,12.2a15.54,15.54,0,0,1-5.1-1.8h0c1.5-3.5,2.9-6.6,3.7-8.9,1.1-3.5-4.6-4.5-6.5-.3-.8,1.8-1.8,3.8-2.8,6h0c-9-5.6-19.6-13.9-28.4-13.4a12.7,12.7,0,0,0-10.2,6.4c-3.4-13.9-14.5-21.8-24.9-22.1,0-.3-.1-.6-.1-1C20.13,9.4,13.83-2,9.43.3a3.3,3.3,0,0,0-1.6,3.4,10.09,10.09,0,0,0,.7,1.5,79.93,79.93,0,0,1,6.7,20.2C6.53,28.5-.47,38.1,0,52.8c.3,10.1,3.5,17,7.3,18.9-2.5-14.7.8-29.6,7-37.6a12.86,12.86,0,0,1,1.9-2.1c2.1,15.3,2.8,42.4,3.7,55.6a19.72,19.72,0,0,0,4.2-.2c.1-17,.6-41.9-1.3-58.8,10-1.5,20.6,11.5,18.9,29.2-.9,10.1-5.1,20.2-12.3,23a2.11,2.11,0,0,0-.2,2.7c3.3,0,5.4,2.8,6.1,7.2-17.1-4.1-26.3,1.5-29.7,9.4-11.5,27.2,32.3,42.6,36.3,3.6,27.3,9.7,78.7,44.7,113.5,37.3C180.83,135.6,192.63,113.4,185.63,94.1Zm-59.4-15.3h0c-4.5,5.7-7.4,9.5-7.9,8.8-2-2.8,5.2-12.3,8.1-13.5a.81.81,0,0,1,.9.5C126.93,76,126.53,77.4,126.23,78.8Zm25,.3c-4.2,5.5-6.9,9.2-7.4,8.5-1.8-2.8,5.1-12.3,8-13.5.4-.2.9.3,1.2,1.1A33.89,33.89,0,0,0,151.23,79.1Zm-85.9-14a10.46,10.46,0,0,1-3.8-1.9,2.55,2.55,0,0,1-.3-3.6,2.72,2.72,0,0,1,2.1-.9c1.8.5,2.4,3,2,6.4Zm42.2-15.8c1.5-2.1.8,4.5-3.7,7.6.7-1.6,2.4-5.8,3.7-7.6ZM95,61.6c-3.9,8.7-7.3,18.1-7.3,20.9v1.6h0c-2,2.2-4.6,4.4-5.1,3.7-2.8-4.1,2.3-16.5,7-27.2A25.63,25.63,0,0,0,95,61.6Zm-83.8,43.3c2.9-4.6,11-7.2,26-2.8C35.23,130.6,1.73,119.4,11.23,104.9Z"/></g></g></g></g></svg>