<svg xmlns="http://www.w3.org/2000/svg" viewBox="0 0 180 103.74"><defs><style>.cls-1{fill:#fff;}.cls-2{fill:#ff7d97;}.cls-3{fill:#324b56;}</style></defs><title>Birthday 07</title><g id="Calque_2" data-name="Calque 2"><g id="Birthday_07" data-name="Birthday 07"><path class="cls-1" d="M93.75,89.77a3.77,3.77,0,0,0-2.4.67,3.33,3.33,0,0,0-.82.85L90,92l-.53-.75a3.55,3.55,0,0,0-.82-.86,3.81,3.81,0,0,0-2.4-.66,3.3,3.3,0,0,0-2.32,1,3.57,3.57,0,0,0-1.06,2.92,8.13,8.13,0,0,0,1.81,4.12c1.22,1.63,3,4.31,5.32,6,2.31-1.66,4.1-4.33,5.32-6a8.08,8.08,0,0,0,1.81-4.12,3.6,3.6,0,0,0-1.06-2.92A3.28,3.28,0,0,0,93.75,89.77Z"/><path class="cls-1" d="M79.27,15.2a3.74,3.74,0,0,1-2,.68l1.15-2a60.1,60.1,0,0,1,6.1-8.39A25.13,25.13,0,0,1,90,.38a.17.17,0,0,0,.08-.14c0-.16-.06-.24-.2-.24l-.18,0q-2.81,1-6.57,5.18a56.27,56.27,0,0,0-6.62,9l-1.13,1.86c-.27,0-.82,0-1.63,0s-2-.09-3.66-.25-2.76-.26-3.38-.28L72,7.35A6.24,6.24,0,0,0,73.13,4a2.71,2.71,0,0,0-1.46-2.43,6.71,6.71,0,0,0-3.5-.87,16.13,16.13,0,0,0-9.52,3,11.73,11.73,0,0,0-5.12,7,7.05,7.05,0,0,0-.18,1.56,4.19,4.19,0,0,0,1,2.95,3.61,3.61,0,0,0,2.92,1.21,5.47,5.47,0,0,0,1-.09,4.85,4.85,0,0,0,3.1-2.08,5.94,5.94,0,0,0,1.48-3.67,2.93,2.93,0,0,0-.59-1.83.2.2,0,0,0-.18-.09q-.24,0-.24.21a.18.18,0,0,0,.06.14,2.33,2.33,0,0,1,.48,1.51,5.6,5.6,0,0,1-1.45,3.42,4.34,4.34,0,0,1-3.48,1.8c-1.72,0-2.57-.91-2.57-2.74a9.61,9.61,0,0,1,1.8-5,14.9,14.9,0,0,1,4.9-4.69,12.94,12.94,0,0,1,6.88-1.89h.32c1.85,0,2.78.79,2.78,2.3a8.54,8.54,0,0,1-1.21,3.69q-3.26,5.4-5,8.15h-.71a8,8,0,0,0-3.45.56,6.83,6.83,0,0,0-2.22,2.06.4.4,0,0,0-.12.29c0,.1.06.15.17.13s.24-.14.39-.36a3.16,3.16,0,0,1,2-1.32,15.55,15.55,0,0,1,3.22-.21q-3.39,5.58-3.39,6.4,0,.45.54.45c.37,0,.68-.27.93-.8a54.63,54.63,0,0,1,3.37-6l6.93.21q.94,0,2-.09a10.86,10.86,0,0,0-1.56,4.48,2.39,2.39,0,0,0,.94,2.16,1.6,1.6,0,0,0,.92.21,3.71,3.71,0,0,0,1.62-.54,6.89,6.89,0,0,0,1.5-1,.67.67,0,0,0,.12-.31c0-.13,0-.19,0-.19s-.14.09-.32.28a4.28,4.28,0,0,1-1.05.68,3.19,3.19,0,0,1-1.37.4c-.57,0-.86-.34-.86-1q0-1.56,2.07-5.4a5.91,5.91,0,0,0,2.51-1c.08-.06.09-.16,0-.28S79.35,15.14,79.27,15.2Z"/><path class="cls-1" d="M85.44,20.31l1.83-1.77a4.27,4.27,0,0,0-.12,1,1.9,1.9,0,0,0,1.3,1.95,1.43,1.43,0,0,0,.5.09c.87,0,2-.75,3.39-2.2-1.5,2.41-2.27,4.16-2.27,5.25a2.77,2.77,0,0,0,1.24,2.65.32.32,0,0,0,.14,0,.53.53,0,0,0,.22-.11.2.2,0,0,0,.09-.25,3,3,0,0,1-.56-1.47,6.7,6.7,0,0,1,.85-2.91,7.27,7.27,0,0,1,1.36-2.11,3.09,3.09,0,0,0,1.34,1.06,7.45,7.45,0,0,0,1.94.18c1.33,0,2.91-.72,4.73-2.14s2.73-2.94,2.73-4.53a2,2,0,0,0-.78-1.64,2.89,2.89,0,0,0-1.84-.61,7.22,7.22,0,0,0-1.6.3,2.89,2.89,0,0,0-1.21.56c0-.73-.17-1.09-.5-1.09l-.38,0q-.95.32-3,3.15a.26.26,0,0,0-.16.1Q90.57,20.94,89,20.93c-.33,0-.55-.23-.65-.68a.57.57,0,0,1,0-.18c0-.71.61-2,1.83-3.76A27.84,27.84,0,0,0,92,13.46c0-.1-.1-.24-.29-.41a.93.93,0,0,0-.62-.27l-.42.09s0,0-.08-.16l-.15-.4a1.3,1.3,0,0,0-1.3-.68q-2.5,0-5.52,3t-3,5.15a1.84,1.84,0,0,0,.79,1.56,2.52,2.52,0,0,0,1.5.5A5.08,5.08,0,0,0,85.44,20.31Zm10.68-3.54a18.23,18.23,0,0,1,2.78-2.6,5.26,5.26,0,0,1,2.42-.56c.89,0,1.33.37,1.33,1.12a5.39,5.39,0,0,1-2.36,4.3,7.08,7.08,0,0,1-4,1.84,5.22,5.22,0,0,1-1.64-.27c-.54-.17-.81-.44-.81-.79S94.61,18.34,96.12,16.77ZM81.87,20.13q0-1.83,3-4.62t4.78-2.79a.82.82,0,0,1,.77.42l-3.13,4.31c-2,2.5-3.52,3.74-4.66,3.74C82.11,21.19,81.87,20.84,81.87,20.13Z"/><path class="cls-1" d="M115.28,15a2,2,0,0,0-.78-1.64,2.89,2.89,0,0,0-1.84-.61,7.22,7.22,0,0,0-1.6.3,2.89,2.89,0,0,0-1.21.56c0-.73-.17-1.09-.5-1.09l-.39,0q-1.23.42-4.5,5.24t-3.26,6.79a2.77,2.77,0,0,0,1.24,2.65.31.31,0,0,0,.13,0,.5.5,0,0,0,.23-.11.2.2,0,0,0,.08-.25,3.13,3.13,0,0,1-.56-1.47,6.73,6.73,0,0,1,.86-2.91,7.27,7.27,0,0,1,1.36-2.11,3.09,3.09,0,0,0,1.34,1.06,7.42,7.42,0,0,0,1.93.18c1.34,0,2.92-.72,4.74-2.14S115.28,16.62,115.28,15Zm-3.86,4a7.08,7.08,0,0,1-4,1.84,5.17,5.17,0,0,1-1.64-.27c-.54-.17-.81-.44-.81-.79s.76-1.47,2.27-3a18.23,18.23,0,0,1,2.78-2.6,5.26,5.26,0,0,1,2.42-.56c.88,0,1.33.37,1.33,1.12A5.39,5.39,0,0,1,111.42,19Z"/><path class="cls-1" d="M126.53,13.14a1.6,1.6,0,0,0-1.24.65c-.39.51-.7.89-.92,1.15a48.49,48.49,0,0,1-4.29,3.66q-2.85,2.2-3.79,2.21c-.34,0-.5-.13-.5-.38q0-1,2.61-3.77A18.72,18.72,0,0,0,121,13.61c0-.45-.34-.68-1-.68s-1.74,1-3.19,2.91-2.19,3.33-2.19,4.17a1.49,1.49,0,0,0,.39,1,1.3,1.3,0,0,0,1,.44,6,6,0,0,0,3.22-1.56l4.34-3.4-1.12,2.72a30.34,30.34,0,0,1-2.78,5q-2,2.68-3.63,2.68c-.69,0-1.51-.59-2.45-1.77a2.59,2.59,0,0,0,.68,1.82,2.13,2.13,0,0,0,1.65.81q2.87,0,5.73-4.61,1.89-3.39,2.8-5.16c0-.08.5-.78,1.39-2.1a20.15,20.15,0,0,0,1.33-2.09C127.21,13.35,127,13.14,126.53,13.14Z"/><polygon class="cls-2" points="122.65 82.27 138.08 81.11 122.65 79.93 122.65 82.27"/><path class="cls-2" d="M179.48,46.29C120,27.55,59.9,27.66.52,46.64a.65.65,0,1,0,.41,1.22c60.53-18.15,119-19,178.15-.35A.65.65,0,1,0,179.48,46.29Z"/><path class="cls-2" d="M168,80.64c-52-16.19-103.84-16.09-155.82.3a.65.65,0,0,0,.42,1.23c53.2-15.52,103.21-16.41,155-.3C168.36,82.12,168.78,80.89,168,80.64Z"/><path class="cls-3" d="M88.9,35.69q.12,14.89.23,29.78c3.13,0,4.7,0,7.83,0L97.21,53l2.44,0L99.3,65.58c3.13.09,4.69.15,7.82.33q.75-13.39,1.66-29.74c-3.45-.19-5.18-.27-8.64-.36l-.3,10.64-2.5-.06.21-10.65C94.09,35.67,92.36,35.66,88.9,35.69Z"/><path class="cls-3" d="M27.09,73.3a3.83,3.83,0,0,0,1.75-2.44,10.67,10.67,0,0,0-.28-4.52L28,63.65a7.3,7.3,0,0,0-1.93-4,6.06,6.06,0,0,0-4.25-1.08,6.44,6.44,0,0,0,3-2.33,5.66,5.66,0,0,0,.07-3.75q-.84-3.77-2.48-5.18a6,6,0,0,0-3.84-1.47,23.85,23.85,0,0,0-6.19,1c-3.36.88-5,1.35-8.39,2.32q4.17,14.29,8.33,28.6c3.51-1,5.27-1.51,8.81-2.41A25.38,25.38,0,0,0,27.09,73.3ZM15.34,58.15c-.67-2.56-1-3.85-1.67-6.41a7.27,7.27,0,0,1,1.77-.29,1.3,1.3,0,0,1,.89.51,4.61,4.61,0,0,1,.75,1.83,8.55,8.55,0,0,1,.46,3.2c-.13.41-.59.72-1.39.93Zm5.25,11.51a3.58,3.58,0,0,1-2,1l-2.1-8.07a4,4,0,0,1,2.31-.12c.35.19.68.91,1,2.15.27,1.07.4,1.61.67,2.69A3.46,3.46,0,0,1,20.59,69.66Z"/><polygon class="cls-3" points="61.99 78.77 65 78.77 65 85.97 67.96 85.97 67.96 78.77 70.97 78.77 70.97 76.41 61.99 76.41 61.99 78.77"/><path class="cls-3" d="M76.42,76.24a4.54,4.54,0,0,0-4.94,5,5.45,5.45,0,0,0,.66,2.8,4.08,4.08,0,0,0,1.72,1.63,6.19,6.19,0,0,0,2.68.51,5.48,5.48,0,0,0,2.66-.59,4.06,4.06,0,0,0,1.63-1.68,5.82,5.82,0,0,0,.56-2.75,4.86,4.86,0,0,0-1.29-3.59A5,5,0,0,0,76.42,76.24Zm1.5,7.06a1.84,1.84,0,0,1-1.48.62A1.81,1.81,0,0,1,75,83.29a4.31,4.31,0,0,1,0-4.18,1.8,1.8,0,0,1,1.44-.63,1.86,1.86,0,0,1,1.47.62,3,3,0,0,1,.55,2A3.57,3.57,0,0,1,77.92,83.3Z"/><polygon class="cls-3" points="93.62 76.41 91.69 79.63 89.76 76.41 86.48 76.41 90.2 81.96 90.2 85.97 93.16 85.97 93.16 81.96 96.88 76.41 93.62 76.41"/><path class="cls-3" d="M101.6,76.24a4.54,4.54,0,0,0-4.94,5,5.45,5.45,0,0,0,.66,2.8A4.08,4.08,0,0,0,99,85.62a6.19,6.19,0,0,0,2.68.51,5.48,5.48,0,0,0,2.66-.59A4.06,4.06,0,0,0,106,83.86a6,6,0,0,0,.56-2.75,4.86,4.86,0,0,0-1.29-3.59A5,5,0,0,0,101.6,76.24Zm1.5,7.06a1.84,1.84,0,0,1-1.48.62,1.8,1.8,0,0,1-1.46-.63,4.31,4.31,0,0,1,0-4.18,1.79,1.79,0,0,1,1.43-.63,1.87,1.87,0,0,1,1.48.62,3,3,0,0,1,.55,2A3.57,3.57,0,0,1,103.1,83.3Z"/><path class="cls-3" d="M114.39,82.24a1.66,1.66,0,0,1-.43,1.23,1.62,1.62,0,0,1-1.2.43,1.65,1.65,0,0,1-1.21-.44,1.69,1.69,0,0,1-.43-1.22V76.4h-3v5.7a5.51,5.51,0,0,0,.28,1.62,2.87,2.87,0,0,0,.63,1.1,3.42,3.42,0,0,0,1,.83,4,4,0,0,0,1.38.38,12.08,12.08,0,0,0,1.52.1,5.77,5.77,0,0,0,2.07-.32,3.3,3.3,0,0,0,1.19-.79,3.35,3.35,0,0,0,.82-1.32,4.67,4.67,0,0,0,.27-1.6V76.4h-3Z"/><path class="cls-3" d="M42.43,70.72,37.27,41.38c-3.42.6-5.12.93-8.53,1.62l6,29.18C37.79,71.55,39.33,71.26,42.43,70.72Z"/><path class="cls-3" d="M62.26,50.89c.54-.86.7-2.44.49-4.74q-.36-3.8-1.87-5.4A5.66,5.66,0,0,0,57.15,39a44.29,44.29,0,0,0-8.29.6c-2.43.33-3.64.51-6.07.89q2.31,14.72,4.63,29.43c3.1-.49,4.65-.71,7.76-1.12-.69-5.32-1-8-1.72-13.31,1.13-.15,1.84,0,2.15.3a6.49,6.49,0,0,1,.75,2.89l1.19,9.83c2.89-.35,4.33-.5,7.23-.78-.29-3.13-.44-4.69-.74-7.82a26.74,26.74,0,0,0-.61-4.37,4.55,4.55,0,0,0-1.21-1.64,6.2,6.2,0,0,0-3.43-1.18C60.57,52.33,61.72,51.74,62.26,50.89Zm-7.48-.64a3.85,3.85,0,0,1-1.91.61L52,44.29a3.43,3.43,0,0,1,2.08.18,2.34,2.34,0,0,1,.77,1.78l.2,1.63C55.22,49.18,55.13,50,54.78,50.25Z"/><path class="cls-3" d="M84.82,36.74c-7.56.15-11.34.35-18.88,1,.2,2.38.3,3.57.49,5.94,2-.16,3-.23,5-.36.61,9.5.92,14.26,1.54,23.77,3.13-.2,4.69-.28,7.82-.4-.36-9.52-.53-14.28-.89-23.81,2-.07,3-.1,5-.14C84.9,40.31,84.87,39.12,84.82,36.74Z"/><path class="cls-3" d="M132.28,41.59a6.6,6.6,0,0,0-3.11-2.1,39.25,39.25,0,0,0-8.37-1.43c-2.58-.24-3.87-.35-6.46-.54l-2.19,29.7c3.94.29,5.9.47,9.83.9a22.42,22.42,0,0,0,4.22.19,5.79,5.79,0,0,0,2.47-.76,4.08,4.08,0,0,0,1.61-1.91,23.2,23.2,0,0,0,1.12-5.26c.58-4.14.87-6.2,1.44-10.34a36.35,36.35,0,0,0,.5-5.66A5.16,5.16,0,0,0,132.28,41.59Zm-7.56,5.72c-.51,4.6-.77,6.9-1.28,11.5a9.45,9.45,0,0,1-.79,3.58c-.32.42-1,.57-2.19.45.8-7.8,1.19-11.7,2-19.49a4.43,4.43,0,0,1,1.86.46,1.22,1.22,0,0,1,.55.9A13.19,13.19,0,0,1,124.72,47.31Z"/><path class="cls-3" d="M152.73,73.21q1.07-15,1.61-30.12c-4.92-1-7.39-1.47-12.34-2.28q-4.62,14.31-8.79,28.77c3.21.48,4.81.74,8,1.32.56-2.08.84-3.11,1.41-5.19l2.82.53c-.23,2.13-.35,3.2-.59,5.33C148,72.18,149.59,72.51,152.73,73.21ZM143.47,60.5c.68-2.56,1.94-6.57,3.83-12q-.72,7.46-1.07,12.53Z"/><path class="cls-3" d="M165.24,57.64a99.17,99.17,0,0,0,.84-11.89c-3.11-.77-4.67-1.13-7.79-1.81.76,8,1.06,11.92,1.53,19.85-1,4.19-1.52,6.29-2.52,10.48,2.84.68,4.25,1,7.08,1.8l2.78-10.42c4.28-6.72,6.49-10.05,11.05-16.65-3.08-.89-4.63-1.32-7.73-2.13C168.21,51.08,166.48,54.68,165.24,57.64Z"/></g></g></svg>