<svg xmlns="http://www.w3.org/2000/svg" viewBox="0 0 180 180"><defs><style>.cls-1{fill:#ff7d97;}.cls-2{fill:#fff;}.cls-3{fill:#324b56;}</style></defs><title>Birthday 02</title><g id="Calque_2" data-name="Calque 2"><g id="Birthday_02" data-name="Birthday 02"><path class="cls-1" d="M90,0a90,90,0,1,0,90,90A90.11,90.11,0,0,0,90,0Z"/><path class="cls-2" d="M111,55.52c0-2-2.32-3.58-6.88-4.76V40.88a.49.49,0,0,0,0-.12.76.76,0,0,0,0-.15c0-1.79-2.32-3.11-6.9-3.94a26.47,26.47,0,0,0-5.82-.76v-.58l0-7.66h-.94a3.14,3.14,0,0,0,1-1.08,3.26,3.26,0,0,0,0-3.28,20.87,20.87,0,0,1-1.57-3.22l-.42-1.38-.94,1c-.05.07-.61.66-1,1.13-1,1.12-2.91,4.45-.7,6.61a2.24,2.24,0,0,0,.68.47l-1.13.35V36c-1.77.11-3.72.32-5.88.67-3.22.56-7.06,1.71-7.06,4a.76.76,0,0,0,0,.15.49.49,0,0,0,0,.12v9.89c-4.57,1.17-6.88,2.78-6.88,4.75a.82.82,0,0,0,0,.22v0a1,1,0,0,0,0,.17v12c0,3.8,10.38,7.14,22.2,7.14S111,71.74,111,67.94v-12a1,1,0,0,0,0-.17v0A.82.82,0,0,0,111,55.52Z"/><path class="cls-2" d="M90,0a90,90,0,1,0,90,90A90.11,90.11,0,0,0,90,0Zm0,176.15A86.15,86.15,0,1,1,176.15,90,86.26,86.26,0,0,1,90,176.15Z"/><path class="cls-3" d="M90,9.61A80.39,80.39,0,1,0,170.39,90,80.48,80.48,0,0,0,90,9.61Zm0,155.06A74.67,74.67,0,1,1,164.67,90,74.78,74.78,0,0,1,90,164.67Z"/><polygon class="cls-3" points="80.42 86.56 79.23 91.98 81.81 91.98 80.42 86.56"/><path class="cls-3" d="M149.87,103.21l-6.38-11.56,6.38-10.74H28L34.3,92.45,28,103.21ZM112.43,82.93h6.09v1.13a1.3,1.3,0,0,0-.68.37.84.84,0,0,0-.21.61,1.16,1.16,0,0,0,.05.4,5.25,5.25,0,0,0,.12.52L119.39,91,121,86.33c.07-.19.12-.37.17-.56a4.55,4.55,0,0,0,0-.52,1,1,0,0,0-.3-.75,1.42,1.42,0,0,0-.82-.44V82.93H124v1.13a2.56,2.56,0,0,0-.94.89,9.6,9.6,0,0,0-.84,1.85l-2.11,6v4a1.84,1.84,0,0,0,.28,1.17,1.41,1.41,0,0,0,1,.38v1.15h-6.33V98.36a1.4,1.4,0,0,0,1-.4,1.93,1.93,0,0,0,.26-1.15V93.06L113.9,86a5.5,5.5,0,0,0-.68-1.4,1.27,1.27,0,0,0-.79-.54Zm-11.7,15.43a1.4,1.4,0,0,0,1-.4,1.78,1.78,0,0,0,.28-1.15V85.6a2,2,0,0,0-.25-1.22,1.72,1.72,0,0,0-1-.35v-1.1h5.88a6.16,6.16,0,0,1,4.11,1.2,4.43,4.43,0,0,1,1.35,3.54,4.21,4.21,0,0,1-4.59,4.59,1.38,1.38,0,0,1-.84-.18.57.57,0,0,1-.31-.54c0-.26.16-.45.49-.57a3.06,3.06,0,0,0,.61-.28,1.57,1.57,0,0,0,.57-.89,9.23,9.23,0,0,0,.16-2.16,5.08,5.08,0,0,0-.54-2.74,2,2,0,0,0-1.78-.84h0V96.81a2,2,0,0,0,.26,1.15,1.44,1.44,0,0,0,1,.4v1.15h-6.33Zm-12.34,0a1.43,1.43,0,0,0,1-.4,1.78,1.78,0,0,0,.28-1.15V85.6a2,2,0,0,0-.26-1.22,1.61,1.61,0,0,0-1-.35v-1.1h5.89a6.15,6.15,0,0,1,4.1,1.2,4.42,4.42,0,0,1,1.39,3.54,4.27,4.27,0,0,1-4.62,4.59,1.44,1.44,0,0,1-.85-.18.62.62,0,0,1-.3-.54c0-.26.16-.45.49-.57a3.06,3.06,0,0,0,.61-.28,1.71,1.71,0,0,0,.59-.89,10.52,10.52,0,0,0,.16-2.16,5.15,5.15,0,0,0-.56-2.74,2,2,0,0,0-1.78-.84h-.05V96.81A1.93,1.93,0,0,0,93.72,98a1.39,1.39,0,0,0,1,.4v1.15H88.39Zm-12.73,0c.59-.09,1.06-.94,1.43-2.53,0-.12,0-.21,0-.26l2.65-11.44-.31-1.2h3.61l3.15,12.83c0,.14.07.3.14.51.33,1.36.79,2.07,1.4,2.09v1.15h-6V98.36a1.12,1.12,0,0,0,.8-.45,1.84,1.84,0,0,0,.26-1,3.76,3.76,0,0,0,0-.56c0-.22-.07-.45-.14-.71l-.51-2.16H78.85l-.49,2.16c0,.19-.07.38-.1.56a5.46,5.46,0,0,0,0,.57,2.12,2.12,0,0,0,.3,1.15,1.29,1.29,0,0,0,.92.49v1.15H75.66Zm-13.83,0a1.6,1.6,0,0,0,1-.33,2.08,2.08,0,0,0,.26-1.24V85.6a2,2,0,0,0-.26-1.22,1.72,1.72,0,0,0-1-.35V83H68v1.11a1.09,1.09,0,0,0-.87.42,1.84,1.84,0,0,0-.24,1.12v4.74H70V85.6a1.89,1.89,0,0,0-.26-1.12,1.06,1.06,0,0,0-.85-.42V83H75.1V84a1.71,1.71,0,0,0-1,.38,1.89,1.89,0,0,0-.26,1.19V96.81a5.83,5.83,0,0,0,0,.8A.6.6,0,0,0,74,98a.72.72,0,0,0,.4.31,5.09,5.09,0,0,0,.68.11v1.13H68.93V98.38A1.3,1.3,0,0,0,69.8,98,2.27,2.27,0,0,0,70,96.81V91.72H66.89v5.09A2,2,0,0,0,67.13,98a1.3,1.3,0,0,0,.87.42v1.13H61.83Z"/><path class="cls-3" d="M46.73,126.73a5.37,5.37,0,0,0,1.66-4.36,5,5,0,0,0-1.26-3.5A7.09,7.09,0,0,0,43.42,117a6,6,0,0,0,3.29-1.69,4.92,4.92,0,0,0,1-3.3A4.47,4.47,0,0,0,46,108.21a7.71,7.71,0,0,0-4.83-1.36H33.46v1.4a2,2,0,0,1,1.29.45,2.57,2.57,0,0,1,.33,1.57v14.37a2.33,2.33,0,0,1-.36,1.5,1.85,1.85,0,0,1-1.26.52v1.45h8C43.87,128.11,45.63,127.64,46.73,126.73Zm-6.82-18.36h.3a2.35,2.35,0,0,1,2,.89,4.46,4.46,0,0,1,.66,2.7,6,6,0,0,1-.66,3.35,2.69,2.69,0,0,1-2.29,1Zm.25,17.75a4.5,4.5,0,0,1-.25-1.88V117.8a2.92,2.92,0,0,1,2.51,1.14,6.52,6.52,0,0,1,.77,3.57,7.15,7.15,0,0,1-.54,3,1.76,1.76,0,0,1-1.57,1.08A.92.92,0,0,1,40.16,126.12Z"/><path class="cls-3" d="M56.9,108.72a2,2,0,0,1,1.3-.44v-1.42H50.08v1.4a2,2,0,0,1,1.29.45,2.45,2.45,0,0,1,.33,1.56v14.38a2.41,2.41,0,0,1-.35,1.49,1.77,1.77,0,0,1-1.27.52v1.45H58.2v-1.45a1.8,1.8,0,0,1-1.28-.52,2.41,2.41,0,0,1-.35-1.49V110.27A2.45,2.45,0,0,1,56.9,108.72Z"/><path class="cls-3" d="M66.31,118.36a1,1,0,0,1,.75.26,2.2,2.2,0,0,1,.58,1c.17.47.4,1.15.71,2.09A36.8,36.8,0,0,0,71,128.11h4.94v-1.45c-.68-.19-1.38-1.22-2.08-3.14a10.18,10.18,0,0,0-.38-1A28.15,28.15,0,0,0,72.05,119a6,6,0,0,0-1-1.62,5.72,5.72,0,0,0,2.72-1.87,5.21,5.21,0,0,0,.86-3.1,5.12,5.12,0,0,0-1.75-4.1,7.29,7.29,0,0,0-4.83-1.5H59.79v1.4a2,2,0,0,1,1.27.45,2.45,2.45,0,0,1,.32,1.57v14.37a2.58,2.58,0,0,1-.32,1.5,1.9,1.9,0,0,1-1.27.52v1.45h8v-1.45a1.9,1.9,0,0,1-1.27-.52,2.57,2.57,0,0,1-.33-1.5v-6.28Zm-.1-10.08h.17a3,3,0,0,1,2.53.91,5.84,5.84,0,0,1,.7,3.38,5.94,5.94,0,0,1-.68,3.4,2.93,2.93,0,0,1-2.46.91h-.26Z"/><path class="cls-3" d="M85.63,108.48a2,2,0,0,1,1.6.72,5.14,5.14,0,0,1,1,2.26h1.73v-4.6H76.36v4.6h1.71a4.92,4.92,0,0,1,1-2.26,2.12,2.12,0,0,1,1.68-.72v16.14a2.44,2.44,0,0,1-.36,1.51,1.86,1.86,0,0,1-1.28.53v1.45h8.11v-1.45a1.78,1.78,0,0,1-1.25-.53,2.49,2.49,0,0,1-.34-1.51V108.48Z"/><path class="cls-3" d="M106.85,108.72a2.08,2.08,0,0,1,1.31-.46v-1.4h-7.94v1.42a1.63,1.63,0,0,1,1.11.54,2.49,2.49,0,0,1,.31,1.45v6.06h-4v-6.06a2.49,2.49,0,0,1,.31-1.45,1.63,1.63,0,0,1,1.11-.54v-1.42H91.12v1.4a2,2,0,0,1,1.28.45,2.45,2.45,0,0,1,.33,1.56v14.38a2.52,2.52,0,0,1-.33,1.58,1.81,1.81,0,0,1-1.28.43v1.45H99v-1.45a1.68,1.68,0,0,1-1.12-.55,2.58,2.58,0,0,1-.3-1.46v-6.53h4v6.53a2.58,2.58,0,0,1-.3,1.46,1.65,1.65,0,0,1-1.12.55v1.45h7.94v-1.45a2.89,2.89,0,0,1-.88-.16,1,1,0,0,1-.53-.37,1.21,1.21,0,0,1-.17-.45,5.83,5.83,0,0,1-.06-1V110.27A2.45,2.45,0,0,1,106.85,108.72Z"/><path class="cls-3" d="M110.93,126.12a1.65,1.65,0,0,1-1.27.47v1.52h7q4.5,0,6.75-2.53c1.53-1.69,2.28-4.2,2.28-7.55,0-3.7-.82-6.49-2.44-8.37s-4.06-2.81-7.29-2.81h-6.31l0,1.5a1.8,1.8,0,0,1,1.27.37,2.39,2.39,0,0,1,.33,1.55v14.37A2.34,2.34,0,0,1,110.93,126.12Zm5.22-17.75a.86.86,0,0,1,.22,0h.32a2.94,2.94,0,0,1,2.89,2.06c.56,1.41.84,3.92.84,7.57a22.22,22.22,0,0,1-.72,6.47c-.47,1.44-1.2,2.14-2.19,2.14a1.07,1.07,0,0,1-1-.52,3.46,3.46,0,0,1-.33-1.76Z"/><path class="cls-3" d="M133.39,126.66v1.45h7.69v-1.45c-.78,0-1.36-.94-1.81-2.7,0-.28-.11-.49-.14-.65l-4-16.46h-4.65l.4,1.54-3.4,14.66c0,.09,0,.19-.07.35-.47,2-1.08,3.12-1.83,3.26v1.45h4.86v-1.45a1.77,1.77,0,0,1-1.18-.66,2.5,2.5,0,0,1-.37-1.47,3.4,3.4,0,0,1,0-.71,3.47,3.47,0,0,1,.11-.73l.64-2.79h4.24l.68,2.79c.05.33.12.64.14.92a3.69,3.69,0,0,1,.05.73,2.37,2.37,0,0,1-.33,1.33A1.48,1.48,0,0,1,133.39,126.66Zm-3.28-8.18,1.54-7,1.76,7Z"/><path class="cls-3" d="M150.3,106.86v1.42a2.05,2.05,0,0,1,1,.58,1.36,1.36,0,0,1,.37,1,3.82,3.82,0,0,1-.06.68,6,6,0,0,1-.2.71l-2.12,6-2-6.5c-.07-.24-.13-.46-.17-.65a2.5,2.5,0,0,1-.06-.51,1.12,1.12,0,0,1,.28-.8,1.92,1.92,0,0,1,.88-.48v-1.42h-7.82v1.42a1.88,1.88,0,0,1,1,.71,6.81,6.81,0,0,1,.85,1.79l3.12,9.07v4.8a2.34,2.34,0,0,1-.35,1.49,1.77,1.77,0,0,1-1.26.52v1.45h8.13v-1.45a1.81,1.81,0,0,1-1.27-.51,2.43,2.43,0,0,1-.34-1.5v-5.16l2.7-7.67a11.9,11.9,0,0,1,1.08-2.39,3.39,3.39,0,0,1,1.21-1.15v-1.42Z"/><path class="cls-3" d="M98.17,149.14c.56,0,1-.37,1.17-1.1a18.39,18.39,0,0,0,.33-4.31,18.64,18.64,0,0,0-.33-4.34,1.69,1.69,0,0,0-.32-.63,1,1,0,0,0-.85-.45,1,1,0,0,0-.84.45,1.74,1.74,0,0,0-.31.61,17.7,17.7,0,0,0-.33,4.36,17.45,17.45,0,0,0,.33,4.34C97.23,148.77,97.61,149.14,98.17,149.14Z"/><path class="cls-3" d="M75.18,149.13c.56,0,.93-.35,1.17-1.08a18.39,18.39,0,0,0,.33-4.31,18.64,18.64,0,0,0-.33-4.34,1.85,1.85,0,0,0-.33-.63,1,1,0,0,0-1.69,0,2.45,2.45,0,0,0-.33.61,19.3,19.3,0,0,0-.3,4.36,19.21,19.21,0,0,0,.3,4.34C74.24,148.78,74.61,149.13,75.18,149.13Z"/><path class="cls-3" d="M40.42,138.9a73.55,73.55,0,0,0,100.24,0l5.15-4.81H35.26Zm73.34-.71a.62.62,0,0,1,.14-.46.75.75,0,0,1,.52-.15h1.29a1,1,0,0,1,.66.15.51.51,0,0,1,.18.44s0,.14,0,.31,0,.18-.05.28,0,.14,0,.18l-.85,7.16h-.87l-.91-7.16a.55.55,0,0,0,0-.18.51.51,0,0,0,0-.21ZM114,148c.07-.05.12-.19.19-.26a1.35,1.35,0,0,1,1-.42,2.85,2.85,0,0,1,.44.09,2,2,0,0,1,.54.33,1.35,1.35,0,0,1,.42,1,1.39,1.39,0,0,1-.42,1,1.32,1.32,0,0,1-1,.43,1.22,1.22,0,0,1-1-.43,1.36,1.36,0,0,1-.43-1A1.84,1.84,0,0,1,114,148Zm-10.24-10.44h4.71v.87a1,1,0,0,0-.75.24s0,.07,0,.07a1.69,1.69,0,0,0-.14.82v7.17a3.59,3.59,0,0,0,.33,1.81,1.44,1.44,0,0,0,1.2.47,1.36,1.36,0,0,0,1.22-.52,3.82,3.82,0,0,0,.35-2v-6.73a1.89,1.89,0,0,0-.21-1l0,0a1.16,1.16,0,0,0-.73-.31v-.87h2.93v.83a1.14,1.14,0,0,0-.77.35,1.71,1.71,0,0,0-.21,1v6.75a4.47,4.47,0,0,1-.59,2.53,1.45,1.45,0,0,1-.21.29,3.83,3.83,0,0,1-2.74.82,3.7,3.7,0,0,1-.61-.1,3,3,0,0,1-2-.72,3.64,3.64,0,0,1-.79-2.65v-7.13a1.51,1.51,0,0,0-.17-.82.56.56,0,0,1,0-.1,1.24,1.24,0,0,0-.75-.25Zm-8.89,1.48a1.76,1.76,0,0,1,.31-.3,3.87,3.87,0,0,1,3-1.41,4,4,0,0,1,3,1.41,1.61,1.61,0,0,1,.28.33,9.47,9.47,0,0,1,0,9.37,4.08,4.08,0,0,1-6.66,0,7.87,7.87,0,0,1-1.22-4.69A8,8,0,0,1,94.84,139.06Zm-10.39-1.48H89v.87a.87.87,0,0,0-.51.24.13.13,0,0,0,0,.07.57.57,0,0,0-.14.42,1.29,1.29,0,0,0,0,.3c0,.1.07.22.11.36l1.18,3.77,1.22-3.49a4.1,4.1,0,0,0,.11-.4,1.71,1.71,0,0,0,0-.38.84.84,0,0,0-.21-.58,1.11,1.11,0,0,0-.61-.31v-.87h2.93v.87a1.15,1.15,0,0,0-.36.31,1.53,1.53,0,0,0-.35.33,5.06,5.06,0,0,0-.63,1.4l-1.57,4.43v3a1.49,1.49,0,0,0,.19.87,1.16,1.16,0,0,0,.75.31v.84H86.42v-.84a1.08,1.08,0,0,0,.73-.31,1.39,1.39,0,0,0,.21-.87v-2.79l-1.83-5.27a3.53,3.53,0,0,0-.49-1c0-.05-.09-.05-.12-.07a.91.91,0,0,0-.47-.31Zm-12.61,1.48a2.74,2.74,0,0,1,.28-.3,4,4,0,0,1,6.1,0,1.61,1.61,0,0,1,.28.33,9.47,9.47,0,0,1,0,9.37,4.08,4.08,0,0,1-6.66,0,7.87,7.87,0,0,1-1.24-4.69A8,8,0,0,1,71.84,139.06ZM62,137.58h7.86v2.68h-1a3.41,3.41,0,0,0-.56-1.32.88.88,0,0,0-.28-.18,1.06,1.06,0,0,0-.66-.21h0V148a1.29,1.29,0,0,0,.21.77,1.06,1.06,0,0,0,.73.31v.84H63.56v-.84a1,1,0,0,0,.73-.33,1.37,1.37,0,0,0,.21-.87v-9.35a1.12,1.12,0,0,0-.68.21.71.71,0,0,0-.28.18,2.8,2.8,0,0,0-.56,1.32H62Z"/><path class="cls-3" d="M88.77,75.08c11.82,0,22.2-3.34,22.2-7.14v-12a.53.53,0,0,0,0-.12,2.58,2.58,0,0,0,0-.29c0-2-2.32-3.58-6.88-4.76V40.88s0-.05,0-.08a1.11,1.11,0,0,0,0-.19c0-1.79-2.32-3.11-6.9-3.94a.94.94,0,0,0-.33,1.85c4.42.79,5.35,1.91,5.35,2.09,0,.8-4.71,2.75-13.44,2.75s-13.44-2-13.44-2.75c0-.19,1-1.32,5.5-2.12a.93.93,0,0,0-.32-1.84c-3.22.56-7.06,1.71-7.06,4a1.11,1.11,0,0,0,0,.19s0,.05,0,.08v9.88c-4.56,1.18-6.88,2.78-6.88,4.76a2.58,2.58,0,0,0,0,.29.53.53,0,0,0,0,.12v12C66.57,71.74,77,75.08,88.77,75.08ZM75.33,43c3.15,1.71,9.56,2.23,13.44,2.23s10.29-.52,13.44-2.23v9.75c-.22.84-5,2.81-13.44,2.81s-13.22-2-13.44-2.79Zm-1.88,9.7v.07c0,3.39,9.4,4.66,15.32,4.66s15.32-1.27,15.32-4.66V52.7c3.92,1.09,5,2.3,5,2.82,0,1.84-7.89,5.37-20.28,5.37s-20.36-3.53-20.36-5.37C68.45,55,69.53,53.79,73.45,52.7Zm-5,5.71c3.69,2.69,12.24,4.35,20.36,4.35s16.61-1.66,20.28-4.34v9.52c0,1.56-7.88,5.26-20.32,5.26s-20.32-3.7-20.32-5.26Z"/><path class="cls-3" d="M88.77,52.38a1.62,1.62,0,1,0-1.61-1.62A1.62,1.62,0,0,0,88.77,52.38Z"/><path class="cls-3" d="M79,50.84a1.62,1.62,0,1,0-1.61-1.61A1.62,1.62,0,0,0,79,50.84Z"/><path class="cls-3" d="M98.58,50.84a1.62,1.62,0,0,0,0-3.23,1.62,1.62,0,1,0,0,3.23Z"/><path class="cls-3" d="M72.68,66.49a1.62,1.62,0,1,0,0-3.23,1.62,1.62,0,0,0,0,3.23Z"/><path class="cls-3" d="M105.79,66.49a1.62,1.62,0,1,0-1.61-1.62A1.62,1.62,0,0,0,105.79,66.49Z"/><path class="cls-3" d="M83.25,69.4a1.62,1.62,0,1,0-1.61-1.61A1.62,1.62,0,0,0,83.25,69.4Z"/><path class="cls-3" d="M95.23,69.4a1.62,1.62,0,1,0-1.62-1.61A1.61,1.61,0,0,0,95.23,69.4Z"/><path class="cls-3" d="M87.53,27.88l-1.13.35,0,10.46V40.4c.42.07.87.09,1.33.12.61,0,1.25.07,2,.07h.4c.45,0,.89,0,1.29-.05V35.33l0-7.66h-.94a3.14,3.14,0,0,0,1-1.08,3.26,3.26,0,0,0,0-3.28,20.87,20.87,0,0,1-1.57-3.22l-.42-1.38-.94,1c-.05.07-.61.66-1,1.13-1,1.12-2.91,4.45-.7,6.61A2.24,2.24,0,0,0,87.53,27.88ZM90.08,38.8a5.28,5.28,0,0,0-1.1-.37c-.77-.21-1.22-.38-1.34-.8v-1.1c.33.14.73.23,1,.33.79.21,1.28.4,1.4.87Zm0-2.79a3.46,3.46,0,0,0-.82-.28c-.09,0-.16-.07-.26-.09h0l-.4-.12a4.32,4.32,0,0,1-.47-.21c0-.05-.12-.07-.14-.14s-.1-.09-.14-.14-.14-.09-.17-.19V33.72a3.82,3.82,0,0,0,.38.11,3.54,3.54,0,0,0,.66.21,1.33,1.33,0,0,0,.28.1,3.64,3.64,0,0,1,.75.3.12.12,0,0,1,.07.07s.09.05.11.12,0,0,0,0,0,0,0,0a0,0,0,0,1,0,0,.39.39,0,0,1,.09.23Zm0-2.79s0,0-.07,0a5.16,5.16,0,0,0-.91-.31l-.1,0a.71.71,0,0,1-.32-.1,1.57,1.57,0,0,1-.87-.42.14.14,0,0,1,0-.09.43.43,0,0,0-.07-.1v0l0,0a0,0,0,0,1,0,0V30.93h0c.18.07.35.16.51.21s.38.09.52.16h.07a2.79,2.79,0,0,1,1.17.52.75.75,0,0,1,.12.21s0,.07,0,.09Zm0-2.79a.33.33,0,0,0-.15,0,.14.14,0,0,0-.11-.07,1.21,1.21,0,0,0-.14-.05s0,0,0,0v0h0a0,0,0,0,0,0,0c-.21,0-.4-.11-.58-.14a1.06,1.06,0,0,0-.31-.09l-.63-.24L88,29.68s-.07,0-.1-.07a.16.16,0,0,1-.09-.09s-.07,0-.07-.07a.55.55,0,0,1-.09-.19v-.33h2.44ZM87.64,24a6.12,6.12,0,0,1,.66-1.38v0a1.1,1.1,0,0,0,.16-.24v-.05c.1-.07.1-.11.17-.18v0l.07-.07s0,0,.07-.07v0s0,0,0,0a.24.24,0,0,1,0-.07h0l.11.23v0a1.27,1.27,0,0,0,.12.23,0,0,0,0,0,0,0,7,7,0,0,0,.43.87l.09.2a.2.2,0,0,1,0,.08l0,.05,0,.06s0,0,0,.06,0,0,0,0a0,0,0,0,1,0,0,1.11,1.11,0,0,1,.07.16,1.29,1.29,0,0,1,.09.16,1.62,1.62,0,0,1,.1.18.21.21,0,0,1,.06.1v0a.6.6,0,0,1,0,.16.59.59,0,0,1,.05.29,1,1,0,0,1,0,.51.8.8,0,0,1-.12.52,1.5,1.5,0,0,1-.26.33,1.25,1.25,0,0,1-.26.25h0a1.17,1.17,0,0,1-.89.17.7.7,0,0,1-.49-.21s0,0,0,0h0s0,0,0,0L88,26.2h0A2.07,2.07,0,0,1,87.64,24Z"/><path class="cls-2" d="M62,137.58h7.86v2.68h-1a3.41,3.41,0,0,0-.56-1.32.88.88,0,0,0-.28-.18,1.06,1.06,0,0,0-.66-.21h0V148a1.29,1.29,0,0,0,.21.77,1.06,1.06,0,0,0,.73.31v.84H63.56v-.84a1,1,0,0,0,.73-.33,1.37,1.37,0,0,0,.21-.87v-9.35a1.12,1.12,0,0,0-.68.21.71.71,0,0,0-.28.18,2.8,2.8,0,0,0-.56,1.32H62Z"/><path class="cls-2" d="M78.5,139.09a1.61,1.61,0,0,0-.28-.33,4,4,0,0,0-6.1,0,2.74,2.74,0,0,0-.28.3,8,8,0,0,0-1.24,4.71,7.87,7.87,0,0,0,1.24,4.69,4.08,4.08,0,0,0,6.66,0,9.47,9.47,0,0,0,0-9.37Zm-2.15,9c-.24.73-.61,1.08-1.17,1.08s-.94-.35-1.18-1a19.21,19.21,0,0,1-.3-4.34,19.3,19.3,0,0,1,.3-4.36,2.45,2.45,0,0,1,.33-.61,1,1,0,0,1,1.69,0,1.85,1.85,0,0,1,.33.63,18.64,18.64,0,0,1,.33,4.34A18.39,18.39,0,0,1,76.35,148.05Z"/><path class="cls-2" d="M90.18,137.58h2.93v.87a1.15,1.15,0,0,0-.36.31,1.53,1.53,0,0,0-.35.33,5.06,5.06,0,0,0-.63,1.4l-1.57,4.43v3a1.49,1.49,0,0,0,.19.87,1.16,1.16,0,0,0,.75.31v.84H86.42v-.84a1.08,1.08,0,0,0,.73-.31,1.39,1.39,0,0,0,.21-.87v-2.79l-1.83-5.27a3.53,3.53,0,0,0-.49-1c0-.05-.09-.05-.12-.07a.91.91,0,0,0-.47-.31v-.87H89v.87a.87.87,0,0,0-.51.24.13.13,0,0,0,0,.07.57.57,0,0,0-.14.42,1.29,1.29,0,0,0,0,.3c0,.1.07.22.11.36l1.18,3.77,1.22-3.49a4.1,4.1,0,0,0,.11-.4,1.71,1.71,0,0,0,0-.38.84.84,0,0,0-.21-.58,1.11,1.11,0,0,0-.61-.31Z"/><path class="cls-2" d="M101.5,139.09a1.61,1.61,0,0,0-.28-.33,4,4,0,0,0-3-1.41,3.87,3.87,0,0,0-3,1.41,1.76,1.76,0,0,0-.31.3,8,8,0,0,0-1.22,4.71,7.87,7.87,0,0,0,1.22,4.69,4.08,4.08,0,0,0,6.66,0,9.47,9.47,0,0,0,0-9.37ZM99.34,148c-.21.73-.61,1.1-1.17,1.1s-.94-.37-1.15-1.07a17.45,17.45,0,0,1-.33-4.34,17.7,17.7,0,0,1,.33-4.36,1.74,1.74,0,0,1,.31-.61,1,1,0,0,1,.84-.45,1,1,0,0,1,.85.45,1.69,1.69,0,0,1,.32.63,18.64,18.64,0,0,1,.33,4.34A18.39,18.39,0,0,1,99.34,148Z"/><path class="cls-2" d="M109.61,137.58h2.93v.83a1.14,1.14,0,0,0-.77.35,1.71,1.71,0,0,0-.21,1v6.75a4.47,4.47,0,0,1-.59,2.53,1.45,1.45,0,0,1-.21.29,3.83,3.83,0,0,1-2.74.82,3.7,3.7,0,0,1-.61-.1,3,3,0,0,1-2-.72,3.64,3.64,0,0,1-.79-2.65v-7.13a1.51,1.51,0,0,0-.17-.82.56.56,0,0,1,0-.1,1.24,1.24,0,0,0-.75-.25v-.83h4.71v.87a1,1,0,0,0-.75.24s0,.07,0,.07a1.69,1.69,0,0,0-.14.82v7.17a3.59,3.59,0,0,0,.33,1.81,1.44,1.44,0,0,0,1.2.47,1.36,1.36,0,0,0,1.22-.52,3.82,3.82,0,0,0,.35-2v-6.73a1.89,1.89,0,0,0-.21-1l0,0a1.16,1.16,0,0,0-.73-.31Z"/><path class="cls-2" d="M116.13,147.76a1.35,1.35,0,0,1,.42,1,1.39,1.39,0,0,1-.42,1,1.32,1.32,0,0,1-1,.43,1.22,1.22,0,0,1-1-.43,1.36,1.36,0,0,1-.43-1A1.84,1.84,0,0,1,114,148c.07-.05.12-.19.19-.26a1.35,1.35,0,0,1,1-.42,2.85,2.85,0,0,1,.44.09A2,2,0,0,1,116.13,147.76Z"/><path class="cls-2" d="M113.79,138.76a.51.51,0,0,0,0-.21v-.36a.62.62,0,0,1,.14-.46.75.75,0,0,1,.52-.15h1.29a1,1,0,0,1,.66.15.51.51,0,0,1,.18.44s0,.14,0,.31,0,.18-.05.28,0,.14,0,.18l-.85,7.16h-.87l-.91-7.16A.55.55,0,0,0,113.79,138.76Z"/><path class="cls-2" d="M68.93,83H75.1V84a1.71,1.71,0,0,0-1,.38,1.89,1.89,0,0,0-.26,1.19V96.81a5.83,5.83,0,0,0,0,.8A.6.6,0,0,0,74,98a.72.72,0,0,0,.4.31,5.09,5.09,0,0,0,.68.11v1.13H68.93V98.38A1.3,1.3,0,0,0,69.8,98,2.27,2.27,0,0,0,70,96.81V91.72H66.89v5.09A2,2,0,0,0,67.13,98a1.3,1.3,0,0,0,.87.42v1.13H61.83V98.38a1.6,1.6,0,0,0,1-.33,2.08,2.08,0,0,0,.26-1.24V85.6a2,2,0,0,0-.26-1.22,1.72,1.72,0,0,0-1-.35V83H68v1.11a1.09,1.09,0,0,0-.87.42,1.84,1.84,0,0,0-.24,1.12v4.74H70V85.6a1.89,1.89,0,0,0-.26-1.12,1.06,1.06,0,0,0-.85-.42Z"/><path class="cls-2" d="M86.38,96.27c-.07-.21-.1-.37-.14-.51L83.09,82.93H79.48l.31,1.2L77.14,95.57c0,.05,0,.14,0,.26-.37,1.59-.84,2.44-1.43,2.53v1.15h3.78V98.36a1.29,1.29,0,0,1-.92-.49,2.12,2.12,0,0,1-.3-1.15,5.46,5.46,0,0,1,0-.57c0-.18,0-.37.1-.56l.49-2.16h3.31l.51,2.16c.07.26.1.49.14.71a3.76,3.76,0,0,1,0,.56,1.84,1.84,0,0,1-.26,1,1.12,1.12,0,0,1-.8.45v1.15h6V98.36C87.17,98.34,86.71,97.63,86.38,96.27ZM79.23,92l1.19-5.41L81.81,92Z"/><path class="cls-2" d="M98.38,84.13a4.42,4.42,0,0,1,1.39,3.54,4.27,4.27,0,0,1-4.62,4.59,1.44,1.44,0,0,1-.85-.18.62.62,0,0,1-.3-.54c0-.26.16-.45.49-.57a3.06,3.06,0,0,0,.61-.28,1.71,1.71,0,0,0,.59-.89,10.52,10.52,0,0,0,.16-2.16,5.15,5.15,0,0,0-.56-2.74,2,2,0,0,0-1.78-.84h-.05V96.81A1.93,1.93,0,0,0,93.72,98a1.39,1.39,0,0,0,1,.4v1.15H88.39V98.36a1.43,1.43,0,0,0,1-.4,1.78,1.78,0,0,0,.28-1.15V85.6a2,2,0,0,0-.26-1.22,1.61,1.61,0,0,0-1-.35v-1.1h5.89A6.15,6.15,0,0,1,98.38,84.13Z"/><path class="cls-2" d="M110.72,84.13a4.43,4.43,0,0,1,1.35,3.54,4.21,4.21,0,0,1-4.59,4.59,1.38,1.38,0,0,1-.84-.18.57.57,0,0,1-.31-.54c0-.26.16-.45.49-.57a3.06,3.06,0,0,0,.61-.28,1.57,1.57,0,0,0,.57-.89,9.23,9.23,0,0,0,.16-2.16,5.08,5.08,0,0,0-.54-2.74,2,2,0,0,0-1.78-.84h0V96.81a2,2,0,0,0,.26,1.15,1.44,1.44,0,0,0,1,.4v1.15h-6.33V98.36a1.4,1.4,0,0,0,1-.4,1.78,1.78,0,0,0,.28-1.15V85.6a2,2,0,0,0-.25-1.22,1.72,1.72,0,0,0-1-.35v-1.1h5.88A6.16,6.16,0,0,1,110.72,84.13Z"/><path class="cls-2" d="M124,82.93v1.13a2.56,2.56,0,0,0-.94.89,9.6,9.6,0,0,0-.84,1.85l-2.11,6v4a1.84,1.84,0,0,0,.28,1.17,1.41,1.41,0,0,0,1,.38v1.15h-6.33V98.36a1.4,1.4,0,0,0,1-.4,1.93,1.93,0,0,0,.26-1.15V93.06L113.9,86a5.5,5.5,0,0,0-.68-1.4,1.27,1.27,0,0,0-.79-.54V82.93h6.09v1.13a1.3,1.3,0,0,0-.68.37.84.84,0,0,0-.21.61,1.16,1.16,0,0,0,.05.4,5.25,5.25,0,0,0,.12.52L119.39,91,121,86.33c.07-.19.12-.37.17-.56a4.55,4.55,0,0,0,0-.52,1,1,0,0,0-.3-.75,1.42,1.42,0,0,0-.82-.44V82.93Z"/></g></g></svg>