<svg xmlns="http://www.w3.org/2000/svg" viewBox="0 0 195.42 5.62"><defs><style>.cls-1{fill:#fff;}</style></defs><title>Line 05</title><g id="Calque_2" data-name="Calque 2"><g id="Line_10" data-name="Line 10"><path class="cls-1" d="M94.91,2.81a5.88,5.88,0,0,1,2.8,2.81,6.47,6.47,0,0,1,2.81-2.81A7.58,7.58,0,0,1,97.71,0,6.71,6.71,0,0,1,94.91,2.81Z"/><path class="cls-1" d="M88.6,1A22,22,0,0,1,80,2.54V2.48H0v.66H80V3.08A22,22,0,0,1,88.6,4.66a20.32,20.32,0,0,1,5.51-1.85A20.32,20.32,0,0,1,88.6,1Z"/><path class="cls-1" d="M106.82,4.64a22,22,0,0,1,8.64-1.58v.06h80V2.46h-80v.06A22,22,0,0,1,106.82.94a20.32,20.32,0,0,1-5.51,1.85A20.32,20.32,0,0,1,106.82,4.64Z"/></g></g></svg>