<svg xmlns="http://www.w3.org/2000/svg" viewBox="0 0 201.93 11.92"><defs><style>.cls-1{fill:#fff;}</style></defs><title>Line 06</title><g id="Calque_2" data-name="Calque 2"><g id="Line_10" data-name="Line 10"><polygon class="cls-1" points="191.43 0 181.9 8 172.38 0 162.85 8 153.32 0 143.8 8 134.28 0 124.75 8 115.23 0 105.7 8 96.18 0 86.66 8 77.13 0 67.61 8 58.09 0 48.57 8 39.04 0 29.52 8 20 0 10.49 8 1.93 0.81 0 3.11 10.49 11.92 20 3.92 29.52 11.92 39.04 3.92 48.57 11.92 58.09 3.92 67.61 11.92 77.13 3.92 86.66 11.92 96.18 3.92 105.7 11.92 115.23 3.92 124.75 11.92 134.28 3.92 143.8 11.92 153.32 3.92 162.85 11.92 172.38 3.92 181.9 11.92 191.43 3.92 200 11.11 201.93 8.81 191.43 0"/></g></g></svg>