<svg xmlns="http://www.w3.org/2000/svg" viewBox="0 0 300 14.19"><defs><style>.cls-1{fill:#fff;}</style></defs><title>Lines 08</title><g id="Calque_2" data-name="Calque 2"><g id="Line_10" data-name="Line 10"><polygon class="cls-1" points="300 7.09 300 7.09 300 7.09 300 7.09"/><path class="cls-1" d="M286.14,3.91s-3.17,2-12.07,2.76h-3.73c9.14-.8,12.56-4.73,12.56-4.73A4.46,4.46,0,0,0,279.79.82c-2.27,4.54-9.87,5.61-12.59,5.85H32.8C30.08,6.43,22.48,5.36,20.21.82A4.46,4.46,0,0,0,17.1,1.94s3.42,3.93,12.56,4.73H26.07c-9-.77-12.21-2.76-12.21-2.76C12.91,5.57,0,7.07,0,7.09s12.91,1.52,13.86,3.19c0,0,3.16-2,12-2.76h3.76c-9.14.8-12.56,4.73-12.56,4.73a4.43,4.43,0,0,0,3.11,1.11c2.27-4.52,9.85-5.6,12.58-5.84H267.21c2.73.24,10.31,1.32,12.58,5.84a4.43,4.43,0,0,0,3.11-1.11s-3.42-3.93-12.56-4.73h3.59c9,.77,12.21,2.76,12.21,2.76C287.09,8.61,300,7.11,300,7.09S287.09,5.58,286.14,3.91Z"/><path class="cls-1" d="M267.05,6.53C275.07,5.34,277,.3,277,.3a3.43,3.43,0,0,0-3.18.28c-1,5.25-7.62,6-7.62,6l0,.06Z"/><path class="cls-1" d="M267.05,7.65l-.87-.08,0,.06s6.62.72,7.62,6a3.41,3.41,0,0,0,3.18.27S275.07,8.84,267.05,7.65Z"/><polygon class="cls-1" points="0 7.09 0 7.09 0 7.09 0 7.09"/><path class="cls-1" d="M33,7.65c-8,1.19-9.91,6.23-9.91,6.23a3.41,3.41,0,0,0,3.18-.27c1-5.26,7.62-6,7.62-6l0-.06Z"/><path class="cls-1" d="M33,6.53l.87.09,0-.06s-6.62-.73-7.62-6A3.43,3.43,0,0,0,23,.3S24.93,5.34,33,6.53Z"/></g></g></svg>