<svg xmlns="http://www.w3.org/2000/svg" viewBox="0 0 220.92 8"><defs><style>.cls-1{fill:#fff;}</style></defs><title>Lines 07</title><g id="Calque_2" data-name="Calque 2"><g id="Line_10" data-name="Line 10"><path class="cls-1" d="M102.24,4A2.44,2.44,0,0,1,100,6.57c-1.82,0-17.33-2.09-22.89-2.09H.43A.46.46,0,0,1,0,4H0a.45.45,0,0,1,.43-.48H77.07c5.56,0,21.07-2.1,22.89-2.09A2.44,2.44,0,0,1,102.24,4Z"/><path class="cls-1" d="M104.57,5.63A1.55,1.55,0,0,0,106,4a1.46,1.46,0,1,0-2.9,0A1.55,1.55,0,0,0,104.57,5.63Z"/><path class="cls-1" d="M118.68,4A2.44,2.44,0,0,0,121,6.57c1.82,0,17.34-2.09,22.89-2.09H220.5a.46.46,0,0,0,.42-.48h0a.45.45,0,0,0-.42-.48H143.85c-5.55,0-21.07-2.1-22.89-2.09A2.44,2.44,0,0,0,118.68,4Z"/><path class="cls-1" d="M116.35,5.63A1.54,1.54,0,0,1,114.91,4a1.46,1.46,0,1,1,2.89,0A1.55,1.55,0,0,1,116.35,5.63Z"/><path class="cls-1" d="M110.46,0a3.79,3.79,0,0,0-3.54,4A3.57,3.57,0,1,0,114,4,3.8,3.8,0,0,0,110.46,0Zm0,6.31a2.18,2.18,0,0,1-2-2.31,2.06,2.06,0,1,1,4.09,0A2.19,2.19,0,0,1,110.46,6.31Z"/></g></g></svg>