<svg xmlns="http://www.w3.org/2000/svg" viewBox="0 0 197.47 14.29"><defs><style>.cls-1{fill:#fff;}</style></defs><title>Lines 01</title><g id="Calque_2" data-name="Calque 2"><g id="Line_10" data-name="Line 10"><path class="cls-1" d="M97.37,13.08c.11.15.13.26.07.32s-.15.06-.24,0a5.62,5.62,0,0,0-2.67-1.92A12.51,12.51,0,0,0,91,10.77a25,25,0,0,0-4.1.14c-1.43.16-2.84.33-4.25.53s-2.74.36-4,.51a14.4,14.4,0,0,1-3.41,0l-.33,0a1.29,1.29,0,0,1-.31-.07,4,4,0,0,1-.42.14,8.19,8.19,0,0,1-3.61.31A10.43,10.43,0,0,1,67,11.2a13,13,0,0,1-5,2.64,15.17,15.17,0,0,1-5.3.36A23.6,23.6,0,0,1,51,12.89c-1.92-.7-3.91-1.49-6-2.39S40.9,8.66,38.73,7.68,34.31,5.81,32,5a52.82,52.82,0,0,0-7.2-1.89,31.87,31.87,0,0,0-7.66-.49A33,33,0,0,0,9,4.16,37.45,37.45,0,0,0,.27,8.31c-.11.07-.19.06-.25,0s0-.21.17-.33A40.43,40.43,0,0,1,9.07,3.3a34.15,34.15,0,0,1,8.27-1.91A30.7,30.7,0,0,1,25,1.6,45.73,45.73,0,0,1,32.2,3.33a64.31,64.31,0,0,1,6.68,2.61q3.23,1.47,6.25,2.89T51,11.4A28.13,28.13,0,0,0,56.5,13a15.62,15.62,0,0,0,5.19.07A12,12,0,0,0,66.63,11a5.81,5.81,0,0,1-2-1.9,6.22,6.22,0,0,1-.9-2.35,7,7,0,0,1,0-2.41,6.94,6.94,0,0,1,.76-2.15A5.11,5.11,0,0,1,65.76.63,2.75,2.75,0,0,1,67.39,0a1.84,1.84,0,0,1,1.49.59,3.67,3.67,0,0,1,.8,1.63,8.14,8.14,0,0,1,.16,2.26A11.65,11.65,0,0,1,69.45,7a11.08,11.08,0,0,1-.88,2.29A5.88,5.88,0,0,1,67.25,11a10.24,10.24,0,0,0,3.28,1,8.07,8.07,0,0,0,3.37-.25,3.29,3.29,0,0,1-1.64-1.08,3.89,3.89,0,0,1-.75-1.67,5.34,5.34,0,0,1,0-1.91,6,6,0,0,1,.63-1.81,4.3,4.3,0,0,1,1.12-1.36,2.62,2.62,0,0,1,1.52-.59,1.92,1.92,0,0,1,1.33.43,3.39,3.39,0,0,1,.93,1.22,5.11,5.11,0,0,1,.43,1.72,5.76,5.76,0,0,1-.14,1.89,5.17,5.17,0,0,1-.77,1.75,3.86,3.86,0,0,1-1.5,1.32h.11a15.59,15.59,0,0,0,3.4-.15c1.27-.18,2.6-.38,4-.6s2.8-.42,4.24-.59a22.94,22.94,0,0,1,4.11-.13,11.46,11.46,0,0,1,3.63.8A6.5,6.5,0,0,1,97.37,13.08Zm-30.43-2.3a5.32,5.32,0,0,0,1.35-1.67,10.53,10.53,0,0,0,.88-2.25,10.93,10.93,0,0,0,.39-2.4,7.83,7.83,0,0,0-.14-2.16A3.28,3.28,0,0,0,68.71.8,1.39,1.39,0,0,0,67.42.37,2.32,2.32,0,0,0,66,1.12a5.55,5.55,0,0,0-1,1.59,8.22,8.22,0,0,0-.59,2.09,7.19,7.19,0,0,0,0,2.27,6,6,0,0,0,.8,2.11A4.6,4.6,0,0,0,66.94,10.78Zm7.55.7a4.1,4.1,0,0,0,1.66-1.19A5,5,0,0,0,77,8.62a5.16,5.16,0,0,0,.2-1.83,5,5,0,0,0-.4-1.65A3.06,3.06,0,0,0,76,4a1.57,1.57,0,0,0-1.21-.35,2.27,2.27,0,0,0-1.3.65,4.37,4.37,0,0,0-1,1.35A6.2,6.2,0,0,0,72,7.33,4.77,4.77,0,0,0,72,9.1a3.32,3.32,0,0,0,.8,1.5A3,3,0,0,0,74.49,11.48Z"/><path class="cls-1" d="M102.9,10.92a11.46,11.46,0,0,1,3.63-.8,23.08,23.08,0,0,1,4.12.13c1.43.17,2.84.36,4.23.59s2.73.42,4,.6a15.5,15.5,0,0,0,3.39.15h.11a4,4,0,0,1-1.5-1.32,5.38,5.38,0,0,1-.77-1.75A5.76,5.76,0,0,1,120,6.63a5.36,5.36,0,0,1,.43-1.72,3.5,3.5,0,0,1,.93-1.22,1.92,1.92,0,0,1,1.33-.43,2.59,2.59,0,0,1,1.52.59,4.3,4.3,0,0,1,1.12,1.36A6,6,0,0,1,125.94,7a5.12,5.12,0,0,1,0,1.91,3.77,3.77,0,0,1-.75,1.67,3.29,3.29,0,0,1-1.64,1.08,8.07,8.07,0,0,0,3.37.25,10.38,10.38,0,0,0,3.29-1,5.56,5.56,0,0,1-1.32-1.71A11.1,11.1,0,0,1,128,7a13.09,13.09,0,0,1-.39-2.47,7.76,7.76,0,0,1,.17-2.26,3.57,3.57,0,0,1,.8-1.63A1.82,1.82,0,0,1,130.08,0a2.7,2.7,0,0,1,1.63.63A5.11,5.11,0,0,1,133,2.19a6.94,6.94,0,0,1,.76,2.15,7,7,0,0,1,0,2.41,6.22,6.22,0,0,1-.9,2.35,5.81,5.81,0,0,1-2,1.9,12,12,0,0,0,4.94,2.1A15.68,15.68,0,0,0,141,13a28.33,28.33,0,0,0,5.5-1.63q2.84-1.15,5.86-2.57c2-1,4.11-1.91,6.25-2.89a64.31,64.31,0,0,1,6.68-2.61,45.73,45.73,0,0,1,7.17-1.73,30.71,30.71,0,0,1,7.69-.21A34,34,0,0,1,188.4,3.3a40.43,40.43,0,0,1,8.88,4.64c.17.12.23.23.17.33s-.14.11-.25,0a37.4,37.4,0,0,0-8.7-4.15,33.2,33.2,0,0,0-8.16-1.53,31.87,31.87,0,0,0-7.66.49A52.82,52.82,0,0,0,165.48,5q-3.48,1.2-6.74,2.67t-6.33,2.82c-2,.9-4,1.69-6,2.39a23.64,23.64,0,0,1-5.61,1.31,15.21,15.21,0,0,1-5.31-.36,12.85,12.85,0,0,1-5-2.64A10.56,10.56,0,0,1,127,12.3a8.13,8.13,0,0,1-3.6-.31,2.88,2.88,0,0,1-.42-.14,1.55,1.55,0,0,1-.31.07l-.34,0a14.39,14.39,0,0,1-3.41,0c-1.28-.15-2.63-.31-4-.51s-2.82-.37-4.25-.53a24.91,24.91,0,0,0-4.1-.14,12.58,12.58,0,0,0-3.58.67,5.72,5.72,0,0,0-2.67,1.92c-.09.1-.17.11-.23,0s-.05-.17.07-.32A6.47,6.47,0,0,1,102.9,10.92Zm29.33-1.74a6,6,0,0,0,.8-2.11,7.19,7.19,0,0,0,0-2.27,7.83,7.83,0,0,0-.59-2.09,5.55,5.55,0,0,0-1-1.59,2.33,2.33,0,0,0-1.37-.75,1.37,1.37,0,0,0-1.29.43,3.19,3.19,0,0,0-.72,1.5,7.83,7.83,0,0,0-.14,2.16,12.26,12.26,0,0,0,.39,2.4,10.55,10.55,0,0,0,.89,2.25,5.16,5.16,0,0,0,1.34,1.67A4.6,4.6,0,0,0,132.23,9.18Zm-7.58,1.42a3.23,3.23,0,0,0,.8-1.5,4.77,4.77,0,0,0,.06-1.77A5.88,5.88,0,0,0,125,5.62a4.35,4.35,0,0,0-1-1.35,2.3,2.3,0,0,0-1.31-.65,1.54,1.54,0,0,0-1.2.35,3,3,0,0,0-.86,1.17,4.76,4.76,0,0,0-.39,1.65,5.15,5.15,0,0,0,.19,1.83,5,5,0,0,0,.89,1.67A4,4,0,0,0,123,11.48,3,3,0,0,0,124.65,10.6Z"/></g></g></svg>