<svg xmlns="http://www.w3.org/2000/svg" viewBox="0 0 200 5.62"><defs><style>.cls-1{fill:#fff;}</style></defs><title>Lines 09</title><g id="Calque_2" data-name="Calque 2"><g id="Line_10" data-name="Line 10"><path class="cls-1" d="M94.91,2.81a5.88,5.88,0,0,1,2.8,2.81,6.47,6.47,0,0,1,2.81-2.81A7.58,7.58,0,0,1,97.71,0,6.71,6.71,0,0,1,94.91,2.81Z"/><path class="cls-1" d="M88.6,1A22,22,0,0,1,80,2.54V2.48H0v.66H80V3.08A22,22,0,0,1,88.6,4.66a20.32,20.32,0,0,1,5.51-1.85A20.32,20.32,0,0,1,88.6,1Z"/><path class="cls-1" d="M115.63,2.48v.06A22.27,22.27,0,0,1,106.82,1a20.18,20.18,0,0,1-5.5,1.85,20.18,20.18,0,0,1,5.5,1.85,22.09,22.09,0,0,1,8.81-1.58v.06H200V2.48Zm-.08.33.08-.11v.22Z"/></g></g></svg>