<svg xmlns="http://www.w3.org/2000/svg" viewBox="0 0 187.03 201.1"><defs><style>.cls-1{fill:#ff7d97;}.cls-2{fill:#324b56;}.cls-3{fill:#fff;}</style></defs><title>Romantic04</title><g id="Calque_2" data-name="Calque 2"><g id="Love_10" data-name="Love 10"><path class="cls-1" d="M111,199.1H73.35A48.35,48.35,0,0,1,39.18,185c-9.52,1.58-19.1,3.58-28.49,6-2.91.74-5.4.27-7-1.34s-2.08-4.1-1.33-7a334.47,334.47,0,0,0,0-165.71c-.75-2.91-.27-5.4,1.33-7s4.1-2.09,7-1.34c9.88,2.5,19.93,4.58,29.86,6.19A48.49,48.49,0,0,1,73.35,2H111a48.42,48.42,0,0,1,33.18,13.14c10.73-1.67,21.55-3.87,32.17-6.55,2.9-.75,5.39-.27,7,1.33s2.08,4.1,1.34,7a334.47,334.47,0,0,0,0,165.71c.74,2.91.27,5.4-1.34,7s-4.1,2.08-7,1.34c-10.2-2.58-20.55-4.71-30.8-6.34A48.31,48.31,0,0,1,111,199.1Z"/><path class="cls-2" d="M186.63,182.15a332.51,332.51,0,0,1,0-164.72c.93-3.63.27-6.79-1.86-8.92s-5.29-2.79-8.91-1.86c-10.23,2.59-20.67,4.73-31,6.36A50.48,50.48,0,0,0,111,0H73.35A50.52,50.52,0,0,0,39.93,12.65c-9.56-1.58-19.23-3.59-28.74-6C7.56,5.72,4.4,6.38,2.27,8.51S-.52,13.8.41,17.42a332.4,332.4,0,0,1,0,164.72c-.93,3.63-.27,6.8,1.86,8.93s5.29,2.78,8.91,1.86c9-2.28,18.19-4.22,27.34-5.76A50.36,50.36,0,0,0,73.35,201.1H111a50.34,50.34,0,0,0,35.23-14.32c9.85,1.6,19.82,3.67,29.61,6.14,3.63.93,6.8.27,8.93-1.86S187.55,185.77,186.63,182.15Zm-4.69,6.09c-1.09,1.09-2.9,1.37-5.11.81-10.25-2.6-20.67-4.74-31-6.38l-1-.16-.72.73A46.34,46.34,0,0,1,111,197.1H73.35a46.38,46.38,0,0,1-32.76-13.5l-.73-.71-1,.16c-9.59,1.6-19.23,3.61-28.67,6-2.19.56-4,.27-5.09-.81s-1.38-2.9-.81-5.11a336.38,336.38,0,0,0,0-166.69c-.56-2.2-.27-4,.82-5.1S8,10,10.2,10.53c9.94,2.51,20.05,4.61,30,6.22l1,.16.71-.66A46.56,46.56,0,0,1,73.35,4H111a46.49,46.49,0,0,1,31.82,12.6l.71.66,1-.15c10.79-1.67,21.67-3.88,32.35-6.58,2.2-.57,4-.28,5.1.81s1.37,2.9.81,5.1a336.54,336.54,0,0,0,0,166.7C183.31,185.34,183,187.15,181.94,188.24Z"/><path class="cls-2" d="M180,15.74a3.08,3.08,0,0,0,0-2.36c-.21-.28-.82-.31-1.07-.31a5.53,5.53,0,0,0-1.37.2c-11,2.78-22.21,5.05-33.33,6.75l-1.64.25-1.18-1.15A43.72,43.72,0,0,0,111,6.83H73.35a43.72,43.72,0,0,0-30,12l-1.19,1.13-1.63-.26c-10.31-1.65-20.74-3.8-31-6.39a5.52,5.52,0,0,0-1.36-.2c-.25,0-.87,0-1.08.31a3.07,3.07,0,0,0,0,2.37A339.26,339.26,0,0,1,7,183.84a3,3,0,0,0,0,2.35c.21.28.83.31,1.08.31a5.61,5.61,0,0,0,1.37-.19c9.76-2.47,19.74-4.55,29.65-6.17l1.7-.28,1.22,1.23a43.55,43.55,0,0,0,31.27,13.18H111a43.56,43.56,0,0,0,31.61-13.53l1.2-1.25,1.72.27c10.64,1.66,21.41,3.87,32,6.55a5.41,5.41,0,0,0,1.36.19c.25,0,.86,0,1.08-.31a3.14,3.14,0,0,0,0-2.36A339.26,339.26,0,0,1,180,15.74Zm-.61,170a4.21,4.21,0,0,1-1.68-.11c-10.62-2.69-21.41-4.9-32.07-6.57l-2.1-.33-1.48,1.54A42.82,42.82,0,0,1,111,193.53H73.35a42.8,42.8,0,0,1-30.74-13l-1.49-1.51L39,179.4c-9.94,1.63-19.93,3.71-29.72,6.19a4.21,4.21,0,0,1-1.68.11,3.29,3.29,0,0,1,.1-1.68,339.92,339.92,0,0,0,0-168.46,3.28,3.28,0,0,1-.12-1.68A3.85,3.85,0,0,1,9.31,14c10.29,2.6,20.74,4.75,31.08,6.4l2,.32,1.46-1.37A42.94,42.94,0,0,1,73.35,7.57H111a42.91,42.91,0,0,1,29.86,12.09l1.45,1.4,2-.31c11.14-1.7,22.38-4,33.4-6.76a4.07,4.07,0,0,1,1.69-.11,3.32,3.32,0,0,1-.11,1.67,340,340,0,0,0,0,168.46A3.38,3.38,0,0,1,179.4,185.7Z"/><path class="cls-2" d="M132.56,41.25c-8.64-5.21-16.4,1.06-16.59,1.21a16.16,16.16,0,0,0-3-9.27l9.07-5.59a8.6,8.6,0,0,1,.72,4.32c3.58-6.63,10.49-11.64,13-13.71-3,1.31-10.62,5.18-18.15,5.33a8.54,8.54,0,0,1,3.52,2.62l-9.29,5.73a13.91,13.91,0,0,0-5-3.34l-.16-.05c-.07-.16-.13-.32-.21-.48a14.35,14.35,0,0,0-15.93-7.74C81.83,22.39,79.12,29.64,78.32,33c-2.64-2.18-9.17-6.36-17.38-2.85-5.9,2.51-9.25,9-8.16,15.72,1,6.09,5.2,11.17,12,14.87L47.25,70.77l-5-.49-3.32,2,5,.49-1.6,1-4.95-.48-3.32,2,6.34.62-2.34,5.93,3.33-2,1.82-4.62,1.6-1L43,78.87l3.33-2,1.82-4.63L66.5,61.61c6,2.87,13.62,4.79,22.66,5.53l.2,0a.93.93,0,0,0,.64-.27h0C92.15,65,94.1,63.1,95.89,61.2a75.17,75.17,0,0,0,6.51,8.7h0C141.42,72.2,143.4,47.79,132.56,41.25Z"/><path class="cls-2" d="M143.32,148.16s.19-3-2.7-8.36c.12.33,3.59,10-3.22,12.81a22.27,22.27,0,0,1-3.36.89,9.3,9.3,0,0,0-5,2.63,3.42,3.42,0,0,0-2.39-1.44,5.49,5.49,0,0,0-3.59,1.06l-2-.12s3.49,6.74,9.91,6.51a3.67,3.67,0,0,0-.3,2.61c.92,2.75,11.15.87,13,3.16,0,0,.44-1.71-1.73-2.09,0,0,1.48-1.33-1.45-2.14,0,0,1.55-1-1.58-2.12,0,0,1.94-.38-2.09-1.71a12.74,12.74,0,0,0,5.92-8.33,20.68,20.68,0,0,0,7.85-9.46A25.67,25.67,0,0,1,143.32,148.16Z"/><path class="cls-2" d="M60.42,156.09A3.41,3.41,0,0,0,58,157.53a9.36,9.36,0,0,0-5-2.63,23.89,23.89,0,0,1-3.36-.89c-6.8-2.85-3.33-12.49-3.22-12.81-2.88,5.4-2.7,8.36-2.7,8.36a26,26,0,0,1-7.22-6.1,20.75,20.75,0,0,0,7.85,9.46,12.74,12.74,0,0,0,5.93,8.33c-4,1.33-2.09,1.71-2.09,1.71-3.13,1.09-1.59,2.12-1.59,2.12-2.92.81-1.45,2.14-1.45,2.14-2.16.38-1.72,2.09-1.72,2.09,1.83-2.29,12-.41,13-3.16a3.62,3.62,0,0,0-.3-2.61C62.51,163.76,66,157,66,157l-2,.12A5.35,5.35,0,0,0,60.42,156.09Z"/><path class="cls-3" d="M66.51,59.62l3.19-1.94a6.84,6.84,0,0,0,1,1.33L68.31,60.5c5,2.24,11.65,4,20.75,4.81,2.21-2,4.14-3.85,5.85-5.68-12.54-21.17-.65-33.12,9.38-31.74A12.38,12.38,0,0,0,91,22.05C81,24.45,79.86,34.4,79.82,34.83a.91.91,0,0,1-1.57.52,16.15,16.15,0,0,0-10.94-4.78,14.31,14.31,0,0,0-5.66,1.2,12.54,12.54,0,0,0-7.08,13.76C55,48.15,57,54.7,66.51,59.62Z"/><path class="cls-3" d="M55.77,104.51a8.78,8.78,0,0,0,3.37,2.22,12.09,12.09,0,0,0,4.29.75,11.44,11.44,0,0,0,8.37-3.28A11.07,11.07,0,0,0,75.12,96a12.12,12.12,0,0,0-.33-2.89,9.28,9.28,0,0,0-.88-2.34,9.17,9.17,0,0,0-2-2.45,9.63,9.63,0,0,0-3.25-1.81,13.52,13.52,0,0,0-4.39-.68,12.75,12.75,0,0,0-4.66.8A10.84,10.84,0,0,0,56,89a9.11,9.11,0,0,0-2.3,3.53,12.54,12.54,0,0,0-.7,4.27,12.78,12.78,0,0,0,.72,4.16A9.74,9.74,0,0,0,55.77,104.51Zm1.12-13.4a6.45,6.45,0,0,1,2.65-3,7.79,7.79,0,0,1,4.08-1,8.68,8.68,0,0,1,3,.5,7.51,7.51,0,0,1,2.26,1.22,7.41,7.41,0,0,1,1.5,1.7,8.82,8.82,0,0,1,1,2.17A14.32,14.32,0,0,1,72,97a12.62,12.62,0,0,1-.86,4.81,6.86,6.86,0,0,1-2.6,3.23,7.25,7.25,0,0,1-4.1,1.15,8.15,8.15,0,0,1-3.1-.56,7,7,0,0,1-2.53-1.76A9.08,9.08,0,0,1,57,100.87a13.09,13.09,0,0,1-.71-2.47A15.31,15.31,0,0,1,56,95.57,10.76,10.76,0,0,1,56.89,91.11Z"/><path class="cls-3" d="M91,101.91l1.89,2.39c.38.47,1,1.16,1.79,2.08a6,6,0,0,0,.56.59.6.6,0,0,0,.16.08l.35.08,1.51.44q-.08-5.85-.08-8v-7q0-1.4.09-3.33a5,5,0,0,1,.21-1.54.55.55,0,0,1,.29-.29,6.25,6.25,0,0,1,2-.22v-.92c-.91,0-1.92.06-3,.06s-2.34,0-3.5-.06v.92a6.25,6.25,0,0,1,2,.22.61.61,0,0,1,.31.28,5.56,5.56,0,0,1,.19,1.51c.07,1.29.1,2.41.1,3.37v10.7c-.37-.37-.83-.87-1.38-1.52-.86-1-2-2.31-3.41-4l-4.42-5.33-3-3.74-1.83-2.4c-.7,0-1.41.06-2.12.06l-3.08-.06v.92a12.24,12.24,0,0,1,1.53.08,1.35,1.35,0,0,1,.61.3,2.18,2.18,0,0,1,.53.63,2.07,2.07,0,0,1,.06.63v11.94c0,.94,0,2.05-.09,3.34a5.63,5.63,0,0,1-.2,1.54.59.59,0,0,1-.3.28,6.19,6.19,0,0,1-2,.23v.92c1.33-.07,2.56-.1,3.69-.1s2,0,2.84.1v-.92a6.22,6.22,0,0,1-2-.22.63.63,0,0,1-.31-.29,5.46,5.46,0,0,1-.19-1.5c-.07-1.3-.1-2.42-.1-3.38V89.5Z"/><path class="cls-3" d="M116.5,104.17a6.66,6.66,0,0,1-.33,1,21.71,21.71,0,0,1-5.79.53c-1.09,0-2.2,0-3.31-.11,0-.64-.06-1.48-.06-2.5V93.25c0-2.57,0-4,.06-4.16a3.71,3.71,0,0,1,.22-1.42,1,1,0,0,1,.52-.34,10.12,10.12,0,0,1,2.12-.15v-.94c-2.18.08-3.58.11-4.21.11s-2,0-4.42-.11v.94a10.12,10.12,0,0,1,2.12.15,1,1,0,0,1,.54.38,4.71,4.71,0,0,1,.21,1.65c0,1.27,0,2.57,0,3.89v7.89c0,.25,0,1,0,2.38a7.87,7.87,0,0,1-.18,1.76.77.77,0,0,1-.2.34,5.09,5.09,0,0,1-1.16.67v.76c1-.07,1.92-.11,2.85-.11l8.68.11c1,0,1.83,0,2.34,0a9.24,9.24,0,0,0,1-.15c.21-2,.42-3.67.63-5.12h-1Z"/><path class="cls-3" d="M123.2,94.62c.86,1.43,1.36,2.27,1.49,2.52s.4.74.6,1.18V100c0,2.56-.05,3.95-.05,4.16a3.4,3.4,0,0,1-.24,1.42.92.92,0,0,1-.51.34,9.85,9.85,0,0,1-2.11.16v.93c1.82-.07,3.29-.11,4.41-.11s2.54,0,4.13.11v-.93a9.82,9.82,0,0,1-2.12-.16.93.93,0,0,1-.54-.39,4.71,4.71,0,0,1-.21-1.65c0-1.26-.05-2.56-.05-3.88V98.91a2.82,2.82,0,0,1,.16-.87,22,22,0,0,1,1.41-2.5q2-3.3,3.24-5c1.43-2,2.42-3.29,3-3.89v-.39h-2.24l-3.12,5.32q-1.64,2.79-3.18,5.18c-1-2.06-2-3.89-2.9-5.49a36.75,36.75,0,0,0-2.41-3.8,8.94,8.94,0,0,0-.92-1.12,2.79,2.79,0,0,0-.8-.39l-3.53.69v.9a4.5,4.5,0,0,1,1.29.14,2.16,2.16,0,0,1,.8.52,14.32,14.32,0,0,1,1.77,2.18c.37.53.94,1.41,1.7,2.66Z"/><path class="cls-3" d="M59.22,121.56q-1.62,2.79-3.18,5.18-1.53-3.09-2.9-5.49a38.72,38.72,0,0,0-2.4-3.8,11.35,11.35,0,0,0-.92-1.12,3,3,0,0,0-.81-.39l-3.53.69v.9a4.53,4.53,0,0,1,1.3.14,2.24,2.24,0,0,1,.8.52,15,15,0,0,1,1.77,2.18c.37.53.94,1.41,1.7,2.66l1,1.59q1.29,2.14,1.5,2.52c.19.35.39.74.6,1.18V130c0,2.56,0,4-.06,4.16a3.64,3.64,0,0,1-.23,1.42.91.91,0,0,1-.52.34,9.7,9.7,0,0,1-2.11.16v.93c1.83-.07,3.3-.11,4.41-.11s2.54,0,4.13.11v-.93a9.7,9.7,0,0,1-2.11-.16.93.93,0,0,1-.54-.39,4.37,4.37,0,0,1-.22-1.65c0-1.26,0-2.56,0-3.88v-1.13A2.55,2.55,0,0,1,57,128a22,22,0,0,1,1.41-2.5q2-3.3,3.23-5c1.44-2,2.43-3.29,3-3.89v-.39H62.34Z"/><path class="cls-3" d="M76.35,137.48a11.45,11.45,0,0,0,8.37-3.28A11.09,11.09,0,0,0,88,126a11.63,11.63,0,0,0-.33-2.89,8.92,8.92,0,0,0-.88-2.34,9.17,9.17,0,0,0-2-2.45,9.63,9.63,0,0,0-3.25-1.81,13.48,13.48,0,0,0-4.39-.68,12.75,12.75,0,0,0-4.66.8A10.84,10.84,0,0,0,68.87,119a9.11,9.11,0,0,0-2.3,3.53,12.54,12.54,0,0,0-.7,4.27,12.78,12.78,0,0,0,.72,4.16,9.88,9.88,0,0,0,2.09,3.57,8.86,8.86,0,0,0,3.37,2.22A12.11,12.11,0,0,0,76.35,137.48Zm-6.45-6.61a13.12,13.12,0,0,1-.7-2.47,14.52,14.52,0,0,1-.28-2.83,10.76,10.76,0,0,1,.88-4.46,6.56,6.56,0,0,1,2.65-3,7.8,7.8,0,0,1,4.09-1,8.67,8.67,0,0,1,3,.5,6.89,6.89,0,0,1,3.76,2.92,8.82,8.82,0,0,1,1,2.17,14.32,14.32,0,0,1,.62,4.3,12.62,12.62,0,0,1-.86,4.81,6.86,6.86,0,0,1-2.6,3.23,7.25,7.25,0,0,1-4.1,1.15,8.15,8.15,0,0,1-3.1-.56,7,7,0,0,1-2.53-1.76A9.08,9.08,0,0,1,69.9,130.87Z"/><path class="cls-3" d="M107.11,130.94a6.93,6.93,0,0,1-.45,2,3.79,3.79,0,0,1-1,1.29,5.14,5.14,0,0,1-1.91,1,10.92,10.92,0,0,1-5.47.1,5.35,5.35,0,0,1-1.81-.8,3.81,3.81,0,0,1-1.29-1.66,13.87,13.87,0,0,1-.4-4.16v-5.42c0-2.57,0-4,.06-4.16a3.64,3.64,0,0,1,.23-1.42.91.91,0,0,1,.52-.34,10,10,0,0,1,2.11-.15v-.94c-1.37.08-2.75.11-4.13.11s-2.85,0-4.44-.11v.94a10,10,0,0,1,2.11.15,1,1,0,0,1,.55.38,4.71,4.71,0,0,1,.21,1.65c0,1.27,0,2.57,0,3.89v6.48a14,14,0,0,0,.41,4,5,5,0,0,0,1.19,1.78,6.14,6.14,0,0,0,2.52,1.4,12.65,12.65,0,0,0,3.91.54,12.5,12.5,0,0,0,3.52-.46,7.1,7.1,0,0,0,2.6-1.27,5.75,5.75,0,0,0,1.86-2.53,17.6,17.6,0,0,0,.5-5.06v-4.91c0-2.57.05-4,.06-4.16a3.71,3.71,0,0,1,.22-1.42,1,1,0,0,1,.52-.34,10,10,0,0,1,2.12-.15v-.94c-1.76.08-3,.11-3.65.11s-1.92,0-3.53-.11v.94a10.15,10.15,0,0,1,2.11.15,1,1,0,0,1,.55.38,4.56,4.56,0,0,1,.2,1.65c0,1.27,0,2.57,0,3.89v4.52A27.85,27.85,0,0,1,107.11,130.94Z"/><path class="cls-3" d="M141.91,134.65a9.17,9.17,0,0,1-1,.51,2.24,2.24,0,0,1-.68.09,9,9,0,0,1-5.26-1.92,9.78,9.78,0,0,0,1.87-2.54,5.76,5.76,0,0,0,.58-2.54,4.86,4.86,0,0,0-.18-1.27,22.28,22.28,0,0,1,4.21.29,14.83,14.83,0,0,1,.34-2c-1.27,0-2.16,0-2.66,0-1.78.06-3,.1-3.6.1a17.81,17.81,0,0,1-2.4-.13l-1,1.39.13.19a19.14,19.14,0,0,1,2.33.1.88.88,0,0,1,.61.47,3.67,3.67,0,0,1,.32,1.71,5.27,5.27,0,0,1-1.49,3.56,21.79,21.79,0,0,1-3.27-3.42A24.63,24.63,0,0,1,128,125a11.49,11.49,0,0,0,3.25-3,5.35,5.35,0,0,0,1-2.91,2.82,2.82,0,0,0-.71-2,2.62,2.62,0,0,0-2-.73,3,3,0,0,0-1.36.29,6.4,6.4,0,0,0-1.29.91c-.91.78-1.42,1.23-1.53,1.37a2.91,2.91,0,0,0-.41.78,4.34,4.34,0,0,0-.35,1.69,10.11,10.11,0,0,0,.88,3.88,10.62,10.62,0,0,0-3.44,2.8,5.85,5.85,0,0,0-1.16,3.6,6.25,6.25,0,0,0,.7,2.82,5.19,5.19,0,0,0,2.06,2.22,6.41,6.41,0,0,0,3.36.82,8.48,8.48,0,0,0,2.9-.47,13.42,13.42,0,0,0,3.17-1.85,11.37,11.37,0,0,0,3.19,1.92,5.54,5.54,0,0,0,2.21.38,5.24,5.24,0,0,0,1-.1c.65-.53,1.07-.87,1.28-1s.56-.42,1.27-.93ZM127,119a1.73,1.73,0,0,1,.7-.82,2,2,0,0,1,1-.25,1.42,1.42,0,0,1,1.1.55,2,2,0,0,1,.49,1.38,4,4,0,0,1-.71,2.09,7.63,7.63,0,0,1-2,2.09,11.44,11.44,0,0,1-.76-3.55A3.9,3.9,0,0,1,127,119Zm1.5,16.8a4.82,4.82,0,0,1-2.45-.68,4.94,4.94,0,0,1-1.85-1.94,5.26,5.26,0,0,1-.69-2.55,4.47,4.47,0,0,1,.58-2.3,7,7,0,0,1,1.92-2c.62,1.08,1.19,2,1.73,2.78s1.12,1.55,1.76,2.32c.47.56,1.36,1.55,2.67,3A6.12,6.12,0,0,1,128.49,135.78Z"/><path class="cls-3" d="M92.56,146.24q-.69,1.81-2.74,6.09l-5,10.48-5.55-11.43q-1.07-2.22-2.36-5.14c-.87,0-1.78.06-2.72.06s-1.92,0-3-.06v.94a10,10,0,0,1,2.12.15,1,1,0,0,1,.54.38,4.71,4.71,0,0,1,.21,1.65c0,1.27.05,2.57.05,3.89V160c0,2.56-.05,4-.06,4.16a3.71,3.71,0,0,1-.22,1.42,1,1,0,0,1-.53.34,9.7,9.7,0,0,1-2.11.16v.93l3.65-.11,3.53.11v-.93a9.82,9.82,0,0,1-2.12-.16,1,1,0,0,1-.54-.39,4.71,4.71,0,0,1-.21-1.65c0-1.26-.06-2.56-.06-3.88V149.77l7,14.54,1,2.13a8.3,8.3,0,0,1,.35.89h.57c.66-1.59,1.14-2.75,1.47-3.48q.67-1.51,1.86-4l5-10.58V160c0,2.56-.06,4-.07,4.16a3.51,3.51,0,0,1-.22,1.42A.92.92,0,0,1,92,166a10,10,0,0,1-2.13.16v.93c2.24-.08,3.68-.13,4.34-.13.81,0,2.2.05,4.17.13v-.93a9.82,9.82,0,0,1-2.12-.16,1,1,0,0,1-.54-.39,4.71,4.71,0,0,1-.21-1.65c0-1.26-.06-2.56-.06-3.88v-6.79c0-2.57.07-4,.08-4.16a3.34,3.34,0,0,1,.22-1.42,1,1,0,0,1,.51-.34,10.12,10.12,0,0,1,2.12-.15v-.94q-2.19.06-3.18.06C94.47,146.3,93.6,146.28,92.56,146.24Z"/><path class="cls-3" d="M114.72,163.92a7.7,7.7,0,0,1-.35,1.23,6,6,0,0,1-1.46.39,20.13,20.13,0,0,1-2.65.12c-1.75,0-3.33,0-4.73-.16,0-.94-.08-2.31-.08-4.12s0-3.37.08-4.35c1.2-.05,2.12-.07,2.78-.07a18.69,18.69,0,0,1,3.24.18.93.93,0,0,1,.63.36,3.43,3.43,0,0,1,.2,1.35l0,1h1l-.07-3.42.07-3v-.28h-.88l-.09,1a3.43,3.43,0,0,1-.23,1.2.89.89,0,0,1-.6.24,22.94,22.94,0,0,1-3,.16c-1,0-2,0-3.14-.09l0-4.95c0-.95,0-2,.09-3.05l1.74-.1,1.57-.06a25.68,25.68,0,0,1,3.28.21,6.93,6.93,0,0,1,1.78.45,16.4,16.4,0,0,1,.19,2.73h.92c.16-2,.24-3,.26-3.05a11.41,11.41,0,0,1,.33-1.45,21.72,21.72,0,0,0-2.74-.16c-1,0-2.5,0-4.62,0l-4.42.08-4.18-.09v.94a10,10,0,0,1,2.12.15,1,1,0,0,1,.54.38,4.71,4.71,0,0,1,.21,1.65c0,1.27,0,2.57,0,3.89v7.49c0,.94,0,2-.09,3.34a5.63,5.63,0,0,1-.2,1.54.59.59,0,0,1-.3.28,6.19,6.19,0,0,1-2,.23v.92l3.84-.11,8.74.11a20.63,20.63,0,0,0,3.07-.19,38.43,38.43,0,0,1,.38-4.9h-1C115.08,162.39,114.94,163.05,114.72,163.92Z"/></g></g></svg>