<svg xmlns="http://www.w3.org/2000/svg" viewBox="0 0 130.09 93.64"><defs><style>.cls-1{fill:#ff7d97;}.cls-2{fill:#fff;}</style></defs><title>Romantic01</title><g id="Calque_2" data-name="Calque 2"><g id="Love_10" data-name="Love 10"><path class="cls-1" d="M116.64,0H13.45A13.37,13.37,0,0,0,0,13.29V62.21A13.37,13.37,0,0,0,13.45,75.5h25A6.43,6.43,0,0,1,42.62,77L60.53,92.16a6.31,6.31,0,0,0,8.13,0L86.58,77a6.39,6.39,0,0,1,4.14-1.52h25.92a13.37,13.37,0,0,0,13.45-13.29V13.29A13.37,13.37,0,0,0,116.64,0Z"/><path class="cls-2" d="M47,19.83l-.71.37-4.15,2.28L38,20.2l-.7-.37C27.16,15,18,26.13,21.11,35.83a12.49,12.49,0,0,0,4.12,5.87L42.17,55.31,59.11,41.7a12.49,12.49,0,0,0,4.12-5.87C66.34,26.13,57.19,15,47,19.83Z"/><polygon class="cls-2" points="98.91 50.25 98.91 17.94 94.12 17.94 86.47 22.13 86.47 27.56 92.44 24.29 92.44 50.25 86.69 50.25 86.69 55.05 104.21 55.05 104.21 50.25 98.91 50.25"/></g></g></svg>