<svg xmlns="http://www.w3.org/2000/svg" viewBox="0 0 200.46 158.89"><defs><style>.cls-1{fill:#ff7d97;}.cls-2{fill:#fff;}.cls-3{fill:#324b56;}</style></defs><title>Romantic 08</title><g id="Calque_2" data-name="Calque 2"><g id="bg"><polygon class="cls-1" points="167.62 36.75 167.62 12.76 54.76 0 63.58 12.75 54.1 23.53 167.62 36.75"/><polygon class="cls-1" points="33.67 36.05 33.67 60.03 200.46 80.43 200.46 43.57 33.67 36.05"/><polygon class="cls-1" points="0 115.61 167.62 122.1 167.62 97.75 0 78.67 0 115.61"/><polygon class="cls-1" points="32.88 121.29 32.88 145.24 145.94 158.9 136.78 145.24 146.26 134.06 32.88 121.29"/><polygon class="cls-2" points="0 78.67 0 115.61 200.46 80.43 200.46 43.57 0 78.67"/><polygon class="cls-2" points="167.62 12.76 33.67 36.05 33.67 60.03 167.62 36.75 167.62 12.76"/><polygon class="cls-2" points="32.88 145.24 167.62 122.1 167.62 97.75 32.88 121.29 32.88 145.24"/><path class="cls-3" d="M72,36.41l0,8.5c0,.88-.08,1-1.08,1.22v.57l6.15-1.09V45c-1,.15-1.08,0-1.08-.83l0-8.5c0-.88.07-1,1.08-1.24v-.55L70.94,35v.56C71.93,35.42,72,35.53,72,36.41Z"/><path class="cls-3" d="M82.73,34.27c.9,3.27,1.7,6.6,2.55,9.89l3.07-.54,1.24-7.5h0L91.57,43l3.07-.54c.66-3,1.87-8.54,2.5-10.86.16-.59.44-.79,1.11-.94v-.56l-3.62.64v.56l.9-.05c.3,0,.41.14.38.46-.12,1.19-.81,5.4-1.28,7.77l-.09,0-2.24-8.09L89.46,32l-1.29,8.43h0c-.49-2.33-1-4.61-1.39-6.91-.07-.42,0-.61.23-.69l.87-.25V32l-6.1,1.08v.54C82.49,33.54,82.56,33.71,82.73,34.27Z"/><path class="cls-3" d="M99.85,31.46l0,8.5c0,.88-.08,1-1.08,1.22v.57L105,40.66v-.58c-1,.15-1.09.05-1.09-.83l0-8.5c0-.88.06-1,1.07-1.24V29l-6.15,1.09v.56C99.75,30.47,99.84,30.58,99.85,31.46Z"/><path class="cls-3" d="M107.54,30.09l0,8.5c0,.88-.08,1-1.07,1.22v.58l9.36-1.67.3-3.84-.76.14c-1.09,2.81-1.51,3.3-2.59,3.49s-1.25.09-1.25-.77l0-8.36c0-.88.17-1,1.27-1.27v-.56l-6.34,1.13v.56C107.44,29.1,107.53,29.21,107.54,30.09Z"/><path class="cls-3" d="M118.44,28.16l0,8.49c0,.89-.08,1-1.08,1.22v.58l9.36-1.67.3-3.83-.77.13c-1.08,2.81-1.5,3.3-2.59,3.49s-1.24.09-1.24-.77l0-8.35c0-.89.18-1,1.28-1.28v-.55l-6.34,1.13v.55C118.34,27.16,118.43,27.27,118.44,28.16Z"/><path class="cls-3" d="M42.14,97.05c-1.46.26-1.87.15-1.87-1.15L40.2,83.38c0-1.33.26-1.56,1.91-1.91v-.84l-9.51,1.7v.83c1.49-.21,1.63,0,1.63,1.28l.07,12.74c0,1.32-.13,1.51-1.61,1.83v.86l14-2.49.45-5.76L46,91.83C44.39,96,43.76,96.77,42.14,97.05Z"/><path class="cls-3" d="M58.08,77.36c-6.25,1.11-9,5.12-9,10.81s2.84,8.71,9.08,7.6,9-5.15,9-10.82S64.4,76.23,58.08,77.36Zm.09,17.38c-1.78.32-2.75-1.51-2.78-7.69,0-6.72,1.2-8.43,2.69-8.69,2.53-.45,2.79,3.83,2.81,7.71C60.92,91.9,60.16,94.39,58.17,94.74Z"/><path class="cls-3" d="M69.58,78c1.64,4.78,3.32,9.62,5,14.4L79,91.64c1.15-4.34,3.58-12.42,4.86-16.32.39-1.15.66-1.28,1.77-1.58V72.9l-5.37.95v.84l1.43-.07c.43,0,.51.37.43.82-.39,2.07-1.9,8.15-2.94,12.14l-.16,0c-1.08-3.43-2.46-7.59-3.46-11.08-.11-.39-.11-.79.31-.92l1.33-.38V74.4l-9.31,1.65v.84C68.9,76.81,69.14,76.85,69.58,78Z"/><path class="cls-3" d="M86.5,89.43v.87l14.69-2.62.45-5.78-1,.18c-2.16,4.73-2.69,5-4.63,5.36s-1.94.32-2-1.14l0-5.72.91-.16c1.59-.29,1.67-.19,2.59,2.24l1-.18,0-6.53-1,.18c-.87,2.71-1,2.84-2.57,3.13l-.9.16,0-6c0-.81,0-.93.79-1.06l.9-.16c2.13-.38,2.24-.29,3.88,3.26l1-.19,0-5.07L86.42,72.75v.84c1.49-.21,1.62,0,1.63,1.28l.07,12.74C88.12,88.93,88,89.11,86.5,89.43Z"/><path class="cls-3" d="M123.66,68.07c.45-1,.88-1.18,1.86-1.44V65.8l-5.15.91v.84l1.28-.06c.45,0,.48.32.3,1-.29,1-1.34,4.45-2.28,7.21h0c-.94-1.91-2.48-5.2-3-6.43-.21-.45-.16-.78.19-.9L118,68v-.84l-9.65,1.72v.83c.93-.08,1.17,0,1.63.71.86,1.36,3,5.49,4.06,7.68a2.81,2.81,0,0,1,.24,1.23l0,3.7c0,1.29-.1,1.39-2.09,1.86v.86l10-1.77v-.87c-2,.26-2.13.19-2.14-1.1l0-3.89a3.23,3.23,0,0,1,.21-1.28C121.17,74.08,122.93,69.77,123.66,68.07Z"/><path class="cls-3" d="M135.35,63.62c-6.25,1.11-9,5.11-9,10.81s2.84,8.71,9.08,7.6,9.05-5.15,9-10.82S141.67,62.49,135.35,63.62ZM135.44,81c-1.78.32-2.75-1.51-2.78-7.69,0-6.72,1.21-8.43,2.69-8.7,2.53-.44,2.79,3.83,2.81,7.72C138.19,78.16,137.43,80.65,135.44,81Z"/><path class="cls-3" d="M165.87,59.46v-.84l-9.06,1.61v.84c1.49-.21,1.62,0,1.63,1.28l.05,10c0,3.19-.54,4.67-2.08,4.94s-2.13-1-2.15-4.18l0-10c0-1.32.13-1.54,1.61-1.86v-.83l-9.22,1.64v.83c1.52-.21,1.65-.05,1.66,1.28l0,9c0,4.29,1.61,6.33,8.06,5.18s8-3.74,7.94-8.16l0-8.83C164.25,60,164.38,59.78,165.87,59.46Z"/><path class="cls-3" d="M57.18,123.15v.55c1-.14,1.08,0,1.09.86l0,8.49c0,.89-.08,1-1.08,1.22v.58l6.38-1.14v-.57c-1.24.18-1.32.09-1.32-.8l0-3.63.83-.15c.89-.16,1,.12,1.63,1.6l.69-.12,0-4.46-.7.12c-.63,1.86-.7,1.93-1.6,2.09l-.83.14,0-4.41c0-.47.07-.55.57-.64l.51-.09c1.46-.26,1.78.62,2.59,2.35l.67-.12,0-3.55Z"/><path class="cls-3" d="M74.3,119.81c-4.17.74-6,3.41-6,7.21s1.89,5.81,6.06,5.07,6-3.43,6-7.21S78.52,119.06,74.3,119.81Zm.06,11.6c-1.19.21-1.84-1-1.86-5.13,0-4.49.81-5.62,1.8-5.8,1.68-.3,1.86,2.55,1.87,5.15C76.19,129.51,75.69,131.17,74.36,131.41Z"/><path class="cls-3" d="M92.67,125.59c-.27-1.3-1-2.39-3.3-2.44V123c2.48-.55,3.58-2,3.57-3.48,0-2.52-1.82-2.45-4-2.07l-6.91,1.23v.56c1-.14,1.08,0,1.09.85l0,8.5c0,.88-.08,1-1.08,1.22v.57l6.1-1.08v-.58c-1,.15-1.08.05-1.08-.83l0-3.94.3-.06c.46-.08.85.14.94.84a19.72,19.72,0,0,0,.44,2.68c.42,1.28,1.29,1.56,3,1.25l2.24-.4v-.58C93.23,127.71,93.07,127.59,92.67,125.59Zm-5.23-2.33-.34.06,0-4.16c0-.52.07-.68.62-.78.83-.14,1.31.63,1.32,2.18C89,121.77,88.79,123,87.44,123.26Z"/><path class="cls-3" d="M101.5,126.2c-1.2.22-1.29.21-1.3-.76l0-3.82.61-.1c1.06-.19,1.11-.13,1.73,1.49l.67-.12,0-4.36-.68.12c-.57,1.82-.64,1.9-1.71,2.09l-.6.11,0-4c0-.54,0-.62.53-.71l.6-.1c1.42-.26,1.49-.2,2.59,2.17l.69-.12,0-3.39-9.47,1.68V117c1-.14,1.08,0,1.08.85l0,8.5c0,.89-.09,1-1.08,1.22v.58l9.81-1.75.3-3.85-.66.12C103.15,125.78,102.8,126,101.5,126.2Z"/><path class="cls-3" d="M114.14,113v.55l1,0c.28,0,.33.25.28.54-.26,1.38-1.26,5.44-2,8.1l-.11,0c-.72-2.29-1.64-5.06-2.31-7.39-.07-.26-.07-.53.21-.62l.89-.24v-.56l-6.21,1.1V115c.7-.05.86,0,1.14.75l3.32,9.61,2.94-.52c.77-2.89,2.39-8.28,3.25-10.89.26-.76.43-.85,1.18-1v-.56Z"/><path class="cls-3" d="M124.68,122.08c-1.2.21-1.29.21-1.3-.76l0-3.82.61-.11c1.06-.19,1.11-.12,1.72,1.5l.68-.12,0-4.36-.67.12c-.58,1.82-.64,1.9-1.71,2.09l-.6.11,0-4c0-.54,0-.62.53-.71l.6-.11c1.42-.25,1.49-.19,2.58,2.18l.69-.13V110.6l-9.47,1.68v.56c1-.14,1.09,0,1.09.85l0,8.5c0,.88-.08,1-1.07,1.22V124l9.81-1.74.29-3.86-.65.12C126.33,121.66,126,121.85,124.68,122.08Z"/><path class="cls-3" d="M140.48,117.09c-.27-1.31-.95-2.39-3.3-2.44v-.11c2.48-.55,3.58-2,3.57-3.48,0-2.52-1.82-2.45-4-2.07l-6.91,1.23v.55c1-.14,1.08,0,1.09.86l0,8.5c0,.88-.08,1-1.07,1.21v.58l6.1-1.08v-.58c-1,.14-1.08,0-1.08-.84l0-3.94.3,0c.46-.08.85.13.94.84a20,20,0,0,0,.44,2.68c.42,1.28,1.29,1.55,3,1.24l2.24-.39v-.58C141,119.21,140.88,119.09,140.48,117.09Zm-5.23-2.33-.34.06,0-4.16c0-.53.07-.68.62-.78.83-.15,1.31.63,1.32,2.18C136.84,113.27,136.6,114.52,135.25,114.76Z"/><path class="cls-1" d="M68.12,39.52a4.13,4.13,0,0,0-3.43-.75,9.81,9.81,0,0,0-4.91,2.93l-.52.52a5.69,5.69,0,0,1-2.44,1.7,1,1,0,0,1-1.21-1,1.62,1.62,0,0,1,.45-1.09,1.92,1.92,0,0,1,1.1-.62,1.78,1.78,0,0,1,1.52.52l.66-.68a3,3,0,0,0-3.22-1.24A3.94,3.94,0,0,0,53.86,41,3,3,0,0,0,53,43.13a1.77,1.77,0,0,0,.6,1.4,2.31,2.31,0,0,0,1.57.53,3.69,3.69,0,0,0-1.53,2.19l-.13.46A3.26,3.26,0,0,1,53,48.78a1.15,1.15,0,0,1-.73.38V50l1.8-.32a9.11,9.11,0,0,0,3.29-1.09,4,4,0,0,0,1.57-2.06,2.29,2.29,0,0,0,.9.74,1.91,1.91,0,0,0,1.09.1,2.54,2.54,0,0,0,1.6-1,3,3,0,0,0,.65-1.89,4.89,4.89,0,0,0-.54-2l-.78.51a1.87,1.87,0,0,1,.2.77,1.36,1.36,0,0,1-.25.87,1.12,1.12,0,0,1-.75.42,1,1,0,0,1-.85-.21,1.09,1.09,0,0,1-.35-.84A3.11,3.11,0,0,1,61,41.79a4.7,4.7,0,0,1,2.52-1.33A3,3,0,0,1,66,41,2.65,2.65,0,0,1,67,43.23a3.76,3.76,0,0,1-.81,2.46A3.8,3.8,0,0,1,64,47.07v.87l.28,0A6.89,6.89,0,0,0,68.11,46a4.72,4.72,0,0,0,1.43-3.45A3.65,3.65,0,0,0,68.12,39.52ZM54.91,48.76A2.86,2.86,0,0,0,56,47.48l.14-.28a4.81,4.81,0,0,1,2.31-2.55A4,4,0,0,1,54.91,48.76Z"/><path class="cls-1" d="M145.65,33.42v-.87a.89.89,0,0,1-.75-.12,2.06,2.06,0,0,1-.49-.89l-.14-.41a2.3,2.3,0,0,0-1.54-1.65,3.4,3.4,0,0,0,1.56-1.09,2.5,2.5,0,0,0,.58-1.6A2.09,2.09,0,0,0,144,25a2.91,2.91,0,0,0-2.26-.39A4.45,4.45,0,0,0,138.5,27l.66.46a2.63,2.63,0,0,1,1.51-1.06,1.4,1.4,0,0,1,1.11.22,1.09,1.09,0,0,1,.46.93,1.38,1.38,0,0,1-.35.93,1.41,1.41,0,0,1-.85.51,3.88,3.88,0,0,1-2.45-.83l-.52-.33a6.93,6.93,0,0,0-4.93-1.18,5.75,5.75,0,0,0-3.42,2,5.23,5.23,0,0,0-1.39,3.55A3.28,3.28,0,0,0,129.8,35a5.14,5.14,0,0,0,3.82.53l.28-.05v-.87a2.69,2.69,0,0,1-2.23-.58,2.82,2.82,0,0,1-.84-2.18,3.84,3.84,0,0,1,1-2.59,4.27,4.27,0,0,1,2.51-1.44,3.47,3.47,0,0,1,2.53.43A2.07,2.07,0,0,1,138,30.09a1.51,1.51,0,0,1-.34,1,1.38,1.38,0,0,1-.85.51.83.83,0,0,1-.75-.15,1.07,1.07,0,0,1-.26-.79,2.54,2.54,0,0,1,.19-.83l-.78-.23a6.28,6.28,0,0,0-.52,2.19,2.21,2.21,0,0,0,.67,1.66,1.8,1.8,0,0,0,1.61.46,2.54,2.54,0,0,0,1.08-.5,3.74,3.74,0,0,0,.89-1.05,2.46,2.46,0,0,0,1.6,1.49,7.68,7.68,0,0,0,3.29-.08Zm-6.25-3.17A3,3,0,0,1,141.74,32l.14.23a1.76,1.76,0,0,0,1.12.89Q139.7,33.69,139.4,30.25Z"/><polygon class="cls-1" points="20.47 90.25 18.9 82.79 17.42 90.79 9.81 91.15 16.49 93.9 13.34 101.44 18.96 95.28 24.63 99.43 21.42 93.02 28.07 87.9 20.47 90.25"/><polygon class="cls-1" points="188.46 59.38 180.86 61.72 179.29 54.27 177.81 62.26 170.2 62.62 176.88 65.37 173.74 72.91 179.35 66.75 185.03 70.9 181.81 64.49 188.46 59.38"/><path class="cls-1" d="M54.36,127.66a4.16,4.16,0,0,0-3.43-.74A9.78,9.78,0,0,0,46,129.85l-.51.51a5.81,5.81,0,0,1-2.45,1.71,1,1,0,0,1-.85-.21,1,1,0,0,1-.36-.8,1.57,1.57,0,0,1,.46-1.09,1.84,1.84,0,0,1,1.09-.62,1.77,1.77,0,0,1,1.52.52l.66-.69a3,3,0,0,0-3.22-1.24,4,4,0,0,0-2.26,1.19,3.06,3.06,0,0,0-.88,2.15,1.74,1.74,0,0,0,.6,1.39,2.31,2.31,0,0,0,1.57.54,3.64,3.64,0,0,0-1.52,2.19l-.14.46a3.22,3.22,0,0,1-.48,1.06,1.24,1.24,0,0,1-.74.39v.87l1.8-.32a9.09,9.09,0,0,0,3.29-1.1,4,4,0,0,0,1.58-2,2.24,2.24,0,0,0,.9.74,1.89,1.89,0,0,0,1.09.1,2.54,2.54,0,0,0,1.59-1,3,3,0,0,0,.65-1.9,4.89,4.89,0,0,0-.54-2l-.77.51a2,2,0,0,1,.19.76,1.39,1.39,0,0,1-.25.88,1.12,1.12,0,0,1-.75.42,1,1,0,0,1-.85-.22,1.09,1.09,0,0,1-.35-.84,3.09,3.09,0,0,1,1.1-2.2,4.76,4.76,0,0,1,2.52-1.34,3.06,3.06,0,0,1,2.53.56,2.7,2.7,0,0,1,1,2.21,3.92,3.92,0,0,1-.81,2.47,3.86,3.86,0,0,1-2.22,1.38v.87l.28-.05a6.9,6.9,0,0,0,3.81-1.89,4.73,4.73,0,0,0,1.44-3.44A3.7,3.7,0,0,0,54.36,127.66Zm-13.21,9.25a2.8,2.8,0,0,0,1.11-1.28l.14-.28a4.85,4.85,0,0,1,2.32-2.56A4,4,0,0,1,41.15,136.91Z"/><path class="cls-1" d="M159.55,115.53a2.19,2.19,0,0,1-.49-.89l-.14-.42a2.28,2.28,0,0,0-1.54-1.64,3.48,3.48,0,0,0,1.56-1.09,2.53,2.53,0,0,0,.58-1.61,2.12,2.12,0,0,0-.9-1.83,2.9,2.9,0,0,0-2.27-.38,4.41,4.41,0,0,0-3.2,2.38l.66.45a2.68,2.68,0,0,1,1.51-1.06,1.4,1.4,0,0,1,1.11.23,1.09,1.09,0,0,1,.46.93,1.51,1.51,0,0,1-1.2,1.43,3.82,3.82,0,0,1-2.45-.83l-.53-.33a7,7,0,0,0-4.92-1.18,5.8,5.8,0,0,0-3.42,2A5.2,5.2,0,0,0,143,115.2a3.28,3.28,0,0,0,1.47,2.93,5.18,5.18,0,0,0,3.82.53l.28,0v-.87a2.71,2.71,0,0,1-2.23-.59,2.84,2.84,0,0,1-.83-2.18,3.84,3.84,0,0,1,1-2.58,4.26,4.26,0,0,1,2.51-1.45,3.47,3.47,0,0,1,2.53.44,2.08,2.08,0,0,1,1.12,1.81,1.48,1.48,0,0,1-.34,1,1.36,1.36,0,0,1-.85.51.85.85,0,0,1-.75-.14,1,1,0,0,1-.26-.79,2.35,2.35,0,0,1,.19-.84l-.78-.23a6.37,6.37,0,0,0-.52,2.2,2.15,2.15,0,0,0,.67,1.65,1.76,1.76,0,0,0,1.6.46,2.5,2.5,0,0,0,1.09-.49,3.66,3.66,0,0,0,.89-1.06,2.43,2.43,0,0,0,1.6,1.49,7.64,7.64,0,0,0,3.29-.07l1.8-.32v-.87A.91.91,0,0,1,159.55,115.53Zm-5.5-2.18c.84,0,1.62.59,2.33,1.73l.15.23a1.75,1.75,0,0,0,1.12.88Q154.35,116.78,154.05,113.35Z"/></g></g></svg>