<svg xmlns="http://www.w3.org/2000/svg" viewBox="0 0 172.05 172.05"><defs><style>.cls-1{fill:#ff7d97;}.cls-2{fill:#324b56;}.cls-3{fill:#fff;}</style></defs><title>Romantic06</title><g id="Calque_2" data-name="Calque 2"><g id="Love_10" data-name="Love 10"><circle class="cls-1" cx="86.03" cy="86.03" r="86.03"/><path class="cls-2" d="M45.85,94.41a1.4,1.4,0,0,1-.12.55,2.26,2.26,0,0,1-.32.54,1.71,1.71,0,0,1-.45.4,1,1,0,0,1-.53.15H37.65V76.16h3.29V70.51H27.59v5.65h3.23V96.05H27.59v5.64H52.52V90.23H45.85Z"/><path class="cls-2" d="M82.46,77.92a16.37,16.37,0,0,0-2.35-3.27,15.21,15.21,0,0,0-3-2.52,14.57,14.57,0,0,0-3.62-1.62,14.5,14.5,0,0,0-8.12,0,14.5,14.5,0,0,0-3.61,1.62,14.93,14.93,0,0,0-3,2.52,15.94,15.94,0,0,0-2.34,3.27,17.67,17.67,0,0,0-1.5,3.87,17.75,17.75,0,0,0,0,8.61,17.7,17.7,0,0,0,1.5,3.85,15.94,15.94,0,0,0,2.34,3.27,14.31,14.31,0,0,0,3,2.52,14.53,14.53,0,0,0,3.61,1.63,14.5,14.5,0,0,0,8.12,0,14.76,14.76,0,0,0,6.66-4.15,16.37,16.37,0,0,0,2.35-3.27A17.12,17.12,0,0,0,84,90.39a17.71,17.71,0,0,0,0-8.6A17.2,17.2,0,0,0,82.46,77.92ZM76.88,89.83a10,10,0,0,1-1.65,3.09A8.21,8.21,0,0,1,72.67,95a7.12,7.12,0,0,1-3.29.77A7,7,0,0,1,66.13,95a8.29,8.29,0,0,1-2.55-2.1,10.2,10.2,0,0,1-1.67-3.09,11.18,11.18,0,0,1-.61-3.73,11.42,11.42,0,0,1,.61-3.77,10.09,10.09,0,0,1,1.67-3.09,8,8,0,0,1,2.55-2.1,7.24,7.24,0,0,1,6.5,0,8,8,0,0,1,2.57,2.1,9.88,9.88,0,0,1,1.67,3.09,12.11,12.11,0,0,1,0,7.5Z"/><polygon class="cls-2" points="103.96 76.16 107.56 76.16 102.15 93.85 96.72 76.16 100.05 76.16 100.05 70.51 86.68 70.51 86.68 76.16 89.69 76.16 97.77 101.69 106.2 101.69 114.53 76.16 117.31 76.16 117.31 70.51 103.96 70.51 103.96 76.16"/><polygon class="cls-2" points="144.87 81.14 144.87 70.51 120.07 70.51 120.07 76.72 123.34 76.72 123.34 96.05 120.07 96.05 120.07 101.69 144.87 101.69 144.87 90.52 138.17 90.52 138.17 96.05 130.17 96.05 130.17 88.83 136.36 88.83 136.36 82.87 130.17 82.87 130.17 76.72 138.17 76.72 138.17 81.14 144.87 81.14"/><path class="cls-3" d="M86,2A84,84,0,1,1,2,86,84.12,84.12,0,0,1,86,2m0-2a86,86,0,1,0,86,86A86,86,0,0,0,86,0Z"/><path class="cls-3" d="M53.42,40A4.22,4.22,0,0,1,53,37.9a6.75,6.75,0,0,1,4.27-6.65L52.84,52h4.39l4.85-22.82c-.39,0-.79-.06-1.22-.06-5.09,0-10.7,3.88-10.7,7.93C50.16,39.21,51.31,40,53.42,40Z"/><path class="cls-3" d="M65.32,33.2a.65.65,0,0,1,.36.52l-1.49,2.13a.46.46,0,0,0,.27.43c2.32-1.49,3.69-3.54,3.69-5.12a1.86,1.86,0,0,0-2-2A2.19,2.19,0,0,0,64,31.28,2.31,2.31,0,0,0,65.32,33.2Z"/><path class="cls-3" d="M90,48.3c0-.67,1.32-6,1.47-7a5.36,5.36,0,0,0,.06-.7A3.91,3.91,0,0,0,88,36.71a8,8,0,0,0-4.42,1.95,3.69,3.69,0,0,0-3-1.95,7.26,7.26,0,0,0-3.94,1.61L77,36.71H72.64L69.4,52h4.4l2.62-12.32A3,3,0,0,1,78.28,39c.82,0,1.4.7,1.4,1.8a3.83,3.83,0,0,1-.09.79L77.4,52h4.42l2.26-10.71a4.48,4.48,0,0,0,.06-.64A4.11,4.11,0,0,0,84,39.52,3,3,0,0,1,85.69,39c.83,0,1.4.7,1.4,1.8a3.83,3.83,0,0,1-.09.79l-1.16,5.49a7.54,7.54,0,0,0-.18,1.55c0,2.29,1.13,3.33,3.11,3.33,1,0,2.32-.18,3.18-2.81a2.52,2.52,0,0,1-.8.09C90.27,49.24,90,48.82,90,48.3Z"/><path class="cls-3" d="M103.75,35.09a2.42,2.42,0,0,0,2.44-2.41,2.45,2.45,0,0,0-2.44-2.44,2.42,2.42,0,0,0-2.41,2.44A2.4,2.4,0,0,0,103.75,35.09Z"/><path class="cls-3" d="M102.2,52c1.25,0,2.8-1.13,4.2-2.41L105.89,52h4.39l2.59-12.32a3.21,3.21,0,0,1,1.92-.64c.83,0,1.41.7,1.41,1.8a3.83,3.83,0,0,1-.09.79L115,47.08a7,7,0,0,0-.19,1.55c0,2.29,1.13,3.33,3.12,3.33,1,0,2.31-.18,3.17-2.81a2.52,2.52,0,0,1-.8.09c-.88,0-1.12-.42-1.12-.94s1.31-6,1.46-7a5.36,5.36,0,0,0,.06-.7,3.91,3.91,0,0,0-3.51-3.84,7.23,7.23,0,0,0-4,1.64l.36-1.64h-4.39L106.75,47.9a4.45,4.45,0,0,1-2.39,1.28c-1.22,0-1.52-.48-1.52-1.16a5.76,5.76,0,0,1,.12-.94l2.19-10.37h-4.39L98.57,47.08a7.17,7.17,0,0,0-.19,1.55C98.38,50.92,99.85,52,102.2,52Z"/><path class="cls-3" d="M52.65,124.34a1.73,1.73,0,0,0-1.74,1.49c0,.86.4,1.71,1.28,1.71a2.34,2.34,0,0,0,.64-.12c0,3.32-2,10-5,10-.88,0-1.16-.39-1.16-1a5.5,5.5,0,0,1,.15-1.13L49,125H44.6l-2.2,10.37a4.49,4.49,0,0,0-.15,1,3.83,3.83,0,0,1-2.14,1.07c-1.22,0-1.52-.49-1.52-1.16a5.76,5.76,0,0,1,.12-.94L40.91,125h-4.4l-2.19,10.37a7.85,7.85,0,0,0-.19,1.55c0,2.29,1.47,3.33,3.82,3.33,1.28,0,2.93-1.22,4.36-2.53.3,1.73,1.65,2.53,3.72,2.53,6.16,0,8.57-8.36,8.57-13.12C54.6,125.5,54,124.34,52.65,124.34Z"/><path class="cls-3" d="M60.25,118.48a2.42,2.42,0,0,0-2.41,2.44,2.39,2.39,0,0,0,2.41,2.41,2.42,2.42,0,0,0,2.44-2.41A2.45,2.45,0,0,0,60.25,118.48Z"/><path class="cls-3" d="M84.31,136.57a6,6,0,0,1,.25-1.25l1.25-5.83a2.54,2.54,0,0,0,.06-.67A4,4,0,0,0,82.36,125a7.23,7.23,0,0,0-4,1.64L80,118.85l-4.51.61L72,136a4.79,4.79,0,0,1-2.54,1.41c-1.22,0-1.53-.46-1.53-1.16,0-.15,0-.45,2.08-10.09h1.83l.24-1.22H70.22c.58-2.75,1-4.82,1-4.82l-4.52.61L65.83,125h-1l-.24,1.22h1c-.45,2.23-1.66,7.25-2,9.69a5.21,5.21,0,0,1-2.72,1.56c-1.22,0-1.53-.49-1.53-1.16a5.76,5.76,0,0,1,.12-.94L61.65,125H57.26l-2.2,10.37a7.77,7.77,0,0,0-.18,1.55c0,2.29,1.46,3.33,3.81,3.33,1.45,0,3.28-1.5,4.82-3,.14,2,1.53,3,3.75,3,1.31,0,2.93-1.22,4.36-2.55l-.54,2.55h4.39l2.62-12.29a3,3,0,0,1,1.92-.68c.95,0,1.38.92,1.38,1.9a4,4,0,0,1-.07.7l-1.15,5.49a6.26,6.26,0,0,0-.19,1.52c0,1.92,1,3.36,3.11,3.36,1,0,2.32-.18,3.18-2.81a2.52,2.52,0,0,1-.8.09C84.56,137.48,84.31,137.09,84.31,136.57Z"/><path class="cls-3" d="M134.28,136.35a4.27,4.27,0,0,1,.15-1l2.2-10.37h-4.36l-2.2,10.37a4.26,4.26,0,0,0-.15,1,4.07,4.07,0,0,1-2.17,1.1c-1.19,0-1.52-.46-1.52-1.13a3.82,3.82,0,0,1,.15-1L128.61,125h-4.49l-.83,4a2.76,2.76,0,0,1-1.46.42,1.19,1.19,0,0,1-.88-.27c-.06-2.23-.79-4.49-3.69-4.49-4.21,0-8,3.23-8,10.74,0,.07,0,.13,0,.2a10.12,10.12,0,0,1-3.55,2.73L108.53,125h-4.39l-2.41,11.28a4.13,4.13,0,0,1-2.29,1.19c-1.22,0-1.52-.49-1.52-1.16a5.76,5.76,0,0,1,.12-.94l2.2-10.37h-4.4l-2.19,10.37a7.77,7.77,0,0,0-.18,1.55c0,2.29,1.46,3.33,3.81,3.33,1.22,0,2.71-1.07,4.09-2.32l-.43,2.07c-2.9.86-5.25,1.77-5.25,4.58a3.43,3.43,0,0,0,3.6,3.29c2,0,4.58-.82,5.49-5.18l.61-2.93a8.72,8.72,0,0,0,4.11-2.08c.53,2,1.93,2.75,4.4,2.75,3,0,6.38-3,7-9.15a9.4,9.4,0,0,0,2.16-.91l-1,5a7.6,7.6,0,0,0-.19,1.55c0,2.29,1.41,3.33,3.79,3.33,1.31,0,2.93-1.22,4.36-2.56A2.79,2.79,0,0,0,133,140.2c1,0,2.32-.18,3.17-2.81a2.46,2.46,0,0,1-.79.09C134.52,137.48,134.28,137,134.28,136.35Zm-33.92,6.38c-.37,1.8-1.16,2.38-1.77,2.38a1.23,1.23,0,0,1-1.22-1c0-1.65,1.43-2.5,3.35-3.14Zm18.24-11.2c-.37,3-1.4,5.89-3.26,5.89-1.19,0-2-.49-2-2.32,0-2.44,1.22-8.66,4.09-8.66.85,0,1.19.58,1.28,1.59a2.29,2.29,0,0,0-1.34,2.13A1.24,1.24,0,0,0,118.6,131.53Z"/><path class="cls-3" d="M27.88,59a.9.9,0,0,0-1-.19,1,1,0,0,0-.27.19.9.9,0,0,0-.27.63.88.88,0,0,0,.27.62,1,1,0,0,0,.27.19.87.87,0,0,0,.35.07.82.82,0,0,0,.61-.26.84.84,0,0,0,.27-.62.8.8,0,0,0-.07-.34A.63.63,0,0,0,27.88,59Z"/><path class="cls-3" d="M36,60.55a.88.88,0,1,0-.88-.88A.87.87,0,0,0,36,60.55Z"/><path class="cls-3" d="M31.62,60.55a.88.88,0,1,0-.89-.88A.89.89,0,0,0,31.62,60.55Z"/><path class="cls-3" d="M119.42,59.67a.88.88,0,0,0-.87-.89.89.89,0,1,0,0,1.77A.88.88,0,0,0,119.42,59.67Z"/><path class="cls-3" d="M62.92,59.67a.88.88,0,1,0-.88.88A.88.88,0,0,0,62.92,59.67Z"/><path class="cls-3" d="M110.74,59.67a.89.89,0,1,0-.9.88A.89.89,0,0,0,110.74,59.67Z"/><path class="cls-3" d="M115.08,59.67a.88.88,0,1,0-.88.88A.88.88,0,0,0,115.08,59.67Z"/><path class="cls-3" d="M54.23,59.67a.89.89,0,1,0-.89.88A.89.89,0,0,0,54.23,59.67Z"/><path class="cls-3" d="M102,59.67a.88.88,0,1,0-.88.88A.88.88,0,0,0,102,59.67Z"/><path class="cls-3" d="M58.58,59.67a.89.89,0,1,0-.88.88A.9.9,0,0,0,58.58,59.67Z"/><path class="cls-3" d="M97.7,59.67a.89.89,0,1,0-.89.88A.89.89,0,0,0,97.7,59.67Z"/><path class="cls-3" d="M89,59.67a.88.88,0,1,0-.88.88A.88.88,0,0,0,89,59.67Z"/><path class="cls-3" d="M106.38,59.67a.88.88,0,0,0-.87-.89.89.89,0,1,0,0,1.77A.88.88,0,0,0,106.38,59.67Z"/><path class="cls-3" d="M93.34,59.67a.88.88,0,1,0-.88.88A.88.88,0,0,0,93.34,59.67Z"/><path class="cls-3" d="M71.62,59.67a.89.89,0,1,0-.89.88A.9.9,0,0,0,71.62,59.67Z"/><path class="cls-3" d="M84.66,59.67a.89.89,0,1,0-.89.88A.89.89,0,0,0,84.66,59.67Z"/><path class="cls-3" d="M80.31,59.67a.88.88,0,1,0-.89.88A.89.89,0,0,0,80.31,59.67Z"/><path class="cls-3" d="M76,59.67a.88.88,0,1,0-.88.88A.88.88,0,0,0,76,59.67Z"/><path class="cls-3" d="M67.27,59.67a.89.89,0,0,0-.89-.89.89.89,0,1,0,.89.89Z"/><path class="cls-3" d="M131.59,58.78a.89.89,0,1,0,.87.89A.89.89,0,0,0,131.59,58.78Z"/><path class="cls-3" d="M128.12,59.67a.88.88,0,1,0-.88.88A.88.88,0,0,0,128.12,59.67Z"/><path class="cls-3" d="M44.66,60.55a.89.89,0,1,0-.89-.88A.89.89,0,0,0,44.66,60.55Z"/><path class="cls-3" d="M123.77,59.67a.88.88,0,1,0-.89.88A.89.89,0,0,0,123.77,59.67Z"/><path class="cls-3" d="M135.92,58.78a.89.89,0,1,0,.9.89A.89.89,0,0,0,135.92,58.78Z"/><path class="cls-3" d="M40.31,60.55a.89.89,0,0,0,0-1.77.89.89,0,1,0,0,1.77Z"/><path class="cls-3" d="M49.88,59.67a.88.88,0,1,0-.88.88A.88.88,0,0,0,49.88,59.67Z"/><path class="cls-3" d="M140.28,58.78a.89.89,0,1,0,.88.89A.88.88,0,0,0,140.28,58.78Z"/><path class="cls-3" d="M145.25,59a.92.92,0,0,0-1-.19A.86.86,0,0,0,144,59a.94.94,0,0,0-.26.63.75.75,0,0,0,.07.33.7.7,0,0,0,.19.29.93.93,0,0,0,.63.26.75.75,0,0,0,.33-.07.85.85,0,0,0,.48-.48.93.93,0,0,0,.07-.33A.94.94,0,0,0,145.25,59Z"/><path class="cls-3" d="M49.32,110.74a.89.89,0,1,0,.88.88A.88.88,0,0,0,49.32,110.74Z"/><path class="cls-3" d="M53.73,110.74a.89.89,0,1,0,.88.88A.89.89,0,0,0,53.73,110.74Z"/><path class="cls-3" d="M97.83,110.74a.89.89,0,1,0,.88.88A.88.88,0,0,0,97.83,110.74Z"/><path class="cls-3" d="M44.91,110.74a.89.89,0,1,0,.88.88A.88.88,0,0,0,44.91,110.74Z"/><path class="cls-3" d="M102.24,110.74a.89.89,0,1,0,.89.88A.89.89,0,0,0,102.24,110.74Z"/><path class="cls-3" d="M133.12,110.74a.89.89,0,1,0,.88.88A.89.89,0,0,0,133.12,110.74Z"/><path class="cls-3" d="M137.53,110.74a.89.89,0,1,0,.88.88A.89.89,0,0,0,137.53,110.74Z"/><path class="cls-3" d="M58.13,110.74a.89.89,0,1,0,.89.88A.88.88,0,0,0,58.13,110.74Z"/><path class="cls-3" d="M31.67,110.74a.89.89,0,1,0,.89.88A.88.88,0,0,0,31.67,110.74Z"/><path class="cls-3" d="M67,110.74a.89.89,0,1,0,.88.88A.87.87,0,0,0,67,110.74Z"/><path class="cls-3" d="M62.55,110.74a.89.89,0,1,0,.87.88A.88.88,0,0,0,62.55,110.74Z"/><path class="cls-3" d="M36.09,110.74a.89.89,0,1,0,.87.88A.87.87,0,0,0,36.09,110.74Z"/><path class="cls-3" d="M27.27,110.74a.89.89,0,1,0,.88.88A.89.89,0,0,0,27.27,110.74Z"/><path class="cls-3" d="M71.37,110.74a.89.89,0,1,0,.88.88A.88.88,0,0,0,71.37,110.74Z"/><path class="cls-3" d="M40.5,110.74a.89.89,0,1,0,.88.88A.88.88,0,0,0,40.5,110.74Z"/><path class="cls-3" d="M124.3,110.74a.89.89,0,1,0,.87.88A.88.88,0,0,0,124.3,110.74Z"/><path class="cls-3" d="M89,110.74a.89.89,0,0,0,0,1.77.89.89,0,0,0,0-1.77Z"/><path class="cls-3" d="M119.88,110.74a.89.89,0,1,0,.89.88A.89.89,0,0,0,119.88,110.74Z"/><path class="cls-3" d="M93.42,110.74a.89.89,0,1,0,.88.88A.89.89,0,0,0,93.42,110.74Z"/><path class="cls-3" d="M106.66,110.74a.89.89,0,1,0,.88.88A.89.89,0,0,0,106.66,110.74Z"/><path class="cls-3" d="M141.94,110.74a.89.89,0,1,0,.88.88A.89.89,0,0,0,141.94,110.74Z"/><path class="cls-3" d="M111.07,110.74a.89.89,0,1,0,.88.88A.89.89,0,0,0,111.07,110.74Z"/><path class="cls-3" d="M115.48,110.74a.89.89,0,1,0,.88.88A.89.89,0,0,0,115.48,110.74Z"/><path class="cls-3" d="M80.19,110.74a.89.89,0,0,0,0,1.77.89.89,0,1,0,0-1.77Z"/><path class="cls-3" d="M128.71,110.74a.89.89,0,1,0,.88.88A.88.88,0,0,0,128.71,110.74Z"/><path class="cls-3" d="M84.59,110.74a.89.89,0,1,0,.89.88A.88.88,0,0,0,84.59,110.74Z"/><path class="cls-3" d="M75.78,110.74a.89.89,0,1,0,.89.88A.89.89,0,0,0,75.78,110.74Z"/></g></g></svg>