<svg xmlns="http://www.w3.org/2000/svg" viewBox="0 0 165.71 118.66"><defs><style>.cls-1{fill:#ff7d97;}.cls-2{fill:#fff;}.cls-3{fill:none;}.cls-5{opacity:0.5;}</style></defs><title>Romantic10</title><g id="Calque_2" data-name="Calque 2"><g id="Love_10" data-name="Love 10"><polygon class="cls-1" points="12.35 99.38 22.26 109.02 12.35 118.66 157.21 118.66 147.56 109.02 157.21 99.38 12.35 99.38"/><path class="cls-1" d="M15.81,21c-.37,1.55-.74,3.1-1.12,4.66a292.18,292.18,0,0,0,136.33,0c-.37-1.56-.75-3.11-1.12-4.66q7.93-1.53,15.81-3.41-3.54-3.66-7-7.39Q160.18,5.11,161.49,0q-13.89,3.35-28,5.48c.22,1.42.44,2.85.65,4.27a273.23,273.23,0,0,1-102.61,0c.22-1.43.43-2.85.65-4.27Q18.13,3.33,4.22,0C5.1,3.4,6,6.8,7,10.19q-3.43,3.74-7,7.39Q7.88,19.47,15.81,21Z"/><path class="cls-1" d="M141,38.16c-2.59,0-3.69,2.05-2,3.75H76.08v-.79a.6.6,0,1,0-1.2,0v.79H73.33v-.79a.6.6,0,0,0-1.2,0v.79H70.58v-.79a.6.6,0,0,0-1.2,0v.79H29.24C26.9,40.62,21.92,38,18.8,37.43,16.52,37,20,40.82,21,42.56h0c-1,1.72-4.59,5.48-2.29,5.08,3.34-.57,8.87-3.4,11-4.53h39.7v1a.6.6,0,0,0,1.2,0v-1h1.55v1a.6.6,0,0,0,1.2,0v-1h1.55v1a.6.6,0,0,0,1.2,0v-1H139c-1.69,1.7-.59,3.8,2,3.74,3.19-.06,6.05-3.3,8.65-4.24C147.05,41.67,144.19,38.23,141,38.16Z"/><path class="cls-1" d="M148.9,82.43c-3.35.57-8.88,3.41-11,4.53H98.22V86A.6.6,0,1,0,97,86v1H95.47V86a.6.6,0,0,0-.6-.6.6.6,0,0,0-.6.6v1H92.72V86a.6.6,0,0,0-1.2,0v1H28.6c1.69-1.69.59-3.8-2-3.74-3.19.07-6,3.3-8.65,4.24,2.61,1,5.46,4.38,8.65,4.45,2.59,0,3.69-2,2-3.75H91.52V89a.6.6,0,0,0,1.2,0v-.79h1.55V89a.6.6,0,0,0,.6.6.6.6,0,0,0,.6-.6v-.79H97V89a.6.6,0,1,0,1.19,0v-.79h40.14c2.34,1.29,7.32,3.88,10.44,4.48,2.28.43-1.22-3.38-2.2-5.13h0C147.61,85.79,151.19,82,148.9,82.43Z"/><path class="cls-2" d="M40.17,59.52A2.27,2.27,0,0,0,39.63,61,1.68,1.68,0,0,0,40,62a1.19,1.19,0,0,0,1,.46,1.74,1.74,0,0,0,1.36-.66,2.23,2.23,0,0,0,.56-1.46,1.64,1.64,0,0,0-.38-1.06,1.26,1.26,0,0,0-1-.46A1.65,1.65,0,0,0,40.17,59.52Z"/><path class="cls-2" d="M66,73.34a17.56,17.56,0,0,0,1.26-2.1l.18-.4a1.22,1.22,0,0,0,.1-.4.92.92,0,0,0-.18-.54.59.59,0,0,0-.5-.26.71.71,0,0,0-.6.36c-.16.24-.3.45-.4.64a17,17,0,0,1-.92,1.56A16.14,16.14,0,0,1,63.55,74,11.4,11.4,0,0,1,62,75.46a2.73,2.73,0,0,1-1.62.62,1,1,0,0,1-.74-.24,1.34,1.34,0,0,1-.38-.6,2.77,2.77,0,0,1-.14-.78c0-.28,0-.54,0-.78,0-.93,0-1.87.08-2.8s.08-1.87.08-2.8c0-.29,0-.65,0-1.08A6.36,6.36,0,0,0,59,65.72a2.89,2.89,0,0,0-.54-1.08,1.19,1.19,0,0,0-1-.44,2.92,2.92,0,0,0-1.78.88,19.51,19.51,0,0,0-2,2c-.67.77-1.29,1.56-1.86,2.36s-1,1.41-1.3,1.84c.1-.77.24-1.55.4-2.32a13.52,13.52,0,0,1,.68-2.28c.24-.64.47-1.34.7-2.1a7.88,7.88,0,0,0,.34-2.18,1.7,1.7,0,0,0-.26-1,1.1,1.1,0,0,0-.94-.36,2.2,2.2,0,0,0-1.46.6A2.4,2.4,0,0,0,49.11,63c-.14.61-.26,1.24-.36,1.88s-.23,1.27-.36,1.88c-.31,1.45-.61,3-.92,4.51-.25.39-.55.84-.94,1.41a22.9,22.9,0,0,1-1.64,2.1,14.31,14.31,0,0,1-1.84,1.76,2.94,2.94,0,0,1-1.74.74.89.89,0,0,1-.8-.44,3.15,3.15,0,0,1-.42-1,5.49,5.49,0,0,1-.16-1.2c0-.4,0-.72,0-1a17.33,17.33,0,0,1,.36-3.56c.08-.29.18-.63.32-1s.26-.77.4-1.16.24-.76.34-1.12a4,4,0,0,0,.14-.94c0-.59-.31-.88-.92-.88a2.34,2.34,0,0,0-1.9.74,5.36,5.36,0,0,0-1,1.82,20.13,20.13,0,0,0-.58,2.42,13,13,0,0,0-.26,2.5c0,.59,0,1.27.12,2.06a8.71,8.71,0,0,0,.52,2.24,5.1,5.1,0,0,0,1.1,1.8,2.49,2.49,0,0,0,1.9.74,4.12,4.12,0,0,0,2.2-.7,14.48,14.48,0,0,0,2.18-1.7,22.44,22.44,0,0,0,1.94-2.1l.05-.07a30.74,30.74,0,0,0-.29,4.13,1.18,1.18,0,0,0,.2.7.7.7,0,0,0,.64.3,1.37,1.37,0,0,0,1-.4,3.22,3.22,0,0,0,.66-.88c.45-1,.92-2,1.4-3A31,31,0,0,1,52,72.72c.48-.77,1-1.59,1.6-2.44A14,14,0,0,1,55.51,68a4.93,4.93,0,0,1,.44-.4.77.77,0,0,1,.48-.24c.16,0,.26.11.3.32a2.79,2.79,0,0,1,.06.48c0,.77,0,1.53-.08,2.28s-.08,1.51-.08,2.28q0,.76.06,1.68a6,6,0,0,0,.36,1.72,3.44,3.44,0,0,0,.88,1.34,2.26,2.26,0,0,0,1.62.54,4.44,4.44,0,0,0,2.3-.72,13,13,0,0,0,2.24-1.76A15.78,15.78,0,0,0,66,73.34Z"/><path class="cls-2" d="M98.75,68.72a10.25,10.25,0,0,0-.19-1.88,5.64,5.64,0,0,0-.6-1.76,3.9,3.9,0,0,0-1.13-1.32A3.08,3.08,0,0,0,95,63.24a5,5,0,0,0-3.19,1.1A9.88,9.88,0,0,0,89.46,67,14.19,14.19,0,0,0,88,70.48l0,.13,0,0a2.3,2.3,0,0,0-.34.4c-.18.27-.36.54-.52.82a8,8,0,0,1-.52.82c-.26.37-.62.84-1.05,1.4A20,20,0,0,1,84,75.7,9,9,0,0,1,82.42,77a2.9,2.9,0,0,1-1.55.54,1.5,1.5,0,0,1-1.33-.76,6.41,6.41,0,0,1-.75-1.8,11.55,11.55,0,0,1-.37-2.1c0-.71-.08-1.26-.08-1.66q0-.36,0-.9a2.73,2.73,0,0,1,.13-.86,2.4,2.4,0,0,1,.3-.6c.15-.21.28-.4.38-.56.32-.53.65-1,1-1.54s.64-1,.93-1.54a36,36,0,0,0,1.81-3.72c.58-1.39,1.12-2.81,1.59-4.28a37.66,37.66,0,0,0,1.17-4.4,21.15,21.15,0,0,0,.43-4.08,7.54,7.54,0,0,0-.11-1.2,4.42,4.42,0,0,0-.39-1.18,2.3,2.3,0,0,0-.72-.88,1.89,1.89,0,0,0-1.17-.34A2.91,2.91,0,0,0,82,45.8a8.48,8.48,0,0,0-1.59,1.58,15,15,0,0,0-1.31,1.94c-.37.67-.66,1.24-.88,1.72a33.94,33.94,0,0,0-2.35,8,49.9,49.9,0,0,0-.69,8.3c0,.51,0,1.17.07,2s.11,1.71.21,2.66a25.56,25.56,0,0,0,.49,2.84,11,11,0,0,0,.88,2.56,6.16,6.16,0,0,0,1.33,1.86A2.72,2.72,0,0,0,80,80a4.59,4.59,0,0,0,2.47-.78,13.44,13.44,0,0,0,2.37-1.9,18.26,18.26,0,0,0,2-2.4c.23-.32.43-.62.63-.91a8.64,8.64,0,0,0,.2,1.71,5.77,5.77,0,0,0,.63,1.72,3.84,3.84,0,0,0,1.18,1.26,3.22,3.22,0,0,0,1.82.5,4.68,4.68,0,0,0,1.65-.3,7.78,7.78,0,0,0,1.47-.74,7.49,7.49,0,0,0,2-1.84A10.9,10.9,0,0,0,97.75,74a12.73,12.73,0,0,0,.75-2.58A14.17,14.17,0,0,0,98.75,68.72ZM78.22,65.24v-.6a28.06,28.06,0,0,1,.7-6c.47-2.09,1-4.06,1.54-5.9.11-.32.26-.8.46-1.44a17.77,17.77,0,0,1,.72-1.88,8,8,0,0,1,1-1.62,1.57,1.57,0,0,1,1.21-.7.39.39,0,0,1,.35.18,1.35,1.35,0,0,1,.19.42,2.14,2.14,0,0,1,0,.52v.36a17.51,17.51,0,0,1-.59,4.24,47.5,47.5,0,0,1-1.5,4.66c-.61,1.56-1.27,3.07-2,4.52s-1.42,2.73-2.07,3.82C78.24,65.59,78.22,65.4,78.22,65.24Zm18.69,6.14a11.06,11.06,0,0,1-.5,1.9A8.93,8.93,0,0,1,95.52,75a5.67,5.67,0,0,1-1.3,1.42,4.7,4.7,0,0,1-.85.54,2.24,2.24,0,0,1-1,.22,1.5,1.5,0,0,1-1-.34,2.51,2.51,0,0,1-.62-.82,4.23,4.23,0,0,1-.3-1.06,8.43,8.43,0,0,1-.08-1.06,11.71,11.71,0,0,1,.3-2.28A13.64,13.64,0,0,1,91.56,69,8.22,8.22,0,0,1,93,66.8a2.68,2.68,0,0,1,2-.92,1.44,1.44,0,0,1,1,.38,2.94,2.94,0,0,1,.65.92A4.36,4.36,0,0,1,97,68.36a9.71,9.71,0,0,1,.07,1.12A12.56,12.56,0,0,1,96.91,71.38Z"/><path class="cls-2" d="M115.3,63.44a.71.71,0,0,0-.59.3l-.45.54a47.83,47.83,0,0,0-3.05,5c-.93,1.71-1.85,3.4-2.79,5.08a21.36,21.36,0,0,0-.68-2.44q-.43-1.32-1-2.64a24.67,24.67,0,0,0-1.26-2.52,9.93,9.93,0,0,0-1.48-2,2.6,2.6,0,0,0-.52-.48,1.14,1.14,0,0,0-.68-.2,1.5,1.5,0,0,0-1,.52,1.53,1.53,0,0,0-.52,1,.7.7,0,0,0,.2.46l.36.38a11.22,11.22,0,0,1,1.44,2.3c.49,1,.94,2,1.36,3.1a33.47,33.47,0,0,1,1.1,3.24,19.86,19.86,0,0,1,.62,2.68,8.66,8.66,0,0,0,.26,1.06c.1.28.41.42.94.42s.78-.13.9-.4a5.71,5.71,0,0,0,.31-1,6.21,6.21,0,0,1,.57-1.38c.34-.65.74-1.41,1.22-2.28s1-1.79,1.56-2.76,1.11-1.89,1.65-2.76,1-1.64,1.43-2.32.75-1.15,1-1.42l.18-.24a.47.47,0,0,0,.1-.32.78.78,0,0,0-.36-.66A1.25,1.25,0,0,0,115.3,63.44Z"/><path class="cls-2" d="M132.26,72.12a2.24,2.24,0,0,0,.28-.56,1.88,1.88,0,0,0,.08-.64.37.37,0,0,0-.18-.32.66.66,0,0,0-.38-.12.88.88,0,0,0-.72.36c-.18.24-.34.47-.48.68a17.33,17.33,0,0,1-1.4,2,11.4,11.4,0,0,1-1.76,1.78,9.1,9.1,0,0,1-2.08,1.28,5.83,5.83,0,0,1-2.4.5,2.37,2.37,0,0,1-2-.78,3.45,3.45,0,0,1-.6-2.15,8.14,8.14,0,0,1,.2-1.68,6.87,6.87,0,0,0,2-1.21,13.77,13.77,0,0,0,2-2,12.42,12.42,0,0,0,1.56-2.37,4.87,4.87,0,0,0,.62-2.22,2.57,2.57,0,0,0-.58-1.73,2.06,2.06,0,0,0-1.66-.68,4.25,4.25,0,0,0-2.94,1.24,11.59,11.59,0,0,0-2.3,3,17.54,17.54,0,0,0-1.48,3.7,13.16,13.16,0,0,0-.52,3.28,8.61,8.61,0,0,0,.24,2.06,4.83,4.83,0,0,0,.78,1.72,4.22,4.22,0,0,0,1.38,1.2,4.16,4.16,0,0,0,2,.46,9.1,9.1,0,0,0,3.16-.55A11.63,11.63,0,0,0,128,76.89a13.78,13.78,0,0,0,2.42-2.17A14.13,14.13,0,0,0,132.26,72.12Zm-10.88-2.87a21.51,21.51,0,0,1,.88-2.29,12.51,12.51,0,0,1,1.12-2q.6-.87,1.2-.87a.53.53,0,0,1,.54.3,1.38,1.38,0,0,1,.14.63,3.63,3.63,0,0,1-.44,1.67,10.71,10.71,0,0,1-2.48,3.17,10.27,10.27,0,0,1-1.4,1.07A14.27,14.27,0,0,1,121.38,69.25Z"/><path class="cls-2" d="M41.56,15.25l-2.05-.33c-1.15,3.62-1.72,5.43-2.85,9.06h0c0-3.8,0-5.71,0-9.51l-2.17-.33c-1.13,3.63-1.69,5.44-2.8,9.07h-.05l-.1-9.5-2.19-.32c.3,5.16.44,7.74.74,12.9l2.14.32c1-2.87,1.51-4.3,2.53-7.17.15,3,.22,4.57.37,7.62l2.14.33C38.9,22.52,39.78,20.09,41.56,15.25Z"/><path class="cls-2" d="M49.94,27.27l-3.35-.44.5-4.09,2.24.29c.09-.71.13-1.07.22-1.79L47.31,21c.15-1.24.23-1.85.38-3.09l3.14.41c.09-.71.14-1.07.23-1.79l-5.36-.69c-.62,5-.92,7.53-1.52,12.56,2.22.28,3.32.42,5.53.72C49.8,28.35,49.85,28,49.94,27.27Z"/><path class="cls-2" d="M63.72,27.55l2.13.16c.09,1.19.14,1.78.23,3l2.19.17c-.64-5.13-1-7.69-1.61-12.82l-2.23-.17c-1.38,5-2.06,7.47-3.4,12.45l2.07.15C63.35,29.29,63.47,28.71,63.72,27.55Zm1.51-6.27h0l.35,4.58-1.41-.11C64.62,24,64.82,23.07,65.23,21.28Z"/><path class="cls-2" d="M78.47,29.29l-2.89,0c0-4.35,0-6.52.06-10.86H73.41c0,5.07,0,7.6,0,12.67,2,0,3,0,5.07,0C78.46,30.37,78.46,30,78.47,29.29Z"/><path class="cls-2" d="M88.76,30.78c0-.72,0-1.08-.06-1.8l-2.89.1c-.16-4.33-.24-6.5-.41-10.84l-2.23.09c.21,5.06.31,7.59.51,12.65Z"/><path class="cls-2" d="M102,24l2.23-.16c-.05-.72-.07-1.08-.12-1.8l-2.23.16c-.09-1.24-.13-1.86-.22-3.1l3.13-.23c0-.72-.07-1.08-.12-1.8-2.15.15-3.22.22-5.37.39.38,5.05.56,7.58.92,12.63l2.19-.17C102.2,27.56,102.12,26.37,102,24Z"/><path class="cls-2" d="M110.76,26.32l2.13-.18c.27,1.16.4,1.74.66,2.91l2.2-.18c-1.38-5-2.07-7.46-3.5-12.42l-2.23.18c-.61,5.13-.92,7.7-1.52,12.84l2.07-.18C110.64,28.1,110.68,27.51,110.76,26.32Zm.56-6.44h.06c.41,1.78.61,2.68,1,4.47l-1.41.11C111.12,22.63,111.19,21.71,111.32,19.88Z"/><path class="cls-2" d="M125.51,28c-.06-.72-.08-1.08-.14-1.8l-2.89.25c-.36-4.32-.55-6.48-.92-10.8l-2.23.2c.45,5,.67,7.56,1.1,12.61Z"/><path class="cls-2" d="M135.51,27.08l-.15-1.81-2.9.27c-.38-4.32-.58-6.48-1-10.81l-2.23.22c.48,5,.71,7.56,1.17,12.6Z"/><path class="cls-2" d="M41.51,107.58a2,2,0,0,1-.6-1.47.92.92,0,0,1,1-.93c.51,0,1,.46,1,1.29V107h2.12v-.83c0-1.58-1.27-2.65-3.07-2.65s-3.12,1-3.12,2.65.48,2,1.6,3.33l1.77,1.82a2.38,2.38,0,0,1,.7,1.62,1,1,0,0,1-1,1.08c-.55,0-1-.35-1-1.08v-1.11H38.77V113c0,1.7,1.38,2.67,3.1,2.67S45,114.75,45,113a4,4,0,0,0-1.38-3Z"/><path class="cls-2" d="M53.42,103.48c-2.34,0-3.17,1.43-3.17,2.65V113c0,1.22.83,2.68,3.17,2.68A2.8,2.8,0,0,0,56.5,113v-6.87A2.77,2.77,0,0,0,53.42,103.48Zm1,9.48a1.06,1.06,0,0,1-1,1,1,1,0,0,1-1.05-1v-6.85a1,1,0,0,1,2,0Z"/><polygon class="cls-2" points="66.22 110.75 66.19 110.75 64.83 103.63 61.96 103.63 61.96 115.53 64.08 115.53 64.08 108.2 64.12 108.2 65.48 115.53 66.94 115.53 68.33 108.2 68.33 115.53 70.46 115.53 70.46 103.63 67.6 103.63 66.22 110.75"/><polygon class="cls-2" points="78.12 109.96 80.28 109.96 80.28 108.26 78.12 108.26 78.12 105.33 81.13 105.33 81.13 103.63 76 103.63 76 115.53 81.37 115.53 81.37 113.83 78.12 113.83 78.12 109.96"/><polygon class="cls-2" points="86.13 105.31 88.31 105.31 88.31 115.53 90.43 115.53 90.43 105.31 92.62 105.31 92.62 103.63 86.13 103.63 86.13 105.31"/><rect class="cls-2" x="97.77" y="103.63" width="2.13" height="11.9"/><polygon class="cls-2" points="109.7 110.75 109.67 110.75 108.31 103.63 105.44 103.63 105.44 115.53 107.56 115.53 107.56 108.2 107.6 108.2 108.96 115.53 110.42 115.53 111.81 108.2 111.81 115.53 113.94 115.53 113.94 103.63 111.08 103.63 109.7 110.75"/><polygon class="cls-2" points="121.6 109.96 123.76 109.96 123.76 108.26 121.6 108.26 121.6 105.33 124.61 105.33 124.61 103.63 119.48 103.63 119.48 115.53 124.85 115.53 124.85 113.83 121.6 113.83 121.6 109.96"/><path class="cls-2" d="M134.66,110l-2.13-2.43a2,2,0,0,1-.59-1.47.91.91,0,0,1,.95-.93c.51,0,1,.46,1,1.29V107H136v-.83c0-1.58-1.28-2.65-3.08-2.65s-3.11,1-3.11,2.65.48,2,1.6,3.33l1.77,1.82a2.37,2.37,0,0,1,.69,1.62,1,1,0,0,1-1,1.08c-.54,0-.95-.35-.95-1.08v-1.11H129.8V113c0,1.7,1.37,2.67,3.09,2.67s3.15-1,3.15-2.67A4,4,0,0,0,134.66,110Z"/><g class="cls-5"><path d="M32.2,5.48c-.22,1.42-.43,2.85-.65,4.27C27.41,9,23.27,8.07,19.16,7.08Z"/><path d="M146.57,7.08q-6.18,1.49-12.4,2.67c-.22-1.42-.43-2.85-.65-4.27Z"/></g></g></g></svg>