<svg xmlns="http://www.w3.org/2000/svg" viewBox="0 0 156.96 184.58"><defs><style>.cls-1{fill:#324b56;}.cls-2{fill:#fff;}.cls-3{fill:#ff7d97;}</style></defs><title>Romantic05</title><g id="Calque_2" data-name="Calque 2"><g id="Love_10" data-name="Love 10"><path class="cls-1" d="M155,91.26c-.07,0-6.94-3.3-8.86-10.87a24.87,24.87,0,0,1-.57-5.9,85.35,85.35,0,0,1,2.32-18,106.13,106.13,0,0,0,1.85-10.88c.06-.69.09-1.4.09-2.1,0-14.59-15.23-26.93-33.27-26.93H116C109.81,6.63,94.88,0,78.48,0S47.15,6.63,41,16.56h-.6c-18,0-33.27,12.34-33.27,26.93,0,.68,0,1.39.1,2.11A100.34,100.34,0,0,0,9.08,56.47a85.44,85.44,0,0,1,2.32,18,25,25,0,0,1-.57,5.9C8.91,88,2,91.23,2,91.26l-2,.91,1.84,1.09a22.78,22.78,0,0,1,9.2,13,22,22,0,0,1,.54,5.39c0,6.37-1.22,11.7-2.4,16.86A87.09,87.09,0,0,0,7.23,139a20.56,20.56,0,0,0-.11,2.23C7.12,155.74,22.36,168,40.4,168H41c6.14,9.93,21.07,16.56,37.48,16.56S109.81,178,116,168h.59c18,0,33.29-12.28,33.29-26.81,0-.72,0-1.47-.11-2.23a87.13,87.13,0,0,0-2-10.46c-1.18-5.16-2.4-10.49-2.4-16.86a21.88,21.88,0,0,1,.55-5.39,22.78,22.78,0,0,1,9.19-13L157,92.18Z"/><path class="cls-2" d="M47.89,124.69c-7.32.55-12,4.42-12,7.87,0,2.4,2.59,3.25,5.11,3.06l2.24-.17-2.44,6c-1,2.55-1.85,4.59-2.63,6.2a4.13,4.13,0,0,0-2.9-1.14,4.34,4.34,0,0,0-4.18,4.07A2.5,2.5,0,0,0,34,153.09a6.7,6.7,0,0,0,4.92-3,7.84,7.84,0,0,0,5.88,2.3c7.78-.58,13.9-10.14,13.9-17.45C58.73,127.9,53.39,124.28,47.89,124.69Zm-14,27.49A1.59,1.59,0,0,1,32,150.46,3.08,3.08,0,0,1,35,147.61a3.82,3.82,0,0,1,2.63,1.23C36.39,151,35.39,152.06,33.88,152.18Zm10.87-1c-2,.15-3.56-1.09-5-2.3A33.67,33.67,0,0,0,42,144.29l3.67-9,6.08-.46.7-1.75-6.08.45,2.79-6.83-2.44.18-2.79,6.83-2.28.18c-2.87.21-3.68-.7-3.68-2.13,0-2.71,3.79-5.9,9.6-6.33s8.48,3.62,8.48,9C56.06,141.46,51.26,150.72,44.75,151.21Z"/><path class="cls-2" d="M96.63,128.78a1.22,1.22,0,0,0,1.24,1.3,1.83,1.83,0,0,0,1.51-1.86,1.14,1.14,0,0,0-1.2-1.26A1.79,1.79,0,0,0,96.63,128.78Z"/><path class="cls-2" d="M120,145.06l4.41-10.82a3,3,0,0,0,.23-1,.58.58,0,0,0-.7-.65c-1,.08-1.55.93-3.79,4.12s-5.61,7.77-6.43,7.84c-.23,0-.38-.32-.38-.79,0-2.52,3.71-9.1,8.28-10.8v-.35c-3.41.59-6.84,3.68-9,6.87h0L109.21,144a2.55,2.55,0,0,1-1.43,1.16c-.23,0-.39,0-.39-.32a2.74,2.74,0,0,1,.2-.71l3.29-8.3a4.84,4.84,0,0,0,.27-1.3c0-.74-.5-1.08-1.47-1-1.12.08-2,1.08-3.6,3.6l-4,6.18c-.19.28-.35.41-.47.42a.17.17,0,0,1-.15-.18,1,1,0,0,1,.12-.44l2.63-6.39a5.37,5.37,0,0,0,.46-1.78.88.88,0,0,0-1-.89c-.78.06-1.47.85-2.13,1.71l-3.7,4.86h0l-3.44,4.52A2.61,2.61,0,0,1,93,146.24c-.23,0-.38-.05-.38-.32a2.8,2.8,0,0,1,.19-.71l3.17-7.91a5.37,5.37,0,0,0,.47-1.77.87.87,0,0,0-1.05-.89c-.77.06-1.47.84-2.12,1.71l-3.71,4.85h0L86,145.71a2.6,2.6,0,0,1-1.44,1.16c-.23,0-.39-.05-.39-.32a2.64,2.64,0,0,1,.2-.71l8.36-20.45-2.25.17-2.16,5.27a49.75,49.75,0,0,1-6.72,11h0l-3.48,4.52a2.61,2.61,0,0,1-1.44,1.15c-.23,0-.38-.05-.38-.32a2.69,2.69,0,0,1,.19-.71l2.94-7.19a6.19,6.19,0,0,0,.47-1.82c0-.42-.27-.83-1-.78-.35,0-.74.1-1.2.13a2.47,2.47,0,0,1-1.08-.07,3.73,3.73,0,0,0,1-2.13c0-.62-.54-.85-1-.81-1.24.09-1.9,1.76-1.9,2.35a1.29,1.29,0,0,0,1,1.31c-1,1.49-2.32,3.34-4.17,5.83L68.72,147a2.51,2.51,0,0,1-1.43,1.15c-.24,0-.39,0-.39-.32a3.29,3.29,0,0,1,.19-.71c.43-1,3.22-8.17,3.53-8.86a3,3,0,0,0,.23-1,.58.58,0,0,0-.7-.64c-1,.07-1.51.92-3.75,4.11s-5.62,7.78-6.43,7.84c-.23,0-.39-.32-.39-.79,0-2.51,3.72-9.1,8.29-10.8v-.35c-5.54,1-11.15,8.5-11.15,12.37,0,1.78.93,2.1,1.55,2.06.93-.07,1.82-.88,3-2.17,1.39-1.49,4.95-7,5.42-7.6a.58.58,0,0,1,.34-.3c.08,0,.12.07.12.19s-1.59,4.14-2.17,5.5a7.33,7.33,0,0,0-.85,2.74,1.09,1.09,0,0,0,1.32,1.06c1-.08,1.78-.56,3-2.16l4.18-5.47,0,0c1.85-2.47,3-4.08,3.75-5.25a5.91,5.91,0,0,0,1.09,0c.11,0,.23,0,.23.17a7,7,0,0,1-.54,1.67L74.53,146a8.07,8.07,0,0,0-.86,2.73A1.07,1.07,0,0,0,75,149.76c1-.08,1.71-.56,2.94-2.16L81.43,143l0,0c2.47-3.21,3.75-5.12,4.57-6.42l-3.57,8.78a8.27,8.27,0,0,0-.85,2.74,1.09,1.09,0,0,0,1.32,1.06c1-.07,1.62-.55,2.86-2.15L90,141.55h0l3.22-4.18c.11-.17.19-.25.35-.26a.2.2,0,0,1,.19.22.42.42,0,0,1,0,.19l-3,7.24a8.16,8.16,0,0,0-.85,2.73,1.08,1.08,0,0,0,1.31,1.06c1-.07,1.79-.56,3-2.16l4.18-5.46,0,0,3.2-4.17c.12-.16.19-.24.35-.26a.2.2,0,0,1,.19.22.43.43,0,0,1,0,.2l-3.13,7.63a8.6,8.6,0,0,0-.82,2.69c0,.54.28.79.86.75s1.39-.65,2.4-2.19l6.23-9.72a.88.88,0,0,1,.7-.52.33.33,0,0,1,.34.36,1,1,0,0,1,0,.28l-3.06,7.46a8,8,0,0,0-.85,2.74,1.08,1.08,0,0,0,1.31,1.06c1-.07,1.78-.56,3-2.16l2-2.61a6.9,6.9,0,0,0-.49,2.3c0,1.78.93,2.1,1.55,2,.93-.07,1.82-.87,3-2.16,1.39-1.5,5-7,5.42-7.6.12-.21.27-.3.35-.3s.11.07.11.18a1,1,0,0,1-.11.32l-3.68,9.22c-3.72,3.14-7.82,5.5-7.82,8.83a2,2,0,0,0,2.36,2.15c2.67-.2,4.34-2.73,6-6.72l1.82-4.51a49.3,49.3,0,0,0,6.82-7.4l-.51-.35A48.25,48.25,0,0,1,120,145.06Zm-5.35,7.76c-1,2.43-2,4-3.25,4.11-1,.08-1.35-.75-1.35-1.45,0-2.7,2.55-4.41,6.62-7.61Z"/><path class="cls-2" d="M41,51a41,41,0,0,0,5.07-5l-.79-.79c-1.08,1.23-2.12,2.36-3.1,3.34.1-.24.19-.44.29-.69,3.35-7.31,4.73-12.51,4.73-16s-1.23-5-2.81-5c-4.72,0-16.78,9.82-16.78,19.59,0,4.66,3.69,6.77,6.94,6.77A11.18,11.18,0,0,0,36.85,53c-3,5.2-5.9,7.66-8.32,7.66-.93,0-1.72-.64-1.72-2.11a8.21,8.21,0,0,1,.3-2L24.74,58.1c.05,2.16,1.63,3.63,4.19,3.63C34.34,61.73,38.43,56,41,51Zm-5.27,1c-2.66,0-5-2-5-5.65,0-8.44,10.43-18.55,13.24-18.55.84,0,1.18.74,1.18,2,0,3.19-2.26,9.82-5.12,16.69-.83,2-1.67,3.68-2.46,5.2A5.78,5.78,0,0,1,35.77,52Z"/><path class="cls-2" d="M58.86,61.63c2.46,0,4.58-1.37,6.3-3.44,1.92,1.72,4.23,3.54,7.38,3.54,2.12,0,5.71-.59,7.58-6.28L79,55.15c-1,3.58-3.2,4.12-6.05,4.12s-4.73-1.37-6.55-2.79c2.61-3.93,4.43-9.48,5.76-13.95,1.87-6.38,4.23-14.72,9-14.72,2.8,0,3.79,1.52,3.79,2.94,0,2-1.87,2.85-3.54,2.9l.68,2.8c2.37-.89,4.29-2.85,4.29-5.25s-1.87-4.28-5.07-4.28c-3.69,0-8.22,2-11.92,14.83-1.32,4.56-2.8,9.67-4.77,13.4a7,7,0,0,0-4.18-1.72,5,5,0,0,0-5.32,4.76A3.47,3.47,0,0,0,58.86,61.63ZM60,54.76c1.23,0,2.41.88,3.64,2.06-1.42,2.21-3.1,3.63-5,3.63A2.19,2.19,0,0,1,56.3,58.1,3.57,3.57,0,0,1,60,54.76Z"/><path class="cls-2" d="M131.57,52.11C126.4,58.54,123.3,60.3,121,60.3c-.94,0-1.73-.49-1.73-2.2a9.59,9.59,0,0,1,.69-3.24c4.09,0,10.24-3.83,10.24-8.1,0-1.57-.74-2.7-2.41-2.7-2.65,0-7.63,3.39-10,8.1l-.06,0c-2.42,3-3.79,3.43-5.52,3.43a2.66,2.66,0,0,1-.64-.09c2.56-3,4.58-6.44,4.58-9.09,0-1.62-.74-2.4-2-2.4-2.61,0-5.56,3.93-5.56,7.75a5.46,5.46,0,0,0,.79,3.24c-2.22,2.9-4.58,5.26-5.66,5.26a.75.75,0,0,1-.74-.84,8.1,8.1,0,0,1,.79-2.7l3.69-9.18a6.52,6.52,0,0,0,.59-2.21,1.21,1.21,0,0,0-1.33-1.22c-1,0-1.87.93-2.71,2l-5,6.11,0,0c-1.77,2.21-2.9,3-4.09,3.29a13.66,13.66,0,0,0,2.07-6.58c0-3.09-1.72-4-2.9-4-2.17,0-4.88,3.24-4.88,6.68a4.61,4.61,0,0,0,2.17,4.32c-1.77,2.55-3.74,4.56-5.17,4.56-1.08,0-1.62-1.13-1.62-2.3,0-3.78,2.16-9.53,7.08-13.8L91.55,44c-5.66,2.11-9.5,7.26-9.5,12.47a4.55,4.55,0,0,0,4.67,4.91c3,0,5.76-2.21,7.68-5.06,1.55-.14,3-1,4.83-3.14h0l.44-.54h0L104,47.3c.15-.2.25-.3.45-.3a.27.27,0,0,1,.24.3.51.51,0,0,1,0,.24l-2.85,6.87a12.79,12.79,0,0,0-1.18,4.47c0,1.67.83,2.55,2.16,2.55,2.17,0,5.47-2.3,8.22-5.25a5.05,5.05,0,0,0,1.28.15,6.24,6.24,0,0,0,4.82-2.25,10.66,10.66,0,0,0-.53,3.23,3.79,3.79,0,0,0,4.08,4c1.58,0,4.88-.25,11.57-8.74ZM127,45c.45,0,.79.24.79,1.08,0,2.89-3,7.31-7.63,8.05C121.87,49.9,125.32,45,127,45ZM91.89,55.15a4,4,0,0,1-1.72-3.73c0-2.9,2.41-5.6,3.59-5.6A1.11,1.11,0,0,1,95,47.05C95,49.11,93.62,52.35,91.89,55.15Zm18.12-1a5.15,5.15,0,0,1-.44-2.45c0-3.69,2.8-6.68,4-6.68.5,0,.54.49.54.88C114.09,47.69,112.22,51.08,110,54.12Z"/><path class="cls-3" d="M155,91.26c-.07,0-6.94-3.3-8.86-10.87a24.87,24.87,0,0,1-.57-5.9,85.35,85.35,0,0,1,2.32-18,106.13,106.13,0,0,0,1.85-10.88c.06-.69.09-1.4.09-2.1,0-14.59-15.23-26.93-33.27-26.93H116C109.81,6.63,94.88,0,78.48,0S47.15,6.63,41,16.56h-.6c-18,0-33.27,12.34-33.27,26.93,0,.68,0,1.39.1,2.11A100.34,100.34,0,0,0,9.08,56.47a85.44,85.44,0,0,1,2.32,18,25,25,0,0,1-.57,5.9C8.91,88,2,91.23,2,91.26l-2,.91,1.84,1.09a22.78,22.78,0,0,1,9.2,13,22,22,0,0,1,.54,5.39c0,6.37-1.22,11.7-2.4,16.86A87.09,87.09,0,0,0,7.23,139a20.56,20.56,0,0,0-.11,2.23C7.12,155.74,22.36,168,40.4,168H41c6.14,9.93,21.07,16.56,37.48,16.56S109.81,178,116,168h.59c18,0,33.29-12.28,33.29-26.81,0-.72,0-1.47-.11-2.23a87.13,87.13,0,0,0-2-10.46c-1.18-5.16-2.4-10.49-2.4-16.86a21.88,21.88,0,0,1,.55-5.39,22.78,22.78,0,0,1,9.19-13L157,92.18Zm-11.67,14.49a23.51,23.51,0,0,0-.62,5.91c0,6.6,1.25,12,2.46,17.32a87.81,87.81,0,0,1,1.91,10.2c.07.7.1,1.38.1,2,0,13.27-14,24.48-30.62,24.48h-2.23l-.37.65c-5.44,9.52-19.7,15.91-35.47,15.91s-30-6.39-35.48-15.91l-.37-.65H40.4c-16.59,0-30.61-11.21-30.61-24.48a19.24,19.24,0,0,1,.1-2A83.59,83.59,0,0,1,11.8,129c1.2-5.27,2.45-10.72,2.45-17.32a23.56,23.56,0,0,0-.61-5.91A25.32,25.32,0,0,0,4.86,92.39a19.63,19.63,0,0,0,8.58-11.5,27,27,0,0,0,.63-6.4A86.42,86.42,0,0,0,11.7,56.06,101.47,101.47,0,0,1,9.89,45.4c-.06-.65-.09-1.3-.09-1.91,0-13.33,14-24.6,30.6-24.6h2.23l.37-.64C48.45,8.72,62.71,2.33,78.48,2.33s30,6.39,35.47,15.92l.37.64h2.23c16.59,0,30.61,11.27,30.61,24.6,0,.63,0,1.28-.09,1.91a99.42,99.42,0,0,1-1.82,10.66,87,87,0,0,0-2.36,18.43,26.32,26.32,0,0,0,.63,6.4,19.59,19.59,0,0,0,8.58,11.5A25.26,25.26,0,0,0,143.32,105.75Z"/><rect class="cls-3" x="25.09" y="72.41" width="106.78" height="1.64"/><rect class="cls-3" x="25.09" y="110.53" width="106.78" height="1.64"/><path class="cls-3" d="M44,85.11l2.31,4.62,2.57-4.62a5.41,5.41,0,0,0,.73-1.71c0-.31-.29-.63-.86-.94a2.15,2.15,0,0,1-1.11-2.06c0-2,1-3,3.08-3a14.26,14.26,0,0,1,1.88.12,24.68,24.68,0,0,0,2.83.3,17.23,17.23,0,0,0,2.24-.21,17.33,17.33,0,0,1,2.21-.21,2.94,2.94,0,0,1,2.2.85,3.19,3.19,0,0,1,.83,2.31,3.15,3.15,0,0,1-.62,2,1.91,1.91,0,0,1-1.57.79,5.5,5.5,0,0,1-1.16-.17,4.51,4.51,0,0,0-.85-.13,1.23,1.23,0,0,0-.91.3,14.46,14.46,0,0,0-1.24,1.8l-5.67,9a7,7,0,0,0-1,3.34v1.19c0,1.32.4,2,1.37,2a8.32,8.32,0,0,0,1.33-.15,8.2,8.2,0,0,1,1.28-.15,2.06,2.06,0,0,1,1.69.82,3.21,3.21,0,0,1,.67,2.09,2.94,2.94,0,0,1-.86,2.23,3.22,3.22,0,0,1-2.31.81c-.72,0-1.8-.07-3.25-.21s-2.56-.22-3.3-.22-2,.07-3.55.22-2.75.21-3.55.21a3.08,3.08,0,0,1-2.27-.86,3,3,0,0,1-.85-2.22c0-1.91.81-2.87,2.43-2.87a8.62,8.62,0,0,1,1.31.15,8.52,8.52,0,0,0,1.3.15c.83,0,1.25-.65,1.25-2V97.48a6.15,6.15,0,0,0-1.12-3.13L35.07,84A1.67,1.67,0,0,0,33.62,83a4.52,4.52,0,0,0-.82.13,5,5,0,0,1-1.15.17c-1.37,0-2.06-.87-2.06-2.61q0-3.33,3-3.33a22.12,22.12,0,0,1,2.44.21,22.15,22.15,0,0,0,2.56.21,22,22,0,0,0,3-.25,13.36,13.36,0,0,1,1.93-.17c1.93,0,2.91,1.07,2.91,3.2a1.88,1.88,0,0,1-1,1.84l-.85.48a.42.42,0,0,0-.26.42v.13a1.31,1.31,0,0,0,.17.69A7.17,7.17,0,0,0,44,85.11Z"/><path class="cls-3" d="M77.09,106.85q-6.51,0-10.06-3.94T63.48,91.74q0-7,3.53-11t9.74-4q6.5,0,10.14,3.89t3.63,10.87q0,7.23-3.53,11.27T77.09,106.85Zm0-24.09q-5.56,0-5.57,9.07a14.79,14.79,0,0,0,1.07,6.42A4.61,4.61,0,0,0,77,100.86q5.52,0,5.52-8.82,0-4.87-1.3-7.08A4.48,4.48,0,0,0,77.05,82.76Z"/><path class="cls-3" d="M121.84,85.57V92.5c0,3.18,0,5.08-.12,5.71a8.36,8.36,0,0,1-2.1,5.06q-3.37,3.57-10.21,3.58c-4.69,0-8-1.24-10-3.71-1.2-1.5-1.79-3.73-1.79-6.68,0-.25,0-1.83.12-4.72.06-1.93.09-3.48.09-4.64V85.44c0-1.53-.41-2.3-1.24-2.3a7.6,7.6,0,0,0-.94.09,9.55,9.55,0,0,1-1,.08A2.07,2.07,0,0,1,93,82.52a3.35,3.35,0,0,1,.26-4.3,3.4,3.4,0,0,1,2.42-.85,27.91,27.91,0,0,1,2.82.21,28.06,28.06,0,0,0,2.83.21,20.3,20.3,0,0,0,2.41-.21,20.44,20.44,0,0,1,2.42-.21,2.58,2.58,0,0,1,2,.86,3.32,3.32,0,0,1,.78,2.32c0,1.73-.59,2.59-1.76,2.59h-1c-.49,0-.77.3-.86.9V95.28a6.58,6.58,0,0,0,1,4.15,4.18,4.18,0,0,0,3.4,1.21,4.39,4.39,0,0,0,3.48-1.25,6.22,6.22,0,0,0,1.1-4.11V85.53a6.88,6.88,0,0,0-.17-2,.76.76,0,0,0-.77-.41h-1c-1.17,0-1.75-.87-1.75-2.63a3.21,3.21,0,0,1,.79-2.28,2.67,2.67,0,0,1,2.08-.86,21.47,21.47,0,0,1,2.46.21,21.13,21.13,0,0,0,2.46.21,28.11,28.11,0,0,0,2.82-.21,28.11,28.11,0,0,1,2.82-.21,3.22,3.22,0,0,1,2.34.85,3.09,3.09,0,0,1,.87,2.31,3,3,0,0,1-.66,2,2.15,2.15,0,0,1-1.73.77,9,9,0,0,1-1-.08,7,7,0,0,0-.92-.09C122.26,83.14,121.84,84,121.84,85.57Z"/></g></g></svg>