<svg xmlns="http://www.w3.org/2000/svg" viewBox="0 0 172.05 172.05"><defs><style>.cls-1{fill:#324b56;}.cls-2{fill:#ff7d97;}.cls-3{fill:#fff;}</style></defs><title>Romantic07</title><g id="Calque_2" data-name="Calque 2"><g id="Love_10" data-name="Love 10"><circle class="cls-1" cx="86.03" cy="86.03" r="86.03"/><path class="cls-2" d="M106.51,60.88c-.68-.06-1.36-.09-2-.09-12.44,0-18.08,10.54-18.69,11.77a.55.55,0,0,1-.49.3h0a.54.54,0,0,1-.48-.32c-.06-.12-5.61-12-18.79-12-.58,0-1.16,0-1.75.07-7.82.59-14.45,6.87-15.76,14.95-2.36,14.52,11.3,29.54,36.55,40.18,25.36-10.31,39.19-25.14,37-39.68C120.88,68,114.33,61.57,106.51,60.88Z"/><path class="cls-2" d="M18.7,82.9c-1.49-3.49-8.82-3.1-7.68,2.85.76,4,6.49,7.71,7.68,8.12,1.19-.41,6.92-4.15,7.68-8.12C27.53,79.8,20.2,79.41,18.7,82.9Z"/><path class="cls-2" d="M150.53,82.9c-1.5-3.49-8.83-3.1-7.68,2.85.76,4,6.49,7.71,7.68,8.12,1.18-.41,6.91-4.15,7.68-8.12C159.35,79.8,152,79.41,150.53,82.9Z"/><path class="cls-3" d="M86,2A84,84,0,1,1,2,86,84.12,84.12,0,0,1,86,2m0-2a86,86,0,1,0,86,86A86,86,0,0,0,86,0Z"/><path class="cls-3" d="M85.31,72.31C85.18,72,79.58,60,66,60h0v1.09c12.85,0,18.25,11.57,18.3,11.68a1.08,1.08,0,0,0,1,.63h0a1.1,1.1,0,0,0,1-.61c.59-1.17,6.09-11.45,18.19-11.45.65,0,1.31,0,2,.09,7.57.67,13.92,6.85,15.09,14.71,2.13,14.24-11.5,28.8-36.47,39-24.88-10.53-38.34-25.28-36-39.51,1.27-7.82,7.69-13.92,15.26-14.49.57,0,1.15-.06,1.7-.06V60c-.58,0-1.17,0-1.78.07-18.62,1.39-32.17,34,20.81,56.25h0c53.24-21.55,40.09-54.34,21.49-56q-1.07-.09-2.07-.09C91.14,60.24,85.46,72,85.31,72.31Z"/><path class="cls-3" d="M39.28,23.5A.82.82,0,1,0,38.8,22a.81.81,0,0,0-.18,1.14A.82.82,0,0,0,39.28,23.5Z"/><path class="cls-3" d="M69,10.46l.15,0a.81.81,0,0,0,.64-1,.82.82,0,0,0-1.6.34A.83.83,0,0,0,69,10.46Z"/><path class="cls-3" d="M9.91,109.27a.82.82,0,0,0-1-.55.81.81,0,0,0-.55,1,.79.79,0,0,0,.78.59.73.73,0,0,0,.22,0A.82.82,0,0,0,9.91,109.27Z"/><path class="cls-3" d="M36,26a.8.8,0,0,0,.5-.17.83.83,0,0,0,.14-1.15.84.84,0,0,0-1.16-.13.8.8,0,0,0-.13,1.14A.83.83,0,0,0,36,26Z"/><path class="cls-3" d="M29.89,31.35a.83.83,0,0,0,.58-.23h0a.81.81,0,0,0,0-1.16.82.82,0,0,0-1.16,0,.81.81,0,0,0,0,1.15A.75.75,0,0,0,29.89,31.35Z"/><path class="cls-3" d="M32.89,28.57a.77.77,0,0,0,.54-.2.82.82,0,1,0-1.08-1.23.81.81,0,0,0-.07,1.16A.8.8,0,0,0,32.89,28.57Z"/><path class="cls-3" d="M61.05,12.55a1.18,1.18,0,0,0,.25,0,.82.82,0,0,0,.53-1,.81.81,0,1,0-1.55.5A.8.8,0,0,0,61.05,12.55Z"/><path class="cls-3" d="M57.2,13.9a.75.75,0,0,0,.29-.06.81.81,0,1,0-.58-1.52.82.82,0,0,0,.29,1.58Z"/><path class="cls-3" d="M27.05,34.28a.78.78,0,0,0,.59-.27.8.8,0,0,0,0-1.15.79.79,0,0,0-1.14,0h0a.82.82,0,0,0,.59,1.38Z"/><path class="cls-3" d="M65,11.4a.71.71,0,0,0,.21,0,.81.81,0,0,0,.59-1,.82.82,0,0,0-1.58.42A.81.81,0,0,0,65,11.4Z"/><path class="cls-3" d="M53.43,15.44a.72.72,0,0,0,.33-.07.82.82,0,0,0,.41-1.08.81.81,0,0,0-1.49.66A.82.82,0,0,0,53.43,15.44Z"/><path class="cls-3" d="M6.26,94.28A.82.82,0,0,0,7,93.41H7a.82.82,0,0,0-.88-.75.82.82,0,0,0,.07,1.64Z"/><path class="cls-3" d="M42.66,21.21a.77.77,0,0,0,.43-.13h0A.81.81,0,0,0,43.34,20a.8.8,0,0,0-1.12-.25.81.81,0,0,0,.44,1.5Z"/><path class="cls-3" d="M49.75,17.18a.84.84,0,0,0,.37-.09.83.83,0,0,0,.35-1.1.81.81,0,0,0-1.09-.36.83.83,0,0,0-.37,1.1A.85.85,0,0,0,49.75,17.18Z"/><path class="cls-3" d="M46.14,19.11a.84.84,0,0,0,.41-.11.81.81,0,0,0-.8-1.42.81.81,0,0,0-.32,1.11A.84.84,0,0,0,46.14,19.11Z"/><path class="cls-3" d="M6.71,98.34a.83.83,0,0,0,.71-.92h0a.82.82,0,0,0-1.62.21.82.82,0,0,0,.82.71Z"/><path class="cls-3" d="M7.07,73.94h.14a.79.79,0,1,0-.14,0Z"/><path class="cls-3" d="M7.85,69.93l.2,0a.81.81,0,0,0,.79-.63h0A.81.81,0,1,0,7.26,69h0A.81.81,0,0,0,7.85,69.93Z"/><path class="cls-3" d="M8.85,66a.62.62,0,0,0,.23,0,.84.84,0,0,0,.79-.59.82.82,0,1,0-1,.55Z"/><path class="cls-3" d="M6.49,78h.1a.84.84,0,0,0,.82-.72.83.83,0,0,0-.71-.91A.82.82,0,0,0,6.49,78Z"/><path class="cls-3" d="M6,90.21H6a.82.82,0,1,0-.84-.8A.82.82,0,0,0,6,90.21Z"/><path class="cls-3" d="M6.12,82h.06A.83.83,0,0,0,7,81.29a.82.82,0,1,0-.88.75Z"/><path class="cls-3" d="M6,86.12H6a.82.82,0,1,0,0-1.63.82.82,0,0,0-.84.8A.81.81,0,0,0,6,86.12Z"/><path class="cls-3" d="M21.82,40.54a.82.82,0,0,0,.65-.32.81.81,0,1,0-1.14.16A.78.78,0,0,0,21.82,40.54Z"/><path class="cls-3" d="M8.05,101.41a.82.82,0,0,0-1-.65.81.81,0,0,0-.66.95.84.84,0,0,0,.81.67l.14,0A.82.82,0,0,0,8.05,101.41Z"/><path class="cls-3" d="M8.88,105.37a.83.83,0,0,0-1-.61.8.8,0,0,0-.6,1,.81.81,0,0,0,.79.63.38.38,0,0,0,.18,0A.81.81,0,0,0,8.88,105.37Z"/><path class="cls-3" d="M10.05,62.06a.92.92,0,0,0,.28,0A.82.82,0,1,0,9.55,61,.83.83,0,0,0,10.05,62.06Z"/><path class="cls-3" d="M24.35,37.34a.85.85,0,0,0,.64-.29.82.82,0,0,0-1.27-1,.81.81,0,0,0,.12,1.15A.77.77,0,0,0,24.35,37.34Z"/><path class="cls-3" d="M19,43.73a.75.75,0,0,0,.45.14.81.81,0,1,0-.67-1.27A.79.79,0,0,0,19,43.73Z"/><path class="cls-3" d="M11.46,58.22a.8.8,0,0,0,.3.06.83.83,0,0,0,.77-.51A.82.82,0,0,0,11,57.15.83.83,0,0,0,11.46,58.22Z"/><path class="cls-3" d="M13.05,54.46a.92.92,0,0,0,.36.07.79.79,0,0,0,.73-.47.81.81,0,1,0-1.47-.69A.83.83,0,0,0,13.05,54.46Z"/><path class="cls-3" d="M134.41,25.84a.86.86,0,0,0,.64-.31.82.82,0,0,0-1.29-1,.81.81,0,0,0,.13,1.14A.84.84,0,0,0,134.41,25.84Z"/><path class="cls-3" d="M151,43.71a.73.73,0,0,0,.45-.14.79.79,0,0,0,.22-1.13.81.81,0,1,0-1.34.91A.81.81,0,0,0,151,43.71Z"/><path class="cls-3" d="M153.21,47.15a.79.79,0,0,0,.42-.12.82.82,0,1,0-1.12-.28A.81.81,0,0,0,153.21,47.15Z"/><path class="cls-3" d="M148.63,40.4a.84.84,0,0,0,.5-.17.8.8,0,0,0,.16-1.14.83.83,0,0,0-1.15-.16.81.81,0,0,0-.15,1.14A.8.8,0,0,0,148.63,40.4Z"/><path class="cls-3" d="M158.71,58.06A.91.91,0,0,0,159,58a.83.83,0,0,0,.43-1.07.79.79,0,0,0-1.05-.44.81.81,0,0,0,.3,1.57Z"/><path class="cls-3" d="M137.55,28.45a.84.84,0,0,0,.61-.27.82.82,0,0,0-.08-1.16.83.83,0,0,0-1.16.08.82.82,0,0,0,.09,1.15A.76.76,0,0,0,137.55,28.45Z"/><path class="cls-3" d="M146.09,37.2a.8.8,0,0,0,.53-.19.82.82,0,0,0,.1-1.15.82.82,0,0,0-1.26,1A.86.86,0,0,0,146.09,37.2Z"/><path class="cls-3" d="M140.55,31.22a.84.84,0,0,0,.58-.24.81.81,0,0,0,0-1.16A.81.81,0,0,0,140,31,.81.81,0,0,0,140.55,31.22Z"/><path class="cls-3" d="M143.39,34.14a.83.83,0,0,0,.57-.22.82.82,0,1,0-1.16,0A.8.8,0,0,0,143.39,34.14Z"/><path class="cls-3" d="M159.39,61.32a.83.83,0,0,0,.78.55.8.8,0,0,0,.26,0,.82.82,0,1,0-1-.5Z"/><path class="cls-3" d="M164.57,84.23a.82.82,0,1,0,0,1.63h0a.84.84,0,0,0,.81-.84A.82.82,0,0,0,164.57,84.23Z"/><path class="cls-3" d="M163.55,81a.83.83,0,0,0,.83.75h.05a.82.82,0,0,0,.75-.88.82.82,0,1,0-1.63.13Z"/><path class="cls-3" d="M164.62,88.31a.82.82,0,1,0,0,1.63h0a.82.82,0,0,0,0-1.63Z"/><path class="cls-3" d="M73,9.72h.13a.81.81,0,0,0-.25-1.61A.81.81,0,0,0,73,9.72Z"/><path class="cls-3" d="M161.67,69.07h0a.82.82,0,0,0,.79.63.69.69,0,0,0,.2,0,.81.81,0,0,0,.6-1,.82.82,0,0,0-1-.61A.83.83,0,0,0,161.67,69.07Z"/><path class="cls-3" d="M160.63,65.17h0a.83.83,0,0,0,.79.59.78.78,0,0,0,.22,0,.82.82,0,1,0-.46-1.57A.84.84,0,0,0,160.63,65.17Z"/><path class="cls-3" d="M162.51,73a.81.81,0,0,0,.79.67h.16a.82.82,0,0,0,.64-1,.81.81,0,1,0-1.59.29Z"/><path class="cls-3" d="M163.13,77a.82.82,0,0,0,.82.71h.1a.82.82,0,1,0-.21-1.62A.81.81,0,0,0,163.13,77Z"/><path class="cls-3" d="M93.22,9.16h.08a.84.84,0,0,0,.83-.74.82.82,0,0,0-1.63-.16A.8.8,0,0,0,93.22,9.16Z"/><path class="cls-3" d="M97.24,9.67h.11a.81.81,0,0,0,.14-1.62.81.81,0,1,0-.25,1.61Z"/><path class="cls-3" d="M101.21,10.39h.17a.81.81,0,1,0-.8-1A.82.82,0,0,0,101.21,10.39Z"/><path class="cls-3" d="M89.2,8.86h0a.82.82,0,0,0,0-1.63.82.82,0,0,0-.86.78A.82.82,0,0,0,89.2,8.86Z"/><path class="cls-3" d="M77,9.19h.08a.82.82,0,0,0-.17-1.63A.82.82,0,0,0,77,9.19Z"/><path class="cls-3" d="M85.16,8.76a.82.82,0,0,0,0-1.63.82.82,0,0,0-.82.82A.82.82,0,0,0,85.16,8.76Z"/><path class="cls-3" d="M105.14,11.31l.21,0a.81.81,0,0,0,.79-.61.8.8,0,0,0-.59-1,.82.82,0,0,0-1,.58A.84.84,0,0,0,105.14,11.31Z"/><path class="cls-3" d="M81.08,8.87h0A.82.82,0,0,0,81,7.24a.83.83,0,0,0-.78.86A.82.82,0,0,0,81.08,8.87Z"/><path class="cls-3" d="M120.26,17a.83.83,0,0,0,1.11-.36.82.82,0,0,0-.37-1.1.82.82,0,0,0-.74,1.46Z"/><path class="cls-3" d="M123.84,18.9a.8.8,0,0,0,.41.1.81.81,0,0,0,.39-1.53.82.82,0,0,0-.8,1.43Z"/><path class="cls-3" d="M127.3,21a.84.84,0,0,0,.45.13.82.82,0,1,0-.7-1.26A.83.83,0,0,0,127.3,21Z"/><path class="cls-3" d="M131.13,23.39a.82.82,0,0,0,.67-.35.8.8,0,0,0-.2-1.13.81.81,0,0,0-1.14.19.83.83,0,0,0,.21,1.14A.75.75,0,0,0,131.13,23.39Z"/><path class="cls-3" d="M11.13,113.12a.81.81,0,0,0-1-.5.82.82,0,0,0,.28,1.59.75.75,0,0,0,.26,0A.79.79,0,0,0,11.13,113.12Z"/><path class="cls-3" d="M112.85,13.76a1,1,0,0,0,.28.05.84.84,0,0,0,.78-.53.82.82,0,0,0-.49-1,.82.82,0,0,0-.57,1.53Z"/><path class="cls-3" d="M109,12.43a.69.69,0,0,0,.25,0,.8.8,0,0,0,.77-.57.81.81,0,1,0-1.55-.49A.8.8,0,0,0,109,12.43Z"/><path class="cls-3" d="M116.6,15.28a.77.77,0,0,0,.32.07.78.78,0,0,0,.75-.49.81.81,0,1,0-1.07.42Z"/><path class="cls-3" d="M155.24,50.69a.75.75,0,0,0,.38-.1.82.82,0,0,0,.34-1.1.82.82,0,1,0-1.45.77A.84.84,0,0,0,155.24,50.69Z"/><path class="cls-3" d="M143,140.45a.81.81,0,0,0,0,1.16.84.84,0,0,0,.55.21.8.8,0,0,0,.61-.26.81.81,0,0,0-.05-1.15A.8.8,0,0,0,143,140.45Z"/><path class="cls-3" d="M65.3,163.22a.81.81,0,0,0-1,.58.82.82,0,0,0,.58,1l.21,0a.82.82,0,0,0,.21-1.61Z"/><path class="cls-3" d="M145.67,137.41a.8.8,0,0,0,.11,1.15.78.78,0,0,0,.52.19.8.8,0,0,0,.62-.29.81.81,0,0,0-.1-1.15A.82.82,0,0,0,145.67,137.41Z"/><path class="cls-3" d="M140.18,143.34a.82.82,0,0,0,.58,1.41.89.89,0,0,0,.58-.23.8.8,0,0,0,0-1.15A.83.83,0,0,0,140.18,143.34Z"/><path class="cls-3" d="M73.21,164.87a.81.81,0,1,0-.25,1.61h.13a.81.81,0,0,0,.12-1.62Z"/><path class="cls-3" d="M137.24,146.09v0a.81.81,0,0,0,.54,1.42.82.82,0,1,0-.54-1.44Z"/><path class="cls-3" d="M134.13,148.71a.82.82,0,0,0,.51,1.45.88.88,0,0,0,.52-.18.82.82,0,1,0-1-1.27Z"/><path class="cls-3" d="M69.24,164.15a.82.82,0,1,0-.33,1.6h.16a.81.81,0,0,0,.17-1.61Z"/><path class="cls-3" d="M148.17,134.24a.82.82,0,0,0,.17,1.14.83.83,0,0,0,.49.17.81.81,0,0,0,.64-.33.8.8,0,0,0-.15-1.14A.82.82,0,0,0,148.17,134.24Z"/><path class="cls-3" d="M57.6,160.76h0a.81.81,0,1,0-.56,1.53.86.86,0,0,0,.27.05.84.84,0,0,0,.78-.53A.81.81,0,0,0,57.6,160.76Z"/><path class="cls-3" d="M109.38,162a.83.83,0,0,0-.53,1,.86.86,0,0,0,.78.57,1.09,1.09,0,0,0,.25,0,.82.82,0,1,0-.5-1.56Z"/><path class="cls-3" d="M153.8,127.25a.8.8,0,0,0-1.12.28.83.83,0,0,0,.28,1.12.8.8,0,0,0,.42.11.85.85,0,0,0,.71-.39A.83.83,0,0,0,153.8,127.25Z"/><path class="cls-3" d="M61.42,162.09a.82.82,0,0,0-.5,1.56,1.1,1.1,0,0,0,.25,0,.81.81,0,0,0,.25-1.58Z"/><path class="cls-3" d="M150.51,130.94a.82.82,0,0,0,.23,1.13.76.76,0,0,0,.44.14.79.79,0,0,0,.69-.37.8.8,0,0,0-.23-1.12A.81.81,0,0,0,150.51,130.94Z"/><path class="cls-3" d="M127.58,153.41a.81.81,0,0,0,.43,1.5.79.79,0,0,0,.45-.13.82.82,0,0,0,.25-1.13A.81.81,0,0,0,127.58,153.41Z"/><path class="cls-3" d="M97.6,164.83a.82.82,0,0,0,.14,1.62h.13a.82.82,0,0,0,.68-.93A.83.83,0,0,0,97.6,164.83Z"/><path class="cls-3" d="M101.59,164.09a.8.8,0,0,0-.63,1,.81.81,0,0,0,.8.65.47.47,0,0,0,.16,0,.82.82,0,0,0,.63-1A.81.81,0,0,0,101.59,164.09Z"/><path class="cls-3" d="M130.92,151.13a.82.82,0,0,0,.47,1.49.87.87,0,0,0,.48-.15.82.82,0,0,0-1-1.34Z"/><path class="cls-3" d="M105.51,163.15a.84.84,0,0,0-.58,1,.81.81,0,0,0,.79.6l.21,0h0a.81.81,0,0,0,.58-1A.83.83,0,0,0,105.51,163.15Z"/><path class="cls-3" d="M124.13,155.5a.8.8,0,0,0-.3,1.11.79.79,0,0,0,.7.42.83.83,0,0,0,.4-.11.81.81,0,1,0-.8-1.42Z"/><path class="cls-3" d="M120.58,157.41a.82.82,0,0,0,.35,1.55.92.92,0,0,0,.37-.09.81.81,0,1,0-.72-1.46Z"/><path class="cls-3" d="M81.25,165.69a.85.85,0,0,0-.87.78.82.82,0,0,0,.79.85h0a.8.8,0,0,0,.8-.78A.8.8,0,0,0,81.25,165.69Z"/><path class="cls-3" d="M113.2,160.67a.83.83,0,0,0-.48,1.06.82.82,0,0,0,.77.52,1,1,0,0,0,.29-.05.85.85,0,0,0,.48-1.07A.83.83,0,0,0,113.2,160.67Z"/><path class="cls-3" d="M77.21,165.38a.82.82,0,0,0-.16,1.63h.08a.82.82,0,0,0,.08-1.63Z"/><path class="cls-3" d="M116.92,159.13a.83.83,0,0,0-.41,1.09.82.82,0,0,0,.75.48,1,1,0,0,0,.33-.07.82.82,0,1,0-.67-1.5Z"/><path class="cls-3" d="M89.58,165.67a.84.84,0,0,0-.78.87.82.82,0,0,0,.83.77h0a.8.8,0,0,0,.76-.86A.82.82,0,0,0,89.58,165.67Z"/><path class="cls-3" d="M85.54,165.8h-.25a.81.81,0,1,0,0,1.62h.26a.81.81,0,0,0,0-1.62Z"/><path class="cls-3" d="M93.6,165.36a.82.82,0,0,0,.08,1.63h.1a.84.84,0,0,0,.73-.89A.82.82,0,0,0,93.6,165.36Z"/><path class="cls-3" d="M11.51,116.44A.82.82,0,0,0,11.8,118a.87.87,0,0,0,.32-.06.83.83,0,0,0,.45-1.08A.82.82,0,0,0,11.51,116.44Z"/><path class="cls-3" d="M164.09,96.45a.82.82,0,0,0-.21,1.62H164a.81.81,0,0,0,.8-.71A.82.82,0,0,0,164.09,96.45Z"/><path class="cls-3" d="M43.16,153.51a.82.82,0,0,0-1.13.25.8.8,0,0,0,.25,1.12.73.73,0,0,0,.43.14.82.82,0,0,0,.45-1.51Z"/><path class="cls-3" d="M163.51,100.5a.81.81,0,0,0-.27,1.59l.14,0a.83.83,0,0,0,.8-.68A.81.81,0,0,0,163.51,100.5Z"/><path class="cls-3" d="M38.67,151.44a.82.82,0,0,0,.18,1.14,1,1,0,0,0,.48.15.81.81,0,1,0-.66-1.29Z"/><path class="cls-3" d="M35.42,149a.82.82,0,0,0,.13,1.14.8.8,0,0,0,.52.19.84.84,0,0,0,.64-.31.82.82,0,0,0-1.29-1Z"/><path class="cls-3" d="M50.18,157.51a.81.81,0,1,0-.72,1.46.8.8,0,0,0,.37.08.81.81,0,0,0,.35-1.54Z"/><path class="cls-3" d="M53.85,159.23a.81.81,0,0,0-.65,1.49.75.75,0,0,0,.33.07.84.84,0,0,0,.75-.49A.82.82,0,0,0,53.85,159.23Z"/><path class="cls-3" d="M162.75,104.5a.82.82,0,0,0-1,.61.81.81,0,0,0,.61,1,.57.57,0,0,0,.18,0,.81.81,0,0,0,.79-.64A.8.8,0,0,0,162.75,104.5Z"/><path class="cls-3" d="M161.75,108.46a.83.83,0,0,0-1,.56.82.82,0,0,0,.56,1,.93.93,0,0,0,.23,0,.8.8,0,0,0,.77-.59A.82.82,0,0,0,161.75,108.46Z"/><path class="cls-3" d="M46.63,155.59a.84.84,0,0,0-1.12.32.81.81,0,0,0,.31,1.11.82.82,0,0,0,.39.11.78.78,0,0,0,.71-.42A.83.83,0,0,0,46.63,155.59Z"/><path class="cls-3" d="M32.32,146.3a.8.8,0,0,0,.07,1.15.82.82,0,0,0,.54.21.85.85,0,0,0,.62-.28.83.83,0,0,0-.08-1.15A.8.8,0,0,0,32.32,146.3Z"/><path class="cls-3" d="M16.84,47.2a.74.74,0,0,0,.42.12.81.81,0,0,0,.41-1.52.81.81,0,1,0-.83,1.4Z"/><path class="cls-3" d="M16.87,127.42a.82.82,0,0,0,.43,1.52.78.78,0,0,0,.41-.12A.84.84,0,0,0,18,127.7.83.83,0,0,0,16.87,127.42Z"/><path class="cls-3" d="M19,130.88a.81.81,0,0,0,.45,1.49.82.82,0,1,0-.45-1.49Z"/><path class="cls-3" d="M29.35,143.5a.82.82,0,0,0,0,1.15.84.84,0,0,0,.56.23.83.83,0,0,0,.6-.25.82.82,0,0,0-1.18-1.13Z"/><path class="cls-3" d="M13.09,120.19a.82.82,0,0,0-.38,1.09.81.81,0,0,0,.74.47.89.89,0,0,0,.35-.08.82.82,0,0,0-.71-1.48Z"/><path class="cls-3" d="M14.89,123.84a.82.82,0,0,0,.39,1.54.73.73,0,0,0,.38-.09.82.82,0,0,0-.77-1.45Z"/><path class="cls-3" d="M164.46,92.38a.82.82,0,0,0-.87.75.81.81,0,0,0,.75.89h0a.82.82,0,0,0,.07-1.64Z"/><path class="cls-3" d="M26.54,140.54a.82.82,0,0,0-.05,1.16.84.84,0,0,0,.6.26.82.82,0,0,0,.55-.22.81.81,0,0,0-1.1-1.2Z"/><path class="cls-3" d="M23.87,137.45a.81.81,0,0,0,.51,1.43.8.8,0,0,0,.63-1.33A.81.81,0,0,0,23.87,137.45Z"/><path class="cls-3" d="M21.37,134.22a.82.82,0,0,0-.16,1.15.8.8,0,0,0,.64.33.85.85,0,0,0,.49-.17.82.82,0,1,0-1-1.31Z"/><path class="cls-3" d="M14.85,50.78a.76.76,0,0,0,.39.1.82.82,0,1,0-.39-.1Z"/><path class="cls-3" d="M155.78,123.67a.82.82,0,0,0-1.11.34h0a.81.81,0,0,0,.34,1.11.86.86,0,0,0,.38.1.85.85,0,0,0,.73-.44A.82.82,0,0,0,155.78,123.67Z"/><path class="cls-3" d="M160.55,112.38a.81.81,0,1,0-.52,1.54.71.71,0,0,0,.26,0,.8.8,0,0,0,.76-.55A.81.81,0,0,0,160.55,112.38Z"/><path class="cls-3" d="M157.07,54.33a.93.93,0,0,0,.35-.08.81.81,0,0,0,.38-1.09.82.82,0,0,0-1.09-.39.81.81,0,0,0-.38,1.09A.8.8,0,0,0,157.07,54.33Z"/><path class="cls-3" d="M157.57,120a.84.84,0,0,0-1.1.39.83.83,0,0,0,.4,1.09.84.84,0,0,0,.34.08.82.82,0,0,0,.36-1.56Z"/><path class="cls-3" d="M159.16,116.22a.82.82,0,1,0-.61,1.52.75.75,0,0,0,.29.06.84.84,0,0,0,.76-.51A.8.8,0,0,0,159.16,116.22Z"/><path class="cls-3" d="M115.46,48.21a.51.51,0,0,0,.09.71.48.48,0,0,0,.3.11.53.53,0,0,0,.41-.19.52.52,0,0,0-.09-.72A.51.51,0,0,0,115.46,48.21Z"/><path class="cls-3" d="M113.42,46.7a.49.49,0,0,0,.12.71.45.45,0,0,0,.29.1.54.54,0,0,0,.42-.22.53.53,0,0,0-.12-.71A.51.51,0,0,0,113.42,46.7Z"/><path class="cls-3" d="M97.88,134.51a.52.52,0,0,0-.37.62.53.53,0,0,0,.5.38h.13a.51.51,0,0,0-.26-1Z"/><path class="cls-3" d="M117.43,49.82a.5.5,0,0,0,0,.71.54.54,0,0,0,.35.13.53.53,0,0,0,.38-.17.5.5,0,0,0-.06-.72A.49.49,0,0,0,117.43,49.82Z"/><path class="cls-3" d="M102.67,133a.48.48,0,0,0-.3.65.49.49,0,0,0,.47.33.63.63,0,0,0,.19,0,.51.51,0,0,0-.36-.95Z"/><path class="cls-3" d="M111.29,45.31a.5.5,0,0,0,.16.7.52.52,0,0,0,.26.08.51.51,0,0,0,.43-.24.5.5,0,1,0-.85-.54Z"/><path class="cls-3" d="M100.29,133.8a.52.52,0,0,0-.33.64.52.52,0,0,0,.49.35.39.39,0,0,0,.15,0,.51.51,0,0,0-.31-1Z"/><path class="cls-3" d="M86,136.66a.5.5,0,0,0-.51-.5h-.16a.51.51,0,1,0,0,1h.16A.52.52,0,0,0,86,136.66Z"/><path class="cls-3" d="M92.54,136.13a.52.52,0,0,0,.5.44h.08a.5.5,0,0,0,.42-.58.51.51,0,0,0-1,.15Z"/><path class="cls-3" d="M95.43,135.09a.52.52,0,0,0,.11,1l.1,0a.51.51,0,0,0,.4-.6A.54.54,0,0,0,95.43,135.09Z"/><path class="cls-3" d="M121.12,53.32a.5.5,0,0,0,0,.72.49.49,0,0,0,.37.16.48.48,0,0,0,.34-.14.5.5,0,0,0,0-.71A.51.51,0,0,0,121.12,53.32Z"/><path class="cls-3" d="M119.32,51.52a.52.52,0,0,0,0,.72.5.5,0,0,0,.35.14.51.51,0,0,0,.37-.15.51.51,0,1,0-.73-.71Z"/><path class="cls-3" d="M90,136.45a.51.51,0,0,0,.5.45h.07a.51.51,0,0,0-.12-1A.52.52,0,0,0,90,136.45Z"/><path class="cls-3" d="M113.7,127a.5.5,0,0,0-.12.71.48.48,0,0,0,.41.21.55.55,0,0,0,.3-.09.52.52,0,0,0,.12-.71A.51.51,0,0,0,113.7,127Z"/><path class="cls-3" d="M115.7,125.52a.5.5,0,0,0-.08.71.48.48,0,0,0,.39.19.57.57,0,0,0,.33-.11.53.53,0,0,0,.08-.72A.52.52,0,0,0,115.7,125.52Z"/><polygon class="cls-3" points="82.77 136.09 82.77 136.09 82.78 136.09 82.77 136.09"/><path class="cls-3" d="M117.63,123.9a.51.51,0,0,0,0,.72.52.52,0,0,0,.38.17.5.5,0,0,0,.34-.13.51.51,0,0,0,0-.72A.5.5,0,0,0,117.63,123.9Z"/><path class="cls-3" d="M121.21,120.38a.51.51,0,0,0,0,.71.44.44,0,0,0,.34.14.52.52,0,0,0,.37-.16.51.51,0,0,0,0-.73A.52.52,0,0,0,121.21,120.38Z"/><path class="cls-3" d="M119.46,122.19a.5.5,0,0,0,0,.71.46.46,0,0,0,.37.16.46.46,0,0,0,.34-.15.5.5,0,0,0,0-.72A.51.51,0,0,0,119.46,122.19Z"/><path class="cls-3" d="M107.07,43.53a.51.51,0,0,0,.22,0,.5.5,0,0,0,.22-1,.49.49,0,0,0-.67.22A.5.5,0,0,0,107.07,43.53Z"/><path class="cls-3" d="M111.62,128.44a.51.51,0,0,0-.16.71.49.49,0,0,0,.42.23.7.7,0,0,0,.29-.08.54.54,0,0,0,.15-.71A.51.51,0,0,0,111.62,128.44Z"/><path class="cls-3" d="M105,132a.49.49,0,0,0-.27.66.5.5,0,0,0,.46.31.46.46,0,0,0,.21,0,.53.53,0,0,0,.27-.67A.51.51,0,0,0,105,132Z"/><path class="cls-3" d="M109.09,44a.51.51,0,0,0,.2.69.45.45,0,0,0,.25.07.51.51,0,0,0,.43-.26.49.49,0,0,0-.18-.69A.51.51,0,0,0,109.09,44Z"/><path class="cls-3" d="M109.46,129.75a.49.49,0,0,0-.18.69.49.49,0,0,0,.43.26.55.55,0,0,0,.25-.07.51.51,0,0,0,.2-.69A.51.51,0,0,0,109.46,129.75Z"/><path class="cls-3" d="M107.26,130.94a.49.49,0,0,0-.23.68.51.51,0,0,0,.46.28.52.52,0,0,0,.22-.06.5.5,0,0,0-.45-.9Z"/><path class="cls-3" d="M135.16,85.87a.51.51,0,0,0-1,0,.51.51,0,0,0,.52.5h0a.53.53,0,0,0,.5-.53Z"/><path class="cls-3" d="M133.76,77.81a.52.52,0,0,0-.41.59.53.53,0,0,0,.5.42h.1a.51.51,0,0,0-.19-1Z"/><path class="cls-3" d="M130.89,106.24a.65.65,0,0,0,.19,0,.51.51,0,0,0,.2-1,.49.49,0,0,0-.66.28A.5.5,0,0,0,130.89,106.24Z"/><path class="cls-3" d="M132.54,72.88a.51.51,0,0,0-.36.63.54.54,0,0,0,.49.37l.16,0a.52.52,0,0,0,.34-.64A.51.51,0,0,0,132.54,72.88Z"/><path class="cls-3" d="M134.41,96.09h0a.49.49,0,0,0-.4-.58.51.51,0,0,0-.6.41.52.52,0,0,0,.41.59h.09A.54.54,0,0,0,134.41,96.09Z"/><path class="cls-3" d="M131.8,103.86a.56.56,0,0,0,.17,0,.5.5,0,0,0,.17-1,.5.5,0,0,0-.64.32A.51.51,0,0,0,131.8,103.86Z"/><path class="cls-3" d="M133.38,99a.51.51,0,0,0,.5-.39.5.5,0,0,0-.37-.61.51.51,0,1,0-.23,1Z"/><path class="cls-3" d="M132.75,101.46a.52.52,0,0,0,.49-.37.51.51,0,0,0-1-.28.5.5,0,0,0,.34.63A.41.41,0,0,0,132.75,101.46Z"/><path class="cls-3" d="M131.72,70.47a.51.51,0,0,0-.3.65.5.5,0,0,0,.47.34.52.52,0,0,0,.18,0,.51.51,0,1,0-.35-1Z"/><path class="cls-3" d="M130,66.77a.46.46,0,0,0,.21,0,.5.5,0,0,0,.25-.68.51.51,0,1,0-.46.73Z"/><path class="cls-3" d="M129.84,108.56a.68.68,0,0,0,.23,0,.53.53,0,0,0,.46-.29.51.51,0,1,0-.93-.44h0A.52.52,0,0,0,129.84,108.56Z"/><path class="cls-3" d="M131,69.09a.39.39,0,0,0,.18,0,.49.49,0,1,0-.18,0Z"/><path class="cls-3" d="M134.18,80.32a.5.5,0,0,0-.43.57.52.52,0,0,0,.51.44h.06a.52.52,0,0,0,.44-.57A.52.52,0,0,0,134.18,80.32Z"/><path class="cls-3" d="M133.21,75.33a.51.51,0,0,0,.12,1h.12a.54.54,0,0,0,.38-.61h0A.51.51,0,0,0,133.21,75.33Z"/><path class="cls-3" d="M123.54,55.27a.51.51,0,0,0-.72-.06.51.51,0,0,0,.32.9.45.45,0,0,0,.32-.12A.52.52,0,0,0,123.54,55.27Z"/><path class="cls-3" d="M134,83.39a.52.52,0,0,0,.5.47h0a.51.51,0,1,0-.08-1A.51.51,0,0,0,134,83.39Z"/><path class="cls-3" d="M134.79,93.56a.51.51,0,0,0-1-.14.51.51,0,0,0,.43.58h.08A.51.51,0,0,0,134.79,93.56Z"/><path class="cls-3" d="M126.59,114.32a.5.5,0,0,0-.7.14.5.5,0,0,0,.15.7.45.45,0,0,0,.28.09.53.53,0,0,0,.42-.23h0A.52.52,0,0,0,126.59,114.32Z"/><path class="cls-3" d="M124.84,117.32a.53.53,0,0,0,.41-.2.49.49,0,0,0-.11-.71.5.5,0,1,0-.6.81A.49.49,0,0,0,124.84,117.32Z"/><path class="cls-3" d="M123,119.2a.48.48,0,0,0,.31.12.5.5,0,0,0,.4-.19.51.51,0,0,0-.07-.71.5.5,0,0,0-.71.07A.49.49,0,0,0,123,119.2Z"/><path class="cls-3" d="M125,58a.5.5,0,0,0,.1-.71h0a.5.5,0,1,0-.1.71Z"/><path class="cls-3" d="M127.84,62.22a.5.5,0,0,0,.17-.7.51.51,0,0,0-.88.53.5.5,0,0,0,.44.25A.53.53,0,0,0,127.84,62.22Z"/><path class="cls-3" d="M126.49,60.07a.53.53,0,0,0,.14-.71h0a.51.51,0,0,0-.71-.14.5.5,0,0,0-.14.7.51.51,0,0,0,.43.23A.54.54,0,0,0,126.49,60.07Z"/><path class="cls-3" d="M134.67,87.92a.51.51,0,0,0-.53.5.5.5,0,0,0,.5.5l0,0a.51.51,0,0,0,0-1Z"/><path class="cls-3" d="M135.05,91a.51.51,0,0,0-1-.08.5.5,0,0,0,.47.55h0A.51.51,0,0,0,135.05,91Z"/><path class="cls-3" d="M82.24,136.58a.5.5,0,0,0,.47.53h0a.52.52,0,0,0,.51-.48.53.53,0,0,0-.49-.54A.5.5,0,0,0,82.24,136.58Z"/><path class="cls-3" d="M127.42,113a.46.46,0,0,0,.25.06.56.56,0,0,0,.45-.23.52.52,0,0,0-.19-.7.48.48,0,0,0-.68.17A.49.49,0,0,0,127.42,113Z"/><path class="cls-3" d="M128.83,64.5a.5.5,0,0,0,.24-.06.51.51,0,1,0-.48-.89.5.5,0,0,0,.24,1Z"/><path class="cls-3" d="M128.68,110.83a.52.52,0,0,0,.24,0,.5.5,0,0,0,.46-.26.52.52,0,0,0-.21-.7.54.54,0,0,0-.7.21A.52.52,0,0,0,128.68,110.83Z"/><path class="cls-3" d="M44.72,60a.51.51,0,0,0-.13-.71.5.5,0,0,0-.71.14.51.51,0,0,0,.13.7.55.55,0,0,0,.29.09A.51.51,0,0,0,44.72,60Z"/><path class="cls-3" d="M45.8,117.42a.54.54,0,0,0,.3-.1.5.5,0,1,0-.6-.81.49.49,0,0,0-.11.71A.56.56,0,0,0,45.8,117.42Z"/><path class="cls-3" d="M44.33,115.34a.47.47,0,0,0,.27-.08.5.5,0,0,0,.15-.7.51.51,0,0,0-.71-.14.5.5,0,0,0-.13.71A.51.51,0,0,0,44.33,115.34Z"/><path class="cls-3" d="M45.47,58.09a.52.52,0,0,0,.31.1.49.49,0,0,0,.4-.21.52.52,0,0,0-.1-.71.51.51,0,0,0-.71.11h0A.52.52,0,0,0,45.47,58.09Z"/><path class="cls-3" d="M38.79,70.62a.53.53,0,0,0-.66.31.52.52,0,0,0,.33.65.45.45,0,0,0,.16,0,.48.48,0,0,0,.47-.34A.49.49,0,0,0,38.79,70.62Z"/><path class="cls-3" d="M43,113.21a.44.44,0,0,0,.26-.08.5.5,0,1,0-.52-.86.51.51,0,0,0,.26.94Z"/><path class="cls-3" d="M41.67,64.62a.53.53,0,0,0,.46-.27.51.51,0,0,0-.21-.69.5.5,0,0,0-.68.21h0a.51.51,0,0,0,.45.75Z"/><path class="cls-3" d="M42.93,62.41a.51.51,0,0,0,.44-.25.52.52,0,0,0-.17-.7.51.51,0,0,0-.7.18.49.49,0,0,0,.17.69A.52.52,0,0,0,42.93,62.41Z"/><path class="cls-3" d="M41.71,111a.43.43,0,0,0,.24-.06.52.52,0,0,0,.21-.68.53.53,0,0,0-.7-.21.51.51,0,0,0,.25,1Z"/><path class="cls-3" d="M63.43,131a.49.49,0,0,0-.67.22.51.51,0,0,0,.21.69h0a.51.51,0,1,0,.44-.91Z"/><path class="cls-3" d="M100.07,40.69l.14,0a.53.53,0,0,0,.5-.36.52.52,0,0,0-.33-.63.51.51,0,0,0-.31,1Z"/><path class="cls-3" d="M82.67,38.47h0a.52.52,0,0,0,.49-.53.51.51,0,1,0-1,.05A.5.5,0,0,0,82.67,38.47Z"/><path class="cls-3" d="M88,136.09a.5.5,0,0,0-.49.53.52.52,0,0,0,.52.47h0a.5.5,0,0,0,.49-.52A.51.51,0,0,0,88,136.09Z"/><path class="cls-3" d="M102.45,41.51a.57.57,0,0,0,.18,0,.51.51,0,0,0,.17-1,.51.51,0,1,0-.35.95Z"/><path class="cls-3" d="M70.42,133.84h0a.51.51,0,0,0-.63.33.5.5,0,0,0,.33.65.34.34,0,0,0,.15,0,.51.51,0,0,0,.48-.35A.53.53,0,0,0,70.42,133.84Z"/><path class="cls-3" d="M68.05,133a.51.51,0,0,0-.66.3.5.5,0,0,0,.31.65.58.58,0,0,0,.18,0,.5.5,0,0,0,.46-.34A.49.49,0,0,0,68.05,133Z"/><path class="cls-3" d="M62.93,42.68a.51.51,0,0,0,.23,1,.51.51,0,0,0,.22,0,.53.53,0,0,0,.24-.69A.51.51,0,0,0,62.93,42.68Z"/><path class="cls-3" d="M65.71,132.07a.5.5,0,0,0-.66.26.51.51,0,0,0,.25.67.59.59,0,0,0,.21,0,.51.51,0,0,0,.46-.3A.49.49,0,0,0,65.71,132.07Z"/><path class="cls-3" d="M36.3,94.17h.08a.52.52,0,0,0,.44-.57.51.51,0,0,0-1,.14A.51.51,0,0,0,36.3,94.17Z"/><path class="cls-3" d="M37.22,99.17l.12,0a.49.49,0,0,0,.37-.61.5.5,0,0,0-.61-.38.53.53,0,0,0-.38.61A.54.54,0,0,0,37.22,99.17Z"/><path class="cls-3" d="M39.33,69.19a.39.39,0,0,0,.18,0,.52.52,0,0,0,.48-.32.51.51,0,0,0-.94-.38A.5.5,0,0,0,39.33,69.19Z"/><path class="cls-3" d="M37.87,101.62a.24.24,0,0,0,.14,0,.48.48,0,0,0,.34-.62.5.5,0,0,0-.63-.34.51.51,0,0,0,.15,1Z"/><path class="cls-3" d="M36.7,96.67h.1a.51.51,0,0,0,.41-.59.53.53,0,0,0-.61-.41.49.49,0,0,0-.39.59h0A.5.5,0,0,0,36.7,96.67Z"/><path class="cls-3" d="M38.64,104l.18,0a.52.52,0,0,0,.31-.65.51.51,0,1,0-.49.67Z"/><path class="cls-3" d="M40.1,108.44a.54.54,0,0,0,.47.3.68.68,0,0,0,.22,0,.51.51,0,1,0-.69-.24Z"/><path class="cls-3" d="M40.33,66.85a.46.46,0,0,0,.21,0,.51.51,0,1,0-.46-.72A.51.51,0,0,0,40.33,66.85Z"/><path class="cls-3" d="M39.55,106.41l.19,0a.5.5,0,0,0,.27-.67.49.49,0,0,0-.66-.27.48.48,0,0,0-.27.65A.5.5,0,0,0,39.55,106.41Z"/><path class="cls-3" d="M104.78,42.46a.49.49,0,0,0,.21,0,.5.5,0,0,0,.19-1,.5.5,0,0,0-.67.26A.53.53,0,0,0,104.78,42.46Z"/><path class="cls-3" d="M36.05,91.63h0a.49.49,0,0,0,.46-.54.48.48,0,0,0-.54-.46.47.47,0,0,0-.46.54A.48.48,0,0,0,36.05,91.63Z"/><path class="cls-3" d="M36.18,78.38a.52.52,0,0,0,.41.6h.09a.51.51,0,0,0,.5-.43.5.5,0,0,0-.4-.59A.53.53,0,0,0,36.18,78.38Z"/><path class="cls-3" d="M37.35,73.39a.52.52,0,0,0,.36.63l.13,0a.53.53,0,0,0,.5-.37A.51.51,0,0,0,38,73,.52.52,0,0,0,37.35,73.39Z"/><path class="cls-3" d="M35.8,80.92a.5.5,0,0,0,.44.57h.06a.51.51,0,0,0,.5-.44.51.51,0,0,0-.43-.57A.51.51,0,0,0,35.8,80.92Z"/><path class="cls-3" d="M36.71,75.87a.49.49,0,0,0,.38.61l.12,0a.51.51,0,0,0,.11-1A.51.51,0,0,0,36.71,75.87Z"/><path class="cls-3" d="M35.92,89.09h0a.5.5,0,0,0,.5-.51.51.51,0,1,0-1,0A.5.5,0,0,0,35.92,89.09Z"/><path class="cls-3" d="M35.54,83.48A.49.49,0,0,0,36,84h0a.51.51,0,0,0,0-1A.5.5,0,0,0,35.54,83.48Z"/><path class="cls-3" d="M35.89,86.56h0a.51.51,0,0,0,.5-.49.51.51,0,1,0-1,0A.5.5,0,0,0,35.89,86.56Z"/><path class="cls-3" d="M52.32,124a.51.51,0,0,0,0,.72.59.59,0,0,0,.35.12.5.5,0,0,0,.38-.17.51.51,0,0,0-.76-.67Z"/><path class="cls-3" d="M49.41,54.12a.52.52,0,0,0,0-.72.51.51,0,0,0-.72,0,.52.52,0,0,0,0,.72.55.55,0,0,0,.36.13A.52.52,0,0,0,49.41,54.12Z"/><path class="cls-3" d="M56.93,47.48a.49.49,0,0,0,.12-.71.51.51,0,0,0-.71-.12.51.51,0,0,0,.3.92A.5.5,0,0,0,56.93,47.48Z"/><path class="cls-3" d="M51.17,52.32a.53.53,0,0,0,0-.72.51.51,0,1,0-.72.71.49.49,0,0,0,.35.15A.52.52,0,0,0,51.17,52.32Z"/><path class="cls-3" d="M72.63,40h.13a.51.51,0,1,0-.25-1,.52.52,0,0,0-.37.62A.53.53,0,0,0,72.63,40Z"/><path class="cls-3" d="M53,50.61a.52.52,0,0,0,0-.72.5.5,0,0,0-.71,0,.49.49,0,0,0-.05.71.47.47,0,0,0,.38.17A.54.54,0,0,0,53,50.61Z"/><path class="cls-3" d="M55,48.28a.5.5,0,0,0-.71-.08.5.5,0,0,0,.32.9.47.47,0,0,0,.31-.11h0A.51.51,0,0,0,55,48.28Z"/><path class="cls-3" d="M67.8,41.6a.63.63,0,0,0,.19,0,.51.51,0,0,0,.29-.66.52.52,0,0,0-.65-.3.49.49,0,0,0-.3.66A.51.51,0,0,0,67.8,41.6Z"/><path class="cls-3" d="M70.21,40.76a.35.35,0,0,0,.14,0,.5.5,0,1,0-.3-1,.51.51,0,0,0-.34.63A.53.53,0,0,0,70.21,40.76Z"/><path class="cls-3" d="M61.17,44.77a.5.5,0,0,0,.2-.69.51.51,0,0,0-.9.5.54.54,0,0,0,.45.26A.45.45,0,0,0,61.17,44.77Z"/><path class="cls-3" d="M65.46,42.56a.48.48,0,0,0,.2,0,.51.51,0,1,0-.41-.93.51.51,0,0,0,.21,1Z"/><path class="cls-3" d="M59,46.07a.5.5,0,0,0,.14-.7.49.49,0,0,0-.7-.15.5.5,0,0,0-.14.7.49.49,0,0,0,.42.23A.52.52,0,0,0,59,46.07Z"/><path class="cls-3" d="M58.35,128.67a.53.53,0,0,0,.16.7.57.57,0,0,0,.28.08.49.49,0,0,0,.42-.24.5.5,0,0,0-.14-.7A.52.52,0,0,0,58.35,128.67Z"/><path class="cls-3" d="M56.26,127.22a.51.51,0,0,0,.12.7.5.5,0,0,0,.71-.11.51.51,0,0,0-.12-.72A.52.52,0,0,0,56.26,127.22Z"/><path class="cls-3" d="M54.25,125.67a.5.5,0,0,0,.08.71.48.48,0,0,0,.31.12.54.54,0,0,0,.41-.2.52.52,0,0,0-.09-.71A.5.5,0,0,0,54.25,125.67Z"/><path class="cls-3" d="M72.22,134.91a.53.53,0,0,0,.37.63h.12a.51.51,0,0,0,.5-.38.51.51,0,0,0-1-.26Z"/><path class="cls-3" d="M60.53,130a.49.49,0,0,0,.18.69.51.51,0,1,0,.5-.88A.49.49,0,0,0,60.53,130Z"/><path class="cls-3" d="M48.71,120.44a.53.53,0,0,0,0,.72.56.56,0,0,0,.37.16.54.54,0,0,0,.36-.15.5.5,0,0,0,0-.71A.49.49,0,0,0,48.71,120.44Z"/><path class="cls-3" d="M47.38,119.41a.54.54,0,0,0,.33-.12.51.51,0,0,0-.66-.78.51.51,0,0,0-.06.72A.55.55,0,0,0,47.38,119.41Z"/><path class="cls-3" d="M47.75,56a.51.51,0,0,0-.08-.71.5.5,0,0,0-.71.06.52.52,0,0,0,.07.71.51.51,0,0,0,.32.12A.53.53,0,0,0,47.75,56Z"/><path class="cls-3" d="M50.46,122.27a.52.52,0,0,0,0,.72.53.53,0,0,0,.36.14.51.51,0,0,0,.37-.15.51.51,0,0,0-.74-.71Z"/><path class="cls-3" d="M79.71,136.36a.5.5,0,0,0,.45.55h0a.52.52,0,0,0,.5-.46.48.48,0,0,0-.45-.56A.51.51,0,0,0,79.71,136.36Z"/><path class="cls-3" d="M85.21,38.4a.5.5,0,0,0,.5-.51.51.51,0,1,0-.51.51Z"/><path class="cls-3" d="M74.7,135.53a.49.49,0,0,0,.39.6h.09a.5.5,0,0,0,.5-.4.5.5,0,1,0-1-.2Z"/><path class="cls-3" d="M97.78,40a.49.49,0,0,0,.48-.38.5.5,0,1,0-.62.36h.14Z"/><path class="cls-3" d="M95.3,39.42a.5.5,0,0,0,.5-.4.52.52,0,0,0-.39-.6.5.5,0,0,0-.61.39.51.51,0,0,0,.4.6Z"/><path class="cls-3" d="M90.28,38.65a.51.51,0,0,0,.06-1h0a.49.49,0,0,0-.55.45.51.51,0,0,0,.44.56Z"/><path class="cls-3" d="M87.75,38.46a.52.52,0,0,0,.51-.48.54.54,0,0,0-.5-.54h0a.51.51,0,0,0,0,1Z"/><path class="cls-3" d="M92.8,39a.51.51,0,1,0-.5-.58.52.52,0,0,0,.42.58Z"/><path class="cls-3" d="M80.63,38.11a.5.5,0,0,0-.55-.45.49.49,0,0,0-.45.55.52.52,0,0,0,.5.46h.05A.5.5,0,0,0,80.63,38.11Z"/><path class="cls-3" d="M75.1,39.46l.11,0a.51.51,0,0,0-.2-1,.5.5,0,0,0-.39.6A.51.51,0,0,0,75.1,39.46Z"/><path class="cls-3" d="M77.68,39a.52.52,0,0,0,.44-.58.51.51,0,0,0-.58-.42.51.51,0,0,0,.08,1Z"/><path class="cls-3" d="M77.18,136a.53.53,0,0,0,.44.58h.06a.53.53,0,0,0,.52-.43.52.52,0,0,0-1-.15Z"/><polygon class="cls-3" points="22.43 54.37 23.29 52.9 32.3 58.16 31.45 59.62 34 61.11 37.53 55.06 34.97 53.57 34.11 55.06 25.09 49.81 25.95 48.32 23.4 46.83 19.88 52.88 22.43 54.37"/><path class="cls-3" d="M34,38.21l7.08,7.66L39.82,47l2,2.17,9.59-8.87L47.34,35.9l-2.56,2.37,1.48,1.61a.56.56,0,0,1,.15.26,1.14,1.14,0,0,1,.07.32.8.8,0,0,1,0,.31.58.58,0,0,1-.15.25l-2.61,2.41-7.08-7.65,1.27-1.17-2-2.18-5.13,4.76,2,2.17Z"/><path class="cls-3" d="M48.55,32.28a8.89,8.89,0,0,0,2.88,3.33,8,8,0,0,0,3.88,1.44,7.67,7.67,0,0,0,2.08-.1,7.36,7.36,0,0,0,2-.68,7.7,7.7,0,0,0,3.9-4.75,8.51,8.51,0,0,0,.32-2.08,9.43,9.43,0,0,0-.2-2.17,8.93,8.93,0,0,0-.77-2.13,9,9,0,0,0-2.89-3.34,8.15,8.15,0,0,0-1.87-1,7.89,7.89,0,0,0-2-.46,7.67,7.67,0,0,0-2.08.1A7.63,7.63,0,0,0,50,22.38,7.46,7.46,0,0,0,48.71,24a7.88,7.88,0,0,0-.83,1.9A8.51,8.51,0,0,0,47.56,28a9.38,9.38,0,0,0,.22,2.16A8.8,8.8,0,0,0,48.55,32.28Zm2.71-5.41a4.25,4.25,0,0,1,.7-1.58,3.81,3.81,0,0,1,3-1.54,4.21,4.21,0,0,1,1.7.38,5,5,0,0,1,1.51,1.05,6,6,0,0,1,1.17,1.62A6.33,6.33,0,0,1,60,28.69a5.08,5.08,0,0,1-.05,1.83,4.06,4.06,0,0,1-.7,1.59,3.65,3.65,0,0,1-1.35,1.13,3.58,3.58,0,0,1-1.7.41,4.13,4.13,0,0,1-1.69-.38,5.35,5.35,0,0,1-1.52-1,6.14,6.14,0,0,1-1.16-1.61,5.86,5.86,0,0,1-.61-1.9A5.43,5.43,0,0,1,51.26,26.87Z"/><polygon class="cls-3" points="65.22 18.83 66.78 18.56 73.23 31.02 77.59 30.27 79.61 16.34 81.05 16.09 80.54 13.17 73.64 14.36 74.15 17.29 76.01 16.96 74.8 26.59 70.41 17.93 72.13 17.64 71.63 14.71 64.72 15.91 65.22 18.83"/><polygon class="cls-3" points="86.93 26.7 85.22 26.53 84.93 29.47 97.86 30.77 98.45 24.95 94.95 24.6 94.66 27.48 90.49 27.06 90.87 23.3 94.1 23.62 94.41 20.51 91.18 20.18 91.51 16.98 95.68 17.4 95.45 19.7 98.94 20.06 99.5 14.51 86.56 13.21 86.24 16.45 87.94 16.62 86.93 26.7"/><polygon class="cls-3" points="115.78 34.97 114.01 34.07 115.73 30.65 123.05 26.95 124.13 27.5 125.46 24.85 119.22 21.7 117.88 24.34 119.28 25.05 115.52 27.36 115.25 23.02 116.47 23.64 117.81 20.99 111.56 17.84 110.23 20.48 111.51 21.13 112.64 29.04 110.89 32.5 109.28 31.68 107.94 34.32 114.45 37.6 115.78 34.97"/><path class="cls-3" d="M123.46,36.07a9.18,9.18,0,0,0-.83,2,8.24,8.24,0,0,0-.3,2.09,7.83,7.83,0,0,0,.24,2,8.22,8.22,0,0,0,.78,1.93,7.57,7.57,0,0,0,1.33,1.68,7.49,7.49,0,0,0,1.75,1.25,7.41,7.41,0,0,0,2,.7,7.55,7.55,0,0,0,2.07.14,8.22,8.22,0,0,0,2.07-.39,8.59,8.59,0,0,0,2-.92,8.83,8.83,0,0,0,1.76-1.43,9.09,9.09,0,0,0,1.36-1.82,8.93,8.93,0,0,0,.82-2,8.31,8.31,0,0,0,.3-2.09,7.83,7.83,0,0,0-.24-2,7.69,7.69,0,0,0-.79-1.93,7.13,7.13,0,0,0-1.33-1.69,7.65,7.65,0,0,0-1.74-1.25,7.76,7.76,0,0,0-2-.69,8,8,0,0,0-2.07-.15,8.71,8.71,0,0,0-2.07.4,9.25,9.25,0,0,0-2,.92,8.82,8.82,0,0,0-1.76,1.44A9.22,9.22,0,0,0,123.46,36.07Zm2.88,2.35a6.13,6.13,0,0,1,1.12-1.64,5.94,5.94,0,0,1,1.6-1.2,5.36,5.36,0,0,1,1.75-.57,4,4,0,0,1,1.73.13,3.58,3.58,0,0,1,1.51.88,3.65,3.65,0,0,1,.95,1.47,4.16,4.16,0,0,1,.21,1.72,4.88,4.88,0,0,1-.48,1.78,6.42,6.42,0,0,1-1.14,1.65,6.19,6.19,0,0,1-1.57,1.2,5.28,5.28,0,0,1-1.75.57,4.21,4.21,0,0,1-1.73-.13,3.77,3.77,0,0,1-1.52-.9,3.52,3.52,0,0,1-1-1.47,4.14,4.14,0,0,1-.21-1.72A5.32,5.32,0,0,1,126.34,38.42Z"/><path class="cls-3" d="M136.87,61.19a5.86,5.86,0,0,0,2.23,1.08,6.51,6.51,0,0,0,2.65.08,8.75,8.75,0,0,0,2.92-1.07l5.54-3.11.64,1.14,2.59-1.46-3.21-5.71-2.59,1.45.85,1.51-5.91,3.32a5.69,5.69,0,0,1-1.54.64,2.56,2.56,0,0,1-1.2,0,2,2,0,0,1-.92-.5,4.37,4.37,0,0,1-.71-.94,3.2,3.2,0,0,1-.39-1.08,2.17,2.17,0,0,1,.09-1.07,2.71,2.71,0,0,1,.63-1,5.18,5.18,0,0,1,1.27-1l5.91-3.32.74,1.3L149,50l-3.2-5.71-2.59,1.45.72,1.29-5.71,3.2a8.44,8.44,0,0,0-2.34,1.88,6.77,6.77,0,0,0-1.27,2.27,5.88,5.88,0,0,0-.23,2.43,6.72,6.72,0,0,0,2.45,4.35Z"/><polygon class="cls-3" points="148.14 120.19 147.28 121.65 138.27 116.39 139.12 114.93 136.57 113.44 133.04 119.49 135.6 120.98 136.47 119.49 145.48 124.74 144.62 126.23 147.17 127.72 150.69 121.67 148.14 120.19"/><path class="cls-3" d="M136.59,136.34l-7.08-7.65,1.24-1.15-2-2.17-9.59,8.87,4.08,4.41,2.56-2.37-1.48-1.61a.58.58,0,0,1-.15-.25,1.23,1.23,0,0,1-.07-.32.85.85,0,0,1,0-.32.58.58,0,0,1,.15-.25l2.61-2.41,7.08,7.65-1.27,1.17,2,2.18,5.13-4.75-2-2.18Z"/><path class="cls-3" d="M122,142.27a9.08,9.08,0,0,0-1.26-1.88,8.86,8.86,0,0,0-1.62-1.45,8,8,0,0,0-3.88-1.44,7.67,7.67,0,0,0-2.08.1,7.63,7.63,0,0,0-3.79,1.92,7.46,7.46,0,0,0-1.31,1.61,7.67,7.67,0,0,0-.83,1.9,8.13,8.13,0,0,0-.32,2.09,8.87,8.87,0,0,0,.2,2.16,9.16,9.16,0,0,0,.77,2.14,8.74,8.74,0,0,0,1.27,1.88,8.43,8.43,0,0,0,3.49,2.43,7.89,7.89,0,0,0,2,.46,7.67,7.67,0,0,0,2.08-.1,7.07,7.07,0,0,0,2-.69,7.36,7.36,0,0,0,1.76-1.22,7.76,7.76,0,0,0,1.31-1.62,8.29,8.29,0,0,0,.83-1.9,8.44,8.44,0,0,0,.32-2.08,9.43,9.43,0,0,0-.22-2.16A8.8,8.8,0,0,0,122,142.27Zm-2.71,5.41a4.25,4.25,0,0,1-.7,1.58,3.81,3.81,0,0,1-3,1.54,4.21,4.21,0,0,1-1.7-.38,5,5,0,0,1-1.51-1,6.4,6.4,0,0,1-1.78-3.5,5.14,5.14,0,0,1,0-1.84,4.06,4.06,0,0,1,.7-1.59,3.65,3.65,0,0,1,1.35-1.13,3.58,3.58,0,0,1,1.7-.41,4.13,4.13,0,0,1,1.69.38,5.19,5.19,0,0,1,1.52,1.05,6.3,6.3,0,0,1,1.77,3.5A5.43,5.43,0,0,1,119.31,147.68Z"/><polygon class="cls-3" points="105.35 155.72 103.79 155.99 97.34 143.53 92.98 144.28 90.96 158.21 89.53 158.46 90.03 161.38 96.93 160.19 96.42 157.26 94.56 157.59 95.78 147.97 100.16 156.62 98.44 156.91 98.94 159.84 105.85 158.64 105.35 155.72"/><polygon class="cls-3" points="83.62 147.85 85.32 148.02 85.62 145.08 72.68 143.77 72.09 149.6 75.59 149.95 75.88 147.07 80.06 147.49 79.68 151.25 76.45 150.93 76.13 154.04 79.36 154.36 79.04 157.57 74.86 157.15 75.1 154.84 71.6 154.49 71.04 160.03 83.98 161.34 84.3 158.1 82.6 157.93 83.62 147.85"/><polygon class="cls-3" points="54.79 139.59 56.56 140.48 54.84 143.9 47.52 147.6 46.44 147.05 45.11 149.7 51.35 152.85 52.69 150.21 51.29 149.5 55.05 147.2 55.32 151.53 54.1 150.91 52.76 153.56 59.01 156.72 60.34 154.07 59.06 153.42 57.94 145.51 59.68 142.05 61.3 142.87 62.63 140.23 56.12 136.95 54.79 139.59"/><path class="cls-3" d="M47.11,138.48a9.18,9.18,0,0,0,.83-2,8.24,8.24,0,0,0,.3-2.09,7.77,7.77,0,0,0-1-4,7.57,7.57,0,0,0-1.33-1.68,7.49,7.49,0,0,0-1.75-1.25,7.41,7.41,0,0,0-2-.7,7.55,7.55,0,0,0-2.07-.14A8.22,8.22,0,0,0,38,127a8.59,8.59,0,0,0-2,.92A9.14,9.14,0,0,0,33,131.2a8.67,8.67,0,0,0-.82,2,8.31,8.31,0,0,0-.3,2.09,7.9,7.9,0,0,0,.24,2.06,8.19,8.19,0,0,0,.79,1.92A7.4,7.4,0,0,0,34.19,141a7.55,7.55,0,0,0,3.7,1.94,8,8,0,0,0,2.07.15,8.71,8.71,0,0,0,2.07-.4,9.25,9.25,0,0,0,2-.92,8.82,8.82,0,0,0,1.76-1.44A9.22,9.22,0,0,0,47.11,138.48Zm-2.88-2.35a6.13,6.13,0,0,1-1.12,1.64,5.94,5.94,0,0,1-1.6,1.2,5.13,5.13,0,0,1-1.75.57,4,4,0,0,1-1.73-.13,3.58,3.58,0,0,1-1.51-.88,3.65,3.65,0,0,1-1-1.47,4.16,4.16,0,0,1-.21-1.72,5.08,5.08,0,0,1,.48-1.78,6.51,6.51,0,0,1,2.71-2.85,5.28,5.28,0,0,1,1.75-.57,4.21,4.21,0,0,1,1.73.13,3.77,3.77,0,0,1,1.52.9,3.52,3.52,0,0,1,1,1.47,4.14,4.14,0,0,1,.21,1.72A5.32,5.32,0,0,1,44.23,136.13Z"/><path class="cls-3" d="M22.08,119.45,28,116.13a5.69,5.69,0,0,1,1.54-.64,2.52,2.52,0,0,1,1.19,0,2,2,0,0,1,.93.5,4.37,4.37,0,0,1,.71.94,3.2,3.2,0,0,1,.39,1.08,2.29,2.29,0,0,1-.09,1.07,2.71,2.71,0,0,1-.63,1,5.18,5.18,0,0,1-1.27,1l-5.92,3.32-.73-1.3-2.58,1.45,3.2,5.71,2.59-1.45-.72-1.28,5.71-3.21a8.44,8.44,0,0,0,2.34-1.88,6.77,6.77,0,0,0,1.27-2.27,5.72,5.72,0,0,0,.22-2.43,6.29,6.29,0,0,0-.79-2.4,6.54,6.54,0,0,0-1.65-2,5.86,5.86,0,0,0-2.23-1.08,6.51,6.51,0,0,0-2.65-.08,8.75,8.75,0,0,0-2.92,1.07l-5.54,3.11-.64-1.14-2.59,1.46,3.21,5.71L22.93,121Z"/></g></g></svg>