<svg xmlns="http://www.w3.org/2000/svg" viewBox="0 0 199.08 122.09"><defs><style>.cls-1{fill:#324b56;}.cls-2{fill:#ff7d97;}.cls-3{fill:#fff;}</style></defs><title>Romantic02</title><g id="Calque_2" data-name="Calque 2"><g id="Love_10" data-name="Love 10"><path class="cls-1" d="M196.88,43.37H155.51a58.27,58.27,0,0,0-111.75,0H2.39L16.48,61,2.39,78.89H34.52v5.82l11.91.09a58.18,58.18,0,0,0,106.06.78l10.19.07V78.14l34.2.37L182.23,61Z"/><path class="cls-2" d="M184.5,60.94l14.16-16.52a1.76,1.76,0,0,0-1.34-2.9H157.09a1.19,1.19,0,0,0-.33,0,61,61,0,0,0-115.66,0H1.76a1.74,1.74,0,0,0-1.6,1,1.77,1.77,0,0,0,.26,1.88L14.59,60.94.42,77.45a1.77,1.77,0,0,0-.26,1.88,1.75,1.75,0,0,0,1.6,1H33.3v4.9A1.77,1.77,0,0,0,35.07,87H43.7a61,61,0,0,0,110.46,0h8.57a1.77,1.77,0,0,0,1.77-1.76v-4.9h32.82a1.77,1.77,0,0,0,1.34-2.91ZM98.92,4a57.07,57.07,0,0,1,55.52,44.13h-2.72a54.34,54.34,0,0,0-105.59,0H43.4A57.1,57.1,0,0,1,98.92,4ZM33.3,49.93V76.84H5.6L18.25,62.08a1.75,1.75,0,0,0,0-2.29L5.6,45H40C38.63,45.12,33.3,45.87,33.3,49.93Zm65.62,68.12A57.07,57.07,0,0,1,48.2,87h3a54.34,54.34,0,0,0,95.46,0h3A57.08,57.08,0,0,1,98.92,118.05ZM161,83.5H36.84V51.7H161Zm3.52-6.66V49.93c0-4-4.67-4.89-5.64-4.89h34.63L180.83,59.79a1.75,1.75,0,0,0,0,2.29l12.66,14.76Z"/><path class="cls-3" d="M108.37,23.42a.32.32,0,0,0-.09,0l-.11-.27a7.92,7.92,0,0,0-8.79-4.27,9.11,9.11,0,0,0-6.76,7A9.17,9.17,0,0,0,83,24.28,7.92,7.92,0,0,0,78.52,33c1,6.42,8.55,10.82,20.08,11.76h.11a.5.5,0,0,0,.35-.14h0c1.18-1,2.26-2.09,3.24-3.13a41.61,41.61,0,0,0,3.6,4.8c1,.06,1.88.08,2.77.08,18.84,0,19.58-12.45,13.87-15.89-4.77-2.88-9,.58-9.15.66C113.4,31,113.55,25.46,108.37,23.42Zm-6.6,17.15c-.94,1-2,2-3.23,3.13-16.22-1.36-18.67-8.69-19-10.91a6.91,6.91,0,0,1,3.9-7.59,7.89,7.89,0,0,1,3.13-.67,8.9,8.9,0,0,1,6,2.64.5.5,0,0,0,.52.13.48.48,0,0,0,.34-.42c0-.23.66-5.72,6.17-7A6.85,6.85,0,0,1,107,23.05C101.41,22.29,94.85,28.88,101.77,40.57Z"/><path class="cls-3" d="M99.54,110.66A49.63,49.63,0,0,1,56,84.71h-1.7a51.09,51.09,0,0,0,90.58,0h-1.71A49.6,49.6,0,0,1,99.54,110.66Z"/><path class="cls-3" d="M99.54,9.92A51.22,51.22,0,0,0,50.06,48.16h1.56a49.62,49.62,0,0,1,95.84,0H149A51.2,51.2,0,0,0,99.54,9.92Z"/><path class="cls-3" d="M81.78,101.35a5.37,5.37,0,0,1,1.9.36,7.57,7.57,0,0,0,1.47.42l.06-.54a8.44,8.44,0,0,1-1.44-.44,6,6,0,0,0-2.14-.37,2.46,2.46,0,0,0-1.79.61,2.2,2.2,0,0,0-.63,1.65,1.93,1.93,0,0,0,1,1.68,5.52,5.52,0,0,0,2.92.65,7.4,7.4,0,0,0,5.09-1.74,8.06,8.06,0,0,0,2.5-4.83l1.89-10.62-.39.09a20.69,20.69,0,0,1-3.24.18l-1,5.31a11.41,11.41,0,0,1-1.54,3.63,2.55,2.55,0,0,1-1.94,1.35q-1.2,0-1.2-1.44a17.29,17.29,0,0,1,.57-3.23,16.92,16.92,0,0,0,.57-3.43q0-2.46-2.73-2.46a3.77,3.77,0,0,0-1.59.33,1.84,1.84,0,0,0-.93.75l.45.36a2.15,2.15,0,0,1,1.5-.84,22.41,22.41,0,0,1-.61,3.73A18.11,18.11,0,0,0,80,95.86a3.88,3.88,0,0,0,1,2.79,3.52,3.52,0,0,0,2.68,1,4.06,4.06,0,0,0,3.81-2.76L86.71,101q-.72,3.75-3.84,3.75a4.31,4.31,0,0,1-2.16-.5,1.47,1.47,0,0,1-.87-1.29,1.5,1.5,0,0,1,.5-1.21A2.17,2.17,0,0,1,81.78,101.35Z"/><path class="cls-3" d="M97.35,88.84a4.77,4.77,0,0,0-2.18,1.81,8.41,8.41,0,0,0-1,2.4,12.36,12.36,0,0,0-.32,3A3.87,3.87,0,0,0,95,99a4.87,4.87,0,0,0,3.51,1.16,6.55,6.55,0,0,0,5.24-2.1,8.14,8.14,0,0,0,1.81-5.52,4.17,4.17,0,0,0-1.21-3.17A4.72,4.72,0,0,0,101,88.18,8.72,8.72,0,0,0,97.35,88.84Zm4.84,2.43A14,14,0,0,1,101.1,97c-.74,1.61-1.56,2.42-2.5,2.42s-1.39-.8-1.39-2.4a13.67,13.67,0,0,1,1.13-6c.75-1.53,1.57-2.29,2.49-2.29S102.19,89.59,102.19,91.27Z"/><path class="cls-3" d="M120,88.27a20.69,20.69,0,0,1-3.24.18l-1.26,6.93a9,9,0,0,1-1.42,2.82,2.27,2.27,0,0,1-1.7,1q-1.23,0-1.23-1.29a23.53,23.53,0,0,1,.54-3.54,22.8,22.8,0,0,0,.54-3.75q0-2.46-2.73-2.46a3.77,3.77,0,0,0-1.59.33,1.84,1.84,0,0,0-.93.75l.45.36a2.15,2.15,0,0,1,1.5-.84,26.64,26.64,0,0,1-.63,4,21.26,21.26,0,0,0-.57,3.59,3.77,3.77,0,0,0,1,2.77,3.7,3.7,0,0,0,2.76,1,4,4,0,0,0,3.72-2.52,2.43,2.43,0,0,0,.78,1.86,3.07,3.07,0,0,0,2.1.66A2.81,2.81,0,0,0,120.31,99l-.45-.36a2.14,2.14,0,0,1-1.5.84l2-11.34Z"/><polygon class="cls-3" points="51.53 59.9 51.53 76.84 69.62 76.84 69.62 72.32 56.95 72.32 56.95 59.9 51.53 59.9"/><path class="cls-3" d="M71.31,68.37c0,5.15,4.86,9,12.13,9s12.1-3.88,12.1-9-4.85-9-12.1-9S71.31,63.22,71.31,68.37ZM83.44,64c3.52,0,6.46,1.65,6.46,4.41s-2.94,4.4-6.46,4.4S77,71.1,77,68.37,79.89,64,83.44,64Z"/><polygon class="cls-3" points="117.33 59 108.88 70.2 100.43 59 96.32 61.95 108.88 78.08 121.44 61.95 117.33 59"/><polygon class="cls-3" points="142.47 64.42 142.47 59.9 123.91 59.9 123.91 76.84 142.45 76.84 142.45 72.32 129.33 72.32 129.33 70.4 139.81 70.4 139.81 66.34 129.33 66.34 129.33 64.42 142.47 64.42"/></g></g></svg>