<svg xmlns="http://www.w3.org/2000/svg" viewBox="0 0 116.64 116.64"><defs><style>.cls-1{fill:#ff7d97;}.cls-3{fill:#fff;}</style></defs><title>Romantic03</title><g id="Calque_2" data-name="Calque 2"><g id="Love_10" data-name="Love 10"><path class="cls-1" d="M115.31,104.24l-7.81,2.09L106.16,105l7.81-2.09-1.34-1.34-7.81,2.09-1.33-1.34,7.8-2.09L110,98.89l-7.8,2.09-1.05-1,7.81-2.09-1.34-1.33L99.76,98.6l-1.33-1.34,7.8-2.09-1.34-1.34-7.8,2.09-1.34-1.34,7.8-2.09-1.34-1.34-7.8,2.09-.31.31L58.87,58.32,109,8.24l1,4.11.16,0S114.75,3,115.68,1.5l1-1.5-1.47.94c-1.47,1-10.85,5.6-10.85,5.6l0,.14,4.13,1h0L58.33,57.78,8.24,7.69l4.11-1,0-.16S3,1.89,1.5,1L0,0,.94,1.47c1,1.47,5.6,10.85,5.6,10.85l.14,0,1-4.13h0L57.79,58.32,22.55,93.56l-.32-.32-7.8-2.09-1.34,1.34,7.8,2.09-1.33,1.34-7.81-2.09-1.34,1.34,7.81,2.09L16.88,98.6,9.07,96.51,7.74,97.84l7.8,2.1-1,1-7.8-2.09-1.34,1.34,7.81,2.09-1.34,1.34L4,101.57l-1.34,1.34L10.48,105l-1.34,1.34-7.8-2.09L0,105.58l7.8,2.09L6.43,109l1.17,1.17L9,108.84l2.09,7.8,1.34-1.33-2.09-7.81,1.33-1.34L13.73,114l1.34-1.34L13,104.82l1.34-1.33,2.09,7.8L17.75,110l-2.09-7.8,1.05-1.05,2.09,7.81,1.33-1.34L18,99.76l1.34-1.33,2.09,7.8,1.34-1.34-2.09-7.8,1.34-1.34,2.09,7.8,1.34-1.34-2.09-7.8-.31-.31L58.33,58.86,93.56,94.09l-.32.32-2.09,7.8,1.34,1.34,2.09-7.8,1.34,1.33-2.09,7.81,1.34,1.34,2.09-7.81,1.34,1.34-2.09,7.81,1.33,1.33,2.1-7.8,1,1.05L98.89,110l1.34,1.34,2.09-7.81,1.34,1.34-2.09,7.81,1.34,1.34,2.09-7.81,1.34,1.34-2.09,7.8,1.33,1.34,2.09-7.8,1.37,1.37,1.17-1.17-1.37-1.37,7.8-2.09Z"/><path class="cls-3" d="M67.7,20,67,19.76a7.58,7.58,0,0,1-1.39,2.35c-.52.57-.86.7-2,.7-.14,0-1.78,0-1.8,0-1.3,0-1.48-.34-1.48-1.73V11.8c0-2,.25-2.05,2.07-2.23V8.93h-6.1v.64c1.82.18,2,.3,2,2.23v9c0,1.94-.18,2.05-2.25,2.26v.63H66.65C66.88,23,67.56,20.65,67.7,20Z"/><path class="cls-3" d="M93.82,46.38a7.59,7.59,0,0,0-7.69,7.85,7.4,7.4,0,0,0,7.55,7.6c4.19,0,7.51-3,7.51-7.94A7.31,7.31,0,0,0,93.82,46.38ZM94,61c-3.23,0-5.55-3.12-5.55-7.35s2.32-6.4,4.87-6.4c3,0,5.51,2.53,5.51,7.31C98.87,58.92,96.8,61,94,61Z"/><path class="cls-3" d="M63,87.66c1.86.23,2.14.43,1.64,1.75-1.07,2.87-2.58,6.58-3.78,9.51-1.44-3.77-3.1-8.3-3.67-10-.31-.85-.22-1.12,1.46-1.3V87H52.89v.64c1.39.14,1.78.36,2.41,2,1.3,3.36,3.26,8.69,4.6,12.35h.75c1.12-2.82,4.26-10.44,4.87-11.94.82-2.05,1.21-2.26,2.73-2.46V87H63Z"/><path class="cls-3" d="M32.7,59.92c-.5.59-.73.8-2.12.8H28.46c-1.13,0-1.63-.16-1.63-1.76V54.44h2.5c1.64,0,1.82.22,2.11,1.86h.71V51.61h-.71c-.27,1.55-.38,1.89-2.09,1.89H26.83v-5c0-.66,0-.72.75-.72h2.16c1.36,0,1.89.16,2.25.91a7.15,7.15,0,0,1,.68,1.73l.69-.12c-.09-1.2-.19-2.91-.21-3.48-.27,0-1.16.05-3.3.05h-7v.63c1.71.16,2,.28,2,2.3v9c0,1.86-.16,2.07-2.28,2.23v.64H33.63c.23-.69.84-3,1-3.62l-.68-.18A10,10,0,0,1,32.7,59.92Z"/></g></g></svg>