<svg xmlns="http://www.w3.org/2000/svg" viewBox="0 0 111.59 101.77"><defs><style>.cls-1{fill:#ff7c96;}.cls-2{fill:#ede9e0;}.cls-3{fill:#324b58;}.cls-4{fill:#b6defa;}</style></defs><g id="Calque_2" data-name="Calque 2"><g id="_hiker" data-name="
hiker"><path class="cls-1" d="M71.45,25.36h0c-.64,0-1.32,0-2-.08a20.43,20.43,0,0,1-6.2-1.59s-.47-.2-1.17-.46a14.81,14.81,0,0,0-5.63-1.35h-1.1a15.92,15.92,0,0,0-6,1.49l-.17.07a22.19,22.19,0,0,1-6.83,1.84c-.7,0-1.37.08-2,.08h0a15.51,15.51,0,0,1-4.74-.63l.07,21.6a.45.45,0,0,1,0,.19l0,0a45.24,45.24,0,0,0,.21,6.52,6.66,6.66,0,0,1,.15.65,24,24,0,0,0,1.64,5.18l0,.09.46.92a27.2,27.2,0,0,0,6.12,7.84l.11.11c1.89,1.87,3.89,3.71,6,5.47a56.15,56.15,0,0,0,5.5,4.36h.11l.66-.48.17-.13c.83-.57,1.92-1.43,3.26-2.57a103.89,103.89,0,0,0,8.85-8.14h0A24.27,24.27,0,0,0,72.36,62l0,0a24,24,0,0,0,1.44-2.51.16.16,0,0,1,0-.09,22,22,0,0,0,2-6.06.23.23,0,0,1,0-.11c.05-.32.08-.64.11-.95s0-.67,0-.74v0l.18-26.8a18.25,18.25,0,0,1-3.79.64Z"/><path class="cls-2" d="M97.23,64.32c2.72-.84,4-3.19,4-7l-3.52,2.49a22.83,22.83,0,0,0-.24-4.3c1.16-2.3.67-4.57-1.62-7.13a5,5,0,0,0,1.09,6.86,25.17,25.17,0,0,1,0,5.53,11.76,11.76,0,0,0-2.59-4.32,9.27,9.27,0,0,0,2.14,8.07,14.75,14.75,0,0,1-1.15,3.79q-1-4.59-2.82-6.24-1.68,5.45,1.67,8.55l-2,3.12a11.52,11.52,0,0,0-1.47-6.9q-3.1,4.54-.28,8.6A10,10,0,0,1,87,77.79a8,8,0,0,0,.38-6.5Q84,75,85.26,78.79a17,17,0,0,1-4.07,1.42c2-2.13,2.67-4,2.11-5.67q-3.8,1.41-3.9,5.89l-1.7.49.82.84,2-.8A8.27,8.27,0,0,0,86,83.43a6.3,6.3,0,0,0,2-.35,13.51,13.51,0,0,0-4.54-2.76l2.15-.9a7.59,7.59,0,0,0,4,1.36,5.24,5.24,0,0,0,4.08-2.13,12.13,12.13,0,0,0-5-.89L90.93,76a7.21,7.21,0,0,0,1.49.16,5.21,5.21,0,0,0,4.84-3.27,21.2,21.2,0,0,0-3.8.52L95,71.12c2.9-.28,4.58-2,5-5h-.13c-1.7,0-2.61,1.24-3.46,1.3A13.32,13.32,0,0,0,97.23,64.32Z"/><path class="cls-2" d="M31.05,80.47Q31,76,27.18,74.58q-.84,2.46,2.08,5.68a16.84,16.84,0,0,1-4.06-1.45q1.29-3.81-2.13-7.5a8,8,0,0,0,.36,6.5,9.82,9.82,0,0,1-3.37-2.42q2.85-4-.25-8.59a11.58,11.58,0,0,0-1.49,6.89l-2-3.13q3.34-3.09,1.7-8.54c-1.21,1.1-2.16,3.17-2.85,6.23a15,15,0,0,1-1.13-3.8,9.27,9.27,0,0,0,2.17-8.06,11.84,11.84,0,0,0-2.61,4.31,25.1,25.1,0,0,1,0-5.53,5,5,0,0,0,1.11-6.85c-2.3,2.55-2.8,4.82-1.64,7.12a22,22,0,0,0-.26,4.3l-3.52-2.5c-.07,3.86,1.24,6.21,3.95,7.06a14.13,14.13,0,0,0,.82,3.08c-.85-.07-1.75-1.32-3.46-1.32h-.12q.64,4.61,5,5L17,73.41a21.61,21.61,0,0,0-3.81-.54,5.23,5.23,0,0,0,4.86,3.29A7.62,7.62,0,0,0,19.54,76l2.21,1.77a12.23,12.23,0,0,0-5,.86,5.22,5.22,0,0,0,4.1,2.15,7.72,7.72,0,0,0,4-1.34l2.14.9a13.65,13.65,0,0,0-4.55,2.74,6.15,6.15,0,0,0,2,.36A8.28,8.28,0,0,0,29.92,81l2,.8.81-.83Z"/><polygon class="cls-3" points="107.71 41.34 108.14 45.23 111.59 47.08 108.02 48.69 107.33 52.53 104.7 49.64 100.83 50.17 102.76 46.78 101.06 43.26 104.89 44.05 107.71 41.34"/><polygon class="cls-3" points="4.18 41.34 6.85 44.19 10.71 43.61 8.83 47.03 10.58 50.53 6.74 49.79 3.96 52.54 3.47 48.66 0 46.86 3.54 45.2 4.18 41.34"/><path class="cls-3" d="M105.19,53.55c0,.13,0,.25,0,.38h0A50.44,50.44,0,0,1,90.7,85.83a49.63,49.63,0,0,1-70.61,0A50.41,50.41,0,0,1,5.65,54.3H4.56c2,26.66,24.29,47.47,50.83,47.47s49-21,50.87-47.84v0c0-.13,0-.24,0-.35Z"/><path class="cls-3" d="M55.25,8.85a38.08,38.08,0,0,0-35.79,50,36.67,36.67,0,0,0,1.78,4.46,37.55,37.55,0,0,0,69.53-3.69,34.29,34.29,0,0,0,1.08-3.66c.06-.22.11-.43.15-.65h0c.21-.89.38-1.8.51-2.71A38.06,38.06,0,0,0,55.25,8.85ZM89.51,55.34c-.05.22-.1.45-.17.67a33.49,33.49,0,0,1-1.08,3.44c-.06.15-.11.3-.17.44a33.44,33.44,0,0,1-2,4.28A35.1,35.1,0,0,1,30.3,72a35.83,35.83,0,0,1-5.44-7.07c-.33-.56-.64-1.12-.93-1.69a33.6,33.6,0,0,1-1.66-3.73c-.12-.33-.24-.66-.35-1A35.76,35.76,0,0,1,30.3,21.77a35.07,35.07,0,0,1,49.89,0A35.42,35.42,0,0,1,90.51,46.89a35.9,35.9,0,0,1-.31,4.76A32.85,32.85,0,0,1,89.51,55.34Z"/><path class="cls-3" d="M5.65,54.3H4.56A51.3,51.3,0,0,0,9.17,72l1.13-.16A50.33,50.33,0,0,1,5.65,54.3Z"/><path class="cls-3" d="M106.28,53.55c0,.11,0,.22,0,.35v0c-1.87,26.84-24.2,47.84-50.87,47.84A50.93,50.93,0,0,1,14,80.32,51.46,51.46,0,0,1,9.17,72l1.13-.16a51,51,0,0,0,9.79,14,49.58,49.58,0,0,0,70.61,0,50.44,50.44,0,0,0,14.47-31.89h0c0-.13,0-.25,0-.38Z"/><path class="cls-4" d="M64.89,93.06a7.76,7.76,0,0,0-.46-2.41.8.8,0,0,1-.28-.73h0l0-1.41-.37-.16a17.61,17.61,0,0,0-3-1.37,8,8,0,0,0-1.76,0,.91.91,0,0,0-.76.87.81.81,0,0,1-.09.28h0c-.18.4-.59,1-.64,1.18a3.31,3.31,0,0,0-1.21,1.23c-.21.38-1.63.66-1.71,1-.3.12-.78.15-.71.28a4.38,4.38,0,0,1-2.27-.1,1.59,1.59,0,0,0-1.74.6,2.69,2.69,0,0,0-.34.68,7.81,7.81,0,0,0-.15,1.25c1.37.21,5.34,1.62,7.31,1.41a5,5,0,0,1,.48-.18,3.58,3.58,0,0,1,1.54-.06c.51.22.69.21.85.44a2.37,2.37,0,0,0,.29.34c.59.55,4.76.46,4.76.46A11.19,11.19,0,0,0,65,94.15,4.43,4.43,0,0,1,64.89,93.06Z"/><path class="cls-4" d="M49.78,50.23h0Z"/><path class="cls-4" d="M80.06,25.34c-.52.09-.92.22-1.46.27L73,12.5a7.47,7.47,0,0,0,1.64.17,8.39,8.39,0,0,1,2.73,1.58,6,6,0,0,1,.18-1,9.46,9.46,0,0,1-1.43-.74,5,5,0,0,0-2.27-1,6.63,6.63,0,0,1-1.38-.22l-3.5-8.13c-.11-.4-.85-.18-2.09-.49C66.67,2,65.22.59,63.47.1A21,21,0,0,0,51.8,2.33c-1.54.93-.5,2.59,0,2.89,0,.22-1,.83-1.78,1.32-.52.51.26,3.92.13,5.06a10.68,10.68,0,0,1-1.49,2.88,3.55,3.55,0,0,1-.71-1.79c0-.1,0-.21-.08-.32-.44-1.9-.69-4.47-5.47-5.79-1.65-.25-5.64,1.22-6.2,6.1-.13.37.08.46-.26.71a23.27,23.27,0,0,0-2.6,2.8c.07.43,0,.62,1.08.37,1.2.36,3.39,1.09,4.4.4.2.15.34.07.35.47a13.8,13.8,0,0,1,0,1.88c0,.39.27.86.85.4a.45.45,0,0,1,.6.32c.12.25.33.34.95.14-.19.47,0,.76.38.66.27.16.56.26.6.64.29.43.49.49.8.46,0,.06,0,0,0,.14a2.08,2.08,0,0,0-.14,3.3,3.94,3.94,0,0,0,.37,1.35v0a13.51,13.51,0,0,0,1,4.71,11.77,11.77,0,0,1-.65,1.93,11.07,11.07,0,0,1-1.54,2.78,6.62,6.62,0,0,0-1.05.83c-.36.41-.86,1.23-1.2,1.58a4,4,0,0,1-.91.72c-.3.19-.48,0-.79-.23a1.31,1.31,0,0,0-1-.26,4.14,4.14,0,0,1-.6,0,.74.74,0,0,0-.19-.36l-.06-.59c0-.44-.29-.77-.54-.74s-.43.42-.39.86l.06.59a.84.84,0,0,0-.1.36l-.09,0c-.45.21-.88.35-.94.63a1.25,1.25,0,0,0,.07.81c.11.24,0,.36,0,.64s0-.12,0,.28a2.25,2.25,0,0,0,0,.79,2.07,2.07,0,0,1,.14.62c0,.2-.11.4.31.45a5.37,5.37,0,0,0,1.06.12l.09,1a.86.86,0,0,0-.11.5l.08.77a.76.76,0,0,0,.21.45l.1,1a.81.81,0,0,0-.11.49l.08.77a.68.68,0,0,0,.11.32.4.4,0,0,0-.16.32l0,.48c0,.15.17.26.37.32l.88,7.72h-.22a.6.6,0,0,0-.05.41c.05.26.19,1.18.19,1.28s.14.14.29.2l2.56,22.45a1.27,1.27,0,0,0-.37.18,5.85,5.85,0,0,0,.12,1,3.68,3.68,0,0,0,.27,1,.36.36,0,0,0,.24,0l.19,1.7a.38.38,0,0,0-.19.37.67.67,0,0,0,0,.24c-.31.1-.52.22-.5.32s.34.2.78.18l0,.3a4.94,4.94,0,0,0-1.47.6c-.68.1-2.51-.84-3.18-.58a5.05,5.05,0,0,0-1.1.8,2.12,2.12,0,0,0-.35.45c-1,1-.4,1-.56,1.46l.17.11a24.44,24.44,0,0,0,5.9,1.91l.68-.1a4.39,4.39,0,0,1,.69-.06l.44,0a.49.49,0,0,1,.28.16,1.61,1.61,0,0,0,.25.31,2.52,2.52,0,0,0,.59.41,15.78,15.78,0,0,0,3.81.81,1.92,1.92,0,0,0,.49-1.21c0-.35,0-.65,0-.79A13.63,13.63,0,0,0,48.36,89l.27,0,0-.5h-.33a4.3,4.3,0,0,0-.23-1.32,3.21,3.21,0,0,1,.05-.4,5.36,5.36,0,0,1,.33-1.46.12.12,0,0,0-.06-.12.54.54,0,0,1-.2-.1,7.05,7.05,0,0,0,.62-1.34c.36-.94.77-2.07.93-2.42a20.22,20.22,0,0,0,2-6.23,22.29,22.29,0,0,0-.43-6.59c-.2-1-.6-2.22-.08-3a4.77,4.77,0,0,1,2-1.78,7,7,0,0,1,.77-.33,12.14,12.14,0,0,1,1,2.6c.45,1.41.62,3.2.82,3.76s1,1.56,1.34,2.41a3.49,3.49,0,0,1,.17,1.68,14.46,14.46,0,0,0,.47,4.24C58,79.81,58.85,82.61,59,84c0,.37.14,1,.18,1.56a5.28,5.28,0,0,1,0,1.47,7.26,7.26,0,0,1,1.76,0,18.33,18.33,0,0,1,3,1.38s0-.63.06-1.53A46.71,46.71,0,0,1,64.32,81a10.61,10.61,0,0,0,.12-6.84,23.28,23.28,0,0,0-1.64-4.9V68.9a.61.61,0,0,1,0-.14v-.28a1.7,1.7,0,0,0,0-.22v-.08c0-1.16-.05-2.93-.1-4.75v0c0-.17,0-.33,0-.5v0c0-.15,0-.31,0-.47v-.07l0-.75V61.5l0-.73c0-.25,0-.5,0-.73v0c0-.33,0-.65,0-1,0,0,0-.06,0-.09s0-.17,0-.25v-.12a1.62,1.62,0,0,1,0-.22c0-.06,0-.11,0-.16s0-.19,0-.28,0-.12,0-.17,0-.1,0-.14a1,1,0,0,0,0-.17.37.37,0,0,0,0-.11,2,2,0,0,0,0-.25v0c0-.07,0-.13,0-.18a.2.2,0,0,1,0-.07.69.69,0,0,1,0-.13s0,0,0-.06a.8.8,0,0,0,0-.15l.14-.15.21-.23h0c.07-.09.16-.18.25-.28s0,0,0,0l.3-.34h0c1.28-1.51,3.39-4.27,3.78-6.88h0c0-.14,0-.28,0-.42s0,0,0-.06,0-.29,0-.44a1.91,1.91,0,0,0,.72-.24c-.15-.63-.19-2.55-.3-3.3.1.22.22.42.35.42a9.22,9.22,0,0,0,1.45-.05,19.88,19.88,0,0,1-.3,3.31,5.46,5.46,0,0,0,1.16,0s.3-2.23.34-3.5c.55-.1,1.18-.24,1.9-.43a8.7,8.7,0,0,0,4.84-3.44c.07,1.18.23,3.56.4,4.36A25.57,25.57,0,0,1,78,49.37c.65,0,1.33-.11,1.33-.11s-.28-3.07-.59-4.68-.41-3.76-.44-4.07-.08-1-.14-1.78a12.05,12.05,0,0,0,1-3.34c.06-.17,2.47-1.66,2.6-2.36,0,0-1.1-2.53-2.65-6.12a3,3,0,0,0,.85-.3c.77,0,1.7.06,1.91,0,.11-.43.24-1.39.24-1.39A13.4,13.4,0,0,0,80.06,25.34ZM54.29,58.68c0,.06,0,.1,0,.16A.88.88,0,0,1,54.29,58.68Zm-.08.53s0,.06,0,.1S54.21,59.24,54.21,59.21Zm0-1.37.1-.08ZM45.67,20.9a1.94,1.94,0,0,0,.29-.28A1.94,1.94,0,0,1,45.67,20.9Zm3.24-6.08.06,0Zm0,0a2.53,2.53,0,0,1-.25-.28A2.53,2.53,0,0,0,48.89,14.8ZM45.3,21.14h0Zm-.43.22h0Zm-.32.14-.16.06h0ZM41.64,86.63l.39-.11a.35.35,0,0,0-.05.13c-.08,0-.2.1-.32.16A1.1,1.1,0,0,1,41.64,86.63ZM48.12,57l-.09.13,0,.06-.12.17-.06.09-.14.21-.05.07-.2.3,0,.07-.18.27a.47.47,0,0,1-.06.09l-.18.29,0,.06-.23.37,0,.06c-.07.1-.13.2-.19.3l-.06.11c-.06.09-.11.19-.16.28l-.06.09-.2.36,0,0a2.11,2.11,0,0,1-.16.3.54.54,0,0,1-.05.11c0,.08-.07.16-.11.23l0,.1c0,.1-.09.2-.13.3a14.93,14.93,0,0,1-.78,2,6.14,6.14,0,0,0,.06,3.28c.08.76.25,1.33.27,2.15.11.66.27,1,.29,1.34a17.31,17.31,0,0,1-.52,2.89A32.43,32.43,0,0,0,45,78a17.7,17.7,0,0,1-.21,4.19,4.34,4.34,0,0,1-.38,1.29c-.41.08-.71.22-.69.49-.28.22-.66.49-.61.78s-.41.67-.47,1.07c-.1.14-.21.26-.31.38a1.08,1.08,0,0,0-.46-.07c0-.07,0-.13,0-.2a.36.36,0,0,0-.28-.33c-.06-.56-.12-1.15-.19-1.79l.17-.07s0-.15-.07-.84a8,8,0,0,0-.2-1.12l-.12,0c-.7-6.5-1.68-15.54-2.42-22.47.07,0,.13-.07.13-.12s-.14-1.66-.16-1.74-.09-.07-.18-.09c-.41-3.77-.72-6.67-.84-7.75A.49.49,0,0,0,38,49.1l-.05-.47a.37.37,0,0,0-.22-.27,1,1,0,0,0,0-.34l-.08-.77a.76.76,0,0,0-.21-.45l-.1-1a.81.81,0,0,0,.11-.49l-.08-.77a.73.73,0,0,0-.21-.46l-.09-1c.29,0,.31,0,.8.07A2.23,2.23,0,0,0,39.09,43c.49-.22.68-.46,1-.57s.15-.31.35-.11.08.95.16,1.21l.07.27s.6-1.07.43-1.53c.35-.21,1.36-.38,2.26-.79a9.39,9.39,0,0,0,2.34-1.67,4.24,4.24,0,0,0,.52-.93,6.9,6.9,0,0,0,.9-1.79,3.66,3.66,0,0,1,.31-.82,4.67,4.67,0,0,1,.12.47c-.07.68.08,1.18.23,1.25a1.34,1.34,0,0,0,.14.9c.16.45.56,1.47.78,2.2.11.43,0,.81.1.9a14.41,14.41,0,0,1,1.11,2.37.19.19,0,0,0,0,.08c.1.51.24,1.13.31,1.62,0,.12.05.47.05.54a28.23,28.23,0,0,1-.51,3.67h0l0,0c-.11.5-.05,4.45,0,4.58-.42.63-1.36,1.83-1.36,1.83l-.15.22Zm5.22,2.28a2.32,2.32,0,0,1,.26-.6,3.59,3.59,0,0,0-.17.34A1.61,1.61,0,0,0,53.34,59.3Zm5.43-12.2a11.34,11.34,0,0,0,3.69,1.19A11.2,11.2,0,0,1,58.77,47.1ZM63,48.3a3.09,3.09,0,0,1-.43,0,3.23,3.23,0,0,0,.44,0Z"/></g></g></svg>