<svg xmlns="http://www.w3.org/2000/svg" viewBox="0 0 111.59 92.92"><defs><style>.cls-1{fill:#ff7c96;}.cls-2{fill:#ede9e0;}.cls-3{fill:#324b58;}.cls-4{fill:#b6defa;}</style></defs><g id="Calque_2" data-name="Calque 2"><g id="_rugby" data-name="
rugby"><path class="cls-1" d="M71.45,16.51h0c-.64,0-1.32,0-2-.08a20.72,20.72,0,0,1-6.2-1.59s-.47-.21-1.17-.46A14.64,14.64,0,0,0,56.44,13h-.59l-.51,0h0a15.74,15.74,0,0,0-6,1.5l-.17.06a22.47,22.47,0,0,1-6.83,1.85c-.7.05-1.37.08-2,.08h0a15.51,15.51,0,0,1-4.74-.63l.07,21.59a.41.41,0,0,1,0,.19l0,.05a45.24,45.24,0,0,0,.21,6.52,6.66,6.66,0,0,1,.15.65,23.84,23.84,0,0,0,1.64,5.17l0,.1.46.92a27.33,27.33,0,0,0,6.12,7.84l.11.11c1.89,1.86,3.89,3.7,6,5.47a57.75,57.75,0,0,0,5.5,4.36h.11l.66-.49.17-.13A39.83,39.83,0,0,0,60,65.67a103.89,103.89,0,0,0,8.85-8.14l0,0a23.5,23.5,0,0,0,3.51-4.32l0,0a24.11,24.11,0,0,0,1.44-2.52.11.11,0,0,1,0-.08,22.17,22.17,0,0,0,2-6.07.19.19,0,0,1,0-.1c.05-.33.08-.65.11-.95s0-.67,0-.74v0l.18-26.8a19,19,0,0,1-3.79.64Z"/><path class="cls-2" d="M97.23,55.47c2.72-.84,4-3.19,4-7l-3.52,2.49a22.78,22.78,0,0,0-.24-4.3c1.16-2.3.67-4.57-1.62-7.13a5,5,0,0,0,1.09,6.85,25.13,25.13,0,0,1,0,5.53,11.7,11.7,0,0,0-2.59-4.31q-.74,5,2.14,8.06a14.85,14.85,0,0,1-1.15,3.8q-1-4.59-2.82-6.25-1.68,5.46,1.67,8.56l-2,3.11a11.51,11.51,0,0,0-1.47-6.89q-3.1,4.55-.28,8.59A9.73,9.73,0,0,1,87,68.93a8,8,0,0,0,.38-6.49Q84,66.12,85.26,69.93a16.62,16.62,0,0,1-4.07,1.43q3-3.21,2.11-5.67-3.8,1.41-3.9,5.88l-1.7.5.82.83,2-.79A8.3,8.3,0,0,0,86,74.57a6,6,0,0,0,2-.35,13.68,13.68,0,0,0-4.54-2.75l2.15-.9a7.59,7.59,0,0,0,4,1.36,5.22,5.22,0,0,0,4.08-2.14,12.31,12.31,0,0,0-5-.88l2.21-1.76a8,8,0,0,0,1.49.16A5.21,5.21,0,0,0,97.26,64a21.2,21.2,0,0,0-3.8.52L95,62.27c2.9-.28,4.58-2,5-5h-.13c-1.7,0-2.61,1.23-3.46,1.3A13.32,13.32,0,0,0,97.23,55.47Z"/><path class="cls-2" d="M31.05,71.62q-.07-4.47-3.87-5.9c-.56,1.64.13,3.54,2.08,5.68A17.21,17.21,0,0,1,25.2,70q1.29-3.81-2.13-7.5A8,8,0,0,0,23.43,69a9.78,9.78,0,0,1-3.37-2.41q2.85-4-.25-8.59a11.55,11.55,0,0,0-1.49,6.88l-2-3.12q3.34-3.09,1.7-8.55-1.82,1.65-2.85,6.24a15.12,15.12,0,0,1-1.13-3.8,9.28,9.28,0,0,0,2.17-8.06,11.84,11.84,0,0,0-2.61,4.31,25.1,25.1,0,0,1,0-5.53,5.06,5.06,0,0,0,1.11-6.86c-2.3,2.56-2.8,4.83-1.64,7.13a22,22,0,0,0-.26,4.3l-3.52-2.5c-.07,3.86,1.24,6.21,3.95,7.06a14.31,14.31,0,0,0,.82,3.08c-.85-.08-1.75-1.32-3.46-1.32h-.12c.43,3.07,2.1,4.76,5,5L17,64.55A21.52,21.52,0,0,0,13.22,64a5.23,5.23,0,0,0,4.86,3.29,6.93,6.93,0,0,0,1.46-.16l2.21,1.77a12.38,12.38,0,0,0-5,.87,5.25,5.25,0,0,0,4.1,2.15,7.65,7.65,0,0,0,4-1.35L27,71.5a13.49,13.49,0,0,0-4.55,2.74,6.15,6.15,0,0,0,2,.36,8.29,8.29,0,0,0,5.45-2.45l2,.81.81-.83Z"/><polygon class="cls-3" points="107.71 32.49 108.14 36.38 111.59 38.22 108.02 39.83 107.33 43.68 104.7 40.79 100.83 41.32 102.76 37.92 101.06 34.41 104.89 35.2 107.71 32.49"/><polygon class="cls-3" points="4.18 32.49 6.85 35.34 10.71 34.76 8.83 38.18 10.58 41.67 6.74 40.94 3.96 43.68 3.47 39.8 0 38 3.54 36.34 4.18 32.49"/><path class="cls-3" d="M105.19,44.7c0,.13,0,.25,0,.38h0A50.44,50.44,0,0,1,90.7,77a49.63,49.63,0,0,1-70.61,0A50.41,50.41,0,0,1,5.65,45.45H4.56c2,26.66,24.29,47.47,50.83,47.47s49-21,50.87-47.84v0c0-.13,0-.24,0-.35Z"/><path class="cls-3" d="M55.25,0A38.08,38.08,0,0,0,19.46,50a36.67,36.67,0,0,0,1.78,4.46,37.55,37.55,0,0,0,69.53-3.69,34.29,34.29,0,0,0,1.08-3.66c.06-.22.11-.43.15-.65h0c.21-.89.38-1.8.51-2.71A38.06,38.06,0,0,0,55.25,0ZM89.51,46.49c-.05.22-.1.45-.17.67a33.49,33.49,0,0,1-1.08,3.44c-.06.15-.11.3-.17.44a33.44,33.44,0,0,1-2,4.28A35.1,35.1,0,0,1,30.3,63.16a35.83,35.83,0,0,1-5.44-7.07c-.33-.56-.64-1.12-.93-1.69a33.6,33.6,0,0,1-1.66-3.73c-.12-.33-.24-.66-.35-1A35.76,35.76,0,0,1,30.3,12.92a35.07,35.07,0,0,1,49.89,0A35.42,35.42,0,0,1,90.51,38a35.9,35.9,0,0,1-.31,4.76A32.85,32.85,0,0,1,89.51,46.49Z"/><path class="cls-3" d="M5.65,45.45H4.56A51.3,51.3,0,0,0,9.17,63.14L10.3,63A50.33,50.33,0,0,1,5.65,45.45Z"/><path class="cls-3" d="M106.28,44.7c0,.11,0,.22,0,.35v0c-1.87,26.84-24.2,47.84-50.87,47.84A50.93,50.93,0,0,1,14,71.47a51.46,51.46,0,0,1-4.85-8.33L10.3,63a51,51,0,0,0,9.79,14A49.58,49.58,0,0,0,90.7,77a50.44,50.44,0,0,0,14.47-31.89h0c0-.13,0-.25,0-.38Z"/><path class="cls-4" d="M25.43,32.13a11,11,0,0,0-6-2.08A3.91,3.91,0,0,0,16,31.59c-1.6,2.52-.21,6.56,3,8.83a9.51,9.51,0,0,0,5.34,1.76,4.56,4.56,0,0,0,3.83-1.58C29.41,38.82,29,34.64,25.43,32.13Z"/><path class="cls-4" d="M58.47,19.66q0-.66,0-1.32a7.67,7.67,0,0,1,.36-1.85,1.93,1.93,0,0,0,0-.79c-.28-.32-.28-.79-.37-1.57a1.5,1.5,0,0,1,.13-.79c.12-.32.11-.67.24-1a2.28,2.28,0,0,1,.91-1.12c.38-.24,1-.24,1.18-.77A2.06,2.06,0,0,0,62.47,10c.34-.33,1.28-.29,1.71-.29a1.08,1.08,0,0,1,.89.3.8.8,0,0,0,.8.24,1.31,1.31,0,0,0,.64.95c.15.09,1.16.53,1,0,.38.26.09.65.27,1a.84.84,0,0,0,1.07.25c0,.11,0,.2-.23.51a3,3,0,0,1,0,1.85c-.14.43,0,.93-.15,1.38a3.3,3.3,0,0,1-.39,1c-.15.25-.37.44-.52.69a5.12,5.12,0,0,0-.25.65,3.82,3.82,0,0,1-1,1.33,10.68,10.68,0,0,1,3.08,1.37,6.28,6.28,0,0,0,2.32,1,7.44,7.44,0,0,1,3.77,2.4,10,10,0,0,0,2.34,2.88c.35.11.44.28.14.58A15.9,15.9,0,0,1,81,30.76,30.76,30.76,0,0,1,83.25,34a44.74,44.74,0,0,1,1.93,4.92c.06.29.34.52.5.76a2.27,2.27,0,0,1,.26,1.18,3.32,3.32,0,0,0,.44,1.44,5.24,5.24,0,0,1,.67,3.15,1,1,0,0,1-.37.76c-.09.37,0,.84-.51,1.23-.07.32-.55.67-1.06.83-.21.19-.65.47-1,.31s0-.58.09-.68a7.63,7.63,0,0,0,.62-1.06,3,3,0,0,0-.23-1.14,1.48,1.48,0,0,1-.21.65s-.41.4-.69.26-.33-.67-.21-1-.12-.84-.16-1a6.19,6.19,0,0,1-.5-2.15c0-.68.72-1.38.43-2.06a10.13,10.13,0,0,0-1.75-2.23c-.9-1.09-1.83-2.17-2.69-3.29-.58-.75-1-2-2-2.41a6.48,6.48,0,0,1-2-1.29c-.49-.1-2.48-.23-3.29-.86-.19-.16-.28,0-.23.44a3.57,3.57,0,0,1-.7,2c-.46.62,1.21,2.43.28,3.4s-1.11,1.19-1.11,1.19a1.43,1.43,0,0,1,.37,1.25,1.36,1.36,0,0,1-.51.78s.79,1.12.53,1.7-.79.64-.32,1,.44,1-.23,1.41a14.94,14.94,0,0,1-1.23,4.38c-.17.31-.29.65-.44,1a7.26,7.26,0,0,1-2,2.8,7,7,0,0,1-2.09,1.21,13.34,13.34,0,0,0-1.44.43c-.37.21-.31.76-.41,1.13a11.31,11.31,0,0,1-.42,1.24,5.14,5.14,0,0,1-.78,1.55,2.18,2.18,0,0,0-.45,1.6l-.06,1.35c0,.77-.07,1.54-.15,2.3,0,.4.76.57,1.07.71a14.66,14.66,0,0,1,1.46.8,11.58,11.58,0,0,1,3.54,3.25,6.5,6.5,0,0,1,.62,1.13c.35.58,3.29,4.72,4.82,5.72.21-.12.63,0,1,.39a3.42,3.42,0,0,0,1.39,1c.46.07,1.11.58.62,2.43s-1,1.85-1.57,3.77a2.17,2.17,0,0,1-2,1.46,7.21,7.21,0,0,1-2.7,0c-.49-.13-.54-.66-.34-1.09s.7-.56.7-.56c0-.58,0-1.17-.06-1.76s0-.92,0-1.37.18-.85,0-1.17a9.8,9.8,0,0,0-.8-1c-.32-.34-.64-.69-1-1a18.91,18.91,0,0,0-2.14-2c-.78-.6-1.76-1-2.59-1.48a15.32,15.32,0,0,1-1.7-1.41,34.38,34.38,0,0,1-3.29-3.43,20.28,20.28,0,0,0-2.92-3.15c-.3-.23-.39-.58-.49-1.27a8.46,8.46,0,0,0-1-3.55c-.51-.76-1.92-4.68-.76-11.07a.82.82,0,0,0-.74.21c-.26.25-1.42,2.41-5.47,3.12s-6.37.65-7.18,1.63a1.1,1.1,0,0,1-.3,1.22,9.6,9.6,0,0,0-1.19.91c-.42.37-.79.88-1.39.92a3,3,0,0,1-1.71-.55,13.2,13.2,0,0,1-3.45-3.38c-.42-.56-2.27-1.7-2.59-2.07a.82.82,0,0,1,.64-1.32,3.27,3.27,0,0,1,1.34.3,6.66,6.66,0,0,0,.87.48,3,3,0,0,0,.85,0,7.15,7.15,0,0,1,1.79,0c.64.16,1.22-.35,1.57-.33s.46-.83.7-.41.39.34.39.34a14.56,14.56,0,0,0,3.31-.76c1-.49,6.72-3.55,7.67-3.78a4,4,0,0,0,1.44-1.22A6.4,6.4,0,0,1,52,40.8c1-.16,1.93.22,2.88-.08a14.44,14.44,0,0,1-.74-4.21,18.54,18.54,0,0,0-.42-4.38,30.94,30.94,0,0,1-1.2-5.22c0-.27.07-.32-.72-.48s-1.11-.93-1.34-1.23-1.9-.25-2.62-.07-.74-.39-.93-.83A5.8,5.8,0,0,1,45.24,24a12,12,0,0,1-2.3-.85,14.87,14.87,0,0,1-2.19-.75A16.88,16.88,0,0,1,38.6,20.8a19.39,19.39,0,0,1-1.54-1.6,13.77,13.77,0,0,1-1.71-1.9s0-.18-.54-.21a.89.89,0,0,1-.66-.44c-.19-.24-.44-.42-.64-.66a10.3,10.3,0,0,0-.9-1.08c-.24-.23-.73-.68-.53-1.06.09-.23.44-.28.44-.28s0-.65.58-.62c.18-.49.44-.77.9-.68A.77.77,0,0,1,35.32,12c0-.35.49-.44.72-.33s.23.75.23.75l.56.67a1,1,0,0,1,.44.9c-.05.62-.09,1-.09,1-.07.57,1.51,1.08,1.92,1.28A28.32,28.32,0,0,0,42,17.58a5,5,0,0,1,2.25,1.25,2.34,2.34,0,0,0,1.53.66,16.84,16.84,0,0,0,2.12.18c.47,0,.94-.11,1.4-.16a9.55,9.55,0,0,1,2.92-.12,10.17,10.17,0,0,1,2.66,1c.21.14.6.16,1.11-.19A3.85,3.85,0,0,1,58.47,19.66Z"/></g></g></svg>