<svg xmlns="http://www.w3.org/2000/svg" viewBox="0 0 111.59 92.92"><defs><style>.cls-1{fill:#ff7c96;}.cls-2{fill:#ede9e0;}.cls-3{fill:#324b58;}.cls-4{fill:#b6defa;}</style></defs><g id="Calque_2" data-name="Calque 2"><g id="_karate" data-name="
karate"><path class="cls-1" d="M71.45,16.51h0c-.64,0-1.32,0-2-.08a20.72,20.72,0,0,1-6.2-1.59s-.47-.21-1.17-.46A14.64,14.64,0,0,0,56.44,13h-.59l-.51,0h0a15.74,15.74,0,0,0-6,1.5l-.17.06a22.47,22.47,0,0,1-6.83,1.85c-.7.05-1.37.08-2,.08h0a15.51,15.51,0,0,1-4.74-.63l.07,21.59a.41.41,0,0,1,0,.19l0,.05a45.24,45.24,0,0,0,.21,6.52,6.66,6.66,0,0,1,.15.65,23.84,23.84,0,0,0,1.64,5.17l0,.1.46.92a27.33,27.33,0,0,0,6.12,7.84l.11.11c1.89,1.86,3.89,3.7,6,5.47a57.75,57.75,0,0,0,5.5,4.36h.11l.66-.49.17-.13A39.83,39.83,0,0,0,60,65.67a103.89,103.89,0,0,0,8.85-8.14l0,0a23.5,23.5,0,0,0,3.51-4.32l0,0a24.11,24.11,0,0,0,1.44-2.52.11.11,0,0,1,0-.08,22.17,22.17,0,0,0,2-6.07.19.19,0,0,1,0-.1c.05-.33.08-.65.11-.95s0-.67,0-.74v0l.18-26.8a19,19,0,0,1-3.79.64Z"/><path class="cls-2" d="M97.23,55.47c2.72-.84,4-3.19,4-7l-3.52,2.49a22.78,22.78,0,0,0-.24-4.3c1.16-2.3.67-4.57-1.62-7.13a5,5,0,0,0,1.09,6.85,25.13,25.13,0,0,1,0,5.53,11.7,11.7,0,0,0-2.59-4.31q-.74,5,2.14,8.06a14.85,14.85,0,0,1-1.15,3.8q-1-4.59-2.82-6.25-1.68,5.46,1.67,8.56l-2,3.11a11.51,11.51,0,0,0-1.47-6.89q-3.1,4.55-.28,8.59A9.73,9.73,0,0,1,87,68.93a8,8,0,0,0,.38-6.49Q84,66.12,85.26,69.93a16.62,16.62,0,0,1-4.07,1.43q3-3.21,2.11-5.67-3.8,1.41-3.9,5.88l-1.7.5.82.83,2-.79A8.3,8.3,0,0,0,86,74.57a6,6,0,0,0,2-.35,13.68,13.68,0,0,0-4.54-2.75l2.15-.9a7.59,7.59,0,0,0,4,1.36,5.22,5.22,0,0,0,4.08-2.14,12.31,12.31,0,0,0-5-.88l2.21-1.76a8,8,0,0,0,1.49.16A5.21,5.21,0,0,0,97.26,64a21.2,21.2,0,0,0-3.8.52L95,62.27c2.9-.28,4.58-2,5-5h-.13c-1.7,0-2.61,1.23-3.46,1.3A13.32,13.32,0,0,0,97.23,55.47Z"/><path class="cls-2" d="M31.05,71.62q-.07-4.47-3.87-5.9c-.56,1.64.13,3.54,2.08,5.68A17.21,17.21,0,0,1,25.2,70q1.29-3.81-2.13-7.5A8,8,0,0,0,23.43,69a9.78,9.78,0,0,1-3.37-2.41q2.85-4-.25-8.59a11.55,11.55,0,0,0-1.49,6.88l-2-3.12q3.34-3.09,1.7-8.55-1.82,1.65-2.85,6.24a15.12,15.12,0,0,1-1.13-3.8,9.28,9.28,0,0,0,2.17-8.06,11.84,11.84,0,0,0-2.61,4.31,25.1,25.1,0,0,1,0-5.53,5.06,5.06,0,0,0,1.11-6.86c-2.3,2.56-2.8,4.83-1.64,7.13a22,22,0,0,0-.26,4.3l-3.52-2.5c-.07,3.86,1.24,6.21,3.95,7.06a14.31,14.31,0,0,0,.82,3.08c-.85-.08-1.75-1.32-3.46-1.32h-.12c.43,3.07,2.1,4.76,5,5L17,64.55A21.52,21.52,0,0,0,13.22,64a5.23,5.23,0,0,0,4.86,3.29,6.93,6.93,0,0,0,1.46-.16l2.21,1.77a12.38,12.38,0,0,0-5,.87,5.25,5.25,0,0,0,4.1,2.15,7.65,7.65,0,0,0,4-1.35L27,71.5a13.49,13.49,0,0,0-4.55,2.74,6.15,6.15,0,0,0,2,.36,8.29,8.29,0,0,0,5.45-2.45l2,.81.81-.83Z"/><polygon class="cls-3" points="107.71 32.49 108.14 36.38 111.59 38.22 108.02 39.83 107.33 43.68 104.7 40.79 100.83 41.32 102.76 37.92 101.06 34.41 104.89 35.2 107.71 32.49"/><polygon class="cls-3" points="4.18 32.49 6.85 35.34 10.71 34.76 8.83 38.18 10.58 41.67 6.74 40.94 3.96 43.68 3.47 39.8 0 38 3.54 36.34 4.18 32.49"/><path class="cls-3" d="M105.19,44.7c0,.13,0,.25,0,.38h0A50.44,50.44,0,0,1,90.7,77a49.63,49.63,0,0,1-70.61,0A50.41,50.41,0,0,1,5.65,45.45H4.56c2,26.66,24.29,47.47,50.83,47.47s49-21,50.87-47.84v0c0-.13,0-.24,0-.35Z"/><path class="cls-3" d="M55.25,0A38.08,38.08,0,0,0,19.46,50a36.67,36.67,0,0,0,1.78,4.46,37.55,37.55,0,0,0,69.53-3.69,34.29,34.29,0,0,0,1.08-3.66c.06-.22.11-.43.15-.65h0c.21-.89.38-1.8.51-2.71A38.06,38.06,0,0,0,55.25,0ZM89.51,46.49c-.05.22-.1.45-.17.67a33.49,33.49,0,0,1-1.08,3.44c-.06.15-.11.3-.17.44a33.44,33.44,0,0,1-2,4.28A35.1,35.1,0,0,1,30.3,63.16a35.83,35.83,0,0,1-5.44-7.07c-.33-.56-.64-1.12-.93-1.69a33.6,33.6,0,0,1-1.66-3.73c-.12-.33-.24-.66-.35-1A35.76,35.76,0,0,1,30.3,12.92a35.07,35.07,0,0,1,49.89,0A35.42,35.42,0,0,1,90.51,38a35.9,35.9,0,0,1-.31,4.76A32.85,32.85,0,0,1,89.51,46.49Z"/><path class="cls-4" d="M51.12,49.58s1.24,4,1.59,4.53a4.92,4.92,0,0,0,.8.93s.25,7-.15,7.24-.4,1.09-.4,1.09l.35,0-.6,12.31a12.46,12.46,0,0,1,2.34.59l.75.35a26.12,26.12,0,0,1,1.54,5.17c.1,1.57.4,2.31,0,3s-.35,1.78.1,2a5.16,5.16,0,0,0,1.94.2,3.42,3.42,0,0,1,1.5.39,2.71,2.71,0,0,1,1.25,1c.49.74,1.74.59,1.74.59s.07.42.27.47,1.26.44,1.82.12c.3-.17.05-.49.05-.49s.52-.3.15-.4c-.1,0,.58-.27,0-.54-.19-.1.54-.32-.24-.49,0,0,.4-.2,0-.52-.1-.07,0-.39-.42-.59a4.73,4.73,0,0,1-2-.71c-.62-.54-1.79-1.28-2.17-2a8.37,8.37,0,0,1-.79-2.75c0-.74-.08-3.28-.08-3.28v-.52l.12-.19s.08-3.57.13-4,.47-3.13.57-3.64a12.07,12.07,0,0,0,.18-2.83,6,6,0,0,0-.53-2.37,7.67,7.67,0,0,0-.74-.76,4.43,4.43,0,0,0,.74-1.09,9.55,9.55,0,0,1,.68-1.35c.17-.22-.35-.42-.35-.42a12.12,12.12,0,0,1,.57-1.4,8.77,8.77,0,0,0,.77-2.44c-.07-.39,1.65-.69,1.87-.79a3.58,3.58,0,0,1,.55-.17,16.12,16.12,0,0,0-.55,2.12c0,.49-.1,1.7-.1,1.7s3,.27,3.81.41a8.86,8.86,0,0,1,1.72.3,20.51,20.51,0,0,0,3.29.22,4,4,0,0,1,1.74.22,2.52,2.52,0,0,0,2.1-.19c.77-.4,3.31-1.88,3.31-1.88a.49.49,0,0,1,.25,0c.07,0,2.94-3.6,3.19-3.87a9.62,9.62,0,0,1,.92-.79,2.92,2.92,0,0,1,.22-.69c.18-.37.65-1.7.75-1.87a11.77,11.77,0,0,0,.12-1.4,2.57,2.57,0,0,0-.05-1.33c-.12-.1-.27-.37-.2-.5s-.2-.51-.2-.51a2.29,2.29,0,0,0,0-1.06c-.12-.45-.29-.81-.49-1.6s-.33-1.36-.58-1.43c0,0,0-.74.25-.89a2.24,2.24,0,0,0,.67-1,1.84,1.84,0,0,0-.34-1.35l.77-.86a7.69,7.69,0,0,0,2.26-1.55c.9-1,2.27-1.93,2.52-3.87a5.33,5.33,0,0,0-1.87-4.29c-.62-.44-2.94-2-4.26-1.74a4.37,4.37,0,0,0-2.24,1.3,6.81,6.81,0,0,0-1.17,1.06c-.35.47-1.14,1.43-1.14,1.43s-.18.17,0,.24-.3.18-.2.35a1.15,1.15,0,0,1-.2,1,3.18,3.18,0,0,1-.7.76c-.32.2-.6.25-.57.57a2.84,2.84,0,0,0,0,.44,1.9,1.9,0,0,1-.8-.57,12.76,12.76,0,0,0-2.39-2.06,28.72,28.72,0,0,0-3.22-1.75,7.93,7.93,0,0,0-1.07-.27s0-.25-.32,0a1.59,1.59,0,0,0-.45.39,6.4,6.4,0,0,0-1.77-.39c-.72,0-1.32,0-1.32,0a15.51,15.51,0,0,0-.89-1.87c-.35-.52-.7-1.31-1.35-1.41a16.72,16.72,0,0,0-1.87-.1,9.48,9.48,0,0,0-.89-1.77,32.67,32.67,0,0,0-4.19-3l-3.31-2.07-1.1-.88-.15.09s-.62-1.4-1-2.11-.37-1.23-1.07-.89-1.74.94-1.87,1a.52.52,0,0,0-.2.42c0,.2-.32.27-.42.5s-.22.69,0,.91a2.87,2.87,0,0,0,1.13.54c.22,0,.64.71,1,1a7.69,7.69,0,0,1,.72.81s-.57,1-.65,1.23-.3,1.16-.47,1a21.24,21.24,0,0,1-1.6-2.56,5.7,5.7,0,0,0-.84-1.67c-.48-.57-2.62-3-3.49-3.94s-2.72-3-3.06-3.4l-1.6-1.92a.68.68,0,0,0-.42.1c-.2.12-.52-.45-1.27-1s-2.44-2-2.62-2.27S34,5.1,33.93,5a1,1,0,0,0-.33-.15A2.19,2.19,0,0,0,33.13,4a8.75,8.75,0,0,1-.67-.71,1,1,0,0,1-.3-.59c0-.3-.15-.67-.85-.64a2.77,2.77,0,0,0-1.59.32c-.45.29-1.4,1.43-1,1.94s1.22.87,1,1.19A1.67,1.67,0,0,0,29.37,7c.2.57.37.57.37.57s-.07.64.13.86c0,0,.77.42,1.19.25A1.13,1.13,0,0,0,31.64,8l1.22,1a9.2,9.2,0,0,1,1.94,2.37,19.75,19.75,0,0,0,1.12,2.19,17.86,17.86,0,0,1-1.27,1.75c-.42.61-1.15,1.18-1,1.47,0,0,1.77,2.14,2.56,3.28s5,7.13,5.64,8a43.35,43.35,0,0,1,2.91,4.25A37.72,37.72,0,0,1,47,36.16c.3.73.45,0,1.8,2.73l1.38,2.22-.3.25v.26a4.69,4.69,0,0,0-.56.37,11.91,11.91,0,0,0,.23,2.07l.15.11.82,3.33s-2.47.62-3.29.81-3.06.29-3.55.77,0,1.67.45,1.67S51.12,49.58,51.12,49.58Z"/></g></g></svg>