<svg xmlns="http://www.w3.org/2000/svg" viewBox="0 0 111.59 92.92"><defs><style>.cls-1{fill:#ff7c96;}.cls-2{fill:#ede9e0;}.cls-3{fill:#324b58;}.cls-4{fill:#b6defa;}</style></defs><g id="Calque_2" data-name="Calque 2"><g id="Golf"><path class="cls-1" d="M71.45,16.51h0c-.64,0-1.32,0-2-.08a20.72,20.72,0,0,1-6.2-1.59s-.47-.21-1.17-.46A14.64,14.64,0,0,0,56.44,13h-.59l-.51,0h0a15.74,15.74,0,0,0-6,1.5l-.17.06a22.47,22.47,0,0,1-6.83,1.85c-.7.05-1.37.08-2,.08h0a15.51,15.51,0,0,1-4.74-.63l.07,21.59a.41.41,0,0,1,0,.19l0,.05a45.24,45.24,0,0,0,.21,6.52,6.66,6.66,0,0,1,.15.65,23.84,23.84,0,0,0,1.64,5.17l0,.1.46.92a27.33,27.33,0,0,0,6.12,7.84l.11.11c1.89,1.86,3.89,3.7,6,5.47a57.75,57.75,0,0,0,5.5,4.36h.11l.66-.49.17-.13A39.83,39.83,0,0,0,60,65.67a103.89,103.89,0,0,0,8.85-8.14l0,0a23.5,23.5,0,0,0,3.51-4.32l0,0a24.11,24.11,0,0,0,1.44-2.52.11.11,0,0,1,0-.08,22.17,22.17,0,0,0,2-6.07.19.19,0,0,1,0-.1c.05-.33.08-.65.11-.95s0-.67,0-.74v0l.18-26.8a19,19,0,0,1-3.79.64Z"/><path class="cls-2" d="M97.23,55.47c2.72-.84,4-3.19,4-7l-3.52,2.49a22.78,22.78,0,0,0-.24-4.3c1.16-2.3.67-4.57-1.62-7.13a5,5,0,0,0,1.09,6.85,25.13,25.13,0,0,1,0,5.53,11.7,11.7,0,0,0-2.59-4.31q-.74,5,2.14,8.06a14.85,14.85,0,0,1-1.15,3.8q-1-4.59-2.82-6.25-1.68,5.46,1.67,8.56l-2,3.11a11.51,11.51,0,0,0-1.47-6.89q-3.1,4.55-.28,8.59A9.73,9.73,0,0,1,87,68.93a8,8,0,0,0,.38-6.49Q84,66.12,85.26,69.93a16.62,16.62,0,0,1-4.07,1.43q3-3.21,2.11-5.67-3.8,1.41-3.9,5.88l-1.7.5.82.83,2-.79A8.3,8.3,0,0,0,86,74.57a6,6,0,0,0,2-.35,13.68,13.68,0,0,0-4.54-2.75l2.15-.9a7.59,7.59,0,0,0,4,1.36,5.22,5.22,0,0,0,4.08-2.14,12.31,12.31,0,0,0-5-.88l2.21-1.76a8,8,0,0,0,1.49.16A5.21,5.21,0,0,0,97.26,64a21.2,21.2,0,0,0-3.8.52L95,62.27c2.9-.28,4.58-2,5-5h-.13c-1.7,0-2.61,1.23-3.46,1.3A13.32,13.32,0,0,0,97.23,55.47Z"/><path class="cls-2" d="M31.05,71.62q-.07-4.47-3.87-5.9c-.56,1.64.13,3.54,2.08,5.68A17.21,17.21,0,0,1,25.2,70q1.29-3.81-2.13-7.5A8,8,0,0,0,23.43,69a9.78,9.78,0,0,1-3.37-2.41q2.85-4-.25-8.59a11.55,11.55,0,0,0-1.49,6.88l-2-3.12q3.34-3.09,1.7-8.55-1.82,1.65-2.85,6.24a15.12,15.12,0,0,1-1.13-3.8,9.28,9.28,0,0,0,2.17-8.06,11.84,11.84,0,0,0-2.61,4.31,25.1,25.1,0,0,1,0-5.53,5.06,5.06,0,0,0,1.11-6.86c-2.3,2.56-2.8,4.83-1.64,7.13a22,22,0,0,0-.26,4.3l-3.52-2.5c-.07,3.86,1.24,6.21,3.95,7.06a14.31,14.31,0,0,0,.82,3.08c-.85-.08-1.75-1.32-3.46-1.32h-.12c.43,3.07,2.1,4.76,5,5L17,64.55A21.52,21.52,0,0,0,13.22,64a5.23,5.23,0,0,0,4.86,3.29,6.93,6.93,0,0,0,1.46-.16l2.21,1.77a12.38,12.38,0,0,0-5,.87,5.25,5.25,0,0,0,4.1,2.15,7.65,7.65,0,0,0,4-1.35L27,71.5a13.49,13.49,0,0,0-4.55,2.74,6.15,6.15,0,0,0,2,.36,8.29,8.29,0,0,0,5.45-2.45l2,.81.81-.83Z"/><polygon class="cls-3" points="107.71 32.49 108.14 36.38 111.59 38.22 108.02 39.83 107.33 43.68 104.7 40.79 100.83 41.32 102.76 37.92 101.06 34.41 104.89 35.2 107.71 32.49"/><polygon class="cls-3" points="4.18 32.49 6.85 35.34 10.71 34.76 8.83 38.18 10.58 41.67 6.74 40.94 3.96 43.68 3.47 39.8 0 38 3.54 36.34 4.18 32.49"/><path class="cls-3" d="M105.19,44.7c0,.13,0,.25,0,.38h0A50.44,50.44,0,0,1,90.7,77a49.63,49.63,0,0,1-70.61,0A50.41,50.41,0,0,1,5.65,45.45H4.56c2,26.66,24.29,47.47,50.83,47.47s49-21,50.87-47.84v0c0-.13,0-.24,0-.35Z"/><path class="cls-3" d="M55.25,0A38.08,38.08,0,0,0,19.46,50a36.67,36.67,0,0,0,1.78,4.46,37.55,37.55,0,0,0,69.53-3.69,34.29,34.29,0,0,0,1.08-3.66c.06-.22.11-.43.15-.65h0c.21-.89.38-1.8.51-2.71A38.06,38.06,0,0,0,55.25,0ZM89.51,46.49c-.05.22-.1.45-.17.67a33.49,33.49,0,0,1-1.08,3.44c-.06.15-.11.3-.17.44a33.44,33.44,0,0,1-2,4.28A35.1,35.1,0,0,1,30.3,63.16a35.83,35.83,0,0,1-5.44-7.07c-.33-.56-.64-1.12-.93-1.69a33.6,33.6,0,0,1-1.66-3.73c-.12-.33-.24-.66-.35-1A35.76,35.76,0,0,1,30.3,12.92a35.07,35.07,0,0,1,49.89,0A35.42,35.42,0,0,1,90.51,38a35.9,35.9,0,0,1-.31,4.76A32.85,32.85,0,0,1,89.51,46.49Z"/><path class="cls-4" d="M72.61,40.78c-.61-1.1-2-3.17-2-3.17h.61s1-.86-.55-3.11c-1-1.16,0-.73-.55-2.8a39.45,39.45,0,0,0-1.64-4.58c-.19-.48-1.47-5.11-1.83-5.48l4.2-1.83a1.77,1.77,0,0,0,.79-2.25c-.66-1.4-2.55-5.43-3.47-5.85l-1-1.65-.86-.24-1-1.18-.09-.1a3.16,3.16,0,0,0-2.07-1.95,2.05,2.05,0,0,0,.12-.75c-.25-.68-.9-.54-1.29-.38a.63.63,0,0,0-.69-.06s-.92.06-1,.24l-.73.19s-.85-.06-1.1.61c0,0-.42.24-.36.6a1.24,1.24,0,0,0-1,.13l-.08.06s-.85-2.75-2.31-3A4.91,4.91,0,0,0,49.3,6.5a5.43,5.43,0,0,0,.42,3.81,1.15,1.15,0,0,0,.07.15s-.73.3.12,1.64a4.26,4.26,0,0,0,.44.6L26.23,26.91a1.14,1.14,0,0,0-1.37.83c-.36,1.09-.28,3.06,1.55,3.06a3.17,3.17,0,0,0,0-3.57s19.93-11.49,24.3-14.17c.38.31.6.26.6.26l.24.86h-.2c-.39,0-1.17.18-1.07.94l-1.56,1,.49.42s-.25.49.36,1.28l-.3,2.5S49,21,52.07,26a3.8,3.8,0,0,1,.55,1.7,4,4,0,0,1,.67,1.59c0,.61,1.46,2.13,1.4,3s.61,2.8.25,4.2-.95,2.28.34,2.32h.09a20,20,0,0,0-1,7.61c.42,3.42.67,11.59.42,11.95a12.73,12.73,0,0,0-2.4,3.76h0l0,.13h0c-.25,1-.86.67-.86,1.83,0,.47-.15.57-.48,1h0l0,0a0,0,0,0,1,0,0h0l0,0s0,0,0,0h0c-.47.62-1.27,1.92-2.4,5.54-.78,1.13-1.37,2.18-1.54,2.47-1.11.22-1.87,1.82-1.87,3.2a19.35,19.35,0,0,1-.6,3.93,6.15,6.15,0,0,0,.46,4.84c3.42,3,4.11-1.23,4-1.87s-.23-1.73,0-2a2.36,2.36,0,0,0,.31-.87c.61.41,1.21.57,1.67.25l9.26-17.5,2-4.63s-.55,5.49-.31,6.58-1.64,13.23-1.7,17.07l1.11.26A4.6,4.6,0,0,1,58,83.5c-.81-.06-1,.77-1,1.38a4.13,4.13,0,0,0,0,.63c2.65.82,10.33.27,10.33.27a1,1,0,0,0,.1-.35,8.82,8.82,0,0,0-.15-2c.12,0,.2-.1.22-.19a57.14,57.14,0,0,1,1-6c.43-1,1.71-9.57,1.71-9.57s.3-4.57.37-6.21,1-10.85,1-10.85,1.16-3.9.43-5C72,45.59,73.22,41.88,72.61,40.78ZM54.43,15.19h0Zm-.09,0h0Zm-.08,0h0Zm-.08,0h0ZM52.93,15l-.06,0Zm1.16.1h0Zm-.09,0-.11,0h0Zm-.18,0h0Zm-.15,0h0Zm-.13,0h0Zm-.13,0h0Zm-.14,0-.07,0Zm-.16-.06-.07,0Zm4.78-5,1.46.73,2.44-.18.09.09.34.34a2.36,2.36,0,0,0,.42,1.28c.43.55.07,1.4-.3,1.46a5.71,5.71,0,0,0-1.77.61c-.24.24-2.24.24-2.31-.06h0a9.37,9.37,0,0,0-.55-1.28A7.06,7.06,0,0,0,57.89,10.09Z"/></g></g></svg>