<svg xmlns="http://www.w3.org/2000/svg" viewBox="0 0 111.59 92.92"><defs><style>.cls-1{fill:#ff7c96;}.cls-2{fill:#ede9e0;}.cls-3{fill:#324b58;}.cls-4{fill:#b6defa;}</style></defs><g id="Calque_2" data-name="Calque 2"><g id="_cycling" data-name="
cycling"><path class="cls-1" d="M71.45,16.51h0c-.64,0-1.32,0-2-.08a20.72,20.72,0,0,1-6.2-1.59s-.47-.21-1.17-.46A14.64,14.64,0,0,0,56.44,13h-.59l-.51,0h0a15.74,15.74,0,0,0-6,1.5l-.17.06a22.47,22.47,0,0,1-6.83,1.85c-.7.05-1.37.08-2,.08h0a15.51,15.51,0,0,1-4.74-.63l.07,21.59a.41.41,0,0,1,0,.19l0,.05a45.24,45.24,0,0,0,.21,6.52,6.66,6.66,0,0,1,.15.65,23.84,23.84,0,0,0,1.64,5.17l0,.1.46.92a27.33,27.33,0,0,0,6.12,7.84l.11.11c1.89,1.86,3.89,3.7,6,5.47a57.75,57.75,0,0,0,5.5,4.36h.11l.66-.49.17-.13A39.83,39.83,0,0,0,60,65.67a103.89,103.89,0,0,0,8.85-8.14l0,0a23.5,23.5,0,0,0,3.51-4.32l0,0a24.11,24.11,0,0,0,1.44-2.52.11.11,0,0,1,0-.08,22.17,22.17,0,0,0,2-6.07.19.19,0,0,1,0-.1c.05-.33.08-.65.11-.95s0-.67,0-.74v0l.18-26.8a19,19,0,0,1-3.79.64Z"/><path class="cls-2" d="M97.23,55.47c2.72-.84,4-3.19,4-7l-3.52,2.49a22.78,22.78,0,0,0-.24-4.3c1.16-2.3.67-4.57-1.62-7.13a5,5,0,0,0,1.09,6.85,25.13,25.13,0,0,1,0,5.53,11.7,11.7,0,0,0-2.59-4.31q-.74,5,2.14,8.06a14.85,14.85,0,0,1-1.15,3.8q-1-4.59-2.82-6.25-1.68,5.46,1.67,8.56l-2,3.11a11.51,11.51,0,0,0-1.47-6.89q-3.1,4.55-.28,8.59A9.73,9.73,0,0,1,87,68.93a8,8,0,0,0,.38-6.49Q84,66.12,85.26,69.93a16.62,16.62,0,0,1-4.07,1.43q3-3.21,2.11-5.67-3.8,1.41-3.9,5.88l-1.7.5.82.83,2-.79A8.3,8.3,0,0,0,86,74.57a6,6,0,0,0,2-.35,13.68,13.68,0,0,0-4.54-2.75l2.15-.9a7.59,7.59,0,0,0,4,1.36,5.22,5.22,0,0,0,4.08-2.14,12.31,12.31,0,0,0-5-.88l2.21-1.76a8,8,0,0,0,1.49.16A5.21,5.21,0,0,0,97.26,64a21.2,21.2,0,0,0-3.8.52L95,62.27c2.9-.28,4.58-2,5-5h-.13c-1.7,0-2.61,1.23-3.46,1.3A13.32,13.32,0,0,0,97.23,55.47Z"/><path class="cls-2" d="M31.05,71.62q-.07-4.47-3.87-5.9c-.56,1.64.13,3.54,2.08,5.68A17.21,17.21,0,0,1,25.2,70q1.29-3.81-2.13-7.5A8,8,0,0,0,23.43,69a9.78,9.78,0,0,1-3.37-2.41q2.85-4-.25-8.59a11.55,11.55,0,0,0-1.49,6.88l-2-3.12q3.34-3.09,1.7-8.55-1.82,1.65-2.85,6.24a15.12,15.12,0,0,1-1.13-3.8,9.28,9.28,0,0,0,2.17-8.06,11.84,11.84,0,0,0-2.61,4.31,25.1,25.1,0,0,1,0-5.53,5.06,5.06,0,0,0,1.11-6.86c-2.3,2.56-2.8,4.83-1.64,7.13a22,22,0,0,0-.26,4.3l-3.52-2.5c-.07,3.86,1.24,6.21,3.95,7.06a14.31,14.31,0,0,0,.82,3.08c-.85-.08-1.75-1.32-3.46-1.32h-.12c.43,3.07,2.1,4.76,5,5L17,64.55A21.52,21.52,0,0,0,13.22,64a5.23,5.23,0,0,0,4.86,3.29,6.93,6.93,0,0,0,1.46-.16l2.21,1.77a12.38,12.38,0,0,0-5,.87,5.25,5.25,0,0,0,4.1,2.15,7.65,7.65,0,0,0,4-1.35L27,71.5a13.49,13.49,0,0,0-4.55,2.74,6.15,6.15,0,0,0,2,.36,8.29,8.29,0,0,0,5.45-2.45l2,.81.81-.83Z"/><polygon class="cls-3" points="107.71 32.49 108.14 36.38 111.59 38.22 108.02 39.83 107.33 43.68 104.7 40.79 100.83 41.32 102.76 37.92 101.06 34.41 104.89 35.2 107.71 32.49"/><polygon class="cls-3" points="4.18 32.49 6.85 35.34 10.71 34.76 8.83 38.18 10.58 41.67 6.74 40.94 3.96 43.68 3.47 39.8 0 38 3.54 36.34 4.18 32.49"/><path class="cls-3" d="M105.19,44.7c0,.13,0,.25,0,.38h0A50.44,50.44,0,0,1,90.7,77a49.63,49.63,0,0,1-70.61,0A50.41,50.41,0,0,1,5.65,45.45H4.56c2,26.66,24.29,47.47,50.83,47.47s49-21,50.87-47.84v0c0-.13,0-.24,0-.35Z"/><path class="cls-3" d="M55.25,0A38.08,38.08,0,0,0,19.46,50a36.67,36.67,0,0,0,1.78,4.46,37.55,37.55,0,0,0,69.53-3.69,34.29,34.29,0,0,0,1.08-3.66c.06-.22.11-.43.15-.65h0c.21-.89.38-1.8.51-2.71A38.06,38.06,0,0,0,55.25,0ZM89.51,46.49c-.05.22-.1.45-.17.67a33.49,33.49,0,0,1-1.08,3.44c-.06.15-.11.3-.17.44a33.44,33.44,0,0,1-2,4.28A35.1,35.1,0,0,1,30.3,63.16a35.83,35.83,0,0,1-5.44-7.07c-.33-.56-.64-1.12-.93-1.69a33.6,33.6,0,0,1-1.66-3.73c-.12-.33-.24-.66-.35-1A35.76,35.76,0,0,1,30.3,12.92a35.07,35.07,0,0,1,49.89,0A35.42,35.42,0,0,1,90.51,38a35.9,35.9,0,0,1-.31,4.76A32.85,32.85,0,0,1,89.51,46.49Z"/><path class="cls-4" d="M58.34,69.61s0-.53.29-.69l-.4-.53s-.6,0-.4.69ZM60,65.14a1.79,1.79,0,0,0-1.2.18S59.54,65.9,60,65.14Zm7.65-9.85A14,14,0,0,0,66,52.78s-.24-.73-.66,0c0,0-.71,1.92-.45,2.1a10.44,10.44,0,0,1,1.62,1.44A8.64,8.64,0,0,1,67.61,55.29Zm1.52-1.64a8,8,0,0,1-1-2l-1-2c-.34,0-1,1.6-1,1.6a29.24,29.24,0,0,1,2.58,2.91C68.68,53.9,69.13,53.65,69.13,53.65ZM73.8,67c-2.51-.22-9.11,2.21-9.11,2.21a3,3,0,0,0,.63,1.33L76,69.46,75.73,69c0-.6-.38-.47-.38-.47C73.28,68.39,73.8,67,73.8,67Zm-4.06-.52,3.15-.46.31.08c-.31-.08-.19-.68-.19-.68Zm2.83-6.93L75,63.75s1.44-.27,1.75.71c0,0,.79,1.31-.28,1.81a2.76,2.76,0,0,1,.22,1.49.88.88,0,0,1,.6.87s.19,1-.76,1l-11,1.17s3.79,6.44,10.25,5.37c0,0,9.9-.51,10.23-12,0,0-.17-8.4-10.69-9.71a9.64,9.64,0,0,0-5.45,1.66A14.62,14.62,0,0,1,72.57,59.58Zm.68,5.16c0-.36.6-.82.6-.82l-1.93-3.08A15.08,15.08,0,0,0,68.53,57l-.1.27c2,2-.69,3.22-.69,3.22a16,16,0,0,0-3,2.15c-.19.33.1.88.1.88.22.9-.43.79-.43.79a9.9,9.9,0,0,0,0,2.7Zm-22.15-9c-.51-.54-.21-.89-.21-.89.28-.32.78.28.78.28,1-1.28,2.58,1.21,2.58,1.21,0,.42,3.12,3.46,3.12,3.46.2.5-.89,1.45-.89,1.45a1.94,1.94,0,0,1-1.21.58L58.41,65c.33-.48,1.65-.5,1.65-.5-1.85-.85.15-1.9.15-1.9,1.07-.35,1.87-4.67,1.87-4.67.65-1.42-2.34-3.37-2.34-3.37-1-.38-4.6-3.78-4.6-3.78l-7.57.49c-1.5.27-.45,1.35-.45,1.35l3.67,4.34C50.41,55.85,51.1,55.7,51.1,55.7Zm6,13.14a1.06,1.06,0,0,0,0,1.15s.4.07.27-.36A2.71,2.71,0,0,1,57.14,68.84Zm0-.5a1.36,1.36,0,0,1,.18-.82L57,67.14a2.34,2.34,0,0,0-.22,1.5ZM40.05,64.56c-.76.34-1.09,1.61-1.09,1.61.24,1.6-.89,1.6-.89,1.6a.62.62,0,0,1-.71-.58l-.09-.62a.94.94,0,0,1,1-1.11,4.16,4.16,0,0,1,.58-2.12,34.23,34.23,0,0,0,1.42-3.87c0-.89,2-3.46,2-3.46C28.05,53.56,26.6,66.21,26.6,66.21c.33,9.92,9.49,11.34,9.49,11.34C49,78.32,49.28,67.08,49.28,67.08,49,59.12,44.1,57,44.1,57a3.93,3.93,0,0,1-.76,1.5,12.6,12.6,0,0,0-1.89,3.32A5.6,5.6,0,0,1,40.05,64.56Zm-.44-15.05c-.19,2.05,3.84,2.4,3.84,2.4,0-.19.43-.41.43-.41a8.46,8.46,0,0,1,.51-2.09l-.45,0a1,1,0,0,1-.33.71A10.15,10.15,0,0,1,39.61,49.51Zm2.06,3.85,0-.29s-3.17-.88-3.18-2.35c0,0-.64-.89-1.1-.27,0,0-.68.44-.9,0,0,0-.73.57-.57-.45,0,0-.54-.14-.49-1,0,0-.76-.66-.11-2.09,0,0-.49-1.71.19-2.42a2.57,2.57,0,0,0,.72-.93,1,1,0,0,1,1.31-.8,3.49,3.49,0,0,0,2.49-.67,27.22,27.22,0,0,0,3.35-3,8.36,8.36,0,0,1,2.14-1.84s2.91-2.54,3.22-4.81a4.26,4.26,0,0,1,.32-1.31,3.28,3.28,0,0,1,.75-1.86s0-.56-1.15-.32c0,0-.7.12-1-.13a1,1,0,0,0-.82.13s-.85.27-.76-.71a.61.61,0,0,0-.14-.53s-.22-.22-.06-.4a.43.43,0,0,0-.25-.29.49.49,0,0,1-.26-.53s.15-.38-.18-.4c0,0-1.14.06-.64-1.09a3,3,0,0,0,.4-1.45s-.07-.62.06-.64.21-.18-.15-.22c0,0-.43.17-.82-.4,0,0-.34-.4.28-.71,0,0-.47-.4.09-1,0,0,1.67-2.8,4.05-2.82a10.28,10.28,0,0,1,3.49.6s2,.78,2.58.91c0,0,.78.25.17.71a1.31,1.31,0,0,0-.26,1.18s.24.56-.2.56c0,0-.51.2-.18.39,0,0,.4,1-.82,1.27,0,0-.2,1.4,1,1.3a2.75,2.75,0,0,1,1.59.33,2.91,2.91,0,0,0,1.68.51,25.65,25.65,0,0,1,5.76,2.24,4.59,4.59,0,0,0,2.54.74,4.39,4.39,0,0,1,3.56,3.27s-.08.11.39.61c0,0,.58.19.27.92,0,0-.22.45.11.6,0,0,5.51,7.64.76,9.34a1.82,1.82,0,0,0-1.49,1.15l-2.16,5.14,1,2.18a4.57,4.57,0,0,1,.87,1.17,1.3,1.3,0,0,1,.89.83,14.45,14.45,0,0,1,5.69-1.05s12.58,1.16,12.14,12.8c0,0-.8,12.14-13.23,12.79,0,0-6.4.65-10.76-6.36a1.24,1.24,0,0,1-2,.79s-2.83-.65-3.54.06a.75.75,0,0,1-.33,1s-.38.93-1.12.82c0,0-.71-.11-.38-1.12,0,0-1.17,0-1.2-1,0,0-1.72-.24-1.61-1.39,0,0,.06-.73,1.67-.46,0,0,1.28.3,1.11-.57,0,0-1.06-1,0-3.47l-9-10.44s-2-2.07-2.7-.44c0,0,6.75,3.66,6.24,11.59,0,0-1.23,12.5-14.1,12.21,0,0-11.49-.22-12-13.31,0,0,.36-12.5,16.07-12.14C41,54,41.18,53.36,41.67,53.36Zm.43-.26c-.11,1.2.33,1.35.33,1.35.2.06.42-1,.42-1H43l.06-.29Zm19.29-5.85c.16-1-.53-.6-.53-.6a8.65,8.65,0,0,1-2.12.31c-1-.07-.22.67-.22.67a8.34,8.34,0,0,1,2.42,2.16C61.25,49.58,61.39,47.25,61.39,47.25ZM60.28,40C59.88,39,56,36.82,56,36.82a9.39,9.39,0,0,1-2.67-2c-1.07.28-2.4,4.54-2.4,4.54a4.27,4.27,0,0,1-1.89,3,31.3,31.3,0,0,0-4.16,2.48c1.91.5.2,1.07.2,1.07l0,.36h.22c.36-.49,1.16-.14,1.16-.14a1,1,0,0,1,.38,1.11c-.12.8-.61.9-.61.9-.18,1.37,1.25,1.26,1.25,1.26l6.11-.07C47.67,43.78,60.28,40,60.28,40Z"/></g></g></svg>