<svg xmlns="http://www.w3.org/2000/svg" viewBox="0 0 111.59 92.92"><defs><style>.cls-1{fill:#ff7c96;}.cls-2{fill:#ede9e0;}.cls-3{fill:#324b58;}.cls-4{fill:#b6defa;}</style></defs><g id="Calque_2" data-name="Calque 2"><g id="foorball"><path class="cls-1" d="M71.45,16.51h0c-.64,0-1.32,0-2-.08a20.72,20.72,0,0,1-6.2-1.59s-.47-.21-1.17-.46A14.64,14.64,0,0,0,56.44,13h-.59l-.51,0h0a15.74,15.74,0,0,0-6,1.5l-.17.06a22.47,22.47,0,0,1-6.83,1.85c-.7.05-1.37.08-2,.08h0a15.51,15.51,0,0,1-4.74-.63l.07,21.59a.41.41,0,0,1,0,.19l0,.05a45.24,45.24,0,0,0,.21,6.52,6.66,6.66,0,0,1,.15.65,23.84,23.84,0,0,0,1.64,5.17l0,.1.46.92a27.33,27.33,0,0,0,6.12,7.84l.11.11c1.89,1.86,3.89,3.7,6,5.47a57.75,57.75,0,0,0,5.5,4.36h.11l.66-.49.17-.13A39.83,39.83,0,0,0,60,65.67a103.89,103.89,0,0,0,8.85-8.14l0,0a23.5,23.5,0,0,0,3.51-4.32l0,0a24.11,24.11,0,0,0,1.44-2.52.11.11,0,0,1,0-.08,22.17,22.17,0,0,0,2-6.07.19.19,0,0,1,0-.1c.05-.33.08-.65.11-.95s0-.67,0-.74v0l.18-26.8a19,19,0,0,1-3.79.64Z"/><path class="cls-2" d="M97.23,55.47c2.72-.84,4-3.19,4-7l-3.52,2.49a22.78,22.78,0,0,0-.24-4.3c1.16-2.3.67-4.57-1.62-7.13a5,5,0,0,0,1.09,6.85,25.13,25.13,0,0,1,0,5.53,11.7,11.7,0,0,0-2.59-4.31q-.74,5,2.14,8.06a14.85,14.85,0,0,1-1.15,3.8q-1-4.59-2.82-6.25-1.68,5.46,1.67,8.56l-2,3.11a11.51,11.51,0,0,0-1.47-6.89q-3.1,4.55-.28,8.59A9.73,9.73,0,0,1,87,68.93a8,8,0,0,0,.38-6.49Q84,66.12,85.26,69.93a16.62,16.62,0,0,1-4.07,1.43q3-3.21,2.11-5.67-3.8,1.41-3.9,5.88l-1.7.5.82.83,2-.79A8.3,8.3,0,0,0,86,74.57a6,6,0,0,0,2-.35,13.68,13.68,0,0,0-4.54-2.75l2.15-.9a7.59,7.59,0,0,0,4,1.36,5.22,5.22,0,0,0,4.08-2.14,12.31,12.31,0,0,0-5-.88l2.21-1.76a8,8,0,0,0,1.49.16A5.21,5.21,0,0,0,97.26,64a21.2,21.2,0,0,0-3.8.52L95,62.27c2.9-.28,4.58-2,5-5h-.13c-1.7,0-2.61,1.23-3.46,1.3A13.32,13.32,0,0,0,97.23,55.47Z"/><path class="cls-2" d="M31.05,71.62q-.07-4.47-3.87-5.9c-.56,1.64.13,3.54,2.08,5.68A17.21,17.21,0,0,1,25.2,70q1.29-3.81-2.13-7.5A8,8,0,0,0,23.43,69a9.78,9.78,0,0,1-3.37-2.41q2.85-4-.25-8.59a11.55,11.55,0,0,0-1.49,6.88l-2-3.12q3.34-3.09,1.7-8.55-1.82,1.65-2.85,6.24a15.12,15.12,0,0,1-1.13-3.8,9.28,9.28,0,0,0,2.17-8.06,11.84,11.84,0,0,0-2.61,4.31,25.1,25.1,0,0,1,0-5.53,5.06,5.06,0,0,0,1.11-6.86c-2.3,2.56-2.8,4.83-1.64,7.13a22,22,0,0,0-.26,4.3l-3.52-2.5c-.07,3.86,1.24,6.21,3.95,7.06a14.31,14.31,0,0,0,.82,3.08c-.85-.08-1.75-1.32-3.46-1.32h-.12c.43,3.07,2.1,4.76,5,5L17,64.55A21.52,21.52,0,0,0,13.22,64a5.23,5.23,0,0,0,4.86,3.29,6.93,6.93,0,0,0,1.46-.16l2.21,1.77a12.38,12.38,0,0,0-5,.87,5.25,5.25,0,0,0,4.1,2.15,7.65,7.65,0,0,0,4-1.35L27,71.5a13.49,13.49,0,0,0-4.55,2.74,6.15,6.15,0,0,0,2,.36,8.29,8.29,0,0,0,5.45-2.45l2,.81.81-.83Z"/><polygon class="cls-3" points="107.71 32.49 108.14 36.38 111.59 38.22 108.02 39.83 107.33 43.68 104.7 40.79 100.83 41.32 102.76 37.92 101.06 34.41 104.89 35.2 107.71 32.49"/><polygon class="cls-3" points="4.18 32.49 6.85 35.34 10.71 34.76 8.83 38.18 10.58 41.67 6.74 40.94 3.96 43.68 3.47 39.8 0 38 3.54 36.34 4.18 32.49"/><path class="cls-3" d="M105.19,44.7c0,.13,0,.25,0,.38h0A50.44,50.44,0,0,1,90.7,77a49.63,49.63,0,0,1-70.61,0A50.41,50.41,0,0,1,5.65,45.45H4.56c2,26.66,24.29,47.47,50.83,47.47s49-21,50.87-47.84v0c0-.13,0-.24,0-.35Z"/><path class="cls-3" d="M55.25,0A38.08,38.08,0,0,0,19.46,50a36.67,36.67,0,0,0,1.78,4.46,37.55,37.55,0,0,0,69.53-3.69,34.29,34.29,0,0,0,1.08-3.66c.06-.22.11-.43.15-.65h0c.21-.89.38-1.8.51-2.71A38.06,38.06,0,0,0,55.25,0ZM89.51,46.49c-.05.22-.1.45-.17.67a33.49,33.49,0,0,1-1.08,3.44c-.06.15-.11.3-.17.44a33.44,33.44,0,0,1-2,4.28A35.1,35.1,0,0,1,30.3,63.16a35.83,35.83,0,0,1-5.44-7.07c-.33-.56-.64-1.12-.93-1.69a33.6,33.6,0,0,1-1.66-3.73c-.12-.33-.24-.66-.35-1A35.76,35.76,0,0,1,30.3,12.92a35.07,35.07,0,0,1,49.89,0A35.42,35.42,0,0,1,90.51,38a35.9,35.9,0,0,1-.31,4.76A32.85,32.85,0,0,1,89.51,46.49Z"/><path class="cls-3" d="M34,35.2c-1.39-3.2,2-3.36,2.07-3.36h0a3.81,3.81,0,0,1,1.05.68,1.81,1.81,0,0,0-2.49.82,2.89,2.89,0,0,0,.11,1.09A4.44,4.44,0,0,0,34,35.2Z"/><path class="cls-2" d="M34.67,31.61a2.91,2.91,0,0,1,1.38.23c-.12,0-3.46.16-2.07,3.36-.18.23-.93.19-.93.19-.88-.35-1.65-2.26-1.65-2.26a1.85,1.85,0,0,1,.36-.57,2.42,2.42,0,0,1,.5-.4A3.58,3.58,0,0,1,34.67,31.61Z"/><path class="cls-2" d="M37.73,33.22l-.42.1a3.52,3.52,0,0,0-2.37,1,.5.5,0,0,0-.22.11,2.89,2.89,0,0,1-.11-1.09,1.81,1.81,0,0,1,2.49-.82A4.19,4.19,0,0,1,37.73,33.22Z"/><path class="cls-2" d="M37.72,34.07a3.57,3.57,0,0,1-1,1s-.68-.24-.26-.49A5.76,5.76,0,0,0,37.72,34.07Z"/><path class="cls-4" d="M37.72,34.07a5.76,5.76,0,0,1-1.25.55c-.42.25.26.49.26.49A3.57,3.57,0,0,0,37.72,34.07Zm23.51.87a.44.44,0,0,1,.21.45s.28.27-.38.72a8.1,8.1,0,0,0-1.3.74,8.69,8.69,0,0,1-2.3,1s-.81.23-1.23.3a6.38,6.38,0,0,1-3.93-.34,5.52,5.52,0,0,1-2.18-1.54,18.16,18.16,0,0,1-1.4-1.58,10.34,10.34,0,0,0-.86,1.65s-.77,1.3-1,1.56a14.34,14.34,0,0,0-1.33,2.62,15.23,15.23,0,0,1-1.3,2.17,5.42,5.42,0,0,0-.44,1.21,11.73,11.73,0,0,1-.37,1.55l-.1.8a.66.66,0,0,1-.56.79L42.42,47a8.47,8.47,0,0,0-1.11,2.15,18.71,18.71,0,0,0-.91,3.14,13.64,13.64,0,0,1-1.31,4.32,48.45,48.45,0,0,1-3.53,3.66,5.84,5.84,0,0,1-1.89,2.81,6.09,6.09,0,0,1-2.62,1.18s-3.85,2.74-6,4c0,0-2.88,1.7-3.34,2.49a3.67,3.67,0,0,1,.13,1.63,1.54,1.54,0,0,0,.85,1.24s1.44.13,1.25,1c0,0-.14.78-2.23.65a11.13,11.13,0,0,1-4.44-1.37l-1.18-.85a1.08,1.08,0,0,1-.26-1.83s1.11-1.5,2.16-1.63l2.68-2.1s2.42-2.35,3.4-3.4A27,27,0,0,1,27.46,61a7.86,7.86,0,0,0,.9-.33l.83-1,1-1.16-.48-.42a20.64,20.64,0,0,1-3.4-1.65,9.58,9.58,0,0,0-3.53-.77,2.16,2.16,0,0,1-1.19.47s-2.22.55-2.86.76l-1.62.75s-1.44.9-1.95-.19c0,0-.65-2.6,2.48-4.32l3.16-1.42a2.29,2.29,0,0,1,2.79-.3l.84.67s.46.3.21.47c0,0,3.14.48,3.88.46a6.62,6.62,0,0,1,2.19.51l.23.12s-.35-4.12-.61-5.76a8.15,8.15,0,0,1,1.45-5.65l.67-.89s-.21-.32.4-.65c0,0,1-.6,1.2-.77a2.2,2.2,0,0,0,.19-1.06L34.15,38l-.42,0-.07-.16a9.05,9.05,0,0,1-1.49-.79s-1.69-1-2.53-1.42a13.2,13.2,0,0,1-2.93-2.46,1.08,1.08,0,0,1,.14-1.51,4.21,4.21,0,0,1,1.69-1.09l.56-.31,1-.48,2.79-1.21s.07-.19.46-.35a2.75,2.75,0,0,1,.42-1.7A3.06,3.06,0,0,1,36,24.72a10,10,0,0,1,3.46-.14l1.38,0a1.56,1.56,0,0,0,.72-.39l0-.37a2.65,2.65,0,0,1-.47-2l.19-1.47s-.67-1.74,1.56-3.44c0,0,4-2.25,6.79.93a4.42,4.42,0,0,1,1.06,2.77l.28.49s.21.65,0,.83l-1.16.17-.07.95s-.05,1.16-.28,1.37l-.14.37s2.11.84,2.58,2.35c0,0,1,1.56.33,2.61l-.73.88a.66.66,0,0,0,0,.56.59.59,0,0,0,.25.53s.26.14.54.79a5,5,0,0,0,1,1.49,7.22,7.22,0,0,1,1.51,1.05,3.33,3.33,0,0,0,1.07.64,1.18,1.18,0,0,1,.72-1.06A6,6,0,0,0,57.6,34s.49-.6.91-.56c0,0,.46,0,.42.38,0,0,1.51-.66,2-.45,0,0,.3.24.07.47l-.33.32s.61,0,.75.28A.75.75,0,0,1,61.23,34.94ZM37.31,33.32l.42-.1a4.19,4.19,0,0,0-.63-.7,3.81,3.81,0,0,0-1.05-.68h0a2.91,2.91,0,0,0-1.38-.23,3.58,3.58,0,0,0-2.41.55,2.42,2.42,0,0,0-.5.4.78.78,0,0,1-.52.22l.16.35s.77,1.91,1.65,2.26c0,0,.75,0,.93-.19a4.44,4.44,0,0,1,.74-.77.5.5,0,0,1,.22-.11A3.52,3.52,0,0,1,37.31,33.32Z"/><path class="cls-2" d="M51.5,24.75l-.64-.36-.48-.31a1.2,1.2,0,0,1-.21-.16,2.72,2.72,0,0,1,.09-.55,1.35,1.35,0,0,1,.47-.81l.23-.07a.66.66,0,0,0,.5-.64v0a.6.6,0,0,0-.15-.42l-.08-.08-.1.05a3,3,0,0,1-1.35.22c-.45,0-.9,0-1.25-.07L48,21.45a5,5,0,0,0-1.18-.15,1.67,1.67,0,0,0-.72.12,2.45,2.45,0,0,0-1,.9,6.41,6.41,0,0,0-.47.72h0l-.39,1a.83.83,0,0,0-.66.57.75.75,0,0,0,0,.49l0,0h0c2,2.65,6,2.8,6,2.81h.06c.55-.19,1-.92,1.41-1.61A12.9,12.9,0,0,0,51.6,25l.09-.22ZM49.86,24v0l0,0a1.22,1.22,0,0,0,.33.29c.21.14.5.32.74.45-.26,0-.51,0-.74,0a11.53,11.53,0,0,1-2.51-.25c-.26-.07-.46-.13-.59-.18a.92.92,0,0,1-.18-.07h0A6.27,6.27,0,0,0,45.27,24l.15-.12,1.73-1.56a1.12,1.12,0,0,1,.28,0,3.1,3.1,0,0,1,.88.15,10,10,0,0,0,1.68.18h.27A3.09,3.09,0,0,0,49.86,24Zm-.59,3.63a3.94,3.94,0,0,1-.4-.05,2.62,2.62,0,0,0,.56-1.61.28.28,0,0,0,0-.09c.26,0,.54,0,.85,0a5.14,5.14,0,0,1-.45.91A9.34,9.34,0,0,1,49.27,27.59Zm1-2c-.31,0-.6,0-.86,0l0-.46.83,0h.21a2.1,2.1,0,0,1-.06.48Zm-4,0L44.83,26l-.29-.23a.93.93,0,0,0,1-.59l0-.17,0,.17h.09a3.54,3.54,0,0,1,.48,0C46.18,25.34,46.21,25.47,46.24,25.57Zm-.36-1.2a3.12,3.12,0,0,1,.18.51,3.3,3.3,0,0,0-.39,0h-.12a.92.92,0,0,0-.28-.54C45.46,24.33,45.67,24.34,45.88,24.37Zm.51.56a4.22,4.22,0,0,0-.16-.5,3.17,3.17,0,0,1,.57.14,6.76,6.76,0,0,0,2.28.49l0,.45-.47-.06a5.86,5.86,0,0,1-.63-.14A15.33,15.33,0,0,0,46.39,24.93Zm-1.53-1.75a6.36,6.36,0,0,1,.45-.68,2.3,2.3,0,0,1,.85-.8h0a1.32,1.32,0,0,1,.58-.09,4.65,4.65,0,0,1,1.12.15,14.31,14.31,0,0,0,1.89.15,3.73,3.73,0,0,0,1.36-.19.44.44,0,0,1,0,.13h0c0,.18-.09.27-.3.36a2.44,2.44,0,0,1-.87.12,7.17,7.17,0,0,1-1.09-.09l-.52-.08a3.49,3.49,0,0,0-1-.16,1,1,0,0,0-.41.06h0l-1.77,1.59-.41.34h-.28Zm.28,3,1.45-.42,0-.14-.09-.39a13.63,13.63,0,0,1,1.45.35,8.75,8.75,0,0,0,1.21.21v.12a2.27,2.27,0,0,1-.33,1.19c-.09.13-.17.24-.23.31l0,.06a10.2,10.2,0,0,1-1.17-.28A8.19,8.19,0,0,1,45.14,26.2Zm4.63,1.23a6.13,6.13,0,0,0,.81-1.56h.27l-.16.29A5.08,5.08,0,0,1,49.77,27.43ZM51,25.55l-.34,0a2.61,2.61,0,0,0,0-.48l.51,0C51.17,25.19,51.1,25.36,51,25.55Z"/><path class="cls-4" d="M87.48,32.1l.82,1.68-.56,0A5.65,5.65,0,0,0,87,32.19Z"/><path class="cls-4" d="M88.67,35.59a3.67,3.67,0,0,0,.59,1.63l-.59.25-.34-1.12-1.18,0,0,.84a2.81,2.81,0,0,0,.13.64L87,38l-.12-.31-2,.29-.21-.45,1.22-3.08-.66-1.83.38-.14a.51.51,0,0,0,.07.1c.21.42.72,1.72.72,1.72.09.57.31.59.31.59l0,0a3.33,3.33,0,0,1,1,.68Z"/><path class="cls-4" d="M101.22,41.92a1.13,1.13,0,0,1-.94,1s-1,0-1.33-.27l-.47-.44-.64-.6a.83.83,0,0,1-.37-.53,7.34,7.34,0,0,1-1.94-1.44s-.13-.27-1.07-.77L93,38.07c0,.11,1.63,3.63,1.57,4.82l-.41,2.24a5.27,5.27,0,0,1-.76,2.25.48.48,0,0,1-.11.09c-.63.47-.63.77-.63.77a4.66,4.66,0,0,0-.1,1.47,7.7,7.7,0,0,1-1.84,5.89,16.81,16.81,0,0,1-5.12,3.78s-1.67.57-2,1.51c0,0-.37,1-.6,1.14a10.33,10.33,0,0,1-3.32,5.58,21.92,21.92,0,0,0-2.87,3.08s-.14.44-.24.5l-.43.91a10.41,10.41,0,0,0-.57,1.4s.1,1.54-.94,1.71c0,0-2.07.33-2.81-.3,0,0-.73-.1-.07-1.84l.37-.67a2.18,2.18,0,0,1,.47-1.27l.3-.3s-.53-.94,1-.81l.56-.46s0-.51.31-.31c0,0,1.07-2.1,1.94-3.91a19.92,19.92,0,0,1,2-3.78l.6-1s-.23,0,.07-1a4.65,4.65,0,0,1,.82-2.63,62.25,62.25,0,0,0-6.65,2.3l-.9.56s-.33.17-.3,1.81A10.62,10.62,0,0,1,71.21,65a19.41,19.41,0,0,0-1.31,2.41l-.2.5-.16,1.14s0,.87,0,1.27c0,0,.33,2.61-1,3.14a10.46,10.46,0,0,1-2.74-.13,5.94,5.94,0,0,0-2,.54,4.21,4.21,0,0,1-3.65-.11,1.24,1.24,0,0,1-.8-1.2s-.24-.54,1.84-1a21.47,21.47,0,0,0,3.95-1.71,7.76,7.76,0,0,0,1.47-1.67s-.1-.57.13-.8A42.27,42.27,0,0,0,67.4,63a19.29,19.29,0,0,1,1.13-4.58s-.26-.43.37-1.87A34.89,34.89,0,0,1,73,52l.56-.54a2.07,2.07,0,0,1,.74-1.07s3-2.34,4.48-2.71c0,0-.23-.3.31-.84a1.61,1.61,0,0,0-.2-1.1A6.32,6.32,0,0,1,78.34,43s-1.74-.87-1.88-1.53a1.79,1.79,0,0,0-.37-1.54l-.7-1.51s-1.1,1.37-1.4,1.88a10.6,10.6,0,0,0-1.71,3A22.47,22.47,0,0,1,69.94,47l-.3.77a1.62,1.62,0,0,1-1.14,1.67s-1.07.37-1.57.61c0,0-.14-.11-.14.2,0,0,.3.67,0,.8a.58.58,0,0,1-.53.5.48.48,0,0,1-.73,0l-.67-.8s-.64-.7.46-1.81l.87-1a3,3,0,0,1,1.18-.47,5.47,5.47,0,0,0,.73-1.8s.33-4,1.84-5.69l1.31-2s-1-.13-.87-1.44l.16-1.9a7.78,7.78,0,0,1,1.84-3.72,7.13,7.13,0,0,1,2.06-1.19,3.62,3.62,0,0,1-1.06-2.2s-.79-4.76,2.91-6.46c0,0,5.61-1.85,6.74,3,0,0,.64,2.63.22,3.76,0,0,1.42-1.13,2.34-.28a8,8,0,0,1,3,.21s1.07.07,2.21,2.13l.91,1.05a3.92,3.92,0,0,1,.74,1.24l.47.37s.13.13-.07.73l-.27.47s1.54,1.07,2.24,1.68a5.18,5.18,0,0,0,1.44.9A6.23,6.23,0,0,1,99,38.77l.47.51a3.48,3.48,0,0,1,1.37,1A7.27,7.27,0,0,1,101.22,41.92Z"/><path class="cls-2" d="M87,38l.44,1.24a25.47,25.47,0,0,0-3.58.74,15,15,0,0,1-1-2.45s1.25-3,1.33-3.37c0,0-.36-1.16-.71-1.12,0,0-.5,0-.23.61l.4.54-1.45.61a3,3,0,0,0-.25-1,1.35,1.35,0,0,1-.1-1V32l1.56-.8s1.41.54,1.78,1.32l0,0,.66,1.83L84.65,37.5l.21.45,2-.29Z"/><path class="cls-2" d="M90.5,37.1a2.65,2.65,0,0,1,0,1.31.69.69,0,0,1-.56.44,1.78,1.78,0,0,1-1.29-.14l-1.17-.53a.68.68,0,0,1-.19-.32,2.81,2.81,0,0,1-.13-.64l0-.84,1.18,0,.34,1.12.59-.25a3.67,3.67,0,0,1-.59-1.63l-1,0a3.33,3.33,0,0,0-1-.68l0,0s-.22,0-.31-.59c0,0-.51-1.3-.72-1.72a.51.51,0,0,1-.07-.1,1.57,1.57,0,0,1-.1-1.17l.07-.35a1.93,1.93,0,0,1,.87-.26,1.67,1.67,0,0,1,1.26.21s1,.55,1.15,1a16.23,16.23,0,0,1,.91,2.7,5.06,5.06,0,0,0,.51,1.64A2.92,2.92,0,0,1,90.5,37.1Zm-2.2-3.32-.82-1.68-.46.09a5.65,5.65,0,0,1,.72,1.57Z"/></g></g></svg>