<svg xmlns="http://www.w3.org/2000/svg" viewBox="0 0 111.59 92.92"><defs><style>.cls-1{fill:#ff7c96;}.cls-2{fill:#ede9e0;}.cls-3{fill:#324b58;}.cls-4{fill:#b6defa;}</style></defs><g id="Calque_2" data-name="Calque 2"><g id="_baseball" data-name="
baseball"><path class="cls-1" d="M71.45,16.51h0c-.64,0-1.32,0-2-.08a20.72,20.72,0,0,1-6.2-1.59s-.47-.21-1.17-.46A14.64,14.64,0,0,0,56.44,13h-.59l-.51,0h0a15.74,15.74,0,0,0-6,1.5l-.17.06a22.47,22.47,0,0,1-6.83,1.85c-.7.05-1.37.08-2,.08h0a15.51,15.51,0,0,1-4.74-.63l.07,21.59a.41.41,0,0,1,0,.19l0,.05a45.24,45.24,0,0,0,.21,6.52,6.66,6.66,0,0,1,.15.65,23.84,23.84,0,0,0,1.64,5.17l0,.1.46.92a27.33,27.33,0,0,0,6.12,7.84l.11.11c1.89,1.86,3.89,3.7,6,5.47a57.75,57.75,0,0,0,5.5,4.36h.11l.66-.49.17-.13A39.83,39.83,0,0,0,60,65.67a103.89,103.89,0,0,0,8.85-8.14l0,0a23.5,23.5,0,0,0,3.51-4.32l0,0a24.11,24.11,0,0,0,1.44-2.52.11.11,0,0,1,0-.08,22.17,22.17,0,0,0,2-6.07.19.19,0,0,1,0-.1c.05-.33.08-.65.11-.95s0-.67,0-.74v0l.18-26.8a19,19,0,0,1-3.79.64Z"/><path class="cls-2" d="M97.23,55.47c2.72-.84,4-3.19,4-7l-3.52,2.49a22.78,22.78,0,0,0-.24-4.3c1.16-2.3.67-4.57-1.62-7.13a5,5,0,0,0,1.09,6.85,25.13,25.13,0,0,1,0,5.53,11.7,11.7,0,0,0-2.59-4.31q-.74,5,2.14,8.06a14.85,14.85,0,0,1-1.15,3.8q-1-4.59-2.82-6.25-1.68,5.46,1.67,8.56l-2,3.11a11.51,11.51,0,0,0-1.47-6.89q-3.1,4.55-.28,8.59A9.73,9.73,0,0,1,87,68.93a8,8,0,0,0,.38-6.49Q84,66.12,85.26,69.93a16.62,16.62,0,0,1-4.07,1.43q3-3.21,2.11-5.67-3.8,1.41-3.9,5.88l-1.7.5.82.83,2-.79A8.3,8.3,0,0,0,86,74.57a6,6,0,0,0,2-.35,13.68,13.68,0,0,0-4.54-2.75l2.15-.9a7.59,7.59,0,0,0,4,1.36,5.22,5.22,0,0,0,4.08-2.14,12.31,12.31,0,0,0-5-.88l2.21-1.76a8,8,0,0,0,1.49.16A5.21,5.21,0,0,0,97.26,64a21.2,21.2,0,0,0-3.8.52L95,62.27c2.9-.28,4.58-2,5-5h-.13c-1.7,0-2.61,1.23-3.46,1.3A13.32,13.32,0,0,0,97.23,55.47Z"/><path class="cls-2" d="M31.05,71.62q-.07-4.47-3.87-5.9c-.56,1.64.13,3.54,2.08,5.68A17.21,17.21,0,0,1,25.2,70q1.29-3.81-2.13-7.5A8,8,0,0,0,23.43,69a9.78,9.78,0,0,1-3.37-2.41q2.85-4-.25-8.59a11.55,11.55,0,0,0-1.49,6.88l-2-3.12q3.34-3.09,1.7-8.55-1.82,1.65-2.85,6.24a15.12,15.12,0,0,1-1.13-3.8,9.28,9.28,0,0,0,2.17-8.06,11.84,11.84,0,0,0-2.61,4.31,25.1,25.1,0,0,1,0-5.53,5.06,5.06,0,0,0,1.11-6.86c-2.3,2.56-2.8,4.83-1.64,7.13a22,22,0,0,0-.26,4.3l-3.52-2.5c-.07,3.86,1.24,6.21,3.95,7.06a14.31,14.31,0,0,0,.82,3.08c-.85-.08-1.75-1.32-3.46-1.32h-.12c.43,3.07,2.1,4.76,5,5L17,64.55A21.52,21.52,0,0,0,13.22,64a5.23,5.23,0,0,0,4.86,3.29,6.93,6.93,0,0,0,1.46-.16l2.21,1.77a12.38,12.38,0,0,0-5,.87,5.25,5.25,0,0,0,4.1,2.15,7.65,7.65,0,0,0,4-1.35L27,71.5a13.49,13.49,0,0,0-4.55,2.74,6.15,6.15,0,0,0,2,.36,8.29,8.29,0,0,0,5.45-2.45l2,.81.81-.83Z"/><polygon class="cls-3" points="107.71 32.49 108.14 36.38 111.59 38.22 108.02 39.83 107.33 43.68 104.7 40.79 100.83 41.32 102.76 37.92 101.06 34.41 104.89 35.2 107.71 32.49"/><polygon class="cls-3" points="4.18 32.49 6.85 35.34 10.71 34.76 8.83 38.18 10.58 41.67 6.74 40.94 3.96 43.68 3.47 39.8 0 38 3.54 36.34 4.18 32.49"/><path class="cls-3" d="M105.19,44.7c0,.13,0,.25,0,.38h0A50.44,50.44,0,0,1,90.7,77a49.63,49.63,0,0,1-70.61,0A50.41,50.41,0,0,1,5.65,45.45H4.56c2,26.66,24.29,47.47,50.83,47.47s49-21,50.87-47.84v0c0-.13,0-.24,0-.35Z"/><path class="cls-3" d="M55.25,0A38.08,38.08,0,0,0,19.46,50a36.67,36.67,0,0,0,1.78,4.46,37.55,37.55,0,0,0,69.53-3.69,34.29,34.29,0,0,0,1.08-3.66c.06-.22.11-.43.15-.65h0c.21-.89.38-1.8.51-2.71A38.06,38.06,0,0,0,55.25,0ZM89.51,46.49c-.05.22-.1.45-.17.67a33.49,33.49,0,0,1-1.08,3.44c-.06.15-.11.3-.17.44a33.44,33.44,0,0,1-2,4.28A35.1,35.1,0,0,1,30.3,63.16a35.83,35.83,0,0,1-5.44-7.07c-.33-.56-.64-1.12-.93-1.69a33.6,33.6,0,0,1-1.66-3.73c-.12-.33-.24-.66-.35-1A35.76,35.76,0,0,1,30.3,12.92a35.07,35.07,0,0,1,49.89,0A35.42,35.42,0,0,1,90.51,38a35.9,35.9,0,0,1-.31,4.76A32.85,32.85,0,0,1,89.51,46.49Z"/><path class="cls-4" d="M96.55,25.14a1.44,1.44,0,0,1,1.5,1.71s-.1,1.33-1.67,1.08L84.85,27s-6.57-.52-7.16-.42l0,.42s.25.8-1.32.39l-.32.34s-.17.6-1.15.77l-1,.32a6.84,6.84,0,0,1-1.16.07l-.45.21a1.66,1.66,0,0,1-.8.27s-1.75,1-2.87,1.65a24.61,24.61,0,0,1-6.39,3.25l-.87.24a1.69,1.69,0,0,1-1.3-.17l-1-.28L59,37.26s.48.14.52.52c0,0,.38,1.54,0,2l-.17.28,0,.28a11,11,0,0,1,1.15,1.61l.73.91a1.14,1.14,0,0,1,.46.52l.42.59a1.85,1.85,0,0,1,.45.95A17.61,17.61,0,0,1,64,47.63a25,25,0,0,1,1.36,3.22s.6,1.43.81,1.81a8.75,8.75,0,0,1,.63,1.16,3.7,3.7,0,0,1,.69,1l.67,1s1.08,1.85,1.29,2.41l.87,1.46.81,1a11,11,0,0,1,1.6,2.2L73.32,64l1.23,1.32a5.26,5.26,0,0,1,.94,1.37A10.54,10.54,0,0,1,78,68.35s1.71,1.67,2.34,2.3c0,0,1,.63.42,1v.31a9.48,9.48,0,0,0,1.74,1.58,3.76,3.76,0,0,0,1.61.24s2.1-.52,2.48,1a2,2,0,0,1-1.15,2.34,14.62,14.62,0,0,1-4.58,1,10,10,0,0,0-1.6.14s-4.23.64-4.37-.9a2.11,2.11,0,0,1,.07-1s-.25,0-.25-.52a2.08,2.08,0,0,0-.56-1.37l-.52-.42a1.2,1.2,0,0,1-.94-.76,1,1,0,0,0-.31-1A8.72,8.72,0,0,1,70,70.48l-3-3.92a5.62,5.62,0,0,1-.76-1.78s-.74-1.19-1.72-2.48l-2.23-2.79a3.92,3.92,0,0,1-.7-1.29l-.42-.49a3.24,3.24,0,0,1-1-1.12s-1.11-.7-1.22-1.08l-.56,5A3.45,3.45,0,0,1,57.08,63a34.93,34.93,0,0,1-8.21,6.12l-1.47.8-1.29,1a2.85,2.85,0,0,1-1.33.45,8.52,8.52,0,0,0-2,.7l-1.15.7a6.85,6.85,0,0,1-2.76,1.46.66.66,0,0,1-1-.31v-.49l-.48-1.22a4.75,4.75,0,0,0-1.05.76A1.17,1.17,0,0,1,35.53,74a1.84,1.84,0,0,1-.56.66,16.75,16.75,0,0,0-1.85,3,2.72,2.72,0,0,0-.11,1l.07.59s.56,1-.07,1.43A2.71,2.71,0,0,1,31,80.5,4.79,4.79,0,0,1,29,77.88a5.17,5.17,0,0,1,.31-3.28,2.6,2.6,0,0,0,.21-2.13s0-1.89.14-3c0,0-.11-1.68,1.22-1.54l.63.28a16.85,16.85,0,0,1,3.14.24.46.46,0,0,1,.25.42l1.33-.28.38-1.29.18-.63a.24.24,0,0,1,.31-.17l1.85.42s1.57-.77,2.76-1.44a13.89,13.89,0,0,1,1.92-1.22l1.22-.87a5.9,5.9,0,0,1,2.59-1.26l.32-.31s.55-.81,1.22-.7c0,0,.49,0,.59-.63V60a4.79,4.79,0,0,1,.07-1.82,1.61,1.61,0,0,1,0-.73A2.4,2.4,0,0,1,49.5,56s-.14-.1-.1-.66L49.29,54l0-.56a1,1,0,0,1,.07-.84.88.88,0,0,1-.11-1l-.07-.49a1.56,1.56,0,0,1,.11-.66,2,2,0,0,1-.32-1.15l-.28-.53L48,47.46s-.63-.11-.42-.84a6.44,6.44,0,0,1-.27-1.22v-.46s-.32-.17-.14-1.47l.24-1.18a1.6,1.6,0,0,1,0-1.3l.24-.83-.07-.77L46.36,38a7.21,7.21,0,0,1-1.19-2.69s-.56-1.23-1.43-2.76A7.32,7.32,0,0,1,42,29.05l-.38-2a5.68,5.68,0,0,1,.07-3,1.61,1.61,0,0,1,1-.9l.7-.21.42-.07a1.22,1.22,0,0,0-.1-.7,6.31,6.31,0,0,1-1.58-3.67,5.12,5.12,0,0,1-.38-2.62,4.13,4.13,0,0,1,3-3.42,3.34,3.34,0,0,1,2.06-.17A4.12,4.12,0,0,1,50.41,15l.38.87s2.27.81,2.48,1.22c0,0,1.16,1,.53,1.65a6.07,6.07,0,0,0,2.51.94,20.51,20.51,0,0,1,3.7.63l3.15.94,4.78,1.89.63-.14a2.87,2.87,0,0,1,1.05.17l.38.18a1.05,1.05,0,0,1,.91.07l1.29.07s.81-.25,1,.31l.21.45.25.25.87.1a4.84,4.84,0,0,1,1.5.07s1.12-.24.91.49l.07.28s6.36,0,8.28-.07A93.78,93.78,0,0,1,96.55,25.14ZM70.43,27l0-.17a6.62,6.62,0,0,1-1.47-1l-.69-.25L68,25.35s-.25-.25-1.82-.42c0,0-1.88-.14-3.74-.14l-3.56-.35a4.67,4.67,0,0,1-2.13-.56s-1.19-.49-1.82-.7l-1.5-.42-1.95-.63s.07.53-.11.7l-.07.56a7.47,7.47,0,0,1,4.37,1.15,7.62,7.62,0,0,1,2,2.41l.38.7a5.27,5.27,0,0,1,.35.88L59,30a3.13,3.13,0,0,0,2.72.42,33,33,0,0,1,4.05-1.23,33.5,33.5,0,0,0,3.85-1.64Z"/></g></g></svg>