<svg xmlns="http://www.w3.org/2000/svg" viewBox="0 0 111.59 92.92"><defs><style>.cls-1{fill:#ff7c96;}.cls-2{fill:#ede9e0;}.cls-3{fill:#324b58;}.cls-4{fill:#b6defa;fill-rule:evenodd;}</style></defs><g id="Calque_2" data-name="Calque 2"><g id="F1"><path class="cls-1" d="M71.45,16.51h0c-.64,0-1.32,0-2-.08a20.72,20.72,0,0,1-6.2-1.59s-.47-.21-1.17-.46A14.64,14.64,0,0,0,56.44,13h-.59l-.51,0h0a15.74,15.74,0,0,0-6,1.5l-.17.06a22.47,22.47,0,0,1-6.83,1.85c-.7.05-1.37.08-2,.08h0a15.51,15.51,0,0,1-4.74-.63l.07,21.59a.41.41,0,0,1,0,.19l0,.05a45.24,45.24,0,0,0,.21,6.52,6.66,6.66,0,0,1,.15.65,23.84,23.84,0,0,0,1.64,5.17l0,.1.46.92a27.33,27.33,0,0,0,6.12,7.84l.11.11c1.89,1.86,3.89,3.7,6,5.47a57.75,57.75,0,0,0,5.5,4.36h.11l.66-.49.17-.13A39.83,39.83,0,0,0,60,65.67a103.89,103.89,0,0,0,8.85-8.14l0,0a23.5,23.5,0,0,0,3.51-4.32l0,0a24.11,24.11,0,0,0,1.44-2.52.11.11,0,0,1,0-.08,22.17,22.17,0,0,0,2-6.07.19.19,0,0,1,0-.1c.05-.33.08-.65.11-.95s0-.67,0-.74v0l.18-26.8a19,19,0,0,1-3.79.64Z"/><path class="cls-2" d="M97.23,55.47c2.72-.84,4-3.19,4-7l-3.52,2.49a22.78,22.78,0,0,0-.24-4.3c1.16-2.3.67-4.57-1.62-7.13a5,5,0,0,0,1.09,6.85,25.13,25.13,0,0,1,0,5.53,11.7,11.7,0,0,0-2.59-4.31q-.74,5,2.14,8.06a14.85,14.85,0,0,1-1.15,3.8q-1-4.59-2.82-6.25-1.68,5.46,1.67,8.56l-2,3.11a11.51,11.51,0,0,0-1.47-6.89q-3.1,4.55-.28,8.59A9.73,9.73,0,0,1,87,68.93a8,8,0,0,0,.38-6.49Q84,66.12,85.26,69.93a16.62,16.62,0,0,1-4.07,1.43q3-3.21,2.11-5.67-3.8,1.41-3.9,5.88l-1.7.5.82.83,2-.79A8.3,8.3,0,0,0,86,74.57a6,6,0,0,0,2-.35,13.68,13.68,0,0,0-4.54-2.75l2.15-.9a7.59,7.59,0,0,0,4,1.36,5.22,5.22,0,0,0,4.08-2.14,12.31,12.31,0,0,0-5-.88l2.21-1.76a8,8,0,0,0,1.49.16A5.21,5.21,0,0,0,97.26,64a21.2,21.2,0,0,0-3.8.52L95,62.27c2.9-.28,4.58-2,5-5h-.13c-1.7,0-2.61,1.23-3.46,1.3A13.32,13.32,0,0,0,97.23,55.47Z"/><path class="cls-2" d="M31.05,71.62q-.07-4.47-3.87-5.9c-.56,1.64.13,3.54,2.08,5.68A17.21,17.21,0,0,1,25.2,70q1.29-3.81-2.13-7.5A8,8,0,0,0,23.43,69a9.78,9.78,0,0,1-3.37-2.41q2.85-4-.25-8.59a11.55,11.55,0,0,0-1.49,6.88l-2-3.12q3.34-3.09,1.7-8.55-1.82,1.65-2.85,6.24a15.12,15.12,0,0,1-1.13-3.8,9.28,9.28,0,0,0,2.17-8.06,11.84,11.84,0,0,0-2.61,4.31,25.1,25.1,0,0,1,0-5.53,5.06,5.06,0,0,0,1.11-6.86c-2.3,2.56-2.8,4.83-1.64,7.13a22,22,0,0,0-.26,4.3l-3.52-2.5c-.07,3.86,1.24,6.21,3.95,7.06a14.31,14.31,0,0,0,.82,3.08c-.85-.08-1.75-1.32-3.46-1.32h-.12c.43,3.07,2.1,4.76,5,5L17,64.55A21.52,21.52,0,0,0,13.22,64a5.23,5.23,0,0,0,4.86,3.29,6.93,6.93,0,0,0,1.46-.16l2.21,1.77a12.38,12.38,0,0,0-5,.87,5.25,5.25,0,0,0,4.1,2.15,7.65,7.65,0,0,0,4-1.35L27,71.5a13.49,13.49,0,0,0-4.55,2.74,6.15,6.15,0,0,0,2,.36,8.29,8.29,0,0,0,5.45-2.45l2,.81.81-.83Z"/><polygon class="cls-3" points="107.71 32.49 108.14 36.38 111.59 38.22 108.02 39.83 107.33 43.68 104.7 40.79 100.83 41.32 102.76 37.92 101.06 34.41 104.89 35.2 107.71 32.49"/><polygon class="cls-3" points="4.18 32.49 6.85 35.34 10.71 34.76 8.83 38.18 10.58 41.67 6.74 40.94 3.96 43.68 3.47 39.8 0 38 3.54 36.34 4.18 32.49"/><path class="cls-3" d="M105.19,44.7c0,.13,0,.25,0,.38h0A50.44,50.44,0,0,1,90.7,77a49.63,49.63,0,0,1-70.61,0A50.41,50.41,0,0,1,5.65,45.45H4.56c2,26.66,24.29,47.47,50.83,47.47s49-21,50.87-47.84v0c0-.13,0-.24,0-.35Z"/><path class="cls-3" d="M55.25,0A38.08,38.08,0,0,0,19.46,50a36.67,36.67,0,0,0,1.78,4.46,37.55,37.55,0,0,0,69.53-3.69,34.29,34.29,0,0,0,1.08-3.66c.06-.22.11-.43.15-.65h0c.21-.89.38-1.8.51-2.71A38.06,38.06,0,0,0,55.25,0ZM89.51,46.49c-.05.22-.1.45-.17.67a33.49,33.49,0,0,1-1.08,3.44c-.06.15-.11.3-.17.44a33.44,33.44,0,0,1-2,4.28A35.1,35.1,0,0,1,30.3,63.16a35.83,35.83,0,0,1-5.44-7.07c-.33-.56-.64-1.12-.93-1.69a33.6,33.6,0,0,1-1.66-3.73c-.12-.33-.24-.66-.35-1A35.76,35.76,0,0,1,30.3,12.92a35.07,35.07,0,0,1,49.89,0A35.42,35.42,0,0,1,90.51,38a35.9,35.9,0,0,1-.31,4.76A32.85,32.85,0,0,1,89.51,46.49Z"/><path class="cls-3" d="M5.65,45.45H4.56A51.3,51.3,0,0,0,9.17,63.14L10.3,63A50.33,50.33,0,0,1,5.65,45.45Z"/><path class="cls-3" d="M106.28,44.7c0,.11,0,.22,0,.35v0c-1.87,26.84-24.2,47.84-50.87,47.84A50.93,50.93,0,0,1,14,71.47a51.46,51.46,0,0,1-4.85-8.33L10.3,63a51,51,0,0,0,9.79,14A49.58,49.58,0,0,0,90.7,77a50.44,50.44,0,0,0,14.47-31.89h0c0-.13,0-.25,0-.38Z"/><path class="cls-4" d="M49.22,56.86c2.33,0,5.2.09,8.35.18,7.24,1.27,17.33.94,22.77-.3A11.24,11.24,0,0,0,83,58.08a48.57,48.57,0,0,0,8.58-.37,8,8,0,0,0,1.58-2.4c.89.1,2.42.36,3.83.46.72,0,2.3,0,3.31-.1,0-.11,0-.46,0-.56-.63,0-2,.08-3,0,0-2,0-4.51-.08-5.22.92,0,2.39.1,2.91.14a4.34,4.34,0,0,0,.05-.86c-2.07-.12-4.59-.2-6.55-.42-.21-6.18-2.19-10.1-3.17-11.05-2.73-.93-8,0-9.48.5-.8.46-1.36,4-1.45,5.33-1.26-.13-3.71-.32-4.61-.52,1.14-1.6,1.4-6.13-3.5-5.67a3.5,3.5,0,0,0-1.42.47c0-.2,0-.45,0-.7.34,0,1,0,1.52,0,0-.52,0-1.37,0-1.66-1.59,0-2.67,0-4.28-.07-.13,0,0,1-.07,1.33a7.06,7.06,0,0,1-.68-.65C65,36,62.39,36,61.91,36c-.25-.45-.42-.67-.54-.89A12.31,12.31,0,0,1,60.12,35c0-.24,0-1.24,0-1.59h-.35c0,.23,0,1.26,0,1.62a18,18,0,0,1-2.64-.14c-.59-1.35-.91-2.39-3.85-2.45-.13,0-.06-.29-.06-.53.41-.13,1.07-.28,1-.65-.32-1.52-1.43-4.87-2.14-4.74-.23,0-.15-1.57-.12-1.75.43-.13,2,0,3.09-.08.18-.21.21-1.08,0-1.1-2.62-.06-5.46,0-8.06,0-.14,0-.26.66-.11,1.15.75.09,2.66.05,3.59.08a2.26,2.26,0,0,1,0,.69c-.17.54-15.78.1-22.64.24,0,1.07.15,10.08.05,12.36-.26-.45-.87-1.48-1.61-1.7-4-.08-6.68-.15-7.91,0-4.2.38-4,17.64-.52,18.93,2,.19,7.92.15,9.47.06A3.33,3.33,0,0,0,28,53.81a14.12,14.12,0,0,0,3.57.2c.31,1.16,4.15,1.29,5,1.07.23,1.17,1.12,2.83,2.63,3.1,2.41.1,5.39.14,8,.09,1-.49.46-1.41,2-1.41ZM30.2,43a3.38,3.38,0,0,0,0,.39,4.52,4.52,0,0,0,.75.11c0-.08,0-.33,0-.4a6.25,6.25,0,0,0-.75-.1ZM69.42,37.1c-.27-.06-1.55,0-2,0,.17.42,1.48,1.41,1.92,1a9.78,9.78,0,0,0,0-1ZM95.83,53a10.18,10.18,0,0,0,0-1.09,7.76,7.76,0,0,0-1-.14c.38.5.7,1,1,1.23ZM31.1,47.18h-.61c0,.06,0,.29,0,.33-.38,0-.74,0-1,0,0,0,0,.32,0,.39.35.06,1.34.14,1.71.15a2.31,2.31,0,0,0-.1-.86ZM93.81,49.7a6.63,6.63,0,0,0,.7,1.31,6.14,6.14,0,0,0,1.35.1c0-.39,0-.9,0-1.28-.51,0-1.71-.13-2-.13ZM72.4,51.55c-.4-.06-1-.18-1.37-.19a10.39,10.39,0,0,0,1.48,1.38c.85.18,2,.41,3,.51,0-1.26,0-2.67-.06-3.67-.68-.07-1.78-.11-1.78-.11s0,2,0,2.07Zm4.4-1.82c0,.52,0,2.34,0,3.83.37.06,1.17.12,1.49.18.15-.46.88-2.87,1.07-3.74-.5-.11-1.87-.18-2.57-.27Zm0-1.16a19.41,19.41,0,0,0,2.63.35c0-.4,0-.84,0-1.09a27.21,27.21,0,0,0-2.69-1.54c0,.8,0,1.67.07,2.28ZM76,44.11a4,4,0,0,1,.58,1.27c.4.31,2.25,1.34,2.82,1.63,0-.47,0-1.91.08-2.5-.48-.08-3-.4-3.48-.4ZM40.14,33c0,1.34.15,4.15.26,4.8a7.05,7.05,0,0,0,1.61,0c.06-.77-.22-.27-.34-.58a2.06,2.06,0,0,1,0-1.39c.2-.35,1.1,0,1.35-.27.75-.92.54-1.48.39-2.52-.05,0-2.35-.08-3.28-.08Zm-9.87,9.5c.21.06.45.1.69.15.23-2.86,3.42-6.63,7-4.5,0-.44,0-1.12,0-1.29.3,0,1.1,0,1.53,0,.07-.87,0-3.13,0-3.85-1.05,0-5.61,0-7.42.15-2.35-.52-.94,6.27-1.9,9.35Zm-1.17,7c-.06.44-.36,1.94-.54,2.83a1.34,1.34,0,0,0,.85.14c0-.18.08-.75.12-.93a2.21,2.21,0,0,1,.48,0c0,.32-.07.93-.07,1.43a12.13,12.13,0,0,0,1.5,0,22.33,22.33,0,0,0-.12-4.37c-.28,0-1.56-.24-2.17-.3a3.54,3.54,0,0,0,0,.7,11.22,11.22,0,0,0,1.15,0s0,.29,0,.37c-.25,0-.87,0-1.14,0Z"/></g></g></svg>