<svg xmlns="http://www.w3.org/2000/svg" viewBox="0 0 111.59 92.92"><defs><style>.cls-1{fill:#ff7c96;}.cls-2{fill:#ede9e0;}.cls-3{fill:#324b58;}.cls-4{fill:#b6defa;}</style></defs><g id="Calque_2" data-name="Calque 2"><g id="sky"><path class="cls-1" d="M71.45,16.51h0c-.64,0-1.32,0-2-.08a20.72,20.72,0,0,1-6.2-1.59s-.47-.21-1.17-.46A14.64,14.64,0,0,0,56.44,13h-.59l-.51,0h0a15.74,15.74,0,0,0-6,1.5l-.17.06a22.47,22.47,0,0,1-6.83,1.85c-.7.05-1.37.08-2,.08h0a15.51,15.51,0,0,1-4.74-.63l.07,21.59a.41.41,0,0,1,0,.19l0,.05a45.24,45.24,0,0,0,.21,6.52,6.66,6.66,0,0,1,.15.65,23.84,23.84,0,0,0,1.64,5.17l0,.1.46.92a27.33,27.33,0,0,0,6.12,7.84l.11.11c1.89,1.86,3.89,3.7,6,5.47a57.75,57.75,0,0,0,5.5,4.36h.11l.66-.49.17-.13A39.83,39.83,0,0,0,60,65.67a103.89,103.89,0,0,0,8.85-8.14l0,0a23.5,23.5,0,0,0,3.51-4.32l0,0a24.11,24.11,0,0,0,1.44-2.52.11.11,0,0,1,0-.08,22.17,22.17,0,0,0,2-6.07.19.19,0,0,1,0-.1c.05-.33.08-.65.11-.95s0-.67,0-.74v0l.18-26.8a19,19,0,0,1-3.79.64Z"/><path class="cls-2" d="M97.23,55.47c2.72-.84,4-3.19,4-7l-3.52,2.49a22.78,22.78,0,0,0-.24-4.3c1.16-2.3.67-4.57-1.62-7.13a5,5,0,0,0,1.09,6.85,25.13,25.13,0,0,1,0,5.53,11.7,11.7,0,0,0-2.59-4.31q-.74,5,2.14,8.06a14.85,14.85,0,0,1-1.15,3.8q-1-4.59-2.82-6.25-1.68,5.46,1.67,8.56l-2,3.11a11.51,11.51,0,0,0-1.47-6.89q-3.1,4.55-.28,8.59A9.73,9.73,0,0,1,87,68.93a8,8,0,0,0,.38-6.49Q84,66.12,85.26,69.93a16.62,16.62,0,0,1-4.07,1.43q3-3.21,2.11-5.67-3.8,1.41-3.9,5.88l-1.7.5.82.83,2-.79A8.3,8.3,0,0,0,86,74.57a6,6,0,0,0,2-.35,13.68,13.68,0,0,0-4.54-2.75l2.15-.9a7.59,7.59,0,0,0,4,1.36,5.22,5.22,0,0,0,4.08-2.14,12.31,12.31,0,0,0-5-.88l2.21-1.76a8,8,0,0,0,1.49.16A5.21,5.21,0,0,0,97.26,64a21.2,21.2,0,0,0-3.8.52L95,62.27c2.9-.28,4.58-2,5-5h-.13c-1.7,0-2.61,1.23-3.46,1.3A13.32,13.32,0,0,0,97.23,55.47Z"/><path class="cls-2" d="M31.05,71.62q-.07-4.47-3.87-5.9c-.56,1.64.13,3.54,2.08,5.68A17.21,17.21,0,0,1,25.2,70q1.29-3.81-2.13-7.5A8,8,0,0,0,23.43,69a9.78,9.78,0,0,1-3.37-2.41q2.85-4-.25-8.59a11.55,11.55,0,0,0-1.49,6.88l-2-3.12q3.34-3.09,1.7-8.55-1.82,1.65-2.85,6.24a15.12,15.12,0,0,1-1.13-3.8,9.28,9.28,0,0,0,2.17-8.06,11.84,11.84,0,0,0-2.61,4.31,25.1,25.1,0,0,1,0-5.53,5.06,5.06,0,0,0,1.11-6.86c-2.3,2.56-2.8,4.83-1.64,7.13a22,22,0,0,0-.26,4.3l-3.52-2.5c-.07,3.86,1.24,6.21,3.95,7.06a14.31,14.31,0,0,0,.82,3.08c-.85-.08-1.75-1.32-3.46-1.32h-.12c.43,3.07,2.1,4.76,5,5L17,64.55A21.52,21.52,0,0,0,13.22,64a5.23,5.23,0,0,0,4.86,3.29,6.93,6.93,0,0,0,1.46-.16l2.21,1.77a12.38,12.38,0,0,0-5,.87,5.25,5.25,0,0,0,4.1,2.15,7.65,7.65,0,0,0,4-1.35L27,71.5a13.49,13.49,0,0,0-4.55,2.74,6.15,6.15,0,0,0,2,.36,8.29,8.29,0,0,0,5.45-2.45l2,.81.81-.83Z"/><polygon class="cls-3" points="107.71 32.49 108.14 36.38 111.59 38.22 108.02 39.83 107.33 43.68 104.7 40.79 100.83 41.32 102.76 37.92 101.06 34.41 104.89 35.2 107.71 32.49"/><polygon class="cls-3" points="4.18 32.49 6.85 35.34 10.71 34.76 8.83 38.18 10.58 41.67 6.74 40.94 3.96 43.68 3.47 39.8 0 38 3.54 36.34 4.18 32.49"/><path class="cls-3" d="M105.19,44.7c0,.13,0,.25,0,.38h0A50.44,50.44,0,0,1,90.7,77a49.63,49.63,0,0,1-70.61,0A50.41,50.41,0,0,1,5.65,45.45H4.56c2,26.66,24.29,47.47,50.83,47.47s49-21,50.87-47.84v0c0-.13,0-.24,0-.35Z"/><path class="cls-3" d="M55.25,0A38.08,38.08,0,0,0,19.46,50a36.67,36.67,0,0,0,1.78,4.46,37.55,37.55,0,0,0,69.53-3.69,34.29,34.29,0,0,0,1.08-3.66c.06-.22.11-.43.15-.65h0c.21-.89.38-1.8.51-2.71A38.06,38.06,0,0,0,55.25,0ZM89.51,46.49c-.05.22-.1.45-.17.67a33.49,33.49,0,0,1-1.08,3.44c-.06.15-.11.3-.17.44a33.44,33.44,0,0,1-2,4.28A35.1,35.1,0,0,1,30.3,63.16a35.83,35.83,0,0,1-5.44-7.07c-.33-.56-.64-1.12-.93-1.69a33.6,33.6,0,0,1-1.66-3.73c-.12-.33-.24-.66-.35-1A35.76,35.76,0,0,1,30.3,12.92a35.07,35.07,0,0,1,49.89,0A35.42,35.42,0,0,1,90.51,38a35.9,35.9,0,0,1-.31,4.76A32.85,32.85,0,0,1,89.51,46.49Z"/><path class="cls-4" d="M81.93,77.1l-4.57,1-1.78-.35-3.75.65L71.51,78l-.71-.77s1-1.69.38-1.9-2.3.59-2.3.59a8.38,8.38,0,0,0-1.07-1.77c-1-1.36-1.66-2.66-1.66-2.66a3,3,0,0,0-.53-1.84L62.4,66s-.42-1-.62-1.48A6.85,6.85,0,0,0,60.3,63a11.8,11.8,0,0,0-.45-2.75,13.37,13.37,0,0,1-.41-3.46,30.63,30.63,0,0,0-.3-4,24.48,24.48,0,0,0-2.87-5.11,4.36,4.36,0,0,0-.85-2.25,34,34,0,0,1-2.46-4l.71-.09A18.41,18.41,0,0,1,56,42.39a23.34,23.34,0,0,0,2.48,1.3,2.67,2.67,0,0,0,.64.24L73.53,73.38c-.46.16-.78.4-.73.57s.51.22,1.06.1l1,2h.28l-1-2.06c.53-.16.92-.43.87-.61s-.59-.23-1.2-.07L60,43.92a3.18,3.18,0,0,0,1.33-1.68A3.24,3.24,0,0,0,59,39c0-.5-1.19-1.21-2.37-1.66s-1.33-1-3.14-3.72-5.94-4-5.94-4l-2.28-2.33c.45-3.49-1.68-7.34-6.51-6.72s-3.63,6-3.55,6.75a1.81,1.81,0,0,0,1.13,1.45,5.79,5.79,0,0,0,1.21,2.57,6.6,6.6,0,0,1-1.93,3.21C34,36,33.85,39,34,40.34s-.75,5.92-.91,7.57-1.22,3.2-1.22,4.46-.51,1.81-2.33,4,1.31,3,2,3.12.86-.16.86-.16a9.91,9.91,0,0,1,.44-1.72l12,8.65,0,.33A7.22,7.22,0,0,0,46,69.21a14.6,14.6,0,0,0,1.22,2c.4.51,2,.56,1.94,1.15s1,1,2.09,1.65a2.14,2.14,0,0,0,.51,1.07A7.8,7.8,0,0,0,54,77.33c-.95.44-1.3,1.7-1.7,2.57-2,1.62-1.54,2.21-1.54,2.21s-1.26.27-5.79,1.1-7.73.75-8.92.4-4.61-1.27-2.68.9,7.38,1.54,12.46,1.15c2.92,1.5,6.67-.12,12.94-1.26s25-6.87,25-6.87ZM33.16,56.81A3.12,3.12,0,0,1,33.7,56a7.56,7.56,0,0,0,1.73-2.66c.28-.77,1.46-1.09,2.09-3.81s1-5.8,1-5.8a6.08,6.08,0,0,1,2.5,2.57c.93,1.81,1.6,3.43,1.6,3.43a5,5,0,0,0,1,3.11c-.79,2.92.08,7.93.56,9.39a15.94,15.94,0,0,1,.58,3.23ZM59.73,76s-2.57-3.59-3.51-5.32a9.39,9.39,0,0,0-1.62-2.56,13.86,13.86,0,0,1-2.45-2.53,7.52,7.52,0,0,1-1-3.43,7.63,7.63,0,0,1,0-2.41s2.48,4.62,3,5.72.78,3.2,1.49,3.24,1.62.83,2.65,2.05a55.23,55.23,0,0,1,3.07,4.65Z"/></g></g></svg>