<svg xmlns="http://www.w3.org/2000/svg" viewBox="0 0 111.59 92.92"><defs><style>.cls-1{fill:#ff7c96;}.cls-2{fill:#ede9e0;}.cls-3{fill:#324b58;}.cls-4{fill:#b6defa;}</style></defs><g id="Calque_2" data-name="Calque 2"><g id="Boxing"><path class="cls-1" d="M71.45,16.51h0c-.64,0-1.32,0-2-.08a20.72,20.72,0,0,1-6.2-1.59s-.47-.21-1.17-.46A14.64,14.64,0,0,0,56.44,13h-.59l-.51,0h0a15.74,15.74,0,0,0-6,1.5l-.17.06a22.47,22.47,0,0,1-6.83,1.85c-.7.05-1.37.08-2,.08h0a15.51,15.51,0,0,1-4.74-.63l.07,21.59a.41.41,0,0,1,0,.19l0,.05a45.24,45.24,0,0,0,.21,6.52,6.66,6.66,0,0,1,.15.65,23.84,23.84,0,0,0,1.64,5.17l0,.1.46.92a27.33,27.33,0,0,0,6.12,7.84l.11.11c1.89,1.86,3.89,3.7,6,5.47a57.75,57.75,0,0,0,5.5,4.36h.11l.66-.49.17-.13A39.83,39.83,0,0,0,60,65.67a103.89,103.89,0,0,0,8.85-8.14l0,0a23.5,23.5,0,0,0,3.51-4.32l0,0a24.11,24.11,0,0,0,1.44-2.52.11.11,0,0,1,0-.08,22.17,22.17,0,0,0,2-6.07.19.19,0,0,1,0-.1c.05-.33.08-.65.11-.95s0-.67,0-.74v0l.18-26.8a19,19,0,0,1-3.79.64Z"/><path class="cls-2" d="M97.23,55.47c2.72-.84,4-3.19,4-7l-3.52,2.49a22.78,22.78,0,0,0-.24-4.3c1.16-2.3.67-4.57-1.62-7.13a5,5,0,0,0,1.09,6.85,25.13,25.13,0,0,1,0,5.53,11.7,11.7,0,0,0-2.59-4.31q-.74,5,2.14,8.06a14.85,14.85,0,0,1-1.15,3.8q-1-4.59-2.82-6.25-1.68,5.46,1.67,8.56l-2,3.11a11.51,11.51,0,0,0-1.47-6.89q-3.1,4.55-.28,8.59A9.73,9.73,0,0,1,87,68.93a8,8,0,0,0,.38-6.49Q84,66.12,85.26,69.93a16.62,16.62,0,0,1-4.07,1.43q3-3.21,2.11-5.67-3.8,1.41-3.9,5.88l-1.7.5.82.83,2-.79A8.3,8.3,0,0,0,86,74.57a6,6,0,0,0,2-.35,13.68,13.68,0,0,0-4.54-2.75l2.15-.9a7.59,7.59,0,0,0,4,1.36,5.22,5.22,0,0,0,4.08-2.14,12.31,12.31,0,0,0-5-.88l2.21-1.76a8,8,0,0,0,1.49.16A5.21,5.21,0,0,0,97.26,64a21.2,21.2,0,0,0-3.8.52L95,62.27c2.9-.28,4.58-2,5-5h-.13c-1.7,0-2.61,1.23-3.46,1.3A13.32,13.32,0,0,0,97.23,55.47Z"/><path class="cls-2" d="M31.05,71.62q-.07-4.47-3.87-5.9c-.56,1.64.13,3.54,2.08,5.68A17.21,17.21,0,0,1,25.2,70q1.29-3.81-2.13-7.5A8,8,0,0,0,23.43,69a9.78,9.78,0,0,1-3.37-2.41q2.85-4-.25-8.59a11.55,11.55,0,0,0-1.49,6.88l-2-3.12q3.34-3.09,1.7-8.55-1.82,1.65-2.85,6.24a15.12,15.12,0,0,1-1.13-3.8,9.28,9.28,0,0,0,2.17-8.06,11.84,11.84,0,0,0-2.61,4.31,25.1,25.1,0,0,1,0-5.53,5.06,5.06,0,0,0,1.11-6.86c-2.3,2.56-2.8,4.83-1.64,7.13a22,22,0,0,0-.26,4.3l-3.52-2.5c-.07,3.86,1.24,6.21,3.95,7.06a14.31,14.31,0,0,0,.82,3.08c-.85-.08-1.75-1.32-3.46-1.32h-.12c.43,3.07,2.1,4.76,5,5L17,64.55A21.52,21.52,0,0,0,13.22,64a5.23,5.23,0,0,0,4.86,3.29,6.93,6.93,0,0,0,1.46-.16l2.21,1.77a12.38,12.38,0,0,0-5,.87,5.25,5.25,0,0,0,4.1,2.15,7.65,7.65,0,0,0,4-1.35L27,71.5a13.49,13.49,0,0,0-4.55,2.74,6.15,6.15,0,0,0,2,.36,8.29,8.29,0,0,0,5.45-2.45l2,.81.81-.83Z"/><polygon class="cls-3" points="107.71 32.49 108.14 36.38 111.59 38.22 108.02 39.83 107.33 43.68 104.7 40.79 100.83 41.32 102.76 37.92 101.06 34.41 104.89 35.2 107.71 32.49"/><polygon class="cls-3" points="4.18 32.49 6.85 35.34 10.71 34.76 8.83 38.18 10.58 41.67 6.74 40.94 3.96 43.68 3.47 39.8 0 38 3.54 36.34 4.18 32.49"/><path class="cls-3" d="M105.19,44.7c0,.13,0,.25,0,.38h0A50.44,50.44,0,0,1,90.7,77a49.63,49.63,0,0,1-70.61,0A50.41,50.41,0,0,1,5.65,45.45H4.56c2,26.66,24.29,47.47,50.83,47.47s49-21,50.87-47.84v0c0-.13,0-.24,0-.35Z"/><path class="cls-3" d="M55.25,0A38.08,38.08,0,0,0,19.46,50a36.67,36.67,0,0,0,1.78,4.46,37.55,37.55,0,0,0,69.53-3.69,34.29,34.29,0,0,0,1.08-3.66c.06-.22.11-.43.15-.65h0c.21-.89.38-1.8.51-2.71A38.06,38.06,0,0,0,55.25,0ZM89.51,46.49c-.05.22-.1.45-.17.67a33.49,33.49,0,0,1-1.08,3.44c-.06.15-.11.3-.17.44a33.44,33.44,0,0,1-2,4.28A35.1,35.1,0,0,1,30.3,63.16a35.83,35.83,0,0,1-5.44-7.07c-.33-.56-.64-1.12-.93-1.69a33.6,33.6,0,0,1-1.66-3.73c-.12-.33-.24-.66-.35-1A35.76,35.76,0,0,1,30.3,12.92a35.07,35.07,0,0,1,49.89,0A35.42,35.42,0,0,1,90.51,38a35.9,35.9,0,0,1-.31,4.76A32.85,32.85,0,0,1,89.51,46.49Z"/><path class="cls-4" d="M78.7,28.11a1.79,1.79,0,0,0-2.68-.2s-.4.05-1.34-1.48-1.94-1-2.91-.46a10.59,10.59,0,0,0-2.3,2.19c-.43-.17-1.57.94-2.23,1.29s-.51.82-.51.82l-.23.12a3.86,3.86,0,0,0-.85,0,14.12,14.12,0,0,0,.11-2.34c.46-3.7-1.57-4.84-1.57-4.84l.32-.46c.68-.65,1.42-2.56,1.68-2.42a2.12,2.12,0,0,1,1.52,1.12c.72,1.12,1.76.47,1.77.13s.43-1,.76-.86.27-.19.27-.19a2.31,2.31,0,0,0-.06-.44h.19c.16,0,.19-.19.19-.55s.14-.45.82-.45.53-.12.3-1.64,0-.91,0-.91c.38.11.46-.57.46-.57.11-.91.38-2.28.38-2.28s.42.42.3,0,.53-.42.53-.42c.8.19.72-.3.72-.3a1.15,1.15,0,0,1-1.25-1c-1.59-2.89-4.9-5.09-8.32-3.8s-3,5.13-3.08,6.65-.7,2-1.21,2.85-3.08,1-5.47,2.34-2.17,2.84-3.93,6.83a22.13,22.13,0,0,0-1.54,9.8c.06,1.66,0,3.25,0,3.25v.65h0s-.9,4.4-1.44,6.19a11.56,11.56,0,0,0-.65,5.42c.35,1.67.52,10.31-.13,12.46h.42a2.28,2.28,0,0,1-.83,1.43c-.78.66-5.54,4.29-5,9.36,0,0-1.13,1.61-.95,2.39,0,0-1.85,1.61-1.91,2.92a9.06,9.06,0,0,0,0,1.61s-1.67,2.26.24,3.28H43.1s1.36.17.65-3c-.1-1.6,1.14-.77.61-2.92s-.06-2.5,1.13-3.81a26.19,26.19,0,0,0,3.58-5.19,9.84,9.84,0,0,1,2.62-2.8,4.47,4.47,0,0,0,.89-2L57,65.46s1.79-4.71,1.67-6c0,0,3.52,2.09,3.76,3.22s.77,1,1.55.54,1.49.18,1.43,1.07-.3,5.25,1.43,8.23A8.51,8.51,0,0,1,68,79.11a26.45,26.45,0,0,0-.71,3.51s0,.18,1,.66,1.77.12,2.55.18,1.78.83,3,1.37S78,85,78,85s1.85-1,.42-2-5.31-3-5.73-4.23-1-.89-1-.89a50.08,50.08,0,0,1,.06-6.86c.3-3.4-.9-4.65-1-6.68s.17-2.5-.78-4.59-2.8-8.52-7.27-13.23a15.75,15.75,0,0,1-1.61-3.17c-.31-1.46-.35-3,.21-2.17.68,1,1.48,1.31,2,1s2.39-.8,4.73-1.71,4.27-3.42,4.73-3,1.71-.23,2.22-.92.8-.85,4-2.73S80.12,29.59,78.7,28.11ZM68.07,34.89a6.46,6.46,0,0,0-2.48.2v-.94s1.74-.69,1.91-1a1.08,1.08,0,0,0,.94,0,1.43,1.43,0,0,0,.83,0s-.18.94.22,1.28A2.79,2.79,0,0,1,68.07,34.89Z"/></g></g></svg>