<svg xmlns="http://www.w3.org/2000/svg" viewBox="0 0 111.59 92.92"><defs><style>.cls-1{fill:#ff7c96;}.cls-2{fill:#ede9e0;}.cls-3{fill:#324b58;}.cls-4{fill:#b6defa;}</style></defs><g id="Calque_2" data-name="Calque 2"><g id="Marathon_Swimming" data-name="Marathon Swimming"><path class="cls-1" d="M71.45,16.51h0c-.64,0-1.32,0-2-.08a20.72,20.72,0,0,1-6.2-1.59s-.47-.21-1.17-.46A14.64,14.64,0,0,0,56.44,13h-.59l-.51,0h0a15.74,15.74,0,0,0-6,1.5l-.17.06a22.47,22.47,0,0,1-6.83,1.85c-.7.05-1.37.08-2,.08h0a15.51,15.51,0,0,1-4.74-.63l.07,21.59a.41.41,0,0,1,0,.19l0,.05a45.24,45.24,0,0,0,.21,6.52,6.66,6.66,0,0,1,.15.65,23.84,23.84,0,0,0,1.64,5.17l0,.1.46.92a27.33,27.33,0,0,0,6.12,7.84l.11.11c1.89,1.86,3.89,3.7,6,5.47a57.75,57.75,0,0,0,5.5,4.36h.11l.66-.49.17-.13A39.83,39.83,0,0,0,60,65.67a103.89,103.89,0,0,0,8.85-8.14l0,0a23.5,23.5,0,0,0,3.51-4.32l0,0a24.11,24.11,0,0,0,1.44-2.52.11.11,0,0,1,0-.08,22.17,22.17,0,0,0,2-6.07.19.19,0,0,1,0-.1c.05-.33.08-.65.11-.95s0-.67,0-.74v0l.18-26.8a19,19,0,0,1-3.79.64Z"/><path class="cls-2" d="M97.23,55.47c2.72-.84,4-3.19,4-7l-3.52,2.49a22.78,22.78,0,0,0-.24-4.3c1.16-2.3.67-4.57-1.62-7.13a5,5,0,0,0,1.09,6.85,25.13,25.13,0,0,1,0,5.53,11.7,11.7,0,0,0-2.59-4.31q-.74,5,2.14,8.06a14.85,14.85,0,0,1-1.15,3.8q-1-4.59-2.82-6.25-1.68,5.46,1.67,8.56l-2,3.11a11.51,11.51,0,0,0-1.47-6.89q-3.1,4.55-.28,8.59A9.73,9.73,0,0,1,87,68.93a8,8,0,0,0,.38-6.49Q84,66.12,85.26,69.93a16.62,16.62,0,0,1-4.07,1.43q3-3.21,2.11-5.67-3.8,1.41-3.9,5.88l-1.7.5.82.83,2-.79A8.3,8.3,0,0,0,86,74.57a6,6,0,0,0,2-.35,13.68,13.68,0,0,0-4.54-2.75l2.15-.9a7.59,7.59,0,0,0,4,1.36,5.22,5.22,0,0,0,4.08-2.14,12.31,12.31,0,0,0-5-.88l2.21-1.76a8,8,0,0,0,1.49.16A5.21,5.21,0,0,0,97.26,64a21.2,21.2,0,0,0-3.8.52L95,62.27c2.9-.28,4.58-2,5-5h-.13c-1.7,0-2.61,1.23-3.46,1.3A13.32,13.32,0,0,0,97.23,55.47Z"/><path class="cls-2" d="M31.05,71.62q-.07-4.47-3.87-5.9c-.56,1.64.13,3.54,2.08,5.68A17.21,17.21,0,0,1,25.2,70q1.29-3.81-2.13-7.5A8,8,0,0,0,23.43,69a9.78,9.78,0,0,1-3.37-2.41q2.85-4-.25-8.59a11.55,11.55,0,0,0-1.49,6.88l-2-3.12q3.34-3.09,1.7-8.55-1.82,1.65-2.85,6.24a15.12,15.12,0,0,1-1.13-3.8,9.28,9.28,0,0,0,2.17-8.06,11.84,11.84,0,0,0-2.61,4.31,25.1,25.1,0,0,1,0-5.53,5.06,5.06,0,0,0,1.11-6.86c-2.3,2.56-2.8,4.83-1.64,7.13a22,22,0,0,0-.26,4.3l-3.52-2.5c-.07,3.86,1.24,6.21,3.95,7.06a14.31,14.31,0,0,0,.82,3.08c-.85-.08-1.75-1.32-3.46-1.32h-.12c.43,3.07,2.1,4.76,5,5L17,64.55A21.52,21.52,0,0,0,13.22,64a5.23,5.23,0,0,0,4.86,3.29,6.93,6.93,0,0,0,1.46-.16l2.21,1.77a12.38,12.38,0,0,0-5,.87,5.25,5.25,0,0,0,4.1,2.15,7.65,7.65,0,0,0,4-1.35L27,71.5a13.49,13.49,0,0,0-4.55,2.74,6.15,6.15,0,0,0,2,.36,8.29,8.29,0,0,0,5.45-2.45l2,.81.81-.83Z"/><polygon class="cls-3" points="107.71 32.49 108.14 36.38 111.59 38.22 108.02 39.83 107.33 43.68 104.7 40.79 100.83 41.32 102.76 37.92 101.06 34.41 104.89 35.2 107.71 32.49"/><polygon class="cls-3" points="4.18 32.49 6.85 35.34 10.71 34.76 8.83 38.18 10.58 41.67 6.74 40.94 3.96 43.68 3.47 39.8 0 38 3.54 36.34 4.18 32.49"/><path class="cls-3" d="M105.19,44.7c0,.13,0,.25,0,.38h0A50.44,50.44,0,0,1,90.7,77a49.63,49.63,0,0,1-70.61,0A50.41,50.41,0,0,1,5.65,45.45H4.56c2,26.66,24.29,47.47,50.83,47.47s49-21,50.87-47.84v0c0-.13,0-.24,0-.35Z"/><path class="cls-3" d="M55.25,0A38.08,38.08,0,0,0,19.46,50a36.67,36.67,0,0,0,1.78,4.46,37.55,37.55,0,0,0,69.53-3.69,34.29,34.29,0,0,0,1.08-3.66c.06-.22.11-.43.15-.65h0c.21-.89.38-1.8.51-2.71A38.06,38.06,0,0,0,55.25,0ZM89.51,46.49c-.05.22-.1.45-.17.67a33.49,33.49,0,0,1-1.08,3.44c-.06.15-.11.3-.17.44a33.44,33.44,0,0,1-2,4.28A35.1,35.1,0,0,1,30.3,63.16a35.83,35.83,0,0,1-5.44-7.07c-.33-.56-.64-1.12-.93-1.69a33.6,33.6,0,0,1-1.66-3.73c-.12-.33-.24-.66-.35-1A35.76,35.76,0,0,1,30.3,12.92a35.07,35.07,0,0,1,49.89,0A35.42,35.42,0,0,1,90.51,38a35.9,35.9,0,0,1-.31,4.76A32.85,32.85,0,0,1,89.51,46.49Z"/><path class="cls-4" d="M80.14,52.18a1,1,0,0,0-1.09-.34c-1.74.43-2.51,2.48-3.69,3.62-2.35,2.28-6,1.58-9,1.78-2.47.16-5,.34-7.43.4,0,0-11.26,1.21-16.69.3a15.33,15.33,0,0,1-6.1-.22,29.43,29.43,0,0,0-10.28.64A37.58,37.58,0,0,0,21.68,60a15.2,15.2,0,0,0-2.41,2.23s-.95,1.28-1.29.64c0,0-.37-.34-.3-.64,0,0-.15-.19,0-.57a1.59,1.59,0,0,1,.15-1.47,10.69,10.69,0,0,0,1.58-2.37s.08-2,2-2a5.47,5.47,0,0,0,3.39.11l4.26-1.69a28,28,0,0,0-8.21-2s-3.43-.64-5.81.45A22.26,22.26,0,0,0,12.56,54s-.64.64-.87.08c0,0-.52-.23-.34-.57,0,0-.45-.45-.15-.75a1,1,0,0,1,.27-.75s.07-.45,1-1.13c0,0,2.37-1.59,3.31-2.26,0,0,2.11-2.23,3.09-1.06A5.85,5.85,0,0,0,23,49l4.64.08a11.63,11.63,0,0,1,5.69,1s2.93,1.32,5,1l2.56-.34a18.52,18.52,0,0,1,4.78-.08,5.26,5.26,0,0,0,2.64-.49s3.81-3.28,8.25-1.51c0,0,2.75,1.62,4.22,1,0,0,5.46-1.62,6.9-2.11a13.21,13.21,0,0,1,3.61-.9s-1.62-1.21-1.66-2a15,15,0,0,1-3-.49s-7.15-2-8.1-.83a4.25,4.25,0,0,0-1.16,1.09,3.07,3.07,0,0,1-1.4,1.13l-3,1.74s-.53.52-.68.15c0,0-.68-.15-.08-.72,0,0-.6.08.68-1.36,0,0-.72-.18,0-.71,0,0,1.92-1.28,2.22-1.55,0,0,1.55-2.07,3.28-2.33,0,0,1.92-.23,3-.42a30,30,0,0,1,6.94.19,10.54,10.54,0,0,0,1.31.19,2.38,2.38,0,0,1,1.85.64s3.77,3,4.26,3.13a3.09,3.09,0,0,1,3.73-.38,4.29,4.29,0,0,0,1.47.3s3.12-2.71,6.1-.75A5.25,5.25,0,0,1,89,47.51S89,49,88.4,49.05c0,0-.19.79-.61,1a44.45,44.45,0,0,0,6.52.83s1.81-.15,2.37-.15a2.9,2.9,0,0,1,1-.11,10.52,10.52,0,0,0,2.07.33s1-.11.87.08c0,0,1.21.23,0,.49l-1.28.15a2.37,2.37,0,0,1-1.39.53,8.15,8.15,0,0,0-1.59.26,4.23,4.23,0,0,1-1.69.08,7.71,7.71,0,0,0-2.83-.08s-6,.87-8.4.34a1.39,1.39,0,0,0-.49.11.57.57,0,0,1-.52,0c-.21-.09-.43.2-.61.25a1.24,1.24,0,0,1-.47,0,1.49,1.49,0,0,1-1-.85"/></g></g></svg>