<svg xmlns="http://www.w3.org/2000/svg" viewBox="0 0 111.59 92.92"><defs><style>.cls-1{fill:#ff7c96;}.cls-2{fill:#ede9e0;}.cls-3{fill:#324b58;}.cls-4{fill:#b6defa;fill-rule:evenodd;}</style></defs><g id="Calque_2" data-name="Calque 2"><g id="Football"><path class="cls-1" d="M71.45,16.51h0c-.64,0-1.32,0-2-.08a20.72,20.72,0,0,1-6.2-1.59s-.47-.21-1.17-.46A14.64,14.64,0,0,0,56.44,13h-.59l-.51,0h0a15.74,15.74,0,0,0-6,1.5l-.17.06a22.47,22.47,0,0,1-6.83,1.85c-.7.05-1.37.08-2,.08h0a15.51,15.51,0,0,1-4.74-.63l.07,21.59a.41.41,0,0,1,0,.19l0,.05a45.24,45.24,0,0,0,.21,6.52,6.66,6.66,0,0,1,.15.65,23.84,23.84,0,0,0,1.64,5.17l0,.1.46.92a27.33,27.33,0,0,0,6.12,7.84l.11.11c1.89,1.86,3.89,3.7,6,5.47a57.75,57.75,0,0,0,5.5,4.36h.11l.66-.49.17-.13A39.83,39.83,0,0,0,60,65.67a103.89,103.89,0,0,0,8.85-8.14l0,0a23.5,23.5,0,0,0,3.51-4.32l0,0a24.11,24.11,0,0,0,1.44-2.52.11.11,0,0,1,0-.08,22.17,22.17,0,0,0,2-6.07.19.19,0,0,1,0-.1c.05-.33.08-.65.11-.95s0-.67,0-.74v0l.18-26.8a19,19,0,0,1-3.79.64Z"/><path class="cls-2" d="M97.23,55.47c2.72-.84,4-3.19,4-7l-3.52,2.49a22.78,22.78,0,0,0-.24-4.3c1.16-2.3.67-4.57-1.62-7.13a5,5,0,0,0,1.09,6.85,25.13,25.13,0,0,1,0,5.53,11.7,11.7,0,0,0-2.59-4.31q-.74,5,2.14,8.06a14.85,14.85,0,0,1-1.15,3.8q-1-4.59-2.82-6.25-1.68,5.46,1.67,8.56l-2,3.11a11.51,11.51,0,0,0-1.47-6.89q-3.1,4.55-.28,8.59A9.73,9.73,0,0,1,87,68.93a8,8,0,0,0,.38-6.49Q84,66.12,85.26,69.93a16.62,16.62,0,0,1-4.07,1.43q3-3.21,2.11-5.67-3.8,1.41-3.9,5.88l-1.7.5.82.83,2-.79A8.3,8.3,0,0,0,86,74.57a6,6,0,0,0,2-.35,13.68,13.68,0,0,0-4.54-2.75l2.15-.9a7.59,7.59,0,0,0,4,1.36,5.22,5.22,0,0,0,4.08-2.14,12.31,12.31,0,0,0-5-.88l2.21-1.76a8,8,0,0,0,1.49.16A5.21,5.21,0,0,0,97.26,64a21.2,21.2,0,0,0-3.8.52L95,62.27c2.9-.28,4.58-2,5-5h-.13c-1.7,0-2.61,1.23-3.46,1.3A13.32,13.32,0,0,0,97.23,55.47Z"/><path class="cls-2" d="M31.05,71.62q-.07-4.47-3.87-5.9c-.56,1.64.13,3.54,2.08,5.68A17.21,17.21,0,0,1,25.2,70q1.29-3.81-2.13-7.5A8,8,0,0,0,23.43,69a9.78,9.78,0,0,1-3.37-2.41q2.85-4-.25-8.59a11.55,11.55,0,0,0-1.49,6.88l-2-3.12q3.34-3.09,1.7-8.55-1.82,1.65-2.85,6.24a15.12,15.12,0,0,1-1.13-3.8,9.28,9.28,0,0,0,2.17-8.06,11.84,11.84,0,0,0-2.61,4.31,25.1,25.1,0,0,1,0-5.53,5.06,5.06,0,0,0,1.11-6.86c-2.3,2.56-2.8,4.83-1.64,7.13a22,22,0,0,0-.26,4.3l-3.52-2.5c-.07,3.86,1.24,6.21,3.95,7.06a14.31,14.31,0,0,0,.82,3.08c-.85-.08-1.75-1.32-3.46-1.32h-.12c.43,3.07,2.1,4.76,5,5L17,64.55A21.52,21.52,0,0,0,13.22,64a5.23,5.23,0,0,0,4.86,3.29,6.93,6.93,0,0,0,1.46-.16l2.21,1.77a12.38,12.38,0,0,0-5,.87,5.25,5.25,0,0,0,4.1,2.15,7.65,7.65,0,0,0,4-1.35L27,71.5a13.49,13.49,0,0,0-4.55,2.74,6.15,6.15,0,0,0,2,.36,8.29,8.29,0,0,0,5.45-2.45l2,.81.81-.83Z"/><polygon class="cls-3" points="107.71 32.49 108.14 36.38 111.59 38.22 108.02 39.83 107.33 43.68 104.7 40.79 100.83 41.32 102.76 37.92 101.06 34.41 104.89 35.2 107.71 32.49"/><polygon class="cls-3" points="4.18 32.49 6.85 35.34 10.71 34.76 8.83 38.18 10.58 41.67 6.74 40.94 3.96 43.68 3.47 39.8 0 38 3.54 36.34 4.18 32.49"/><path class="cls-3" d="M105.19,44.7c0,.13,0,.25,0,.38h0A50.44,50.44,0,0,1,90.7,77a49.63,49.63,0,0,1-70.61,0A50.41,50.41,0,0,1,5.65,45.45H4.56c2,26.66,24.29,47.47,50.83,47.47s49-21,50.87-47.84v0c0-.13,0-.24,0-.35Z"/><path class="cls-3" d="M55.25,0A38.08,38.08,0,0,0,19.46,50a36.67,36.67,0,0,0,1.78,4.46,37.55,37.55,0,0,0,69.53-3.69,34.29,34.29,0,0,0,1.08-3.66c.06-.22.11-.43.15-.65h0c.21-.89.38-1.8.51-2.71A38.06,38.06,0,0,0,55.25,0ZM89.51,46.49c-.05.22-.1.45-.17.67a33.49,33.49,0,0,1-1.08,3.44c-.06.15-.11.3-.17.44a33.44,33.44,0,0,1-2,4.28A35.1,35.1,0,0,1,30.3,63.16a35.83,35.83,0,0,1-5.44-7.07c-.33-.56-.64-1.12-.93-1.69a33.6,33.6,0,0,1-1.66-3.73c-.12-.33-.24-.66-.35-1A35.76,35.76,0,0,1,30.3,12.92a35.07,35.07,0,0,1,49.89,0A35.42,35.42,0,0,1,90.51,38a35.9,35.9,0,0,1-.31,4.76A32.85,32.85,0,0,1,89.51,46.49Z"/><path class="cls-4" d="M90.17,24.85c-.45-.75-.75-.71-1.53-.88a29.31,29.31,0,0,0-3.35-.84,24,24,0,0,0-6.48-.39,7.62,7.62,0,0,1-2.2.06,3.94,3.94,0,0,1-1.11-.48,9.57,9.57,0,0,0-1.33,0c-.71,0-1.07.2-1.14-.19s-1.17-.39-1.43-.62-.23-.36-.55-.36a5.27,5.27,0,0,1-2-.94,1.31,1.31,0,0,0-.91-.46,2.08,2.08,0,0,0-2-.32c-1.6.36-1.76,1.46-2.38,1a3.72,3.72,0,0,0-1.43-.59l-.49.13a3.36,3.36,0,0,1-1.36-1,7.62,7.62,0,0,0-.69-1l.36.1a9.73,9.73,0,0,1-.75-2.24,5.41,5.41,0,0,0-1.13-2.12l.48.29a5.05,5.05,0,0,0-.78-.94,12.83,12.83,0,0,0-2-.94s-.91-.52-1.43-.23l-.59.33v-.36a.7.7,0,0,1-.46.23,1.84,1.84,0,0,0-1.39.45,3.44,3.44,0,0,0-1.5,1.69c-.55,1-1.24.95-1.24.95l.36.32-.58.07s0,.32.42.42a3,3,0,0,0,.58.1,4.43,4.43,0,0,0,.13,1.85c.3.81.88,1.2.91,1.5s.14.65.46.71.39-.13.46.42-.1,1.24.19,1.53.78.1.94.17.07.42.07.42l.42,0s-.16.42.16.42a.37.37,0,0,1,.39.26,6.28,6.28,0,0,0-1.33,2.25c-.58,1.56-.78,3.41-1.23,3.67s-.23.33-.59.69-.36.16-.49.61-.52.2-.81.91a6.36,6.36,0,0,1-.29.69L43.37,38a7.43,7.43,0,0,0-1.14.75,8.56,8.56,0,0,1-1,.81,3.62,3.62,0,0,0-.94.85c-.23.32-2.11.68-2.41,1a16.28,16.28,0,0,1-1.33,1.37c-.16.07-.33-.16-.39.36s-.29,1.33-.13,1.49a5.26,5.26,0,0,1,.45.69s.39-.1.33-.46a5,5,0,0,0-.16-.62l.16-.55.16.88c.08.25.41,1.55.59.49,0-.2,0-1,.16-1.14a2,2,0,0,1,1.14-.81,1.34,1.34,0,0,1,1,.16,5.81,5.81,0,0,0-1.39,1c-.24.37-.36.59-.27.69.36.39,1.43-.76,1.89-.82s.78-.16.91-.32.17-.1.65-.59a2,2,0,0,0,.56-1.1,8.12,8.12,0,0,1,2-1.56c.75-.26.82-.39.82-.39s3.9-2.48,4.94-3.29,1.59-2,2.37-2.47A6.52,6.52,0,0,0,53.71,33l.62.16.52-.29a14.3,14.3,0,0,0,.2,1.69c.13.55.71,1.3.32,1.82a5.85,5.85,0,0,0-.55,2.89c.16.3-.36.88-.23,1.34s-.19.71-.23,1.07S52.64,43.78,53,43.94a12.09,12.09,0,0,1,1.43,1,16.36,16.36,0,0,0,0,2.89c.16.62-.33,1.6-.1,2.25a6.92,6.92,0,0,1,.23,1.79s-3.74,4.26-4.23,4.94-.78,2.86-1.14,3.22-.61.32-.52.72a3.65,3.65,0,0,1-.87,1.91.72.72,0,0,0-.27.69,60.57,60.57,0,0,1-3.7,6.31A11.33,11.33,0,0,0,42.23,72a1.88,1.88,0,0,1-1.07,1.07c-.45.13-1.85-.81-2.44-.16s-.81,1.33-.62,1.56-.09.46-.06.68.49.26.49.26.65.65.68,1.08-.16.68,0,.87.23.2.23.2l.52,1s-.33.32.1.35.22-.19.45-.19a2.21,2.21,0,0,0,1.21-.55c.61-.46.35-1.53,1-1.7a1,1,0,0,0,.78-.78s.09-.52,1.27-1.33,6.14-7.25,6.5-7.68a2.25,2.25,0,0,0,.46-.91s.29-.06.32-.29a6.75,6.75,0,0,1,1.24-3.61,27.35,27.35,0,0,1,4.29-3.71s1.3,2,2.47,2,3.32-.19,4,.4,3.19.13,5,.78,2.86.26,3.25,1.56.85,1.36,1.89,1.82.58,2.93,1,3.38,1.49.2,1.49.2a12.83,12.83,0,0,0,.59-3.91,29,29,0,0,1,.13-3.64A2.88,2.88,0,0,0,77,59a2.44,2.44,0,0,0-1.56.19,3.54,3.54,0,0,1-1.43.46s-.52-1.24-1-1.43-2.22-.65-2.22-.65l-.52.58A11.38,11.38,0,0,0,67.86,56a13.22,13.22,0,0,0-4-.72l-.19-1.43a14.31,14.31,0,0,1,3.19-3.45,3.68,3.68,0,0,0,1.62-3.57,3.71,3.71,0,0,0,.26-2.54c-.32-1.56-.91-3.19-.71-4.23a38.47,38.47,0,0,0,.84-3.77,2.74,2.74,0,0,1,.72-1.82,5.31,5.31,0,0,0,.58-1.69s1-2.09.52-3a1.83,1.83,0,0,1-.06-1.62s.58-.65,1-.59,1.5.13,1.5.13l1.62-1.95L76,25.41s.33,1.1,3.38,1.1,6-1.56,6.64-.71.85,1.62,1.82,1.69,1,.61,1,.61l.39-.26a1.86,1.86,0,0,0,1-.61,6.22,6.22,0,0,0,.45-.69s.16.2.33-.19-.88-1.6-.82-1.5ZM29.86,71.18a4.56,4.56,0,1,0,4.55,4.56,4.56,4.56,0,0,0-4.55-4.56ZM88.71,25.89c.49.36.26,1.21.26,1.21s-1-.46-.91-.85.71-.39.65-.36Z"/></g></g></svg>