<svg xmlns="http://www.w3.org/2000/svg" viewBox="0 0 111.59 93.46"><defs><style>.cls-1{fill:#ff7c96;}.cls-2{fill:#ede9e0;}.cls-3{fill:#324b58;}.cls-4{fill:none;}.cls-5{fill:#b6defa;}</style></defs><g id="Calque_2" data-name="Calque 2"><g id="Volleyball"><path class="cls-1" d="M71.45,17.05h0c-.64,0-1.32,0-2-.08a20.43,20.43,0,0,1-6.2-1.59s-.47-.2-1.17-.46a14.83,14.83,0,0,0-5.63-1.36h0l-.51,0h-.08l-.51,0h0a15.92,15.92,0,0,0-6,1.5l-.17.07A22.19,22.19,0,0,1,42.35,17c-.7.05-1.37.08-2,.08h0a15.51,15.51,0,0,1-4.74-.63L35.66,38a.45.45,0,0,1,0,.19l0,0a45.24,45.24,0,0,0,.21,6.52,6.66,6.66,0,0,1,.15.65,24,24,0,0,0,1.64,5.18l0,.09.46.92a27.2,27.2,0,0,0,6.12,7.84l.11.11c1.89,1.87,3.89,3.71,6,5.47a56.15,56.15,0,0,0,5.5,4.36h.11l.66-.48.17-.13c.83-.57,1.92-1.43,3.26-2.57a103.89,103.89,0,0,0,8.85-8.14l0,0a23.5,23.5,0,0,0,3.51-4.32l0,0a25,25,0,0,0,1.44-2.51.16.16,0,0,1,0-.09,22,22,0,0,0,2-6.06.23.23,0,0,1,0-.11c.05-.32.08-.64.11-.95s0-.67,0-.74v0l.18-26.8a18.25,18.25,0,0,1-3.79.64Z"/><path class="cls-2" d="M97.23,56c2.72-.84,4-3.19,4-7l-3.52,2.49a22.78,22.78,0,0,0-.24-4.3c1.16-2.3.67-4.57-1.62-7.13a5,5,0,0,0,1.09,6.86,25.17,25.17,0,0,1,0,5.53,11.76,11.76,0,0,0-2.59-4.32,9.27,9.27,0,0,0,2.14,8.07A14.88,14.88,0,0,1,95.3,60q-1-4.59-2.82-6.24-1.68,5.45,1.67,8.55l-2,3.12a11.52,11.52,0,0,0-1.47-6.9q-3.1,4.55-.28,8.6A10,10,0,0,1,87,69.48a8,8,0,0,0,.38-6.5q-3.44,3.68-2.16,7.5a17,17,0,0,1-4.07,1.42q3-3.21,2.11-5.67-3.8,1.41-3.9,5.88l-1.7.5.82.84,2-.8A8.32,8.32,0,0,0,86,75.12a6.3,6.3,0,0,0,2-.35A13.51,13.51,0,0,0,83.49,72l2.15-.9a7.59,7.59,0,0,0,4,1.36,5.24,5.24,0,0,0,4.08-2.13,12.13,12.13,0,0,0-5-.89l2.21-1.76a7.21,7.21,0,0,0,1.49.16,5.21,5.21,0,0,0,4.84-3.27,21.2,21.2,0,0,0-3.8.52L95,62.81c2.9-.28,4.58-2,5-5h-.13c-1.7,0-2.61,1.23-3.46,1.3A13.32,13.32,0,0,0,97.23,56Z"/><path class="cls-2" d="M31.05,72.16c-.05-3-1.34-5-3.87-5.89q-.84,2.46,2.08,5.68A16.84,16.84,0,0,1,25.2,70.5q1.29-3.81-2.13-7.5a8,8,0,0,0,.36,6.5,10,10,0,0,1-3.37-2.42q2.85-4-.25-8.59a11.58,11.58,0,0,0-1.49,6.89l-2-3.13q3.34-3.09,1.7-8.54c-1.21,1.1-2.16,3.17-2.85,6.23a15,15,0,0,1-1.13-3.8,9.27,9.27,0,0,0,2.17-8.06,11.84,11.84,0,0,0-2.61,4.31,25.1,25.1,0,0,1,0-5.53A5,5,0,0,0,14.75,40c-2.3,2.55-2.8,4.82-1.64,7.12a22,22,0,0,0-.26,4.3l-3.52-2.5c-.07,3.86,1.24,6.21,3.95,7.06a14.13,14.13,0,0,0,.82,3.08c-.85-.07-1.75-1.32-3.46-1.32h-.12q.64,4.62,5,5L17,65.1a21.61,21.61,0,0,0-3.81-.54,5.23,5.23,0,0,0,4.86,3.29,7.62,7.62,0,0,0,1.46-.15l2.21,1.76a12.38,12.38,0,0,0-5,.87,5.25,5.25,0,0,0,4.1,2.15,7.72,7.72,0,0,0,4-1.34L27,72a13.65,13.65,0,0,0-4.55,2.74,6.15,6.15,0,0,0,2,.36,8.28,8.28,0,0,0,5.45-2.44l2,.8.81-.83Z"/><polygon class="cls-3" points="107.71 33.03 108.14 36.92 111.59 38.77 108.02 40.38 107.33 44.22 104.7 41.33 100.83 41.86 102.76 38.47 101.06 34.95 104.89 35.74 107.71 33.03"/><polygon class="cls-3" points="4.18 33.03 6.85 35.88 10.71 35.3 8.83 38.72 10.58 42.22 6.74 41.48 3.96 44.23 3.47 40.35 0 38.55 3.54 36.89 4.18 33.03"/><path class="cls-3" d="M105.19,45.24c0,.13,0,.25,0,.38h0A50.44,50.44,0,0,1,90.7,77.52a49.63,49.63,0,0,1-70.61,0A50.41,50.41,0,0,1,5.65,46H4.56c2,26.66,24.29,47.47,50.83,47.47s49-21,50.87-47.84v0c0-.13,0-.24,0-.35Z"/><path class="cls-4" d="M90.51,38.58a35.9,35.9,0,0,1-.31,4.76A32.85,32.85,0,0,1,89.51,47c-.05.22-.1.45-.17.67a33.49,33.49,0,0,1-1.08,3.44c-.06.15-.11.3-.17.44a33.44,33.44,0,0,1-2,4.28A35.1,35.1,0,0,1,30.3,63.7a35.83,35.83,0,0,1-5.44-7.07c-.33-.56-.64-1.12-.93-1.69a33.6,33.6,0,0,1-1.66-3.73c-.12-.33-.24-.66-.35-1A35.76,35.76,0,0,1,30.3,13.46a35.07,35.07,0,0,1,49.89,0A35.42,35.42,0,0,1,90.51,38.58Z"/><path class="cls-3" d="M55.25.54a38.08,38.08,0,0,0-35.79,50A36.67,36.67,0,0,0,21.24,55a37.55,37.55,0,0,0,69.53-3.69,34.29,34.29,0,0,0,1.08-3.66c.06-.22.11-.43.15-.65h0c.21-.89.38-1.8.51-2.71A38.06,38.06,0,0,0,55.25.54ZM89.51,47c-.05.22-.1.45-.17.67a33.49,33.49,0,0,1-1.08,3.44c-.06.15-.11.3-.17.44a33.44,33.44,0,0,1-2,4.28A35.1,35.1,0,0,1,30.3,63.7a35.83,35.83,0,0,1-5.44-7.07c-.33-.56-.64-1.12-.93-1.69a33.6,33.6,0,0,1-1.66-3.73c-.12-.33-.24-.66-.35-1A35.76,35.76,0,0,1,30.3,13.46a35.07,35.07,0,0,1,49.89,0A35.42,35.42,0,0,1,90.51,38.58a35.9,35.9,0,0,1-.31,4.76A32.85,32.85,0,0,1,89.51,47Z"/><path class="cls-5" d="M50.37,25.18c.11.27.78.46,1.28,1s.93,1,.93,1a11.66,11.66,0,0,1,1.32,1.22c.27.38.53.68.53.68a14.69,14.69,0,0,1,2.16,1.05c.45.36,1.31,1.09,1.39,1.17a2.27,2.27,0,0,0,.51.23s.22-.49.32-.81a1.24,1.24,0,0,0-.07-.82,6.49,6.49,0,0,1-.25-1.08,12,12,0,0,1,0-1.87c0-.27.17-.53.21-.78a3.49,3.49,0,0,1,.28-1c.18-.37.3-.58.45-.9a3.12,3.12,0,0,1,1.26-1.29c.46-.14.77-.19,1-.28a.79.79,0,0,1,.69.08A8.53,8.53,0,0,1,63.68,24c.28.34.76.89.86,1.05s.21.35.21.35L65,24.31a1.78,1.78,0,0,0,.13-.68,19.76,19.76,0,0,0-.46-2c-.2-.58-.94-5.21-1-5.48a8.86,8.86,0,0,1-.47-1.08,5.44,5.44,0,0,0-.37-1.16,3.53,3.53,0,0,1-.07-1.55,3.3,3.3,0,0,1,.16-.56,8.12,8.12,0,0,0,.2-.95c0-.12,0-.81.22-.8a.48.48,0,0,1,.54.46,1.91,1.91,0,0,1,0,.8c0,.29-.19.45-.06.48s.23-.12.3-.2a.66.66,0,0,0,.14-.35,5,5,0,0,1,.26-1c.1-.21.36-.53.53-.51s.27.05.22.34-.2.59-.26.84-.15.54,0,.56.25-.1.43-.32.5-.57.59-.7a2.38,2.38,0,0,1,.66-.57.57.57,0,0,1,.3,0,.62.62,0,0,1,.45,0,.26.26,0,0,1,.08.38,8.57,8.57,0,0,1-.7,1.13,2.05,2.05,0,0,0-.32.52,5.82,5.82,0,0,0-.63,1.1,3,3,0,0,1-.53.89.53.53,0,0,0-.11.49,37,37,0,0,0,1.55,4.47,12.17,12.17,0,0,1,.93,3.49c.14.9,0,2,.1,2.14s.16,2.1.19,2.74,0,1.06,0,1.06A6.7,6.7,0,0,1,68,30.2c-.19,1.18-.82,4.68-.82,5.62a8.18,8.18,0,0,1-.41,2.35,13.35,13.35,0,0,0-.73,4.71,27.64,27.64,0,0,0,1.26,4.58c.23,1,.14,2.2.33,2.57a6.06,6.06,0,0,1,.59,1.72,2.08,2.08,0,0,0,.2.85A16.78,16.78,0,0,1,68.56,55c0,.57.16,2.6.09,3.26a4.47,4.47,0,0,0,.24,1.93c.19.45.45.76.21,1.28s-.12.78-.33,1a4.6,4.6,0,0,0-.36.57s0,2.07.08,2.69a11,11,0,0,0,.44,1.71c.12.42.27,1.28.27,1.28a11.44,11.44,0,0,1,1.38,2.66,14.26,14.26,0,0,1,.49,4.36,24.2,24.2,0,0,0,.1,3.59c0,.37.17.61.19,1.06s.09,1.32.1,1.51.3.83.43,1.32a7.7,7.7,0,0,1,.12,1.1,3.37,3.37,0,0,1,.26,1.16c0,.36-.22.46-.22.84a3.78,3.78,0,0,1,0,1.16c-.12.34-.85.48-1.44.65a7.5,7.5,0,0,1-2.55-.08c-.28-.11-.28-.66-.28-.66s.42-1.21.64-1.69a3.86,3.86,0,0,0,.17-1.85c-.06-.51-.2-.86-.18-1s.22-.29.22-.29a5.88,5.88,0,0,1,0-1.06c.07-.38,0-1.26.07-1.46s-1.38-4.58-1.67-5.7a24.34,24.34,0,0,1-.47-2.83s-1-1.74-1.2-2.19-.25-.64-.35-.86a18.73,18.73,0,0,1-1.29-3.08,7.46,7.46,0,0,1-.19-1.64,6.48,6.48,0,0,1-.5-1c-.25-.62-1.42-2.66-1.52-2.81s-.37-.47-.37-.47l-.67,1.3A15.06,15.06,0,0,0,60,62.42c0,.17-.07.57-.13.57l-.95-.06S57.83,65,57.57,65.59s-.52,1.24-.65,1.57-.71,1.47-.71,1.47a29.22,29.22,0,0,1,0,3.85c-.15.74-.93,2.84-1.09,3.52a17.25,17.25,0,0,0-.29,2.19,5.31,5.31,0,0,0,.09.71,7.27,7.27,0,0,1,.14.83c0,.18-.11.31,0,.41a2.39,2.39,0,0,1,.31.78c.11.31.19.84.38.94s.26,1,.23,1.16a9.82,9.82,0,0,1-2.35,1,3.17,3.17,0,0,1-1,.07,5.54,5.54,0,0,1-1.08,1.36,5.11,5.11,0,0,1-2.42.86,3.37,3.37,0,0,1-1.85-.29c0-.09-.2-1.09.19-1.31A4.28,4.28,0,0,0,49,83.57a11.87,11.87,0,0,0,1.52-2c0-.31-.55-1.73-.16-1.79a1.17,1.17,0,0,1,1,.22l.28.19a15.62,15.62,0,0,0,.29-1.83,3.69,3.69,0,0,1,.05-.66s.07-1.39,0-2.33a22.58,22.58,0,0,1,.23-4.88c.29-1.29.5-2.55.55-3a14.55,14.55,0,0,1,.5-1.89,14.41,14.41,0,0,0,0-2.33,8.64,8.64,0,0,1,0-1,5.16,5.16,0,0,1-1.13-.75,1.56,1.56,0,0,1-.19-.34s1.5-4.28,2-5.21,1.38-2.54,1.38-2.54.62-1.78.73-2.36a8.93,8.93,0,0,0-.18-3.08c-.24-.44.11-1.2.11-1.31a42,42,0,0,1-.9-4.86,14,14,0,0,0-.62-3.7c-.28-.72-1.07-2.48-1.76-3.86A8.43,8.43,0,0,0,51.2,32.1l-.64-1,0-.11s-1.28-1.9-1.48-2.33-1.11-1.67-1.32-2-.82-.71-.79-1.4,0-2.07,0-2.81a52.59,52.59,0,0,1,.67-5.68c.21-.93.18-1.28.25-1.52a4.31,4.31,0,0,1,.19-.82,3.57,3.57,0,0,0,.31-.7c0-.3-.16-1.51-.15-1.81s0-.54.25-.61.36.19.37.38a5.12,5.12,0,0,0,.09.85c.06.22.13.62.2.63a5.8,5.8,0,0,0,.08-1.1c0-.34,0-1.26.37-1.21s.29.51.3.72,0,.87.05,1.07,0,.68.15.59a2.24,2.24,0,0,0,.3-.87c.07-.36.25-.91.27-1.07a.35.35,0,0,1,.42-.29c.19.07.26.21.18.56s-.13.87-.13.87.24,0,.29-.05a2.4,2.4,0,0,0,.32-.46c.06-.17.34-.62.56-.49a.39.39,0,0,1,.16.56c-.11.24-.31.94-.37,1.13s-.45.62-.55.89a3.56,3.56,0,0,1-.4.77c-.18.29-.72,1.16-.84,1.29a1.18,1.18,0,0,0-.28.52,25.35,25.35,0,0,0-.38,3.64c.07.74.45,2.6.56,3.4S50.3,25,50.37,25.18Z"/><path class="cls-5" d="M52.91,4.12A4.12,4.12,0,1,1,48.8,0,4.11,4.11,0,0,1,52.91,4.12Z"/></g></g></svg>