<svg xmlns="http://www.w3.org/2000/svg" viewBox="0 0 111.59 92.92"><defs><style>.cls-1{fill:#ff7c96;}.cls-2{fill:#ede9e0;}.cls-3{fill:#324b58;}.cls-4{fill:#b6defa;}</style></defs><g id="Calque_2" data-name="Calque 2"><g id="Surfing"><path class="cls-1" d="M71.45,16.51h0c-.64,0-1.32,0-2-.08a20.72,20.72,0,0,1-6.2-1.59s-.47-.21-1.17-.46A14.64,14.64,0,0,0,56.44,13h-.59l-.51,0h0a15.74,15.74,0,0,0-6,1.5l-.17.06a22.47,22.47,0,0,1-6.83,1.85c-.7.05-1.37.08-2,.08h0a15.51,15.51,0,0,1-4.74-.63l.07,21.59a.41.41,0,0,1,0,.19l0,.05a45.24,45.24,0,0,0,.21,6.52,6.66,6.66,0,0,1,.15.65,23.84,23.84,0,0,0,1.64,5.17l0,.1.46.92a27.33,27.33,0,0,0,6.12,7.84l.11.11c1.89,1.86,3.89,3.7,6,5.47a57.75,57.75,0,0,0,5.5,4.36h.11l.66-.49.17-.13A39.83,39.83,0,0,0,60,65.67a103.89,103.89,0,0,0,8.85-8.14l0,0a23.5,23.5,0,0,0,3.51-4.32l0,0a24.11,24.11,0,0,0,1.44-2.52.11.11,0,0,1,0-.08,22.17,22.17,0,0,0,2-6.07.19.19,0,0,1,0-.1c.05-.33.08-.65.11-.95s0-.67,0-.74v0l.18-26.8a19,19,0,0,1-3.79.64Z"/><path class="cls-2" d="M97.23,55.47c2.72-.84,4-3.19,4-7l-3.52,2.49a22.78,22.78,0,0,0-.24-4.3c1.16-2.3.67-4.57-1.62-7.13a5,5,0,0,0,1.09,6.85,25.13,25.13,0,0,1,0,5.53,11.7,11.7,0,0,0-2.59-4.31q-.74,5,2.14,8.06a14.85,14.85,0,0,1-1.15,3.8q-1-4.59-2.82-6.25-1.68,5.46,1.67,8.56l-2,3.11a11.51,11.51,0,0,0-1.47-6.89q-3.1,4.55-.28,8.59A9.73,9.73,0,0,1,87,68.93a8,8,0,0,0,.38-6.49Q84,66.12,85.26,69.93a16.62,16.62,0,0,1-4.07,1.43q3-3.21,2.11-5.67-3.8,1.41-3.9,5.88l-1.7.5.82.83,2-.79A8.3,8.3,0,0,0,86,74.57a6,6,0,0,0,2-.35,13.68,13.68,0,0,0-4.54-2.75l2.15-.9a7.59,7.59,0,0,0,4,1.36,5.22,5.22,0,0,0,4.08-2.14,12.31,12.31,0,0,0-5-.88l2.21-1.76a8,8,0,0,0,1.49.16A5.21,5.21,0,0,0,97.26,64a21.2,21.2,0,0,0-3.8.52L95,62.27c2.9-.28,4.58-2,5-5h-.13c-1.7,0-2.61,1.23-3.46,1.3A13.32,13.32,0,0,0,97.23,55.47Z"/><path class="cls-2" d="M31.05,71.62q-.07-4.47-3.87-5.9c-.56,1.64.13,3.54,2.08,5.68A17.21,17.21,0,0,1,25.2,70q1.29-3.81-2.13-7.5A8,8,0,0,0,23.43,69a9.78,9.78,0,0,1-3.37-2.41q2.85-4-.25-8.59a11.55,11.55,0,0,0-1.49,6.88l-2-3.12q3.34-3.09,1.7-8.55-1.82,1.65-2.85,6.24a15.12,15.12,0,0,1-1.13-3.8,9.28,9.28,0,0,0,2.17-8.06,11.84,11.84,0,0,0-2.61,4.31,25.1,25.1,0,0,1,0-5.53,5.06,5.06,0,0,0,1.11-6.86c-2.3,2.56-2.8,4.83-1.64,7.13a22,22,0,0,0-.26,4.3l-3.52-2.5c-.07,3.86,1.24,6.21,3.95,7.06a14.31,14.31,0,0,0,.82,3.08c-.85-.08-1.75-1.32-3.46-1.32h-.12c.43,3.07,2.1,4.76,5,5L17,64.55A21.52,21.52,0,0,0,13.22,64a5.23,5.23,0,0,0,4.86,3.29,6.93,6.93,0,0,0,1.46-.16l2.21,1.77a12.38,12.38,0,0,0-5,.87,5.25,5.25,0,0,0,4.1,2.15,7.65,7.65,0,0,0,4-1.35L27,71.5a13.49,13.49,0,0,0-4.55,2.74,6.15,6.15,0,0,0,2,.36,8.29,8.29,0,0,0,5.45-2.45l2,.81.81-.83Z"/><polygon class="cls-3" points="107.71 32.49 108.14 36.38 111.59 38.22 108.02 39.83 107.33 43.68 104.7 40.79 100.83 41.32 102.76 37.92 101.06 34.41 104.89 35.2 107.71 32.49"/><polygon class="cls-3" points="4.18 32.49 6.85 35.34 10.71 34.76 8.83 38.18 10.58 41.67 6.74 40.94 3.96 43.68 3.47 39.8 0 38 3.54 36.34 4.18 32.49"/><path class="cls-3" d="M105.19,44.7c0,.13,0,.25,0,.38h0A50.44,50.44,0,0,1,90.7,77a49.63,49.63,0,0,1-70.61,0A50.41,50.41,0,0,1,5.65,45.45H4.56c2,26.66,24.29,47.47,50.83,47.47s49-21,50.87-47.84v0c0-.13,0-.24,0-.35Z"/><path class="cls-3" d="M55.25,0A38.08,38.08,0,0,0,19.46,50a36.67,36.67,0,0,0,1.78,4.46,37.55,37.55,0,0,0,69.53-3.69,34.29,34.29,0,0,0,1.08-3.66c.06-.22.11-.43.15-.65h0c.21-.89.38-1.8.51-2.71A38.06,38.06,0,0,0,55.25,0ZM89.51,46.49c-.05.22-.1.45-.17.67a33.49,33.49,0,0,1-1.08,3.44c-.06.15-.11.3-.17.44a33.44,33.44,0,0,1-2,4.28A35.1,35.1,0,0,1,30.3,63.16a35.83,35.83,0,0,1-5.44-7.07c-.33-.56-.64-1.12-.93-1.69a33.6,33.6,0,0,1-1.66-3.73c-.12-.33-.24-.66-.35-1A35.76,35.76,0,0,1,30.3,12.92a35.07,35.07,0,0,1,49.89,0A35.42,35.42,0,0,1,90.51,38a35.9,35.9,0,0,1-.31,4.76A32.85,32.85,0,0,1,89.51,46.49Z"/><path class="cls-4" d="M91.13,43.43C88.63,42,80.75,36.54,64.5,32.74a13,13,0,0,0,.08-1.52,18.47,18.47,0,0,0-.1-2.42A19.88,19.88,0,0,0,64,26.55a5.16,5.16,0,0,0,.27-.67,4,4,0,0,0-.13-1.59,29.06,29.06,0,0,0-1.52-2.58c-.45-.67-1.51-2-1.59-2.17a3.52,3.52,0,0,1-.3-1.13c0-.47-.17-.73-.18-1.24s0-.49.07-.62a1,1,0,0,1,.32-.47c.28-.24.19-.68.51-.87A3.45,3.45,0,0,1,62.62,15a1.58,1.58,0,0,0,.84-.2,1.63,1.63,0,0,0,.51-1,2.3,2.3,0,0,0-.24-.74.36.36,0,0,1,.07-.39.53.53,0,0,0,0-.32,1.66,1.66,0,0,0-.25-.2.27.27,0,0,0,.19-.12.79.79,0,0,0,.1-.33s-.12-.12-.19-.25a3.71,3.71,0,0,1-.11-.62s.14-.12.23-.18a.62.62,0,0,0,.23-.17A1,1,0,0,0,64,10a1.93,1.93,0,0,0-.34-.47c-.14-.17-.61-.6-.77-.78a1.18,1.18,0,0,1-.27-.62,1.43,1.43,0,0,1,.07-.38,2.13,2.13,0,0,1,.12-.31c0-.09-.09-.32-.13-.37a2.61,2.61,0,0,1-.24-.52,5.36,5.36,0,0,0-.68-1.07,4.79,4.79,0,0,1-.3-.38.16.16,0,0,0,.15,0c.07,0,.5-.11.5-.11A3.19,3.19,0,0,0,62,4.66a1.73,1.73,0,0,0-.29-.23c-.07,0-.07-.18-.07-.18a3,3,0,0,0-.33,0c-.09,0-.12-.13-.19-.21a.56.56,0,0,0-.24-.12c0-.05.15,0,.15,0l-.11-.08a.44.44,0,0,0-.35,0,.33.33,0,0,1-.32,0l-.58-.11-.09-.07a.62.62,0,0,0-.12.06s-.09,0-.18,0-.11-.12-.11-.12a2.63,2.63,0,0,1-.23.16,1.2,1.2,0,0,1-.2.06s-.08,0-.09,0,.05-.11,0-.1-.15.13-.23.18-.39.42-.56.43a2,2,0,0,1-.55-.17s-.18,0-.2,0,0,.1-.13.19a2.24,2.24,0,0,1-.58.16.55.55,0,0,0-.19.18,1.12,1.12,0,0,1-.27.23s-.16,0-.14,0a.84.84,0,0,0-.18.25,2.19,2.19,0,0,1-.16.3s-.6.43-.63.43-.07-.06-.07-.06l0,.22a1.92,1.92,0,0,1,0,.5.8.8,0,0,1-.14.21c-.09.11-.28.14-.2.16s0,.18,0,.18a1.85,1.85,0,0,1,0,.64c-.08.22-.08.32-.13.35l-.06.06a.59.59,0,0,1,.05.2,3.53,3.53,0,0,1-.08.42.39.39,0,0,0,0,.22.89.89,0,0,1,0,.36,1,1,0,0,1,0,.2,2.5,2.5,0,0,1,0,.28,1,1,0,0,1,0,.31,3.38,3.38,0,0,0,.05.51A14.13,14.13,0,0,0,54.65,12c.13.36.44,1.11.44,1.11.13.17.44-.05.46.06s0,.54,0,1a10.16,10.16,0,0,1-.14,1.71c-.06.11-.58.41-.83.79a7.4,7.4,0,0,0-.54,1.24,12.6,12.6,0,0,0-1.11,1.32,29.67,29.67,0,0,0-2,3.33c-.58,1.11-1.55,3.16-1.88,3.73s-1.26,2.41-1.45,2.61a1.51,1.51,0,0,0-.29.75,5.82,5.82,0,0,1-.23.74c-11.67-.29-19.39,2.15-19.62,2.3s.27,1.75.54,2.54c0,0,.36,1,.44,1.29s-.58,1.41-.82,1.8.08.84,1.56,1.87c.21.14.48.33.83.55a19.94,19.94,0,0,0,.23,3.81c.19.5.42.64.58.68.28,3.68,1.6,19.7,3.44,23,2.09,3.78,6,1.21,6.7-10,.46-6.8.69-10.5.8-12.35,1,.34,2,.69,3.12,1.06l0,.59a.39.39,0,0,0,.36.38.67.67,0,0,0,.36-.06.64.64,0,0,0,.18.31.83.83,0,0,0,.47.12.51.51,0,0,0,.25-.14.7.7,0,0,0,.81.44.21.21,0,0,0,.16-.16s.11.28.2.33.24.24.41.26a1.59,1.59,0,0,0,.69-.19.53.53,0,0,0,.23-.38s0-.1,0-.21l.78.24a9.76,9.76,0,0,0-.7,2.65c-.26,1.89-.09,2-.43,2.88a14.12,14.12,0,0,0-.25,3.47A6.82,6.82,0,0,1,47.63,59a8.56,8.56,0,0,0-.58,1.81,23.43,23.43,0,0,1,2.18,1,4.4,4.4,0,0,0,1,.4v.07a9.08,9.08,0,0,1-1,1.69,12.25,12.25,0,0,0-1.55,3.92,17.06,17.06,0,0,0-.13,3.8c0,.82,0,2.63.09,3.86a20.75,20.75,0,0,1,0,3.44,9.47,9.47,0,0,1-.57,2.14,2.31,2.31,0,0,0-.15,1.18,2.39,2.39,0,0,0,.41,1.47c.17.11.8.3,1,.41a12.81,12.81,0,0,1,1.44,1.29,4.11,4.11,0,0,0,1.45.82s.45,0,.56,0a1.49,1.49,0,0,0,.59.18,1.05,1.05,0,0,0,.34-.21,2.36,2.36,0,0,0,.5.15.63.63,0,0,0,.29-.14s.35.19.5.15a.68.68,0,0,0,.28-.15,1.26,1.26,0,0,0,.52,0A.38.38,0,0,0,55,86a1.61,1.61,0,0,0,.55-.18.77.77,0,0,0,.08-.68,2,2,0,0,0-.48-.4,3.14,3.14,0,0,0-.21-.42c-.08-.11-.61-.37-.83-.55a6.48,6.48,0,0,0-1-.71A6.34,6.34,0,0,1,51.77,82a8,8,0,0,1-1-2.67,15.1,15.1,0,0,1,.35-4.82c.47-2,1.38-5.56,1.57-6.33s.7-2.45.76-2.63.38-.37.63-.48a3.22,3.22,0,0,0,.85-1.35,7.26,7.26,0,0,0,.32-1.51c.53.08.84.16,1.1-.07l.33-.31a3.74,3.74,0,0,1,.17-.83c.17-.6.51-1.43.51-1.43a6.65,6.65,0,0,1,.25,1.13,7.75,7.75,0,0,0,.17,1.06,6.58,6.58,0,0,0,.81,0c0,.23,0,.42,0,.52a6.65,6.65,0,0,1-.28,1.21,8.21,8.21,0,0,0-.77,2.28,10.5,10.5,0,0,0,.12,3.3c.19,1.15.28,1.79.41,2.83s.33,3.64.38,4.17a10.84,10.84,0,0,1-.18,2.67,4.88,4.88,0,0,0-.06,2.36c.22.47.88.51,1.53.51s1.45-.35,2.25-.39a7.87,7.87,0,0,1,2.08.43,3.16,3.16,0,0,0,1.3-.15,1.21,1.21,0,0,1,.7.07,3.09,3.09,0,0,0,.86,0c.17,0,.52-.71.46-.8a2.88,2.88,0,0,0-.6-.31,1.32,1.32,0,0,0-.38-.39c-.22-.13-.55-.25-.67-.33s-.57-.2-.79-.29a4.73,4.73,0,0,1-1.1-.47c-.35-.26-1.06-.77-1.22-.86s-.56-.28-.66-.46a8.25,8.25,0,0,1-.56-1.77,32.53,32.53,0,0,1,0-4.16c.09-1.53.38-5.22.58-6.52a11.34,11.34,0,0,1,.66-2.71,5.51,5.51,0,0,0,.55-1.29C64,61,65,60.73,65,60.73l.75-.53a3.3,3.3,0,0,1-.25-1.29,11,11,0,0,0-.25-2c-.09-.46.17-1.44.08-2.72S65,52.87,65,51.51v-.26c13.31.35,25.24-3.91,27.44-4.69C95,45.64,92.86,44.45,91.13,43.43ZM38.93,66.24c-2.16,5-4.54,3.48-5.66-3.47-.94-5.86-1.83-14.87-2.08-17.57.19-.06.52-.19.52-.34a9.94,9.94,0,0,1-.24-3.28,70.21,70.21,0,0,0,9.94,4.24C41.25,50.28,40.67,62.22,38.93,66.24ZM51.27,30.61l.18-.29s.08-.2.54-.46.86-.56.86-.56A8.5,8.5,0,0,0,53,30.76Z"/></g></g></svg>