<svg xmlns="http://www.w3.org/2000/svg" viewBox="0 0 111.59 92.92"><defs><style>.cls-1{fill:#ff7c96;}.cls-2{fill:#ede9e0;}.cls-3{fill:#324b58;}.cls-4{fill:#b6defa;fill-rule:evenodd;}</style></defs><g id="Calque_2" data-name="Calque 2"><g id="Basketball"><path class="cls-1" d="M71.45,16.51h0c-.64,0-1.32,0-2-.08a20.72,20.72,0,0,1-6.2-1.59s-.47-.21-1.17-.46A14.64,14.64,0,0,0,56.44,13h-.59l-.51,0h0a15.74,15.74,0,0,0-6,1.5l-.17.06a22.47,22.47,0,0,1-6.83,1.85c-.7.05-1.37.08-2,.08h0a15.51,15.51,0,0,1-4.74-.63l.07,21.59a.41.41,0,0,1,0,.19l0,.05a45.24,45.24,0,0,0,.21,6.52,6.66,6.66,0,0,1,.15.65,23.84,23.84,0,0,0,1.64,5.17l0,.1.46.92a27.33,27.33,0,0,0,6.12,7.84l.11.11c1.89,1.86,3.89,3.7,6,5.47a57.75,57.75,0,0,0,5.5,4.36h.11l.66-.49.17-.13A39.83,39.83,0,0,0,60,65.67a103.89,103.89,0,0,0,8.85-8.14l0,0a23.5,23.5,0,0,0,3.51-4.32l0,0a24.11,24.11,0,0,0,1.44-2.52.11.11,0,0,1,0-.08,22.17,22.17,0,0,0,2-6.07.19.19,0,0,1,0-.1c.05-.33.08-.65.11-.95s0-.67,0-.74v0l.18-26.8a19,19,0,0,1-3.79.64Z"/><path class="cls-2" d="M97.23,55.47c2.72-.84,4-3.19,4-7l-3.52,2.49a22.78,22.78,0,0,0-.24-4.3c1.16-2.3.67-4.57-1.62-7.13a5,5,0,0,0,1.09,6.85,25.13,25.13,0,0,1,0,5.53,11.7,11.7,0,0,0-2.59-4.31q-.74,5,2.14,8.06a14.85,14.85,0,0,1-1.15,3.8q-1-4.59-2.82-6.25-1.68,5.46,1.67,8.56l-2,3.11a11.51,11.51,0,0,0-1.47-6.89q-3.1,4.55-.28,8.59A9.73,9.73,0,0,1,87,68.93a8,8,0,0,0,.38-6.49Q84,66.12,85.26,69.93a16.62,16.62,0,0,1-4.07,1.43q3-3.21,2.11-5.67-3.8,1.41-3.9,5.88l-1.7.5.82.83,2-.79A8.3,8.3,0,0,0,86,74.57a6,6,0,0,0,2-.35,13.68,13.68,0,0,0-4.54-2.75l2.15-.9a7.59,7.59,0,0,0,4,1.36,5.22,5.22,0,0,0,4.08-2.14,12.31,12.31,0,0,0-5-.88l2.21-1.76a8,8,0,0,0,1.49.16A5.21,5.21,0,0,0,97.26,64a21.2,21.2,0,0,0-3.8.52L95,62.27c2.9-.28,4.58-2,5-5h-.13c-1.7,0-2.61,1.23-3.46,1.3A13.32,13.32,0,0,0,97.23,55.47Z"/><path class="cls-2" d="M31.05,71.62q-.07-4.47-3.87-5.9c-.56,1.64.13,3.54,2.08,5.68A17.21,17.21,0,0,1,25.2,70q1.29-3.81-2.13-7.5A8,8,0,0,0,23.43,69a9.78,9.78,0,0,1-3.37-2.41q2.85-4-.25-8.59a11.55,11.55,0,0,0-1.49,6.88l-2-3.12q3.34-3.09,1.7-8.55-1.82,1.65-2.85,6.24a15.12,15.12,0,0,1-1.13-3.8,9.28,9.28,0,0,0,2.17-8.06,11.84,11.84,0,0,0-2.61,4.31,25.1,25.1,0,0,1,0-5.53,5.06,5.06,0,0,0,1.11-6.86c-2.3,2.56-2.8,4.83-1.64,7.13a22,22,0,0,0-.26,4.3l-3.52-2.5c-.07,3.86,1.24,6.21,3.95,7.06a14.31,14.31,0,0,0,.82,3.08c-.85-.08-1.75-1.32-3.46-1.32h-.12c.43,3.07,2.1,4.76,5,5L17,64.55A21.52,21.52,0,0,0,13.22,64a5.23,5.23,0,0,0,4.86,3.29,6.93,6.93,0,0,0,1.46-.16l2.21,1.77a12.38,12.38,0,0,0-5,.87,5.25,5.25,0,0,0,4.1,2.15,7.65,7.65,0,0,0,4-1.35L27,71.5a13.49,13.49,0,0,0-4.55,2.74,6.15,6.15,0,0,0,2,.36,8.29,8.29,0,0,0,5.45-2.45l2,.81.81-.83Z"/><polygon class="cls-3" points="107.71 32.49 108.14 36.38 111.59 38.22 108.02 39.83 107.33 43.68 104.7 40.79 100.83 41.32 102.76 37.92 101.06 34.41 104.89 35.2 107.71 32.49"/><polygon class="cls-3" points="4.18 32.49 6.85 35.34 10.71 34.76 8.83 38.18 10.58 41.67 6.74 40.94 3.96 43.68 3.47 39.8 0 38 3.54 36.34 4.18 32.49"/><path class="cls-3" d="M105.19,44.7c0,.13,0,.25,0,.38h0A50.44,50.44,0,0,1,90.7,77a49.63,49.63,0,0,1-70.61,0A50.41,50.41,0,0,1,5.65,45.45H4.56c2,26.66,24.29,47.47,50.83,47.47s49-21,50.87-47.84v0c0-.13,0-.24,0-.35Z"/><path class="cls-3" d="M55.25,0A38.08,38.08,0,0,0,19.46,50a36.67,36.67,0,0,0,1.78,4.46,37.55,37.55,0,0,0,69.53-3.69,34.29,34.29,0,0,0,1.08-3.66c.06-.22.11-.43.15-.65h0c.21-.89.38-1.8.51-2.71A38.06,38.06,0,0,0,55.25,0ZM89.51,46.49c-.05.22-.1.45-.17.67a33.49,33.49,0,0,1-1.08,3.44c-.06.15-.11.3-.17.44a33.44,33.44,0,0,1-2,4.28A35.1,35.1,0,0,1,30.3,63.16a35.83,35.83,0,0,1-5.44-7.07c-.33-.56-.64-1.12-.93-1.69a33.6,33.6,0,0,1-1.66-3.73c-.12-.33-.24-.66-.35-1A35.76,35.76,0,0,1,30.3,12.92a35.07,35.07,0,0,1,49.89,0A35.42,35.42,0,0,1,90.51,38a35.9,35.9,0,0,1-.31,4.76A32.85,32.85,0,0,1,89.51,46.49Z"/><path class="cls-4" d="M57.18,16.67c0-3.31.22-7.09,2.91-8.44s4.31.18,6,1.53.9,7.35-.19,9.29c-.17.3-.35.66-.54,1a3.94,3.94,0,0,1,.82,2c.17,1.4-.59,3.28-1,4.48-.32.82-.14,5.67.28,7.24l0,.12a62.41,62.41,0,0,0,7.4,8.26c1.75,1.75,5.82,5.39,5.53,7.91-.13,1.11-2.46-2.23-2.86-2.48-1.5-.94-4.57-3.8-5.62-4.28A34,34,0,0,1,61.23,37c-.06-.07-.62-.55-1.15-1a8.18,8.18,0,0,1-.76-.48c-.92,1.57-1.93,3.29-1.71,3.69.3.57-1.39,1.57-2.29,2.38a6.68,6.68,0,0,0-.59.69c1.43,2.92,3,6.16,4.21,7.41a9.38,9.38,0,0,1,1,1.24c.57.08,1.1.8,1.56,1.05a4,4,0,0,0,1.66.43c.65,0,.79.32,1.19.57a1.94,1.94,0,0,0,1.2.48c1,.13.54,1.29-.2,1a4.28,4.28,0,0,0-1.32-.08l.13.13A12.73,12.73,0,0,1,65.71,57c.08.14,1.35,2.09.38,1.48-.41-.26-.62-.75-1-1.1l-.75-.58A11.55,11.55,0,0,0,65,58.26a10.14,10.14,0,0,1,.67.85c.57,1.14-.9.11-1.15-.14s-.53-1-1-1.29l-.25-.12c.71,1.8,1.52,3.95-.13,5.6-.44.44-1.54,2.49-2.44,3.44a56.33,56.33,0,0,1-5.76,10.47c-.35.51-.78,1.38-1.29,2.26.28.58.91.7.91,1.37,0,3.42,3.26,4,4.67,6.28,1.58,2.53-4.7,2.67-6.1,2.67-2.27,0-10.33-3.37-8.57-5.33a14.42,14.42,0,0,0,1-1.29c-2.28-.88-4.94-2.33-4.63-2.81.84-1.36,1.17-3.65,2.47-5s2.3-3.3,3.49-4.62c.32-.88.92-1.66,1.29-2.49.68-1.54,1.18-3.11,1.85-4.68-.42-.36-.91-.76-1.48-1.16-1.49-1-1.87-2.63-3-4-.79-1-1.51-2.82-2.73-4.51-1.07-1.5-2.89-2.64-4-4.16-2.37-3.23-4.55-6-4.31-7.81.16-1.22,2-4.38,4.07-6.86-.21-1.41-.21-2.55.22-2.76C44.1,29.57,44.92,22,49.22,19.33c2.56-1.59,5.36-1.22,8-2.66ZM78,53.51A6.53,6.53,0,1,0,84.55,60,6.53,6.53,0,0,0,78,53.51ZM53.61,68.57c-1,.81-1.57,2.49-2.42,3.45a13.66,13.66,0,0,0-1,2.8c.16.25.05,2.12.38,1.69C52.09,74.53,53.61,70.77,53.61,68.57Z"/></g></g></svg>