<svg xmlns="http://www.w3.org/2000/svg" viewBox="0 0 111.59 94.86"><defs><style>.cls-1{fill:#ff7c96;}.cls-2{fill:#ede9e0;}.cls-3{fill:#324b58;}.cls-4{fill:#b6defa;}</style></defs><g id="Calque_2" data-name="Calque 2"><g id="fisherman"><path class="cls-1" d="M71.45,18.44h0c-.64,0-1.32,0-2-.07a20.42,20.42,0,0,1-6.2-1.6s-.47-.2-1.17-.46A14.81,14.81,0,0,0,56.44,15h-1.1a15.74,15.74,0,0,0-6,1.5l-.17.06a22.47,22.47,0,0,1-6.83,1.85c-.7.05-1.37.07-2,.07h0a15.2,15.2,0,0,1-4.74-.63l.07,21.6a.41.41,0,0,1,0,.19l0,0a45.29,45.29,0,0,0,.21,6.52c.05.15.09.36.15.64A23.87,23.87,0,0,0,37.59,52l0,.1c.13.27.28.57.46.91a27.37,27.37,0,0,0,6.12,7.85l.11.1c1.89,1.87,3.89,3.71,6,5.48a57.75,57.75,0,0,0,5.5,4.36h.11l.66-.49.17-.13c.83-.57,1.92-1.43,3.26-2.56a105.56,105.56,0,0,0,8.85-8.14l0,0a24.4,24.4,0,0,0,3.51-4.32l0-.05a25.18,25.18,0,0,0,1.44-2.52.16.16,0,0,1,0-.09,22,22,0,0,0,2-6.06.19.19,0,0,1,0-.1c.05-.33.08-.65.11-1s0-.67,0-.73v0l.18-26.8a18.42,18.42,0,0,1-3.79.63C72.07,18.44,71.76,18.44,71.45,18.44Z"/><path class="cls-2" d="M97.23,57.4c2.72-.83,4-3.18,4-7l-3.52,2.48a22.83,22.83,0,0,0-.24-4.3c1.16-2.29.67-4.56-1.62-7.12a5,5,0,0,0,1.09,6.85,25.15,25.15,0,0,1,0,5.53,11.62,11.62,0,0,0-2.59-4.31,9.25,9.25,0,0,0,2.14,8.06,14.85,14.85,0,0,1-1.15,3.8q-1-4.59-2.82-6.25c-1.12,3.63-.56,6.49,1.67,8.55l-2,3.12a11.51,11.51,0,0,0-1.47-6.89q-3.1,4.54-.28,8.59A9.73,9.73,0,0,1,87,70.87a8,8,0,0,0,.38-6.49Q84,68.06,85.26,71.87a17.05,17.05,0,0,1-4.07,1.43q3-3.21,2.11-5.67-3.8,1.41-3.9,5.88l-1.7.5.82.83,2-.8A8.27,8.27,0,0,0,86,76.51a6,6,0,0,0,2-.35,13.67,13.67,0,0,0-4.54-2.76l2.15-.89a7.68,7.68,0,0,0,4,1.36,5.25,5.25,0,0,0,4.08-2.14,12.15,12.15,0,0,0-5-.88l2.21-1.76a7.92,7.92,0,0,0,1.49.15A5.2,5.2,0,0,0,97.26,66a22.06,22.06,0,0,0-3.8.51L95,64.21c2.9-.29,4.58-2,5-5h-.13c-1.7,0-2.61,1.23-3.46,1.3A13.44,13.44,0,0,0,97.23,57.4Z"/><path class="cls-2" d="M31.05,73.56q-.07-4.47-3.87-5.9-.84,2.46,2.08,5.68A17.21,17.21,0,0,1,25.2,71.9q1.29-3.81-2.13-7.5a8,8,0,0,0,.36,6.49,9.91,9.91,0,0,1-3.37-2.41q2.85-4-.25-8.6a11.59,11.59,0,0,0-1.49,6.89l-2-3.12q3.34-3.09,1.7-8.55-1.82,1.65-2.85,6.24a15.22,15.22,0,0,1-1.13-3.81,9.25,9.25,0,0,0,2.17-8.05,11.78,11.78,0,0,0-2.61,4.3,25.07,25.07,0,0,1,0-5.53,5,5,0,0,0,1.11-6.85c-2.3,2.56-2.8,4.82-1.64,7.12a22.09,22.09,0,0,0-.26,4.3l-3.52-2.5c-.07,3.86,1.24,6.22,3.95,7.07a14,14,0,0,0,.82,3.07c-.85-.07-1.75-1.31-3.46-1.31h-.12q.64,4.6,5,5.05L17,66.49A21.52,21.52,0,0,0,13.22,66a5.22,5.22,0,0,0,4.86,3.28,7.62,7.62,0,0,0,1.46-.15l2.21,1.77a12,12,0,0,0-5,.87,5.25,5.25,0,0,0,4.1,2.15,7.65,7.65,0,0,0,4-1.35l2.14.91a13.33,13.33,0,0,0-4.55,2.74,6.15,6.15,0,0,0,2,.36,8.29,8.29,0,0,0,5.45-2.45l2,.8.81-.83Z"/><polygon class="cls-3" points="107.71 34.43 108.14 38.31 111.59 40.16 108.02 41.77 107.33 45.62 104.7 42.73 100.83 43.26 102.76 39.86 101.06 36.34 104.89 37.13 107.71 34.43"/><polygon class="cls-3" points="4.18 34.42 6.85 37.28 10.71 36.69 8.83 40.12 10.58 43.61 6.74 42.88 3.96 45.62 3.47 41.74 0 39.94 3.54 38.28 4.18 34.42"/><path class="cls-3" d="M105.19,46.64c0,.13,0,.25,0,.38h0A50.44,50.44,0,0,1,90.7,78.92a49.63,49.63,0,0,1-70.61,0A50.41,50.41,0,0,1,5.65,47.39H4.56c2,26.66,24.29,47.47,50.83,47.47s49-21,50.87-47.84v0c0-.13,0-.24,0-.35Z"/><path class="cls-3" d="M55.25,1.94a38.08,38.08,0,0,0-35.79,50,36.67,36.67,0,0,0,1.78,4.46,37.55,37.55,0,0,0,69.53-3.69A34.29,34.29,0,0,0,91.85,49c.06-.22.11-.43.15-.65h0c.21-.89.38-1.8.51-2.71A38.06,38.06,0,0,0,55.25,1.94ZM89.51,48.43c-.05.22-.1.45-.17.67a33.49,33.49,0,0,1-1.08,3.44c-.06.15-.11.3-.17.44a33.44,33.44,0,0,1-2,4.28A35.1,35.1,0,0,1,30.3,65.1,35.83,35.83,0,0,1,24.86,58c-.33-.56-.64-1.12-.93-1.69a33.6,33.6,0,0,1-1.66-3.73c-.12-.33-.24-.66-.35-1A35.76,35.76,0,0,1,30.3,14.86a35.07,35.07,0,0,1,49.89,0A35.42,35.42,0,0,1,90.51,40a35.9,35.9,0,0,1-.31,4.76A32.85,32.85,0,0,1,89.51,48.43Z"/><path class="cls-4" d="M87.52,32.59c0-.34.23-1.58.19-2a13.67,13.67,0,0,1,0-1.38,5.09,5.09,0,0,0-.49-2.53,1.93,1.93,0,0,1-.14-.86s.08-.59-.73-1.24A8.62,8.62,0,0,0,84,23.19c-.7-.25-1.1-.37-1.1-.37s2.18-1.44,1.8-1.73-2-.78-3-1.22-1.37-.52-1.58-1.18-.93-3.5-3.35-4.05-5.79.15-7.11,2.22-1.49,2.92-1.48,3.63,0,.78.24.85l.42.14a5.67,5.67,0,0,0,0,1.27,3.18,3.18,0,0,1,.28.77c0,.23-.23,1.23-.1,1.45s.34.22.6.15.26,0,.28.06a3.3,3.3,0,0,0,.13.49c.05.09.25.07.25.22s0,.27.06.32a1.11,1.11,0,0,1,.37.65c.06.29.11.5,0,.54s-.61.66-.61.66a3,3,0,0,0-1.17-.23,7,7,0,0,1-1.36,0,2.12,2.12,0,0,0-.71,0c-.28,0-.61.26-.8-.05s-.51-.93-1.94-.95-2.7,0-2.95,0-.74-.09-1.34-.13a6.33,6.33,0,0,0-1.43.06.35.35,0,0,1-.2-.05S57.08,25,56.74,24.49s-.52-.54-.52-.54S53.74,20.33,51.9,18a99.27,99.27,0,0,0-6.79-7.66,47.87,47.87,0,0,0-8.94-6.74A27.93,27.93,0,0,0,27.11.53c-3.94-.61-8.79-1-13.18.63A14.63,14.63,0,0,0,5.46,8.88,25.7,25.7,0,0,0,3.52,20.73c.17,4.23.41,4.34.44,4.34s.29.06.18-.17a.93.93,0,0,0-.21-.31,41.7,41.7,0,0,1-.32-4.94A28.2,28.2,0,0,1,4,14.28a19.45,19.45,0,0,1,2.2-6.37C7.43,5.84,7.42,6.1,7.53,6.05s.39,0,.29-.11-.18-.23.3-.68a12.57,12.57,0,0,1,2.22-1.91l1.22-.74a.43.43,0,0,0,.21.22.09.09,0,0,0,.11-.15.68.68,0,0,1-.11-.19A13.85,13.85,0,0,1,15.27,1,18.51,18.51,0,0,1,17.4.62s-.09.31,0,.4.28.08.26-.11a.7.7,0,0,1,0-.32S20.58.35,22.14.41s2.38.18,2.38.18-.16.35.07.46.28-.12.23-.28L24.77.61s2.35.38,4.31.85a28.14,28.14,0,0,1,4,1.25l.42.19a.41.41,0,0,0-.08.23c0,.14.07.29.21.21A.6.6,0,0,0,33.78,3a8.32,8.32,0,0,1,1.49.68A47.21,47.21,0,0,1,41.88,8.2c2.27,1.9,2.43,2.1,2.43,2.1a2,2,0,0,1-.23.26c-.17.17-.24.51.05.48s.49-.46.49-.46,5,5.28,7.14,8.2,3.88,5.56,3.88,5.56-.11.27.22.71S57,26.7,57,26.7s-.89.22-.8.55a.53.53,0,0,0,.36.38s-.16.43,0,.6a2.31,2.31,0,0,1,.21.61c.08.2.17.44.33.48l.16,0s.19,0,.19.15a.34.34,0,0,0,.29.36c.21,0,.38,0,.34.18a.6.6,0,0,0,.47.58,8.14,8.14,0,0,0,.91.15s.76,1.69,1.75,3.49a12.73,12.73,0,0,0,1.28,2.08L63,37.6s-.31.11-.38.27l-.18.42a.71.71,0,0,0-.64,0,1,1,0,0,0-.47.52s-1.07,0-1.23.55-.06,1.16-.15,1.34a1.41,1.41,0,0,0-.16.67c0,.3,0,.8,0,.8a1.79,1.79,0,0,0-.43,1.2,18.43,18.43,0,0,1,.12,2.27c0,.29.28.69.77,1.16s1.43,1.2,1.52,1.4a2.13,2.13,0,0,0,.93.73,11.79,11.79,0,0,1,1.67.78,1.56,1.56,0,0,1,.63.85c.08.35,0,.55-.36.93a10.25,10.25,0,0,0-2.3,3.63,20,20,0,0,1-1.49,3.47,6,6,0,0,0-.67,1.74,17.27,17.27,0,0,1-1.27,2.89c-.4.82-1.35,2.4-1.28,3s.27,2.5.37,3.16a41.86,41.86,0,0,0,1.28,5.46,19,19,0,0,1,1,2.56,3.92,3.92,0,0,0-.14,1.74c.16.56.09.56-.15,1.05a3,3,0,0,0-.34,1.47c0,.46-.47.3-.95.37a10.88,10.88,0,0,0-2.16.81,1.41,1.41,0,0,0-.81,1.89,5,5,0,0,0,2.83,2.51,11.52,11.52,0,0,0,3.18.69s.56.71,1,.69.31-.58.37-.67.07-.15.81-.11,3.67-.46,4.18-.93.84-.36.73-.81-.37-.49-.29-1a10.87,10.87,0,0,0,.12-3.82c-.27-2.19-.31-3.5-.32-3.68a1.27,1.27,0,0,1,0-.42A7.13,7.13,0,0,0,70,78c.8.25,1.34.49,1.78.67s2.56.72,3.16.32a1.48,1.48,0,0,0,.65-1.52c0-.65.33-1.8.35-2.69a32,32,0,0,0-.18-4,18.93,18.93,0,0,1-.26-2.39,17.43,17.43,0,0,0-.47-3.2c-.24-.67-.71-1.07-.49-1.82a4.23,4.23,0,0,1,.82-1.69c.25-.2,1.16-.61,3.14-3.41a37.42,37.42,0,0,0,3-4.5c.22-.53.38-.86.38-.86a9.19,9.19,0,0,0,2.71-2.54c1.38-1.85,2.12-6.39,2.72-8.83a16.33,16.33,0,0,0,.34-5.71A27.21,27.21,0,0,1,87.52,32.59ZM4,24.72s.1.19.1.19,0,.06,0,.08S4,25,4,25,3.91,24.72,4,24.72ZM11.8,2.66s0,.06,0,.1-.05,0-.12,0-.06-.13,0-.15S11.75,2.58,11.8,2.66ZM17.6,1c0,.07-.09.05-.13,0a.23.23,0,0,1,0-.24c.05-.05.11,0,.11.1A.87.87,0,0,1,17.6,1Zm7.12,0a.08.08,0,0,1-.13,0,.2.2,0,0,1,0-.25c.05,0,.13,0,.13.09S24.76.92,24.72,1Zm8.82,2.31c-.06.06-.07-.1,0-.22s.13-.07.14,0A.62.62,0,0,1,33.54,3.26Zm10.82,7.46a1,1,0,0,1-.21.2c-.09.05-.13,0-.1-.14s.26-.35.37-.32S44.36,10.72,44.36,10.72Zm21.43,23.9a20.52,20.52,0,0,0-.63,2c-.18.56-.62,1.54-.62,1.54s-.29-.43-.54-.91-.8-1.47-.82-1.59-2.09-4.07-2.09-4.07.31.09.4.13a6.49,6.49,0,0,1,1.13.29,4.5,4.5,0,0,0,.76.27,4.26,4.26,0,0,0,1.16.83l1.62.82S66,34.29,65.79,34.62Zm2,39.79-.27-.08s-.18-1.25-.31-2-.29-2.74-.29-2.74l.74-.45v1.7c0,.42,0,1.46.09,2.2S67.81,74.41,67.81,74.41Z"/><path class="cls-4" d="M87.52,32.59c0-.34.23-1.58.19-2a13.67,13.67,0,0,1,0-1.38,5.09,5.09,0,0,0-.49-2.53,1.93,1.93,0,0,1-.14-.86s.08-.59-.73-1.24A8.62,8.62,0,0,0,84,23.19c-.7-.25-1.1-.37-1.1-.37s2.18-1.44,1.8-1.73-2-.78-3-1.22-1.37-.52-1.58-1.18-.93-3.5-3.35-4.05-5.79.15-7.11,2.22-1.49,2.92-1.48,3.63,0,.78.24.85l.42.14a5.67,5.67,0,0,0,0,1.27,3.18,3.18,0,0,1,.28.77c0,.23-.23,1.23-.1,1.45s.34.22.6.15.26,0,.28.06a3.3,3.3,0,0,0,.13.49c.05.09.25.07.25.22s0,.27.06.32a1.11,1.11,0,0,1,.37.65c.06.29.11.5,0,.54s-.61.66-.61.66a3,3,0,0,0-1.17-.23,7,7,0,0,1-1.36,0,2.12,2.12,0,0,0-.71,0c-.28,0-.61.26-.8-.05s-.51-.93-1.94-.95-2.7,0-2.95,0-.74-.09-1.34-.13a6.33,6.33,0,0,0-1.43.06.35.35,0,0,1-.2-.05S57.08,25,56.74,24.49s-.52-.54-.52-.54S53.74,20.33,51.9,18a99.27,99.27,0,0,0-6.79-7.66,47.87,47.87,0,0,0-8.94-6.74A27.93,27.93,0,0,0,27.11.53c-3.94-.61-8.79-1-13.18.63A14.63,14.63,0,0,0,5.46,8.88,25.7,25.7,0,0,0,3.52,20.73c.17,4.23.41,4.34.44,4.34s.29.06.18-.17a.93.93,0,0,0-.21-.31,41.7,41.7,0,0,1-.32-4.94A28.2,28.2,0,0,1,4,14.28a19.45,19.45,0,0,1,2.2-6.37C7.43,5.84,7.42,6.1,7.53,6.05s.39,0,.29-.11-.18-.23.3-.68a12.57,12.57,0,0,1,2.22-1.91l1.22-.74a.43.43,0,0,0,.21.22.09.09,0,0,0,.11-.15.68.68,0,0,1-.11-.19A13.85,13.85,0,0,1,15.27,1,18.51,18.51,0,0,1,17.4.62s-.09.31,0,.4.28.08.26-.11a.7.7,0,0,1,0-.32S20.58.35,22.14.41s2.38.18,2.38.18-.16.35.07.46.28-.12.23-.28L24.77.61s2.35.38,4.31.85a28.14,28.14,0,0,1,4,1.25l.42.19a.41.41,0,0,0-.08.23c0,.14.07.29.21.21A.6.6,0,0,0,33.78,3a8.32,8.32,0,0,1,1.49.68A47.21,47.21,0,0,1,41.88,8.2c2.27,1.9,2.43,2.1,2.43,2.1a2,2,0,0,1-.23.26c-.17.17-.24.51.05.48s.49-.46.49-.46,5,5.28,7.14,8.2,3.88,5.56,3.88,5.56-.11.27.22.71S57,26.7,57,26.7s-.89.22-.8.55a.53.53,0,0,0,.36.38s-.16.43,0,.6a2.31,2.31,0,0,1,.21.61c.08.2.17.44.33.48l.16,0s.19,0,.19.15a.34.34,0,0,0,.29.36c.21,0,.38,0,.34.18a.6.6,0,0,0,.47.58,8.14,8.14,0,0,0,.91.15s.76,1.69,1.75,3.49a12.73,12.73,0,0,0,1.28,2.08L63,37.6s-.31.11-.38.27l-.18.42a.71.71,0,0,0-.64,0,1,1,0,0,0-.47.52s-1.07,0-1.23.55-.06,1.16-.15,1.34a1.41,1.41,0,0,0-.16.67c0,.3,0,.8,0,.8a1.79,1.79,0,0,0-.43,1.2,18.43,18.43,0,0,1,.12,2.27c0,.29.28.69.77,1.16s1.43,1.2,1.52,1.4a2.13,2.13,0,0,0,.93.73,11.79,11.79,0,0,1,1.67.78,1.56,1.56,0,0,1,.63.85c.08.35,0,.55-.36.93a10.25,10.25,0,0,0-2.3,3.63,20,20,0,0,1-1.49,3.47,6,6,0,0,0-.67,1.74,17.27,17.27,0,0,1-1.27,2.89c-.4.82-1.35,2.4-1.28,3s.27,2.5.37,3.16a41.86,41.86,0,0,0,1.28,5.46,19,19,0,0,1,1,2.56,3.92,3.92,0,0,0-.14,1.74c.16.56.09.56-.15,1.05a3,3,0,0,0-.34,1.47c0,.46-.47.3-.95.37a10.88,10.88,0,0,0-2.16.81,1.41,1.41,0,0,0-.81,1.89,5,5,0,0,0,2.83,2.51,11.52,11.52,0,0,0,3.18.69s.56.71,1,.69.31-.58.37-.67.07-.15.81-.11,3.67-.46,4.18-.93.84-.36.73-.81-.37-.49-.29-1a10.87,10.87,0,0,0,.12-3.82c-.27-2.19-.31-3.5-.32-3.68a1.27,1.27,0,0,1,0-.42A7.13,7.13,0,0,0,70,78c.8.25,1.34.49,1.78.67s2.56.72,3.16.32a1.48,1.48,0,0,0,.65-1.52c0-.65.33-1.8.35-2.69a32,32,0,0,0-.18-4,18.93,18.93,0,0,1-.26-2.39,17.43,17.43,0,0,0-.47-3.2c-.24-.67-.71-1.07-.49-1.82a4.23,4.23,0,0,1,.82-1.69c.25-.2,1.16-.61,3.14-3.41a37.42,37.42,0,0,0,3-4.5c.22-.53.38-.86.38-.86a9.19,9.19,0,0,0,2.71-2.54c1.38-1.85,2.12-6.39,2.72-8.83a16.33,16.33,0,0,0,.34-5.71A27.21,27.21,0,0,1,87.52,32.59Zm-21.73,2a20.52,20.52,0,0,0-.63,2c-.18.56-.62,1.54-.62,1.54s-.29-.43-.54-.91-.8-1.47-.82-1.59-2.09-4.07-2.09-4.07.31.09.4.13a6.49,6.49,0,0,1,1.13.29,4.5,4.5,0,0,0,.76.27,4.26,4.26,0,0,0,1.16.83l1.62.82S66,34.29,65.79,34.62Z"/><path class="cls-4" d="M67.54,74.33l.27.08s0-.66,0-1.4-.1-1.78-.09-2.2V69.1l-.74.46s.16,2,.29,2.74S67.54,74.33,67.54,74.33Z"/><path class="cls-4" d="M44.36,10.72s.17-.24.06-.27-.35.23-.37.33,0,.18.1.14A1,1,0,0,0,44.36,10.72Z"/><path class="cls-4" d="M33.64,3c0-.08-.1-.11-.14,0s0,.28,0,.22A.62.62,0,0,0,33.64,3Z"/><path class="cls-4" d="M24.72.78c0-.09-.08-.13-.13-.09a.21.21,0,0,0,0,.26.09.09,0,0,0,.13,0S24.72.78,24.72.78Z"/><path class="cls-4" d="M17.6.78c0-.12-.06-.15-.11-.1a.23.23,0,0,0,0,.24c0,.08.11.09.13,0A.87.87,0,0,0,17.6.78Z"/><path class="cls-4" d="M11.8,2.66c-.05-.08-.06-.11-.1-.09s0,.08,0,.15.11.07.12,0S11.8,2.66,11.8,2.66Z"/><path class="cls-4" d="M4.05,24.91S4,24.72,4,24.72s0,.19,0,.24.1.05.1,0S4.05,24.91,4.05,24.91Z"/></g></g></svg>