<svg xmlns="http://www.w3.org/2000/svg" viewBox="0 0 130.4 168.21"><defs><style>.cls-1{opacity:0.5;}.cls-2{opacity:1;}.cls-3{fill:#ff7d97;}.cls-4{fill:#fff;}.cls-5{fill:#324b56;}</style></defs><title>Birthday 10</title><g id="Calque_2" data-name="Calque 2"><g id="Birthday_10" data-name="Birthday 10"><g class="cls-1"><path class="cls-2" d="M31.48,134.88l.48-.5a5.21,5.21,0,0,1,.47-.47,5.1,5.1,0,0,0,.47-.46l.45-.49c.22-.25.47-.55.73-.91s.52-.76.78-1.19a7.39,7.39,0,0,0,.59-1.29l.36-1c.12-.36.22-.72.32-1.08a4.79,4.79,0,0,0,0-2.41,5.39,5.39,0,0,0-.5-1.31,10.93,10.93,0,0,0-.75-1.17,13,13,0,0,0-1.47-1.49,9.49,9.49,0,0,0-1.77-1.16,9,9,0,0,0-1.93-.65,6.74,6.74,0,0,0-1.73-.14,12.54,12.54,0,0,0-1.72.18l-.74.16c-.39.08-.85.19-1.36.34s-1.05.31-1.6.5a11.14,11.14,0,0,0-1.44.61,6,6,0,0,0-.7.34c-.37.21-.8.47-1.27.79l-1.53,1.08a13.72,13.72,0,0,0-1.42,1.2,6.44,6.44,0,0,0-.63.69l-1,1.18c-.35.43-.68.86-1,1.29a11.6,11.6,0,0,0-.7,1c-.22.36-.42.72-.61,1.08a5.55,5.55,0,0,0-.47,1.15,5.27,5.27,0,0,0-.16.79,1.39,1.39,0,0,0,.12.79,1.65,1.65,0,0,0,.29.45.76.76,0,0,0,.5.23c.15,0,.22,0,.22-.18a2,2,0,0,1,.36-1.44c.16-.26.34-.53.52-.8s.36-.55.55-.81a14.38,14.38,0,0,1,1.12-1.44,12.89,12.89,0,0,1,1-1.06c.35-.32.73-.64,1.13-1s1-.79,1.48-1.15l.39-.25c.19-.12.4-.25.61-.4l.65-.41c.21-.13.37-.23.46-.3a1.35,1.35,0,0,1,.29-.18,2.29,2.29,0,0,0,.29-.18,8.22,8.22,0,0,1,1.58-.83c.55-.22,1.11-.42,1.69-.61l.66-.22c.23-.07.46-.13.7-.18a6,6,0,0,1,1.1-.25l1.09-.14c.31,0,.61,0,.9,0a6.11,6.11,0,0,1,.86.07,2.36,2.36,0,0,0,.44.11,3.89,3.89,0,0,1,.43.11,1.73,1.73,0,0,1,.41.2,3.28,3.28,0,0,1,.38.27,3.14,3.14,0,0,1,1.47,2.37c0,.12,0,.23.05.34a1,1,0,0,1,0,.34l-.09.49-.13.52a2.78,2.78,0,0,1-.29.8q-.28.63-.75,1.44c-.31.54-.66,1.08-1,1.62a7.59,7.59,0,0,1-1.19,1.34,2.38,2.38,0,0,0-.3.36,3.31,3.31,0,0,1-.31.36c-.34.34-.67.65-1,.95s-.67.6-1,.88c-.62.56-1.25,1.08-1.87,1.57s-1.27,1-1.94,1.42L21.55,138l-1.94,1.26-.25.1-.38.13a.87.87,0,0,1-.34,0c-.1,0-.13-.07-.11-.17s.09-.29.13-.45a3.17,3.17,0,0,1,.12-.44c.12-.48.25-.95.4-1.41s.27-.9.39-1.36a3.86,3.86,0,0,1,.15-.54c.07-.21.13-.43.18-.65s.09-.4.14-.57a1.63,1.63,0,0,0,.07-.29,6.5,6.5,0,0,1,.18-.73c.07-.23.13-.47.18-.7a2,2,0,0,0,0-.31.41.41,0,0,0-.15-.27.71.71,0,0,1-.21-.2,2.2,2.2,0,0,0-.36-.3,2,2,0,0,0-.43-.23.51.51,0,0,0-.4,0,1.28,1.28,0,0,0-.5.46.83.83,0,0,1-.14.24,1.48,1.48,0,0,0-.18.27,1.39,1.39,0,0,1-.17.3c-.06.09-.11.18-.16.27-.09.27-.18.53-.25.79a4.69,4.69,0,0,1-.29.79c-.28.77-.58,1.54-.88,2.32s-.59,1.55-.88,2.32q-.24.6-.45,1.2c-.13.39-.26.79-.41,1.2,0,.07-.07.19-.12.34s-.12.33-.17.51a4,4,0,0,1-.14.48,1.23,1.23,0,0,0-.07.25,5.52,5.52,0,0,1-.18.54l-.34,1.17c-.11.37-.22.75-.34,1.13a8.68,8.68,0,0,0-.33,1.76c0,.26,0,.52,0,.75s0,.49.06.76a1.54,1.54,0,0,0,.14.72,1.15,1.15,0,0,0,.68.59,2.09,2.09,0,0,0,.9.05.18.18,0,0,0,.11,0A.23.23,0,0,1,15,150a.34.34,0,0,0,0-.26s0-.12,0-.21a.54.54,0,0,0,.11-.18.42.42,0,0,1,.11-.18c.12-.34.25-.66.39-1s.28-.63.4-1c.19-.5.37-1,.54-1.49s.34-1,.53-1.49a2,2,0,0,1,.34-.72,3.78,3.78,0,0,1,.49-.49,2.4,2.4,0,0,1,.49-.3l.34-.18a.72.72,0,0,1,.46,0,4,4,0,0,0,.51.25c.16.07.33.16.5.25a13.35,13.35,0,0,1,1.44.9,6.54,6.54,0,0,1,1.22,1.19,7.6,7.6,0,0,1,.84,1.25,13.25,13.25,0,0,1,.63,1.37,2.11,2.11,0,0,1,.11.38,1.58,1.58,0,0,0,.11.37,3.14,3.14,0,0,1,.14.74c0,.3.05.6.07.9a7.35,7.35,0,0,1,0,.79c0,.22,0,.35,0,.37-.05.27-.1.52-.14.76l-.15.75a7.47,7.47,0,0,1-.61,2,6.18,6.18,0,0,1-2.44,2.66,6.07,6.07,0,0,1-.9.41,4.43,4.43,0,0,1-1,.23,1.44,1.44,0,0,1-.9-.14,6,6,0,0,1-.75-.48,2.46,2.46,0,0,1-.61-.67c0-.12-.19-.36-.41-.73a2.34,2.34,0,0,1-.34-1.24,2,2,0,0,0,0-.26.31.31,0,0,1,0-.21,2.55,2.55,0,0,1,.19-.59,6.38,6.38,0,0,1,.31-.56,4.62,4.62,0,0,0,.29-.43v-.14a1,1,0,0,0-.26-.29.88.88,0,0,0-.64-.22s-.09,0-.18,0a.4.4,0,0,0-.36.13A4.53,4.53,0,0,0,14.58,154a2.75,2.75,0,0,0-.29,1,2.21,2.21,0,0,0,.22,1.08A3.93,3.93,0,0,0,15,157a4.42,4.42,0,0,0,.68.77,11.38,11.38,0,0,0,1.6,1.15,5.56,5.56,0,0,0,1.88.68c.34.05.65.08.95.11a4.4,4.4,0,0,0,.95,0l.33,0a2.14,2.14,0,0,0,.32,0l.52-.13.52-.12a5.79,5.79,0,0,0,.63-.18,5.22,5.22,0,0,0,.59-.25,6.59,6.59,0,0,0,1.06-.67c.33-.25.64-.52,1-.81a10.36,10.36,0,0,0,1.94-2.65c.16-.34.31-.67.44-1a3.58,3.58,0,0,0,.27-1,7.69,7.69,0,0,0,.11-.78,7.13,7.13,0,0,1,.11-.77,4.91,4.91,0,0,0,0-.77,4.54,4.54,0,0,0-.11-1.06,1.8,1.8,0,0,0-.09-.41c-.06-.21-.15-.44-.25-.7s-.24-.56-.38-.87a7,7,0,0,0-.47-.86,10,10,0,0,0-.61-.84l-.61-.81a9.62,9.62,0,0,0-1.08-1.13,13.16,13.16,0,0,0-1.22-1A19.13,19.13,0,0,0,22,141.49c-.12-.05-.13-.12,0-.21l.54-.33a1.68,1.68,0,0,0,.33-.16l.28-.16.76-.43a6.25,6.25,0,0,1,.64-.31,3.14,3.14,0,0,0,.61-.3c.58-.34,1.15-.68,1.71-1l1.71-1.08a5.81,5.81,0,0,0,.46-.38,5.9,5.9,0,0,1,.47-.37c.26-.2.53-.4.79-.62a8.32,8.32,0,0,0,.76-.71Z"/><path class="cls-2" d="M36.2,132.05a.29.29,0,0,0,.07.18,2.31,2.31,0,0,0,.6.64,3.79,3.79,0,0,0,.73.43.8.8,0,0,0,.61,0,.72.72,0,0,0,.58-.89,1.6,1.6,0,0,0-.11-.33,1.59,1.59,0,0,1-.14-.36,1.19,1.19,0,0,1-.47-.09l-.43-.19a1.74,1.74,0,0,0-.45-.17,1,1,0,0,0-.48,0,1.55,1.55,0,0,0-.27.24l-.31.3A.36.36,0,0,1,36.2,132.05Z"/><path class="cls-2" d="M124.53,136.86a.49.49,0,0,0-.54-.29,1.72,1.72,0,0,1-.45,1c-.33.43-.76.93-1.3,1.51s-1.15,1.19-1.85,1.85-1.37,1.33-2,2v0c.12-.58.22-1.15.32-1.72s.2-1.15.32-1.73a6.65,6.65,0,0,0,.22-.88,6.87,6.87,0,0,1,.21-.84c0-.24.09-.47.13-.69a1.15,1.15,0,0,0,0-.61,1.12,1.12,0,0,0-.31-.71,1.48,1.48,0,0,0-.79-.49,1.77,1.77,0,0,0-1.09.11,2.68,2.68,0,0,0-1.19,1.06,7.37,7.37,0,0,0-.57.88l-1.17,1.9c-.47.76-1,1.57-1.53,2.44s-1.09,1.71-1.61,2.5-1,1.5-1.51,2.12a7.7,7.7,0,0,1-1.15,1.26l-.24.07-.19.07a.77.77,0,0,1-.51-.57,2.69,2.69,0,0,1,.06-1.06,5.65,5.65,0,0,1,.34-1l2-4.31a7.19,7.19,0,0,0,.45-1.22c.1-.41.22-.81.34-1.22a2.63,2.63,0,0,0,.12-1.74,2.79,2.79,0,0,0-.75-1.33,1.71,1.71,0,0,0-1.12-.5c-.39,0-.71.22-.95.7,0,.07-.12.34-.3.8s-.39,1-.61,1.55-.45,1.1-.67,1.62-.36.84-.43,1c-.26.7-.51,1.38-.74,2s-.43,1.37-.62,2.08a4.61,4.61,0,0,0-.18,1.06,2.5,2.5,0,0,0-.15.27,1.34,1.34,0,0,1-.18.38l-.21.34c-.12.17-.24.32-.34.47a2,2,0,0,0-.27.47,21.23,21.23,0,0,1-1.65,2.28,4.54,4.54,0,0,1-.94.84c-.26.12-.44.08-.54-.11a3.37,3.37,0,0,0-.14-.32,1.15,1.15,0,0,1-.11-.58c.05-.38.11-.76.18-1.15a7,7,0,0,1,.32-1.14c.08-.17.14-.33.2-.49s.11-.32.16-.48c.19-.63.4-1.24.63-1.85s.47-1.22.74-1.82L103,141c.23-.54.43-1.09.63-1.64q.21-.54.39-1.11a6.93,6.93,0,0,1,.25-.72,1.76,1.76,0,0,0-.21-1.29,3.34,3.34,0,0,0-.36-.41,3.28,3.28,0,0,0-.56-.49,2.16,2.16,0,0,0-.61-.3.49.49,0,0,0-.48,0,2,2,0,0,0-.58.48c-.17.21-.31.39-.43.56a5.83,5.83,0,0,1-.56.84c-.22.3-.4.55-.52.74,0-.17-.1-.38-.16-.63a4.17,4.17,0,0,0-.27-.77,3.12,3.12,0,0,0-.48-.74,2.55,2.55,0,0,0-.74-.55,3.4,3.4,0,0,0-1.38-.18,2.68,2.68,0,0,0-1.38.43,3.11,3.11,0,0,1-.49.29,5.73,5.73,0,0,0-1.24,1.07c-.17.2-.32.4-.47.61a7.11,7.11,0,0,1-.46.62l-.33.46c-.09.15-.2.3-.32.47a4.92,4.92,0,0,0-.31.41c-.08.13-.17.28-.26.45l-.87,1.51a15,15,0,0,0-.84,2,11.51,11.51,0,0,0-.45,2c-.31.61-.61,1.21-.9,1.77-.45.89-.87,1.66-1.24,2.32a6.69,6.69,0,0,1-.84,1.27,1.47,1.47,0,0,0-.32.5,1.08,1.08,0,0,1-.33.47,5.39,5.39,0,0,1-.5.33,1.48,1.48,0,0,1-.54.17.53.53,0,0,1-.32-.53A6.83,6.83,0,0,1,84.8,149c.09-.44.2-1,.32-1.69s.25-1.42.38-2.18.27-1.47.41-2.17.29-1.26.43-1.69a8.38,8.38,0,0,0,.38-1.45c.08-.49.19-1,.31-1.46a3.59,3.59,0,0,1,.18-.59l.21-.59c.12-.29.24-.58.34-.86s.21-.58.31-.87.3-.79.47-1.16a5.6,5.6,0,0,1,.61-1.06,13,13,0,0,1,.93-1.71q.54-.84,1.08-1.62c.36-.51.7-1,1-1.4a10.15,10.15,0,0,0,.74-1.06q.21-.39.45-.75a6.49,6.49,0,0,1,.52-.72,13.91,13.91,0,0,0,.9-1.36c.43-.72.88-1.52,1.36-2.41s.92-1.76,1.31-2.62a7.91,7.91,0,0,0,.7-2,1.08,1.08,0,0,0-.09-.25,1.44,1.44,0,0,0-.3-.44,1.84,1.84,0,0,0-.54-.34,1.17,1.17,0,0,0-.76,0l-.36.22a1.76,1.76,0,0,0-.36.28,4.69,4.69,0,0,0-.52.47c-.15.17-.33.35-.52.54l-.21.22a1.68,1.68,0,0,0-.18.21c-.46.7-.94,1.37-1.46,2a20.19,20.19,0,0,0-1.38,2c-.07.12-.19.29-.34.52l-.49.7-.44.68-.27.43-.27.44c-.14.21-.28.44-.43.7l-.44.71c-.13.23-.23.41-.3.52-.6,1.2-1.19,2.41-1.76,3.63-.07.17-.13.33-.18.49s-.11.32-.18.48c-.31.63-.59,1.24-.83,1.85s-.49,1.23-.75,1.85c0,.12-.12.28-.22.47a.27.27,0,0,1-.09.12l-.12.13-.18-.14L84,136a3.22,3.22,0,0,0-.73-.39,2.16,2.16,0,0,0-.81-.15,4.78,4.78,0,0,1-.66,0,3,3,0,0,0-.67.07,1.45,1.45,0,0,0-.79.22c-.33.19-.66.39-1,.59a5.26,5.26,0,0,0-.86.7,6.16,6.16,0,0,0-.88,1.1c-.25.39-.51.78-.77,1.16a10.11,10.11,0,0,0-1,2q-.4,1.05-.72,2.16a6.21,6.21,0,0,0-.16.84l-.22.42c-.35.64-.65,1.2-.92,1.67s-.43.75-.5.84a1.19,1.19,0,0,0-.12.22,2.39,2.39,0,0,1-.13.21c-.29.58-.6,1.13-.93,1.67s-.67,1.09-1,1.64a12.13,12.13,0,0,1-1,1.43c-.38.46-.78.89-1.19,1.3a.31.31,0,0,1-.36,0,1.05,1.05,0,0,1,0-.46c0-.15,0-.3.07-.47A13.39,13.39,0,0,1,69,151c.19-.61.41-1.22.65-1.82.33-.88.68-1.75,1-2.62s.7-1.73,1-2.62c.12-.33.24-.66.34-1s.21-.65.31-1,.24-.81.36-1.19.24-.78.36-1.18c0-.15.09-.29.12-.42a.94.94,0,0,0,0-.41,3.28,3.28,0,0,0,.18-1.28,3.69,3.69,0,0,0-.29-1.27,2,2,0,0,0-.7-.88,1.09,1.09,0,0,0-1.06-.06,2.79,2.79,0,0,0-.93.51,3.31,3.31,0,0,0-.68.72l-.42.52-.66.82-.7.9a5.41,5.41,0,0,0-.49.74c-.31.55-.63,1.09-1,1.63s-.68,1.07-1.06,1.6a1.69,1.69,0,0,0-.29.41,2.46,2.46,0,0,1-.25.45,1.31,1.31,0,0,1-.2.23.64.64,0,0,1-.23.17c-.07,0-.12,0-.14,0s0-.15,0-.34c0,0,0-.13,0-.38a4,4,0,0,1,.11-.63c.19-.6.38-1.2.58-1.79s.38-1.21.57-1.84c.07-.21.13-.43.18-.64s.11-.43.18-.65l.65-1.8c.21-.59.43-1.19.64-1.79a3.82,3.82,0,0,1,.31-.75c.13-.24.27-.48.41-.72l1.31-2a7.83,7.83,0,0,1,.74-1,5.88,5.88,0,0,0,.52-.6c.16-.2.3-.41.45-.62l.52-.81c.25-.4.51-.82.77-1.26l.74-1.24c.22-.38.36-.62.41-.72.17-.31.34-.61.52-.89a6.91,6.91,0,0,0,.79-2.11A7,7,0,0,0,75,120a3,3,0,0,0-.18-1.1.63.63,0,0,0-.61-.45,2.86,2.86,0,0,0-.74.18,2,2,0,0,0-.63.43l-.79.81a4.76,4.76,0,0,0-.68.92,4.1,4.1,0,0,1-.45.63,5.43,5.43,0,0,0-.48.62c-.12.2-.24.4-.36.62l-.36.61c-.29.48-.58.94-.86,1.38s-.58.89-.87,1.35c0,.09-.09.18-.14.27a2.15,2.15,0,0,0-.14.26c-.1.2-.2.38-.29.54s-.19.35-.29.54l-.32.54q-.26.47-.63,1.35c-.25.58-.5,1.18-.75,1.78s-.48,1.14-.69,1.63-.33.8-.37.92-.11.28-.16.43a3.12,3.12,0,0,0-.17.46,5.34,5.34,0,0,1-.27.88c-.1.28-.22.56-.34.85a4.29,4.29,0,0,0-.32.86c-.19.55-.38,1.11-.58,1.67l0,.08h0a2.76,2.76,0,0,0-.14.25l-.78,1.15-1,1.49-1,1.49a13,13,0,0,0-.72,1.19c-.29.43-.56.87-.81,1.31a9,9,0,0,1-.88,1.27c-.26.34-.51.68-.74,1s-.45.69-.66,1-.58.93-.86,1.37a11.34,11.34,0,0,1-1,1.25c-.15.17-.29.33-.43.47l-.44.43a.08.08,0,0,1-.08,0l-.13,0c-.07-.07-.11-.12-.11-.14a1.11,1.11,0,0,1,0-.6c0-.2.07-.41.12-.62s.15-.54.22-.83.13-.57.18-.86.18-.81.25-1.21.16-.79.25-1.2a6.68,6.68,0,0,1,.2-.86c.08-.29.16-.57.23-.86.19-.67.38-1.34.56-2a10.26,10.26,0,0,1,.74-1.92,3.19,3.19,0,0,0,.25-.68c.07-.19.24-.61.52-1.24s.6-1.37,1-2.21.78-1.72,1.22-2.66l1.24-2.64q.57-1.23,1-2.1c.3-.57.5-.93.59-1.08l1.3-1.76c.43-.57.87-1.14,1.33-1.72a.63.63,0,0,1,.14-.18c.24-.09.48-.18.72-.25a2.67,2.67,0,0,1,.75-.11A1.41,1.41,0,0,0,66,125l.45-.14a4,4,0,0,1,.56-.11l.93-.16a6.28,6.28,0,0,0,.88-.22q.39-.12.36-.27a1.23,1.23,0,0,0-.59-.16c-.33,0-.67-.07-1-.09l-1.05-.07a5.15,5.15,0,0,1-.63-.07l-.19-.06c-.06,0-.1-.07-.13-.19a1.75,1.75,0,0,1,.16-.27,1.29,1.29,0,0,0,.16-.31,3.3,3.3,0,0,0,.26-.45l.21-.45c.19-.43.38-.86.58-1.29s.39-.85.61-1.26a2.84,2.84,0,0,0,.32-.91c0-.3.1-.62.14-.95a1.44,1.44,0,0,0-.46-1.33,2.3,2.3,0,0,0-2,.79c-.36.43-.71.86-1,1.29s-.68.85-1,1.26a14.07,14.07,0,0,0-1.48,2L61,122.85l-.84,1.29a1.2,1.2,0,0,1-.18.26l-.22.21a2.22,2.22,0,0,1-.38,0,2.22,2.22,0,0,0-.37,0,9,9,0,0,1-1.64,0,4.43,4.43,0,0,1-1.56-.49,2.41,2.41,0,0,0-.57-.22,6.55,6.55,0,0,0-.9-.21.42.42,0,0,0-.43.32.54.54,0,0,1,.1.2.55.55,0,0,0,.11.2l.38.36a1.76,1.76,0,0,0,.41.28,7.37,7.37,0,0,0,.81.38l.81.34a4.3,4.3,0,0,0,1.9.43.42.42,0,0,1,.15,0,1,1,0,0,0,.25.07c-.1.22-.18.41-.25.59a4.2,4.2,0,0,1-.26.52c-.11.27-.24.54-.37.83s-.27.56-.42.83c-.62,1.12-1.19,2.25-1.72,3.37s-1,2.28-1.51,3.45c-.14.34-.35.79-.61,1.37s-.56,1.28-.88,2.12-.66,1.79-1,2.87c-.14.46-.29,1-.43,1.45s-.47.86-.68,1.26q-.48.91-.84,1.56c-.24.43-.37.69-.4.76a4.63,4.63,0,0,1-.5.86c-.26.38-.54.78-.83,1.18s-.57.8-.84,1.17-.46.63-.56.77a.45.45,0,0,1-.57.22,1.79,1.79,0,0,1-.25-.61,2,2,0,0,1,0-.65c.05-.41.1-.81.16-1.22a6.07,6.07,0,0,1,.31-1.22c.14-.38.38-1,.7-1.81s.65-1.69,1-2.59.64-1.75.91-2.55a14.05,14.05,0,0,0,.52-1.74v-.31a1.61,1.61,0,0,0-.12-.55,2.81,2.81,0,0,0-.42-.7,2.74,2.74,0,0,0-.86-.71,1.41,1.41,0,0,0-1.18,0,16.24,16.24,0,0,0-1.58.63c-.53.24-1,.45-1.3.63s-.43.2-.28.05a1.94,1.94,0,0,1,.14-.59c.1-.27.2-.56.32-.84s.31-.7.51-1.08A1.45,1.45,0,0,0,45,135a.85.85,0,0,0-.22-.56,1.46,1.46,0,0,0-.86-.41.22.22,0,0,0-.16,0l-.16,0c-.36.14-.64.25-.83.34a1.58,1.58,0,0,0-.45.28A2.24,2.24,0,0,0,42,135c-.08.14-.19.32-.34.54a4.72,4.72,0,0,0-.21,1.8,3.25,3.25,0,0,0,.57,1.58,2.52,2.52,0,0,0,.56.4c-1,2-2.07,3.86-3.07,5.52-.48.77-1,1.53-1.46,2.28s-1,1.45-1.45,2.07a13,13,0,0,1-1.37,1.54,3,3,0,0,1-1.18.76h-.22s0-.1-.07-.16a.65.65,0,0,1,0-.2q0-.36.06-.72a4.43,4.43,0,0,1,.09-.72c.12-.6.26-1.18.43-1.76s.36-1.13.57-1.69.47-1.25.69-1.88.44-1.28.68-1.92.52-1.45.77-2.18a20.56,20.56,0,0,0,.63-2.24,9.32,9.32,0,0,0,.25-1.51,1.61,1.61,0,0,0-.43-1.22,1.64,1.64,0,0,0-1.19-.54.53.53,0,0,0-.25,0,.78.78,0,0,1-.21,0,2.63,2.63,0,0,0-.54.75l-.36.79-.34,1-.34,1c0,.14-.18.49-.4,1s-.46,1.15-.73,1.8-.54,1.27-.78,1.86-.4,1-.5,1.23c-.24.62-.45,1.24-.65,1.85s-.37,1.24-.53,1.88a3.64,3.64,0,0,0-.13,1,6.4,6.4,0,0,0,.13,1.4,6,6,0,0,0,.48,1.49,3.59,3.59,0,0,0,1,1.27,4.12,4.12,0,0,0,.47.22,4.12,4.12,0,0,1,.53.29c.43.21,1,.06,1.58-.45a13,13,0,0,0,2-2.16,35.18,35.18,0,0,0,2.08-3.12c.7-1.16,1.34-2.29,1.92-3.38s1.09-2.06,1.51-2.93.7-1.43.85-1.72.13-.27.18-.38h.16a4.4,4.4,0,0,0,1.4-.32q.66-.27,1.17-.54c.33-.18.54-.22.61-.12a2.07,2.07,0,0,1-.22,1c-.31.69-.61,1.38-.91,2.08s-.62,1.39-1,2.08a14.25,14.25,0,0,0-.68,1.62q-.28.83-.54,1.65a7.39,7.39,0,0,0-.3,1.63,10,10,0,0,0,0,1.64,3.94,3.94,0,0,0,.5,1.76A2.6,2.6,0,0,0,44.93,153a1.53,1.53,0,0,0,.77.27,3.61,3.61,0,0,1,.7.09,2.12,2.12,0,0,1,.4-.2l.38-.12a1.13,1.13,0,0,0,.36-.22,2.14,2.14,0,0,0,.34-.43A5.48,5.48,0,0,0,49,151.12c.44-.65.88-1.4,1.35-2.26,0,0,0-.07.05-.1-.05.46-.11.93-.14,1.39,0,.29-.05.57-.09.86a6.6,6.6,0,0,0,0,.9A2.28,2.28,0,0,0,51,154a1.74,1.74,0,0,1,.22.18,1.91,1.91,0,0,0,2.3.36A5.33,5.33,0,0,0,55.2,153l.76-1a2.26,2.26,0,0,1,.29-.32,1.11,1.11,0,0,0,.21-.32,11.33,11.33,0,0,1,.88-1.48,8.13,8.13,0,0,0,.84-1.47l.17-.21a1,1,0,0,1,.16-.18,4.56,4.56,0,0,0,.41-.65l.72-1.29c.28-.51.56-1,.86-1.64l.64-1.24a13,13,0,0,0-.17,2,5.76,5.76,0,0,0,.41,2.25c.36.62.71,1,1.06,1a1.22,1.22,0,0,0,1-.14,2.36,2.36,0,0,0,.76-.75,4.65,4.65,0,0,0,.41-.78,2.2,2.2,0,0,1,.18-.43,3.25,3.25,0,0,0,.18-.43l.21-.55c.07-.18.16-.37.25-.56.41-.86.85-1.71,1.31-2.53s.94-1.64,1.42-2.43c.36-.57.75-1.12,1.15-1.65a15.79,15.79,0,0,1,1.33-1.51.36.36,0,0,1,.43-.07.34.34,0,0,0,0,.16.34.34,0,0,1,0,.2,5.57,5.57,0,0,1-.33,1.08,6.29,6.29,0,0,1-.32.7,3.79,3.79,0,0,0-.28.7,20.6,20.6,0,0,1-.76,2c-.29.66-.56,1.33-.83,2-.19.45-.37.9-.55,1.34s-.37.88-.56,1.31-.46,1-.66,1.51a9.34,9.34,0,0,0-.49,1.58c-.12.51-.23,1-.32,1.53s-.17,1-.22,1.53a4.84,4.84,0,0,0,.34,2.17,3.42,3.42,0,0,0,1.57,1.63h1c.19-.12.38-.22.57-.32s.39-.2.58-.32l.36-.45.39-.49a5.53,5.53,0,0,0,.85-1.16c.29-.52.58-1,.84-1.53l.9-1.87c.65-1.34,1.26-2.59,1.84-3.76a8.51,8.51,0,0,0,.35,1.43c.09.26.2.53.3.8a2,2,0,0,0,.45.7l.69.36c.21.12.45.24.71.36a1.64,1.64,0,0,0,.4,0h.43a1,1,0,0,0,.75-.29,7.89,7.89,0,0,0,.74-.66,2,2,0,0,0,.49-.85l.21-.5c.12-.29.26-.59.41-.91s.31-.63.45-.9.25-.42.33-.42a.3.3,0,0,1,.07.11v.34a1.37,1.37,0,0,1,0,.34c0,.36-.08.84-.11,1.44a16.07,16.07,0,0,0,0,1.83,12.07,12.07,0,0,0,.27,1.78,3.12,3.12,0,0,0,.56,1.28,8.43,8.43,0,0,0,1.06,1.09,1.82,1.82,0,0,0,1.41.41h.24a.35.35,0,0,1,.12,0,3.13,3.13,0,0,0,1.49-1.12q.42-.65.63-.93a8.85,8.85,0,0,0,.54-1c.31-.61.69-1.36,1.13-2.26.21-.42.42-.86.65-1.31a6.31,6.31,0,0,0,.25.66c.09.18.14.27.16.27a2.31,2.31,0,0,0,.69.78,4.45,4.45,0,0,0,.77.41,2.42,2.42,0,0,0,.7.16l.43,0a1.27,1.27,0,0,0,.34,0,1.67,1.67,0,0,0,.34-.11.89.89,0,0,0,.25-.16l.22-.16c.14-.17.33-.42.57-.77s.48-.7.7-1,.43-.66.6-.94a3.28,3.28,0,0,1,.32-.48l.29-.43c.09-.15.18-.29.25-.43.21-.43.43-.87.66-1.3s.45-.86.67-1.29a20.89,20.89,0,0,1,1-1.83q.57-.9,1.08-1.83a.38.38,0,0,1,.09-.13s.09,0,.16.09l-.2.5a5.81,5.81,0,0,1-.23.54c-.12.27-.25.54-.38.81s-.26.56-.38.84-.32.82-.46,1.23-.29.81-.44,1.22c0,.12-.09.24-.14.37a2.22,2.22,0,0,1-.18.38,5.62,5.62,0,0,0-.56,1.49c-.1.52-.23,1-.37,1.53a.41.41,0,0,0,0,.21,4.68,4.68,0,0,0,.24,1.69,6.37,6.37,0,0,0,.73,1.51.75.75,0,0,0,.29.32l1.29,1,.45,0a2,2,0,0,0,.41,0l.38,0a2.32,2.32,0,0,0,.38-.06l.81-.5a3.08,3.08,0,0,0,.66-.54l.56-.72c.15-.19.3-.38.43-.57a5.58,5.58,0,0,0,.38-.65c.12-.24.27-.54.46-.9a.61.61,0,0,0,.11-.17c.09-.13.22-.36.38-.64a1.27,1.27,0,0,0,.63.78l.89.54a5.39,5.39,0,0,0,.94.43,2.63,2.63,0,0,0,2.44-.22,4.48,4.48,0,0,0,.92-.77c.27-.3.54-.6.8-.91a13.81,13.81,0,0,0,.81-1.33c.3-.55.61-1.14.94-1.76l1-1.87c.31-.62.59-1.19.82-1.69s.44-.92.6-1.24.24-.48.27-.48c-.08.62-.15,1.23-.24,1.83a15.68,15.68,0,0,1-.34,1.79c-.19.67-.36,1.34-.5,2s-.29,1.33-.43,2c-.74.69-1.44,1.33-2.09,1.92s-1.19,1.08-1.65,1.49-1.24,1.11-2,1.83-1.55,1.5-2.35,2.35-1.6,1.75-2.39,2.7a26.67,26.67,0,0,0-2.12,2.89,6.34,6.34,0,0,0-.65.77,8.66,8.66,0,0,0-.93,1.62,8,8,0,0,0-.61,2.06,3.87,3.87,0,0,0,.29,2.19,4,4,0,0,0,.43.4,2.91,2.91,0,0,0,.46.32,3.19,3.19,0,0,0,.58.4c.17.09.34.18.5.25a.79.79,0,0,0,.43.07,2.11,2.11,0,0,0,.33,0,.58.58,0,0,1,.28.07,1.78,1.78,0,0,0,.78.09,5.93,5.93,0,0,0,.73-.16,10.44,10.44,0,0,0,1.49-.54c.47-.22.93-.46,1.39-.72a2.21,2.21,0,0,0,.34-.18l.3-.18a8.87,8.87,0,0,0,1-.65c.32-.24.63-.49.92-.75a1.17,1.17,0,0,1,.16-.27,6.46,6.46,0,0,1,.41-.54c.17-.2.34-.42.52-.65a5.84,5.84,0,0,1,.49-.55,22.42,22.42,0,0,0,1.72-3c.5-1.06,1-2.05,1.33-3s.69-1.72.92-2.4.38-1.15.48-1.39a9.56,9.56,0,0,0,.41-1.31c.16-.58.31-1.19.45-1.81s.28-1.2.4-1.74.2-.92.25-1.13a.84.84,0,0,0,.07-.31.79.79,0,0,1,.07-.3l.4-2,2.06-2a12.94,12.94,0,0,0,1.1-1.13,9.85,9.85,0,0,1,.75-.76c.36-.33.74-.7,1.13-1.09a11.28,11.28,0,0,0,1.08-1.24,2.22,2.22,0,0,0,.52-1.19A1.57,1.57,0,0,0,124.53,136.86ZM92.67,125c.33-.58.68-1.18,1-1.78l.32-.53c.1-.17.19-.35.29-.54a.31.31,0,0,0,.09-.18.28.28,0,0,1,.09-.18,17.42,17.42,0,0,0,.91-1.55c.28-.52.57-1,.88-1.58a1.19,1.19,0,0,1,.36-.39h.18a.55.55,0,0,1,0,.5,5.15,5.15,0,0,0-.29.72,12.8,12.8,0,0,1-.67,1.44c-.32.62-.77,1.41-1.34,2.37s-1.34,2.12-2.3,3.48a1,1,0,0,0-.13.16l-.12.27a1.28,1.28,0,0,1-.11-.32A9.42,9.42,0,0,1,92.67,125Zm-22.6,2.1c.19-.45.41-.94.65-1.45s.46-1,.66-1.46.33-.75.38-.89a5.07,5.07,0,0,1,.27-.6c.13-.25.28-.51.43-.79l.43-.75.27-.49c.1-.21.19-.32.29-.32s.08,0,.11.11v.39c0,.27-.1.52-.16.76a4.22,4.22,0,0,1-.27.72q-.33.78-.69,1.56a12.74,12.74,0,0,1-.82,1.49c-.29.45-.57.9-.85,1.35s-.54.9-.8,1.38l-.08.05-.1.09a.25.25,0,0,0,0-.12.28.28,0,0,1,0-.13Q69.79,127.74,70.07,127.05Zm-6.77-3.21a1,1,0,0,1,.13-.16,3.65,3.65,0,0,0,.32-.54c.1-.19.19-.38.29-.58a4.61,4.61,0,0,1,.43-.86c.17-.26.32-.54.47-.82a5.24,5.24,0,0,1,.86-1.44,3.89,3.89,0,0,0,.3-.5c.09-.17.19-.35.31-.54s.08-.15.16-.29.18-.19.27-.14.07.15,0,.32-.12.29-.14.36a6.84,6.84,0,0,0-.25.72,4.09,4.09,0,0,1-.29.68,22.75,22.75,0,0,1-1.65,2.84,5.33,5.33,0,0,0-.33.45c-.12.18-.24.37-.36.59l-.64.14Zm-1.42,2.67a1.38,1.38,0,0,0,.15-.3,4.23,4.23,0,0,1,.21-.45.93.93,0,0,1,.24,0,.85.85,0,0,0,.23,0l-.34.54a4.42,4.42,0,0,1-.31.43l-.14.14A.48.48,0,0,1,61.88,126.51Zm21.66,12a1,1,0,0,0,0,.23,2.43,2.43,0,0,1-.13,1c-.11.31-.22.63-.34.94a7.85,7.85,0,0,0-.32.8c-.1.28-.21.56-.33.85L81.05,144c-.45.58-.87,1.18-1.28,1.8-.24.33-.48.65-.72.95a4.16,4.16,0,0,1-.86.81.22.22,0,0,1-.14,0,.66.66,0,0,1-.15-.32,3.62,3.62,0,0,1,0-1c.1-.45.19-.9.29-1.35s.2-.9.32-1.38l.09-.23a1.36,1.36,0,0,1,.13-.24c.26-.55.53-1.09.81-1.61s.55-1.06.84-1.58a6.27,6.27,0,0,1,.65-.94,3.68,3.68,0,0,1,.86-.75l.56-.38a1.72,1.72,0,0,0,.45-.48.6.6,0,0,1,.21-.11.53.53,0,0,1,.32.48.94.94,0,0,0,.18.56A1.76,1.76,0,0,1,83.54,138.53Zm15.36.5a2,2,0,0,1-.2.63c-.34.55-.63,1.05-.88,1.51s-.32.57-.39.68l0-.11-.09.16,0,0h0L96.72,143c-.31.52-.65,1.06-1,1.61s-.78,1.09-1.18,1.6a7.5,7.5,0,0,1-1.19,1.24l-.18.16a.21.21,0,0,1-.25,0,2.78,2.78,0,0,1-.21-.56,1.22,1.22,0,0,1,0-.52,13.29,13.29,0,0,1,1.21-3.8c.27-.6.55-1.18.82-1.75s.52-1.06.74-1.49.34-.68.39-.75.13-.25.25-.45.24-.42.36-.65.24-.45.34-.66l.24-.47a3,3,0,0,1,.28-.3.65.65,0,0,1,.18-.11h.15a.24.24,0,0,0,.18-.06,1.63,1.63,0,0,1,.54.44,1.08,1.08,0,0,1,.32.53c0,.15.06.33.11.54s.08.45.11.69A3.59,3.59,0,0,1,98.9,139Zm14.76,11.12A18.19,18.19,0,0,1,113,152c-.32.74-.6,1.49-.87,2.24s-.56,1.52-.89,2.28-.55,1.33-.85,2-.64,1.29-1,1.94a2,2,0,0,0-.25.32c-.1.14-.2.29-.31.43l-.29.38-.16.2a9,9,0,0,1-1.15,1.4L106,164.44l-.47.44a8.34,8.34,0,0,1-1.06.8,4.51,4.51,0,0,1-1.38.61,1.71,1.71,0,0,1-1.4-.19,1.57,1.57,0,0,1-.36-1.26,5.1,5.1,0,0,1,.79-2.17,29,29,0,0,1,1.92-2.95c.78-1.06,1.64-2.16,2.6-3.29s1.9-2.19,2.82-3.21,1.79-1.95,2.59-2.78,1.43-1.49,1.88-1.94l.25-.25C114,148.89,113.84,149.53,113.66,150.15Z"/></g><path class="cls-3" d="M37.33,131.13a1.49,1.49,0,0,0-.27.23l-.31.3a.42.42,0,0,1,.08.22.24.24,0,0,0,.07.18,2.47,2.47,0,0,0,.59.65,4.47,4.47,0,0,0,.74.43.91.91,0,0,0,.61,0,.76.76,0,0,0,.48-.33.7.7,0,0,0,.09-.57,1,1,0,0,0-.11-.32c0-.1-.09-.22-.14-.36a1.23,1.23,0,0,1-.47-.09l-.43-.2a1.72,1.72,0,0,0-.45-.16A.88.88,0,0,0,37.33,131.13Z"/><path class="cls-3" d="M33.07,134.72l.49-.51a4.09,4.09,0,0,1,.47-.46,5.1,5.1,0,0,0,.46-.47c.08-.07.22-.23.45-.48s.47-.56.74-.92a12.91,12.91,0,0,0,.77-1.19A6.72,6.72,0,0,0,37,129.4c.12-.33.24-.68.36-1s.23-.72.33-1.08a4.74,4.74,0,0,0,0-2.4,5.92,5.92,0,0,0-.5-1.32,10,10,0,0,0-.76-1.16A10.91,10.91,0,0,0,35,120.91a9,9,0,0,0-1.76-1.17,9.42,9.42,0,0,0-1.94-.65,7.14,7.14,0,0,0-1.72-.14,12.69,12.69,0,0,0-1.73.18l-.73.16c-.4.08-.85.2-1.37.34s-1.05.31-1.6.5a11.8,11.8,0,0,0-1.43.61,4.6,4.6,0,0,0-.7.35,12.91,12.91,0,0,0-1.28.79c-.48.32-1,.68-1.53,1.07a12.47,12.47,0,0,0-1.41,1.21,5.2,5.2,0,0,0-.63.68c-.3.36-.63.75-1,1.18s-.68.87-1,1.3-.56.76-.7,1-.42.72-.61,1.08a6.16,6.16,0,0,0-.47,1.15,7.37,7.37,0,0,0-.16.79,1.47,1.47,0,0,0,.13.79,1.51,1.51,0,0,0,.29.45.72.72,0,0,0,.5.23q.21,0,.21-.18a2,2,0,0,1,.36-1.43c.17-.27.34-.54.52-.81s.37-.55.56-.81a14.33,14.33,0,0,1,1.11-1.44c.34-.38.68-.73,1-1.06a13.79,13.79,0,0,1,1.13-1c.5-.4,1-.79,1.47-1.15l.4-.25.61-.39c.21-.15.43-.28.64-.42s.37-.23.47-.3a2.29,2.29,0,0,1,.29-.18l.29-.18a7.94,7.94,0,0,1,1.58-.83c.55-.21,1.11-.42,1.68-.61l.67-.21a5.53,5.53,0,0,1,.7-.18,5.21,5.21,0,0,1,1.09-.25L30,121l.9,0a5,5,0,0,1,.86.07,3.39,3.39,0,0,0,.43.11,3.34,3.34,0,0,1,.43.1,2,2,0,0,1,.41.2,2.6,2.6,0,0,1,.38.27,3.15,3.15,0,0,1,1.47,2.37,2.21,2.21,0,0,1,.06.34,1.32,1.32,0,0,1,0,.34,3.86,3.86,0,0,1-.09.49c0,.15-.08.33-.13.52a2.75,2.75,0,0,1-.28.81,16,16,0,0,1-.76,1.43c-.31.54-.66,1.08-1,1.62A8,8,0,0,1,31.48,131a2.48,2.48,0,0,0-.31.36,2.38,2.38,0,0,1-.3.36c-.34.33-.67.65-1,.95l-1,.88q-.93.83-1.86,1.56c-.63.49-1.27,1-1.94,1.42l-1.91,1.29c-.64.43-1.29.85-1.94,1.26l-.25.11a2.11,2.11,0,0,1-.38.12.85.85,0,0,1-.34,0,.11.11,0,0,1-.1-.16c0-.15.09-.3.12-.45s.08-.31.13-.45c.12-.48.25-.95.39-1.4s.28-.91.4-1.37a3.61,3.61,0,0,1,.14-.54c.07-.21.13-.43.18-.64s.1-.41.15-.58.07-.26.07-.28a4,4,0,0,1,.18-.74c.07-.23.13-.46.18-.7a1.89,1.89,0,0,0,0-.31.44.44,0,0,0-.14-.27.75.75,0,0,1-.22-.19,1.61,1.61,0,0,0-.36-.31,2.55,2.55,0,0,0-.43-.23.49.49,0,0,0-.39,0,1.41,1.41,0,0,0-.51.47.72.72,0,0,1-.14.23,2.38,2.38,0,0,0-.18.27,1.79,1.79,0,0,1-.16.31,2.26,2.26,0,0,0-.16.26c-.1.27-.18.53-.25.79a5.77,5.77,0,0,1-.29.79c-.29.77-.58,1.54-.88,2.32s-.59,1.55-.88,2.32q-.25.62-.45,1.2c-.13.4-.27.8-.41,1.21l-.13.34a4.92,4.92,0,0,0-.16.5l-.14.48a1.73,1.73,0,0,0-.08.26,3.33,3.33,0,0,1-.17.53c-.13.41-.24.8-.35,1.17s-.22.75-.34,1.13a8.92,8.92,0,0,0-.32,1.76c0,.27,0,.52,0,.76s0,.49.05.75a1.68,1.68,0,0,0,.14.72,1.13,1.13,0,0,0,.69.59,2,2,0,0,0,.89.06.16.16,0,0,0,.11,0,.52.52,0,0,1,.11-.07.27.27,0,0,0,0-.25c-.05-.05-.05-.12,0-.22a.52.52,0,0,0,.1-.18.54.54,0,0,1,.11-.18,10.38,10.38,0,0,1,.4-1c.14-.31.27-.63.39-1,.19-.5.37-1,.54-1.49s.35-1,.54-1.49a1.72,1.72,0,0,1,.34-.72,3.15,3.15,0,0,1,.49-.48,2.16,2.16,0,0,1,.48-.31,2,2,0,0,0,.34-.18.92.92,0,0,1,.47,0,3.89,3.89,0,0,0,.5.25,4.74,4.74,0,0,1,.5.26,10.5,10.5,0,0,1,1.44.89A6.25,6.25,0,0,1,24.47,145a7.54,7.54,0,0,1,.85,1.26c.22.43.43.88.63,1.36a2.36,2.36,0,0,1,.1.38,2.38,2.38,0,0,0,.11.38,2.62,2.62,0,0,1,.14.73c0,.3.05.6.08.9a5.3,5.3,0,0,1,0,.79c0,.23,0,.35,0,.38q-.07.39-.15.75c-.05.24-.09.49-.14.76a7.76,7.76,0,0,1-.61,2A6.24,6.24,0,0,1,23,157.38a4.54,4.54,0,0,1-.9.41,5.29,5.29,0,0,1-1,.24,1.36,1.36,0,0,1-.9-.15,5.31,5.31,0,0,1-.75-.48,2.31,2.31,0,0,1-.61-.67,7,7,0,0,0-.42-.73,2.31,2.31,0,0,1-.34-1.24.94.94,0,0,0,0-.25.55.55,0,0,1,0-.22,2.73,2.73,0,0,1,.2-.59,4.41,4.41,0,0,1,.3-.56,2.66,2.66,0,0,0,.29-.43v-.14a1.12,1.12,0,0,0-.25-.29.85.85,0,0,0-.65-.21s-.08,0-.18,0-.21,0-.36.12a4.53,4.53,0,0,0-1.33,1.62,2.73,2.73,0,0,0-.28,1,2.2,2.2,0,0,0,.21,1.08,4.39,4.39,0,0,0,.47.88,4.88,4.88,0,0,0,.68.77,12.67,12.67,0,0,0,1.6,1.15,5.33,5.33,0,0,0,1.89.68c.33.05.65.09,1,.11a4.4,4.4,0,0,0,.95,0l.32,0a1.35,1.35,0,0,0,.33,0l.52-.12.52-.13q.32-.07.63-.18a4.35,4.35,0,0,0,.59-.25,6.3,6.3,0,0,0,1.06-.66c.32-.26.64-.53.95-.81a10.18,10.18,0,0,0,1.94-2.66c.17-.34.32-.66.45-1a4.25,4.25,0,0,0,.27-1c.05-.27.08-.52.11-.77s.06-.51.1-.78a3.79,3.79,0,0,0,0-.77,4.54,4.54,0,0,0-.11-1.06,1.8,1.8,0,0,0-.09-.41,6.81,6.81,0,0,0-.25-.7c-.11-.27-.23-.55-.37-.86s-.31-.6-.47-.87-.4-.56-.61-.84-.42-.54-.61-.81a12.84,12.84,0,0,0-1.08-1.13c-.39-.35-.79-.67-1.22-1a17.76,17.76,0,0,0-2.09-1.25c-.12-.05-.13-.12,0-.22l.54-.32a2.39,2.39,0,0,0,.32-.16l.29-.17.75-.43a4.71,4.71,0,0,1,.65-.3,4.37,4.37,0,0,0,.61-.31c.57-.33,1.14-.68,1.71-1l1.7-1.08a5.9,5.9,0,0,0,.47-.37,3.54,3.54,0,0,1,.47-.38c.26-.19.52-.4.79-.61a8.44,8.44,0,0,0,.75-.72C32.76,135.05,32.92,134.89,33.07,134.72Z"/><path class="cls-3" d="M126.12,136.69a.5.5,0,0,0-.54-.29,1.58,1.58,0,0,1-.45,1,17.09,17.09,0,0,1-1.29,1.51c-.54.57-1.16,1.19-1.85,1.85s-1.38,1.33-2,2v0c.12-.57.23-1.15.33-1.72s.2-1.15.32-1.73a6.8,6.8,0,0,0,.21-.87,5.61,5.61,0,0,1,.22-.85c0-.24.09-.47.13-.68a1.24,1.24,0,0,0-.06-.61,1.13,1.13,0,0,0-.3-.72,1.59,1.59,0,0,0-.79-.49,1.88,1.88,0,0,0-1.1.11,2.73,2.73,0,0,0-1.18,1.06,6.49,6.49,0,0,0-.58.88c-.31.52-.7,1.15-1.17,1.91s-1,1.56-1.52,2.44-1.09,1.7-1.62,2.49-1,1.5-1.51,2.12a6.57,6.57,0,0,1-1.15,1.26l-.23.07-.2.07a.75.75,0,0,1-.5-.57,2.9,2.9,0,0,1,.05-1.06,7.18,7.18,0,0,1,.34-1l2.05-4.31a7.62,7.62,0,0,0,.45-1.23c.11-.4.22-.81.34-1.22a2.7,2.7,0,0,0,.13-1.74,2.85,2.85,0,0,0-.76-1.33,1.68,1.68,0,0,0-1.11-.5,1,1,0,0,0-1,.7l-.31.81c-.18.46-.38,1-.61,1.54l-.66,1.62c-.22.51-.36.84-.43,1-.27.69-.51,1.37-.74,2s-.44,1.37-.63,2.09a5.24,5.24,0,0,0-.18,1.05,2.12,2.12,0,0,0-.14.28,1.59,1.59,0,0,1-.18.37c-.07.11-.15.22-.22.34s-.23.33-.34.47a2.2,2.2,0,0,0-.27.47,17.24,17.24,0,0,1-1.65,2.28,4.84,4.84,0,0,1-.93.84c-.27.12-.45.09-.54-.1s-.1-.23-.15-.33a1.1,1.1,0,0,1-.1-.57,11,11,0,0,1,.18-1.15,7.05,7.05,0,0,1,.32-1.15c.07-.17.14-.33.2-.49s.11-.31.16-.48c.19-.62.4-1.24.63-1.85s.47-1.22.73-1.81.48-1.1.7-1.64.44-1.08.63-1.63c.15-.36.28-.73.4-1.12a6.93,6.93,0,0,1,.25-.72,1.81,1.81,0,0,0-.22-1.29c-.07-.09-.19-.23-.36-.41a3.7,3.7,0,0,0-.55-.49,2.29,2.29,0,0,0-.61-.3.53.53,0,0,0-.49.05,1.89,1.89,0,0,0-.57.49c-.17.2-.31.39-.43.55a6.86,6.86,0,0,1-.56.85c-.23.3-.4.54-.52.73,0-.16-.1-.37-.16-.62a4.26,4.26,0,0,0-.27-.78,2.83,2.83,0,0,0-.49-.73,2.37,2.37,0,0,0-.73-.56,3.81,3.81,0,0,0-1.39-.18,2.84,2.84,0,0,0-1.38.43,2.58,2.58,0,0,1-.48.29,5.57,5.57,0,0,0-1.24,1.08,4.71,4.71,0,0,0-.47.61,5.5,5.5,0,0,1-.47.61c-.12.17-.23.32-.32.47s-.2.3-.32.46a3.46,3.46,0,0,0-.31.42l-.27.44L92.43,141a12.46,12.46,0,0,0-.84,2,11.2,11.2,0,0,0-.46,1.94c-.3.62-.6,1.21-.89,1.77-.46.89-.87,1.66-1.24,2.32a7.26,7.26,0,0,1-.84,1.28,1.29,1.29,0,0,0-.33.5,1.09,1.09,0,0,1-.32.46c-.17.13-.34.23-.5.33a1.72,1.72,0,0,1-.54.18.54.54,0,0,1-.33-.54,7.08,7.08,0,0,1,.26-2.37c.09-.43.2-1,.32-1.69s.24-1.42.38-2.17.26-1.48.41-2.18a15.38,15.38,0,0,1,.43-1.68,9.51,9.51,0,0,0,.38-1.46c.08-.49.18-1,.3-1.45q.07-.28.18-.6c.07-.2.15-.4.22-.59s.23-.57.34-.86.21-.58.3-.86.3-.8.47-1.17a6.61,6.61,0,0,1,.61-1.06,15,15,0,0,1,.93-1.7q.54-.85,1.08-1.62c.36-.52.7-1,1-1.4a12.35,12.35,0,0,0,.73-1.06c.15-.27.3-.52.45-.76a8.58,8.58,0,0,1,.52-.71,12.23,12.23,0,0,0,.9-1.37c.43-.72.89-1.52,1.36-2.41s.92-1.76,1.32-2.62a8.8,8.8,0,0,0,.7-2,1.28,1.28,0,0,0-.09-.25,1.45,1.45,0,0,0-.31-.43,1.35,1.35,0,0,0-.54-.34,1,1,0,0,0-.75,0l-.36.21a1.83,1.83,0,0,0-.36.29,3.88,3.88,0,0,0-.52.46l-.52.54-.22.22a1.68,1.68,0,0,0-.18.21c-.45.7-.94,1.38-1.45,2a17.32,17.32,0,0,0-1.38,2c-.08.12-.19.3-.35.52s-.31.47-.48.7-.32.47-.45.69l-.27.43c0,.07-.14.21-.27.43s-.27.45-.43.7-.3.49-.43.72-.23.4-.31.52c-.59,1.2-1.18,2.4-1.76,3.63a3.47,3.47,0,0,0-.17.48c0,.16-.11.32-.18.49a19.9,19.9,0,0,0-.83,1.85c-.24.61-.49,1.22-.75,1.85-.05.12-.12.27-.22.46a.38.38,0,0,1-.09.13l-.13.12a.86.86,0,0,1-.18-.14l-.14-.14a3.33,3.33,0,0,0-.74-.4,2.36,2.36,0,0,0-.8-.14c-.22,0-.44,0-.67,0a2.84,2.84,0,0,0-.66.08,1.53,1.53,0,0,0-.79.21c-.34.19-.66.39-1,.59a5.84,5.84,0,0,0-.86.7,6.16,6.16,0,0,0-.88,1.1c-.26.4-.51.78-.78,1.17a9.59,9.59,0,0,0-1,2c-.26.69-.5,1.41-.72,2.15-.07.29-.11.57-.15.85l-.22.41c-.35.65-.66,1.2-.92,1.67s-.43.75-.5.85a2.39,2.39,0,0,0-.13.21c0,.07-.08.14-.12.22-.29.57-.6,1.13-.94,1.67s-.67,1.08-1,1.63a13.23,13.23,0,0,1-1,1.44c-.38.45-.77.88-1.18,1.29a.29.29,0,0,1-.36,0,1.11,1.11,0,0,1,0-.47c0-.14,0-.3.08-.47a11,11,0,0,1,.43-1.85c.19-.61.4-1.21.64-1.81.34-.89.69-1.76,1-2.62s.7-1.74,1-2.63c.12-.33.23-.66.34-1s.21-.66.3-1,.24-.8.36-1.19.24-.77.36-1.18l.13-.41a1,1,0,0,0,0-.42,2.93,2.93,0,0,0,.18-1.27,3.75,3.75,0,0,0-.28-1.28,2.07,2.07,0,0,0-.7-.88,1.07,1.07,0,0,0-1.06,0,3.13,3.13,0,0,0-.94.5,4.19,4.19,0,0,0-.68.72c-.07.1-.21.27-.41.52s-.43.53-.67.83l-.7.89a5.18,5.18,0,0,0-.48.74c-.31.55-.63,1.1-1,1.63s-.68,1.08-1.06,1.6a1.37,1.37,0,0,0-.29.42,3.83,3.83,0,0,1-.25.44,1.41,1.41,0,0,1-.2.24.6.6,0,0,1-.23.16c-.07,0-.12,0-.15,0a.68.68,0,0,1,0-.34s0-.13,0-.38a2.9,2.9,0,0,1,.11-.62l.57-1.8c.19-.6.38-1.21.58-1.83.07-.22.13-.43.18-.65a4.23,4.23,0,0,1,.18-.65c.21-.59.43-1.19.64-1.79l.65-1.8a3.46,3.46,0,0,1,.3-.75c.14-.24.27-.48.42-.72L71,130.44a9.08,9.08,0,0,1,.73-1,5.76,5.76,0,0,0,.53-.59c.15-.21.3-.41.44-.63s.27-.41.53-.81.5-.81.77-1.26l.73-1.23.42-.72c.16-.31.34-.61.52-.9a5,5,0,0,0,.45-.93,5.67,5.67,0,0,0,.34-1.17,8.05,8.05,0,0,0,.12-1.35,2.93,2.93,0,0,0-.18-1.09.62.62,0,0,0-.61-.45,2.18,2.18,0,0,0-.73.18,1.86,1.86,0,0,0-.63.43c-.27.26-.53.53-.79.81a4.32,4.32,0,0,0-.68.91,3.32,3.32,0,0,1-.45.63,5.91,5.91,0,0,0-.49.63c-.12.19-.24.39-.36.61s-.24.42-.36.61c-.28.48-.57.94-.86,1.38l-.86,1.35c0,.1-.1.18-.14.27s-.1.17-.15.27-.19.37-.29.54-.19.34-.28.54l-.33.53c-.16.32-.37.77-.62,1.35s-.51,1.18-.76,1.78-.48,1.14-.68,1.63-.33.8-.38.92-.1.29-.16.43a4.29,4.29,0,0,0-.16.47,6,6,0,0,1-.27.88l-.34.84a4.59,4.59,0,0,0-.33.86l-.57,1.67,0,.09h0a2.56,2.56,0,0,0-.14.26l-.77,1.14-1,1.49-1,1.5c-.31.47-.55.87-.72,1.18s-.55.87-.8,1.31a9.17,9.17,0,0,1-.89,1.28c-.26.33-.5.67-.73,1l-.67,1c-.28.48-.57.94-.86,1.37a12.47,12.47,0,0,1-1,1.26c-.14.16-.29.32-.43.46l-.43.43s0,0-.09,0l-.13,0c-.07-.07-.1-.12-.1-.14a1.08,1.08,0,0,1-.06-.59c0-.21.08-.42.13-.63s.14-.54.21-.83a6.25,6.25,0,0,0,.18-.86c.1-.41.18-.81.25-1.2s.16-.8.26-1.2a6.77,6.77,0,0,1,.19-.87c.09-.28.17-.57.24-.86.19-.67.37-1.33.55-2a10.43,10.43,0,0,1,.74-1.92,2.58,2.58,0,0,0,.25-.69c.07-.19.25-.6.52-1.24l1-2.21c.37-.83.78-1.72,1.22-2.65s.86-1.82,1.24-2.64.73-1.53,1-2.1.49-.94.59-1.08c.43-.6.86-1.19,1.29-1.76s.88-1.15,1.33-1.73a.85.85,0,0,1,.15-.18l.71-.25a2.68,2.68,0,0,1,.76-.1,1.53,1.53,0,0,0,.45-.08l.45-.14c.07,0,.25-.06.55-.11l.94-.16a8.78,8.78,0,0,0,.88-.21q.39-.14.36-.27a1.15,1.15,0,0,0-.6-.17l-1-.09-1-.07a5.15,5.15,0,0,1-.63-.07l-.2-.05c-.06,0-.1-.08-.12-.2a1.75,1.75,0,0,1,.16-.27,1.49,1.49,0,0,0,.16-.31,2.76,2.76,0,0,0,.25-.44c.07-.16.15-.31.22-.45l.57-1.3c.19-.43.4-.85.61-1.25a2.92,2.92,0,0,0,.33-.92c0-.3.09-.62.14-.95a1.44,1.44,0,0,0-.47-1.33,2.29,2.29,0,0,0-2,.79q-.54.65-1.05,1.29c-.33.43-.68.85-1,1.26a13.29,13.29,0,0,0-1.47,2q-.43.64-.84,1.29c-.28.44-.56.87-.85,1.3a1.14,1.14,0,0,1-.18.25l-.21.21a1.58,1.58,0,0,1-.38,0,1.58,1.58,0,0,0-.38,0,8.87,8.87,0,0,1-1.63,0,4.24,4.24,0,0,1-1.56-.49,2.33,2.33,0,0,0-.58-.21,5.38,5.38,0,0,0-.9-.22.43.43,0,0,0-.43.33.36.36,0,0,1,.11.19.39.39,0,0,0,.11.2l.37.36a1.86,1.86,0,0,0,.42.29,5.92,5.92,0,0,0,.81.37l.8.35a4.48,4.48,0,0,0,1.91.43.35.35,0,0,1,.14,0,.77.77,0,0,0,.25.07c-.09.22-.18.42-.25.6a3.54,3.54,0,0,1-.25.52l-.38.82c-.13.29-.27.57-.41.83-.62,1.13-1.2,2.25-1.72,3.38s-1,2.27-1.51,3.44l-.61,1.37c-.27.57-.56,1.28-.88,2.12s-.66,1.79-1,2.87c-.15.46-.29.95-.43,1.45s-.47.86-.68,1.26c-.33.61-.61,1.14-.85,1.57a7.05,7.05,0,0,0-.39.75,4.28,4.28,0,0,1-.51.86c-.26.39-.53.78-.82,1.19s-.57.79-.85,1.17-.46.62-.55.77a.46.46,0,0,1-.58.21,1.92,1.92,0,0,1-.25-.61,1.73,1.73,0,0,1,0-.64c0-.41.1-.82.16-1.23a7,7,0,0,1,.3-1.22l.7-1.81c.33-.83.66-1.69,1-2.59s.64-1.74.92-2.55a16.11,16.11,0,0,0,.52-1.74v-.3a1.49,1.49,0,0,0-.13-.56,2.7,2.7,0,0,0-1.27-1.4,1.4,1.4,0,0,0-1.19,0c-.52.18-1,.39-1.58.62s-1,.45-1.29.63-.43.2-.29.06a2.1,2.1,0,0,1,.15-.6c.09-.27.2-.55.32-.84s.31-.69.5-1.08a1.37,1.37,0,0,0,.25-.75.91.91,0,0,0-.21-.56,1.56,1.56,0,0,0-.86-.41.32.32,0,0,0-.17,0l-.16,0-.82.34a1.21,1.21,0,0,0-.45.29,1.76,1.76,0,0,0-.29.37c-.09.15-.2.33-.34.54a4.76,4.76,0,0,0-.22,1.8,3.17,3.17,0,0,0,.58,1.58,1.87,1.87,0,0,0,.56.4c-1,2-2.07,3.87-3.08,5.53-.48.76-1,1.52-1.45,2.28s-1,1.44-1.46,2.06a13.13,13.13,0,0,1-1.36,1.55,2.93,2.93,0,0,1-1.19.75h-.21a.77.77,0,0,1-.07-.16.45.45,0,0,1,0-.2c0-.24,0-.48,0-.72a5.51,5.51,0,0,1,.09-.71c.12-.6.27-1.19.43-1.76s.36-1.14.58-1.69.47-1.25.68-1.89.44-1.27.68-1.92.52-1.44.78-2.17a20.74,20.74,0,0,0,.63-2.25,10.33,10.33,0,0,0,.25-1.51,1.63,1.63,0,0,0-.43-1.22,1.74,1.74,0,0,0-1.19-.54.52.52,0,0,0-.25,0,.54.54,0,0,1-.22,0,2.63,2.63,0,0,0-.54.75l-.36.79-.34,1c-.1.32-.22.64-.34,1,0,.15-.18.49-.39,1s-.46,1.14-.74,1.79-.53,1.27-.77,1.87-.41,1-.5,1.22c-.24.62-.46,1.24-.65,1.85s-.37,1.24-.54,1.89a4.42,4.42,0,0,0-.13,1,6.4,6.4,0,0,0,.13,1.4,6.5,6.5,0,0,0,.49,1.49,3.57,3.57,0,0,0,1,1.28l.47.21a4.85,4.85,0,0,1,.54.29c.43.22,1,.07,1.58-.45a12.52,12.52,0,0,0,2-2.15,36.94,36.94,0,0,0,2.09-3.13c.69-1.16,1.33-2.28,1.92-3.38s1.09-2.06,1.51-2.92l.84-1.73c.08-.15.14-.27.19-.38H45a4.7,4.7,0,0,0,1.4-.33c.45-.18.84-.36,1.17-.53s.54-.23.61-.13a2.19,2.19,0,0,1-.21,1c-.31.69-.62,1.39-.92,2.08s-.61,1.39-.95,2.08a14.25,14.25,0,0,0-.68,1.62q-.29.83-.54,1.65a7.51,7.51,0,0,0-.31,1.64,11.1,11.1,0,0,0,0,1.63,4.21,4.21,0,0,0,.5,1.76,2.56,2.56,0,0,0,1.48,1.12,1.74,1.74,0,0,0,.77.27,3.82,3.82,0,0,1,.7.09,1.21,1.21,0,0,1,.39-.2l.38-.13a1.31,1.31,0,0,0,.36-.21,2.07,2.07,0,0,0,.34-.43,5.53,5.53,0,0,0,1.08-1.3c.43-.64.88-1.4,1.35-2.26a.41.41,0,0,1,.05-.09c-.06.46-.11.92-.14,1.38l-.09.86a6.58,6.58,0,0,0-.06.9,2.31,2.31,0,0,0,.94,2.09.84.84,0,0,1,.21.18,2.76,2.76,0,0,0,.25.21,1.86,1.86,0,0,0,2,.14,5.22,5.22,0,0,0,1.69-1.5l.75-1c.1-.12.19-.23.29-.33a.87.87,0,0,0,.22-.32,9.69,9.69,0,0,1,.88-1.47,9.29,9.29,0,0,0,.84-1.48l.16-.21.16-.18a3.77,3.77,0,0,0,.42-.65l.72-1.29c.27-.5.56-1.05.86-1.64l.64-1.23a12.94,12.94,0,0,0-.18,1.95,5.77,5.77,0,0,0,.42,2.25c.35.62.71,1,1.06,1.06a1.27,1.27,0,0,0,1-.15,2.24,2.24,0,0,0,.75-.75,4.63,4.63,0,0,0,.41-.77,3.25,3.25,0,0,1,.18-.43c.07-.15.13-.29.18-.43s.15-.38.22-.56a5.38,5.38,0,0,1,.25-.56c.41-.86.84-1.7,1.31-2.53s.94-1.63,1.42-2.42a19.55,19.55,0,0,1,1.15-1.66,15.62,15.62,0,0,1,1.33-1.51.38.38,0,0,1,.43-.07.5.5,0,0,0,0,.16.23.23,0,0,1,0,.2,6.31,6.31,0,0,1-.32,1.08c-.1.24-.2.47-.32.7a3.83,3.83,0,0,0-.29.7c-.22.7-.47,1.37-.75,2s-.57,1.34-.83,2c-.19.45-.38.9-.56,1.35s-.36.88-.55,1.31-.47,1-.67,1.51a10,10,0,0,0-.48,1.58c-.12.5-.23,1-.33,1.52s-.16,1-.21,1.53a4.71,4.71,0,0,0,.34,2.17A3.37,3.37,0,0,0,69.26,156h1c.19-.12.39-.23.58-.33a5.45,5.45,0,0,0,.57-.32q.18-.21.36-.45c.12-.15.25-.32.4-.48a6.37,6.37,0,0,0,.84-1.17c.3-.52.58-1,.85-1.53s.58-1.22.89-1.87l1.84-3.76a9.31,9.31,0,0,0,.35,1.43l.31.81a2.11,2.11,0,0,0,.45.7l.68.36.72.36a2.38,2.38,0,0,0,.39,0H80a1,1,0,0,0,.75-.28c.26-.22.51-.44.74-.67a2,2,0,0,0,.48-.84s.1-.22.22-.51.25-.59.41-.91.3-.62.45-.9.25-.41.32-.41.07.08.07.11v.34a2.14,2.14,0,0,1,0,.34,14.23,14.23,0,0,0-.11,1.43,16.3,16.3,0,0,0,0,1.84,10.93,10.93,0,0,0,.26,1.77,3.19,3.19,0,0,0,.56,1.28,9.16,9.16,0,0,0,1.06,1.09,1.85,1.85,0,0,0,1.42.42l.23,0,.13,0a3.23,3.23,0,0,0,1.49-1.11c.28-.43.49-.74.63-.94a7.28,7.28,0,0,0,.54-1c.31-.61.69-1.37,1.13-2.27l.64-1.31a6.35,6.35,0,0,0,.26.67c.08.18.13.27.16.27a2.34,2.34,0,0,0,.68.77,3.4,3.4,0,0,0,.77.41,2.25,2.25,0,0,0,.7.16l.44,0a2,2,0,0,0,.34,0,3.3,3.3,0,0,0,.34-.11,1.53,1.53,0,0,0,.25-.16l.21-.17a7.12,7.12,0,0,0,.58-.77c.24-.34.47-.69.7-1s.42-.66.59-.93.28-.44.32-.49l.29-.43a3.18,3.18,0,0,0,.25-.43c.22-.43.44-.86.67-1.29s.45-.87.66-1.3a18.71,18.71,0,0,1,1-1.83c.38-.6.74-1.21,1.07-1.83l.09-.13s.09,0,.16.09-.13.34-.19.51a5.71,5.71,0,0,1-.24.54c-.12.26-.24.53-.37.8s-.26.56-.38.85-.32.81-.47,1.22-.29.81-.43,1.22c-.05.12-.1.25-.14.38a2.12,2.12,0,0,1-.18.37,5.24,5.24,0,0,0-.56,1.5c-.11.51-.23,1-.38,1.52a.61.61,0,0,0,0,.22,4.5,4.5,0,0,0,.23,1.69,7,7,0,0,0,.74,1.5.76.76,0,0,0,.28.33l1.3,1a2.42,2.42,0,0,1,.45,0l.41,0a2.16,2.16,0,0,1,.38-.06l.37-.05.81-.51a2.66,2.66,0,0,0,.67-.53c.21-.29.4-.53.55-.72a7.21,7.21,0,0,0,.43-.58,4.33,4.33,0,0,0,.38-.64c.12-.24.28-.54.47-.9l.11-.18c.09-.13.22-.36.37-.63,0,.06,0,.12.07.18a1.52,1.52,0,0,0,.56.59l.9.54a5.64,5.64,0,0,0,.93.43,2.62,2.62,0,0,0,2.45-.21,4.82,4.82,0,0,0,.91-.78c.28-.3.55-.6.81-.91A13.81,13.81,0,0,0,114,146c.3-.55.61-1.14.93-1.76s.64-1.25.95-1.87.59-1.18.83-1.69.44-.91.59-1.24a2.26,2.26,0,0,1,.27-.48c-.07.62-.15,1.23-.23,1.83s-.2,1.2-.34,1.8-.36,1.33-.51,2-.28,1.34-.43,2c-.74.7-1.43,1.33-2.08,1.92L112.33,150c-.58.5-1.25,1.12-2,1.83s-1.55,1.51-2.36,2.36-1.6,1.74-2.39,2.69a27.56,27.56,0,0,0-2.11,2.89,5.49,5.49,0,0,0-.65.77,8.22,8.22,0,0,0-.93,1.62,7.91,7.91,0,0,0-.61,2.07,3.87,3.87,0,0,0,.28,2.19l.43.39a4,4,0,0,0,.47.33,3,3,0,0,0,.58.39,3.33,3.33,0,0,0,.5.25.71.71,0,0,0,.43.07,1.33,1.33,0,0,0,.32,0,.62.62,0,0,1,.29.07,1.48,1.48,0,0,0,.77.09,4.64,4.64,0,0,0,.74-.16,8.77,8.77,0,0,0,1.49-.54,12.94,12.94,0,0,0,1.38-.72,1.83,1.83,0,0,0,.34-.18l.31-.18a9.7,9.7,0,0,0,1.9-1.4,1.87,1.87,0,0,1,.16-.27l.42-.54.52-.64a6.38,6.38,0,0,1,.48-.56,21.86,21.86,0,0,0,1.73-3c.5-1.05.94-2,1.33-3s.68-1.73.91-2.41.39-1.14.49-1.38a12.65,12.65,0,0,0,.41-1.31c.15-.59.3-1.2.45-1.82l.39-1.74c.12-.54.21-.92.25-1.13a.83.83,0,0,0,.08-.31.79.79,0,0,1,.07-.3l.39-2.05c.77-.72,1.46-1.37,2.07-2a11,11,0,0,0,1.09-1.13c.15-.17.4-.42.76-.75s.74-.7,1.13-1.1a11.42,11.42,0,0,0,1.08-1.24,2.36,2.36,0,0,0,.52-1.18A1.5,1.5,0,0,0,126.12,136.69Zm-31.86-11.9c.34-.59.68-1.18,1-1.78l.33-.54c.09-.17.19-.35.28-.54a.31.31,0,0,0,.09-.18.31.31,0,0,1,.09-.18A17.38,17.38,0,0,0,97,120c.27-.53.57-1.06.88-1.58a1,1,0,0,1,.36-.4h.18a.52.52,0,0,1,0,.5c-.07.15-.17.39-.29.72a12.52,12.52,0,0,1-.66,1.44q-.48.93-1.35,2.37c-.57,1-1.34,2.12-2.3,3.48a1,1,0,0,0-.12.17,2.07,2.07,0,0,0-.13.26,1,1,0,0,1-.1-.32A9.63,9.63,0,0,1,94.26,124.79Zm-22.59,2.1c.19-.46.4-.94.65-1.46s.46-1,.66-1.45.33-.76.38-.9a3,3,0,0,1,.27-.59c.13-.25.27-.52.43-.79s.3-.53.43-.76.22-.39.27-.48.19-.33.28-.33.09,0,.11.11v.4c-.05.26-.1.51-.16.75a3.52,3.52,0,0,1-.27.72c-.21.53-.44,1-.68,1.56a12,12,0,0,1-.83,1.49c-.28.46-.57.91-.84,1.35s-.55.9-.81,1.38a.19.19,0,0,1-.07.06.35.35,0,0,0-.11.09.2.2,0,0,0,0-.13.28.28,0,0,1,0-.13C71.36,127.64,71.48,127.34,71.67,126.89Zm-6.77-3.22a1,1,0,0,1,.12-.16,4.86,4.86,0,0,0,.33-.54c.09-.19.19-.38.29-.57a4.4,4.4,0,0,1,.43-.87,9.18,9.18,0,0,0,.46-.82,5.53,5.53,0,0,1,.87-1.44,4.41,4.41,0,0,0,.3-.5,5.22,5.22,0,0,1,.31-.54,2.61,2.61,0,0,1,.16-.29c.08-.14.17-.19.27-.14s.07.16,0,.32-.12.29-.15.36c-.09.24-.18.48-.25.72a3.16,3.16,0,0,1-.29.68,21,21,0,0,1-1.65,2.84c-.09.12-.2.27-.32.45s-.24.38-.36.59l-.65.15A2.39,2.39,0,0,1,64.9,123.67Zm-1.42,2.68a1.54,1.54,0,0,0,.14-.31,3,3,0,0,1,.22-.45.85.85,0,0,1,.23,0,.64.64,0,0,0,.24,0c-.12.19-.24.37-.34.54s-.22.31-.31.43l-.14.15A.49.49,0,0,1,63.48,126.35Zm21.66,12a.71.71,0,0,0,0,.24,2.45,2.45,0,0,1-.12,1c-.11.31-.23.62-.35.93s-.22.53-.32.81-.2.55-.32.84c-.46.58-.91,1.15-1.35,1.73s-.87,1.17-1.27,1.79c-.24.34-.48.65-.72,1a4.43,4.43,0,0,1-.86.81.21.21,0,0,1-.15,0,.77.77,0,0,1-.14-.32,3.69,3.69,0,0,1,0-1.05c.09-.45.19-.9.29-1.34s.2-.91.32-1.39a1.36,1.36,0,0,1,.09-.23l.12-.23.81-1.62.85-1.58a5.66,5.66,0,0,1,.64-.93,3.77,3.77,0,0,1,.87-.76c.19-.12.37-.24.55-.38a1.72,1.72,0,0,0,.45-.48,1,1,0,0,1,.22-.11.55.55,0,0,1,.32.49.91.91,0,0,0,.18.55C85.19,138.19,85.16,138.28,85.14,138.36Zm15.35.51a1.68,1.68,0,0,1-.19.62c-.34.56-.63,1.06-.88,1.51s-.32.57-.4.68l0-.1-.09.16v0h0c-.17.31-.39.67-.65,1.12s-.66,1.07-1,1.62-.78,1.08-1.19,1.6a7.79,7.79,0,0,1-1.18,1.23l-.18.17a.21.21,0,0,1-.25,0,3,3,0,0,1-.22-.55,1.47,1.47,0,0,1,0-.52,14.06,14.06,0,0,1,.57-2.3c.15-.41.35-.91.63-1.51s.55-1.18.83-1.74.52-1.06.73-1.49.35-.69.4-.76l.25-.45c.12-.2.24-.42.36-.64l.34-.67c.11-.21.18-.37.23-.47a2.88,2.88,0,0,1,.29-.3.46.46,0,0,1,.18-.11.33.33,0,0,1,.14,0,.23.23,0,0,0,.18-.05,1.4,1.4,0,0,1,.54.43,1,1,0,0,1,.33.54c0,.14.06.32.1.54a4.6,4.6,0,0,1,.11.68A3.08,3.08,0,0,1,100.49,138.87ZM115.26,150a17.48,17.48,0,0,1-.67,1.87c-.31.74-.6,1.49-.86,2.25s-.56,1.51-.9,2.28-.54,1.32-.84,2a20.24,20.24,0,0,1-1,1.94,2.78,2.78,0,0,0-.25.32c-.09.15-.2.29-.3.44l-.29.37-.16.2a9.62,9.62,0,0,1-1.15,1.4l-1.26,1.26-.47.43a8.56,8.56,0,0,1-1.06.81,4.64,4.64,0,0,1-1.38.61,1.76,1.76,0,0,1-1.4-.2,1.65,1.65,0,0,1-.36-1.26,5.45,5.45,0,0,1,.79-2.17,30.83,30.83,0,0,1,1.92-2.95c.78-1.06,1.65-2.16,2.61-3.28s1.89-2.2,2.82-3.22,1.78-1.94,2.58-2.78,1.43-1.48,1.89-1.94l.25-.25C115.6,148.73,115.43,149.36,115.26,150Z"/><polygon class="cls-3" points="114.92 40.57 116.95 38.99 119.41 39.77 118.53 37.35 120.03 35.26 117.46 35.34 115.93 33.27 115.22 35.74 112.77 36.56 114.9 38 114.92 40.57"/><polygon class="cls-3" points="104 40.27 104.41 41.05 104.78 40.25 105.65 40.1 105 39.51 105.13 38.64 104.36 39.07 103.58 38.68 103.75 39.54 103.13 40.17 104 40.27"/><polygon class="cls-3" points="105.82 49.36 104.49 48.23 104.41 49.97 102.93 50.9 104.56 51.51 104.98 53.2 106.07 51.84 107.81 51.97 106.85 50.51 107.5 48.89 105.82 49.36"/><polygon class="cls-3" points="100.76 8.42 103.05 6.54 105.89 7.36 104.81 4.61 106.47 2.16 103.52 2.33 101.7 0 100.95 2.86 98.17 3.87 100.66 5.46 100.76 8.42"/><polygon class="cls-3" points="89.75 8.78 90.96 7.32 92.85 7.5 91.84 5.89 92.59 4.15 90.75 4.61 89.32 3.36 89.2 5.25 87.57 6.22 89.33 6.93 89.75 8.78"/><polygon class="cls-3" points="85.23 22.4 86.44 21.05 88.23 21.28 87.32 19.71 88.09 18.08 86.32 18.46 85 17.23 84.82 19.03 83.24 19.9 84.89 20.63 85.23 22.4"/><polygon class="cls-3" points="86.55 29.6 85.76 28.66 85.49 29.86 84.36 30.32 85.41 30.94 85.49 32.16 86.41 31.35 87.6 31.65 87.12 30.53 87.77 29.49 86.55 29.6"/><path class="cls-4" d="M66.46,71.78a5.64,5.64,0,0,0-1.61-3.38l-2.52-2.35a6.25,6.25,0,0,0-3.69-1.54,1.2,1.2,0,0,1-.88-.33L56.5,63a.21.21,0,0,0-.31,0l-8.37,9.23H66.56A1.24,1.24,0,0,1,66.46,71.78Z"/><path class="cls-4" d="M68.71,62l6.28.07a.28.28,0,0,0,.32-.17L77,57.29a.36.36,0,0,0-.11-.37L73,53.34a.36.36,0,0,0-.37-.08l-4.54,1.91a.28.28,0,0,0-.15.33l.43,6.2A.37.37,0,0,0,68.71,62Z"/><path class="cls-5" d="M18.9,86v8.28H9.49V86c0-2-.86-2.84-2.84-2.84H0V89H1.67a.78.78,0,0,1,.86.86V111h7V100.09H18.9V111h7V89.86a.78.78,0,0,1,.85-.86h1.67V83.17H21.74C19.76,83.17,18.9,84,18.9,86Z"/><path class="cls-5" d="M54.07,104.29,46.49,83.17H39.25l-7.58,21.12c-.24.66-.43.85-1.05.85h-.74V111h4.47c1.94,0,2.72-.59,3.27-2.26l1.2-3.58h8.09l1.21,3.58c.54,1.67,1.32,2.26,3.27,2.26h4.47v-5.84h-.74C54.5,105.14,54.3,105,54.07,104.29ZM40.3,99.5l1.4-4.63c.55-1.75,1.13-4.59,1.13-4.59h.08s.58,2.84,1.13,4.59l1.4,4.63Z"/><path class="cls-5" d="M70.84,83.17H57.34V89h2.53v22h7v-8.6h4c5.4,0,9.06-4,9.06-9.65S76.24,83.17,70.84,83.17Zm-1.4,13.38H66.83V89h2.72c2.14,0,3.23,1.52,3.23,3.73S71.69,96.55,69.44,96.55Z"/><path class="cls-5" d="M95.15,83.17H81.65V89h2.53v22h7v-8.6h4c5.41,0,9.06-4,9.06-9.65S100.56,83.17,95.15,83.17Zm-1.4,13.38H91.14V89h2.73c2.14,0,3.23,1.52,3.23,3.73S96,96.55,93.75,96.55Z"/><path class="cls-5" d="M121.72,85l-2.8,4.79c-1,1.79-1.67,3.11-1.67,3.11h-.08s-.62-1.32-1.67-3.11L112.66,85c-.94-1.59-1.87-1.86-3.58-1.86h-3.81V89h1.13c.85,0,.89.08,1.4.86l5.91,8.94V111h7V98.8l5.91-8.94c.51-.78.55-.86,1.4-.86h1.13V83.17H125.3C123.59,83.17,122.65,83.44,121.72,85Z"/><rect class="cls-5" x="14.13" y="116.78" width="1.69" height="1.68"/><rect class="cls-5" x="10.76" y="116.78" width="1.68" height="1.68"/><rect class="cls-5" x="7.39" y="116.78" width="1.68" height="1.68"/><rect class="cls-5" x="4.02" y="116.78" width="1.69" height="1.68"/><rect class="cls-5" x="57.94" y="74.95" width="1.68" height="1.68"/><rect class="cls-5" x="41.09" y="74.95" width="1.68" height="1.68"/><rect class="cls-5" x="47.83" y="74.95" width="1.68" height="1.68"/><rect class="cls-5" x="81.54" y="74.95" width="1.68" height="1.68"/><rect class="cls-5" x="44.46" y="74.95" width="1.69" height="1.68"/><rect class="cls-5" x="54.57" y="74.95" width="1.69" height="1.68"/><rect class="cls-5" x="78.17" y="74.95" width="1.69" height="1.68"/><rect class="cls-5" x="74.79" y="74.95" width="1.68" height="1.68"/><rect class="cls-5" x="68.05" y="74.95" width="1.69" height="1.68"/><rect class="cls-5" x="71.42" y="74.95" width="1.69" height="1.68"/><rect class="cls-5" x="61.31" y="74.95" width="1.68" height="1.68"/><rect class="cls-5" x="51.2" y="74.95" width="1.69" height="1.68"/><rect class="cls-5" x="7.39" y="74.95" width="1.68" height="1.68"/><rect class="cls-5" x="10.76" y="74.95" width="1.68" height="1.68"/><rect class="cls-5" x="37.72" y="74.95" width="1.69" height="1.68"/><rect class="cls-5" x="17.5" y="74.95" width="1.68" height="1.68"/><rect class="cls-5" x="4.02" y="74.95" width="1.69" height="1.68"/><rect class="cls-5" x="14.13" y="74.95" width="1.69" height="1.68"/><rect class="cls-5" x="34.35" y="74.95" width="1.68" height="1.68"/><rect class="cls-5" x="30.98" y="74.95" width="1.69" height="1.68"/><rect class="cls-5" x="20.87" y="74.95" width="1.69" height="1.68"/><rect class="cls-5" x="24.24" y="74.95" width="1.68" height="1.68"/><rect class="cls-5" x="27.61" y="74.95" width="1.68" height="1.68"/><rect class="cls-5" x="64.68" y="74.95" width="1.69" height="1.68"/><rect class="cls-5" x="108.49" y="74.95" width="1.68" height="1.68"/><rect class="cls-5" x="111.86" y="74.95" width="1.68" height="1.68"/><rect class="cls-5" x="105.13" y="74.95" width="1.68" height="1.68"/><rect class="cls-5" x="118.6" y="74.95" width="1.68" height="1.68"/><rect class="cls-5" x="115.23" y="74.95" width="1.68" height="1.68"/><rect class="cls-5" x="101.75" y="74.95" width="1.68" height="1.68"/><rect class="cls-5" x="121.97" y="74.95" width="1.69" height="1.68"/><rect class="cls-5" x="88.27" y="74.95" width="1.69" height="1.68"/><rect class="cls-5" x="84.9" y="74.95" width="1.69" height="1.68"/><rect class="cls-5" x="91.64" y="74.95" width="1.69" height="1.68"/><rect class="cls-5" x="125.35" y="74.95" width="1.68" height="1.68"/><rect class="cls-5" x="128.71" y="74.95" width="1.69" height="1.68"/><rect class="cls-5" x="95.02" y="74.95" width="1.68" height="1.68"/><rect class="cls-5" x="98.38" y="74.95" width="1.69" height="1.68"/><rect class="cls-5" x="125.35" y="116.78" width="1.68" height="1.68"/><rect class="cls-5" x="121.97" y="116.78" width="1.69" height="1.68"/><rect class="cls-5" x="118.6" y="116.78" width="1.68" height="1.68"/><rect class="cls-5" x="115.23" y="116.78" width="1.68" height="1.68"/><rect class="cls-5" x="111.86" y="116.78" width="1.68" height="1.68"/><rect class="cls-5" x="108.49" y="116.78" width="1.68" height="1.68"/><rect class="cls-5" x="105.13" y="116.78" width="1.68" height="1.68"/><rect class="cls-5" x="101.75" y="116.78" width="1.68" height="1.68"/><path class="cls-5" d="M106.55,31.42,107.7,31a5.31,5.31,0,0,1,.56-.2l.55-.18.54-.18c.18-.06.36-.09.53-.14l1-.27c.33-.07.64-.11.94-.17a7.42,7.42,0,0,1,.86-.15l.76-.08a5.41,5.41,0,0,1,.65-.06c.79,0,1.25-.05,1.25-.05s-.45-.08-1.25-.19a6.14,6.14,0,0,0-.66,0l-.78,0c-.28,0-.58,0-.9,0s-.64,0-1,.08a18.08,18.08,0,0,0-2.2.4l-.58.14-.6.16-1.21.39c-.41.14-.82.31-1.23.48l-.62.25-.62.28-.62.29c-.2.09-.41.19-.61.3l-1.22.65-1.18.7-.59.35-.56.37-1.12.74-1.06.77c-.7.49-1.33,1-2,1.51s-1.17,1-1.69,1.42-1,.88-1.38,1.26-.74.72-1,1c-.57.56-.88.9-.88.9l1-.72,2.67-1.9,1.8-1.25,1-.67.51-.34.52-.35,1.08-.7,1.11-.69.57-.35.58-.34c.38-.22.76-.45,1.16-.67l1.17-.63c.39-.22.8-.4,1.19-.6l.59-.29c.19-.1.39-.18.59-.27Z"/><path class="cls-5" d="M86.52,47.55a.45.45,0,0,0,.31.13c.27,0,.57-.28.93-.64s.78-.8.59-1.18a.64.64,0,0,1,0-.07l-5-4.7h-.07a.39.39,0,0,0-.18,0c-.32,0-.62.33-1,.71s-.78.93-.43,1.26Z"/><path class="cls-5" d="M110.38,20a.56.56,0,0,0,.84,0l2.36-3,.28.26a.69.69,0,0,0,1-.05l2.42-2.57a.7.7,0,0,0,0-1,14.91,14.91,0,0,0-4-3.76.68.68,0,0,0-1,0l-2.42,2.57a.67.67,0,0,0,0,1l.28.27-2.81,2.54a.55.55,0,0,0,0,.83Z"/><path class="cls-5" d="M94.65,33.13c-.5.58-1,1.16-1.43,1.7S92.35,35.9,92,36.39c-.77,1-1.4,1.79-1.83,2.37s-.66.93-.66.93.32-.27.85-.75,1.3-1.18,2.19-2c.45-.43.93-.89,1.43-1.4s1-1,1.56-1.58,1.09-1.13,1.64-1.72,1.11-1.19,1.67-1.8l1.64-1.83c.54-.6,1.06-1.21,1.56-1.8s1-1.16,1.43-1.7l1.26-1.56c.77-1,1.39-1.79,1.82-2.37s.67-.93.67-.93l-.86.75c-.54.48-1.3,1.18-2.19,2-.44.43-.92.89-1.42,1.39s-1,1-1.57,1.59-1.08,1.12-1.64,1.72-1.11,1.19-1.66,1.8-1.11,1.22-1.64,1.83S95.15,32.54,94.65,33.13Z"/><path class="cls-5" d="M58.64,64.51a6.25,6.25,0,0,1,3.69,1.54l2.52,2.35a5.64,5.64,0,0,1,1.61,3.38,1.24,1.24,0,0,0,.1.47l0,0h5.35a15.42,15.42,0,0,0,1.16-2l2.56-6.82c.28-.62.53-1.27.78-1.93l.39-1a16.14,16.14,0,0,1,2.8-5.29l6.12-6.77,0,0L80.9,43.93l-6.47,6.59c-2,2.08-5.25,3-7.82,4.36L59.89,58a15.14,15.14,0,0,0-3.65,2.86L45.91,72.3h1.87l0,0L56.19,63a.21.21,0,0,1,.31,0l1.26,1.17A1.2,1.2,0,0,0,58.64,64.51Zm9.48-9.34,4.54-1.91a.36.36,0,0,1,.37.08l3.83,3.58a.36.36,0,0,1,.11.37l-1.66,4.6a.28.28,0,0,1-.32.17L68.71,62a.37.37,0,0,1-.31-.29L68,55.5A.28.28,0,0,1,68.12,55.17Z"/><path class="cls-5" d="M89.25,37.31c.32-.44.71-.94,1.09-1.51s.82-1.17,1.24-1.83.87-1.35,1.28-2.11l.64-1.13c.21-.39.41-.79.62-1.19l.31-.61c.09-.2.19-.41.28-.62.19-.41.39-.83.56-1.25s.35-.85.51-1.28c.09-.21.17-.43.24-.64s.15-.44.22-.65.14-.43.22-.64l.18-.65c.11-.43.24-.85.33-1.27s.18-.84.26-1.25c0-.2.07-.41.09-.61s.05-.4.08-.6a20,20,0,0,0,.16-2.23c0-.35,0-.68,0-1a8,8,0,0,0-.07-.89c0-.28-.07-.54-.11-.78a5.06,5.06,0,0,0-.12-.65c-.2-.78-.33-1.22-.33-1.22s0,.46.09,1.25a3.45,3.45,0,0,1,0,.65v.77a5.14,5.14,0,0,1,0,.86c0,.31,0,.63-.07,1s-.1.68-.15,1a5.07,5.07,0,0,1-.09.54c0,.19-.07.37-.11.56l-.12.57c0,.19-.08.38-.14.58-.11.38-.2.78-.31,1.18s-.25.81-.38,1.22c-.07.2-.13.41-.2.62l-.22.61c-.16.41-.29.83-.47,1.24s-.34.83-.5,1.24-.37.82-.54,1.23l-.27.61c-.1.2-.2.4-.29.6l-.57,1.19-.58,1.14-.28.56-.29.55c-.18.36-.37.71-.55,1.05l-1,1.92c-.67,1.19-1.22,2.18-1.6,2.87s-.6,1.1-.6,1.1l.79-1C88.61,38.13,88.92,37.76,89.25,37.31Z"/></g></g></svg>