<svg xmlns="http://www.w3.org/2000/svg" viewBox="0 0 182.2 146.62"><defs><style>.cls-1{fill:#fff;}.cls-2{fill:#324b56;}.cls-3{fill:#ff7d97;}</style></defs><title>Birthday 09</title><g id="Calque_2" data-name="Calque 2"><g id="Calque_1-2" data-name="Calque 1"><rect class="cls-1" x="173.2" y="53.7" width="7.1" height="4.4"/><rect class="cls-1" x="173.2" y="47.9" width="7.1" height="4.4"/><rect class="cls-1" x="173.2" y="42.2" width="7.1" height="4.4"/><rect class="cls-1" x="173.2" y="36.5" width="7.1" height="4.4"/><rect class="cls-1" x="173.2" y="30.7" width="7.1" height="4.4"/><path class="cls-1" d="M157.6,123.1a60.07,60.07,0,0,0-12.1-6.2c-4.8-1.6-5.1-.3-5.1-.3-.3,1.2-.7,2.2-1,3.3-31.9-12.5-64.4-15.5-95.6-.6a7.37,7.37,0,0,0-.4-1.4c0-.2-.1-.3-.1-.5a6.37,6.37,0,0,1-.2-.7s-.4-1.3-5.1.3a55.32,55.32,0,0,0-12.1,6.2s-7.2,4.7-10.4,4.2c.6.2,1.3.4,1.8.6h0c.2.1.4.1.6.2l.2.1h0A108.84,108.84,0,0,1,30,133a132.65,132.65,0,0,0-5.6,12.1c-.1.1-.1.2-.1.4s-.2.4-.2.6c2.5,1.7,9.9-3.4,9.9-3.4a8.34,8.34,0,0,1,1.2-.8v.4h.1l.2.4v.1h0c0,.1.1.2.1.3h0v.2a.35.35,0,0,0,.1.2c0,.1.1.1.1.2h0c.1.2.2.5.3.7a.1.1,0,0,0,.1.1c.2.4,1.4,1.9,7.1-1.6,31.9-19.3,65.3-14.2,98.2.5,0,0,4.8,1.9,5.7,1.1v0l.1-.1c.1-.4.3-.8.4-1.1a.37.37,0,0,0,.1-.3v-.1a3.55,3.55,0,0,1,.4-.9l1.2.9s7.5,5,10,3.4a.1.1,0,0,0-.1-.1c-.1-.2-.1-.3-.2-.5-1.7-4.3-3.6-8.4-5.7-12.5a119,119,0,0,1,11.7-4.7l.2-.1h0a1.42,1.42,0,0,1,.6-.2h.1c.6-.2,1.2-.4,1.9-.6C164.9,127.8,157.6,123.1,157.6,123.1Z"/><path class="cls-1" d="M23,79.6a6.34,6.34,0,0,0,.3-2.3,8,8,0,0,0-.7-3.4,6.77,6.77,0,0,0-2-2.4A8.92,8.92,0,0,0,17.5,70a17.37,17.37,0,0,0-3.9-.5H2.3V98.3H14a16.11,16.11,0,0,0,4.4-.6,10.62,10.62,0,0,0,3.3-1.8A8.64,8.64,0,0,0,23.8,93a9.86,9.86,0,0,0,.7-3.8,11.15,11.15,0,0,0-.5-3.1A11.25,11.25,0,0,0,22.8,84a12.88,12.88,0,0,0-1.7-1.6,6.89,6.89,0,0,0,1.1-1.3A10.93,10.93,0,0,0,23,79.6ZM11.2,76.2h1c1.4,0,2.2.7,2.2,2s-.7,2-2.2,2h-1Zm1,15.2h-1v-5h1c2.2,0,3.3.8,3.3,2.5s-1.1,2.5-3.3,2.5Z"/><rect class="cls-1" x="26.5" y="69.4" width="9.8" height="28.8"/><path class="cls-1" d="M60.1,86.8a11.88,11.88,0,0,0,1.3-2.5,11.48,11.48,0,0,0,.6-3.7,11.17,11.17,0,0,0-1-4.8,8.49,8.49,0,0,0-2.7-3.5,12.5,12.5,0,0,0-4.1-2.2,17.92,17.92,0,0,0-5.1-.7H39.2V98.2h9.2V90.9l4.3,7.3H63.5l-5.4-9.5A7.28,7.28,0,0,0,60.1,86.8Zm-8.4-4a4.52,4.52,0,0,1-2.8.7h-.5V77.1H49a5.55,5.55,0,0,1,2.8.7,3.18,3.18,0,0,1,.4,4.5,1.18,1.18,0,0,1-.5.5Z"/><polygon class="cls-1" points="77.3 98.2 77.3 77 82.6 77 82.6 69.4 62.5 69.4 62.5 77 67.8 77 67.8 98.2 77.3 98.2"/><polygon class="cls-1" points="107.6 98.2 107.6 69.4 98.4 69.4 98.4 79.2 93.3 79.2 93.3 69.4 84.1 69.4 84.1 98.2 93.3 98.2 93.3 87.6 98.4 87.6 98.4 98.2 107.6 98.2"/><path class="cls-1" d="M134.5,77.6a12.23,12.23,0,0,0-3.3-4.5,14,14,0,0,0-5.3-2.7,29.59,29.59,0,0,0-7.2-.9h-8V98.3h8a29,29,0,0,0,7.2-.9,14,14,0,0,0,5.3-2.7,11.21,11.21,0,0,0,3.3-4.5,17.14,17.14,0,0,0,0-12.6Zm-9.7,10.9a7.42,7.42,0,0,1-5,1.5V77.6a7.42,7.42,0,0,1,5,1.5,5.83,5.83,0,0,1,1.8,4.7A5.64,5.64,0,0,1,124.8,88.5Z"/><path class="cls-1" d="M143.5,95.6h8.7l1,2.6h9L151.3,69.4h-6.9L133.5,98.2h9.1Zm4.4-11.4,1.9,5h-3.9Z"/><polygon class="cls-1" points="173.2 98.2 173.2 85.8 182.2 69.4 171.9 69.4 168.7 75.5 165.3 69.4 155.1 69.4 164 85.8 164 98.2 173.2 98.2"/><path class="cls-2" d="M165.3,128.2l.2-.1-.2.1Z"/><rect class="cls-1" y="53.7" width="7.1" height="4.4"/><rect class="cls-1" y="47.9" width="7.1" height="4.4"/><rect class="cls-1" y="42.2" width="7.1" height="4.4"/><rect class="cls-1" y="36.5" width="7.1" height="4.4"/><rect class="cls-1" y="30.7" width="7.1" height="4.4"/><rect class="cls-1" y="25" width="7.1" height="4.4"/><rect class="cls-1" x="9.1" y="53.7" width="7.1" height="4.4"/><rect class="cls-1" x="9.1" y="47.9" width="7.1" height="4.4"/><rect class="cls-1" x="9.1" y="42.2" width="7.1" height="4.4"/><rect class="cls-1" x="9.1" y="36.5" width="7.1" height="4.4"/><rect class="cls-1" x="9.1" y="30.7" width="7.1" height="4.4"/><rect class="cls-1" x="9.1" y="25" width="7.1" height="4.4"/><rect class="cls-1" x="9.1" y="19.2" width="7.1" height="4.4"/><rect class="cls-1" x="9.1" y="13.5" width="7.1" height="4.4"/><rect class="cls-1" x="18.2" y="53.7" width="7.1" height="4.4"/><rect class="cls-1" x="18.2" y="47.9" width="7.1" height="4.4"/><rect class="cls-1" x="18.2" y="42.2" width="7.1" height="4.4"/><rect class="cls-1" x="18.2" y="36.5" width="7.1" height="4.4"/><rect class="cls-1" x="18.2" y="30.7" width="7.1" height="4.4"/><rect class="cls-1" x="18.2" y="25" width="7.1" height="4.4"/><rect class="cls-1" x="27.3" y="53.7" width="7.1" height="4.4"/><rect class="cls-1" x="27.3" y="47.9" width="7.1" height="4.4"/><rect class="cls-1" x="27.3" y="42.2" width="7.1" height="4.4"/><rect class="cls-1" x="27.3" y="36.5" width="7.1" height="4.4"/><rect class="cls-1" x="27.3" y="30.7" width="7.1" height="4.4"/><rect class="cls-1" x="36.5" y="53.7" width="7.1" height="4.4"/><rect class="cls-1" x="36.5" y="47.9" width="7.1" height="4.4"/><rect class="cls-1" x="36.5" y="42.2" width="7.1" height="4.4"/><rect class="cls-1" x="36.5" y="36.5" width="7.1" height="4.4"/><rect class="cls-1" x="45.6" y="53.7" width="7.1" height="4.4"/><rect class="cls-1" x="45.6" y="47.9" width="7.1" height="4.4"/><rect class="cls-1" x="45.6" y="42.2" width="7.1" height="4.4"/><rect class="cls-1" x="54.7" y="53.7" width="7.1" height="4.4"/><rect class="cls-1" x="54.7" y="47.9" width="7.1" height="4.4"/><rect class="cls-1" x="54.7" y="42.2" width="7.1" height="4.4"/><rect class="cls-1" x="54.7" y="36.5" width="7.1" height="4.4"/><rect class="cls-1" x="63.8" y="53.7" width="7.1" height="4.4"/><rect class="cls-1" x="63.8" y="47.9" width="7.1" height="4.4"/><rect class="cls-1" x="63.8" y="42.2" width="7.1" height="4.4"/><rect class="cls-1" x="72.9" y="53.7" width="7.1" height="4.4"/><rect class="cls-1" x="72.9" y="47.9" width="7.1" height="4.4"/><rect class="cls-1" x="72.9" y="42.2" width="7.1" height="4.4"/><rect class="cls-1" x="72.9" y="36.5" width="7.1" height="4.4"/><rect class="cls-1" x="82" y="53.7" width="7.1" height="4.4"/><rect class="cls-1" x="82" y="47.9" width="7.1" height="4.4"/><rect class="cls-1" x="82" y="42.2" width="7.1" height="4.4"/><rect class="cls-1" x="82" y="36.5" width="7.1" height="4.4"/><rect class="cls-1" x="27.3" y="14.7" width="7.1" height="2"/><rect class="cls-1" x="36.5" y="21.1" width="7.1" height="2"/><rect class="cls-1" x="45.6" y="30.7" width="7.1" height="2"/><rect class="cls-1" x="72.9" y="11.1" width="7.1" height="2"/><rect class="cls-1" x="164.1" y="53.7" width="7.1" height="4.4"/><rect class="cls-1" x="164.1" y="47.9" width="7.1" height="4.4"/><rect class="cls-1" x="164.1" y="42.2" width="7.1" height="4.4"/><rect class="cls-1" x="164.1" y="36.5" width="7.1" height="4.4"/><rect class="cls-1" x="164.1" y="30.7" width="7.1" height="4.4"/><rect class="cls-1" x="164.1" y="25" width="7.1" height="4.4"/><rect class="cls-1" x="155" y="53.7" width="7.1" height="4.4"/><rect class="cls-1" x="155" y="47.9" width="7.1" height="4.4"/><rect class="cls-1" x="155" y="42.2" width="7.1" height="4.4"/><rect class="cls-1" x="155" y="36.5" width="7.1" height="4.4"/><rect class="cls-1" x="155" y="30.7" width="7.1" height="4.4"/><rect class="cls-1" x="155" y="25" width="7.1" height="4.4"/><rect class="cls-1" x="155" y="18.9" width="7.1" height="4.4"/><rect class="cls-1" x="145.9" y="53.7" width="7.1" height="4.4"/><rect class="cls-1" x="145.9" y="47.9" width="7.1" height="4.4"/><rect class="cls-1" x="145.9" y="42.2" width="7.1" height="4.4"/><rect class="cls-1" x="145.9" y="36.5" width="7.1" height="4.4"/><rect class="cls-1" x="145.9" y="30.7" width="7.1" height="4.4"/><rect class="cls-1" x="136.8" y="53.7" width="7.1" height="4.4"/><rect class="cls-1" x="136.8" y="47.9" width="7.1" height="4.4"/><rect class="cls-1" x="136.8" y="42.2" width="7.1" height="4.4"/><rect class="cls-1" x="136.8" y="36.5" width="7.1" height="4.4"/><rect class="cls-1" x="127.7" y="53.7" width="7.1" height="4.4"/><rect class="cls-1" x="127.7" y="47.9" width="7.1" height="4.4"/><rect class="cls-1" x="127.7" y="42.2" width="7.1" height="4.4"/><rect class="cls-1" x="118.6" y="53.7" width="7.1" height="4.4"/><rect class="cls-1" x="118.6" y="47.9" width="7.1" height="4.4"/><rect class="cls-1" x="118.6" y="42.2" width="7.1" height="4.4"/><rect class="cls-1" x="118.6" y="36.5" width="7.1" height="4.4"/><rect class="cls-1" x="109.4" y="53.7" width="7.1" height="4.4"/><rect class="cls-1" x="109.4" y="47.9" width="7.1" height="4.4"/><rect class="cls-1" x="109.4" y="42.2" width="7.1" height="4.4"/><rect class="cls-1" x="100.3" y="53.7" width="7.1" height="4.4"/><rect class="cls-1" x="100.3" y="47.9" width="7.1" height="4.4"/><rect class="cls-1" x="100.3" y="42.2" width="7.1" height="4.4"/><rect class="cls-1" x="100.3" y="36.5" width="7.1" height="4.4"/><rect class="cls-1" x="91.2" y="53.7" width="7.1" height="4.4"/><rect class="cls-1" x="91.2" y="47.9" width="7.1" height="4.4"/><rect class="cls-1" x="91.2" y="42.2" width="7.1" height="4.4"/><rect class="cls-1" x="91.2" y="36.5" width="7.1" height="4.4"/><rect class="cls-1" x="91.2" y="30.7" width="7.1" height="4.4"/><rect class="cls-1" x="145.9" y="14.7" width="7.1" height="2"/><rect class="cls-1" x="136.8" y="21.1" width="7.1" height="2"/><rect class="cls-1" x="127.7" y="30.7" width="7.1" height="2"/><rect class="cls-1" x="100.3" y="11.1" width="7.1" height="2"/><rect class="cls-1" x="91.2" y="2.7" width="7.1" height="2"/><path class="cls-2" d="M1.1,62.6H180.5a1,1,0,0,0,.6-1.3.9.9,0,0,0-.6-.6H1.1A1,1,0,0,0,.5,62C.5,62.2.8,62.5,1.1,62.6Z"/><path class="cls-2" d="M53.2,106.9H1.1a1,1,0,0,0-.6,1.3.9.9,0,0,0,.6.6H53.2Z"/><path class="cls-2" d="M180.4,106.9H128.3v1.9h52.1a1,1,0,0,0,.6-1.3C181,107.3,180.7,107,180.4,106.9Z"/><path class="cls-2" d="M54.9,130.1h-.2l-.2.1-.1.1h-.1c-.3.1-.5-.1-.8-.6l-.9-2.1-.5-1.1-.5-1.2-.4-.9c-.2-.5-.2-.9.1-1h.1l.2-.1H52l.2-.1a.75.75,0,0,0,.5-.7c0-.1,0-.1-.1-.2-.2-.4-.5-.5-1.1-.3a.35.35,0,0,0-.2.1l-.4.2-.6.3-.3.4-.3.1c-.1,0-.2.1-.4.1s-.3.1-.4.1h-.1a.88.88,0,0,0-.5,1l.6,7.2-4.3-5.2h0l-.2-.3a1,1,0,0,0-1.2-.4l-.3.1-.4.2-.3.2-.3.1a1.42,1.42,0,0,1-.6.2l-.5.1h-.2a.85.85,0,0,0-.6,1,.57.57,0,0,0,.7.4c.1,0,.1,0,.2-.1l.2-.1.2-.1.2-.1a.1.1,0,0,0,.1-.1c.3-.1.5.1.8.6l2.2,5.3c.2.5.2.9-.1,1h-.1a.1.1,0,0,0-.1.1l-.2.1-.2.1a.78.78,0,0,0-.4.4.45.45,0,0,0,0,.5c.2.4.5.5,1.1.3h.2l.5-.3a3.55,3.55,0,0,1,.9-.4,1.42,1.42,0,0,1,.6-.2l.7-.2h.2l.1-.1c.5-.2.7-.5.5-.9s-.5-.5-1-.3l-.2.1c-.1.1-.2.1-.3.2s-.4-.1-.6-.7L44,127.9l2.4,2.9,2.4,2.8a1,1,0,0,0,.5.4,1.7,1.7,0,0,0,.7-.1,1,1,0,0,0,.5-.4,1.42,1.42,0,0,0,.2-.6l-.6-7.6.5,1.4c.1.2.1.4.2.6a1.42,1.42,0,0,1,.2.6,2.12,2.12,0,0,0,.3.7,1.69,1.69,0,0,1,.2.5l.3.9c.1.3.2.4.2.5.2.6.2.9,0,1h-.4l-.1.1c-.5.2-.7.5-.5.9s.5.5,1,.3c.2-.1.3-.1.5-.2a2.19,2.19,0,0,0,.5-.3l.6-.2.5-.2.6-.2a.37.37,0,0,0,.3-.1.6.6,0,0,1,.4-.1.66.66,0,0,0,.5-.4.64.64,0,0,0,0-.6.63.63,0,0,0-.8-.3C55,130.1,55,130.1,54.9,130.1Z"/><path class="cls-2" d="M64.7,127.7c0-.1,0-.1-.1-.2v-.2c0-.1-.1-.2-.1-.3l-.1-.2-.1-.2c0-.1-.1-.2-.1-.3v-.5a.49.49,0,0,0-.1-.3c0-.1,0-.1-.1-.2-.2-.6-.5-.8-1-.6s-.7.5-.5,1a.37.37,0,0,0,.1.3c0,.1.1.2.1.3v.2l.1.2v.2a1.1,1.1,0,0,1,0,.8,1.93,1.93,0,0,1-.9.5l-1.9.5a1.27,1.27,0,0,1-.6.1c-.1,0-.2-.2-.3-.5,0-.1,0-.1-.1-.2l-.1-.4c0-.1-.1-.2-.1-.3s0-.2-.1-.2l-.2-.9a.6.6,0,0,1-.1-.4c0-.1.1-.1.3-.2l.6-.2c.4-.1.6,0,.7.2h0v.9q.3.75.9.6a.66.66,0,0,0,.6-.7v-.2c0-.2-.1-.3-.2-.5l-.2-.4-.2-.6c0-.1-.1-.3-.1-.4a4.25,4.25,0,0,1-.2-1.1c0-.2-.1-.4-.1-.6a.37.37,0,0,0-.1-.3.64.64,0,0,0-.8-.6h-.2c-.4,0-.6.4-.6.8,0,.1,0,.1.1.2a.76.76,0,0,0,.2.5h0l.1.2c0,.1,0,.2.1.2.1.2-.1.4-.5.6l-.6.2h-.3l-.2-.4v-.5l-.3-.9a.78.78,0,0,1,.2-.8,4.51,4.51,0,0,1,1.1-.3,11.63,11.63,0,0,1,1.8-.4h0c.3,0,.5.4.7,1.1l.2.7c.2.6.5.8,1,.7a.66.66,0,0,0,.6-.7v-.2c0-.1-.1-.2-.1-.3l-.2-.3-.1-.2-.1-.4c0-.1-.1-.2-.1-.4s-.1-.3-.1-.4-.1-.4-.1-.5v-.2c-.2-.6-.6-.7-1.2-.6l-.2.1-.2.1h0l-.7.2-3.3,1c-.1.1-.2.1-.4.1l-.6.1-1.1.2h-.3c-.5.2-.8.5-.6.9,0,.2.2.3.3.4a.45.45,0,0,0,.5,0,.76.76,0,0,0,.4-.2c.1,0,.1-.1.2-.1.3-.1.5.1.7.7l1.6,5.5c.2.6.1.9-.2,1h-.3a.59.59,0,0,0-.5.7v.1a.68.68,0,0,0,1,.4h.2a24.13,24.13,0,0,1,2.5-.8l.8-.2.9-.2.6-.2.5-.1.4-.1c.2,0,.3-.1.5-.1h.5a1,1,0,0,0,.7-.9c0-.1,0-.1-.1-.2A.35.35,0,0,0,64.7,127.7Z"/><path class="cls-2" d="M74,121.4h-.2l-.2.1a7.37,7.37,0,0,1-1.4.4l-.6.1-.8.1h-.4c-.5.1-.8.4-.7.8s.4.6,1,.5h.6a.6.6,0,0,1,.4.1.76.76,0,0,1,.2.5,2.82,2.82,0,0,1-.2,1.8,1.6,1.6,0,0,1-1.4.8,2.31,2.31,0,0,1-2.2-.7,5,5,0,0,1-1.2-2.8,4.76,4.76,0,0,1,.2-2.9,2.6,2.6,0,0,1,1.8-1.4,2.19,2.19,0,0,1,1.6.2,1.44,1.44,0,0,1,.8,1.3l.1.4a.81.81,0,0,0,.9.8c.5,0,.7-.4.6-1v-.1a6.37,6.37,0,0,0-.2-.7c0-.1-.1-.3-.1-.4s-.1-.4-.1-.6v-1c-.1-.5-.4-.8-.9-.7a.65.65,0,0,0-.6.6v.2h0a3.32,3.32,0,0,0-2.4-.3,3.89,3.89,0,0,0-3,2.1,6.15,6.15,0,0,0-.5,4,4.79,4.79,0,0,0,.7,2,4.19,4.19,0,0,0,1.1,1.6,3.65,3.65,0,0,0,3.3.8,4,4,0,0,0,2.3-1.2l.1-.1h0c0,.4.3.6.7.6h.2a.56.56,0,0,0,.6-.7v-.4L74,126c0-.1-.1-.2-.1-.3s-.1-.3-.1-.4l-.2-1.1c-.2-.8-.1-1.2.2-1.3h.5a.55.55,0,0,0,.5-.3.44.44,0,0,0,.1-.5C74.8,121.5,74.5,121.3,74,121.4Z"/><path class="cls-2" d="M85.8,124.3h-.5c-.2,0-.3,0-.4-.2a2.51,2.51,0,0,1-.4-.7l-3.2-6.8a1,1,0,0,0-1.2-.6,1.17,1.17,0,0,0-1.1.8l-2,7.4a2.54,2.54,0,0,1-.2.7c-.1.1-.2.2-.3.2h-.3c-.5,0-.8.3-.7.8s.3.6.9.6h.3l.3-.1.6-.1H80c.6,0,.9-.3.8-.7a.69.69,0,0,0-.9-.6H78.8c-.2,0-.3-.1-.3-.2v-.2l.3-1.2a.52.52,0,0,1,.2-.4c.1-.1.1-.1.2-.1l2.5-.2h.2c.1,0,.1.1.1.2l.6,1.3h0v.1l.1.1v.1a.22.22,0,0,1-.2.2h-.8c-.6.1-.8.3-.8.8s.3.7.9.6h.6c.4-.1.7-.1,1-.2l.7-.1h1.8c.5,0,.8-.3.7-.8S86.3,124.2,85.8,124.3Zm-6.4-2.8a10.46,10.46,0,0,1,.4-1.7,12.44,12.44,0,0,0,.4-1.6l1.3,3.1h0Z"/><path class="cls-2" d="M94.9,124.4h-.6c-.2,0-.4-.1-.4-.2a7.39,7.39,0,0,1,0-2.1v-.5l.1-.1h1.6a4.35,4.35,0,0,0,2.9-.7,2.57,2.57,0,0,0,1-2.2,2.77,2.77,0,0,0-.1-.9,2,2,0,0,0-.4-.8c-.2-.2-.4-.5-.7-.6a3.55,3.55,0,0,0-.9-.4,8.75,8.75,0,0,0-1.6-.2H93.2a2.2,2.2,0,0,1-.8-.1l-.7-.1h-.2c-.6,0-.9.2-.9.7s.2.7.7.7h.6c.3,0,.5.3.5.9l-.2,5.7c0,.6-.2.8-.5.8h-.2c-.1,0-.3-.1-.4-.1a.68.68,0,0,0-.7.7c0,.5.3.7.9.7h.2l.8-.1h.8a2.77,2.77,0,0,1,.9.1l.7.1H95c.6,0,.9-.2.9-.7S95.4,124.4,94.9,124.4Zm-.9-6.6a2,2,0,0,1,.1-.7c.1-.2.7-.2,1.7-.2,1.4,0,2.1.6,2,1.7a1.32,1.32,0,0,1-1.1,1.4c-.2,0-.5.1-.8.1H94.2c-.2,0-.3-.1-.3-.2Z"/><path class="cls-2" d="M119.6,124.9a.57.57,0,0,0-.7.2.35.35,0,0,1-.1.2c0,.1-.1.2-.1.4v.2l-.1.3-.1.4q-.3,1.05-.6.9c-.2-.1-.3-.4-.2-.9v-.2l.1-.7a3.4,3.4,0,0,0,.1-1,1.7,1.7,0,0,0-.1-.7c0-.1-.1-.2-.2-.3l-.3-.3h.2c.1,0,.1,0,.2-.1a2,2,0,0,0,1.6-1.8q.6-2.55-2.7-3.3l-.5-.1-.5-.1-1.1-.2h-.1l-.4.2-.4-.1-.4-.1c-.1,0-.2-.1-.3-.1s-.2-.1-.3-.1l-.3-.1H112c-.6-.1-.9,0-1,.5a.9.9,0,0,0,.1.5c.1.2.2.3.4.3h.7q.45.15.3.9l-1.2,5.6c-.1.6-.3.8-.7.7H110a.52.52,0,0,0-.7.3c0-.3-.3-.5-.7-.6h-.5a.52.52,0,0,1-.4-.2c-.1-.3-.2-.5-.3-.8l-1.7-7.3a1,1,0,0,0-1-.8,1,1,0,0,0-1.2.6L100,124l-.3.6a.52.52,0,0,1-.4.2h-.5a.68.68,0,0,0-.9.6c-.1.5.2.7.7.8h2.6l.7.2h.3c.6.1.9-.1,1-.6s-.2-.7-.8-.8h-.8a.27.27,0,0,1-.3-.3c0-.1,0-.1.1-.2l.5-1.1a.76.76,0,0,0,.2-.4h.3l2.5.3c.1,0,.1,0,.2.1s.1.1.1.2l.3,1.4h0v.3a.22.22,0,0,1-.2.2h-.2l-.2-.1h-.4c-.6-.1-.9.1-1,.6s.2.7.7.8h2.3l.5.1a3.09,3.09,0,0,1,.8.2h.5a.67.67,0,0,0,.8-.3c0,.3.3.5.7.6a.37.37,0,0,0,.3.1h1.6l.3.1.4.1.7.3h.1c.6.1.9,0,1-.5a.68.68,0,0,0-.4-.8h-.2a.6.6,0,0,1-.4-.1h-.3c-.2,0-.3-.3-.3-.7h0a1,1,0,0,1,.1-.4,4.54,4.54,0,0,0,.2-.8l.2-1.1a.27.27,0,0,1,.3-.3l1.3.3a1.43,1.43,0,0,1,1.2.6c.2.2.2.6.1,1.1l-.1.3-.1.5-.1.4a1.74,1.74,0,0,0,1,2.2.75.75,0,0,0,.5.1,2.26,2.26,0,0,0,1.6-.2,2.22,2.22,0,0,0,.8-1.3v-.2l.1-.3v-.1c0-.1,0-.2.1-.2v-.3c0-.1,0-.1.1-.2v-.1C120,125.4,119.9,125,119.6,124.9Zm-16.8-3.4c.2-.5.5-1,.7-1.5s.5-1,.7-1.5l.7,3.3h0Zm13.3,1c-.3,0-.7-.1-1-.1l-1.3-.3c-.1,0-.1,0-.1-.1v-.1l.3-1.6v-.2c0-.1,0-.1.1-.2a.7.7,0,0,1,.4-.5,3.89,3.89,0,0,1,1.5.2c1.3.3,1.8.9,1.6,1.8a1.37,1.37,0,0,1-.8,1,1.48,1.48,0,0,1-.7.1Z"/><path class="cls-2" d="M129.7,122.1l-.4-.1-.5-.1-.9-.2-.5-.2-.4-.1-.3-.1-.2-.1c-.3-.1-.5-.2-.8-.3l-.8-.2-.6-.2-.4-.1h-.1l-.6-.2-.3-.1a.66.66,0,0,0-.9.3c0,.1-.1.1-.1.2v.2l-.1.4c0,.1-.1.3-.1.4s-.1.2-.1.3a2.71,2.71,0,0,1-.3.8l-.1.1v.1c0,.1-.1.1-.1.2l-.1.2a.67.67,0,0,0,.5,1c.5.1.9-.1,1.1-.8l.1-.2v-.2l.1-.5v-.2a.37.37,0,0,1,.1-.3.76.76,0,0,1,.8-.6c.1,0,.1,0,.2.1l.4.1a.76.76,0,0,1,.6.8c0,.1,0,.1-.1.2l-.7,2.2-.4,1.2-.4,1.2-.3.9c-.2.6-.4.8-.7.7h-.1l-.2-.1-.2-.1h-.1a.55.55,0,0,0-.8.3.1.1,0,0,1-.1.1.71.71,0,0,0,.6.9h.2l.7.1.4.1.5.1.4.1.4.2.7.3h.2c.6.2.9,0,1-.4a.9.9,0,0,0-.1-.5c-.1-.2-.2-.3-.4-.3h-.1l-.2-.1h-.2c-.3-.1-.4-.4-.2-1l1.5-4.6.3-.9a1,1,0,0,1,.4-.5.64.64,0,0,1,.6,0l.4.1c.6.2.8.5.6,1,0,.1-.1.2-.1.3l-.1.4c-.1.2-.2.5-.3.7a.76.76,0,0,0,.5,1.1.66.66,0,0,0,.9-.3c0-.1,0-.1.1-.2s.1-.2.1-.3a4.33,4.33,0,0,0,.1-.5c0-.2.1-.3.1-.4a.35.35,0,0,1,.1-.2v-.1c.1-.3.2-.5.3-.8s.2-.4.2-.5C130.5,122.6,130.3,122.3,129.7,122.1Z"/><path class="cls-2" d="M141.4,126.8c-.2-.1-.3-.1-.5-.2s-.5-.1-.7-.2-.4-.1-.6-.2l-.6-.3a2.09,2.09,0,0,1-.6-.4.31.31,0,0,0-.2-.1l-.2-.1c-.5-.2-.8-.1-1,.3s0,.8.5,1h.4l.4.1.2.1h0c-.6.4-1.1.8-1.6,1.1l-1.6,1.1-.5-3.8h0l.2.1.3.1.1.1c.6.2,1,.2,1.1-.2a.78.78,0,0,0-.5-1c-.2-.1-.3-.1-.5-.2a5.64,5.64,0,0,1-1.2-.4l-.5-.3-.6-.3-.3-.2a.37.37,0,0,0-.3-.1c-.5-.2-.8-.1-1,.3s0,.8.6,1h.2l.1.1.2.1.3.3.1.5h0c.1.8.3,1.7.4,2.5s.3,1.7.4,2.5c0,.1,0,.1-.1.2s0,.1-.1.2l-.1.2-.3.7a.76.76,0,0,1-.2.4l-.3.3c-.1.1-.2.1-.4,0l-.1-.1-.2-.1-.2-.1-.1-.1a.52.52,0,0,0-.8.2.35.35,0,0,0-.1.2c-.2.4,0,.8.5,1h.2l.7.2.4.1.4.1.4.2c.1.1.2.1.4.2l.7.4.1.1h.1c.5.2.9.1,1.1-.3a.54.54,0,0,0-.2-.8.31.31,0,0,1-.2-.1l-.4-.1-.2-.1-.1-.1c-.2-.1-.3-.2-.3-.4h0a1.42,1.42,0,0,1,.2-.6c.1-.3.2-.6.4-1.1l.2-.5,2.1-1.4,2.1-1.4h0l.3-.2a.75.75,0,0,1,.5-.1l.1.1h.2c.1.1.2.1.3.2.5.2.8.1,1-.3S141.9,127.1,141.4,126.8Z"/><rect class="cls-3" y="17.9" width="7.1" height="2"/><rect class="cls-3" x="9.1" width="7.1" height="2"/><rect class="cls-3" x="18.2" y="8.9" width="7.1" height="2"/><rect class="cls-3" x="54.7" y="26.2" width="7.1" height="2"/><rect class="cls-3" x="63.8" y="21.8" width="7.1" height="2"/><rect class="cls-3" x="82" y="20.9" width="7.1" height="2"/><rect class="cls-3" x="173.2" y="21.9" width="7.1" height="2"/><rect class="cls-3" x="164.1" y="12.1" width="7.1" height="2"/><rect class="cls-3" x="155" y="2.9" width="7.1" height="2"/><rect class="cls-3" x="118.6" y="26.2" width="7.1" height="2"/><rect class="cls-3" x="109.4" y="15.7" width="7.1" height="2"/></g></g></svg>