<svg xmlns="http://www.w3.org/2000/svg" viewBox="0 0 188.02 114.72"><defs><style>.cls-1{fill:#ff7d97;}.cls-2{fill:none;}.cls-3{fill:#fff;}.cls-4{fill:#324b56;}</style></defs><title>Birthday 03</title><g id="Calque_2" data-name="Calque 2"><g id="Calque_1-2" data-name="Calque 1"><path class="cls-1" d="M146.1,47.1h-1.2l-.4,3.3a12.86,12.86,0,0,1,1.9-.4,10.87,10.87,0,0,1,1.8.1l-.8-3.2A5.85,5.85,0,0,1,146.1,47.1Z"/><path class="cls-1" d="M159.8,14.4a2,2,0,0,0-.4-.8c-.2-.2-.2-.5-.4-.8-3.3-6.7-9.2-11.2-15.8-11.2a4.87,4.87,0,0,0-1.2.1c-4.7.4-8.9,3-11.9,7.4a24.39,24.39,0,0,0-3.8,16c.9,10.8,8.2,19.6,16.9,20.5a12.19,12.19,0,0,0,2.7,0,16.34,16.34,0,0,0,5.7-1.7,6.6,6.6,0,0,1-.1-1.4,28.1,28.1,0,0,1-.1-2.9,30.15,30.15,0,0,1-7.7,2h-.1a.85.85,0,0,1-.8-.7h0a1,1,0,0,1,.7-.9h0c1.8-.2,6.5-1.2,8-2.3a16.47,16.47,0,0,1,.6-3.2c.1-.3.1-.5.2-.8a27.24,27.24,0,0,1,4.5-9.4l.6-.7.5-.6a16.73,16.73,0,0,1,3.4-3.1A23.38,23.38,0,0,0,159.8,14.4ZM142.6,6.7c-7.1.6-12.4,5.2-11.7,14.3a1,1,0,0,1-.7.9h-.1a.77.77,0,0,1-.8-.7c-.9-9.9,5.1-15.3,13.1-16a1,1,0,0,1,.9.7.71.71,0,0,1-.7.8Z"/><path class="cls-2" d="M176.2,50.5a.6.6,0,0,0-.1-.4A.6.6,0,0,1,176.2,50.5Z"/><path class="cls-2" d="M2.2,53.1a2.67,2.67,0,0,0,2.5,2.8h.7c3.5-.5,7-6.4,8.1-12.3C9.4,45.6,2.2,48,2.2,53.1Z"/><path class="cls-2" d="M59.8,31.8c-.2-1-.5-1.9-1.3-1.8-1.3.2-2.4,2.5-3.2,5.3a58.82,58.82,0,0,0-1.6,7,6.54,6.54,0,0,0,4.5,1.6C60.1,40.3,60.4,35.3,59.8,31.8Z"/><path class="cls-2" d="M57.2,45.2a8.21,8.21,0,0,1-3.8-1.3,5.16,5.16,0,0,1-.2,1.1C53.8,47.2,55.8,46.8,57.2,45.2Z"/><path class="cls-2" d="M116.4,72.6c-.9-.3-2.1,2.3-2.7,5.8s-.4,6.6.4,7,2.1-2.2,2.7-5.8S117.3,73,116.4,72.6Z"/><path class="cls-2" d="M100.6,74.3c-.9-.3-2.1,2.3-2.7,5.8s-.4,6.6.4,7,2.1-2.2,2.7-5.8S101.5,74.7,100.6,74.3Z"/><path class="cls-2" d="M73.7,42.9a7.33,7.33,0,0,1-3.8-1.4,3.55,3.55,0,0,1-.2,1C70.2,44.9,72.3,44.5,73.7,42.9Z"/><path class="cls-2" d="M35.7,62.5A7.34,7.34,0,0,0,34.2,66c-.6,2.5-1.6,8-2.9,13.5a9.94,9.94,0,0,0,6.5-8A11.26,11.26,0,0,0,35.7,62.5Z"/><path class="cls-2" d="M78.5,52A6.32,6.32,0,0,0,77,55.9a3.26,3.26,0,0,0,2.9,3.6,4.1,4.1,0,0,0,1.1-.1c4.9-.7,6.9-6.1,8-11.6A12.28,12.28,0,0,0,78.5,52Z"/><path class="cls-2" d="M76.3,29.5c-.2-1-.5-1.9-1.3-1.8-1.3.2-2.4,2.5-3.2,5.3a54.66,54.66,0,0,0-1.6,7,6.54,6.54,0,0,0,4.5,1.6C76.6,38,76.9,33,76.3,29.5Z"/><path class="cls-3" d="M36.1,79.5a10.58,10.58,0,0,0,6.1-9.7C42.3,60.2,34,53.5,20.7,57,6.9,60.6,2,80.9,9.8,88.3c6.5,6.2,13.8,1.2,14-3.1.2-3-2.2-2.3-2.2-2.3s-2,7-8.3.7S9.8,61.1,22.7,58.9c5.6-1,9.8.4,12.3,3h0a9.08,9.08,0,0,0-4.6,3.8C27.1,71.2,27.4,89,20.3,97h0l-.2.2a.92.92,0,0,0-.1,1,1.83,1.83,0,0,0,1,.7c.3.1.7.2,1,.3a1,1,0,0,0,1-.2l.5-.5A26.68,26.68,0,0,0,28,91.1a57.55,57.55,0,0,0,2.8-9.2c1.5-.1,6,0,7.6,4.8,1.9,5.8-1.8,13.2-7.3,13.8a4.48,4.48,0,0,0-1.1.1,19.14,19.14,0,0,1-7.9-1L18,98.2c-4-1.5-7.8-2.9-11.2-2.1-6.6,1.5-4.2,9.6,6.9,7.6,1-.2,1.9-.4,2.9-.7h.1l.3-.1a.76.76,0,0,0,.4-.2.76.76,0,0,0,.4-.2c.4-.2.6-1-.5-1.4a5.26,5.26,0,0,0-3.9,0h-.2c-3.8,1.2-7.3,0-7.6-1.6-.4-2,3.7-1.6,10,.4,1.3.4,4.5,1.4,4.6,1.5a24.18,24.18,0,0,0,11.6,1.4,17.51,17.51,0,0,0,5.3-1.8,12.54,12.54,0,0,0,6.8-8.4C45.4,85.1,40.5,80.3,36.1,79.5Zm-4.9,0c1.2-5.5,2.2-11,2.9-13.5a10.39,10.39,0,0,1,1.5-3.4,10.6,10.6,0,0,1,2.1,8.9,10.08,10.08,0,0,1-6.5,8Z"/><path class="cls-3" d="M134.1,89.2V89c.8-5.7,1.8-13.8,2.8-18.1.4-1.6-3.2-2.7-3.8-.5s-1,5-1.5,8c-.4,1.9-1.8,4-2.7,4-2.1.2.5-10,.8-11,.3-1.6-3-2.6-3.8-.5a37.06,37.06,0,0,0-1.7,8.8c-.7,1.4-1.7,3.3-2.5,3.4-2.1.2.6-10.1.8-11,.3-1.6-3-2.6-3.8-.5-.2.7-.4,1.3-.6,2,.1-1.7-.8-3.7-2.9-3.5-2.6.2-5.1,3-5.9,9a9.7,9.7,0,0,0-.1,1.7c-.6,1.4-2.3,3.9-3.2,4-.7.1-.8-1.2-.6-3.5a120.56,120.56,0,0,1,2.9-18c.4-1.6-3.2-2.7-3.8-.5-.8,3-1.6,7.8-2.2,11.2a2.56,2.56,0,0,0-2.8-2.2c-2.6.2-5.1,3-5.9,9a12.1,12.1,0,0,0-.1,1.9c-.6,1.4-2.1,4.6-3.1,4.7-1.5.1-.5-5.5.1-8.8.3-2.1-.5-5-2.8-4.8-1.8.2-3.3,2.5-4.4,5.1.3-2.2.6-4.6,1-6.7a5.76,5.76,0,0,0,4.8-6c0-1.6-1.5-4-3.8-3.8s-3.3,2.2-3.8,4.5a.37.37,0,0,1-.1.3h0v.4h0v.3h0a1.08,1.08,0,0,0,.2.8,1.78,1.78,0,0,0,1,.4h0a4.3,4.3,0,0,0,1.6,0,1.42,1.42,0,0,0,.6-.2h0a2.09,2.09,0,0,0,.4-.6v-.1c0-.2.1-.3.1-.5.3-1.4.8-2.5,1.5-2.6.4,0,.6.6.6,1A3.46,3.46,0,0,1,85,69.7h0a12.8,12.8,0,0,1-3.9.2c-.5,0-1-.1-1.6-.1h0a18.43,18.43,0,0,1-5.2-1h0l-.9-.3-.8-.5a12.62,12.62,0,0,1-1.6-.7l-.1-.1-.4-.2-.2-.1h0c-2.5-1.2-5-3-5.3-5.4a2.12,2.12,0,0,1,1.7-2.6,1.1,1.1,0,0,1,.8,0c2.5,0,4.3,2.5,3.8,6.9v.1a.91.91,0,0,0,.4.8,6.78,6.78,0,0,0,2,1.1.86.86,0,0,0,.7-.6h0c1.3-7.2-2.3-10.7-6.4-11h-.5a4.39,4.39,0,0,0-2.7.9,4.32,4.32,0,0,0-1.5,4.1,6.31,6.31,0,0,0,.8,2.3h0a14.51,14.51,0,0,0,6.3,6.2h0c-.2,1.3-.3,1.7-.7,3.8-.7.1-2.1.3-2.3.3-1,.2-1.9,2.3-.8,2.4.3,0,1.8-.2,2.6-.2-.1.8-.7,4-.8,4.7-.2,1.6-.5,3.3-.7,4.9C67,87,65,89.9,64,89.9c-2.2.2.4-10.5.6-11.4.3-1.3-1.9-2.3-3.2-1.4a9.2,9.2,0,0,1-2.8,1.4c.7-2.9.9-4,.6-5.7-.2-1.2-.9-2.1-1.6-2-1.4.1-3.1,2.9-2.6,5.8a6.17,6.17,0,0,0,1.6,3.1,23.11,23.11,0,0,1-1.2,5.2h0c-1.9,5.3-3.5,8-4.6,8.1-.4,0-.9-.1-.9-1.4,0-3.2.7-6.5,1.9-12.1,0-.1.1-.7.1-.9s-.2-1.1-1.6-1c-1.2,0-1.6.2-2.1,1.6a57.31,57.31,0,0,0-2,12.4c0,3,.8,5.1,3.1,4.8,3.6-.5,5-5.7,7-10.9h0c.5-1.3,1.1-3.1,1.6-4.9a2.77,2.77,0,0,0,.9.1,6.28,6.28,0,0,0,1.9-.3c-.8,3.2-2.1,8.5-1.6,11.6a3.21,3.21,0,0,0,3,2.8c2.2-.2,4.1-3.3,5.3-5.8a4.87,4.87,0,0,0,.1,1.2,4.05,4.05,0,0,0,3.7,3.6c3.9,0,6-6.9,6.7-8.4a.66.66,0,0,0-.1-.6.45.45,0,0,0-.6-.3c-.1,0-.2.1-.3.2-.7,1.4-2.9,4-4.4,4s-1.7-3.3-1.3-6.5c.2-1.2.9-5.2,1-6.4,1,0,2-.2,3-.3.9-.5,1.4-2.8.5-2.6a28,28,0,0,0-3,.4c.2-1.3.3-1.5.4-2.1a22.09,22.09,0,0,0,7.2,1.1h0c-1.2,7.2-2.4,16.3-2.1,17.9.4,2.4,3.7,3.1,3.7,1.4,0-1,.1-3.1.4-5.8v.1c.3-3,2.3-7.4,3.4-7.5.5,0,.4,1.6.3,2.4-.4,2.9-1,6.3-.7,8.7a2.94,2.94,0,0,0,2.9,2.7c2.4-.2,4.2-4.3,5.1-6.8.4,3.2,2,5,3.8,4.8s3.2-1.9,3.8-3.4v.4c.3,1.6,1.4,2.7,2.7,2.6,2.2-.2,4.2-3.7,5.3-6.1.4,3.2,1.9,5,3.8,4.8s3.2-1.9,3.9-3.5c0,.2.1.3.1.4.2,1.7,1,2.7,2.3,2.5,1.9-.2,3.7-2.7,4.8-5,0,.6.1,1.2.1,1.8.2,1.7,1,2.7,2.3,2.5,1.7-.1,3.3-1.8,4.4-3.7a52,52,0,0,0-.6,5.2l-.5.1c-5.3.5-11.1,5.9-16.8,6.4-4.2.4-5.1-1.1-5.4-1.9a.75.75,0,0,0-.9-.4.66.66,0,0,0-.4.5c-.3.9,1.8,6.8,8.1,6.2,5.3-.5,10.3-7.1,15.6-8.1-.1,4.1,1.2,6.9,4.4,6.7a3.54,3.54,0,0,0,3.4-3.6,2,2,0,0,0-.1-.7A5.1,5.1,0,0,0,134.1,89.2Zm-33-7.9c-.6,3.5-1.8,6.1-2.7,5.8s-1.1-3.4-.4-7,1.8-6.1,2.7-5.8,1,3.5.4,7Zm15.8-1.7c-.6,3.5-1.8,6.1-2.7,5.8s-1.1-3.5-.4-7,1.8-6.1,2.7-5.8,1,3.5.4,7ZM135,96.3c-1.7.2-1.5-2.2-1.2-4.7a3.26,3.26,0,0,1,2.4,2.4C136.4,95.1,135.9,96.2,135,96.3Z"/><path class="cls-3" d="M48.7,47.5,46.8,59.9c0,1.4,1.1,2,2.6,1.8,1.2-.2,1.6-2.3,1.8-3.8l1.7-10.6a2.5,2.5,0,0,0,2.7,1.6c1.6-.2,3.8-1.9,5.4-4.2a12.35,12.35,0,0,0,4.7-3.5h0L63.3,56.8a3,3,0,0,1,.8-.8,3.77,3.77,0,0,1,2.7-.8h.9l1.6-10.1a2.56,2.56,0,0,0,2.8,1.6c1.6-.2,3.8-1.9,5.4-4.2a11.34,11.34,0,0,0,4.3-3.1c-.3,3.1.9,5.9,4.2,5.4,1.6-.2,3.1-2.2,4.1-4.4l-.6,4.5c-.1.5-.2,1.1-.3,1.7-4,.2-8.6,1.6-11.4,5a8.91,8.91,0,0,0-2.4,5.8,4.68,4.68,0,0,0,4.4,4.9,4.87,4.87,0,0,0,1.2-.1c6.2-.9,10-6.8,11.8-13.1,3.4,1.2,6.6,2.8,10.3,2.3,2.5-.3,5-3.4,5-6,0-1.1-.4-1.2-.4-1.2l-.3.3c-1.6,1.6-2.8,2.6-4.9,2.9-3,.4-6.6-.4-9-.6a19.14,19.14,0,0,0,.4-2.1l2.6-17.1c.2-1.1.5-2.8,0-3.7-.3-.6-1-1-2.3-.8a1.8,1.8,0,0,0-1.5,1.5l-1.8,12c-1,2.9-2.4,5.7-3.8,5.9-.9.1-1.1-1.5-1-2.7l1.7-11.1a6.92,6.92,0,0,0,0-3.5c-.3-.6-1-1-2.3-.8A2.21,2.21,0,0,0,84,26l-.7,4.5L82.2,38h0a9.48,9.48,0,0,1-3.5,3.1,17.88,17.88,0,0,0,2.3-12,4.11,4.11,0,0,0-4.8-3.4H76c-2.1.3-3.6,3.6-4.6,7.2l.3-1.8c.2-1.1.5-2.8,0-3.7-.3-.6-1-1-2.3-.8a2.07,2.07,0,0,0-1.5,1.5L66,39.4h0A9.68,9.68,0,0,1,62.1,43c2-3.7,3.1-8.2,2.2-12a4.07,4.07,0,0,0-4.7-3.4.37.37,0,0,0-.3.1c-2.1.3-3.5,3.6-4.6,7.2l.3-1.8c.2-1.1.5-2.8,0-3.7-.3-.6-1-1-2.3-.8a2.25,2.25,0,0,0-1.5,1.5l-2,13c-1,3.3-2.5,7-3.9,7.2s-.9-2.8-.8-3.8l1-6.2c.9-2.6,2.3-6.1,1.8-8.7-.3-1.5-1.4-2.1-3.2-1.9a2.21,2.21,0,0,0-1.5,1.6L42.2,35c-.8,5-2.5,13.7-5.4,14.2S35.4,34,40.3,33.3c1.2-.2,1.1.7,1.5.6.2,0,.3-.4.3-.8a2.51,2.51,0,0,0-2.4-2.7,1.7,1.7,0,0,0-.7.1c-4.8.7-8.4,10.2-7.8,16.3-.7,2-1.5,3.5-2.5,3.6-.8.1-1.1-1.5-1-2.7l2.6-17a21.27,21.27,0,0,0,1.8-7c.4-2.5-.8-3.8-3.2-3.4a1.93,1.93,0,0,0-1.5,1.5l-2,13c-2.7,1.9-4.9,3.4-7.2,4.7l1.8-12c.5-3.5-1-4.7-3.1-4.4a11.08,11.08,0,0,0-6.2,3.7C7.9,29.9,5.9,35.3,7.2,39A3.24,3.24,0,0,0,11,41.2c.2,0,.4-.2.3-.4s0-.1-.1-.2c-3.1-5.3,1.3-14.6,3.9-15,.5-.1.8.3.8.9a7.61,7.61,0,0,1-.3,2.1l-2,13.2C8.6,44.5,0,47,0,53.8c0,2.9,2.2,4.8,5.3,4.4,7.9-1.1,11.4-10.3,12.6-16.9,2.4-1.3,4.6-2.6,7.1-4.1l-1.4,9.5c-.5,3.3.6,6.6,4.2,6.1,1.7-.2,2.8-2.1,3.7-4.4.6,2.2,2.1,3.6,4.6,3.2,1.8-.2,3.5-2.6,4.5-5.2v.2c-.5,3.3.6,6.6,4.2,6.1C46.2,52.5,47.6,50.2,48.7,47.5ZM81,59.5A3.23,3.23,0,0,1,77.1,57a3.75,3.75,0,0,1-.1-1.1A6.1,6.1,0,0,1,78.5,52,12.28,12.28,0,0,1,89,47.8c-1.1,5.5-3.1,11-8,11.7ZM71.7,33c.9-2.8,2-5.1,3.2-5.3.8-.1,1.1.8,1.3,1.8.6,3.5.3,8.5-1.7,12.1A6.9,6.9,0,0,1,70,40C70.5,37.6,71.1,35.3,71.7,33Zm-1.8,8.6A7.67,7.67,0,0,0,73.7,43c-1.4,1.6-3.4,2-4-.3.1-.4.1-.8.2-1.1ZM55.3,35.3c.9-2.8,1.9-5.1,3.2-5.3.7-.1,1.1.8,1.3,1.8.6,3.5.3,8.5-1.7,12.1a6.4,6.4,0,0,1-4.5-1.6C54.1,40,54.6,37.6,55.3,35.3Zm-1.9,8.6a6.46,6.46,0,0,0,3.8,1.3c-1.4,1.6-3.4,2-4-.3A3.55,3.55,0,0,0,53.4,43.9ZM5.3,55.8a2.62,2.62,0,0,1-3.1-2c0-.2-.1-.5,0-.7,0-5.1,7.3-7.5,11.2-9.6C12.3,49.4,8.8,55.3,5.3,55.8Z"/><path class="cls-3" d="M47.5,70.5l-.1.3a3.5,3.5,0,0,0,.6,2.6,2,2,0,0,0,.9.9,3.84,3.84,0,0,0,3.6.2,4.28,4.28,0,0,0,1.6-1.4,7,7,0,0,0,.9-4c-.5-5.5,0-5.1.3-5.8C55.3,63.2,48.7,65.9,47.5,70.5Z"/><path class="cls-4" d="M162.1,63.7l.6.2c-2.9,17.9,11.6,43.2-12.6,49a.94.94,0,0,0,.5,1.8c8.5-2.1,14.6-8.3,15.9-17.1,1.6-11.2-4.5-22.4-2.3-33.2-.2-.1-.3-.2-.5-.2Z"/><path class="cls-4" d="M186,26.2c-2.2-5-6-8.4-10.7-9.6a14.35,14.35,0,0,0-2.2-.4,16.4,16.4,0,0,0-10.4,2.6,29.94,29.94,0,0,0-1.8-5.8,3,3,0,0,0-.4-.8h0c-.1-.3-.3-.5-.4-.8C156.6,4.6,150.2,0,143.3,0a7.08,7.08,0,0,0-1.4.1,17.94,17.94,0,0,0-13,8.1,26.08,26.08,0,0,0-4.1,17c1,11.7,8.8,20.9,18.4,21.9h.2l-.7,5.6,1.2-.4c.4-.1,1-.3,1.5-.4a10.68,10.68,0,0,0-.3,2.5,10.46,10.46,0,0,0,2.6,7c3.8,4.6,2.9,13.8.6,18l1.4.8c2.6-4.6,3.6-14.6-.7-19.8a9.11,9.11,0,0,1-1.8-8.8,16.35,16.35,0,0,1,2.2.2l1.2.2-1.4-5.4c1-.3,2-.7,3-1.1.2.9.4,1.7.6,2.5a17.06,17.06,0,0,0,1.7,3.9c.1.2.3.5.4.7l.4.7a15.49,15.49,0,0,0,6.4,5.5h.1l-2.3,4.7h1.2l1.6.1,1.6.4c.1.1.3.1.5.2l.5.3h.1l.5.2,1.1.5L167,60c8.8.6,17.5-6.9,20.2-17.5A25.42,25.42,0,0,0,186,26.2ZM146.4,50a12.86,12.86,0,0,0-1.9.4l.4-3.3h1.2a5.85,5.85,0,0,0,1.3-.2l.8,3.2C147.7,50.1,147,50,146.4,50Zm6-16.4c-.1.3-.1.5-.2.8-.2,1.1-.4,2.1-.6,3.2,0,.4-.1,1-.1,1.9a28.1,28.1,0,0,0,.1,2.9c0,.5.1.9.1,1.4a14.12,14.12,0,0,1-5.7,1.8,12.19,12.19,0,0,1-2.7,0c-8.7-.9-16-9.7-16.9-20.5a25,25,0,0,1,3.8-16c3-4.4,7.2-7,11.9-7.4.4,0,.8-.1,1.2-.1,6.6,0,12.5,4.5,15.8,11.2.1.3.3.5.4.8a2,2,0,0,0,.4.8,23.93,23.93,0,0,1,1.5,5.4,19.86,19.86,0,0,0-3.4,3.1l-.5.6-.6.7a29.08,29.08,0,0,0-4.5,9.4Zm11-10a10.7,10.7,0,0,0-1.6,1.4c-2.4,2.4-4.3,5.9-5.5,10.8-.1.6-.6,1-1,.9h-.1a1.21,1.21,0,0,1-.5-.5.64.64,0,0,1,0-.6,8.33,8.33,0,0,1,.4-1.5c1.5-5.2,3.8-8.9,6.6-11.3a14.31,14.31,0,0,1,1.5-1.1,13.35,13.35,0,0,1,10.3-2,.89.89,0,0,1,.5,1.2,1.06,1.06,0,0,1-1,.9,10.66,10.66,0,0,0-9.6,1.8Zm12.8,27.1a5.93,5.93,0,0,1-3.5,3.9c-.4.2-.9.3-1.4.5a9.25,9.25,0,0,1-2.9.2h-.1c-.3,0-.5-.1-.8-.1a1.85,1.85,0,0,1-.7-.2,1,1,0,0,1-.5-.4,1.27,1.27,0,0,1-.1-.6.35.35,0,0,1,.1-.2.76.76,0,0,1,.9-.3,8.14,8.14,0,0,0,4.1,0c.2-.1.5-.1.7-.2l.1-.1a4.37,4.37,0,0,0,2.5-2.8c0-.1.1-.2.1-.3a.71.71,0,0,1,.6-.3h.2c.1,0,.2.1.3.1s.2.1.2.2a.6.6,0,0,1,.1.4c.1.1.1.1.1.2Z"/><path class="cls-3" d="M176.1,50.1a.22.22,0,0,0-.2-.2.37.37,0,0,0-.3-.1h-.2a.71.71,0,0,0-.6.3.37.37,0,0,0-.1.3,4.62,4.62,0,0,1-2.5,2.8l-.1.1a1.85,1.85,0,0,1-.7.2,7.15,7.15,0,0,1-4.1,0,.81.81,0,0,0-.9.3.35.35,0,0,1-.1.2.66.66,0,0,0,.1.6,1,1,0,0,0,.5.4c.2.1.5.1.7.2a2.2,2.2,0,0,0,.8.1h.1a9.47,9.47,0,0,0,2.9-.2,7.84,7.84,0,0,0,1.4-.5,5.93,5.93,0,0,0,3.5-3.9v-.2C176.2,50.4,176.2,50.2,176.1,50.1Z"/><path class="cls-3" d="M173,21.5a1.06,1.06,0,0,0,1-.9c.1-.6-.1-1.1-.5-1.2a13.35,13.35,0,0,0-10.3,2,14.31,14.31,0,0,0-1.5,1.1c-2.8,2.4-5.1,6.2-6.6,11.3-.1.5-.3,1-.4,1.5a.64.64,0,0,0,0,.6.82.82,0,0,0,.5.5h.1c.4.1.9-.3,1-.9,1.2-4.9,3.1-8.5,5.5-10.8.5-.5,1-.9,1.6-1.4A12.35,12.35,0,0,1,173,21.5Z"/><path class="cls-3" d="M143.3,5.8a.75.75,0,0,0-.9-.7c-8,.7-14,6.1-13.1,16a.77.77,0,0,0,.8.7h.1a.71.71,0,0,0,.7-.8h0c-.8-9,4.6-13.7,11.7-14.3a.75.75,0,0,0,.7-.9Z"/><path class="cls-3" d="M142.9,40.8h0a.85.85,0,0,0,.8.7h.1a30.15,30.15,0,0,0,7.7-2,15.77,15.77,0,0,0,.1-1.9c-1.5,1.1-6.2,2.1-8,2.3a.81.81,0,0,0-.7.9Z"/></g></g></svg>