<svg xmlns="http://www.w3.org/2000/svg" viewBox="0 0 190.26 133.12"><defs><style>.cls-1{fill:#324b56;}.cls-2{fill:#fff;}.cls-3{fill:#ff7d97;}</style></defs><title>Birthday 06</title><g id="Calque_2" data-name="Calque 2"><g id="Birthday_06" data-name="Birthday 06"><polygon class="cls-1" points="77.2 24.68 73.55 19.94 77.05 17.51 80.69 22.25 83.45 20.34 74.94 9.27 72.19 11.18 75.47 15.47 71.98 17.89 68.69 13.61 65.94 15.53 74.45 26.6 77.2 24.68"/><path class="cls-1" d="M89.5,14.91l4-1.12,1.59,2.64,3.47-1-8.19-12-4,1.09-.15,14.33,3.39-.94Zm-.45-8.64,3.23,5.41-2.91.81Z"/><path class="cls-1" d="M105.54,11l1.55.07c3.33.16,5.78-1.21,6-4.39.16-3-2.05-4.58-5.77-4.76l-4.66-.22-.73,13.7,3.41.16Zm.36-6.82,1.2.05c1.69.09,2.5.82,2.43,2.28-.1,1.72-1.06,2.29-2.6,2.22l-1.27-.07Z"/><path class="cls-1" d="M121.36,13.82l1.44.56c3.08,1.2,5.87.67,7.13-2.28,1.19-2.78-.34-5-3.79-6.3l-4.32-1.67-5.44,12.7,3.16,1.22Zm2.71-6.32,1.11.43c1.56.61,2.08,1.55,1.5,2.91-.69,1.59-1.8,1.83-3.22,1.27l-1.18-.45Z"/><polygon class="cls-1" points="137.61 22.65 146.98 19 144.25 16.77 138.1 19.7 140.21 13.47 137.38 11.17 135.01 20.55 131.5 24.44 134.09 26.55 137.61 22.65"/><path class="cls-1" d="M59.15,82.74C61.47,72,54.56,65.24,48.49,64.27A14.92,14.92,0,0,0,57,50.75c.13-13.45-11.53-22.83-30-18-19.2,5-26.1,33.37-15.24,43.63C20.84,85,31,78.09,31.33,72.12c.25-4.26-3-3.16-3-3.16s-2.77,9.75-11.6.92S11.82,38.55,29.81,35.46C37.64,34.11,43.43,36,47,39.59A11.94,11.94,0,0,0,40.62,45c-4.73,7.67-4.33,32.63-14.25,43.67l.07,0s-1,.89-.5,1.8a2.86,2.86,0,0,0,1.35,1h0l1.11.39h0l.22.07a1.46,1.46,0,0,0,1.5-.41c.17-.15.32-.3.45-.43C32,89.57,34.41,86.48,37,80.6a85.32,85.32,0,0,0,3.92-12.78c2.12-.14,8.36,0,10.55,6.71C54.1,82.63,49,92.89,41.3,93.72c-.48,0-1,.08-1.54.15a27.58,27.58,0,0,1-11.07-1.43s-5.71-2-5.77-2c-5.6-2-10.92-4-15.58-2.94C-1.87,89.63,1.51,100.93,17,98.1a31.57,31.57,0,0,0,3.95-.92l.64-.22c.36-.12.72-.27,1.08-.42h0c.57-.3.87-1.35-.63-1.93s-2.69-.75-5.51,0l-.36.09c-5.24,1.58-10-.07-10.47-2.29-.6-2.82,5.1-2.18,14,.48,1.81.54,6.23,2,6.44,2.1,7.48,2.58,13,2.45,16.25,1.93h0S56.48,95.1,59.15,82.74ZM41.75,64.15c1.74-7.7,3.14-15.36,4-18.8a12.47,12.47,0,0,1,2.11-4.79,15.18,15.18,0,0,1,3,12.43A13.91,13.91,0,0,1,41.75,64.15Z"/><path class="cls-1" d="M190.18,84a8.45,8.45,0,0,0-5-6.19c0-.11,0-.22.05-.33,1-8,2.44-19.22,3.88-25.24.5-2.22-4.48-3.79-5.27-.7s-1.45,6.92-2.11,11.18c-.58,2.7-2.48,5.52-3.79,5.64-2.93.26.76-14,1.09-15.33.44-2.22-4.13-3.62-5.27-.71a58.09,58.09,0,0,0-2.4,12.2c-1,2-2.41,4.63-3.54,4.73-2.93.26.76-14,1-15.33.49-2.22-4.14-3.62-5.22-.71a21.7,21.7,0,0,0-.83,2.84c.1-2.4-1.19-5.15-4.07-4.9-3.62.32-7.14,4.24-8.22,12.56-.11.82-.14,1.58-.18,2.33-.89,2-3.18,5.47-4.52,5.59-1,.09-1.12-1.65-.87-4.81a170.4,170.4,0,0,1,4-25c.49-2.23-4.49-3.8-5.27-.71-1.05,4.13-2.28,10.87-3,15.55a3.68,3.68,0,0,0-3.9-3.11c-3.61.32-7.14,4.24-8.22,12.57-.11.92-.17,1.79-.19,2.64-.89,2-3,6.41-4.3,6.53-2.1.18-.7-7.63.12-12.27.48-3-.73-7-3.93-6.66-2.57.23-4.67,3.43-6.11,7.12.37-3.06.89-6.35,1.36-9.36a8.12,8.12,0,0,0,6.76-8.39c0-2.28-2.13-5.53-5.33-5.25s-4.62,3.06-5.34,6.25c0,.15-.06.29-.1.43v0s0,0,0,.08a3.48,3.48,0,0,1-.1.44v0a1.91,1.91,0,0,0,.15,1.4c.48.61,2.33.76,3.6.61,1.11-.13,1.39-1.09,1.62-2a.24.24,0,0,0,0-.08c.46-2.16,1.15-3.81,2.14-3.9.53,0,.87.77.85,1.36,0,2.33-.94,4.21-3.45,4.94,0,0-2.07.66-7.71.12h0a27.42,27.42,0,0,1-7.31-1.4v0l-1.13-.39A24.56,24.56,0,0,1,97,47.06l-.56-.27-.13-.07-.14-.06L96,46.6c-3.42-1.73-7-4.1-7.44-7.45-.2-1.37.21-3.72,3.36-3.72,3.57,0,6,3.58,5.33,9.64a1.44,1.44,0,0,0,.51,1.24c.86.57,2.23,1.54,2.76,1.48a1.27,1.27,0,0,0,1-.89c1.78-10.43-3.73-15.3-9.61-15.3-3.77,0-6.38,3-5.82,7A9,9,0,0,0,87.41,42a21.1,21.1,0,0,0,8.77,8.5c-.36,1.75-.46,2.35-1,5.33-.9.11-2.92.37-3.25.49-1.44.29-2.63,3.26-1.13,3.31.41.06,2.57-.33,3.66-.27-.19,1.08-1,5.62-1.11,6.59-.37,2.19-.78,4.61-1,6.92-.91,2-3.77,5.91-5.15,6-3,.19.6-14.61.88-15.93.41-1.88-2.72-3.24-4.47-2a10.77,10.77,0,0,1-3.92,1.89c1-4,1.24-5.63.88-7.94-.26-1.67-1.2-2.86-2.21-2.79-1.93.13-4.3,4-3.68,8.08a7.84,7.84,0,0,0,2.23,4.25A41.25,41.25,0,0,1,75.17,72c-2.63,7.22-4.75,10.9-6.31,11.13-.55.07-1.22-.14-1.22-1.9,0-4.4.94-9,2.69-16.81,0-.14.13-.94.13-1.26s-.23-1.47-2.18-1.46c-1.63,0-2.26.22-2.89,2.21-1.18,4.71-2.74,11.47-2.74,17.29,0,4.2,1.1,7.08,4.38,6.62,4.93-.69,7-7.71,9.59-14.94.73-1.91,1.61-4.44,2.38-7.23a4.72,4.72,0,0,0,1.2.08,12,12,0,0,0,2.62-.44C81.73,69.72,80,77.09,80.63,81.4a4.32,4.32,0,0,0,4.2,3.86c3-.21,5.71-4.64,7.34-8.06a14.24,14.24,0,0,0,.17,1.68c.59,3.16,3,5,5.25,5,5.43,0,8.4-9.6,9.3-11.71a.94.94,0,0,0-.13-.86.69.69,0,0,0-1.26-.11c-1,2-4,5.59-6.1,5.59s-2.4-4.61-1.77-9c.24-1.6,1.2-7.32,1.44-8.87a28.2,28.2,0,0,0,4.13-.49c1.33-.68,2-3.83.76-3.66-.34.05-2.95.32-4.13.49.35-1.83.41-2.1.58-2.91a32.43,32.43,0,0,0,10.09,1.52c-1.73,10-3.33,22.72-3,24.94.52,3.3,5.09,4.28,5.09,1.94,0-1.38.17-4.32.52-8.11a.87.87,0,0,1,0,.1c.41-4.12,3.26-10.32,4.73-10.45.68-.06.55,2.18.37,3.32-.59,4-1.42,8.88-.91,12.07.36,2.3,2.18,4,4,3.8,3.35-.3,5.84-6,7.14-9.48.6,4.42,2.67,6.94,5.28,6.71,2.78-.25,4.42-2.62,5.36-4.78a1.76,1.76,0,0,0,0,.53c.35,2.25,1.95,3.78,3.78,3.62,3.15-.28,5.92-5.15,7.5-8.54.57,4.47,2.66,7,5.28,6.79,2.84-.25,4.47-2.68,5.4-4.88,0,.21.06.42.09.58.36,2.3,1.38,3.7,3.22,3.53,2.67-.23,5.07-3.79,6.71-7a17.48,17.48,0,0,0,.19,2.52c.36,2.31,1.38,3.71,3.22,3.55,2.41-.22,4.54-2.53,6.14-5.22-.35,2.53-.65,5-.87,7.3l-.73.06c-7.34.65-15.5,8.27-23.36,9-5.92.52-7.15-1.55-7.59-2.62s-1.53-.61-1.79.15c-.44,1.21,2.46,9.45,11.32,8.67,7.39-.65,14.38-9.92,21.76-11.31-.16,5.75,1.74,9.67,6.09,9.28A4.91,4.91,0,0,0,190.18,84Zm-51.1-17.19c-.87,4.9-2.54,8.5-3.78,8s-1.51-4.8-.63-9.71,2.58-8.51,3.77-8.08S140,61.86,139.08,66.77ZM161,64.39c-.87,4.91-2.54,8.51-3.78,8s-1.5-4.81-.63-9.71,2.59-8.51,3.77-8.09S161.91,59.48,161,64.39Zm25.31,23.2c-2.36.21-2.12-3-1.66-6.49A4.54,4.54,0,0,1,188,84.36C188.26,85.93,187.65,87.48,186.34,87.59Z"/><path class="cls-1" d="M68.6,59.07c2.68-.38,4.26-3.15,4.26-5.34,0-1.71-.85-3-2.86-2.76-2.67.37-4.25,3.21-4.25,5.4C65.75,58,66.66,59.35,68.6,59.07Z"/><path class="cls-1" d="M151.57,34.1c2.49,1.06,4.4.24,5.69-2.39a1.81,1.81,0,0,0-.66-2.21,1.72,1.72,0,0,0-2.78.93s0,0,0,.05c-.42,1.54-1,2.27-2.25,1.73-.91-.39-1-1.65-.43-2.72a3.45,3.45,0,0,1,3.17-1.57s0,0,0,0a7.87,7.87,0,0,1,3.87.92s0,0,0,0c3.58,1.84,3.28,7.07,8.45,9.29,6.21,2.66,10.25-2.59,10.21-3.57,0-.61-.69-1.17-1.24-.54s-2,1.88-6.1.1c-5.51-2.36-5-5.76-10.17-8l-.51-.22a9.42,9.42,0,0,0-4.08-.52,6.38,6.38,0,0,0-5.08,3.28A3.72,3.72,0,0,0,151.57,34.1Z"/><path class="cls-1" d="M143.43,96.05a33.64,33.64,0,0,1-6,11.75L150,116.12l-1.64,1.7a56.11,56.11,0,0,1-7.07,6.23l5,3.52a62.6,62.6,0,0,0,15.59-22.93l-11.66.62Z"/><path class="cls-1" d="M126.78,105.05a33.4,33.4,0,0,1-43.19,0L66.37,116.46a53.55,53.55,0,0,0,77.63,0Z"/><polygon class="cls-2" points="74.94 23.02 71.29 18.28 74.78 15.85 78.43 20.59 81.18 18.68 72.68 7.61 69.92 9.53 73.21 13.81 69.72 16.24 66.43 11.96 63.68 13.87 72.19 24.94 74.94 23.02"/><path class="cls-2" d="M87.24,13.25l4-1.12,1.58,2.64,3.48-1-8.19-12-4,1.09L84,17.21l3.4-.94Zm-.45-8.64L90,10l-2.91.81Z"/><path class="cls-2" d="M103.27,9.3l1.56.07c3.33.16,5.77-1.2,5.94-4.39.16-3-2-4.58-5.76-4.76L100.35,0l-.73,13.7,3.41.17Zm.37-6.82,1.2.06c1.69.08,2.5.81,2.42,2.27-.09,1.72-1.06,2.29-2.59,2.22L103.4,7Z"/><path class="cls-2" d="M119.09,12.16l1.45.56c3.08,1.2,5.86.67,7.13-2.28,1.19-2.78-.35-5-3.79-6.3l-4.32-1.67-5.44,12.7,3.16,1.22Zm2.71-6.32,1.12.43c1.56.61,2.07,1.55,1.49,2.91-.68,1.6-1.79,1.83-3.21,1.27L120,10Z"/><polygon class="cls-2" points="135.35 20.99 144.72 17.34 141.99 15.12 135.83 18.05 137.94 11.82 135.12 9.51 132.75 18.89 129.24 22.78 131.82 24.89 135.35 20.99"/><path class="cls-3" d="M56.89,81.08c2.31-10.72-4.59-17.5-10.66-18.47a14.92,14.92,0,0,0,8.55-13.52c.13-13.45-11.53-22.83-30-18C5.55,36.18-1.35,64.49,9.51,74.75c9.07,8.57,19.19,1.68,19.55-4.29.26-4.26-3-3.16-3-3.16s-2.77,9.75-11.6.92S9.56,36.89,27.54,33.8c7.84-1.35,13.63.56,17.19,4.13a11.89,11.89,0,0,0-6.37,5.37C33.62,51,34,75.92,24.11,87l.06,0s-1,.9-.5,1.8a2.83,2.83,0,0,0,1.36,1h0l1.11.4h0l.23.08a1.48,1.48,0,0,0,1.5-.42c.16-.15.32-.3.44-.43,1.39-1.46,3.8-4.55,6.36-10.43a85.52,85.52,0,0,0,3.92-12.77c2.12-.15,8.35,0,10.55,6.7C51.84,81,46.73,91.23,39,92.06l-1.53.15a27.58,27.58,0,0,1-11.07-1.43s-5.71-2-5.77-2c-5.6-2-10.92-4-15.58-2.94C-4.13,88-.75,99.27,14.72,96.44a31,31,0,0,0,3.94-.92l.65-.22c.36-.12.72-.27,1.07-.42h0c.57-.3.87-1.35-.63-1.93s-2.69-.75-5.51,0l-.36.09c-5.24,1.58-10-.07-10.47-2.29-.61-2.81,5.09-2.18,14,.48,1.81.54,6.23,2,6.44,2.1,7.48,2.58,13,2.45,16.25,1.94h0S54.22,93.44,56.89,81.08ZM39.49,62.49c1.74-7.7,3.14-15.36,4-18.8a12.47,12.47,0,0,1,2.11-4.79,15.18,15.18,0,0,1,3,12.43A13.91,13.91,0,0,1,39.49,62.49Z"/><path class="cls-3" d="M187.92,82.3a8.45,8.45,0,0,0-5-6.19c0-.11,0-.22,0-.33,1-8,2.44-19.22,3.88-25.24.5-2.22-4.48-3.79-5.27-.7S180.1,56.77,179.45,61c-.58,2.7-2.48,5.52-3.79,5.64-2.93.26.76-14,1.09-15.33.44-2.22-4.14-3.62-5.27-.71a58,58,0,0,0-2.41,12.2c-1,2-2.4,4.63-3.53,4.73-2.94.26.76-14,1-15.33.5-2.22-4.13-3.61-5.21-.71a21.7,21.7,0,0,0-.83,2.84c.1-2.4-1.19-5.15-4.07-4.9-3.62.32-7.15,4.24-8.22,12.56-.11.82-.15,1.58-.18,2.33-.89,2-3.18,5.47-4.53,5.59-1,.09-1.11-1.65-.86-4.81a171.79,171.79,0,0,1,4-25c.5-2.22-4.48-3.8-5.27-.71-1,4.13-2.27,10.87-3,15.55a3.69,3.69,0,0,0-3.9-3.11c-3.62.32-7.14,4.24-8.22,12.57-.12.92-.17,1.79-.2,2.64-.89,2-3,6.41-4.3,6.53-2.09.18-.69-7.63.13-12.27.48-3-.73-6.95-3.93-6.66-2.57.23-4.67,3.43-6.11,7.12.37-3.06.88-6.35,1.36-9.36A8.12,8.12,0,0,0,120,44c0-2.28-2.13-5.53-5.33-5.25S110,41.81,109.32,45c0,.15-.06.29-.1.43v0a.34.34,0,0,0,0,.08c0,.15-.06.29-.1.44v0a2,2,0,0,0,.16,1.4c.48.61,2.33.76,3.6.61,1.11-.13,1.39-1.08,1.62-2a.31.31,0,0,0,0-.09c.46-2.15,1.16-3.81,2.15-3.9.53,0,.87.77.85,1.36,0,2.34-.94,4.21-3.45,4.94,0,0-2.07.66-7.71.12h0A27.35,27.35,0,0,1,99,47.09v0l-1.14-.39a25,25,0,0,1-3.17-1.28l-.56-.27L94,45.06,93.86,45a.33.33,0,0,0-.1-.06c-3.41-1.73-7-4.1-7.43-7.45-.2-1.37.21-3.72,3.36-3.72,3.57,0,6,3.58,5.32,9.64a1.48,1.48,0,0,0,.52,1.24c.86.57,2.23,1.54,2.76,1.49a1.27,1.27,0,0,0,1-.9C101.11,34.81,95.6,30,89.72,30c-3.78,0-6.38,3-5.83,7a9.21,9.21,0,0,0,1.26,3.44,21.18,21.18,0,0,0,8.76,8.51c-.35,1.74-.46,2.34-1,5.32-.9.11-2.92.37-3.25.49C88.21,55,87,57.94,88.52,58c.41.06,2.57-.33,3.66-.27-.19,1.08-1,5.62-1.12,6.59-.36,2.19-.77,4.61-1,6.92-.91,2-3.77,5.91-5.15,6-3,.19.6-14.6.88-15.92.41-1.89-2.72-3.25-4.47-2a10.57,10.57,0,0,1-3.93,1.89c1-4,1.25-5.63.89-7.94-.26-1.67-1.2-2.86-2.21-2.79-1.93.13-4.3,4-3.68,8.08a7.84,7.84,0,0,0,2.23,4.25,41.56,41.56,0,0,1-1.71,7.48c-2.63,7.21-4.75,10.9-6.31,11.12-.55.07-1.22-.14-1.22-1.9,0-4.39.94-9,2.69-16.81,0-.14.13-.94.13-1.26S68,60,66,60c-1.63,0-2.26.22-2.88,2.21C62,66.91,60.39,73.67,60.39,79.49c0,4.2,1.1,7.08,4.38,6.62,4.93-.69,7-7.71,9.59-14.94.72-1.91,1.61-4.44,2.37-7.23a4.76,4.76,0,0,0,1.2.08,12,12,0,0,0,2.63-.44c-1.1,4.48-2.86,11.85-2.2,16.16a4.33,4.33,0,0,0,4.21,3.86c3-.2,5.71-4.64,7.34-8a14.07,14.07,0,0,0,.17,1.67c.59,3.16,3,5,5.25,5,5.43,0,8.4-9.6,9.3-11.71a.94.94,0,0,0-.13-.86.69.69,0,0,0-1.26-.11c-1,2-4,5.59-6.11,5.59s-2.39-4.61-1.76-9c.24-1.6,1.2-7.32,1.44-8.86a29.06,29.06,0,0,0,4.12-.5c1.33-.68,2-3.83.76-3.66-.33,0-2.94.32-4.12.49.35-1.83.4-2.1.58-2.91a32.43,32.43,0,0,0,10.09,1.52c-1.73,10-3.33,22.73-3,24.94.52,3.3,5.09,4.28,5.09,1.94,0-1.37.17-4.31.52-8.11l0,.1c.41-4.12,3.26-10.32,4.73-10.45.68-.06.55,2.18.36,3.32-.58,4-1.41,8.88-.91,12.07.37,2.3,2.19,4,4,3.8,3.36-.3,5.85-6,7.15-9.48.59,4.42,2.67,6.94,5.27,6.71,2.78-.25,4.43-2.62,5.36-4.77a2.11,2.11,0,0,0,0,.52c.36,2.26,2,3.78,3.79,3.62,3.15-.27,5.92-5.15,7.49-8.54.58,4.47,2.67,7,5.29,6.79,2.83-.25,4.47-2.67,5.4-4.88,0,.21.06.42.09.58.36,2.3,1.38,3.7,3.21,3.54,2.67-.24,5.08-3.8,6.71-7a19.24,19.24,0,0,0,.2,2.53c.36,2.3,1.38,3.7,3.22,3.54,2.41-.22,4.54-2.53,6.14-5.22-.35,2.53-.65,5-.87,7.3l-.73.07c-7.35.64-15.5,8.26-23.36,9-5.93.52-7.16-1.54-7.59-2.62s-1.54-.61-1.79.16c-.45,1.2,2.45,9.44,11.31,8.66,7.4-.65,14.39-9.92,21.77-11.31-.16,5.75,1.74,9.67,6.09,9.28A4.91,4.91,0,0,0,187.92,82.3ZM136.81,65.11c-.87,4.9-2.53,8.5-3.77,8s-1.51-4.8-.64-9.71,2.59-8.51,3.78-8.08S137.69,60.2,136.81,65.11Zm22-2.38c-.87,4.91-2.54,8.51-3.78,8s-1.5-4.8-.63-9.71S157,52.54,158.13,53,159.64,57.82,158.77,62.73Zm25.31,23.2c-2.36.21-2.12-3-1.67-6.49a4.54,4.54,0,0,1,3.34,3.27C186,84.27,185.39,85.82,184.08,85.93Z"/><path class="cls-3" d="M66.34,57.41C69,57,70.6,54.26,70.6,52.07c0-1.7-.85-3-2.86-2.76-2.67.37-4.26,3.21-4.26,5.4C63.48,56.35,64.4,57.69,66.34,57.41Z"/><path class="cls-2" d="M149.31,32.44c2.49,1.07,4.39.24,5.69-2.39a1.81,1.81,0,0,0-.66-2.21,1.73,1.73,0,0,0-2.79.94s0,0,0,0c-.42,1.54-1,2.27-2.25,1.73-.91-.39-1-1.64-.44-2.72A3.46,3.46,0,0,1,152,26.26s0,0,0,0a7.84,7.84,0,0,1,3.86.92s0,0,0,0c3.58,1.84,3.28,7.07,8.45,9.29,6.21,2.66,10.25-2.59,10.21-3.57,0-.61-.69-1.17-1.24-.54s-2,1.88-6.1.1c-5.51-2.36-5-5.76-10.17-8l-.51-.22a9.42,9.42,0,0,0-4.08-.52A6.37,6.37,0,0,0,147.39,27,3.72,3.72,0,0,0,149.31,32.44Z"/><path class="cls-2" d="M46.53,27.37h0a7.48,7.48,0,0,1,3.64-.87s0,0,0,0a3.22,3.22,0,0,1,3,1.47c.52,1,.46,2.2-.41,2.57-1.18.5-1.72-.18-2.12-1.64a0,0,0,0,0,0,0A1.62,1.62,0,0,0,48,28a1.67,1.67,0,0,0-.62,2.07c1.22,2.48,3,3.26,5.36,2.25a3.51,3.51,0,0,0,1.82-5.1,6.07,6.07,0,0,0-4.8-3.09,8.86,8.86,0,0,0-3.84.5l-.49.2a11.42,11.42,0,0,0-4.53,3.54,19.79,19.79,0,0,1,3.41,1.15A5.78,5.78,0,0,1,46.53,27.37Z"/><path class="cls-2" d="M58.09,114.23l12.58-8.32a33.63,33.63,0,0,1-6-11.74l-6.74,9.21-11.62-.62c3,8.43,9.3,17.17,15.56,22.92l5-3.52a56.2,56.2,0,0,1-7.07-6.23Z"/><path class="cls-2" d="M141.17,94.39a33.81,33.81,0,0,1-6,11.75l12.55,8.32-1.65,1.7a56,56,0,0,1-7.06,6.23l5,3.52A62.6,62.6,0,0,0,159.56,103l-11.66.63Z"/><path class="cls-2" d="M124.52,103.39a33.4,33.4,0,0,1-43.19,0L64.11,114.8a53.55,53.55,0,0,0,77.63,0Z"/><polygon class="cls-1" points="80.92 113.94 82.9 114.62 81.28 115 80.92 113.94"/><polygon class="cls-1" points="86.08 113.86 85.53 113.99 86.07 113.7 86.08 113.86"/><polygon class="cls-1" points="86.23 116.18 88.73 117.96 85.79 118.86 84.86 121.79 83.11 119.27 80.04 119.3 81.9 116.85 81.28 115 82.9 114.62 85.53 113.99 86.08 113.86 86.23 116.18"/><polygon class="cls-1" points="109.8 118.99 106.09 122.6 106.97 127.7 102.38 125.29 97.8 127.7 98.68 122.6 94.97 118.99 100.1 118.25 102.26 114.64 104.68 118.25 109.8 118.99"/><polygon class="cls-1" points="126.51 118.86 123.45 118.84 121.69 121.35 120.76 118.43 117.84 117.53 120.33 115.75 120.49 113.27 122.74 114.5 125.65 113.5 124.67 116.41 126.51 118.86"/></g></g></svg>