<svg xmlns="http://www.w3.org/2000/svg" viewBox="0 0 168.59 138.19"><defs><style>.cls-1{fill:#324b56;}.cls-2{fill:#fff;}.cls-3{fill:#ff7d97;}</style></defs><title>Birthday 04</title><g id="Calque_2" data-name="Calque 2"><g id="Birthday_04" data-name="Birthday 04"><path class="cls-1" d="M82.7,64.57h28l-2.06-7.8,2.06-7.25H56.07l2.08,7.78-2.08,7.27Zm12.52-2.95h0Z"/><path class="cls-2" d="M70.17,31.84,73.5,43.73c.67,3.17,8.16,3.43,10.45,3.43,3.58,0,9.8-.69,10.43-3.32l3.4-12c2.55-1.44,1.86-4.25,1.64-5.18a5.15,5.15,0,0,0-2.34-3.18A5.23,5.23,0,0,0,94,22.75c0-.14-.05-.28-.08-.43a5,5,0,0,0-5.29-3.71,4.93,4.93,0,0,0-2.28-3.07V7.47H84.61V6.82a2.46,2.46,0,0,0,1.29-1.09,2.34,2.34,0,0,0,0-2.37A12.48,12.48,0,0,1,84.74,1l-.33-1-.67.71a9.34,9.34,0,0,0-.7.83c-.69.8-2.12,3.22-.51,4.79a2,2,0,0,0,.89.51v.62H81.66v8a4.81,4.81,0,0,0-2.39,3.07s0,0,0,0a5,5,0,0,0-5.19,3.73,3.53,3.53,0,0,0-.08.4,5.25,5.25,0,0,0-3.08.72,5.16,5.16,0,0,0-2.34,3.17A4.88,4.88,0,0,0,70.17,31.84Z"/><path class="cls-2" d="M68.35,61.56c.11-.48.23-.94.33-1.41s.21-.94.32-1.41l.9,0a6.68,6.68,0,0,1,.91,0q-.15.66-.27,1.38c-.09.47-.18.94-.26,1.38l1,0a5.36,5.36,0,0,1,1,0c.33-1.48.68-2.94,1-4.36s.72-2.89,1.13-4.37c-.36,0-.74,0-1.09,0a7.85,7.85,0,0,0-1.08.08c-.15.58-.3,1.14-.43,1.7l-.39,1.67c-.26,0-.53,0-.85,0s-.62,0-.92.06c.14-.59.3-1.19.45-1.81s.31-1.19.47-1.78c-.37,0-.76,0-1.15,0a7,7,0,0,0-1.15.11c-.36,1.52-.69,3-1,4.49s-.59,2.91-.85,4.3c.31,0,.64,0,1,0A6.78,6.78,0,0,1,68.35,61.56Z"/><path class="cls-2" d="M77.48,61.59a8.14,8.14,0,0,1,1-.06c.34,0,.67,0,1,0,.06-1.46.09-2.94.07-4.45s0-3,0-4.51q-.69,0-1.38,0a8.24,8.24,0,0,0-1.44.14c-.64,1.43-1.26,2.88-1.85,4.37s-1.17,3-1.71,4.38a8.61,8.61,0,0,1,1.9,0c.11-.23.23-.46.33-.69l.29-.68c.36,0,.69-.06,1-.06s.61,0,.91,0c0,.26,0,.52,0,.79S77.5,61.34,77.48,61.59ZM77,57.9l-.78,0L77,56.34c.25-.54.51-1.07.78-1.58,0,.52,0,1.05.07,1.6s0,1.07,0,1.59A8,8,0,0,0,77,57.9Z"/><path class="cls-2" d="M87.4,54a2.38,2.38,0,0,0-.38-.69,1.73,1.73,0,0,0-.52-.45,4,4,0,0,0-.6-.26,2.6,2.6,0,0,0-.62-.11l-.56,0H84.5l-.48,0-.67.1a6.3,6.3,0,0,0-.62.15,3.46,3.46,0,0,0-.49.17c-.44,1.5-.82,3-1.17,4.38s-.68,2.87-1,4.29l1,0H82c.06-.21.13-.39.17-.55l.15-.48c0-.16.11-.34.17-.55s.13-.46.23-.77a4.82,4.82,0,0,0,2.06-.1,3.9,3.9,0,0,0,1.53-.87,4,4,0,0,0,.95-1.43A5,5,0,0,0,87.54,55,3.62,3.62,0,0,0,87.4,54Zm-2.27,2.17a1.66,1.66,0,0,1-.34.55,1.37,1.37,0,0,1-.68.37,2.23,2.23,0,0,1-.9,0c.1-.4.2-.79.28-1.18s.19-.77.29-1.16a1.39,1.39,0,0,1,.5-.16,1.73,1.73,0,0,1,.45,0,.61.61,0,0,1,.46.32,1.11,1.11,0,0,1,.1.58A1.77,1.77,0,0,1,85.13,56.18Z"/><path class="cls-2" d="M88.82,61.55c.07-.21.13-.39.19-.55s.1-.32.14-.48.1-.34.16-.55.15-.46.23-.77a4.79,4.79,0,0,0,2.06-.1,3.87,3.87,0,0,0,1.54-.87,4,4,0,0,0,1-1.43A5,5,0,0,0,94.43,55a3.56,3.56,0,0,0-.16-1,2,2,0,0,0-.36-.69,2.18,2.18,0,0,0-.52-.45,4.66,4.66,0,0,0-.61-.26,2.6,2.6,0,0,0-.62-.11l-.56,0h-.21l-.49,0-.68.1c-.22.05-.42.09-.61.15a4.65,4.65,0,0,0-.49.17c-.44,1.5-.83,3-1.16,4.38s-.68,2.87-1,4.29l1,0ZM90.38,56c.09-.38.18-.77.28-1.16a1.45,1.45,0,0,1,.5-.16,1.73,1.73,0,0,1,.45,0,.61.61,0,0,1,.46.32,1.23,1.23,0,0,1,.11.58,2.27,2.27,0,0,1-.16.66,2.07,2.07,0,0,1-.34.55,1.45,1.45,0,0,1-.69.37,2.19,2.19,0,0,1-.89,0C90.2,56.73,90.29,56.34,90.38,56Z"/><path class="cls-2" d="M98.71,53.69c-.13.3-.28.64-.42,1s-.29.69-.45,1-.3.69-.43,1c0-.3,0-.63,0-1s0-.68,0-1,0-.67,0-1,0-.66,0-1c-.17,0-.36,0-.54,0l-.61,0c-.21,0-.42,0-.62,0s-.39,0-.56,0c0,.65.06,1.3.1,2s.09,1.31.14,1.92.11,1.13.16,1.61.09.84.13,1.08h.28a.57.57,0,0,0,.27,0c-.19.45-.36.85-.52,1.26s-.3.74-.43,1.06c.32,0,.65-.06,1-.06s.69,0,1.08,0c.39-.83.75-1.64,1.1-2.39s.7-1.47,1-2.19.67-1.41,1-2.1.68-1.43,1-2.18l-1.15,0a10.23,10.23,0,0,0-1.19.1Z"/><path class="cls-2" d="M168.59,112.2H0l9.32,13L0,138.19H168.59l-9.32-13Zm-2.85,24.53H2.86l8.27-11.54L2.85,113.66H165.74l-8.27,11.53Z"/><path class="cls-1" d="M68.58,96.77c.12-.4.23-.81.36-1.23-.51,0-1-.05-1.57-.06s-1.06,0-1.59,0-1,0-1.56.06-1,0-1.47.09a10.93,10.93,0,0,0-.38,1.19c-.09.39-.17.79-.24,1.18l.92,0c.32,0,.63,0,.92,0-.13.5-.25,1-.38,1.52s-.25,1-.37,1.55-.24,1-.36,1.52L62.51,104c.35,0,.72,0,1.11,0a10,10,0,0,1,1.11,0c.13-.47.26-1,.41-1.47l.45-1.54L66,99.43c.16-.51.3-1,.44-1.48.32,0,.63,0,.94,0s.59,0,.87,0C68.37,97.56,68.47,97.17,68.58,96.77Z"/><path class="cls-1" d="M75.94,96.6a2.73,2.73,0,0,0-1-.9,3.34,3.34,0,0,0-1.57-.31,5.16,5.16,0,0,0-1.7.3,4.65,4.65,0,0,0-1.48.88A5.13,5.13,0,0,0,69,98a6.3,6.3,0,0,0-.69,2,5.09,5.09,0,0,0-.06,1.64,3.59,3.59,0,0,0,.46,1.36,2.63,2.63,0,0,0,1,.93,3,3,0,0,0,1.44.34A5.05,5.05,0,0,0,73,103.9a4.94,4.94,0,0,0,1.52-.93,6,6,0,0,0,1.13-1.44,6.5,6.5,0,0,0,.68-1.87A5.06,5.06,0,0,0,76.41,98,3.06,3.06,0,0,0,75.94,96.6ZM73.8,100a3.26,3.26,0,0,1-.32.8,3.37,3.37,0,0,1-.5.66,2.74,2.74,0,0,1-.62.47,1.51,1.51,0,0,1-.66.19.88.88,0,0,1-.56-.16,1.22,1.22,0,0,1-.38-.46,1.88,1.88,0,0,1-.16-.64,2,2,0,0,1,.08-.73,3.5,3.5,0,0,1,.72-1.44,2.4,2.4,0,0,1,.6-.46,1.48,1.48,0,0,1,.72-.18,1,1,0,0,1,1,.57,1.72,1.72,0,0,1,.16.63A2.84,2.84,0,0,1,73.8,100Z"/><path class="cls-1" d="M86.23,95.6a10,10,0,0,0-1.31.1c-.14.25-.28.52-.43.82l-.47.94c-.16.33-.32.65-.49,1l-.47,1c0-.28,0-.59,0-.9s0-.65,0-1,0-.65,0-1,0-.63.06-.93l-.6,0-.67,0-.67,0-.62,0c0,.61.06,1.23.11,1.88s.1,1.25.16,1.82.11,1.08.17,1.53.1.79.14,1a.92.92,0,0,1,.3,0,1.37,1.37,0,0,0,.31,0L81.13,103c-.17.37-.33.71-.48,1,.36,0,.72,0,1.08,0l1.18,0c.43-.8.83-1.55,1.22-2.26s.76-1.41,1.13-2.08l1.11-2c.36-.67.74-1.35,1.13-2.06Z"/><path class="cls-1" d="M94.36,96.6a2.65,2.65,0,0,0-1-.9,3.32,3.32,0,0,0-1.56-.31,5.11,5.11,0,0,0-1.7.3,4.69,4.69,0,0,0-1.49.88A5.13,5.13,0,0,0,87.43,98a6.3,6.3,0,0,0-.69,2,5.07,5.07,0,0,0,0,1.64,3.42,3.42,0,0,0,.46,1.36,2.52,2.52,0,0,0,1,.93,3,3,0,0,0,1.44.34,5,5,0,0,0,1.84-.33,4.82,4.82,0,0,0,1.52-.93A5.77,5.77,0,0,0,94,101.53a6.82,6.82,0,0,0,.69-1.87,5.31,5.31,0,0,0,.1-1.71A3.06,3.06,0,0,0,94.36,96.6ZM92.22,100a3.26,3.26,0,0,1-.32.8,3,3,0,0,1-.5.66,2.74,2.74,0,0,1-.62.47,1.51,1.51,0,0,1-.66.19.9.9,0,0,1-.56-.16,1.11,1.11,0,0,1-.37-.46,1.89,1.89,0,0,1-.17-.64,2,2,0,0,1,.08-.73,3.09,3.09,0,0,1,.28-.77,2.81,2.81,0,0,1,.45-.67,2.19,2.19,0,0,1,.59-.46,1.48,1.48,0,0,1,.72-.18,1.17,1.17,0,0,1,.61.15,1.09,1.09,0,0,1,.38.42,1.54,1.54,0,0,1,.16.63A2.47,2.47,0,0,1,92.22,100Z"/><path class="cls-1" d="M100.89,95.63c-.08.4-.19.85-.3,1.35s-.24,1-.37,1.52-.27,1-.42,1.52-.28.93-.41,1.31a2.59,2.59,0,0,1-.18.4A1,1,0,0,1,99,102a.83.83,0,0,1-.32.13,2.52,2.52,0,0,1-.43,0H98a.48.48,0,0,1-.24-.07.46.46,0,0,1-.16-.2.71.71,0,0,1,0-.38c.09-.4.21-.85.34-1.35s.28-1,.43-1.52.31-1,.47-1.5.3-1,.44-1.35a9.4,9.4,0,0,0-1.1,0q-.6,0-1.26.06c-.09.32-.2.68-.33,1.09s-.26.83-.39,1.28-.26.92-.39,1.4-.24.93-.34,1.37c-.06.26-.11.52-.16.79a3.46,3.46,0,0,0,0,.78,1.9,1.9,0,0,0,.17.71,1.26,1.26,0,0,0,.52.56,2.29,2.29,0,0,0,.76.31,4.52,4.52,0,0,0,1,.1,12.76,12.76,0,0,0,1.47-.08,3.14,3.14,0,0,0,1.13-.38,2.63,2.63,0,0,0,.87-.83,5.66,5.66,0,0,0,.65-1.45c.15-.44.3-.91.44-1.41l.42-1.52c.14-.5.27-1,.39-1.49s.24-1,.36-1.38q-.62-.06-1.2-.06A13.12,13.12,0,0,0,100.89,95.63Z"/><path class="cls-1" d="M21.09,78.85c2.15-.86,2.81-2,2.81-4.44,0-3.12-2.26-4.9-7-4.9H6.2V73.2H7.86V85.8H6.2v3.73H17.08c5.53,0,7.79-1.78,7.79-5.82A4.79,4.79,0,0,0,21.09,78.85Zm-7.3-5.56h1.8a1.88,1.88,0,0,1,1.89,2.09c0,1.37-.43,2.21-1.94,2.21H13.79ZM16.08,85.8H13.79v-5H16a2.29,2.29,0,0,1,2.41,2.52A2.33,2.33,0,0,1,16.08,85.8Z"/><polygon class="cls-1" points="35.39 85.72 33.61 85.72 33.61 73.29 35.39 73.29 35.39 69.51 25.88 69.51 25.88 73.29 27.68 73.29 27.68 85.72 25.88 85.72 25.88 89.53 35.39 89.53 35.39 85.72"/><path class="cls-1" d="M56.93,85.29V83.71H55v1c0,.57-.23.92-.66.92s-.69-.72-.69-2a4.34,4.34,0,0,0-3.75-4.07c2.38-.34,4.15-1.92,4.15-4.15,0-3.27-1.29-5.9-7.93-5.9H36.82v3.75h1.61V85.75H36.82v3.78h9.25V85.75H44.32V81.31c2.55,0,2.87.63,2.87,3.23,0,3.36,1.8,5.33,5.55,5.33C55.92,89.87,56.93,87.67,56.93,85.29ZM45.61,78.1H44.32V73.23h1.44a2.31,2.31,0,0,1,2.6,2.55C48.36,77.3,47.27,78.1,45.61,78.1Z"/><polygon class="cls-1" points="60.54 85.72 60.54 89.53 71.19 89.53 71.19 85.72 68.82 85.72 68.82 73.29 71.22 73.29 71.22 76.96 75.43 76.96 75.43 69.51 56.22 69.51 56.22 76.96 60.42 76.96 60.42 73.29 62.89 73.29 62.89 85.72 60.54 85.72"/><polygon class="cls-1" points="85.86 85.75 84.08 85.75 84.08 81.42 89.53 81.42 89.53 85.75 87.84 85.75 87.84 89.53 97.14 89.53 97.14 85.75 95.48 85.75 95.48 73.29 97.14 73.29 97.14 69.51 87.84 69.51 87.84 73.29 89.53 73.29 89.53 77.61 84.08 77.61 84.08 73.29 85.86 73.29 85.86 69.51 76.58 69.51 76.58 73.29 78.16 73.29 78.16 85.75 76.58 85.75 76.58 89.53 85.86 89.53 85.86 85.75"/><path class="cls-1" d="M107.32,69.51H98.58v3.78h1.78V85.72H98.58v3.81h8.62c7,0,11-3.75,11-10.28C118.2,73.78,114.25,69.51,107.32,69.51Zm0,16.21h-1.09V73.29h1.09c3,0,4.29,2.89,4.29,6C111.61,82.83,110.35,85.66,107.32,85.72Z"/><path class="cls-1" d="M134.56,69.51h-11V73.2h1.17l-3.86,12.58h-2v3.75H128V85.78h-2.24l.6-2h5.88l.6,2h-2.72v3.75h11.48V85.78h-2Zm-7.11,10.88,1.87-6.18,1.89,6.18Z"/><path class="cls-1" d="M153.81,69.51v3.67h1.57l-1.57,2.89a16,16,0,0,0-1.06,2.46h-.12c-.11-.49-.71-1.78-.88-2.32l-1.67-3h1.49V69.51h-9.79v3.67h1.4l5.56,9.25V85.8h-1.63v3.73h9.16V85.8h-1.6V82.48l5.29-9.3h1.55V69.51Z"/><path class="cls-1" d="M130.44,99.39a.31.31,0,1,0,.31.31A.31.31,0,0,0,130.44,99.39Z"/><path class="cls-1" d="M129.11,99.31a.39.39,0,1,0,.39.39A.39.39,0,0,0,129.11,99.31Z"/><path class="cls-1" d="M127.45,99.22a.48.48,0,0,0-.48.48.49.49,0,1,0,1,0A.48.48,0,0,0,127.45,99.22Z"/><path class="cls-1" d="M125.38,99.1a.61.61,0,1,0,.6.6A.6.6,0,0,0,125.38,99.1Z"/><path class="cls-1" d="M122.79,98.94a.76.76,0,1,0,0,1.52.76.76,0,0,0,0-1.52Z"/><path class="cls-1" d="M119.55,98.76a.95.95,0,1,0,.94.94A.94.94,0,0,0,119.55,98.76Z"/><path class="cls-1" d="M115.5,98.52a1.18,1.18,0,1,0,1.18,1.18A1.18,1.18,0,0,0,115.5,98.52Z"/><path class="cls-1" d="M110.43,98.22a1.48,1.48,0,1,0,1.48,1.48A1.48,1.48,0,0,0,110.43,98.22Z"/><path class="cls-1" d="M35.59,99.39a.31.31,0,1,0,.31.31A.31.31,0,0,0,35.59,99.39Z"/><path class="cls-1" d="M36.92,99.31a.39.39,0,1,0,.39.39A.4.4,0,0,0,36.92,99.31Z"/><path class="cls-1" d="M38.58,99.22a.48.48,0,0,0-.49.48.49.49,0,0,0,.49.49.48.48,0,0,0,.48-.49A.47.47,0,0,0,38.58,99.22Z"/><path class="cls-1" d="M40.65,99.1a.61.61,0,1,0,.61.6A.6.6,0,0,0,40.65,99.1Z"/><path class="cls-1" d="M43.24,98.94a.76.76,0,1,0,.76.76A.76.76,0,0,0,43.24,98.94Z"/><path class="cls-1" d="M46.49,98.76a.95.95,0,1,0,.94.94A.94.94,0,0,0,46.49,98.76Z"/><path class="cls-1" d="M50.54,98.52a1.18,1.18,0,1,0,1.18,1.18A1.18,1.18,0,0,0,50.54,98.52Z"/><path class="cls-1" d="M55.6,98.22a1.48,1.48,0,1,0,1.48,1.48A1.48,1.48,0,0,0,55.6,98.22Z"/><path class="cls-1" d="M77.23,27.86h.06a.56.56,0,0,0,.55-.49l.09-.62a.55.55,0,0,0-.11-.41.54.54,0,0,0-.37-.22h-.09a.57.57,0,0,0-.55.5l-.07.61A.57.57,0,0,0,77.23,27.86Z"/><path class="cls-1" d="M73,29.18a.56.56,0,0,0,.47.26.53.53,0,0,0,.3-.09A.51.51,0,0,0,74,29a.52.52,0,0,0-.07-.42l-.34-.53a.58.58,0,0,0-.77-.17.55.55,0,0,0-.17.77Z"/><path class="cls-1" d="M91.23,27.8h0a.58.58,0,0,0,.56-.5l.08-.6a.68.68,0,0,0-.11-.42.62.62,0,0,0-.37-.22h-.08a.57.57,0,0,0-.56.49l-.08.62A.58.58,0,0,0,91.23,27.8Z"/><path class="cls-1" d="M89.63,28.43a.6.6,0,0,0-.77-.18.53.53,0,0,0-.25.35.59.59,0,0,0,.07.43l.33.52a.58.58,0,0,0,.48.26.51.51,0,0,0,.3-.09A.56.56,0,0,0,90,29Z"/><path class="cls-1" d="M78.15,29.56a.56.56,0,0,0-.18.77l.34.52a.57.57,0,0,0,.48.27.56.56,0,0,0,.54-.44.52.52,0,0,0-.07-.42l-.33-.53A.59.59,0,0,0,78.15,29.56Z"/><path class="cls-1" d="M82.55,22.17a.52.52,0,0,0,.47.26.67.67,0,0,0,.3-.08.57.57,0,0,0,.25-.37.5.5,0,0,0-.08-.41l-.33-.52a.57.57,0,0,0-.78-.18.63.63,0,0,0-.25.36.57.57,0,0,0,.08.42Z"/><path class="cls-1" d="M81.12,26.66a.55.55,0,0,0,.47.27.59.59,0,0,0,.31-.09.57.57,0,0,0,.16-.77l-.33-.53a.57.57,0,0,0-.78-.16.56.56,0,0,0-.16.77Z"/><path class="cls-1" d="M84.47,31.32a.56.56,0,0,0,.48.26.55.55,0,0,0,.54-.43.51.51,0,0,0-.07-.43l-.33-.52a.59.59,0,0,0-.78-.18.6.6,0,0,0-.24.36.56.56,0,0,0,.07.42Z"/><path class="cls-1" d="M77.75,24.34a.52.52,0,0,0,.44-.21l.39-.5a.57.57,0,0,0-.11-.79.58.58,0,0,0-.79.11l-.37.49a.52.52,0,0,0-.12.42.56.56,0,0,0,.56.48Z"/><path class="cls-1" d="M85.78,26h.07a.58.58,0,0,0,.57-.5l.08-.62a.57.57,0,0,0-.49-.62h-.07a.58.58,0,0,0-.56.5l-.08.62A.56.56,0,0,0,85.78,26Z"/><path class="cls-1" d="M89.06,23.23A.54.54,0,0,0,89.5,23l.39-.5a.56.56,0,0,0-.12-.78.57.57,0,0,0-.78.11l-.39.49a.58.58,0,0,0,.1.78A.66.66,0,0,0,89.06,23.23Z"/><path class="cls-1" d="M94.48,26.41a.24.24,0,0,0,.21-.11l.38-.49a.27.27,0,0,0,0-.38.27.27,0,0,0-.37.05l-.38.5a.27.27,0,0,0,0,.38A.3.3,0,0,0,94.48,26.41Z"/><path class="cls-1" d="M94.48,29.42a.54.54,0,0,0,.45-.22l.37-.49a.59.59,0,0,0,.12-.41.57.57,0,0,0-1-.27l-.38.49a.55.55,0,0,0,.45.9Z"/><path class="cls-1" d="M96,16.63a2.37,2.37,0,0,1-.6.43.49.49,0,0,1-.34,0,.59.59,0,1,0-.52,1.07,1.56,1.56,0,0,0,1.23.11,3.65,3.65,0,0,0,1-.65c.5-.43.95-.75,1.6-.52a.6.6,0,0,0,.77-.36.6.6,0,0,0-.36-.76,2.36,2.36,0,0,0-1.57-.05A3.92,3.92,0,0,0,96,16.63Z"/><path class="cls-1" d="M93.43,15a1.55,1.55,0,0,0,1.11-.55,3.27,3.27,0,0,0,.54-1.07c.2-.63.43-1.13,1.11-1.27A.6.6,0,1,0,96,10.94a2.35,2.35,0,0,0-1.37.76A3.65,3.65,0,0,0,93.94,13a2.48,2.48,0,0,1-.3.68.43.43,0,0,1-.31.14.6.6,0,1,0,.1,1.19Z"/><path class="cls-1" d="M68.33,16.74a3.14,3.14,0,0,0,1.22,0,1.53,1.53,0,0,1,1.61.51.58.58,0,0,0,.31.21.64.64,0,0,0,.52-.09.6.6,0,0,0,.12-.84,2.33,2.33,0,0,0-1.26-.93,3.54,3.54,0,0,0-1.44,0,2.36,2.36,0,0,1-.75,0,.4.4,0,0,1-.24-.23.62.62,0,0,0-.82-.22.57.57,0,0,0-.28.36.54.54,0,0,0,.06.45A1.57,1.57,0,0,0,68.33,16.74Z"/><path class="cls-1" d="M64.08,24a1.62,1.62,0,0,0,1.23.15,3.29,3.29,0,0,0,1-.63A1.51,1.51,0,0,1,68,23a.52.52,0,0,0,.37,0,.59.59,0,0,0,.39-.35.61.61,0,0,0-.34-.78,2.35,2.35,0,0,0-1.56-.1,3.55,3.55,0,0,0-1.24.74A2.31,2.31,0,0,1,65,23a.44.44,0,0,1-.33-.06.6.6,0,0,0-.8.25.53.53,0,0,0,0,.46A.55.55,0,0,0,64.08,24Z"/><path class="cls-1" d="M93.8,6.66a.52.52,0,0,0,.51.47h.06a.53.53,0,0,0,.46-.58,3.51,3.51,0,0,1,.33-1.87,1.94,1.94,0,0,0,1.18.83A1.3,1.3,0,0,0,97.73,5a1.35,1.35,0,0,0,0-1.48,1.5,1.5,0,0,0-1.28-.61,2.58,2.58,0,0,0-.6.07L95.61,3a2.38,2.38,0,0,1-.09-.58A.56.56,0,0,0,95,2h0a.52.52,0,0,0-.48.54,5.48,5.48,0,0,0,.19,1.1A3.91,3.91,0,0,0,93.8,6.66Z"/><path class="cls-1" d="M73.38,10a1.31,1.31,0,0,0,1.24.8c.3,0,1.06-.14,1.49-1.26,0-.09,0-.16.07-.23.28.11.47.21.48.2l0,0a.52.52,0,0,0,.71-.19,1.31,1.31,0,0,0,.07-.19.52.52,0,0,0-.25-.5,4,4,0,0,0-1-.45,3.88,3.88,0,0,0-2-2.42.52.52,0,0,0-.7.23.53.53,0,0,0,.23.7A3.71,3.71,0,0,1,75.07,8a2,2,0,0,0-1.35.52A1.29,1.29,0,0,0,73.38,10Z"/><path class="cls-1" d="M68.55,26.6a4.88,4.88,0,0,0,1.62,5.24L73.5,43.73c.67,3.17,8.16,3.43,10.45,3.43,3.58,0,9.8-.69,10.43-3.32l3.4-12c2.55-1.44,1.86-4.25,1.64-5.18a5.15,5.15,0,0,0-2.34-3.18A5.23,5.23,0,0,0,94,22.75c0-.14-.05-.28-.08-.43a5,5,0,0,0-5.29-3.71,4.93,4.93,0,0,0-2.28-3.07V7.47H84.61V6.82a2.46,2.46,0,0,0,1.29-1.09,2.34,2.34,0,0,0,0-2.37A12.48,12.48,0,0,1,84.74,1l-.33-1-.67.71a9.34,9.34,0,0,0-.7.83c-.69.8-2.12,3.22-.51,4.79a2,2,0,0,0,.89.51v.62H81.66v8a4.81,4.81,0,0,0-2.39,3.07s0,0,0,0a5,5,0,0,0-5.19,3.73,3.53,3.53,0,0,0-.08.4,5.25,5.25,0,0,0-3.08.72A5.16,5.16,0,0,0,68.55,26.6Zm3.66,5.94c.49.3,1,.56,1.26.72.33,2.44.66,4.34,1,6l.49,2.89Zm4.23,11.73c-.27-1.9-.54-3.45-.8-5l0-.3c-.32-1.81-.64-3.69-1-6.15L76,33.2c.26,2.46.51,4.38.8,6.44l0,.34c.19,1.44.4,2.92.59,4.65A7.8,7.8,0,0,1,76.44,44.27Zm2.25.66c-.21-2-.44-3.59-.65-5.17l0-.28c-.21-1.49-.43-3.16-.67-5.18.62.1,1.25.19,1.88.25.14,1.76.27,3.24.4,4.66l0,.38c.14,1.62.3,3.4.46,5.57C79.61,45.1,79.14,45,78.69,44.93Zm2.62.35c-.15-2.18-.3-3.92-.46-5.6v-.2c-.17-1.75-.32-3.5-.48-5.69l1.43.12c.08,2.21.15,4,.24,5.68l0,.51c.07,1.58.14,3.21.21,5.24C81.93,45.33,81.62,45.31,81.31,45.28Zm3.57-6,0,6c-.45,0-.93,0-1.37,0-.08-2.3-.17-4.08-.24-5.86-.08-1.47-.14-3-.2-4.74.62,0,1.27,0,1.9,0C84.92,36.48,84.9,37.91,84.88,39.33Zm2.44-.65,0,.9c-.08,1.7-.18,3.46-.27,5.66-.31,0-.63.07-1,.09v-.55c0-2.09,0-3.76,0-5.44v-.92c0-1.4,0-2.85,0-4.61l1.43-.11C87.49,35.61,87.4,37.18,87.32,38.68Zm2.88.25,0,.34c-.19,1.66-.37,3.37-.54,5.55-.44.1-.92.19-1.42.27.09-2.2.19-4,.29-5.67l.05-1c.06-1.19.12-2.45.19-3.88q1-.1,1.92-.27C90.49,36,90.34,37.5,90.2,38.93Zm1.37,5.26a5.41,5.41,0,0,1-.72.28c.15-1.81.3-3.31.46-4.76l0-.51c.19-1.76.38-3.59.57-6,.46-.1.93-.22,1.41-.34-.28,2.4-.59,4.13-.9,5.81C92.16,40.2,91.85,41.93,91.57,44.19Zm1.54-2.36c.16-1,.33-2,.52-3,.29-1.64.6-3.34.87-5.61l1.19-.53ZM83.36,5.47c-1-1,.41-2.91.61-3.17A16.35,16.35,0,0,0,84.84,4a1.14,1.14,0,0,1,0,1.18A1,1,0,0,1,83.36,5.47Zm1.81,3.19v1.42a5.15,5.15,0,0,0-1-.35C83.4,9.52,83,9.38,82.87,9v-.3Zm-2.31,1.89a8.11,8.11,0,0,0,1,.34c.78.2,1.22.35,1.33.79v1a6.17,6.17,0,0,0-1-.35c-.75-.2-1.18-.35-1.28-.75Zm0,2.63a5.78,5.78,0,0,0,1,.33c.77.21,1.22.36,1.33.87v1a5.31,5.31,0,0,0-1-.34l-.42-.12c-.5-.16-.79-.32-.87-.65ZM71.81,25a3.41,3.41,0,0,1,2.52-.39l1.45.45-.09-1.31a2.75,2.75,0,0,1,.08-1,3.14,3.14,0,0,1,3.06-2.39,2.59,2.59,0,0,1,.74.09l1.28.36,0-1.14A3.61,3.61,0,0,1,81,19a3.06,3.06,0,0,1,3-2.33,3.14,3.14,0,0,1,.74.1A3,3,0,0,1,87,19.68v1.24l1.18-.41a.7.7,0,0,1,.22-.07,2.75,2.75,0,0,1,.75-.09,3.15,3.15,0,0,1,3.06,2.4,2.73,2.73,0,0,1,.07,1L92.18,25l1.43-.44a3.38,3.38,0,0,1,2.56.4,3.31,3.31,0,0,1,1.53,2.08c.53,2.15,0,2.88-1,3.35a.81.81,0,0,0-.47.52l0,.07-.37.27c-.36.2-.76.39-1.16.57l.07-.62-.85.25c-.91.26-1.79.48-2.62.64l-.44.1-.06.78c-.61.11-1.27.22-2,.3l0-1-.69.08c-.88.11-1.76.17-2.62.21l-.56,0v.91c-.64,0-1.31,0-2,0a2.62,2.62,0,0,0,0-.28l0-.55-.56,0c-.86,0-1.73-.12-2.6-.22l-.72-.08.06.9c-.67-.08-1.32-.17-1.93-.27l-.09-.86-.43-.09c-.88-.17-1.75-.39-2.61-.64l-.87-.25.07.55a15.9,15.9,0,0,1-1.74-1.15l-.22-.16h0a3,3,0,0,1-1-3.45A3.29,3.29,0,0,1,71.81,25Z"/><polygon class="cls-3" points="168.14 112.42 127.6 112.42 127.6 112.43 40.99 112.43 40.99 112.42 0.46 112.42 9.61 125.19 0.46 137.95 29.84 137.95 40.99 137.95 127.6 137.95 134.37 137.95 168.14 137.95 158.98 125.19 168.14 112.42"/><path class="cls-3" d="M168.59,112.2H0l9.32,13L0,138.19H168.59l-9.32-13ZM9.9,125.19l-9-12.53H167.69l-9,12.53,9,12.54H.91Z"/></g></g></svg>