<svg xmlns="http://www.w3.org/2000/svg" viewBox="0 0 72.8 107.47"><defs><style>.cls-1{fill:#ff7c96;}.cls-2{fill:#fff;}.cls-3{fill:#324b58;}</style></defs><title>Holidays-15</title><g id="Calque_2" data-name="Calque 2"><g id="Planche_Vacance_-_19" data-name="Planche Vacance - 19"><path class="cls-1" d="M5.14,67.49c1.41.43,2.16.63,3.69,1V73l-.93-.15V89l.93-.15v4.49c-1.53.38-2.28.59-3.69,1V89.51L6,89.35V82.6l-3.64.16V90.1l.82-.18V95c-1.34.46-2,.7-3.19,1.21V90.69l.74-.19V71.42L0,71.23V65.69c1.21.5,1.85.73,3.19,1.18V72l-.82-.18v6c1.38.11,2.11.16,3.64.25V72.53l-.87-.16Z"/><path class="cls-1" d="M14.5,92.53a1.92,1.92,0,0,1-1.27-.18,3.18,3.18,0,0,1-1.11-1,7.42,7.42,0,0,1-.92-1.74,14.47,14.47,0,0,1-.7-2.41,26.13,26.13,0,0,1-.44-2.94,35.15,35.15,0,0,1,0-6.7,26.16,26.16,0,0,1,.44-3,14.75,14.75,0,0,1,.7-2.41,7.71,7.71,0,0,1,.92-1.75,3.18,3.18,0,0,1,1.11-1,2,2,0,0,1,1.27-.18,3,3,0,0,1,1.3.64A6.39,6.39,0,0,1,17,71.24a10.36,10.36,0,0,1,1,1.85,17.06,17.06,0,0,1,.78,2.29A20.76,20.76,0,0,1,19.26,78a24.58,24.58,0,0,1,.17,2.9,24.32,24.32,0,0,1-.17,2.87,20.09,20.09,0,0,1-.51,2.63,16.74,16.74,0,0,1-.78,2.3,10.83,10.83,0,0,1-1,1.86,6.59,6.59,0,0,1-1.17,1.31A2.9,2.9,0,0,1,14.5,92.53Zm0-4.65a1.57,1.57,0,0,0,1-.66,5.36,5.36,0,0,0,.83-1.55,11.86,11.86,0,0,0,.54-2.17,16.52,16.52,0,0,0,.19-2.59,16.69,16.69,0,0,0-.19-2.61,11.74,11.74,0,0,0-.55-2.18,5.36,5.36,0,0,0-.83-1.55,1.62,1.62,0,0,0-1-.66,1.18,1.18,0,0,0-1,.45,4.2,4.2,0,0,0-.79,1.47,11.81,11.81,0,0,0-.51,2.27A19.34,19.34,0,0,0,12,80.92a18.92,18.92,0,0,0,.19,2.79A11.87,11.87,0,0,0,12.69,86a4.2,4.2,0,0,0,.79,1.47A1.17,1.17,0,0,0,14.5,87.88Z"/><path class="cls-1" d="M20.82,70.65c1.82.22,2.76.31,4.66.47v3.55l-1.17-.07V87.21l2.42-.14a.24.24,0,0,0,.19-.1.82.82,0,0,0,.16-.26,1.61,1.61,0,0,0,.12-.33,1.45,1.45,0,0,0,0-.35V83.45l2.43,0v7c-3.66.2-5.45.36-8.85.78V87.45l1.11-.08V74.45l-1.11-.08Z"/><path class="cls-1" d="M30.69,71.46c2,.09,3,.12,5,.15V75H34.45V86.84H35.7v3.35c-2,0-3,.06-5,.15V86.92l1.2,0v-12l-1.2,0Z"/><path class="cls-1" d="M36.73,71.61c1.83,0,2.72,0,4.49,0a3.58,3.58,0,0,1,1.52.29,4.54,4.54,0,0,1,1.34.89,6.82,6.82,0,0,1,1.12,1.42,9.65,9.65,0,0,1,.85,1.89,13.24,13.24,0,0,1,.55,2.27,17.27,17.27,0,0,1,0,5.11,13.71,13.71,0,0,1-.55,2.27,9.84,9.84,0,0,1-.85,1.91,7,7,0,0,1-1.12,1.44,4.54,4.54,0,0,1-1.34.89,3.58,3.58,0,0,1-1.52.29c-1.77,0-2.66-.06-4.49,0V86.82h1V75h-1ZM40.24,75V86.84h1a1.72,1.72,0,0,0,1.16-.44,4.09,4.09,0,0,0,1-1.26A8.73,8.73,0,0,0,44,83.24a11.76,11.76,0,0,0,.23-2.37A11.63,11.63,0,0,0,44,78.52a8.37,8.37,0,0,0-.63-1.89,3.81,3.81,0,0,0-1-1.25A1.71,1.71,0,0,0,41.21,75Z"/><path class="cls-1" d="M53.61,87.44l1,.09c-.19-1.21-.28-1.81-.47-3l-3.26-.13c-.19,1.14-.29,1.7-.49,2.83l1.14.07v3.62c-1.62-.17-2.45-.25-4.13-.37V87.05l.82,0c1.2-6.3,1.79-9.52,3-16.17,1.14-.12,1.7-.18,2.81-.32,1.11,6.61,1.66,10,2.74,17.11l.73.07v3.9c-1.52-.24-2.3-.35-3.89-.55ZM51.48,81h2.14c-.43-2.67-.64-4-1.07-6.58C52.12,77.12,51.91,78.43,51.48,81Z"/><path class="cls-1" d="M57,70.21c1.73-.26,2.58-.4,4.22-.72v4.15l-.81.09c.52,2,.77,3,1.28,5.13.54-2.13.81-3.22,1.33-5.46l-.89.12V69.31c1.61-.32,2.4-.5,3.9-.88V73l-.65.1c-1.06,4.14-1.61,6.1-2.72,9.84V88.4l1.13.15v4.33c-1.64-.37-2.49-.54-4.23-.85V88l1.07.13V82.78C59.52,79.11,59,77.37,57.85,74l-.88.09Z"/><path class="cls-1" d="M70.88,74.87a8.5,8.5,0,0,0-.13-1.19,5.55,5.55,0,0,0-.26-.93,1.87,1.87,0,0,0-.36-.57A.47.47,0,0,0,69.7,72a.75.75,0,0,0-.38.22,1.38,1.38,0,0,0-.31.49,3.89,3.89,0,0,0-.22.78,7,7,0,0,0-.08,1.1,5.61,5.61,0,0,0,.11,1.23,2.74,2.74,0,0,0,.27.74,1.49,1.49,0,0,0,.37.44,4.27,4.27,0,0,1,.38.36c.59.61.87.93,1.44,1.59a3.8,3.8,0,0,1,.54,1,9.22,9.22,0,0,1,.43,1.61,21.23,21.23,0,0,1,.29,2.2c.07.83.1,1.76.1,2.8a33.45,33.45,0,0,1-.2,3.8,14.69,14.69,0,0,1-.56,2.79,3.78,3.78,0,0,1-.9,1.6A1.13,1.13,0,0,1,69.8,95a2.1,2.1,0,0,1-.89-.62,5.14,5.14,0,0,1-.77-1.21,10.06,10.06,0,0,1-.63-1.67,14.25,14.25,0,0,1-.42-2.05l-.59-.11v-5l2,.16v1.08a13.07,13.07,0,0,0,.08,1.45,8.31,8.31,0,0,0,.24,1.19,2.79,2.79,0,0,0,.4.83.91.91,0,0,0,.55.38c.32.06.56-.14.72-.61a6.41,6.41,0,0,0,.25-2.06,6.32,6.32,0,0,0-.09-1.17,4.24,4.24,0,0,0-.22-.81,2.28,2.28,0,0,0-.31-.56q-.16-.23-.33-.42c-.49-.56-.73-.84-1.24-1.37a4.19,4.19,0,0,1-.69-1,7.4,7.4,0,0,1-.6-1.53,13.24,13.24,0,0,1-.42-2.12,20.54,20.54,0,0,1-.16-2.76,21.54,21.54,0,0,1,.23-3.26,12.91,12.91,0,0,1,.63-2.54,6.36,6.36,0,0,1,1-1.77,2.61,2.61,0,0,1,1.18-.89,1,1,0,0,1,.91.09,2.29,2.29,0,0,1,.73.82,6,6,0,0,1,.53,1.37,12.62,12.62,0,0,1,.34,1.73l.49-.12v5.79l-1.82.19Z"/><path class="cls-2" d="M56.67,49.31a11.7,11.7,0,0,0-3.92,2.28.28.28,0,0,0,0-.2.3.3,0,0,0,.13-.12.33.33,0,0,0,0-.29,34.61,34.61,0,0,1,2.56-2.64A5.09,5.09,0,0,1,57,47.25c0,.08-.06.15,0,.15s.06-.06.11-.16.07,0,.09,0l0,0a.13.13,0,0,0-.07-.06s0-.1,0-.11a.43.43,0,0,0-.08.12.93.93,0,0,0-.42.17,8.21,8.21,0,0,0-1.14.93A32.76,32.76,0,0,0,52.88,51s-.06-.11-.11-.13-.07,0-.11,0a33.69,33.69,0,0,0,.42-3.5,7.78,7.78,0,0,0,0-1.47c0-.34-.12-.53-.24-.5,0-.09.07-.17.05-.18s-.07.07-.12.17a.41.41,0,0,0-.06.19s.07-.06.12-.16c.21.14.28.93.22,2a30.1,30.1,0,0,1-.39,3.4.32.32,0,0,0-.3.17.37.37,0,0,0,0,.18c-.07,0-.16.09-.29.35l-.06.16c.37-2-.19-3.17-1.28-5.53-1.16-2.53-4.9-5.75-5.57-4.85a.75.75,0,0,0-.12.59q0,.39.06.72c.06,3.3-1.86,4.55-.51,7.14a1.43,1.43,0,0,0,.19.29,4,4,0,0,0-2.29,2v0a2.14,2.14,0,0,0-.24.94c-.11,1.68,1.49,3.22,3.29,4.07.76.36,2.41-.19,3.78-1.15-.59,1.17-.91,2.2-.67,2.4.6.48,1.68.49,2.86-.4a4.58,4.58,0,0,0,.84-.77l0,0h0a7.51,7.51,0,0,0,1.46-2.37l.21-.06c2-.75,2.92-2.61,5.56-4.52L59.8,50a1.61,1.61,0,0,0,.44-.4C60.91,48.74,58.53,48.52,56.67,49.31Z"/><path class="cls-2" d="M15.44,10.44l-.2-.31L15.15,10a.86.86,0,0,1,.07.1C15.3,10.2,15.37,10.32,15.44,10.44Z"/><path class="cls-2" d="M31.24,21.88a0,0,0,0,1,0,0c-.16,1.85-1.82,3.06-3.55,3.48C26.8,25.6,25,24,23.85,22.18c0,1-.07,1.65-.32,1.71-.83.21-2-.29-2.86-1.85A5.92,5.92,0,0,1,20.18,21c-.1-.27-.19-.55-.26-.81a8,8,0,0,1-.35-2.35l-.19-.16c-1.66-1.61-1.93-3.78-3.64-6.72a2,2,0,0,0-.12-.19,2.29,2.29,0,0,0-.18-.29c-.07-.12-.14-.24-.22-.36a.86.86,0,0,0-.07-.1c0-.05-.05-.09-.07-.14A1.07,1.07,0,0,1,15,9.65a1,1,0,0,1,0-.14,1,1,0,0,1,0-.15c-.1-1,2.28-.08,3.82,1.52a14.43,14.43,0,0,1,3.37,4.6.17.17,0,0,1,.06-.09.46.46,0,0,1,0-.21.37.37,0,0,1,.25-.34,38.67,38.67,0,0,0-1.1-3.75c-.44-1.2-.86-2-1.14-2.06,0,.13,0,.23,0,.23s0-.11,0-.23,0-.23.05-.23,0,.09,0,.21c.11-.08.29.08.48.42A11.37,11.37,0,0,1,21.29,11c.39,1.1.77,2.46,1.11,3.86a.22.22,0,0,1,.11,0,.25.25,0,0,1,.18.08.38.38,0,0,1,.14.33.32.32,0,0,1-.07.19.18.18,0,0,1,.06.13,14.5,14.5,0,0,1,1.76-3.69C26,9.38,30,6.86,30.32,8.21a.29.29,0,0,1,0,.09.32.32,0,0,1,0,.14,1.15,1.15,0,0,1,0,.4c-.06.29-.12.56-.17.81-.51,3.59,1,5.5-.57,8a1.5,1.5,0,0,1-.21.26A5,5,0,0,1,31,20.36c0,.13.08.26.11.4A3,3,0,0,1,31.24,21.88Z"/><path class="cls-2" d="M25.56,9v0l-.1,0v0c0,.13,0,.23-.05.23s0-.09,0-.2A6,6,0,0,0,24.22,11c-.42.9-.87,2-1.29,3.19a31.52,31.52,0,0,1,1.31-3.3A10.55,10.55,0,0,1,25,9.41,1.38,1.38,0,0,1,25.4,9c0-.09,0-.16,0-.16s0,.06,0,.14A.08.08,0,0,1,25.56,9Z"/><path class="cls-3" d="M38.6,39.56a.12.12,0,0,0-.17,0,.09.09,0,0,0,0,.13,1.84,1.84,0,0,1-2.08.27.22.22,0,0,0,0-.08,1.23,1.23,0,0,0,.49,0,2.08,2.08,0,0,0,1.33-1.28.11.11,0,0,0,.12,0,.1.1,0,0,0,0-.16.12.12,0,0,0-.17,0,.1.1,0,0,0,0,.16h0a2,2,0,0,1-1.3,1.25,1.13,1.13,0,0,1-.49,0,.45.45,0,0,0-.12-.21.43.43,0,0,0-.57.05l0,0a4.24,4.24,0,0,0-.44,0,9,9,0,0,0,1.87-3.5c.79-2,.86-5.65.14-5.45-.1,0-.21.1-.34.29l-.34.45a10.81,10.81,0,0,1-2.33,2,1.85,1.85,0,0,0,0-.23c-.25-1.38-1.53-3-1.92-2.49a.75.75,0,0,0-.11.34c0,.09,0,.15,0,.23-.28,2-1.29,2.83-1,4.28l-.34.12h0a1.79,1.79,0,0,0-.5.36,4.41,4.41,0,0,0-.74,4c.2.88,2.36,1.49,3.78.91l.14,0h0a1.72,1.72,0,0,0,.3-.19.5.5,0,0,0,.29-.11h0l0,0h.08a2.77,2.77,0,0,0,1.57-.41.41.41,0,0,0,.51-.07.37.37,0,0,0,.09-.19,1.83,1.83,0,0,0,2.09-.27.13.13,0,0,0,.17,0A.12.12,0,0,0,38.6,39.56Z"/><path class="cls-3" d="M36.52,7.48l-.08.06,0,0c-.75.39-.71,1-1.41,1h-.08a.84.84,0,0,1,0,.47,1,1,0,0,1-.09.22l-.11.13-.05,0a1.1,1.1,0,0,1-1.17-.12c-.23-.15-.32-.84-.17-1.3a.64.64,0,0,1,.08-.19.35.35,0,0,1,.06-.09,0,0,0,0,1,0,0v0l-.06,0h0a.86.86,0,0,1-.14.13c-.38.32-1,.48-1.25.33a1.13,1.13,0,0,1-.57-1,.2.2,0,0,1,0-.1.4.4,0,0,1,.08-.16,1.14,1.14,0,0,1,.15-.16.94.94,0,0,1,.36-.18l.08,0s0,0,0-.06c-.21-.68.36-.86.43-1.74a.23.23,0,0,1,0-.11.05.05,0,0,1,.05,0h0a.44.44,0,0,1,.24.13l.14.14a2.88,2.88,0,0,1,.36.51,2.25,2.25,0,0,1,.24.56c.07.25.12.45.15.62a1.38,1.38,0,0,1-.1.68.21.21,0,0,1,0-.06c0-.06.06-.07.08-.07a.06.06,0,0,1,0,0s.05,0,.07,0h0s0,0,0,0,0,0,0,.07l0,0s0,0,0,.09h0a1.33,1.33,0,0,1,.46-.23c.17,0,.38-.07.64-.11l.22,0a3.45,3.45,0,0,1,.71.09l.17,0,.15.05.07,0,0,0,.11.06.1.08A.11.11,0,0,1,36.52,7.48Z"/><path class="cls-3" d="M72.76,22.41a.28.28,0,0,1,0,.12.25.25,0,0,1,0,.07,1.65,1.65,0,0,1-.68.54c-.49.25-.94.5-1.35.76-4.93,3.14-5,7.21-10.21,7.69a3.17,3.17,0,0,1-.61,0h-.07a7.25,7.25,0,0,1-.35,4.66c-.06.14-.12.27-.19.4l-.24.43q-.1.18-.21.33l-.14.18a4.92,4.92,0,0,1-.64.65c-2.42,2-6.48,1.07-9.62-.9-1.92-1.2-2.69-7.29-1.14-11a5.28,5.28,0,0,1,.4-.83,4.78,4.78,0,0,1,.29-.44,2.53,2.53,0,0,1,.28-.35h0a.55.55,0,0,1,0-.17c-.24.22-.41.32-.48.27a.06.06,0,0,1,0-.05,4.92,4.92,0,0,1-.63.66l-.17.14c-2.94,2.66-8.56,4.11-10.33,2.84-2.9-2.1-5.25-5.35-4.54-8.27,0,0,0-.06,0-.09a3.74,3.74,0,0,1,.75-1.57,7.45,7.45,0,0,1,.57-.67,7.24,7.24,0,0,1,4.2-2.18,3.13,3.13,0,0,1-.24-.56C35.83,10,39.67,8.4,40.66,2.5c.07-.43.13-.88.17-1.35a1.65,1.65,0,0,1,.26-.86l.07-.08c1.44-1.52,7.09,5.53,8.34,10.45,1.14,4.52,1.78,6.76.5,10.15l.11-.15c.29-.4.47-.52.6-.53a.63.63,0,0,1,.12-.31.59.59,0,0,1,.62-.23h0a.38.38,0,0,1,.17.08.49.49,0,0,1,.17.25h0a.59.59,0,0,1-.1.55.63.63,0,0,1-.26.2c0,.12,0,.33-.34.72,2.36-1.84,4.65-2.11,8.82-2.69C64.88,18,73.39,20.51,72.76,22.41Z"/><path class="cls-3" d="M41.09.29a1.65,1.65,0,0,0-.26.86c0,.47-.1.92-.17,1.35q.06-.6.12-1.29A1.58,1.58,0,0,1,41.09.29Z"/><path class="cls-3" d="M48.2,24.71a2.53,2.53,0,0,0-.28.35A1.54,1.54,0,0,1,48.2,24.71Z"/><path class="cls-3" d="M59.22,36.64A3.13,3.13,0,0,1,59,37l-.05.07Z"/><path class="cls-3" d="M59.41,36.24a7.25,7.25,0,0,0,.35-4.66h.07A7.2,7.2,0,0,1,59.41,36.24Z"/><path class="cls-3" d="M72.68,22.6a1.51,1.51,0,0,1-.72.61c-.48.24-.91.47-1.31.69.41-.26.86-.51,1.35-.76A1.65,1.65,0,0,0,72.68,22.6Z"/><path class="cls-3" d="M58.63,37.58a3,3,0,0,1-.64.65A4.92,4.92,0,0,0,58.63,37.58Z"/><path class="cls-3" d="M51.73,18.8c-.08.26-.17.53-.27.79h0Z"/><path class="cls-3" d="M53.82,10.92a17,17,0,0,1-.48,2.61c-.33,1.37-.81,3-1.36,4.56.51-1.59,1-3.11,1.27-4.4.46-2,.6-3.4.27-3.72-.12.16-.24.28-.26.26s.05-.17.17-.33.24-.27.27-.25,0,.14-.16.29C53.77,9.92,53.85,10.29,53.82,10.92Z"/><path class="cls-3" d="M60.67,14.67l0,0a.33.33,0,0,0-.15,0h0c-.12.16-.24.28-.27.26s0-.13.14-.27a9.68,9.68,0,0,0-3.15,1.44,60.42,60.42,0,0,0-5.4,3.82h0a60.31,60.31,0,0,1,5.52-4,16.65,16.65,0,0,1,2.33-1.26,1.73,1.73,0,0,1,.8-.18h0c.09-.12.17-.19.19-.17s0,.09-.08.2A.14.14,0,0,1,60.67,14.67Z"/><path class="cls-3" d="M23.61,40.19s0,0,0,0v0a.49.49,0,0,1-.06.2,1.73,1.73,0,0,0-.17.33c-.57,1.3,0,2.13-1,2.93l-.12.08h0a1.74,1.74,0,0,1,.56,1s0,.07,0,.1a.49.49,0,0,0,0,.12v.1a.43.43,0,0,0,0,0,.78.78,0,0,1,0,.22c-.21.73-1.16,1.09-2.06,1.11-.55,0-1.52-1.11-1.71-2.06a.89.89,0,0,1,0-.22.56.56,0,0,1,0-.13A.37.37,0,0,1,19,44h0l0,0c0,.07,0,.12-.06.12h0a.93.93,0,0,1,0,.22v0c-.24.93-1.18,2-1.7,2a2.16,2.16,0,0,1-2-1.06v0a.87.87,0,0,1-.06-.41,1.5,1.5,0,0,1,0-.22,1.76,1.76,0,0,1,.56-1l-.13-.08c-1-.82-.43-1.65-1-3l-.14-.29a.4.4,0,0,1-.07-.21s0,0,0,0c.08-.5,2.17.17,3.09,1s1.27,1.12,1.46,2a.43.43,0,0,0,0,0c0-.11,0-.16.05-.18a.12.12,0,0,1,0-.08.13.13,0,0,1,.09-.13H19a.11.11,0,0,1,.07,0h0a.13.13,0,0,1,.05.12.19.19,0,0,1,0,.08s0,.07,0,.19a3.94,3.94,0,0,1,1.41-1.73C21.43,40.36,23.48,39.72,23.61,40.19Z"/><path class="cls-3" d="M16.39,37.68a.44.44,0,0,0-.06.21,3.11,3.11,0,0,1,0,.32c0-.09,0-.2,0-.31A.38.38,0,0,1,16.39,37.68Z"/><path class="cls-3" d="M18.12,43.6l-.07.09Z"/><path class="cls-3" d="M20.79,46.5a.59.59,0,0,1,0,.08l0,0Z"/><path class="cls-3" d="M20.84,46.4a1.76,1.76,0,0,0,.08-1.13h0A1.76,1.76,0,0,1,20.84,46.4Z"/><path class="cls-3" d="M24.06,43.09a.47.47,0,0,1-.18.15l-.32.17a2.59,2.59,0,0,1,.33-.19A.4.4,0,0,0,24.06,43.09Z"/><path class="cls-3" d="M20.65,46.72a.61.61,0,0,1-.16.16A.81.81,0,0,0,20.65,46.72Z"/><path class="cls-3" d="M19,42.17l-.06.19h0Z"/><path class="cls-3" d="M19.48,40.26a3.22,3.22,0,0,1-.12.63A11,11,0,0,1,19,42c.13-.39.24-.76.31-1.07.11-.48.15-.83.07-.9l-.06.06s0,0,0-.08.05-.07.06-.06,0,0,0,.07S19.49,40.1,19.48,40.26Z"/><path class="cls-3" d="M21.14,41.17h0s-.06.07-.07.06a.17.17,0,0,1,0-.06,2.29,2.29,0,0,0-.77.35,12.87,12.87,0,0,0-1.31.92h0c.46-.36.94-.71,1.34-1a3.58,3.58,0,0,1,.57-.3.44.44,0,0,1,.19,0h0s0,0,.05,0l0,0S21.14,41.16,21.14,41.17Z"/><path class="cls-3" d="M26.56,51.2v0h0a.26.26,0,0,1-.09.13l-.21.19c-.72.78-.55,1.5-1.45,1.82l-.11,0h0a1.32,1.32,0,0,1,.15.83s0,.05,0,.08,0,.06,0,.09a.14.14,0,0,0,0,.06l0,0a1.09,1.09,0,0,1-.08.15,1.6,1.6,0,0,1-1.74.27c-.39-.13-.8-1.17-.69-1.89a.9.9,0,0,1,0-.16l0-.09a.2.2,0,0,1,0-.08h0s0,0,0,0-.06.07-.08.07h0a.64.64,0,0,1-.08.14l0,0c-.39.6-1.32,1.1-1.69,1-.6-.24-1.16-.71-1.17-1.25v0a.63.63,0,0,1,.06-.31l.07-.14a1.35,1.35,0,0,1,.65-.58L20,51.49c-.5-.83.1-1.28,0-2.36a1.13,1.13,0,0,0,0-.25.27.27,0,0,1,0-.16v0c.18-.33,1.5.66,1.94,1.47a2.74,2.74,0,0,1,.54,1.77v0c0-.08.06-.11.08-.12a.13.13,0,0,1,0-.06.1.1,0,0,1,.1-.06h0a.1.1,0,0,1,.05,0h0a.12.12,0,0,1,0,.1.09.09,0,0,1,0,.05s0,.06,0,.14a3,3,0,0,1,1.43-.87C25,50.78,26.59,50.83,26.56,51.2Z"/><path class="cls-3" d="M20,48.72a.27.27,0,0,0,0,.16,1.13,1.13,0,0,1,0,.25l0-.23A.26.26,0,0,1,20,48.72Z"/><path class="cls-3" d="M22.34,52.7a.2.2,0,0,0,0,.08A.3.3,0,0,1,22.34,52.7Z"/><path class="cls-3" d="M24.81,54.31a.19.19,0,0,1,0,.07v0S24.8,54.34,24.81,54.31Z"/><path class="cls-3" d="M24.83,54.23a1.32,1.32,0,0,0-.15-.83h0A1.29,1.29,0,0,1,24.83,54.23Z"/><path class="cls-3" d="M26.55,51.23c0,.05,0,.09-.1.14l-.2.18.21-.19A.26.26,0,0,0,26.55,51.23Z"/><path class="cls-3" d="M24.75,54.5a.53.53,0,0,1-.08.15A1.09,1.09,0,0,0,24.75,54.5Z"/><path class="cls-3" d="M22.69,51.5a.76.76,0,0,1,0,.15h0S22.69,51.55,22.69,51.5Z"/><path class="cls-3" d="M22.71,50a3.14,3.14,0,0,1,0,.48c0,.26,0,.56,0,.87,0-.31,0-.59,0-.83s0-.63-.12-.67a.3.3,0,0,1,0,.06s0,0,0-.07,0-.06,0-.06a.21.21,0,0,1,0,.06S22.69,49.91,22.71,50Z"/><path class="cls-3" d="M24.08,50.38h0s0,.06,0,0l0,0a1.72,1.72,0,0,0-.49.39,9.79,9.79,0,0,0-.78.92h0a10.19,10.19,0,0,1,.79-1,3,3,0,0,1,.36-.32.28.28,0,0,1,.13-.07h0s0,0,0,0a.1.1,0,0,1,0,0A0,0,0,0,1,24.08,50.38Z"/><path class="cls-3" d="M29.67,61.88h0a.24.24,0,0,1-.09.08l-.18.12c-.64.48-.61,1-1.32,1.15H28a1,1,0,0,1,0,.64L28,64l0,.06a.08.08,0,0,1,0,0l0,0a.34.34,0,0,1-.08.09,1.19,1.19,0,0,1-1.32,0c-.28-.15-.44-1-.27-1.5a.37.37,0,0,1,.05-.11l0-.07,0,0h0v0l-.06,0h0l-.08.1,0,0c-.38.39-1.13.64-1.39.49a1.22,1.22,0,0,1-.7-1.09h0a.57.57,0,0,1,.09-.22.36.36,0,0,1,.07-.1,1,1,0,0,1,.55-.34.43.43,0,0,0,0-.07c-.26-.68.25-.93.33-1.75a1.15,1.15,0,0,0,0-.19.21.21,0,0,1,0-.12h0c.18-.22,1,.69,1.24,1.35a2,2,0,0,1,.17,1.38v0c0-.06.06-.08.08-.08a.06.06,0,0,1,0,0,.07.07,0,0,1,.08,0h0s0,0,0,0h0a.11.11,0,0,1,0,.08l0,0s0,0,0,.1a2.34,2.34,0,0,1,1.18-.45C28.54,61.35,29.73,61.61,29.67,61.88Z"/><path class="cls-3" d="M25.12,59.16a.21.21,0,0,0,0,.12,1.15,1.15,0,0,1,0,.19v-.18A.33.33,0,0,1,25.12,59.16Z"/><path class="cls-3" d="M26.33,62.43l0,0Z"/><path class="cls-3" d="M28,64l0,.05h0Z"/><path class="cls-3" d="M28,63.9a1,1,0,0,0,0-.64h0A1.08,1.08,0,0,1,28,63.9Z"/><path class="cls-3" d="M29.66,61.9a.3.3,0,0,1-.1.09l-.17.11.18-.12A.24.24,0,0,0,29.66,61.9Z"/><path class="cls-3" d="M27.88,64.09a.24.24,0,0,1-.08.09A.34.34,0,0,0,27.88,64.09Z"/><path class="cls-3" d="M26.75,61.59a.23.23,0,0,1,0,.11h0Z"/><path class="cls-3" d="M27,60.49a1.78,1.78,0,0,1,0,.36c0,.19-.08.41-.14.64.06-.22.1-.44.13-.61s.05-.48,0-.52a.07.07,0,0,1,0,0s0,0,0,0a.07.07,0,0,1,0,0s0,0,0,0S27,60.4,27,60.49Z"/><path class="cls-3" d="M27.94,60.94h0l0,0s0,0,0,0a1.26,1.26,0,0,0-.41.23c-.21.15-.46.35-.71.57h0a8.2,8.2,0,0,1,.72-.59,2.2,2.2,0,0,1,.31-.2l.1,0h0l0,0a0,0,0,0,1,0,0Z"/><path class="cls-3" d="M43.47,61.3h0s0,0,0,0a.36.36,0,0,0,0,.11c.1.4.38.5.3.86l0,0h0a.53.53,0,0,1,.31.13l0,0,0,0,0,0h0l0,.06c.08.2-.07.46-.27.63s-.55,0-.77-.17l0,0,0,0v0h0s0,0,0,0h0l0,.06v0a.79.79,0,0,1,0,.75.64.64,0,0,1-.66.13h0l-.09-.09,0,0a.48.48,0,0,1-.06-.33h0c-.38,0-.4-.3-.78-.49l-.08,0-.06,0h0c-.07-.13.53-.35.89-.33a1,1,0,0,1,.69.19h0a.1.1,0,0,1,0-.06h0a0,0,0,0,1,0,0h.07v0s0,0,0,0a1.06,1.06,0,0,1,0-.66C43,61.73,43.35,61.21,43.47,61.3Z"/><path class="cls-3" d="M41.28,63l.06,0,.08,0-.08,0Z"/><path class="cls-3" d="M43.09,63v0Z"/><path class="cls-3" d="M44.13,62.52l0,0h0Z"/><path class="cls-3" d="M44.11,62.5a.53.53,0,0,0-.31-.13h0A.53.53,0,0,1,44.11,62.5Z"/><path class="cls-3" d="M43.48,61.31a.08.08,0,0,1,0,.06s0,.07,0,.1a.36.36,0,0,1,0-.11S43.49,61.32,43.48,61.31Z"/><path class="cls-3" d="M44.18,62.58l0,.06Z"/><path class="cls-3" d="M42.76,62.64l.05,0h0Z"/><path class="cls-3" d="M42.28,62.32l.16.09a2.31,2.31,0,0,1,.28.19,3.16,3.16,0,0,0-.27-.18.52.52,0,0,0-.24-.1,0,0,0,0,1,0,0l0,0a0,0,0,0,1,0,0l0,0S42.24,62.31,42.28,62.32Z"/><path class="cls-3" d="M42.68,61.94h0v0l0,0a1,1,0,0,0,0,.25,3.74,3.74,0,0,0,.14.45h0a3.85,3.85,0,0,1-.14-.46.93.93,0,0,1,0-.19.07.07,0,0,1,0,0h0a0,0,0,0,1,0,0h0Z"/><path class="cls-3" d="M50.39,58.7h0a.14.14,0,0,1,0,.07l0,.12c.11.45.42.56.33,1a.08.08,0,0,1,0,0h0a.64.64,0,0,1,.35.14l0,0,0,0,0,0h0l0,.07a.7.7,0,0,1-.31.71c-.14.12-.62,0-.87-.18,0,0,0,0-.05,0l0,0,0,0h0s0,0,0,.05h0l0,.06v0a.92.92,0,0,1,0,.86.72.72,0,0,1-.75.14h0a.24.24,0,0,1-.1-.1l0-.06a.61.61,0,0,1-.06-.37h0c-.43,0-.45-.34-.88-.56l-.1,0a.09.09,0,0,1-.06,0h0c-.08-.14.6-.4,1-.37a1.18,1.18,0,0,1,.79.21h0s0,0,0-.06l0,0s0,0,0-.05h0l0,0s0,0,0,0l0,0a1.43,1.43,0,0,1,0-.74C49.86,59.19,50.26,58.61,50.39,58.7Z"/><path class="cls-3" d="M47.92,60.57a.09.09,0,0,0,.06,0l.1,0-.09,0S47.93,60.59,47.92,60.57Z"/><path class="cls-3" d="M50,60.63l0,0Z"/><path class="cls-3" d="M51.15,60.09l0,0h0Z"/><path class="cls-3" d="M51.12,60.06a.64.64,0,0,0-.35-.14h0A.58.58,0,0,1,51.12,60.06Z"/><path class="cls-3" d="M50.41,58.71a.24.24,0,0,1,0,.07.5.5,0,0,0,0,.12l0-.12A.14.14,0,0,0,50.41,58.71Z"/><path class="cls-3" d="M51.2,60.15l0,.07Z"/><path class="cls-3" d="M49.6,60.22a.1.1,0,0,1,0,0h0Z"/><path class="cls-3" d="M49.05,59.86l.19.1.31.22-.3-.21a.62.62,0,0,0-.28-.11s0,0,0,0l0,0v0l0,0S49,59.85,49.05,59.86Z"/><path class="cls-3" d="M49.51,59.43h0s0,0,0,0h0a.78.78,0,0,0,0,.27,3.26,3.26,0,0,0,.16.51h0a5.19,5.19,0,0,1-.17-.52c0-.08,0-.16,0-.21s0,0,0-.06h0v0h0Z"/><path class="cls-3" d="M67.26,40.51s0,0,0,0h0a.19.19,0,0,1-.08.07,1,1,0,0,0-.17.1c-.6.41-.59.92-1.23,1h-.09a.89.89,0,0,1,0,.58.17.17,0,0,0,0,.05l0,.06,0,0v0l-.08.09a1.08,1.08,0,0,1-1.2-.07c-.25-.14-.37-.9-.19-1.37l0-.1,0-.06,0,0h0s0,0,0,0,0,0-.06,0h0l-.08.09,0,0c-.35.34-1.05.55-1.27.4s-.68-.65-.6-1h0a.42.42,0,0,1,.08-.2l.07-.09a1,1,0,0,1,.52-.29.25.25,0,0,1,0-.07c-.21-.62.26-.83.36-1.57,0-.06,0-.11,0-.17a.16.16,0,0,1,0-.11h0c.17-.2.91.66,1.08,1.26a1.9,1.9,0,0,1,.11,1.26h0c0-.06.06-.07.07-.07l0,0a.06.06,0,0,1,.07,0h0s0,0,0,0h0s0,0,0,.07l0,0s0,0,0,.09a2,2,0,0,1,1.08-.37C66.26,40,67.33,40.28,67.26,40.51Z"/><path class="cls-3" d="M63.22,37.9a.16.16,0,0,0,0,.11c0,.06,0,.11,0,.17a.86.86,0,0,1,0-.16A.17.17,0,0,1,63.22,37.9Z"/><path class="cls-3" d="M64.21,40.91l0,0Z"/><path class="cls-3" d="M65.64,42.34l0,0h0Z"/><path class="cls-3" d="M65.66,42.29a.89.89,0,0,0,0-.58h0A1,1,0,0,1,65.66,42.29Z"/><path class="cls-3" d="M67.25,40.54a.24.24,0,0,1-.09.08l-.16.09a1,1,0,0,1,.17-.1A.19.19,0,0,0,67.25,40.54Z"/><path class="cls-3" d="M65.57,42.46a.36.36,0,0,1-.08.09Z"/><path class="cls-3" d="M64.63,40.16l0,.1h0A1,1,0,0,1,64.63,40.16Z"/><path class="cls-3" d="M64.85,39.17a1.57,1.57,0,0,1,0,.32,3.83,3.83,0,0,1-.15.58,5.08,5.08,0,0,0,.14-.56c0-.24.06-.42,0-.46s0,0,0,0,0,0,0,0l0,0a.06.06,0,0,1,0,0S64.85,39.09,64.85,39.17Z"/><path class="cls-3" d="M65.72,39.6h0l0,0,0,0a1.17,1.17,0,0,0-.39.19,7.18,7.18,0,0,0-.65.5h0a8.25,8.25,0,0,1,.67-.52l.28-.17s.08,0,.1,0h0s0,0,0,0a0,0,0,0,0,0,0Z"/><path class="cls-3" d="M18.8,28.48h0a.76.76,0,0,1,0,.14,2,2,0,0,0-.06.23c-.15.87.3,1.3-.18,1.93a.13.13,0,0,1-.06.07h0a1,1,0,0,1,.49.52l0,.06,0,.07s0,0,0,.06v0a.66.66,0,0,1,0,.14c0,.48-.54.84-1.09,1-.33.09-1.09-.44-1.35-1a.5.5,0,0,1-.05-.13.19.19,0,0,1,0-.08s0,0,0-.06h0s0,0,0,0,0,.08,0,.08h0a.66.66,0,0,1,0,.14v0c0,.61-.41,1.39-.74,1.46a1.35,1.35,0,0,1-1.39-.34h0a.52.52,0,0,1-.1-.25.51.51,0,0,1,0-.13,1.05,1.05,0,0,1,.19-.69l-.09,0c-.73-.35-.52-.94-1.08-1.66l-.13-.16a.2.2,0,0,1-.07-.11v0c0-.32,1.34-.23,2,.13s.94.49,1.19,1a0,0,0,0,0,0,0c0-.08,0-.11,0-.12a.13.13,0,0,1,0-.05s0-.08,0-.09h0l0,0h.05a.13.13,0,0,1,.05.07.09.09,0,0,1,0,.05s0,0,0,.11a2.51,2.51,0,0,1,.6-1.27C17.5,28.91,18.65,28.21,18.8,28.48Z"/><path class="cls-3" d="M13.07,29.78a.2.2,0,0,0,.07.11l.13.16-.13-.15A.17.17,0,0,1,13.07,29.78Z"/><path class="cls-3" d="M16.54,31.48s0,0,0,.06A.14.14,0,0,1,16.54,31.48Z"/><path class="cls-3" d="M19,31.46s0,0,0,.06h0Z"/><path class="cls-3" d="M19,31.4a1,1,0,0,0-.49-.52h0A1.13,1.13,0,0,1,19,31.4Z"/><path class="cls-3" d="M18.82,28.5a.27.27,0,0,1,0,.15l-.06.22a2,2,0,0,1,.06-.23A.76.76,0,0,0,18.82,28.5Z"/><path class="cls-3" d="M19.06,31.62a.71.71,0,0,1,0,.14A.66.66,0,0,0,19.06,31.62Z"/><path class="cls-3" d="M16.24,30.47l.06.12h0Z"/><path class="cls-3" d="M15.57,29.43a2.64,2.64,0,0,1,.24.32c.12.18.25.4.38.62-.13-.22-.25-.42-.37-.59s-.32-.42-.39-.41,0,.05,0,.05l0-.05v-.06s0,0,0,.05S15.5,29.36,15.57,29.43Z"/><path class="cls-3" d="M16.69,29h0a.18.18,0,0,1,0,.05s0,0,0,0a1.36,1.36,0,0,0-.16.5,8.58,8.58,0,0,0-.12,1h0a9.31,9.31,0,0,1,.13-1,2.28,2.28,0,0,1,.09-.39.36.36,0,0,1,.06-.11h0s0,0,0,0,0,0,0,0Z"/><polygon class="cls-1" points="10.51 102.58 11.21 104 12.77 104.23 11.64 105.33 11.91 106.89 10.51 106.15 9.1 106.89 9.37 105.33 8.24 104.23 9.8 104 10.51 102.58"/><polygon class="cls-1" points="62.19 102.58 62.9 104 64.46 104.23 63.33 105.33 63.59 106.89 62.19 106.15 60.79 106.89 61.06 105.33 59.93 104.23 61.49 104 62.19 102.58"/><path class="cls-2" d="M18.91,102.71h1.55v.54H20v3.68h.46v.54H18.91v-.54h.48v-1.71H16.63v1.71h.48v.54H15.56v-.54H16v-3.68h-.45v-.54h1.55v.54h-.48v1.44h2.76v-1.44h-.48Z"/><path class="cls-2" d="M24.18,106.93h.39l-.38-1.08H22.36L22,106.93h.49v.54H20.94v-.54h.41l1.49-4.22h.92l1.48,4.22h.48v.54H24.18Zm-1.64-1.6H24l-.74-2.13Z"/><path class="cls-2" d="M26.2,102.71h1.93a1.83,1.83,0,0,1,.59.08,1.6,1.6,0,0,1,.47.24,1.12,1.12,0,0,1,.3.41,1.4,1.4,0,0,1,.11.56,1.21,1.21,0,0,1-.11.49,1.17,1.17,0,0,1-.3.4,1.37,1.37,0,0,1-.47.28,1.89,1.89,0,0,1-.6.1h-.85v1.66h.48v.54H26.2v-.54h.46v-3.68H26.2Zm1.07.54v1.5h.86a1.14,1.14,0,0,0,.33,0,.72.72,0,0,0,.26-.14.61.61,0,0,0,.17-.24A.79.79,0,0,0,29,104a.71.71,0,0,0-.21-.55,1,1,0,0,0-.69-.2Z"/><path class="cls-2" d="M30.21,102.71h1.92a1.83,1.83,0,0,1,.59.08,1.6,1.6,0,0,1,.47.24,1.12,1.12,0,0,1,.3.41,1.25,1.25,0,0,1,.11.56,1.06,1.06,0,0,1-.11.49,1.17,1.17,0,0,1-.3.4,1.42,1.42,0,0,1-.46.28,2,2,0,0,1-.61.1h-.85v1.66h.48v.54H30.21v-.54h.45v-3.68h-.45Zm1.06.54v1.5h.86a1.14,1.14,0,0,0,.33,0,.72.72,0,0,0,.26-.14.61.61,0,0,0,.17-.24A.79.79,0,0,0,33,104a.71.71,0,0,0-.21-.55,1,1,0,0,0-.69-.2Z"/><path class="cls-2" d="M33.92,102.71h1.54v.54H35l.9,1.53,1-1.53h-.5v-.54h1.55v.54h-.41l-1.34,2v1.65h.49v.54H35.11v-.54h.44v-1.66l-1.26-2h-.37Z"/><path class="cls-2" d="M40.85,106.93h.44v-3.71H40.2V104h-.65v-1.25H43.8V104h-.64v-.74H41.9v3.71h.49v.54H40.85Z"/><path class="cls-2" d="M44.38,102.71H45.9v.54h-.45v3.68h.45v.54H44.38v-.54h.46v-3.68h-.46Z"/><path class="cls-2" d="M46.8,106.93h.46v-3.62H46.8v-.6h1.51l1.52,4.11,1.53-4.11h1.43v.6h-.45v3.62h.45v.54H51.24v-.54h.51v-3.66l-1.67,4.2h-.53l-1.69-4.21v3.67h.49v.54H46.8Z"/><path class="cls-2" d="M53.69,102.71H57.1v1.35h-.64v-.81h-1.7v1.53h1.43v.54H54.76v1.61h1.7v-.8h.64v1.34H53.69v-.54h.45v-3.68h-.45Z"/></g></g></svg>