<svg xmlns="http://www.w3.org/2000/svg" viewBox="0 0 72.7 67.9"><defs><style>.cls-1{fill:#324b58;}.cls-2{fill:#fff;}.cls-3{fill:#ff7c96;}</style></defs><title>Holidays-10</title><g id="Calque_2" data-name="Calque 2"><g id="Planche_Vacance_-_12" data-name="Planche Vacance - 12"><path class="cls-1" d="M62.15,21.93A43.23,43.23,0,0,1,56.88,24c-1.27.4-2.59.77-4,1.11l-1.27.29A81.24,81.24,0,0,1,34.4,27.17c-2.3,0-4.56-.09-6.74-.26l-.54,0c-2.51-.21-4.93-.53-7.23-.94l-1-.19a58.09,58.09,0,0,1-6.27-1.54l-1-.33c-.82-.27-1.61-.55-2.38-.85s-1.8-.73-2.63-1.13c.12-.36.24-.74.42-1.19.67-1.63.86-2.93,2.39-4.41a51.92,51.92,0,0,0,5.21-5.52,60.89,60.89,0,0,1,4-5.31c1.27,1.52,2.8,3.7,4.07,5a20.27,20.27,0,0,0,3.66,3.39c1.28.79,2,1,3.16,1.66A15.63,15.63,0,0,0,32.26,9.6c.21-1.74.74-2.85,1.8-3.53s1.37-.57,2.08-1.34A15.41,15.41,0,0,0,38,2.09,10.86,10.86,0,0,0,38.76,0c.76.77,1.62,1.53,2.39,2.27a17,17,0,0,1,2,2.15,11.8,11.8,0,0,1,1.69,2.42,6.5,6.5,0,0,0,2.79,3.48,42.73,42.73,0,0,1,5.62,2.93c1.37,1,1.63,1.65,3,2.61a21.79,21.79,0,0,1,4,3.86Z"/><path class="cls-2" d="M62.15,21.93A43.23,43.23,0,0,1,56.88,24l-.27-.48a49.45,49.45,0,0,0-2.85-4.71,37.29,37.29,0,0,0-3-3c-.81-.89-1.08-1.44-1.93-1.91s-1.49-.54-2.31-.93a9.66,9.66,0,0,0,1.68,3c.79.78,1.25,1.32,2.09,2.05s1.88,1.64,2.65,2.48a20.22,20.22,0,0,0-2.49-1.32c-.63-.21-1.22-.59-1.59-.2s.35.74.62,1.26a13.78,13.78,0,0,0,1.41,1.94,27.43,27.43,0,0,1,1.85,2.54l.21.37-1.27.29c-.19-.22-.37-.43-.54-.65-.72-.9-1.38-1.21-2.13-2.27s-1.87-2.85-2.68-4S45,16.41,44.13,15.33s-2-2.67-2.84-3.57A17.85,17.85,0,0,1,39.6,9.63,19.32,19.32,0,0,1,37,12.49c-.88.86-1.14,2.62-1.45,3.49s-.28.42-.68,1a3.41,3.41,0,0,1,.09-1.3,18.59,18.59,0,0,0,.66-2.18,7,7,0,0,1,.58-1.83,5.3,5.3,0,0,0,.67-1.86c0-.61-.11-1-.11-1.56-.81.5-1.47.65-1.91,1.61a19.36,19.36,0,0,0-1.26,3.06,17.14,17.14,0,0,1-.94,3.73,8.73,8.73,0,0,0-1,3.26,18.61,18.61,0,0,1-.33,3,5.45,5.45,0,0,1-1.52,2.48c-.64.6-1.56,1.06-2.08,1.57l-.54,0A11.32,11.32,0,0,1,28,25.39c.51-.67.85-1,1.32-1.57a4.34,4.34,0,0,0,1.15-1.77,13.92,13.92,0,0,0,.16-1.9,20,20,0,0,1-1.83,1.92,1.28,1.28,0,0,1-1,.46,24.24,24.24,0,0,0,1.4-2.25,7.17,7.17,0,0,0,.63-1.88c.11-.59.11-.81.25-1.32a6.19,6.19,0,0,0-1.85,1.57c-.51.75-.87,1.79-1.34,2.6a6.42,6.42,0,0,1-1.78,2,9.48,9.48,0,0,1-2.44,1.37,10.5,10.5,0,0,0-2.55,1.18l-.23.17-1-.19a14.08,14.08,0,0,0,1.46-.91c.91-.67,1.14-1.12,2-1.48a4,4,0,0,0,2-1.2,9.33,9.33,0,0,0,1.39-2.91c.18-.78.22-1.28.4-1.79s.3-.41.47-.82a4.09,4.09,0,0,1-2-.68c-.62-.43-1-1.16-1.78-1.38s-1-.75-1.93-.44a6,6,0,0,0-2.72,2.13c-.71,1-1.71,2.91-2.43,3.81s-1.29,1.42-1.89,2.07a7.17,7.17,0,0,0-1,1.81l-.16.25-1-.33a17.65,17.65,0,0,1,1.18-1.63,8.92,8.92,0,0,0,1.74-2.71c.23-.93.29-1.73.56-2.47s.62-1.6.84-2.14.27-.47.43-.88a15.54,15.54,0,0,0-3.71,2.83,16,16,0,0,1-2,2.39c-.75.63-.6,1-.84,1.81A8.88,8.88,0,0,1,9.19,23c-.92-.36-1.8-.73-2.63-1.13.12-.36.24-.74.42-1.19.67-1.63.86-2.93,2.39-4.41a51.92,51.92,0,0,0,5.21-5.52,60.89,60.89,0,0,1,4-5.31c1.27,1.52,2.8,3.7,4.07,5a20.27,20.27,0,0,0,3.66,3.39c1.28.79,2,1,3.16,1.66A15.63,15.63,0,0,0,32.26,9.6c.21-1.74.74-2.85,1.8-3.53s1.37-.57,2.08-1.34A15.41,15.41,0,0,0,38,2.09,10.86,10.86,0,0,0,38.76,0c.76.77,1.62,1.53,2.39,2.27a17,17,0,0,1,2,2.15,11.8,11.8,0,0,1,1.69,2.42,6.5,6.5,0,0,0,2.79,3.48,42.73,42.73,0,0,1,5.62,2.93c1.37,1,1.63,1.65,3,2.61a21.79,21.79,0,0,1,4,3.86Z"/><path class="cls-3" d="M5.14,27.69c1.41.43,2.16.63,3.69,1v4.51l-.93-.15V49.21l.93-.15v4.49c-1.53.39-2.28.59-3.69,1V49.72L6,49.55V42.8L2.37,43V50.3l.82-.18V55.2c-1.34.46-2,.7-3.19,1.21V50.89l.74-.19V31.62L0,31.43V25.9c1.21.49,1.85.73,3.19,1.18v5.1L2.37,32v6c1.38.11,2.11.16,3.64.25V32.73l-.87-.16Z"/><path class="cls-3" d="M14.5,52.73a2,2,0,0,1-1.27-.17,3.32,3.32,0,0,1-1.11-1,7.42,7.42,0,0,1-.92-1.74,14.47,14.47,0,0,1-.7-2.41,26.13,26.13,0,0,1-.44-2.94,35.15,35.15,0,0,1,0-6.7,26.51,26.51,0,0,1,.44-3,15.05,15.05,0,0,1,.7-2.41,7.42,7.42,0,0,1,.92-1.74,3.32,3.32,0,0,1,1.11-1,2,2,0,0,1,1.27-.18,3,3,0,0,1,1.3.64A6.39,6.39,0,0,1,17,31.44a10.36,10.36,0,0,1,1,1.85,17.55,17.55,0,0,1,.78,2.29,20.58,20.58,0,0,1,.51,2.64,24.41,24.41,0,0,1,.17,2.89A24.2,24.2,0,0,1,19.26,44a20.58,20.58,0,0,1-.51,2.64A17.06,17.06,0,0,1,18,48.91a10.83,10.83,0,0,1-1,1.86,7,7,0,0,1-1.17,1.32A3,3,0,0,1,14.5,52.73Zm0-4.65a1.54,1.54,0,0,0,1-.66,5.29,5.29,0,0,0,.83-1.54,12,12,0,0,0,.54-2.18,16.52,16.52,0,0,0,.19-2.59,16.69,16.69,0,0,0-.19-2.61,11.74,11.74,0,0,0-.55-2.18,5.36,5.36,0,0,0-.83-1.55,1.56,1.56,0,0,0-1-.65,1.14,1.14,0,0,0-1,.44A4.2,4.2,0,0,0,12.69,36a12,12,0,0,0-.51,2.27A19.34,19.34,0,0,0,12,41.12a18.92,18.92,0,0,0,.19,2.79,11.87,11.87,0,0,0,.51,2.26,4.2,4.2,0,0,0,.79,1.47A1.14,1.14,0,0,0,14.5,48.08Z"/><path class="cls-3" d="M20.82,30.85c1.82.22,2.76.32,4.66.48v3.54l-1.17-.06v12.6c1-.06,1.44-.09,2.42-.13a.29.29,0,0,0,.19-.11.77.77,0,0,0,.16-.25,2,2,0,0,0,.12-.34,1.37,1.37,0,0,0,0-.34V43.65l2.43,0v7c-3.66.2-5.45.36-8.85.78V47.65l1.11-.08V34.65l-1.11-.08Z"/><path class="cls-3" d="M30.69,31.66c2,.1,3,.12,5,.15v3.35H34.45V47H35.7v3.36c-2,0-3,0-5,.14V47.12l1.2,0v-12l-1.2,0Z"/><path class="cls-3" d="M36.73,31.81c1.83,0,2.72,0,4.49,0a3.58,3.58,0,0,1,1.52.29,4.54,4.54,0,0,1,1.34.89,6.82,6.82,0,0,1,1.12,1.42,9.65,9.65,0,0,1,.85,1.89,13.47,13.47,0,0,1,.55,2.27,17.27,17.27,0,0,1,0,5.11,13.71,13.71,0,0,1-.55,2.27,9.84,9.84,0,0,1-.85,1.91,6.71,6.71,0,0,1-1.12,1.44,4.78,4.78,0,0,1-1.34.9,3.57,3.57,0,0,1-1.52.28c-1.77,0-2.66-.06-4.49,0V47h1V35.18h-1Zm3.51,3.35V47l1,0a1.74,1.74,0,0,0,1.16-.45,4,4,0,0,0,1-1.26A8.55,8.55,0,0,0,44,43.44a11.76,11.76,0,0,0,.23-2.37A11.63,11.63,0,0,0,44,38.72a8.37,8.37,0,0,0-.63-1.89,3.92,3.92,0,0,0-1-1.25,1.76,1.76,0,0,0-1.16-.43Z"/><path class="cls-3" d="M53.61,47.64l1,.09c-.19-1.21-.28-1.81-.47-3l-3.26-.13c-.19,1.14-.29,1.7-.49,2.83l1.14.07v3.62c-1.62-.17-2.45-.25-4.13-.37V47.26l.82,0c1.2-6.3,1.79-9.52,3-16.17,1.14-.11,1.7-.18,2.81-.32,1.11,6.61,1.66,10,2.74,17.11l.73.07v3.9c-1.52-.24-2.3-.35-3.89-.55Zm-2.13-6.41h2.14c-.43-2.67-.64-4-1.07-6.58C52.12,37.32,51.91,38.63,51.48,41.23Z"/><path class="cls-3" d="M57,30.41c1.73-.26,2.58-.4,4.22-.72v4.15l-.81.09c.52,2,.77,3,1.28,5.14.54-2.14.81-3.23,1.33-5.46l-.89.11V29.51c1.61-.32,2.4-.5,3.9-.87v4.53l-.65.1c-1.06,4.14-1.61,6.1-2.72,9.84V48.6l1.13.16v4.32c-1.64-.37-2.49-.54-4.23-.85v-4l1.07.13V43c-1.08-3.66-1.63-5.41-2.75-8.77l-.88.08Z"/><path class="cls-3" d="M70.88,35.07a8.67,8.67,0,0,0-.13-1.19,5.55,5.55,0,0,0-.26-.93,1.87,1.87,0,0,0-.36-.57.47.47,0,0,0-.43-.15.75.75,0,0,0-.38.22,1.38,1.38,0,0,0-.31.49,3.89,3.89,0,0,0-.22.78,7,7,0,0,0-.08,1.1,5.61,5.61,0,0,0,.11,1.23,2.74,2.74,0,0,0,.27.74,1.37,1.37,0,0,0,.37.44,4.27,4.27,0,0,1,.38.36c.59.62.87.93,1.44,1.59a3.88,3.88,0,0,1,.54,1,8.86,8.86,0,0,1,.43,1.6,21.6,21.6,0,0,1,.29,2.2c.07.83.1,1.77.1,2.8a33.32,33.32,0,0,1-.2,3.8,14.81,14.81,0,0,1-.56,2.8A3.8,3.8,0,0,1,71,55a1.13,1.13,0,0,1-1.18.26,2.1,2.1,0,0,1-.89-.62,5.14,5.14,0,0,1-.77-1.21,9.93,9.93,0,0,1-.63-1.66,14.39,14.39,0,0,1-.42-2.06l-.59-.11v-5l2,.16v1.08a13.07,13.07,0,0,0,.08,1.45,8.31,8.31,0,0,0,.24,1.19,2.79,2.79,0,0,0,.4.83.91.91,0,0,0,.55.38c.32.07.56-.13.72-.61a8.24,8.24,0,0,0,.16-3.23,4.24,4.24,0,0,0-.22-.81,2.47,2.47,0,0,0-.31-.56q-.16-.23-.33-.42c-.49-.56-.73-.83-1.24-1.37a4.19,4.19,0,0,1-.69-1,7.4,7.4,0,0,1-.6-1.53A13.24,13.24,0,0,1,66.87,38a20.48,20.48,0,0,1-.16-2.75A21.35,21.35,0,0,1,66.94,32a12.84,12.84,0,0,1,.63-2.55,6.66,6.66,0,0,1,1-1.77,2.61,2.61,0,0,1,1.18-.89,1.07,1.07,0,0,1,.91.09,2.38,2.38,0,0,1,.73.82,5.94,5.94,0,0,1,.53,1.38,12.33,12.33,0,0,1,.34,1.73l.49-.13v5.79l-1.82.19Z"/><polygon class="cls-3" points="10.51 63.01 11.21 64.43 12.77 64.66 11.64 65.76 11.91 67.32 10.51 66.58 9.1 67.32 9.37 65.76 8.24 64.66 9.8 64.43 10.51 63.01"/><polygon class="cls-3" points="62.19 63.01 62.9 64.43 64.46 64.66 63.33 65.76 63.59 67.32 62.19 66.58 60.79 67.32 61.06 65.76 59.93 64.66 61.49 64.43 62.19 63.01"/><path class="cls-2" d="M18.91,63.14h1.55v.54H20v3.68h.46v.54H18.91v-.54h.48V65.65H16.63v1.71h.48v.54H15.56v-.54H16V63.68h-.45v-.54h1.55v.54h-.48v1.44h2.76V63.68h-.48Z"/><path class="cls-2" d="M24.18,67.36h.39l-.38-1.08H22.36L22,67.36h.49v.54H20.94v-.54h.41l1.49-4.22h.92l1.48,4.22h.48v.54H24.18Zm-1.64-1.6H24l-.74-2.13Z"/><path class="cls-2" d="M26.2,63.14h1.93a1.83,1.83,0,0,1,.59.08,1.6,1.6,0,0,1,.47.24,1.12,1.12,0,0,1,.3.41,1.4,1.4,0,0,1,.11.56,1.21,1.21,0,0,1-.11.49,1.17,1.17,0,0,1-.3.4,1.37,1.37,0,0,1-.47.28,1.89,1.89,0,0,1-.6.1h-.85v1.66h.48v.54H26.2v-.54h.46V63.68H26.2Zm1.07.54v1.5h.86a1.14,1.14,0,0,0,.33-.05.72.72,0,0,0,.26-.14.61.61,0,0,0,.17-.24.79.79,0,0,0,.06-.32.71.71,0,0,0-.21-.55,1,1,0,0,0-.69-.2Z"/><path class="cls-2" d="M30.21,63.14h1.92a1.83,1.83,0,0,1,.59.08,1.6,1.6,0,0,1,.47.24,1.12,1.12,0,0,1,.3.41,1.25,1.25,0,0,1,.11.56,1.06,1.06,0,0,1-.11.49,1.17,1.17,0,0,1-.3.4,1.42,1.42,0,0,1-.46.28,2,2,0,0,1-.61.1h-.85v1.66h.48v.54H30.21v-.54h.45V63.68h-.45Zm1.06.54v1.5h.86a1.14,1.14,0,0,0,.33-.05.72.72,0,0,0,.26-.14.61.61,0,0,0,.17-.24.79.79,0,0,0,.06-.32.71.71,0,0,0-.21-.55,1,1,0,0,0-.69-.2Z"/><path class="cls-2" d="M33.92,63.14h1.54v.54H35l.9,1.53,1-1.53h-.5v-.54h1.55v.54h-.41l-1.34,2v1.65h.49v.54H35.11v-.54h.44V65.7l-1.26-2h-.37Z"/><path class="cls-2" d="M40.85,67.36h.44V63.65H40.2v.74h-.65V63.14H43.8v1.25h-.64v-.74H41.9v3.71h.49v.54H40.85Z"/><path class="cls-2" d="M44.38,63.14H45.9v.54h-.45v3.68h.45v.54H44.38v-.54h.46V63.68h-.46Z"/><path class="cls-2" d="M46.8,67.36h.46V63.74H46.8v-.6h1.51l1.52,4.11,1.53-4.11h1.43v.6h-.45v3.62h.45v.54H51.24v-.54h.51V63.7l-1.67,4.2h-.53l-1.69-4.21v3.67h.49v.54H46.8Z"/><path class="cls-2" d="M53.69,63.14H57.1v1.35h-.64v-.81h-1.7v1.53h1.43v.54H54.76v1.61h1.7v-.8h.64V67.9H53.69v-.54h.45V63.68h-.45Z"/></g></g></svg>