<svg xmlns="http://www.w3.org/2000/svg" viewBox="0 0 63.15 97.53"><defs><style>.cls-1{fill:#ff7c96;}.cls-2{fill:#eeefef;}.cls-3{fill:#b6dffc;}.cls-4{fill:#324b58;}.cls-5{fill:#fff;}</style></defs><title>Saisons-07</title><g id="Calque_2" data-name="Calque 2"><g id="Planche_Vacance_-_25" data-name="Planche Vacance - 25"><path class="cls-1" d="M4,83l.76-.15c-.14-1.28-.21-1.92-.35-3.23l-2.26.26C2,81.29,2,82,1.84,83.45l.75-.17v4.36C1.5,88,1,88.22,0,88.63V83.91l.49-.13C1.06,77,1.67,70.22,2.36,63.45c.75.27,1.14.4,1.94.66C5,70.26,5.63,76.41,6.39,82.55l.58-.1v3.87c-1.24.32-1.83.49-3,.85ZM2.53,75.74H4c-.31-3-.46-4.55-.76-7.69C3,71.06,2.81,72.6,2.53,75.74Z"/><path class="cls-1" d="M7.37,65c1.32.34,2,.5,3.43.79v3.57l-.8-.11v8.3a13.08,13.08,0,0,0,.11,1.92,5,5,0,0,0,.31,1.25,1.52,1.52,0,0,0,.49.67.83.83,0,0,0,.61.15,1.17,1.17,0,0,0,.64-.26,1.65,1.65,0,0,0,.5-.69A4.72,4.72,0,0,0,13,79.34a12.84,12.84,0,0,0,.11-1.91v-7.8l-1-.11V66.05c1.46.27,2.21.39,3.74.62v3.25l-.76-.08v7.07a17.74,17.74,0,0,1-.29,3.42A11.89,11.89,0,0,1,14,83a5.89,5.89,0,0,1-1.15,1.78,2.73,2.73,0,0,1-1.39.83,1.66,1.66,0,0,1-1.34-.31,3.56,3.56,0,0,1-1.07-1.51,11.61,11.61,0,0,1-.7-2.68,24.47,24.47,0,0,1-.26-3.74V69l-.75-.12Z"/><path class="cls-1" d="M18.71,81.12l1-.07V70.11L18.54,70v2.23l-2.11-.1v-5.4a87.15,87.15,0,0,0,9.24.83v4.9l-2.27,0V70.31L22,70.24V80.93l1.09-.05v3c-1.77.13-2.65.2-4.35.39Z"/><path class="cls-1" d="M26.24,67.6c1.71.07,2.58.09,4.34.1v2.88h-1v6.6a6.76,6.76,0,0,0,.14,1.53,3.17,3.17,0,0,0,.39,1,1.65,1.65,0,0,0,.6.58,1.6,1.6,0,0,0,.75.18,1.87,1.87,0,0,0,.76-.15,1.37,1.37,0,0,0,.59-.54,3.08,3.08,0,0,0,.37-1,8,8,0,0,0,.13-1.61V70.56H32.17V67.69c1.72,0,2.57,0,4.24-.13v2.93l-.83,0v6.26a13,13,0,0,1-.32,3,7.17,7.17,0,0,1-.88,2.2,3.89,3.89,0,0,1-1.32,1.35,3.11,3.11,0,0,1-1.64.46,3.28,3.28,0,0,1-1.66-.47A4.05,4.05,0,0,1,28.43,82a7,7,0,0,1-.89-2.14A11.54,11.54,0,0,1,27.21,77V70.54l-1,0Z"/><path class="cls-1" d="M37.66,80.84l1,0V70.4l-1,0v-3c1.7-.11,2.53-.18,4.16-.34,1,4.11,2,8.25,2.87,12.39Q46.06,73,47.26,66.43c1.55-.25,2.3-.39,3.75-.69v3.58l-.82.11V81.82l.81.1v3.57c-1.3-.27-2-.39-3.35-.61V81.53l.63.07V70.83c-.89,4.51-1.79,9-2.78,13.51l-1.78-.22q-1.41-6.24-3-12.44V81l.75,0v3c-1.5-.14-2.26-.2-3.81-.29Z"/><path class="cls-1" d="M57.33,64.09c1.13-.36,1.68-.55,2.71-1v4.52l-.56.13v20c-.6-.22-.92-.32-1.56-.53-1-5-2-9.89-3.2-14.82v10l.67.11v4c-1.2-.33-1.82-.48-3.1-.77V82.09l.69.1V69l-.68.1V65.46c1-.24,1.52-.36,2.49-.62C56,69.6,57,74.4,58,79.22V68.13l-.63.14Z"/><path class="cls-2" d="M32.6,40.28s0,0,0,0h-.19a.11.11,0,0,1,.11-.07A.16.16,0,0,1,32.6,40.28Z"/><path class="cls-3" d="M29.47,28.8a.39.39,0,0,1-.15.1,2.61,2.61,0,0,1-.28,0A.37.37,0,0,1,29.47,28.8Z"/><path class="cls-3" d="M30,25.48c-.06.15-.15.31-.21.33s-.12,0-.16-.08Z"/><path class="cls-3" d="M30.17,29.76c-.15.09-.26.23-.45.22s-.19.15-.28.22l-.32-.33c0-.05.06,0,.08,0a.49.49,0,0,0,.47,0,.48.48,0,0,1,.18,0,.32.32,0,0,1,0-.09.06.06,0,0,1,0-.09A.27.27,0,0,1,30.17,29.76Z"/><path class="cls-3" d="M30.2,25.06c0,.13,0,.18-.09.17l-.27-.11.28-.07Z"/><path class="cls-3" d="M30.31,29.23l-.11,0-.26,0c-.09,0-.09,0-.07-.16Z"/><path class="cls-3" d="M30.32,26.42,30,26.3a.21.21,0,0,1,.27,0S30.3,26.35,30.32,26.42Z"/><path class="cls-3" d="M30.78,34c0,.1-.07.2-.19.19a.3.3,0,0,0-.32.17l-.09.06s0-.08,0-.1l.14-.16s0-.06.06-.06S30.64,34,30.78,34Z"/><path class="cls-3" d="M30.78,30.18l-.25-.06.11-.07C30.72,30,30.76,30.06,30.78,30.18Z"/><path class="cls-3" d="M30.84,26c-.07,0-.1.06-.12.05a.68.68,0,0,1-.12-.12s0-.05,0-.08h.06Z"/><path class="cls-3" d="M30.94,30.68c0,.06,0,.09,0,.11a.17.17,0,0,1-.23.05A1.6,1.6,0,0,1,30.94,30.68Z"/><path class="cls-3" d="M31,29.35v.06s0,0,0,0a.87.87,0,0,0-.48,0s0,0-.1,0a.86.86,0,0,1,.48-.15S31,29.31,31,29.35Z"/><path class="cls-3" d="M31.18,25.51c-.16.15-.19.16-.4,0,0,0,.06,0,.08,0Z"/><path class="cls-3" d="M31.27,30.08a.11.11,0,0,1-.16-.06,1,1,0,0,0-.31-.39l.33.08C31.17,29.83,31.27,29.94,31.27,30.08Z"/><path class="cls-3" d="M31.45,26.54c-.09.1-.17.18-.24.27s-.11.17-.16.25-.19,0-.23-.16a.46.46,0,0,0,.33-.24C31.2,26.54,31.31,26.53,31.45,26.54Z"/><path class="cls-3" d="M32.05,29l-.16.1s0,0-.05,0l-.11,0c0-.1.11-.1.17-.11S32.07,29,32.05,29Z"/><path class="cls-3" d="M32.5,35.57l-.09.18c-.08,0-.14-.1-.06-.18S32.43,35.57,32.5,35.57Z"/><path class="cls-3" d="M32.84,29.42v0l-.4,0c0-.05,0-.09,0-.16Z"/><path class="cls-3" d="M33.9,36.33c-.12.16-.22.29-.33.45l-.1,0a.3.3,0,0,1-.07-.08.38.38,0,0,0,.26-.23C33.7,36.33,33.79,36.34,33.9,36.33Z"/><path class="cls-3" d="M33.92,30.19l-.1.13c-.1,0-.17-.08-.15-.2A.3.3,0,0,1,33.92,30.19Z"/><path class="cls-3" d="M34,30.64s0,.05,0,.05h-.16c0-.06,0-.1,0-.16Z"/><path class="cls-3" d="M34.34,32.08c-.11,0-.22-.09-.16-.25C34.32,32,34.32,32,34.34,32.08Z"/><path class="cls-3" d="M34.62,29.65c-.08.14-.11.14-.22,0Z"/><path class="cls-3" d="M34.66,32.1c-.11.08-.19,0-.28,0A.28.28,0,0,1,34.66,32.1Z"/><path class="cls-3" d="M35.19,25.77a1.35,1.35,0,0,0-.27.61.21.21,0,0,1,0,.07.09.09,0,0,1-.12-.06.25.25,0,0,0,0-.07c0-.08,0-.14-.06-.21s.14-.14.22-.2a2.13,2.13,0,0,0,.22-.21S35.2,25.75,35.19,25.77Z"/><path class="cls-3" d="M35.3,29.91c-.14.15-.16.15-.35,0C35.08,29.85,35.19,29.91,35.3,29.91Z"/><path class="cls-3" d="M35.41,26.2l-.19.47a.29.29,0,0,1-.23-.1s0-.05,0-.06A1.29,1.29,0,0,1,35.41,26.2Z"/><path class="cls-3" d="M35.5,24.68c0,.21-.18.25-.2.43L35,24.63C35.17,24.62,35.32,24.78,35.5,24.68Z"/><path class="cls-3" d="M35.59,25.63s0,.05-.18.06c0-.07,0-.14,0-.19s.06,0,.07,0S35.6,25.56,35.59,25.63Z"/><path class="cls-3" d="M35.73,27.4c-.16-.1-.16-.1-.16-.21C35.65,27.25,35.8,27.23,35.73,27.4Z"/><path class="cls-3" d="M36.06,32.27a1.39,1.39,0,0,1-.46,0c-.07-.11-.16-.21-.07-.39l.32.05c0-.09-.06-.14-.11-.2a.42.42,0,0,0-.28-.17.25.25,0,0,1-.2-.18c0-.12.18-.06.27-.13l-.09-.1-.2-.11c0-.08.06-.07.09-.07a.7.7,0,0,0,.48-.16s0,0,.07,0-.25.27-.23.48h.15a.48.48,0,0,0,.24.37A3.29,3.29,0,0,1,36.06,32.27Z"/><path class="cls-3" d="M36.07,36.25v1.28a.88.88,0,0,1,0,.17h0a12.85,12.85,0,0,0-1.22-1.11v0a.2.2,0,0,0,0,0l.13,0c0-.06,0-.14.08-.18a.46.46,0,0,1,.22-.11.48.48,0,0,1,.21,0c.06-.11,0-.27.14-.37l.12.12.12-.14A.54.54,0,0,1,36.07,36.25Z"/><path class="cls-3" d="M36.05,33a.92.92,0,0,1-.37,0c-.16-.18,0-.33,0-.52l.33,0A.74.74,0,0,1,36.05,33Z"/><path class="cls-3" d="M30.31,39.25l.29,0a.41.41,0,0,1,0,.09C30.45,39.38,30.45,39.37,30.31,39.25Z"/><path class="cls-3" d="M33,39.46s0-.05,0-.05l.15-.15c0,.05.07.08.07.11A.16.16,0,0,1,33,39.46Z"/><path class="cls-3" d="M33.53,39.84c0,.06,0,.11,0,.16L33,40C33.2,39.85,33.2,39.85,33.53,39.84Z"/><path class="cls-3" d="M36.45,26.66a2.44,2.44,0,0,1-.19.44.11.11,0,0,1-.08,0,.17.17,0,0,1-.06-.1s0,0,0,0a.49.49,0,0,0,.16-.29C36.32,26.62,36.38,26.61,36.45,26.66Z"/><path class="cls-3" d="M36.66,26.2c0,.17,0,.17-.25.08Z"/><path class="cls-3" d="M37,29.55l-.36.14c-.07-.06,0-.11,0-.13a.84.84,0,0,1,.2-.08S36.94,29.51,37,29.55Z"/><path class="cls-3" d="M37,34.83l-.21-.16C37,34.66,37,34.66,37,34.83Z"/><path class="cls-3" d="M37.13,33a1.64,1.64,0,0,1-.5,0,1.48,1.48,0,0,1,0-.21C36.93,32.7,37,32.73,37.13,33Z"/><path class="cls-3" d="M37.34,32.23a.43.43,0,0,1-.23-.1C37.31,32.07,37.33,32.08,37.34,32.23Z"/><path class="cls-3" d="M37.13,27.11l.19,0-.33.3a3.55,3.55,0,0,1-.58-.22,2.7,2.7,0,0,1,.23-.58l.19,0,.52.2C37.31,26.93,37.17,27,37.13,27.11Z"/><path class="cls-3" d="M37.48,33.41c-.1.13-.1.13-.21,0Z"/><path class="cls-3" d="M37.56,32.4a.23.23,0,0,1-.21-.17l.22,0C37.63,32.29,37.6,32.33,37.56,32.4Z"/><path class="cls-3" d="M38.44,32.49l-.29-.09C38.29,32.33,38.29,32.33,38.44,32.49Z"/><path class="cls-3" d="M29.72,20.82c0,.09-.08.12-.16.13C29.53,20.79,29.54,20.78,29.72,20.82Z"/><path class="cls-3" d="M31.54,19.13s0,0,0,.07l-.19,0a1.75,1.75,0,0,0-.11-.24l.19-.05s0,0,0,0Z"/><path class="cls-3" d="M31.85,22.69l-.15-.05s0-.06,0-.07.06-.08.19-.13S31.89,22.59,31.85,22.69Z"/><path class="cls-3" d="M31.94,23.56a.29.29,0,0,1-.24-.11C31.92,23.41,31.93,23.42,31.94,23.56Z"/><path class="cls-3" d="M32.21,23.58a.75.75,0,0,0,0,.16.25.25,0,0,1-.22-.18A.39.39,0,0,1,32.21,23.58Z"/><path class="cls-3" d="M34.28,18.7c0,.06-.08.05-.22,0Z"/><path class="cls-3" d="M37.45,19.61v.26h-.12a.55.55,0,0,0-.5,0s0,0-.06,0,.07-.13.15-.14.34-.06.51-.09Z"/><path class="cls-3" d="M37.66,20.45a.15.15,0,0,1,0,.08h-.06l-.07-.05a.62.62,0,0,0-.38-.33c.09-.07.16-.08.23,0l.23.2A.34.34,0,0,1,37.66,20.45Z"/><path class="cls-3" d="M39.07,21.72l-.06.11-.07,0c-.2,0-.31-.22-.47-.32s0,0,0-.23a.26.26,0,0,1,.35.08Z"/><path class="cls-3" d="M39.1,20.88l-.13.18a.8.8,0,0,1-.58-.38l.21-.15c0,.11.06.19.08.29s.16-.14.29-.11A1.47,1.47,0,0,1,39.1,20.88Z"/><path class="cls-3" d="M39.77,22.77l-.06,0-.28-.05C39.59,22.68,39.69,22.68,39.77,22.77Z"/><path class="cls-3" d="M36.14,40.07a8,8,0,0,1-1.31.23c-.13-.15-.32-.13-.46-.21a1.14,1.14,0,0,0-.16-.45.5.5,0,0,0-.62-.32.24.24,0,0,1-.25-.07c.1-.3.1-.33-.2-.42l-.09,0c-.17,0-.23,0-.28.23a0,0,0,0,1,0,0,3.15,3.15,0,0,0-.36.09A.3.3,0,0,1,32,39a.9.9,0,0,0,.22,0l.25,0,.21,0a.39.39,0,0,0-.26-.2c-.15-.07-.28,0-.39.06s-.48-.25-.7,0c-.14-.07-.25-.14-.37-.19s-.22,0-.34.17.12.11.2.1.2,0,.3,0a.25.25,0,0,1,.25.1.46.46,0,0,0-.5.28c-.07-.07-.1-.14-.15-.19a.35.35,0,0,0-.35-.14.83.83,0,0,1-.49-.05V39a.72.72,0,0,0-.35.38c-.09,0-.17,0-.22.06l-.08,0A10.85,10.85,0,0,1,30.91,19l-.23.24c-.08.05-.13-.09-.22,0a1,1,0,0,1,0,.25c0,.06-.08.11-.1.18a1,1,0,0,0,0,.24l-.23-.07a.36.36,0,0,0-.32.05c-.14.08-.14.09-.08.27,0,0,0,.05,0,.09l-.26,0c.14.18.06.31-.06.43a1.15,1.15,0,0,0-.63-.1.31.31,0,0,0,0,.07.35.35,0,0,0,.05.08l-.08.05c-.2.07-.23.11-.19.31s.07.34.11.51c0,0,0,0,0,0s.08-.11.16-.06-.13.22-.05.35.21-.11.32,0-.08.11,0,.17a2.3,2.3,0,0,1,.42-.07.9.9,0,0,0,.51-.13l.26.16c.14-.14,0-.36.16-.52.15.17.08.4.23.53s.21-.1.31,0c-.07.12-.24.17-.27.33a1.49,1.49,0,0,1,.36-.05c.15,0,.24-.11.36-.14a.3.3,0,0,1,.08.26l-.15,0a.53.53,0,0,0-.18,0,.17.17,0,0,0-.18.22c0,.14.07.27.11.4.26,0,.27,0,.31.27a1.06,1.06,0,0,0-.63.53l.43,0c.15.2.43.3.52.54l-.37.42-.21-.06L31,24.61c-.19,0-.27.05-.22.24s0,.11,0,.17a.3.3,0,0,1-.38,0l.06-.24-.21-.14a.35.35,0,0,0-.52,0,1,1,0,0,0-.16.26,1.31,1.31,0,0,1-.33.44l-.11-.05a.59.59,0,0,0-.59,0,.15.15,0,0,0,0,.27.6.6,0,0,1,.2.22.26.26,0,0,0,.15.14c.22,0,.37.21.58.21,0,.08,0,.15-.09.18l-.15-.12a1.23,1.23,0,0,0-.31-.14.31.31,0,0,0-.21,0,.23.23,0,0,0-.08.4.64.64,0,0,0,.18.1,2,2,0,0,0,.34.05c.13,0,.13,0,.31.12-.38.32-.4.34-.47.61l.88-.12c.06.23.11.44.16.65a2.67,2.67,0,0,1,.44-.23.33.33,0,0,0,.23-.27l.05-.12a4.56,4.56,0,0,1,.52,0c.06,0,.12.07.18.1a1.18,1.18,0,0,0,.27.06,2.45,2.45,0,0,0,.27,0l.29.06c-.09-.26,0-.49,0-.74h.29a.24.24,0,0,1,.1,0,.47.47,0,0,0,.46.14.83.83,0,0,1,.22,0l.06,0c0-.06,0-.11,0-.18a.54.54,0,0,1,.27-.18c.08.05.15.11.25.05l.1,0a.94.94,0,0,0-.28.5,1.75,1.75,0,0,0,.29.13c.11,0,.22,0,.33.05h.32a1.49,1.49,0,0,0-.12-.2c0-.06-.11-.1-.1-.18a1.2,1.2,0,0,0,0-.2c.22,0,.29.23.41.38l.12-.22a2.73,2.73,0,0,1,.78.77.72.72,0,0,1,.12.27,4.48,4.48,0,0,1,0,.59c-.09.18-.16.31-.22.45s-.14,0-.2,0l.14-.26a1.39,1.39,0,0,0-.46-.22c-.31-.12-.31-.12-.58.1l-.05-.07a.33.33,0,0,0-.38-.13.78.78,0,0,0-.38.2c-.07.06-.12.13-.2.19h-.08a2.34,2.34,0,0,1,0-.26l-.28-.1a.3.3,0,0,0-.27,0c-.07.05-.05.12-.07.19s0,0,0,0c-.27,0-.27,0-.47.24l-.08-.1a.39.39,0,0,0-.47-.2.44.44,0,0,1-.3,0c-.05,0-.08,0-.13,0a.49.49,0,0,1-.51,0c.06-.2.06-.2,0-.36a2.46,2.46,0,0,0-.29-.09c-.18,0-.24,0-.28.21,0,0,0,0,0,.06-.29,0-.29,0-.5.23-.05-.06-.09-.13-.15-.19a.32.32,0,0,0-.31-.11,1.64,1.64,0,0,1-.23,0,1.22,1.22,0,0,1-.26-.06c0,.07,0,.14-.07.17a.57.57,0,0,0-.28.35c0,.05,0,.1,0,.14l.41-.09a.66.66,0,0,0,.2-.06c0,.14.09.27.13.4s.05.12,0,.17l-.1,0a1.35,1.35,0,0,0-.18,0,.18.18,0,0,0-.2.21l.05.21s0,0,0,.06h-.19a.14.14,0,0,1-.09.17.57.57,0,0,0-.23.28c0,.07-.08.13,0,.21l.64-.16c0,.21.15.35.12.56l-.15,0a1.18,1.18,0,0,0-.2,0,.17.17,0,0,0-.17.21s0,0,0,.06a.42.42,0,0,1,0,.38s0,.08,0,.12L29,31.5a.82.82,0,0,0,.09.34c0,.06.08.13,0,.21H29L28.88,32c-.18,0-.27.09-.24.25s0,.12,0,.18a.13.13,0,0,1,0,.07l-.19,0c0,.12,0,.12-.1.18a.5.5,0,0,0-.24.47l.61-.14c0,.12.09.22.12.32s0,.17-.05.2a1.62,1.62,0,0,0-.3,0,.14.14,0,0,0-.13.17,2.71,2.71,0,0,0,.1.43c.13,0,.17-.17.32-.07l-.17.19s-.08.07,0,.13a.65.65,0,0,1,.48-.06c-.06.16-.21.28-.2.49l.63-.14c0,.13.11.25.15.38s.05.12,0,.16-.25,0-.37,0a.14.14,0,0,0-.14.16c0,.15.08.3.11.46l.26-.14c0,.07.12.15.1.2a.36.36,0,0,0,.11.35s0,.07,0,.12a.57.57,0,0,1,.4,0,1,1,0,0,0,.05.12,1.75,1.75,0,0,0,.33-.05c.1,0,.18,0,.26.06a3.2,3.2,0,0,1,.07-.33.06.06,0,0,1,.1,0,1.52,1.52,0,0,1,.22.22l-.12.2.51-.07.06,0a.33.33,0,0,0,.06-.1.09.09,0,0,0,0-.07l-.22-.09c.05-.11.14-.1.21-.1a.56.56,0,0,1,.26.51l-.16,0c-.05,0-.11,0-.17,0a.18.18,0,0,0-.19.22,3.86,3.86,0,0,0,.12.42,1.69,1.69,0,0,1,.27-.17.48.48,0,0,0,.27-.27c.05-.12.06-.12.26-.16a1,1,0,0,0-.07.45c.13,0,.17-.18.32-.16l-.06.21a.4.4,0,0,0,0,.24,1.06,1.06,0,0,1,.21-.11l.08.24c0,.05,0,.1.08.11s.15-.1.22-.14.14-.06.19-.11a1.36,1.36,0,0,0,.1-.21.73.73,0,0,1,.46,0c.23.12.47,0,.71.12a.32.32,0,0,0-.13-.26c0-.07-.08-.12,0-.2s-.12-.09,0-.17a.82.82,0,0,1,.4.4.19.19,0,0,1,.23,0,8.59,8.59,0,0,1,1,1,.68.68,0,0,1,.17.47C36.09,38.92,36.11,39.5,36.14,40.07Z"/><path class="cls-3" d="M36.71,29.15h.2a.67.67,0,0,1-.22.28c-.1,0-.12-.11-.18-.17a2.42,2.42,0,0,1,0-.25l-.18,0,0-.05-.09-.88a1.15,1.15,0,0,1,.11-.6,3.39,3.39,0,0,1,.7.31l-.15.33-.13.34a1.46,1.46,0,0,1,.21,0s.06.05.09.08l-.18.14C36.7,28.86,36.7,28.87,36.71,29.15Z"/><path class="cls-3" d="M37.67,36a1.43,1.43,0,0,1-.12.21l-.66,1.25a1,1,0,0,0-.1.17l0,0s0,0,0,0c0-.5,0-1,0-1.52,0,0,0,0,0-.06.31,0,.6-.11.93-.13A.3.3,0,0,1,37.67,36Z"/><path class="cls-3" d="M42,34.67a.45.45,0,0,1-.14-.06c-.18-.13-.36-.28-.53-.42l-.08-.08a.42.42,0,0,1,.26-.2l.43.08A2.16,2.16,0,0,1,42,34.67Z"/><path class="cls-3" d="M42.09,36.27a10.86,10.86,0,0,1-5.24,3.61c0-.28,0-.57-.06-.84a1,1,0,0,1,0-.31,12.45,12.45,0,0,1,.9-2.16.74.74,0,0,0,.19,0,.79.79,0,0,1,.34-.2.31.31,0,0,0,.25-.27l0-.09c.18-.09.36,0,.55,0s.1.09.15.11a1.55,1.55,0,0,0,.31,0,2.12,2.12,0,0,0,.24,0l.26,0a1.15,1.15,0,0,1,.08-.61c.09,0,.16.06.24.07a2.13,2.13,0,0,0,.27,0l.26,0c0-.12-.09-.25.07-.34a1.2,1.2,0,0,0,.11.1l.05,0,0-.3.16,0c-.07-.27-.29-.38-.52-.48l0,0a1.6,1.6,0,0,1,.53.19l.09.09a1.27,1.27,0,0,1,.59,1.23C42.08,36.14,42.09,36.2,42.09,36.27Z"/><path class="cls-3" d="M43.42,34.11a9.18,9.18,0,0,1-.52,1c0-.2,0-.39,0-.59a1.14,1.14,0,0,1,0-.27,1.42,1.42,0,0,0,.06-.31c0-.07.08-.11.16-.08l.06.13c.06,0,.1-.06.16-.08s.06.07.07.12Z"/><path class="cls-4" d="M63.15,39.24c-.11-.18-.4-.17-.46-.41a.79.79,0,0,1,.46-.24c-.12-.17-.32-.14-.42-.22a1.43,1.43,0,0,1-.1-.41.27.27,0,0,0-.14-.25l-.07-.06c.07-.08.16-.14.18-.22a.71.71,0,0,0,0-.25l.11-.06-.18-.29.11-.14c0-.09-.17-.12-.16-.24l-.26-.14a.53.53,0,0,0-.27-.38.27.27,0,0,1-.17-.16.38.38,0,0,0-.44-.2.31.31,0,0,1-.29,0c.09-.26.09-.26-.11-.4,0-.28-.05-.56-.08-.84a.74.74,0,0,0-.21-.18.93.93,0,0,0-.24,0,2.36,2.36,0,0,0,0-.29.19.19,0,0,0-.26-.16.33.33,0,0,1-.24.05.34.34,0,0,1,0-.12c.07-.16.09-.3-.1-.39,0,0,0,0,0-.08l.21-.21a1.69,1.69,0,0,0-.1-.27.4.4,0,0,0-.23-.17l-.24-.12a1.39,1.39,0,0,0-.06.13L59,32.27c0-.15,0-.28,0-.38s.13,0,.14-.09-.22-.25-.31-.41a1.39,1.39,0,0,0,.64,0c0-.14-.16-.14-.24-.2a.66.66,0,0,1-.23-.24,1.86,1.86,0,0,1,.2-.14,1.36,1.36,0,0,1,.27-.12l-.28-.17.07-.07c0-.06,0-.12-.08-.22h.3c-.06-.08-.09-.15-.13-.2a.26.26,0,0,1-.07-.17c0-.05,0-.11,0-.19.21.06.27.26.41.39,0-.12,0-.21,0-.27s.15,0,.15-.13-.23-.26-.35-.4c.22.13.44,0,.69,0l-.08-.12-.2-.08a.16.16,0,0,1,0-.07l.17-.14L60,28.73a1.14,1.14,0,0,1,.22-.12c-.16-.07-.15-.2-.18-.32s.12-.1.1-.19a2.13,2.13,0,0,0-.16-.25l.13-.13c0-.06-.11-.09-.13-.14a.27.27,0,0,0-.26-.21l0,0a1.44,1.44,0,0,1,0-.24l.12,0L60,27a.1.1,0,0,0,0-.18l-.08-.05c-.17-.11-.25-.11-.4,0l-.14.18-.16-.13a1.37,1.37,0,0,0-.2-.13c-.15-.08-.23-.07-.38.07l0,0c-.16-.12-.18-.13-.32-.08a1,1,0,0,1-.2.08.25.25,0,0,0-.18.2c-.12-.1-.24-.17-.35-.27a.27.27,0,0,0-.33-.05s0,0-.06,0v-.12l.15,0c0-.1-.07-.16-.13-.24a.41.41,0,0,1-.07-.11l.52-.06c0-.07.07-.17.19-.15s.07.21.1.32c.11-.06.2-.12.31-.17a.23.23,0,0,0,.16-.17c0-.09.08-.11.15-.11a.65.65,0,0,1,.31,0,1.07,1.07,0,0,0,.32.08l.35,0a1,1,0,0,0-.11-.2c0-.06-.09-.1-.07-.19s0-.11-.06-.2c.21.09.29.26.43.42,0-.13,0-.23.06-.32l.14,0c0-.17-.16-.23-.22-.35l.53-.07c0-.12-.1-.14-.18-.16a.55.55,0,0,1-.29-.25c.09,0,.1,0,.21,0a1.27,1.27,0,0,0,.25-.21.63.63,0,0,0,0-.26c.16-.21.39-.23.58-.33,0,0,0,0,0-.05l-.21-.22c.06-.06.17-.08.18-.19a2.25,2.25,0,0,0,0-.26l.12-.07-.2-.31.17-.08c-.07-.08-.14-.11-.15-.17a.32.32,0,0,0-.27-.21s0,0,0-.05a.67.67,0,0,1,.14-.09L60.51,22l0-.07c.25-.11.25-.11.31-.23-.2-.22-.33-.28-.55-.05,0,0,0,0-.06,0s-.13-.2-.19-.3a.38.38,0,0,0-.43-.22.34.34,0,0,1-.29-.05,2.61,2.61,0,0,0,0-.31l-.18-.07s-.07-.05-.11-.05a.78.78,0,0,0-.21,0c-.07,0-.06.1-.06.16l0,.05c-.25,0-.25,0-.47.19a.65.65,0,0,0-.15-.18,1.88,1.88,0,0,0-.24-.14.65.65,0,0,1-.15-.1.26.26,0,0,0-.36.05l-.17.18a1.7,1.7,0,0,0-.23-.17.37.37,0,0,0-.45-.07.2.2,0,0,1-.17,0,.62.62,0,0,0-.63.26l-.21-.1c-.11.09-.21,0-.31,0s-.2.13-.37,0l0,0a.22.22,0,0,0-.29,0c-.06,0-.11.11-.18.16s-.07,0-.13,0l.12-.12L54,20.51c.2,0,.36,0,.52-.06,0-.2-.24-.11-.29-.26l.26-.05a1.06,1.06,0,0,0,.11.19c.22-.1.37-.23.32-.49l.09-.05a.61.61,0,0,1,.4-.19s.07-.06.13-.1l-.24-.22c.19-.18.19-.18.18-.46l.11-.1-.17-.24.1-.17s-.1-.08-.11-.13-.16-.17-.27-.21a.08.08,0,0,1,0,0l-.06-.23.3-.09c.1-.05.13-.1.07-.22a.24.24,0,0,1,0-.27h.2c.11,0,.08-.11.16-.13h.29s0-.07,0-.09,0,0,0-.08.06-.08.05-.1,0-.25,0-.39l-.11-.19-.25,0,.11-.17-.36,0a1.18,1.18,0,0,1,0-.2.54.54,0,0,0-.54-.45l-.21,0a.84.84,0,0,0-.09-.19,1,1,0,0,0-.2-.12l.09-.35c-.1,0-.19.06-.25,0s-.16.07-.23.08l-.21-.2.21-.1c-.12-.15-.3-.13-.42-.21a.44.44,0,0,1,0-.1,1,1,0,0,0-.24-.52.3.3,0,0,0-.28-.12,1,1,0,0,1-.24,0,.12.12,0,0,1-.14-.11l.18-.1c0-.13,0-.24,0-.34l.18-.05c-.06-.09-.1-.16-.15-.22a.43.43,0,0,0-.17-.13,3,3,0,0,0-.35-.09.27.27,0,0,1,0-.09l0-.05a1,1,0,0,0,.94.13s-.1-.11-.14-.11-.24-.15-.34-.24c.1-.12.1-.12.28-.07,0-.05,0-.1,0-.14s.15,0,.13-.15,0,0,0,0l.15,0a.27.27,0,0,1,.05-.11H54a1.47,1.47,0,0,1,.07-.17s0-.09,0-.11,0-.25,0-.38a1.74,1.74,0,0,0-.1-.19l-.27,0,.12-.18-.36,0c0-.13,0-.24-.07-.39l.25.11s0,0,0-.05,0-.15,0-.23,0-.22-.21-.32c0,0,0,0,0,0a0,0,0,0,0,0,0l.06,0c.22-.05.3-.13.3-.33s.09-.08.09-.14-.17-.1-.19-.23-.09-.17-.13-.25.2-.1.32-.19l-.22-.12a1.19,1.19,0,0,0-.22-.08A.84.84,0,0,0,53.55,8c-.1-.15-.16-.35-.34-.43s-.07-.08-.1-.11a1.55,1.55,0,0,0-.19-.24s0,0,0-.06l.1,0v-.2a.19.19,0,0,0-.23-.19l-.18,0a2.43,2.43,0,0,1,.2-.14,1.88,1.88,0,0,0,.2-.2l-.18-.11s-.08-.07-.08-.11,0-.09.06-.15a3,3,0,0,0-.24-.26s-.13,0-.17-.08a.4.4,0,0,0-.47-.21h0c-.24-.09-.11-.25-.17-.34a.6.6,0,0,0-.6-.1l-.22-.21c.11-.19.31-.2.48-.33l-.44-.18a1,1,0,0,0-.18-.5.39.39,0,0,0-.45-.23A.27.27,0,0,1,50,3.54c0-.09.11-.17,0-.3s-.3-.18-.49-.06a.41.41,0,0,0,0,.08.5.5,0,0,0,0,.13.41.41,0,0,0-.45.18L49,3.51c-.2-.25-.3-.28-.58-.17a.55.55,0,0,1-.17.05.37.37,0,0,0-.36.24c0,.08-.06.19-.13.24s-.07.19-.13.25a.66.66,0,0,0-.25,0c-.08,0-.13.11-.2.16-.26-.32-.3-.33-.68-.2a.25.25,0,0,1-.12,0c-.22,0-.32.15-.43.3s0,.09-.1.13a.35.35,0,0,0-.22.31l.15,0c0,.07-.1.09-.05.16s.14-.06.2,0-.13.18-.09.3l.19,0c-.15.13-.23.27-.41.26a.27.27,0,0,0-.18.1c-.07.08-.11.21-.19.28a1.08,1.08,0,0,1-.29.18c0,.12.19,0,.22.18s-.22.07-.23.21l.15,0,.14.08a.17.17,0,0,1,0,.28.57.57,0,0,1-.18.12c-.09,0-.17.1-.15.2s0,.13-.1.17a1.09,1.09,0,0,1-.23.14c-.1.21.1.36.06.56l.31-.06.26,0c0,.05,0,.1,0,.09a1,1,0,0,1-.23-.06.42.42,0,0,0,0,.33l0,.18-.19,0a1.42,1.42,0,0,1-.11.16c-.19.16-.23.22-.22.43a3.65,3.65,0,0,0,.55-.13c0,.17.14.32.13.51a.39.39,0,0,1-.29-.09s.13-.06.11-.15-.17-.09-.27-.08a.37.37,0,0,0-.27.25l.21,0a.19.19,0,0,1,.08,0c0,.09-.07.17-.1.26a.62.62,0,0,0-.48-.05.36.36,0,0,1-.36-.13l.06-.08c.11-.22.08-.29-.15-.38a1.59,1.59,0,0,0-.2-.07.33.33,0,0,0-.29,0c-.08.06-.07.15-.07.23s0,0,0,0h-.25a.3.3,0,0,0-.22.1l-.15.2-.08-.12a.46.46,0,0,0-.56-.3.92.92,0,0,1-.5-.1s0,0,0,0,0,.12,0,.18l-.16,0-.07,0a.55.55,0,0,1,.11-.49l.43,0,.06,0a.82.82,0,0,0,.49.16.34.34,0,0,0,.42.21l.21,0H43a.83.83,0,0,0-.43-.31.33.33,0,0,1-.27-.38.17.17,0,0,0-.06-.12s0-.08,0-.1.06,0,.08,0a.39.39,0,0,1,.1.08l.13.13.22.34c.12-.14.06-.3.11-.45h.21A.71.71,0,0,0,43,8.22c0-.05-.07-.09-.12-.16a.9.9,0,0,0-.66-.25l0-.25h0c.14.2.42.16.57.31a.1.1,0,0,0,.07,0h.21l.21,0h.21c0-.13-.09-.2-.18-.21s-.33-.22-.5-.37c.12-.07.22-.15.33-.21a1.92,1.92,0,0,1,.37-.14.51.51,0,0,0-.12-.09c-.16-.08-.32-.14-.49-.21,0,0,0-.06,0-.09a.57.57,0,0,0-.15-.47.15.15,0,0,1,0-.2c.35.07.38.07.59,0,0,0-.08-.07,0-.13h.3c.09,0,.19,0,.31.07l-.09-.18c.2-.19.2-.19.1-.43s.17-.21.16-.34-.14-.31-.34-.32c0,0-.05,0-.07-.06l-.26-.17a2.45,2.45,0,0,0-.29-.08l-.19-.29s0-.09,0-.14,0-.23-.2-.21l-.14,0c-.25-.2-.25-.2-.61-.18,0,0,0-.09,0-.12a.73.73,0,0,0-.06-.67.54.54,0,0,1-.05-.11,1.48,1.48,0,0,1,0-.19l.35.06A.62.62,0,0,0,41.84,2c-.13,0-.13,0-.19-.23L42,1.7l-.14-.08a1.43,1.43,0,0,0-.28-.13.41.41,0,0,1-.28-.25,4.89,4.89,0,0,1-.2-.48c-.2-.11-.47,0-.62-.2A1.15,1.15,0,0,0,40.54.3c0-.1,0-.16-.11-.2a1.42,1.42,0,0,0-.29-.1.64.64,0,0,0-.3,0c-.1,0-.08.15-.09.23s0,0,0,0a.5.5,0,0,0-.65.12l-.13,0c-.15,0-.22.05-.2.18a.53.53,0,0,0,0,.18l-.21.3a.75.75,0,0,0-.48.2.55.55,0,0,1-.23.14.12.12,0,0,0-.12.12c0,.06-.08.09-.08.11s-.14.12-.2.18a.15.15,0,0,0,0,.22l.1.07c.07.05.07.05.1.23-.16.05-.16.06-.23,0a.93.93,0,0,1-.2-.08h-.07a.71.71,0,0,1,0,.14.78.78,0,0,0-.46.66l.82-.16c0,.26.18.45.12.71a.78.78,0,0,1-.18,0,.49.49,0,0,0-.27-.05c-.17,0-.23.09-.2.27S37,4,37,4.16l-.27-.07v.18a.67.67,0,0,0-.45.64l.35-.07a1.49,1.49,0,0,0,.55-.18.56.56,0,0,1,.42,0s0,0,0,0l-.15.11h-.08c-.1,0-.2-.07-.28,0s0,.18,0,.27a.88.88,0,0,1,.1.36l0,0L37,5.4a.41.41,0,0,0-.48.07.91.91,0,0,1-.22.12l-.14.1c0,.08.09.15.12.22a.07.07,0,0,1,0,.06h-.18c0-.09-.07-.19-.12-.28a.13.13,0,0,0-.19,0L35.4,6c-.06,0-.11-.08-.21-.06a1.13,1.13,0,0,1,0,.26c0,.06-.08.11-.1.18a.81.81,0,0,0,0,.22,1.86,1.86,0,0,0-.38-.06.38.38,0,0,0-.3.18,1.09,1.09,0,0,0,.09.23l-.31,0c.17.17.06.29,0,.41-.45-.13-.45-.13-.64-.07l0,.08,0,0-.08,0c-.19.07-.22.11-.18.29s.07.36.11.54l0,0a.27.27,0,0,1,.15-.05c0,.12-.12.22-.06.34s.21-.1.34,0l0,.08s0,.06,0,.1a2.23,2.23,0,0,1,1-.06l.27.11a2.52,2.52,0,0,1,.54.21v.15c.15,0,.32-.14.45,0l-.67.38a.44.44,0,0,1-.14.45c-.18,0-.3.15-.47.23a.48.48,0,0,0-.24.25c0,.12.11.23.09.31a.24.24,0,0,0,.09.27s0,.09,0,.13l.39,0a.66.66,0,0,0,0,.15l.46,0,.12.09c0-.14.06-.25.08-.37s.17.07.2.15a1.18,1.18,0,0,1-.39.59.78.78,0,0,0-.63-.09.23.23,0,0,0-.17.13.17.17,0,0,0,.11.2l0,0a.18.18,0,0,1,.07.22,1.17,1.17,0,0,0-.65.54l.46-.06c.16.23.45.33.56.6-.1,0-.17,0-.25,0s-.27,0-.23.23a1.17,1.17,0,0,0,.05.2.34.34,0,0,1-.39,0s0-.08,0-.11a.48.48,0,0,0,0-.12l-.2-.15a.33.33,0,0,0-.47,0,1.05,1.05,0,0,0-.2.27,1.43,1.43,0,0,1-.33.47.69.69,0,0,0-.68-.09.16.16,0,0,0-.06.28l.06,0c.11.05.12.13.12.24a1,1,0,0,0-.62.54l.41,0c.21.24.5.36.6.66,0,.13-.14.2-.09.34l.42-.06.43,0c.1.2.07.44.17.65a1.22,1.22,0,0,1,.47-.26.27.27,0,0,0,.18-.19.77.77,0,0,1,0-.17,1.12,1.12,0,0,1,.7.06.45.45,0,0,0,.23.07c.09,0,.19,0,.28,0l.31.06a2.42,2.42,0,0,1,.07-.72c.09-.06.16,0,.25,0s.16,0,.24.09a1.79,1.79,0,0,1,.22.13c0-.14.06-.25.09-.37a.54.54,0,0,0,0-.18.38.38,0,0,1,.23-.47.5.5,0,0,0,.21-.22l.12,0a1.18,1.18,0,0,0-.31.83l.31-.25s.08-.07.13,0a1.27,1.27,0,0,0-.13.61l.26-.17c.14.13,0,.35.17.47a4,4,0,0,1,.41-.21.3.3,0,0,0,.22-.23l.06-.14.47,0a.18.18,0,0,1,.11.05.81.81,0,0,0,.4.12l.46.05,0-.14a.29.29,0,0,1,.11.06l.2.14c0,.26.05.52.07.77a.54.54,0,0,1,0,.18.75.75,0,0,1-.1.2.36.36,0,0,1,.11.35c.11.13,0,.24,0,.35s-.2,0-.29,0a.47.47,0,0,0-.38.07s-.08.06-.1.09l-.46-.14c-.17,0-.26,0-.22.22a1.46,1.46,0,0,0,.05.2.33.33,0,0,1-.39,0l.06-.22-.23-.17a.3.3,0,0,0-.44,0,1,1,0,0,0-.22.29,1.41,1.41,0,0,1-.34.47.6.6,0,0,0-.49-.15.47.47,0,0,0-.36.24L37,18.37a.43.43,0,0,0-.35,0c-.11.07-.07.18-.08.27l0,0c-.14,0-.14,0-.24-.15l.18,0a.6.6,0,0,0-.54-.3.68.68,0,0,1-.29-.06.68.68,0,0,0-.2-.07c-.1,0-.2,0-.26,0s-.07.14-.1.22a.47.47,0,0,0-.17,0,.5.5,0,0,0-.2.08s0,.12-.11.12l0,0a.44.44,0,0,0-.51-.24c-.08,0-.16,0-.21,0s-.28,0-.43,0a.4.4,0,0,0-.53-.05l0-.1c-.05-.14-.09-.17-.21-.16a1.06,1.06,0,0,0-.25.09c-.18.08-.19.12-.12.28l.06.09a.56.56,0,0,1-.32.15.25.25,0,0,0-.17.06c-.06.11-.17.12-.27.18l-.11.07s0,0,0,0l.14.22s0,0,0,.07l-.19,0a1.75,1.75,0,0,0-.11-.24l-.32.07-.23.24c-.08.05-.13-.09-.22,0a1,1,0,0,1,0,.25c0,.06-.08.11-.1.18a1,1,0,0,0,0,.24l-.23-.07a.36.36,0,0,0-.32.05c-.14.08-.14.09-.08.27,0,0,0,.05,0,.09l-.26,0c.14.18.06.31-.06.43a1.15,1.15,0,0,0-.63-.1.31.31,0,0,0,0,.07.35.35,0,0,0,.05.08l-.08.05c-.2.07-.23.11-.19.31s.07.34.11.51c0,0,0,0,0,0s.08-.11.16-.06-.13.22-.05.35.21-.11.32,0-.08.11,0,.17a2.3,2.3,0,0,1,.42-.07.9.9,0,0,0,.51-.13l.26.16c.14-.14,0-.36.16-.52.15.17.08.4.23.53s.21-.1.31,0c-.07.12-.24.17-.27.33a1.49,1.49,0,0,1,.36-.05c.15,0,.24-.11.36-.14a.3.3,0,0,1,.08.26l-.15,0a.53.53,0,0,0-.18,0,.17.17,0,0,0-.18.22c0,.14.07.27.11.4.26,0,.27,0,.31.27a1.06,1.06,0,0,0-.63.53l.43,0c.15.2.43.3.52.54l-.37.42-.21-.06L31,24.61c-.19,0-.27.05-.22.24s0,.11,0,.17a.3.3,0,0,1-.38,0l.06-.24-.21-.14a.35.35,0,0,0-.52,0,1,1,0,0,0-.16.26,1.31,1.31,0,0,1-.33.44l-.11-.05a.59.59,0,0,0-.59,0,.15.15,0,0,0,0,.27.6.6,0,0,1,.2.22.26.26,0,0,0,.15.14c.22,0,.37.21.58.21,0,.08,0,.15-.09.18l-.15-.12a1.23,1.23,0,0,0-.31-.14.31.31,0,0,0-.21,0,.23.23,0,0,0-.08.4.64.64,0,0,0,.18.1,2,2,0,0,0,.34.05c.13,0,.13,0,.31.12-.38.32-.4.34-.47.61l.88-.12c.06.23.11.44.16.65a2.67,2.67,0,0,1,.44-.23.33.33,0,0,0,.23-.27l.05-.12a4.56,4.56,0,0,1,.52,0c.06,0,.12.07.18.1a1.18,1.18,0,0,0,.27.06,2.45,2.45,0,0,0,.27,0l.29.06c-.09-.26,0-.49,0-.74h.29a.24.24,0,0,1,.1,0,.47.47,0,0,0,.46.14.83.83,0,0,1,.22,0l.06,0c0-.06,0-.11,0-.18a.54.54,0,0,1,.27-.18c.08.05.15.11.25.05l.1,0a.94.94,0,0,0-.28.5,1.75,1.75,0,0,0,.29.13c.11,0,.22,0,.33.05h.32a1.49,1.49,0,0,0-.12-.2c0-.06-.11-.1-.1-.18a1.2,1.2,0,0,0,0-.2c.22,0,.29.23.41.38l.12-.22a2.73,2.73,0,0,1,.78.77.72.72,0,0,1,.12.27,4.48,4.48,0,0,1,0,.59c-.09.18-.16.31-.22.45s-.14,0-.2,0l.14-.26a1.39,1.39,0,0,0-.46-.22c-.31-.12-.31-.12-.58.1l-.05-.07a.33.33,0,0,0-.38-.13.78.78,0,0,0-.38.2c-.07.06-.12.13-.2.19h-.08a2.34,2.34,0,0,1,0-.26l-.28-.1a.3.3,0,0,0-.27,0c-.07.05-.05.12-.07.19s0,0,0,0c-.27,0-.27,0-.47.24l-.08-.1a.39.39,0,0,0-.47-.2.44.44,0,0,1-.3,0c-.05,0-.08,0-.13,0a.49.49,0,0,1-.51,0c.06-.2.06-.2,0-.36a2.46,2.46,0,0,0-.29-.09c-.18,0-.24,0-.28.21,0,0,0,0,0,.06-.29,0-.29,0-.5.23-.05-.06-.09-.13-.15-.19a.32.32,0,0,0-.31-.11,1.64,1.64,0,0,1-.23,0,1.22,1.22,0,0,1-.26-.06c0,.07,0,.14-.07.17a.57.57,0,0,0-.28.35c0,.05,0,.1,0,.14l.41-.09a.66.66,0,0,0,.2-.06c0,.14.09.27.13.4s.05.12,0,.17l-.1,0a1.35,1.35,0,0,0-.18,0,.18.18,0,0,0-.2.21l.05.21s0,0,0,.06h-.19a.14.14,0,0,1-.09.17.57.57,0,0,0-.23.28c0,.07-.08.13,0,.21l.64-.16c0,.21.15.35.12.56l-.15,0a1.18,1.18,0,0,0-.2,0,.17.17,0,0,0-.17.21s0,0,0,.06a.42.42,0,0,1,0,.38s0,.08,0,.12L29,31.5a.82.82,0,0,0,.09.34c0,.06.08.13,0,.21H29L28.88,32c-.18,0-.27.09-.24.25s0,.12,0,.18a.13.13,0,0,1,0,.07l-.19,0c0,.12,0,.12-.1.18a.5.5,0,0,0-.24.47l.61-.14c0,.12.09.22.12.32s0,.17-.05.2a1.62,1.62,0,0,0-.3,0,.14.14,0,0,0-.13.17,2.71,2.71,0,0,0,.1.43c.13,0,.17-.17.32-.07l-.17.19s-.08.07,0,.13a.65.65,0,0,1,.48-.06c-.06.16-.21.28-.2.49l.63-.14c0,.13.11.25.15.38s.05.12,0,.16-.25,0-.37,0a.14.14,0,0,0-.14.16c0,.15.08.3.11.46l.26-.14c0,.07.12.15.1.2a.36.36,0,0,0,.11.35s0,.07,0,.12a.57.57,0,0,1,.4,0,1,1,0,0,0,.05.12,1.75,1.75,0,0,0,.33-.05c.1,0,.18,0,.26.06a3.2,3.2,0,0,1,.07-.33.06.06,0,0,1,.1,0,1.52,1.52,0,0,1,.22.22l-.12.2.51-.07.06,0a.33.33,0,0,0,.06-.1.09.09,0,0,0,0-.07l-.22-.09c.05-.11.14-.1.21-.1a.56.56,0,0,1,.26.51l-.16,0c-.05,0-.11,0-.17,0a.18.18,0,0,0-.19.22,3.86,3.86,0,0,0,.12.42,1.69,1.69,0,0,1,.27-.17.48.48,0,0,0,.27-.27c.05-.12.06-.12.26-.16a1,1,0,0,0-.07.45c.13,0,.17-.18.32-.16l-.06.21a.4.4,0,0,0,0,.24,1.06,1.06,0,0,1,.21-.11l.08.24c0,.05,0,.1.08.11s.15-.1.22-.14.14-.06.19-.11a1.36,1.36,0,0,0,.1-.21.73.73,0,0,1,.46,0c.23.12.47,0,.71.12a.32.32,0,0,0-.13-.26c0-.07-.08-.12,0-.2s-.12-.09,0-.17a.82.82,0,0,1,.4.4.19.19,0,0,1,.23,0,8.59,8.59,0,0,1,1,1,.68.68,0,0,1,.17.47c0,.57,0,1.15.07,1.72l0,.53c0,.37,0,.75.08,1.13,0,0,0,.1-.06.14a.31.31,0,0,1-.09-.07,6.73,6.73,0,0,0-1.31-1,.39.39,0,0,1-.22-.36l.27-.12h0c-.13-.15-.32-.13-.46-.21a1.14,1.14,0,0,0-.16-.45.5.5,0,0,0-.62-.32.24.24,0,0,1-.25-.07c.1-.3.1-.33-.2-.42l-.09,0c-.17,0-.23,0-.28.23a0,0,0,0,1,0,0,3.15,3.15,0,0,0-.36.09A.3.3,0,0,1,32,39a.9.9,0,0,0,.22,0l.25,0,.21,0a.39.39,0,0,0-.26-.2c-.15-.07-.28,0-.39.06s-.48-.25-.7,0c-.14-.07-.25-.14-.37-.19s-.22,0-.34.17.12.11.2.1.2,0,.3,0a.25.25,0,0,1,.25.1.46.46,0,0,0-.5.28c-.07-.07-.1-.14-.15-.19a.35.35,0,0,0-.35-.14.83.83,0,0,1-.49-.05V39a.72.72,0,0,0-.35.38c-.09,0-.17,0-.22.06l-.08,0a.79.79,0,0,1-.35.09c0,.19,0,.39-.16.52s-.28.15-.42.24a.49.49,0,0,0-.26.3c0,.07.09.16.13.25s-.07.2,0,.27,0,.11.05.17l.38-.05a.93.93,0,0,1,0,.13,1.08,1.08,0,0,0,.44,0l.06,0,.08,0c.14-.14.14-.14.37-.13-.12.15-.13.15-.1.31a.64.64,0,0,1-.07.41,2.6,2.6,0,0,0,.13.24c-.05.18-.06.19,0,.27s0,.13.05.18l.39-.05c0,.06,0,.09,0,.15l.3,0a.4.4,0,0,1,.15,0,.56.56,0,0,1,.17.07c0-.14,0-.26.05-.39.22,0,.28.32.53.31v-.42c0-.07,0-.13.07-.16a.15.15,0,0,1,.16.07l.15.19a.46.46,0,0,0,.12.1c0-.16,0-.27,0-.38a.35.35,0,0,1,.08-.22s.07,0,.08,0,.07.05.07.08a1.41,1.41,0,0,1,0,.28l.26-.12c0,.14.07.26.11.37l.38-.21a.52.52,0,0,0,.1-.11.75.75,0,0,0,.07-.18,1.57,1.57,0,0,1,.43,0,2.25,2.25,0,0,0,.35.09l.42,0a2.09,2.09,0,0,0-.13-.23c0-.06-.1-.09-.1-.18a.64.64,0,0,0-.06-.24c.24.09.32.28.47.45,0-.14,0-.25.08-.37s.25,0,.38,0,.28.06.42.08a.58.58,0,0,1,.34.19l.63.71a.59.59,0,0,1,.15.39c0,.83.12,1.68.16,2.51.06,1.4.13,2.79.18,4.18.05,1.76.09,3.52.07,5.29,0,.19,0,.38,0,.58s.07.12,0,.19.07.13,0,.21,0,0-.06.05a2.91,2.91,0,0,0-.49-.44,4.58,4.58,0,0,1,.34.46c-.11,0-.2-.12-.27-.1a.86.86,0,0,1-.39-.05l.29.26s.06,0,.07,0a.31.31,0,0,1,.07.09h-.11a.78.78,0,0,1,0,.14l-.29-.16c0,.07.06.1.08.16-.14,0-.22-.06-.35-.08a2.21,2.21,0,0,0,.06-.34.91.91,0,0,0-.19.38l-.07.18-.2-.3a.1.1,0,0,0-.12,0,1.71,1.71,0,0,1,.21.6,1.4,1.4,0,0,1,0,.21l-.13-.13-.29-.27h0c0,.06,0,.12,0,.2a2.65,2.65,0,0,0-.31-.13l.22.25c-.25,0-.36-.24-.56-.32l0,.14-.2.07-.24-.09c0,.06-.07.1-.1.15s-.21.13-.32.16l-.08-.07c-.15.22-.15.22-.32.29,0-.15,0-.17.34-.49-.2,0-.28.15-.41.22l-.07,0c-.12,0-.19,0-.27.09a.53.53,0,0,0-.17-.24,1.77,1.77,0,0,0-.08.22,3.38,3.38,0,0,0-.18-.3,2.5,2.5,0,0,0,.07.41.09.09,0,0,1,0,.1.13.13,0,0,1-.1,0,.3.3,0,0,1-.1-.22.38.38,0,0,0-.14-.29.25.25,0,0,0,0,.07l-.08,0c-.08,0-.07,0-.06.07h0c-.09.06-.07.14-.06.21s0,.08-.07.11l-.37-.32c.1.13-.05.21,0,.32s-.17-.18-.29-.18a1,1,0,0,0,0,.16,1.24,1.24,0,0,0-.52-.27c0,.08.06.16-.05.2s0,.07,0,.11l-.11,0a.84.84,0,0,0-.49-.08l-.05,0v-.13a4.84,4.84,0,0,0-.44.3l-.25,0s-.06.08-.11.1a.09.09,0,0,1-.14,0l-.18,0c0-.09.12-.12.09-.19-.24-.07-.34.18-.55.22L28,57l-.17.12L27.71,57s-.08.07-.13,0,.09-.13.07-.16,0-.2,0-.3l-.23.45c-.1-.17-.26-.27-.31-.45,0,0-.07,0-.11,0a.38.38,0,0,1,0,.15.69.69,0,0,1-.07.15.71.71,0,0,1-.08.15s-.06.07-.08.11a2.47,2.47,0,0,0-.1-.29c-.05,0-.1.13-.19.09l.09.16c-.08-.08-.09-.08-.09-.16s0-.08-.08-.07,0,.2-.16.21-.07-.14-.17,0a1.33,1.33,0,0,0-.19-.14s-.08.09-.15,0l-.2-.09a.62.62,0,0,0,.07.16l-.24.07-.3-.22a1.07,1.07,0,0,0-.19.07.21.21,0,0,1-.27,0,.56.56,0,0,1-.15.1.17.17,0,0,1-.16-.17l-.35.07c-.12-.06-.14-.17-.24-.19v0a.43.43,0,0,1,0,.05l0,0,.05,0h0l-.05,0h0l-.15.12,0,0a0,0,0,0,1,0,0,.12.12,0,0,1-.15-.08l-.14.2L23,56.78s-.05.06-.09.07l-.09,0a.4.4,0,0,0-.38-.13.41.41,0,0,0,0,.07c-.05,0-.1,0-.11-.07a1.12,1.12,0,0,1-.26-.08,1.35,1.35,0,0,1-.77.1l-.13.09a.34.34,0,0,1-.29-.09s-.1-.06-.15-.09l.09.11a0,0,0,0,0,0,0c-.12,0-.15,0-.22-.15-.08,0-.18,0-.24,0a.27.27,0,0,0-.29,0,1.71,1.71,0,0,1-.23.13.36.36,0,0,1-.15,0c0-.14.23-.21.12-.4l-.32.12v-.15l-.7.21a1.15,1.15,0,0,1,0-.16c-.05.07-.08,0-.12,0l-.09.13a.67.67,0,0,1-.14-.09s0-.06,0-.11a.86.86,0,0,1-.16,0,.28.28,0,0,1-.08-.12l-.23.09s0,0,0,0,0,.17-.11.16-.09.1-.17.07l-.18-.19s-.05.11-.08.16h0l-.15-.24c0,.11,0,.22.05.33s0,.13-.08.16-.07,0-.08-.08,0,0,0-.06a2.31,2.31,0,0,0-.18.42,5.16,5.16,0,0,0-.73-.57.61.61,0,0,1-.05.12l-.18-.1-.07.11a1.33,1.33,0,0,0-.51-.23.6.6,0,0,1,0,.14.29.29,0,0,1-.08.07l.08.16h0l-.08-.05a.84.84,0,0,0-1,.08h0L14,56.76l-.48.32a.23.23,0,0,0-.35.05c-.07-.08-.12-.16-.2-.25,0,.09,0,.15-.05.21s-.1-.08-.13-.13-.05-.05-.09,0a.89.89,0,0,1,.07.43c-.13,0-.17-.08-.2-.16a.66.66,0,0,1,0-.15l-.09-.18L12.4,57a.83.83,0,0,0-.12-.16.51.51,0,0,1,0,.1l-.09.11c0,.08.12.12,0,.21l-.23-.16c0,.13-.19,0-.25.13l-.2-.15-.11.08a1.32,1.32,0,0,0-.49-.19c0,.06,0,.1.07.17l-.11,0s0,.09,0,.1-.07-.06-.09-.1a.25.25,0,0,1-.24,0,.4.4,0,0,0-.34,0l-.21-.42,0-.07-.54.19a.42.42,0,0,1,0,.17l-.26.33-.19-.26c0,.08,0,.14-.07.23l-.09-.1s-.05-.1-.07-.16a4.52,4.52,0,0,1-.53.11H7.65c0,.08-.05.15-.08.24l-.25-.16-.07.1-.42-.23a1.49,1.49,0,0,1-.15.4l.09-.05a0,0,0,0,1,0,0l-.1,0s0,0,0-.05a.66.66,0,0,0-.62-.1.3.3,0,0,1-.34,0c0,.08-.05.13-.15.11s0-.07,0-.11a.65.65,0,0,0-.5.22.43.43,0,0,0-.09-.1l-.16.12c-.1,0-.18-.08-.17-.18l-.23.17a.68.68,0,0,1-.13,0l.07-.19-.08-.12c-.06-.08,0-.08-.13,0s0,.07-.08,0L4,57.3c0,.07,0,.15-.07.23l0,.11s-.06,0-.08,0,0,0,0-.07a2.56,2.56,0,0,0,0-.49c-.08.1,0,.28-.19.34s0-.18,0-.27-.17.14-.29.14,0-.11,0-.15a.71.71,0,0,0-.41.06,1.31,1.31,0,0,0-.05-.15l0,0-.29,3.45a95.09,95.09,0,0,0,27.4,3.85,93.28,93.28,0,0,0,29.94-4.66l-.14-4.06-.32-.05c0,.07,0,.15-.14.1a.28.28,0,0,0-.25,0l-.15-.15-.39.23-.14-.1c0,.09-.11.17-.16.25L58,55.89c0-.1.09-.12,0-.22l-.31.31s-.05,0-.07,0,0,0,0-.06l.05-.08c-.09,0,0-.08-.07-.12a.19.19,0,0,0-.2-.07s0,0,0,0a.5.5,0,0,0-.12.33.68.68,0,0,1-.07.2c0,.05-.06.07-.13,0s0-.33,0-.5h0L57,56l-.11-.22-.08.13a.83.83,0,0,0-.08.12c-.13-.11-.24-.13-.35,0l-.18-.11a1.34,1.34,0,0,0-.24-.09s0,.09,0,.12a.71.71,0,0,1-.13.12L55.63,56a.11.11,0,0,0-.18,0,.38.38,0,0,1-.34.06c0,.12,0,.12-.17.15s0,.1-.16.16l0-.1-.18.09a.73.73,0,0,1,.15-.36c-.07,0-.11,0-.14.1l-.16.32a.1.1,0,0,1-.15,0,.61.61,0,0,1-.07-.1c0-.11-.09-.21-.14-.32l0,0a.59.59,0,0,1,0,.13.61.61,0,0,1,.05.12s0,0,0,0l0,0V56.1a1.27,1.27,0,0,1-.12.1.72.72,0,0,1-.21-.12.31.31,0,0,0-.32-.1c.3.26.3.26.35.41l-.31-.12c.08.14.15.23.21.32l0,.07-.37-.3c-.08,0-.14.13-.27.08a1.7,1.7,0,0,1,.17.23c-.15.12-.21-.07-.32-.07a.51.51,0,0,1-.48.08.54.54,0,0,0-.43,0l-.2.08c0-.09,0-.14,0-.2s0-.09,0-.15a.56.56,0,0,0-.28.13l-.19.09s0-.07-.06-.11l-.23.18-.21-.16c-.09,0-.13.15-.25.15s0-.23-.06-.32h0c0-.05,0-.11-.1,0h-.05v0a.08.08,0,0,1,0,.05,0,0,0,0,1,0,0l0,0a.16.16,0,0,1,0-.07s-.06,0-.07,0,0,.17-.08.24-.14,0-.14,0,0,0,0-.06.07-.11,0-.16l-.08.12s-.06.08-.11,0A.44.44,0,0,1,50,56.2a.15.15,0,0,0,.09-.13c0-.13.06-.18.11-.25l-.08,0c0,.05-.08,0-.12.05s-.09,0-.13,0-.14-.07-.24-.07a.7.7,0,0,0,0-.12c-.07,0-.06,0,0-.07l.1-.1h0c.06,0,.09,0,.1-.11l-.06,0a.52.52,0,0,0-.13.06c-.07.08-.12-.06-.18,0a.29.29,0,0,1,0-.1l-.13,0a3.29,3.29,0,0,0,0-.63c0-.22,0-.45,0-.67s0-.43,0-.65v-.67c0-.22,0-.43,0-.65v-.67c0-.22,0-.44,0-.65s0-.45,0-.68V48.72c0-.23,0-.46,0-.68V47.4c0-.23,0-.46,0-.68v-2c0-.23,0-.45,0-.68s0-.43,0-.64,0-.45,0-.68a4.42,4.42,0,0,1,0-.63l.06,0,.12-.09a11.66,11.66,0,0,1,2.79-1.26,1.12,1.12,0,0,1,.68,0l.06.14c.19,0,.37-.11.56,0,0,.14.15.27.12.43l-.39-.06c0,.05-.1.1-.09.18a1.55,1.55,0,0,1,0,.21c0,.06,0,.14.07.19l.33-.18a.3.3,0,0,0,.13-.12.47.47,0,0,1,.22-.24s0,0,0-.07c0,.12,0,.21-.06.32a.3.3,0,0,0,0,.21l.29-.22c0,.1,0,.14,0,.19a2,2,0,0,0,0,.24l0,0,.19-.08c0,.12.08.23.11.33a1.53,1.53,0,0,1,.31-.16c.14,0,.14-.2.21-.28a.94.94,0,0,1,.55.06.71.71,0,0,0,.21,0l.33,0s.06-.11.16-.07.07.19.11.29l.41-.21a1.24,1.24,0,0,1,.1-.2.69.69,0,0,1,.51,0,1.3,1.3,0,0,0,.56,0c-.16-.31-.19-.41-.17-.53a.89.89,0,0,1,.34.4,1.57,1.57,0,0,1,.13-.23s.06-.05.1-.05,0,0,.06.06a2,2,0,0,1,.07.23c.13-.06.24-.11.36-.18a.24.24,0,0,0,.11-.13.19.19,0,0,1,.21-.14.57.57,0,0,1,.23,0,2.14,2.14,0,0,0,.66.12c0-.1,0-.15-.06-.2S60,41.05,60,41s0-.11,0-.19c.21.06.28.25.43.4,0-.1,0-.16,0-.23s.14-.07.18-.15l.14-.27c.08,0,.17,0,.24-.05a.37.37,0,0,1,.25-.12.5.5,0,0,0,.37-.15.68.68,0,0,0,.12-.12,1.52,1.52,0,0,0,.22.08l.51.05c0-.08-.06-.13-.09-.18l-.09-.13a0,0,0,0,1,0,0s0,0,.07,0a.61.61,0,0,1,.14.07l.15.13a2.84,2.84,0,0,1,.06-.29s.12,0,.14-.08a.62.62,0,0,0-.29-.33s-.09,0-.1-.09h.08A.88.88,0,0,0,63.15,39.24ZM59.9,23.91c-.14,0-.17-.05-.16-.13s0-.05.06,0S59.91,23.81,59.9,23.91Zm-.09-2.5c-.06.11-.12.07-.17,0Zm-.2,3.53s0,.06,0,.09l-.4-.08a.57.57,0,0,1,0-.12Zm-.21-.52s.06,0,.06,0l-.1.12s0-.07,0-.09A.12.12,0,0,1,59.4,24.42Zm-.06-2.78v0l0,0Zm-.12,2a.34.34,0,0,1,.06.06l0,0,0,0A.21.21,0,0,1,59.22,23.67ZM59,21.11l.11,0c0,.14,0,.16-.18.14Zm-.23,4.19a.18.18,0,0,1,.27-.1v0a0,0,0,0,0,0,0h0c-.13.14-.25.29-.39.45l-.15-.09A.44.44,0,0,0,58.75,25.3Zm-.09-3.78.06,0s0,0,0,0h-.06l0,0A.05.05,0,0,1,58.66,21.52Zm-.06,0h-.21s0-.07,0-.11A.26.26,0,0,1,58.6,21.54Zm-.42.05v0a0,0,0,0,1,0,0l0,0Zm0,4,0,0,0,0h0S58.11,25.59,58.13,25.58Zm-.23-3.31a.17.17,0,0,1,0-.05s0,0,0,0l0,.05Zm.06-.38-.05,0s.06-.12.12-.1,0,0,0,.06A.35.35,0,0,1,58,21.89Zm-.17-.79.29,0a.84.84,0,0,1-.2.11.81.81,0,0,1-.22,0C57.68,21.16,57.71,21.1,57.79,21.1Zm-.16.13,0,.05,0,0Zm-.31,4.35c0,.07,0,.12,0,.17s.17-.12.31-.2a2.22,2.22,0,0,1-.11.36c-.19,0-.28-.09-.4-.22Zm-1.59-9a.28.28,0,0,1-.15.21C55.58,16.64,55.58,16.64,55.73,16.59Zm-1.39,3.32s0,0,0,0a.09.09,0,0,1,.07,0s0,0,0,.07Zm.27-.25a.07.07,0,0,1,0,0,.54.54,0,0,1-.37-.18c.1,0,.2,0,.3,0a.19.19,0,0,1,.12.07S54.62,19.64,54.61,19.66Zm-.36-.45c0-.05.09-.1.16-.08s0,0,.05.06-.08.13-.13.11A.14.14,0,0,1,54.25,19.21Zm.7-1.95s0,0,0,.09l0,0a.15.15,0,0,1-.09,0s0-.05,0-.1S54.93,17.24,55,17.26Zm-.19.72h.06s0,0,0,0,0,0-.05,0Zm-.16-1.4v0h0Zm.11,1.19s0,.06,0,.07l-.08,0-.42-.2c.15,0,.19-.05.26,0S54.63,17.73,54.71,17.77ZM54.16,17c0-.05.08,0,.1,0s0,.06.05.08a1.84,1.84,0,0,0,.17.22.12.12,0,0,1-.15,0,1.45,1.45,0,0,1-.17-.18A.17.17,0,0,1,54.16,17ZM53.25,11h-.08l0,0,.09,0Zm-.12-.35h.18C53.25,10.78,53.24,10.78,53.13,10.66Zm.15-2.77C53.2,8,53.11,8,53,8A.32.32,0,0,1,53.28,7.89Zm0,.77c0,.09,0,.09-.06.13l-.09.1L53,8.64A1.06,1.06,0,0,1,53.27,8.66Zm-.46.71s0,0,0,0l0,0,0,0ZM45,7.92l0,0a.08.08,0,0,1,0,0l0,0,.17,0C45.17,8,45.13,8,45,7.92ZM43.29,5.19a1,1,0,0,1-.31.34C43,5.27,43,5.19,43.29,5.19Zm-9,2.55c0-.18,0-.19.18-.13C34.45,7.69,34.39,7.71,34.29,7.74Zm.85,2.68h0l.05,0-.05,0Zm.06.48c.19,0,.2.09.22.24A.57.57,0,0,1,35.2,10.9Zm.51-.21s0,0,0-.07h.1s0,0,0,.06Zm0-.28c0-.2.18-.21.27-.25s0,.09,0,.11Zm.31.4-.05-.07,0,0,.08.08Zm-2.37,4.81s-.06,0-.06,0,0-.07.06-.07h.08C33.72,15.6,33.67,15.61,33.62,15.62Zm0-.49a.2.2,0,0,1-.08,0l-.36-.26c.11,0,.19,0,.21,0s.19.09.33.13A.91.91,0,0,1,33.64,15.13Zm.23.39-.07,0a.08.08,0,0,1,.05-.12l0,0a.29.29,0,0,1,0,.09Zm.17-.91c0,.07-.12.06-.2,0a.75.75,0,0,1,.4-.24A1.64,1.64,0,0,1,34,14.61Zm.19-.61s0,0,0-.07l.11,0h.16l0,0-.06.14Zm.32,1.24-.28-.12,0-.06.23,0C34.58,15.11,34.59,15.17,34.55,15.24Zm-5,5.71c0-.16,0-.17.16-.13C29.71,20.91,29.64,20.94,29.56,21Zm1.59.08,0,0,0,0,0,0Zm-1.58,5.66a.1.1,0,0,1,0-.13l.07,0a.79.79,0,0,1,0,.13S29.58,26.7,29.57,26.69Zm.17-.88s-.12,0-.16-.08l.37-.25C29.89,25.63,29.8,25.79,29.74,25.81Zm.1-.69.28-.07h.08c0,.13,0,.18-.09.17ZM30,26.3a.21.21,0,0,1,.27,0s0,.06.05.13Zm.86-.79h.32c-.16.15-.19.16-.4,0C30.82,25.53,30.84,25.51,30.86,25.51Zm-.26.42s0-.05,0-.08h.06l.16.15c-.07,0-.1.06-.12.05A.68.68,0,0,1,30.6,25.93Zm.61.88c-.06.08-.11.17-.16.25s-.19,0-.23-.16a.46.46,0,0,0,.33-.24c.05-.12.16-.13.3-.12C31.36,26.64,31.28,26.72,31.21,26.81Zm.24-1.37a.38.38,0,0,1-.09-.13s0,0,0-.07l.11.08A.43.43,0,0,1,31.45,25.44Zm.25-2.87c.05-.08.06-.08.19-.13s0,.15,0,.25l-.15-.05S31.69,22.58,31.7,22.57Zm0,.88c.22,0,.23,0,.24.11A.29.29,0,0,1,31.7,23.45Zm.51.13a.75.75,0,0,0,0,.16.25.25,0,0,1-.22-.18A.39.39,0,0,1,32.21,23.58ZM32,27.05s0,0,0,0h0v0Zm.1-2.82s0,0,0,0,0-.06.09-.06l0,.05Zm.25-.1s-.05-.06-.05-.09,0-.05.05-.08a.75.75,0,0,1,.09.09Zm.61-2.3s0,0-.06,0l.05,0,0,0Zm.61,3.41s0,0,0,0a.13.13,0,0,1,0-.07l0,.05S33.6,25.23,33.57,25.24Zm.2.27h0v0h0Zm.09.45,0,0a.06.06,0,0,1,.07-.07.08.08,0,0,1,0,0A.16.16,0,0,1,33.86,26Zm.34-.14a0,0,0,0,1,0,0l0,0,0,0Zm.08-7.12c0,.06-.08.05-.22,0l-.09,0,.35,0A.19.19,0,0,1,34.28,18.7Zm1.22,6c0,.21-.18.25-.2.43L35,24.63C35.17,24.62,35.32,24.78,35.5,24.68Zm-.65.44.14,0h0a0,0,0,0,0,0,0s-.12.06-.15,0S34.84,25.12,34.85,25.12Zm-.11,1.27-.05,0s.08,0,.07,0Zm.15.06a.09.09,0,0,1-.12-.06.25.25,0,0,0,0-.07c0-.08,0-.14-.06-.21s.14-.14.22-.2a2.13,2.13,0,0,0,.22-.21s0,.05,0,.07a1.35,1.35,0,0,0-.27.61A.21.21,0,0,1,34.89,26.45Zm.33.22a.29.29,0,0,1-.23-.1s0-.05,0-.06a1.29,1.29,0,0,1,.41-.31Zm.21-1.17s.06,0,.07,0,.1.07.09.14,0,.05-.18.06C35.42,25.62,35.42,25.55,35.43,25.5Zm0,1.28s0-.05.05-.05l.09.08-.07.05Zm.29.62c-.16-.1-.16-.1-.16-.21C35.65,27.25,35.8,27.23,35.73,27.4Zm-6.66,4.07v0h0Zm1.55-2.79c0,.05.05.06.06.09s0,0,0,.05l-.16.07s0,0,0,0,0-.05,0-.06Zm.23.57s.1.06.14.1v.06s0,0,0,0a.87.87,0,0,0-.48,0s0,0-.1,0A.86.86,0,0,1,30.85,29.25Zm-.32.87.11-.07c.08,0,.12,0,.14.13Zm0,.34-.07,0-.07-.08s0,0,.05,0Zm-.67-1.39.44.16-.11,0-.26,0C29.85,29.23,29.85,29.23,29.87,29.07Zm-.33.44c0,.1-.1.11-.18.06s.09-.12.18-.14S29.56,29.48,29.54,29.51ZM29,28.9a.37.37,0,0,1,.43-.1.39.39,0,0,1-.15.1A2.61,2.61,0,0,1,29,28.9ZM29.17,31l.1-.06s0,0,0,.07l-.11,0Zm.08.5c0-.11.09-.12.21-.07C29.4,31.46,29.36,31.53,29.25,31.46Zm.12-.7s0,0,0,0,0,0,0,0a.08.08,0,0,1,0,0A.06.06,0,0,1,29.37,30.76Zm.25-.21c.07,0,.12.05.09.12s-.08,0-.09,0S29.57,30.6,29.62,30.55Zm0,1.3s0,0,0,0l0,0h0Zm0,2.71c.08-.07.14-.11.17,0Zm.18,0,.17-.1C29.91,34.58,29.91,34.58,29.8,34.55ZM30,30.74h-.09s0-.05,0-.07l.05,0,.08.05S30,30.74,30,30.74ZM29.72,30c-.13,0-.19.15-.28.22l-.32-.33c0-.05.06,0,.08,0a.49.49,0,0,0,.47,0,.48.48,0,0,1,.18,0,.32.32,0,0,1,0-.09.06.06,0,0,1,0-.09.27.27,0,0,1,.31.1C30,29.85,29.91,30,29.72,30Zm.47,5.87-.06-.05s0,0,0,0l.06,0Zm.4-1.65a.3.3,0,0,0-.32.17l-.09.06s0-.08,0-.1l.14-.16s0-.06.06-.06.26-.08.4-.1C30.75,34.11,30.71,34.21,30.59,34.2Zm.2-.76,0,0,0,0a.08.08,0,0,1,0,0Zm.15-2.65a.17.17,0,0,1-.23.05,1.6,1.6,0,0,1,.23-.16C30.94,30.74,31,30.77,30.94,30.79Zm.23,3.81h0s0,0,0,0h0ZM31.11,30a1,1,0,0,0-.31-.39l.33.08c0,.12.14.23.14.37A.11.11,0,0,1,31.11,30Zm.73-.92-.11,0c0-.1.11-.1.17-.11s.17,0,.15.05l-.16.1S31.86,29.11,31.84,29.1ZM32,35.92s-.05,0-.08,0,0-.06,0-.07l.16,0a.17.17,0,0,1,0,.05Zm.19-6.37,0,0,0-.06s0,0,0,0A.14.14,0,0,0,32.22,29.55Zm1.7.64-.1.13c-.1,0-.17-.08-.15-.2A.3.3,0,0,1,33.92,30.19Zm.12.45s0,.05,0,.05h-.16c0-.06,0-.1,0-.16Zm-.58-1.17.07,0,0,.06-.07-.05A.09.09,0,0,1,33.46,29.47Zm-1.13,6.87,0,0,0,0v0A.08.08,0,0,1,32.33,36.34Zm.08-.59c-.08,0-.14-.1-.06-.18s.08,0,.15,0Zm.18.49s-.05,0-.06-.08l0-.06.15.08C32.65,36.22,32.62,36.25,32.59,36.24Zm-.15-6.8c0-.05,0-.09,0-.16l.41.14v0Zm.4,1.12a.07.07,0,0,1,0-.06l0,0s0,.05,0,.08Zm.21.17-.08-.1s0-.08,0-.09,0,0,.07.05a.36.36,0,0,1,0,.11Zm0-1.65,0,0,0-.09.06,0A.21.21,0,0,1,33.07,29.08Zm.15,1.25-.06,0a0,0,0,0,0,0,0l.06,0Zm.1,0s-.08,0-.08-.05h0s.07,0,.08,0S33.33,30.36,33.32,30.36Zm.25,6.42-.1,0a.3.3,0,0,1-.07-.08.38.38,0,0,0,.26-.23c0-.11.13-.1.24-.11C33.78,36.49,33.68,36.62,33.57,36.78ZM34,31.4s0,0,0-.06a.54.54,0,0,1,0-.12c0,.06.09.09.09.11S34,31.38,34,31.4Zm-5.38,9-.11,0,.11,0,0,0Zm0,.45c.18,0,.18,0,.21.22Zm.73-.8c.06,0,0,.09,0,.12a.47.47,0,0,1-.26.1A.42.42,0,0,1,29.38,40.05Zm-.32.53c.1-.06.15-.09.25,0Zm.34.51h0s0,0,0,0,0,0,.05,0S29.42,41.08,29.4,41.09Zm1.4-1.36v0h0S30.8,39.74,30.8,39.73ZM30,40.8h0Zm0,.53a2,2,0,0,1,0-.29.47.47,0,0,1,.16.31C30,41.42,29.94,41.4,29.92,41.33Zm.15.44,0,0s0,0,0,0l-.05,0Zm0,.46c.23,0,.25.1.25.24Zm.55-3a.41.41,0,0,1,0,.09c-.11.07-.11.06-.25-.06Zm.58,1.06a.66.66,0,0,1-.17.12c-.08,0-.18.05-.26.09s-.11.11-.18.17l-.17-.26s0,0,.05,0c.18.07.34-.08.52-.06,0-.06,0-.13,0-.17s.09,0,.13,0A.11.11,0,0,1,31.18,40.28Zm-.11-.61c.1-.06.1-.06.29,0Zm.55.18s0,0,0,0h.05l0,0Zm.15,1.83-.07,0a.15.15,0,0,1,0,0l.07,0S31.77,41.66,31.77,41.68Zm.16-1.08a.08.08,0,0,1-.12-.05s0-.06,0-.06a.12.12,0,0,1,.14,0S32,40.6,31.93,40.6Zm.08-.45s0,0,0,0h0s0,0,0,0Zm.57.27a.4.4,0,0,1-.16.13s-.08,0-.16,0c.09-.08.18-.09.16-.2v0a.11.11,0,0,1,.11-.07.16.16,0,0,1,.07,0s0,0,0,0A.14.14,0,0,1,32.58,40.42Zm.44-1,.15-.15c0,.05.07.08.07.11a.16.16,0,0,1-.21.09S33,39.41,33,39.41Zm.17,2.44-.17-.1.3-.25,0,.07ZM33,41l.07,0a.56.56,0,0,1,.05.08s-.07,0-.08,0S33,41,33,41Zm.32-.29h0ZM33,40c.19-.12.19-.12.52-.13,0,.06,0,.11,0,.16Zm.51,1.35h-.07s0,0,0,0h0S33.53,41.32,33.52,41.32Zm0-.07.07-.16C33.62,41.18,33.62,41.19,33.55,41.25Zm.5-.93s0,0,0,0h0l0,0Zm-.25-.62c0-.06.07-.05.12-.06l.07,0s0,0,0,0l-.13,0S33.8,39.71,33.8,39.7Zm.46,1.46a4.26,4.26,0,0,0-.42-.11v-.13a3.4,3.4,0,0,1,.38.12.08.08,0,0,1,0,.12.52.52,0,0,1,.71.22A.9.9,0,0,1,34.26,41.16ZM4.16,57.74s0,0,0-.05a.64.64,0,0,1,.06-.1s.06.06.06.09S4.19,57.74,4.16,57.74Zm1.67-.26h0v0h0Zm2.83,0v0h0v0Zm3.75,0a.12.12,0,0,1-.14-.09.37.37,0,0,1,0-.11.15.15,0,0,1,.1,0,.13.13,0,0,1,.06.09S12.42,57.45,12.41,57.47Zm1.28-.13-.11,0a.11.11,0,0,1,0-.08.08.08,0,0,1,.12,0l0,0S13.7,57.33,13.69,57.34Zm0-.18c0-.12.11-.15.23-.2C13.84,57.19,13.84,57.19,13.68,57.16Zm.77-.12,0,0s0,0,0,0l0,0Zm3.66-.52s0,0,0,.06l-.07,0a.43.43,0,0,0,0,0Zm.11.31s0,0,0,0,0,.06,0,.07h-.07s0-.07,0-.09l.08,0s-.05-.07,0-.1.07-.12.13-.12.06,0,.06.07S18.31,56.79,18.22,56.83Zm.78,0s0,0-.07,0,0,0,0-.06l.06-.05s0,0,.05,0,0,0,0,0Zm1.72.31c-.09,0-.1-.1,0-.19l.06-.09-.1.05c-.07,0-.1,0-.09-.11a1.06,1.06,0,0,0,.19.06v0s0,.06.06.09a.85.85,0,0,1,.1.17A.44.44,0,0,1,20.72,57.18Zm.18-.25h0a.08.08,0,0,1,0,0A.07.07,0,0,0,20.9,56.93Zm.31,0h0a.25.25,0,0,1,0-.08.08.08,0,0,1,.05,0A.08.08,0,0,1,21.21,57Zm1.1.07L22.25,57l.07,0,0,0S22.33,57,22.31,57.05Zm2.28,0s0,0,0,0l0,0,0,0Zm2.18.17a.15.15,0,0,1-.05.06s-.07,0-.07,0a.12.12,0,0,1,0-.1l.1,0Zm.17-.38.15-.09c0,.07,0,.12-.06.12S27,56.86,26.94,56.85Zm.18.51s-.07,0-.08-.07,0-.06.06-.11.07.07.07.09A.16.16,0,0,1,27.12,57.36Zm2.81-.22s0,0-.05,0,0,0,0,0l.08,0S29.94,57.14,29.93,57.14Zm.39-.07,0-.06.07,0,0,0Zm1.51-.42a.08.08,0,0,1,0,0h0Zm0,.57s-.09,0-.13,0-.05-.13,0-.16h0a.16.16,0,0,1,.15.16S31.85,57.21,31.83,57.22Zm1.91-.36s0-.06,0-.09h.16C33.87,56.86,33.8,56.84,33.74,56.86Zm.2.19,0,0,0-.07L34,57A.34.34,0,0,0,33.94,57.05Zm.36-.18a.05.05,0,0,1,0,0h.07Zm.2.22L34.42,57s0,0,0-.06h.05l.06.08Zm.32,0s0,0,0,0h0a.08.08,0,0,1,0,0S34.82,57.06,34.82,57.05Zm.74.05c-.09-.11,0-.21,0-.3A.74.74,0,0,1,35.56,57.1Zm.07-.35s-.05,0-.09,0,0-.24,0-.36.11,0,.11.07A.75.75,0,0,1,35.63,56.75Zm.19-.37s0,0,0,0h0Zm.84.2a.07.07,0,0,1,0,0s0,0,0,0l0,0S36.67,56.57,36.66,56.58ZM59,55.75s0,0,0,0,0,0,0,.06h0a.09.09,0,0,1,0-.05A.43.43,0,0,0,59,55.75ZM57.54,56l.12,0-.07.14s-.08.05-.1,0-.05-.07,0-.1A.28.28,0,0,1,57.54,56Zm-.13-.35,0,0s0,0,0,.05l0,0Zm-1,.55c-.12.08-.19,0-.24-.06a2.46,2.46,0,0,1-.17-.27A.47.47,0,0,1,56.39,56.24ZM55.52,56h.09l-.07.06,0,0S55.51,56,55.52,56Zm-1.26.75a.54.54,0,0,1-.22-.3C54.17,56.47,54.23,56.56,54.26,56.73Zm-1,.17h0s0,0,0,0h0Zm-1-.06-.27.23C52,56.91,52,56.91,52.18,56.84Zm-1.87-.06s.06,0,.12,0a.83.83,0,0,1-.09.15.12.12,0,0,1-.1,0,.14.14,0,0,1,0-.11A.22.22,0,0,1,50.31,56.78Zm-.44,0,.2-.12c0,.09,0,.17-.11.22s-.07,0-.07,0S49.86,56.75,49.87,56.74Zm-.49-1c0,.05,0,.09-.07.14S49.29,55.81,49.38,55.79Zm6-31s0,.07,0,.09,0,0-.06,0,0,0,0,0S55.41,24.8,55.43,24.76Zm-.28-3.59a0,0,0,0,1,0,0h0v0ZM53.83,18l0,0h0l0,0Zm.24,3.19c.1,0,.2,0,.32,0l0,.18L55,21.3c.06.05.06.11,0,.18a.62.62,0,0,0-.6.1.7.7,0,0,0-.2.6.35.35,0,0,1-.2-.28v-.19a.51.51,0,0,0-.13-.42s0-.08-.07-.13Zm.77,3.3.08-.07,0,.07s0,.05-.06.05S54.86,24.53,54.84,24.52Zm.07,11.19,0,0v0l0,0Zm-.29-11.82a.3.3,0,0,1,.26,0C54.79,24,54.79,24,54.62,23.89Zm0,1.05s0,0,0,0,0-.07,0-.1,0,0,0,0l0,0A.07.07,0,0,1,54.64,24.94Zm.06,4.78,0,0,0,0h-.06Zm0,7.37a.07.07,0,0,1,0,.07c-.1,0-.12,0-.13-.11S54.73,37,54.73,37.09Zm.11.9s0,.1-.05.19a2.64,2.64,0,0,0-.1-.27A.1.1,0,0,1,54.84,38Zm-.09-3.72a.6.6,0,0,0,0-.12s.06,0,.06,0S54.83,34.25,54.75,34.27Zm-1.11.59a.18.18,0,0,1-.06-.09l.07,0,0,.1Zm0,.53,0,0h0l0,0S53.67,35.37,53.68,35.39Zm-.2-.69-.32-.1c.11-.13.18-.16.48-.2C53.57,34.52,53.53,34.6,53.48,34.7Zm.09.41c-.06.14-.09.15-.18.08a.13.13,0,0,1,0-.06Zm-.48,3.46h.09s0,0,0,0h-.09S53.08,38.57,53.09,38.57Zm-.09-.2-.11-.14.16-.11,0,.06Zm0-3.32c0-.08,0-.17-.05-.28l0,0c0,.15.14.19.26.22s.13,0,.11.1Zm.71-1.38a.39.39,0,0,0-.18.2.83.83,0,0,1-.28.28l-.68.4a.11.11,0,0,1,0,0c.19-.4.37-.8.56-1.21l.12.09.28-.16a.39.39,0,0,1,.26,0c.07,0,.14.12.1.18S53.78,33.6,53.67,33.67Zm-1,1.73a.86.86,0,0,1,.07-.1.11.11,0,0,1,.08,0C52.83,35.4,52.81,35.43,52.65,35.4Zm.13,3.33,0,.08a.25.25,0,0,1,0-.08Zm-.39.39s0-.1.09-.15.13-.17.25-.13q-.16.24-.36.48l-.15-.07A1.26,1.26,0,0,0,52.39,39.12ZM52,38.45c0-.07,0-.06.08-.06h.17c0,.08.1.15.07.26Zm.38-.15c.12-.09.12-.09.19,0Zm.27-.08h0l0,0h0S52.62,38.23,52.62,38.22Zm-.62-5c0-.05-.08-.11-.15-.11a1.93,1.93,0,0,1,.47-.08q.15,0,.18.15c0,.08-.22.09-.21.25s-.12,0-.16,0A1.37,1.37,0,0,0,52,33.17Zm0,.28,0,0,0-.06.05,0S52,33.44,52,33.45ZM52,31.12a.07.07,0,0,1,0,0l.1.05s0,.05-.05.05A.06.06,0,0,1,52,31.12Zm.48-.5c0,.07,0,.11,0,.15s0,0-.06,0l-.14,0a.27.27,0,0,0-.33.13.81.81,0,0,0-.49-.17l-.13-.19.3-.11a.78.78,0,0,0-.38-.22.28.28,0,0,1-.23-.33s0-.08-.07-.12c-.16-.21-.16-.2-.34-.27,0,0,0-.07,0-.11s0-.08,0-.12l.07-.05A.69.69,0,0,0,51,29a.34.34,0,0,1,.14-.05.8.8,0,0,0,.15,0s.08,0,.08-.07,0-.07-.05-.09l-.09,0-.09-.07.28-.11c0,.09,0,.16.08.24a2.5,2.5,0,0,1,.08.25h-.14L51.26,29a.18.18,0,0,0-.21.2c0,.11.05.24.08.38l.41-.21a.44.44,0,0,0,.1-.15.32.32,0,0,1,.3-.19.67.67,0,0,0-.13.47l.3-.21c0,.16,0,.29-.08.42s.13-.07.23,0l.11.31.3-.18s.06,0,.08,0c.14-.24.38-.14.59-.19,0,0,.08,0,.16.13h-.12l-.21-.05a.15.15,0,0,0-.16.17,1.6,1.6,0,0,0,0,.27,1.18,1.18,0,0,0-.65.11.07.07,0,0,1-.06,0c-.31,0-.39.2-.47.44A2.34,2.34,0,0,0,52.46,30.62Zm-.62,2.31a.51.51,0,0,1,0,.13.28.28,0,0,0-.11-.08,1.2,1.2,0,0,0-.2,0C51.58,32.87,51.58,32.87,51.84,32.93Zm-.15-1.47a.29.29,0,0,1,.1-.08s0,.06,0,.08a.13.13,0,0,1,0,.07s-.05,0-.06,0S51.68,31.48,51.69,31.46Zm-1,1.32.07,0,0,0a.09.09,0,0,1,0,0Zm-.16-1.45c.06-.06.1,0,.16,0S50.62,31.39,50.57,31.33Zm1-5.44-.08,0s0,0,0,0l.11,0Zm.24,2.58c-.19.16-.19.16-.29,0Zm-.31-2.87-.1,0s0,0,0,0l0,0,.09,0Zm.72,2.59-.2.24c-.08,0-.08-.07-.11-.1l-.06-.14Zm-.17-1.81c.07-.05.07-.05.15,0Zm.19,2.48s0,0-.06,0-.06,0-.06-.07,0,0,.06-.08A.64.64,0,0,1,52.28,28.86ZM52,29s0,.05,0,.07,0-.05,0-.07Zm.52-.81a.27.27,0,0,1,0-.09l0,0a.08.08,0,0,1,0,0A.08.08,0,0,1,52.48,28.17Zm.12,1.18v0l0,0a.08.08,0,0,1,0,0Zm-.1-.47s0,0,0,.06l0,0s0,0-.05-.06S52.49,28.87,52.5,28.88Zm-.19-.68s0-.05.06-.05l.1,0C52.46,28.28,52.39,28.25,52.31,28.2Zm.91-3.44a.17.17,0,0,1,.17-.13C53.39,24.81,53.39,24.81,53.22,24.76Zm.14,1.1-.08.05,0,0a.33.33,0,0,1,0-.06Zm-.07-4.33s-.07,0-.07,0,0-.08.08-.1.06,0,.11,0Zm-.13-.75c0-.1,0-.1.17-.16C53.33,20.77,53.24,20.75,53.16,20.78Zm0-.77.1,0-.11.07a.06.06,0,0,1-.07,0S53.11,20,53.17,20Zm0-2.58.15,0c.11,0,.06.1,0,.25Zm.12,10.88,0,.05s0,.05,0,.05h-.2A.15.15,0,0,1,53.28,28.31Zm-.15,1s0,0,0,0l-.07,0s0,0,0,0Zm-.44-.8c0-.08.07-.07.12-.08l.14,0c0,.11,0,.2.08.34Zm.72-8v0h0a.08.08,0,0,1,0,0Zm.1,4s0,0,0,0v0h0Zm0,5.72-.13-.07C53.51,30.12,53.51,30.12,53.55,30.24Zm-.91,1.28h0a0,0,0,0,0,0,0Zm1-3.23h0l.08,0,0,0A.21.21,0,0,1,53.6,28.29Zm.14,1.6s-.06,0-.09,0,0-.06.05-.07a.22.22,0,0,1,.11,0s0,0,0,0Zm0-5.43s0,0-.06-.06,0-.09,0-.08.06,0,.07.08S53.79,24.43,53.76,24.46Zm0,.78,0,0,0,0,0,0Zm0,2.9s0-.05.06-.06,0,0,.06,0,0,0,0,.06ZM54.05,34c-.07.14,0,.26.07.42-.16-.06-.18-.2-.29-.26A.37.37,0,0,1,54.05,34ZM54,24.45l.06,0s0,0,0,0l-.05,0Zm.23,5s0,0,0,.05l0,0s0,0,0,0S54.2,29.49,54.21,29.48Zm0-5.41.3-.1.06.22s0,0-.06,0Zm0,5.93-.08.05a.17.17,0,0,1,0-.05l.09,0S54.18,30,54.18,30Zm.22,3.86c0,.09-.06.12-.14.12l-.19,0A.39.39,0,0,1,54.4,33.86Zm-.49,3.32c0,.13.06.22.08.3C53.84,37.47,53.81,37.39,53.91,37.18Zm.25.69a.17.17,0,0,1,.06-.1s.08,0,.11,0,0,.06,0,.1l-.28.34-.16-.09A.46.46,0,0,0,54.16,37.87Zm-.1-.77h.27C54.21,37.23,54.21,37.23,54.06,37.1Zm.28-1.85h-.08c-.06,0-.14,0-.15-.14s.1-.11.19-.12h.09a.2.2,0,0,1,.1,0C54.44,35.11,54.38,35.18,54.34,35.25Zm0-.59s-.06,0-.08,0a.4.4,0,0,1,0-.11c.07-.06.14-.13.25-.06C54.48,34.55,54.43,34.61,54.37,34.66Zm.16-.3h0s0,.08,0,.12A.45.45,0,0,1,54.53,34.36Zm-1-11s0,0,0,0v0h0Zm.39.28c0-.06,0-.11.08-.16a.17.17,0,0,1,.22.09,1,1,0,0,1-.42.22c-.09,0-.17.1-.27.16l-.12-.22A3.67,3.67,0,0,1,54,23.66Zm-.54-3.84s0,0-.06-.05a.17.17,0,0,1,.06-.06s.05,0,.05.06A.06.06,0,0,1,53.41,19.82Zm0-6c-.09.16-.2.13-.31.08C53.19,13.81,53.29,13.85,53.41,13.86Zm-.28,2.95a.11.11,0,0,1,.08,0s0,.06,0,.08a.41.41,0,0,1-.09.1l0,0A.39.39,0,0,1,53.13,16.81Zm-.35-3.71c-.13,0-.13,0-.15-.14A.17.17,0,0,1,52.78,13.1Zm-.1.45s0,0,0,0l0,.06-.06,0Zm0,.52a1.51,1.51,0,0,1,.3,0c.06,0,.08.06.06.14s-.28,0-.44-.06C52.59,14.1,52.61,14.07,52.63,14.07Zm.26,3.69a.35.35,0,0,1-.29-.07c0-.13.06-.16.16-.2S52.85,17.66,52.89,17.76Zm-.38-5.58h0s0,0,0,0h0Zm0,4.87v0a0,0,0,0,0,0,0l0,0Zm-.26-5.27.17.1c0,.07,0,.1-.08.07a.58.58,0,0,1-.13-.14Zm-.08,1s0,0,0,0l-.05.06a.09.09,0,0,1,0-.05ZM52.34,14,52.11,14C52.21,13.91,52.27,13.94,52.34,14Zm-.2.38.07,0,0,0-.06-.06ZM52.06,18l.22-.11v.25l-.26.07-.36-.41c.08-.06.14,0,.22,0S52,18,52.06,18Zm-.31,5.75s0,0,0,0,0,0,0,0a.09.09,0,0,1-.05,0Zm-.32-5.51a.27.27,0,0,1,.31-.07C51.66,18.33,51.56,18.28,51.43,18.24Zm.42-.81c0,.08,0,.12,0,.18l-.41-.05s.06-.08.08-.08Zm-.2-6.09s0,0,0,0h0a0,0,0,0,0,0,0Zm-.1-3.19c0,.17,0,.17-.19.17C51.37,8.22,51.45,8.21,51.55,8.15Zm-.16,10.4,0,0s0,0,0,0h0S51.38,18.55,51.39,18.55Zm-.1-6.82.05,0s0,0-.05.05,0,0-.06,0Zm-.07,4,.07.06,0,0-.08-.05A.13.13,0,0,0,51.22,15.73ZM51,17.85l.06,0s0,0,0,.05L51,17.89ZM50.94,16c-.1.1-.19.17-.27.26l-.3-.33c.15,0,.22.08.33.15S50.81,15.91,50.94,16Zm-.4,2.72s0,0,.05-.05,0,0,0,0,0,0,0,.06S50.54,18.7,50.54,18.68Zm0,4.67a.36.36,0,0,1,0,.1l0,0a.36.36,0,0,1,0-.09Zm-.81.25a1.09,1.09,0,0,0-.23-.14.15.15,0,0,1-.09-.15c0-.13,0-.26.06-.4h0c0,.17.08.33.12.52l.39-.2-.09.21h.22a1.46,1.46,0,0,1-.26.33c-.12.14-.25.26-.37.39h-.09c-.05-.08,0-.18-.09-.28l.25-.06.13-.07A.1.1,0,0,0,49.75,23.6Zm-.27-1.09.2-.05C49.61,22.57,49.61,22.57,49.48,22.51Zm.22-3.66h0a.08.08,0,0,0,0,0h0S49.7,18.86,49.7,18.85ZM50,22.71s0,0,.07,0,0,.05,0,.08,0,.06,0,.07a.21.21,0,0,1-.1,0s0-.05,0-.07A.18.18,0,0,1,50,22.71Zm-.05-.27s0,0,0,0H50l0,0Zm.25.74s0-.05,0-.05a.3.3,0,0,1,.11,0s0,0,0,.05,0,0-.06,0A.27.27,0,0,1,50.15,23.18Zm0-.78H50c.08-.12.2-.13.36-.11A.16.16,0,0,1,50.17,22.4Zm.13-6-.24,0a.41.41,0,0,1,.37-.09C50.36,16.37,50.35,16.38,50.3,16.37Zm0-.93,0,0s.06,0,.07,0,0,0-.08,0Zm.23-3.51,0,0s.08,0,.08.07l0,0Zm0-7.4c0,.12,0,.22-.08.28l-.07.06a.16.16,0,0,0,0,.22l.29.13s0,0,0,0l-.31-.06A1.4,1.4,0,0,0,50,4.44c.14,0,.28,0,.35.19Zm-1.06,6s0,0,0-.05l0,0h.05s0,0,0,0S49.57,10.57,49.55,10.56Zm.09.4,0,0,0,0,0,0Zm.12.52h.18l.18,0c0,.15.05.3.09.47l-.21,0S50,12,50,12a.24.24,0,0,1-.14,0,1.31,1.31,0,0,1-.21-.1C49.66,11.8,49.71,11.65,49.76,11.48Zm.32-2.14,0,0h0Zm.07.66,0,0h-.05l0,0Zm-.36-5.19h.27C50,4.93,50,4.93,49.79,4.81ZM50.07,10c0,.09,0,.19,0,.29l-.3-.17c0-.09.11-.07.16-.08Zm0,1.19a.05.05,0,0,1,0,0l0,0,0,0Zm.2,3.13-.09.31-.17,0s0-.06,0-.08C50.07,14.43,50.07,14.43,50.28,14.36Zm-.2-10.3s.06-.06.08-.08.26-.13.4-.06S50.5,4,50.42,4L50.16,4a.36.36,0,0,1,0,.27.67.67,0,0,0-.44,0l-.08-.07A2.17,2.17,0,0,1,50.08,4.06Zm-.92-.16.11,0,.14.05s.08,0,.1.08l-.35,0Zm0,.69a.57.57,0,0,1,0-.12c.06-.07.13-.06.29,0-.23.25-.26.26-.48.14ZM49,8.13a.75.75,0,0,1,.18.13,1,1,0,0,1,.17-.1c.05,0,.06,0,.06.07a1.25,1.25,0,0,0,.16-.17c.09-.13.09-.13.28,0l-.25.2h-.19l-.22.18-.25-.28S48.93,8.11,49,8.13Zm.3,3.61a2.22,2.22,0,0,0-.24-.17,2.26,2.26,0,0,0-.26-.11.67.67,0,0,1,.14-.11,1.29,1.29,0,0,1-.15-.17v-.37l.21-.16c0,.08,0,.16-.05.25s0,.15,0,.26l.3-.2c0,.16-.1.29,0,.44l.2-.11c0,.1,0,.19.09.3A1.17,1.17,0,0,0,49.25,11.74Zm.11,2.32,0,0-.06,0s0,0,0,0Zm-.15-1s0,0-.05.07l0,0,.07-.08S49.22,13,49.21,13Zm-.39-3.31c.11,0,.17,0,.22.15A.28.28,0,0,1,48.82,9.73Zm.21.86s0,0,0,0h0l0,0Zm-.17-.48h0a.24.24,0,0,1-.09.08l0,0s0-.07,0-.08Zm-.08,3.5H49v0l-.2.06S48.74,13.62,48.78,13.61Zm0-1.37v-.08h0l0,.05Zm.5-2.34-.14.13a.21.21,0,0,1,.12-.25s.08,0,.13,0S49.29,9.86,49.25,9.9Zm.11.53c0,.05,0,.08-.06.08a.05.05,0,0,1-.08,0,.09.09,0,0,1,0-.07Zm-.49-1.18a.15.15,0,0,1,0,.1s-.07,0-.08,0a.19.19,0,0,1,0-.1s0-.05.08-.09S48.87,9.23,48.87,9.25Zm-.62-.55L47.86,9c-.14-.11-.15-.16,0-.19A.61.61,0,0,1,48.25,8.7Zm-.33-.76c.15.06.15.06.3.3-.06,0-.13.07-.15.06a.33.33,0,0,1-.14-.15A.49.49,0,0,1,47.92,7.94Zm.24,13.38s0,0-.07,0,0,0-.08-.05.08,0,.1,0S48.15,21.31,48.16,21.32Zm0-4.66a.09.09,0,0,1,0-.05l0,.05a.09.09,0,0,0,0,.05S48.12,16.68,48.11,16.66Zm0,9a.08.08,0,0,0,0,0l-.22,0a1.15,1.15,0,0,0,0-.18ZM48,27.07a1.86,1.86,0,0,1,.2-.1,1.81,1.81,0,0,1,.05.9c-.11,0-.14-.11-.23-.13l-.28,0a.42.42,0,0,1-.13-.36c.13,0,.19-.12.3-.2a.86.86,0,0,0-.41-.39.43.43,0,0,1,.31-.1C47.89,26.75,47.87,26.92,48,27.07ZM47,28.8c-.06-.07-.13-.15-.21-.26s.05-.19.08-.32a.41.41,0,0,0,.34,0,.64.64,0,0,1,.24,0,.18.18,0,0,1,.19.14s-.06,0-.08,0c-.24-.1-.41,0-.57.22l.43,0C47.22,28.64,47.1,28.73,47,28.8Zm.26,3.68,0,0,0,0,.05,0A.11.11,0,0,1,47.23,32.48Zm-.71-17a.12.12,0,0,0-.05,0l.07-.08s.05,0,.05.06S46.54,15.42,46.52,15.45Zm0,16.42h0s0,0,0,0S46.54,31.86,46.54,31.87Zm-.15-2.65c.08.13.08.13,0,.21A.3.3,0,0,1,46.39,29.22Zm-.07-.07s0,0,0,0l.05,0a.19.19,0,0,1,0,.08S46.33,29.18,46.32,29.15Zm-.12-4.6L46,24.46s0-.06,0-.06a.74.74,0,0,0,.32-.22.3.3,0,0,1,.11-.07C46.46,24.27,46.45,24.28,46.2,24.55Zm0,8.43v0h0v0Zm-.5-4.3c0,.05.07.06.08.09s0,.06,0,.08a0,0,0,0,1-.05,0s0,0,0-.06S45.71,28.75,45.73,28.68Zm0,2.15,0,0a.21.21,0,0,1,0-.06l0,0A.08.08,0,0,0,45.71,30.83Zm-.16-16.28c.14-.06.27-.16.45-.05a.79.79,0,0,1-.16.08A2.58,2.58,0,0,1,45.55,14.55ZM45.61,10a.25.25,0,0,1-.2.1C45.46,10,45.46,10,45.61,10Zm-.13-.48,0,0v0s0,0,0,0A.08.08,0,0,1,45.48,9.51Zm.16,2,.09.07s0,.06-.08.07-.06-.05-.06-.08S45.62,11.54,45.64,11.52Zm.12-2.11s0,0,0,0,0,0,0-.1.06.06.07.1A.05.05,0,0,1,45.76,9.41Zm.08,2.73a.1.1,0,0,0,0,0H45.7v0c0-.06.07-.06.12-.05Zm-.08-1.86h0l0,0,0,0Zm.66,3.91-.18.23C46.19,14.25,46.3,14.21,46.42,14.19Zm0-3.93h0l0,.09A.34.34,0,0,0,46.4,10.26Zm.2,4.6s0,0,0,.05l-.26,0a.86.86,0,0,1,0-.15A2,2,0,0,0,46.6,14.86Zm-.25-1.64h0v0h0Zm-.16-2.73c.1-.11.1-.11.21-.11A.33.33,0,0,1,46.19,10.49Zm.05,3.34-.15.4a.51.51,0,0,1-.13-.12A.18.18,0,0,1,46,14,2.33,2.33,0,0,1,46.24,13.83Zm-.17,11a.18.18,0,0,1-.06.1c-.08,0,0-.08-.15-.08C46,24.77,46,24.74,46.07,24.81Zm.52,5.09a.08.08,0,0,1,0,.05s0,0,0,0a.05.05,0,0,1,0,0Zm.13,4.9s0,.05,0,.08l-.07,0a.1.1,0,0,1-.08-.13A.31.31,0,0,1,46.72,34.8Zm-.1-19.89h0l0,0h0Zm.1-4.09c-.1.1-.18.06-.28,0l.17-.06v-.15a.26.26,0,0,1,.3.09A1.56,1.56,0,0,0,46.72,10.82Zm.94-.6c0,.07,0,.11,0,.17-.18,0-.34-.11-.48,0-.05-.08,0-.11,0-.12Zm-.33-.44a.08.08,0,0,0,0,0l0,.07s0,0,0,0S47.35,9.79,47.33,9.78Zm.44,5c-.07.14-.18.1-.33.05A.28.28,0,0,1,47.77,14.79Zm-.08-3.36,0,0,0,0s0,0,0,0Zm0,14.47h.06a.07.07,0,0,1,0,.06.4.4,0,0,1-.19.2A.26.26,0,0,1,47.68,25.9Zm-.1-10.14v0h0Zm.1,9.3,0-.06a.71.71,0,0,1,.09.07l0,.06S47.7,25.1,47.68,25.06Zm0-9.62s.06-.06.13,0,0,.12,0,.17S47.69,15.51,47.71,15.44Zm-.23.14h0v0Zm-.23-.22-.06-.07c.09-.06.13,0,.16.07S47.28,15.37,47.25,15.36Zm0,.3h0Zm0-1.25h.28C47.44,14.47,47.36,14.49,47.27,14.41Zm.13-.19c-.07,0-.12,0-.08-.11a2.41,2.41,0,0,1,.24-.21C47.55,14,47.55,14,47.4,14.22ZM47.24,11h.27C47.46,11.09,47.46,11.09,47.24,11Zm0,.4c-.09,0-.12-.07-.17-.09a1.8,1.8,0,0,1-.18-.1.47.47,0,0,1,.28-.09A2.29,2.29,0,0,1,47.23,11.36ZM47.12,15c-.12.13-.13.13-.28.07A.29.29,0,0,1,47.12,15ZM47,13.36v0a.05.05,0,0,1,0,0l0,0S47,13.38,47,13.36Zm-.34-3.17c0-.08,0-.09.07-.08l.25.08Zm.62,25.21a.41.41,0,0,0,.32-.29c0-.13.14-.19.32-.24,0,.09,0,.18,0,.2a1.44,1.44,0,0,0-.4.51l-.21-.11S47.28,35.4,47.29,35.4Zm.58-1.52s0-.05,0-.08h.05s0,0,0,.08S47.88,33.9,47.87,33.88Zm0-.63-.1-.15a1.31,1.31,0,0,0-.12-.15c.19-.08.35,0,.52,0C48.09,33.13,48,33.16,47.84,33.25Zm-.15-5.19a.37.37,0,0,1,.29,0C47.88,28.17,47.88,28.17,47.69,28.06Zm.44.46h0v0h0A0,0,0,0,1,48.13,28.52ZM47.76,18s0,0,0-.07h.12l0,.07S47.79,18,47.76,18Zm-.25-7.35a.39.39,0,0,1,.37.19,1,1,0,0,0,.21-.1c0,.09,0,.15,0,.2l-.21.19C47.74,11,47.72,10.7,47.51,10.6Zm.29-.46v0h.1v0Zm.09-.5a.6.6,0,0,0-.62-.37c0-.06,0-.1,0-.17l.29.12a.71.71,0,0,0,.38.08.27.27,0,0,1,.24.09c0,.09,0,.2.06.3a.57.57,0,0,0,0,.14A.42.42,0,0,1,47.89,9.64ZM48,9.07A.24.24,0,0,1,48.07,9h0a1.85,1.85,0,0,1,.25,0l-.07,0C48.16,9.1,48.09,9.14,48,9.07Zm-.24-3.38a.86.86,0,0,0,0,.17.24.24,0,0,1-.24-.1A2.19,2.19,0,0,1,47.74,5.69Zm-.53,3,.26-.15c0,.1,0,.17,0,.23l-.12.11L47.24,9a.29.29,0,0,1-.11-.11c-.06-.09-.1-.19-.16-.28C47.12,8.48,47.16,8.59,47.21,8.69Zm-.2.79-.09,0s0,0-.05,0l.05-.06S47,9.45,47,9.48Zm-.12-.67c-.06.16-.06.16-.28,0Zm-.36-1.92.14,0c-.05.19-.05.19-.29.08Zm0,2.05c0,.11,0,.21.09.35l-.36-.23C46.29,9,46.4,9,46.49,8.94Zm-.3-3c0,.09,0,.11-.08.11a.17.17,0,0,1-.18-.1Zm-.1,2.57a.13.13,0,0,1,.06.09.09.09,0,0,1-.06.1.1.1,0,0,1-.07,0l0,0-.08-.11C46,8.44,46,8.43,46.09,8.47Zm-.68.17a.39.39,0,0,0,.35,0,.72.72,0,0,1,.25,0s0,.06,0,.06a.44.44,0,0,0-.39.22l-.32-.33ZM45,9.09c.12-.05.23-.16.4-.07,0,0-.1.09-.15.09ZM45,10a.26.26,0,0,0,.2-.18.37.37,0,0,1,.32-.23,1.64,1.64,0,0,0-.16.29c-.06.11,0,.13.08.23,0,.07-.09.13-.15.22l.26,0c0,.16,0,.31.05.48h-.13c-.08,0-.07.05-.11.11a1.66,1.66,0,0,1-.38-.11c0-.4,0-.4-.18-.61C44.79,10,44.89,10,45,10Zm.46,3s0,0-.06,0-.06,0,0-.1,0,0,.08-.06S45.43,12.94,45.42,13Zm-.28.1s0,0,0,0,0,0,0,0a0,0,0,0,1,0,0A0,0,0,0,0,45.14,13.06Zm-.44-2.28v0l0,0s0,0,0,0Zm0,2.38c-.06.08-.11.06-.16,0s0-.18,0-.27C44.66,13,44.66,13.08,44.7,13.16Zm-.12-3-.17.12-.11,0s0,0,0,0a.5.5,0,0,1,0-.13Zm-1.21-.43.08,0a.14.14,0,0,1,.09,0,.05.05,0,0,1,0,0l.05.1-.19.09s-.1,0-.12,0S43.34,9.78,43.37,9.74Zm.21,1.12h0Zm-.38,1.81a.43.43,0,0,0,.32-.29c0-.07,0-.07.15-.14s0,.11,0,.14-.21.3-.32.46l-.2-.11S43.19,12.67,43.2,12.67Zm-.16.41,0,0,.5,0a.09.09,0,0,1,0,0,.76.76,0,0,0,.54.14l.14.53c.13-.07.25-.11.36-.18a.43.43,0,0,0,.13-.17.26.26,0,0,1,.24-.17c0,.14,0,.26-.07.42l.24-.07c.08.15-.09.18-.09.27s.19,0,.28,0a1,1,0,0,0,0,.17.65.65,0,0,0,0,.19.62.62,0,0,0-.4.49,1.4,1.4,0,0,0,.56-.14,1.28,1.28,0,0,1,.17.51c-.2,0-.15-.18-.22-.27a.64.64,0,0,0-.6.1s-.1.06-.07.12a.21.21,0,0,0,.1.11.47.47,0,0,0,.14,0h.13a.32.32,0,0,1,0,.09.13.13,0,0,1,0,.16c-.06,0-.11,0-.16,0a.07.07,0,0,1,0,0,.54.54,0,0,0-.57-.2.73.73,0,0,1-.46-.1l0,0a1.15,1.15,0,0,0,0,.16c-.06,0-.14,0-.17,0s-.15-.14-.09-.26l0-.08c0-.11-.18,0-.25-.1a2,2,0,0,1,.08-.22.48.48,0,0,0-.32-.18,2,2,0,0,0-.38.08.47.47,0,0,0-.08-.4c0-.06,0-.18,0-.28l-.22.09-.09-.19a.13.13,0,0,1,0-.09.45.45,0,0,1,.3-.2A.37.37,0,0,0,43,13.08Zm2.28,10.76c.14-.11.14-.1.19.11Zm.08,7.49c0,.09-.11.07-.18,0S45.32,31.29,45.4,31.33Zm-.19,0,0,.05s0,0,0-.05S45.21,31.36,45.21,31.37Zm-.16,2.82h0v0s0,0,0,0S45,34.18,45.05,34.19Zm0-1.32s0,.05,0,.05l-.07,0s0,0,0,0A.12.12,0,0,1,45,32.87ZM44.47,34l0-.07s0,0,.08,0,0,0,.1.07Zm.13.25s-.05,0-.07,0,0,0-.05,0a.56.56,0,0,0,.05-.08Zm-.17-2.07.1,0,0,0,0,0-.09,0S44.43,32.14,44.43,32.13Zm-.08-8.52-.05,0a.1.1,0,0,1,0-.05l0,0S44.33,23.59,44.35,23.61Zm-.26,10.17,0,0h0a0,0,0,0,1,0,0Zm0-.26.08,0a.15.15,0,0,1,0,0,.12.12,0,0,1,0,0Zm.16,1.15-.18-.2C44.22,34.45,44.22,34.45,44.22,34.67Zm-.28-4.51,0,0v0ZM43,23.88l-.16-.09s0,0-.07-.08a.45.45,0,0,0,.37-.33.3.3,0,0,1,.25-.19c.08.06.07.14,0,.18A1.71,1.71,0,0,0,43,23.88Zm.4.37,0,0,0,0,0,0Zm-.67-9.4s0,0,0,0l.1,0v0Zm0,1.51a.41.41,0,0,1-.16.24C42.59,16.41,42.59,16.41,42.75,16.36ZM42.55,15v0h0l0,0Zm.39-3.38s.05,0,.05,0,0,.05,0,.07l-.09,0Zm-.16,1.13-.11.06,0,0s0-.06,0-.06S42.73,12.71,42.78,12.73Zm-.18-.66s.06.06.07.08,0,0,0,.06l-.08,0-.06-.09S42.59,12.06,42.6,12.07Zm-.3-1.76,0,0-.06.05s0,0,0-.05Zm.15.78c0,.06,0,.09-.05.11a.6.6,0,0,0-.41.32l-.16-.25c0-.07-.11-.12-.18-.2.16-.05.27,0,.42.08A.45.45,0,0,1,42.45,11.09ZM41.3,12.33c-.07.05-.13,0-.14,0a2.13,2.13,0,0,1,0-.36A.57.57,0,0,1,41.3,12.33Zm-.08-.72c.15-.15.32-.1.51-.11a.49.49,0,0,1-.22.19l-.13,0Zm.19,1a.43.43,0,0,1,.37-.27.25.25,0,0,0,0,.08c-.16.29-.3.57-.45.85l0,0c-.07,0-.08,0-.09-.1s0-.2,0-.32A.41.41,0,0,0,41.41,12.58Zm.66.12c-.06.19-.1.38-.16.58,0,0,0,0,.06,0l.23-.17a.71.71,0,0,1,.11.51l-.14-.12c-.08-.09-.19-.07-.25.05a.45.45,0,0,0,0,.11s0,.08,0,.13h-.12l-.11,0c.06-.09.1-.17.16-.27l-.25-.17A.76.76,0,0,1,42.07,12.7Zm-.29-.4a.32.32,0,0,1,.1-.2C41.92,12.22,41.86,12.26,41.78,12.3Zm.37-.22a.53.53,0,0,1,.06-.1h.07a.06.06,0,0,1,0,.1C42.25,12.13,42.2,12.13,42.15,12.08ZM41.7,15.2s0,0-.05,0a.75.75,0,0,1-.11-.13l.09,0A.21.21,0,0,1,41.7,15.2Zm-.17-.5c-.05.06-.06.09-.09.11s-.08,0-.15-.09Zm-.05,19.21.43.08a2.16,2.16,0,0,1,.06.68.45.45,0,0,1-.14-.06c-.18-.13-.36-.28-.53-.42l-.08-.08A.42.42,0,0,1,41.48,33.91Zm0-17.45c.07.06.09.11,0,.18A.9.9,0,0,1,41.47,16.46Zm.07,17.28a0,0,0,0,1,0,0l0,0,0,0ZM41.8,33v0a0,0,0,0,1,0,0v0Zm0-17-.39,0,0-.28.22,0c.13,0,.27,0,.36-.14h.11C42,15.73,41.91,15.86,41.81,16Zm.33.94,0,0,0,0s0,0,0,0ZM42,23.09s0,0,0,0,.13,0,.13.06v0s-.1,0-.15-.05Zm0-8.36s0,0,0,0a.61.61,0,0,1,.18,0s0,.05.06.08l-.1.06h0Zm-.37-5a.69.69,0,0,1,.45,0c0,.11-.13.1-.15.14H41.6S41.65,9.76,41.68,9.75Zm-.61.22a1.56,1.56,0,0,1,.52-.11.59.59,0,0,0,0,.32.59.59,0,0,1,.08.34c-.13.08-.22,0-.32-.06a.63.63,0,0,1-.3-.05l.23-.05c.07,0,.14,0,.15-.13s-.06-.12-.17-.14a1.9,1.9,0,0,0-.25,0A.41.41,0,0,1,41.07,10Zm.75-1.89a.27.27,0,0,1-.11.21,1.22,1.22,0,0,0-.35.46l-.17-.14a1.33,1.33,0,0,0,.21-.19,2.12,2.12,0,0,0,.11-.21.52.52,0,0,1,.18-.15L41.83,8A.17.17,0,0,1,41.82,8.08Zm.59-3.78c.09,0,.2.07.22.19s0,0,0,.07c-.1-.12-.31-.08-.37-.27S42.36,4.27,42.41,4.3Zm.06,1.76c0,.11-.11.12-.19.17L42,6.15C42.19,6,42.19,6,42.47,6.06Zm-.67.73.26,0a2.29,2.29,0,0,0,.1.23c.11-.08.2-.19.35-.2a.76.76,0,0,1,0,.15.68.68,0,0,1,0,.14c-.07.07-.14.11-.2.18a.84.84,0,0,0-.11.21.47.47,0,0,0,0-.17l-.33-.51S41.8,6.84,41.8,6.79Zm-.06-.53c.08,0,0,.1,0,.16s-.05,0-.06,0a.56.56,0,0,0-.38,0q-.11,0-.15-.09A1.49,1.49,0,0,1,41.74,6.26ZM41,4.73l-.23-.2c.1-.14.1-.14.23-.09l.21.07A.72.72,0,0,1,41,4.73Zm0,.56c-.14,0-.22,0-.28-.13a.9.9,0,0,1,.23,0S41,5.24,41,5.29Zm.57.4a.47.47,0,0,1-.24.11s-.07,0-.07,0,0-.07,0-.08l.2-.14Zm-.17-3c-.18.16-.19.17-.33,0A.91.91,0,0,1,41.43,2.71Zm-.86-.34a1.32,1.32,0,0,0,.5.22s0,.07,0,.12l-.53-.11ZM40,4.06l.16.29a.2.2,0,0,1,0,.08v.44h0a1.68,1.68,0,0,0-.06-.24c0-.08-.1-.15-.15-.23a1.76,1.76,0,0,0-.14-.23A1.14,1.14,0,0,0,39.6,4C39.68,3.94,39.68,3.94,40,4.06Zm.23,2.29c0,.1-.09.18-.13.26l-.25,0C39.94,6.46,39.94,6.46,40.21,6.35Zm-.55.09h-.11l-.06,0c-.28-.11-.39-.08-.55.19l-.14-.08c0-.09.09-.15.12-.22.2,0,.42,0,.55-.16C39.62,6.19,39.72,6.26,39.66,6.44ZM38.16,7.7l0,0h.14a.12.12,0,0,1,.1.11c-.1.08-.19,0-.29,0H37.9s0-.08,0-.11V7.57A1.91,1.91,0,0,1,38.16,7.7ZM38,5.21V5c.1,0,.17,0,.17.12S38.13,5.21,38,5.21ZM38.59,9a1.49,1.49,0,0,0,0,.21.73.73,0,0,0,.07.19c0,.06-.11.06-.13,0a.49.49,0,0,0-.28-.21s-.07-.06-.12-.1Zm.29.87A.37.37,0,0,1,39,9.71l.18-.11s.08-.11.14-.18a.51.51,0,0,1,0,.09c-.13.16-.2.38-.38.5a1.88,1.88,0,0,0-.23.33l-.24-.16A.49.49,0,0,0,38.88,9.84Zm.28-1a.27.27,0,0,1-.22.15s-.12,0-.1-.07a.1.1,0,0,1,.06-.08A.27.27,0,0,1,39.16,8.84Zm-.11-.92a.09.09,0,0,1,.07,0,.1.1,0,0,1,.07,0,1.11,1.11,0,0,1,.07.2A1.35,1.35,0,0,1,39.07,8S39,8,39.05,7.92Zm.2-3.42c0,.06-.08.09-.09.13a.33.33,0,0,0,0,.17,1.09,1.09,0,0,0,.05.17c-.16,0-.17-.11-.26-.14s-.19,0-.23-.14Zm-1.86-.36c.12,0,.17,0,.2,0s.15.07.23.09a.31.31,0,0,0,.25,0,1.38,1.38,0,0,1,.37-.05L38.34,4l.16-.1.31.2-.18.1a1.49,1.49,0,0,0-.14.12.22.22,0,0,1-.12,0,.39.39,0,0,0-.44.25.22.22,0,0,0-.06.05A.77.77,0,0,0,37.39,4.14ZM37.53,8c-.06.22-.06.22-.3.2A.3.3,0,0,1,37.53,8Zm-.18.6a.13.13,0,0,0,.12,0,.67.67,0,0,1,.44,0l-.11-.2A.4.4,0,0,1,38,8.3a.35.35,0,0,1,.32.18l-.3.14a.31.31,0,0,1-.07.09h-.12a.35.35,0,0,0-.34.15l-.1.15a1.8,1.8,0,0,1-.1-.18,1.17,1.17,0,0,0-.15-.16c-.05-.05-.11-.08-.17-.13s.11,0,.15,0A2,2,0,0,0,37.35,8.61ZM38,10.22s0,0,0,0l0,0,0,0Zm-.22-.65c.17,0,.17,0,.2.13C37.92,9.67,37.84,9.67,37.82,9.57Zm-.14,0-.21.1c0-.12,0-.17,0-.23S37.64,9.44,37.68,9.54Zm-.54.28h0l0,0,.06,0Zm-.32-2.2a.13.13,0,0,1,0-.06s0,0,.07,0l.07.11a.83.83,0,0,1,.1.38.12.12,0,0,1-.2,0,.2.2,0,0,1-.06-.13A.79.79,0,0,1,36.82,7.62Zm-1-.71c-.15.18-.15.18-.27.08A.25.25,0,0,1,35.85,6.91Zm.07,1.89a2.59,2.59,0,0,0-.19.23,4.55,4.55,0,0,1-.64-.19c0-.18,0-.33.09-.49h0c.15.11.08.32.2.45l.24-.18a.41.41,0,0,0,.25-.32s0,0,0-.06h.12c.06-.09-.06-.18,0-.27a.51.51,0,0,1,.42-.08.59.59,0,0,0,0,.47,1.2,1.2,0,0,1,0,.19l-.3-.07,0,.16Zm.57.4s0,.08,0,.08a.24.24,0,0,1-.1,0s0,0,0-.05l0,0C36.42,9.16,36.47,9.14,36.49,9.2Zm-.19,1.44s0,0,0,0,0,0-.06-.07l.08,0A.11.11,0,0,1,36.3,10.64Zm0,1.38h.08l0,0s0,0,0,0,0,.06,0,.07a1.1,1.1,0,0,1-.17.25s-.11,0-.16-.06Zm-.31,1s.07.06.06.11,0,0-.06,0L36,13.13A.22.22,0,0,1,36,13.06Zm-.66-.52c.1-.06.18-.06.22,0s.17.09.3.12a1.16,1.16,0,0,1,0,.18A4.2,4.2,0,0,1,35.37,12.54Zm.55.72-.15.09C35.79,13.24,35.79,13.24,35.92,13.26ZM35,14.87l0,0-.12-.15a.11.11,0,0,1,0-.05h0a1.59,1.59,0,0,1,.13.13Zm.07-.53h.38c-.23.15-.25.16-.42.05C35.09,14.37,35.1,14.34,35.11,14.34Zm.6,1.07a1.18,1.18,0,0,0-.37.46c-.12,0-.17-.06-.25-.09s0-.07,0-.07a.38.38,0,0,0,.3-.28.32.32,0,0,1,.28-.22A.13.13,0,0,1,35.71,15.41Zm0-1.18s0,0,0,0a.41.41,0,0,1,0-.08l.08.06S35.74,14.23,35.72,14.23Zm.86.95a.9.9,0,0,0-.66-.22c-.07-.1,0-.19,0-.33a.69.69,0,0,0,.46.28c.09,0,.17.1.26.17S36.59,15.13,36.58,15.18Zm-.13-2.37s0-.05,0-.05l.11.05v0l-.05,0Zm.19-1.1a.1.1,0,0,1-.1,0,1.21,1.21,0,0,1-.23-.1l.28-.07s.08,0,.08,0S36.67,11.69,36.64,11.71ZM36.45,11c-.07-.22-.07-.22,0-.29.09.11.19.21.29.34C36.61,11.11,36.54,11,36.45,11Zm.14-1.95A.65.65,0,0,1,37.12,9l-.24.18Zm.49,5.22,0,0s0,0,0,0l0,0S37.09,14.3,37.08,14.31Zm0-1.84a.33.33,0,0,1,0-.06l0,0s0,0,.08.06S37.11,12.48,37.09,12.47ZM37.28,14c.12-.12.26-.08.4-.07C37.52,14.13,37.49,14.14,37.28,14Zm.83.52v0l.13,0C38.19,14.53,38.16,14.55,38.11,14.51Zm.35-.93s0,0,0,0h0v0Zm.06-.9,0-.06.06,0,0,.06Zm.12,2.54a.07.07,0,0,1,0-.05s0-.06.07-.1l.06.09Zm.08-1.84a.31.31,0,0,1,0-.09l.14.07s-.07.07-.1.08S38.72,13.43,38.72,13.38Zm.49.91a1,1,0,0,0-.21-.13c-.07,0-.16,0-.2-.14s.14,0,.21-.07l.23-.08A.56.56,0,0,0,39.21,14.29Zm.15,1c-.09,0-.15-.06-.11-.14s.11-.06.18,0A.61.61,0,0,1,39.36,15.25Zm.24-1.94c.19-.11.24,0,.32.07C39.79,13.46,39.73,13.35,39.6,13.31Zm.3-.27a1.06,1.06,0,0,1-.41-.16c.06,0,.08-.07.12-.07l.31-.07c0,.08,0,.15,0,.23Zm.44-.31h-.41a.33.33,0,0,1,.22-.14.45.45,0,0,1,.32,0A.24.24,0,0,1,40.34,12.73Zm0-.64a.81.81,0,0,1-.68,0c.06-.12.1-.18.13-.26a.17.17,0,0,0-.11-.22,1,1,0,0,0-.53-.11.33.33,0,0,1-.31-.15.92.92,0,0,0-.63-.26.43.43,0,0,0-.33.17l-.47-.13c-.19,0-.27,0-.22.24a.33.33,0,0,0,0,.14c-.18.09-.18.09-.36,0,0-.2,0-.4,0-.6a.27.27,0,0,0,0-.09c0-.09.08-.16,0-.26l-.13-.2c.11-.06.11-.06.22,0l.18-.14a.15.15,0,0,1,.11,0s0,.07,0,.1a1.07,1.07,0,0,0-.06.41l.26-.16c.14.14.06.35.18.49a1.25,1.25,0,0,1,.48-.26s.09-.07.12-.12a.53.53,0,0,0,0-.18.24.24,0,0,1,.29,0c.22.14.45.29.66.44l.77.56c.07.06.12.14.19.2a2,2,0,0,0,.19.12A.21.21,0,0,1,40.34,12.09Zm.2.14s0,0,.06-.05l0,.08,0,.05Zm.1,1a.08.08,0,0,1,0,0l0,0a.08.08,0,0,0,0,0Zm-.23-1.75a2.49,2.49,0,0,1-.38-.25L39.65,11a2.16,2.16,0,0,1-.38-.28.59.59,0,0,1,.32,0l.27.05c0-.21-.14-.3-.23-.44s.07-.21-.07-.28,0,0,0,0,.06,0,.08,0a1,1,0,0,1,.34.34c0,.06.08.14.13.23.11-.16.07-.32.13-.47h.19a.38.38,0,0,0-.16-.33A.86.86,0,0,0,40,9.49a1.66,1.66,0,0,0-.41-.08s0-.1,0-.16a.43.43,0,0,0-.12-.36.6.6,0,0,1-.1-.23c0-.08,0-.15.1-.2a1.59,1.59,0,0,1,.12.27.38.38,0,0,0,.13.15.52.52,0,0,0-.06.13.23.23,0,0,0,.1.27l.17.07a.56.56,0,0,1,.24.1.33.33,0,0,0,.38,0,3.27,3.27,0,0,1,.09.86c0,.29,0,.58.06.87A3.79,3.79,0,0,0,40.41,11.49Zm.28-5.38c.31,0,.31,0,.35.14C40.87,6.24,40.87,6.24,40.69,6.11Zm.15,1.39c0-.08.14-.06.21-.09a1.45,1.45,0,0,1,.22-.09.38.38,0,0,0,0,.37s0,.07,0,.15L41,7.64C41,7.6,40.87,7.61,40.84,7.5Zm0,16.38s0,0,0,0,0,0,0,0h0S40.87,23.88,40.88,23.88Zm-.59,11.06-.18.07C40.14,34.88,40.14,34.88,40.29,34.94Zm-.67-13,.14,0s0,0,0,.05l0,0a.4.4,0,0,1-.15,0s0,0,0,0Zm.15.85-.06,0-.28-.05C39.59,22.68,39.69,22.68,39.77,22.77Zm-.43-4,0,0s0,0,0,.07,0,0-.06,0Zm-.2,2.54,0,.06-.05-.06s0,0,0,0Zm-.36,13-.06-.06,0,0,.08,0Zm0,1.29a.07.07,0,0,1,0,.08.11.11,0,0,1-.08,0,.56.56,0,0,1-.05-.08s.06,0,.09,0S38.81,35.56,38.82,35.58Zm-.35-14s0,0,0-.23a.26.26,0,0,1,.35.08l.29.34-.06.11-.07,0C38.74,21.81,38.63,21.63,38.47,21.53Zm.5-.47a.8.8,0,0,1-.58-.38l.21-.15c0,.11.06.19.08.29s.16-.14.29-.11a1.47,1.47,0,0,1,.13.17ZM39,19.39l-.35-.15c.16-.06.21-.06.29,0S39,19.29,39,19.39ZM38.67,18l.27,0c-.07.19-.08.2-.16.17a.6.6,0,0,1-.15-.09S38.66,18,38.67,18Zm-.05.42c0,.16-.11.28-.2.31s-.13,0-.13-.09Zm-.47,2.73h.06v0h-.06Zm.29,11.31-.29-.09C38.29,32.33,38.29,32.33,38.44,32.49Zm-.35-13.41a.06.06,0,0,1,0,0l0,0,0,0Zm0,15.89a0,0,0,0,0,0,0L38,35s0,0,0,0l.09,0Zm-.21-3.25a.11.11,0,0,1,.08,0,.06.06,0,0,1,0,.08s0,.05-.06.09C37.85,31.78,37.85,31.75,37.92,31.72Zm0,2a.3.3,0,0,1,.13.06.3.3,0,0,1-.07.08h0a.28.28,0,0,1-.1-.09S37.88,33.75,37.91,33.75ZM37.79,19v0h-.07l0,0Zm0,11.08c.08.1.08.1,0,.17C37.66,30.11,37.66,30.11,37.74,30Zm0,2.59h0Zm-.11-12.17a.15.15,0,0,1,0,.08h-.06l-.07-.05a.62.62,0,0,0-.38-.33c.09-.07.16-.08.23,0l.23.2A.34.34,0,0,1,37.66,20.45Zm-.39,13h.21C37.38,33.54,37.38,33.54,37.27,33.42Zm.19,1.92,0,0,0,0a0,0,0,0,1,0,0ZM37,33.18h0c.08,0,.14,0,.14.06s0,0,0,0-.1,0-.15,0S37,33.21,37,33.18Zm0,1.65-.21-.16C37,34.66,37,34.66,37,34.83Zm.31-7.7-.33.3a3.55,3.55,0,0,1-.58-.22,2.7,2.7,0,0,1,.23-.58l.19,0,.52.2c0,.13-.18.18-.22.31Zm-.08,1.3s0,0,0,.06-.05,0-.07,0l-.11-.08A.37.37,0,0,1,37.24,28.43Zm0,2.72a0,0,0,0,0,0,0h0v0Zm.09,1.08a.43.43,0,0,1-.23-.1C37.31,32.07,37.33,32.08,37.34,32.23Zm-.23,2.57a.15.15,0,0,1,.07,0s0,0,0,0l-.09,0-.07,0S37.08,34.8,37.11,34.8Zm0,.61s0,0,.07,0h.11c-.05.06-.07.08-.1.09h-.08S37.12,35.42,37.13,35.41Zm.22-3.18.22,0c.06.08,0,.12,0,.19A.23.23,0,0,1,37.35,32.23Zm.1-4.61.06,0a.33.33,0,0,1,0,.06l-.07,0Zm.07,1.32c0-.06.07-.09.14,0a.06.06,0,0,1,0,.06C37.6,29,37.56,29,37.52,28.94Zm-.17-10.21,0,0-.06,0s0,0,0,0S37.34,18.73,37.35,18.73ZM37,19l-.17.16C36.83,19,36.83,19,37,19Zm-.07.69c.17,0,.34-.06.51-.09h0v.26h-.12a.55.55,0,0,0-.5,0s0,0-.06,0S36.84,19.7,36.92,19.69Zm-.5,5.53h0v0h0Zm.24,1c0,.17,0,.17-.25.08Zm-.79,3.71s0,0,0,0,0,0,0,0,0,0,0,0S35.86,29.9,35.87,29.91Zm-.45.37a.27.27,0,0,1,.08.07s0,0,0,.08h-.05c-.07,0-.09,0-.09-.1S35.41,30.3,35.42,30.28Zm.39.49s0,0,.07,0-.25.27-.23.48h.15a.48.48,0,0,0,.24.37,3.29,3.29,0,0,1,0,.63,1.39,1.39,0,0,1-.46,0c-.07-.11-.16-.21-.07-.39l.32.05c0-.09-.06-.14-.11-.2a.42.42,0,0,0-.28-.17.25.25,0,0,1-.2-.18c0-.12.18-.06.27-.13l-.09-.1-.2-.11c0-.08.06-.07.09-.07A.7.7,0,0,0,35.81,30.77Zm-.51-.86c-.14.15-.16.15-.35,0C35.08,29.85,35.19,29.91,35.3,29.91Zm-.33.73s0,0,0,.06,0,.05,0,.09-.06-.06-.06-.09A.17.17,0,0,1,35,30.64Zm-.35-1c-.08.14-.11.14-.22,0Zm-.39-.58s0,0,0,0,0,0,0,0h0S34.22,29.07,34.23,29.07Zm0,7h0v0h0S34.27,36,34.26,36Zm-.08-4.2c.14.12.14.12.16.25C34.23,32,34.12,32,34.18,31.83ZM34.51,36v0h0Zm0-1.65v0l0,0,0,0Zm-.12-2.29a.28.28,0,0,1,.28,0C34.55,32.18,34.47,32.08,34.38,32.08Zm.27-1.58,0,0,0,0a0,0,0,1,1,0,.06Zm1.42,7a.88.88,0,0,1,0,.17h0a12.85,12.85,0,0,0-1.22-1.11v0a.2.2,0,0,0,0,0l.13,0c0-.06,0-.14.08-.18a.46.46,0,0,1,.22-.11.48.48,0,0,1,.21,0c.06-.11,0-.27.14-.37l.12.12.12-.14a.54.54,0,0,1,.27.44Zm0-2.42c0,.07,0,.07,0,.15C36,35.18,36,35.18,36,35.11Zm0-2.12a.92.92,0,0,1-.37,0c-.16-.18,0-.33,0-.52l.33,0A.74.74,0,0,1,36.05,33Zm.13-5.88a.17.17,0,0,1-.06-.1s0,0,0,0a.49.49,0,0,0,.16-.29c0-.06.06-.07.13,0a2.44,2.44,0,0,1-.19.44A.11.11,0,0,1,36.18,27.11ZM36.36,29l0-.05-.09-.88a1.15,1.15,0,0,1,.11-.6,3.39,3.39,0,0,1,.7.31l-.15.33-.13.34a1.46,1.46,0,0,1,.21,0s.06.05.09.08l-.18.14c-.18.16-.18.17-.17.45h.2a.67.67,0,0,1-.22.28c-.1,0-.12-.11-.18-.17a2.42,2.42,0,0,1,0-.25Zm.31.66c-.07-.06,0-.11,0-.13a.84.84,0,0,1,.2-.08s.07,0,.16.07Zm.19,2.22s0,0,0,0l0-.06.05,0Zm.06-2.76s0,0,0,0,0,0,0,0l0,0Zm-.33,2a.08.08,0,0,1,0,0h0v0A0,0,0,0,0,36.59,31.19Zm0-1.19h0s0,0,0,0h0Zm0,2.94a1.48,1.48,0,0,1,0-.21c.31,0,.37,0,.51.23A1.64,1.64,0,0,1,36.63,32.94Zm.11,4.68c0-.5,0-1,0-1.52,0,0,0,0,0-.06.31,0,.6-.11.93-.13a.3.3,0,0,1,0,.13,1.43,1.43,0,0,1-.12.21l-.66,1.25a1,1,0,0,0-.1.17l0,0S36.74,37.63,36.74,37.62ZM38,56v0h0v0Zm.2-.28s0,0,0,0,0,0,0,0Zm.06.39v0h0Zm2.84.66,0,0a.41.41,0,0,0,.11-.07s0,0,0,0Zm.21.26a.33.33,0,0,1,0-.06l.12-.06s0,0,0,0Zm.32-.33h0v0s0,0,0,0A0,0,0,0,0,41.67,56.74Zm.12.11,0,0a0,0,0,0,1,0,0l0,0S41.81,56.84,41.79,56.85Zm.26-.05s0,0,0,0,0,0,0,0,0,0,0,0l0,0S42.07,56.81,42.05,56.8Zm.06.11,0-.09a.18.18,0,0,1,.16.18A.24.24,0,0,1,42.11,56.91Zm.76-1.85c0,.38,0,.76,0,1.13l-.25,0,.21.24c-.37.1-.37.1-.61,0a.34.34,0,0,1,0,.1c-.07.07-.14,0-.22,0a.13.13,0,0,1,0,.06.15.15,0,0,1,0,.07l0,0a1.17,1.17,0,0,1,0-.11,1,1,0,0,1-.54,0s-.11,0-.17,0l-.34.13,0-.08h0c.06,0,.07,0,.06,0s0-.14,0-.22a1.22,1.22,0,0,0-.5.24c0-.06,0-.1,0-.16l-.41.1.14-.23c-.17-.14-.31-.06-.46,0s-.06-.14,0-.23l.22-.13-.09,0-.42.19-.14,0,0,0L39,56s.09-.09.1-.15a.48.48,0,0,0,0-.17l.07-.16a.08.08,0,0,0-.12,0l-.38.39c-.06.06-.11.13-.21.09s0-.19.07-.28.1-.22.15-.33a.32.32,0,0,0,0-.27c-.07,0-.07,0-.1.07l-.29.39a.25.25,0,0,1-.09,0v-.1c-.15.06-.17.23-.29.3s0-.07,0-.1l.23-1a.08.08,0,0,0-.09,0c0,.08-.06.18-.17.27,0-.09,0-.16,0-.23,0-.29,0-.59,0-.89-.05-1.23-.08-2.46-.15-3.69s-.15-2.47-.24-3.7c-.05-.71-.11-1.42-.17-2.12a.72.72,0,0,1,.16-.54,6.35,6.35,0,0,1,1.05-1.15c.08-.07.18-.13.29-.21s0,.11,0,.15,0,.15.15.17.07.07.11.1l.28.22c0-.14,0-.24,0-.34v-.35c.13,0,.18.17.28.24a2.91,2.91,0,0,1,.27.24c.14-.19,0-.41.11-.61l.33.2a.54.54,0,0,1,.08-.19,1,1,0,0,1,.17-.12l.15-.16-.08-.1c0-.13.19-.19.3-.28s-.11-.08-.1-.11,0-.2-.14-.24-.06-.07-.08-.12a1.11,1.11,0,0,1-.07-.16.39.39,0,0,0-.38,0,2.14,2.14,0,0,1-.27.06,2,2,0,0,0-.25.13.55.55,0,0,1-.43-.25.5.5,0,0,1-.13.1s-.07.09-.12.09a.42.42,0,0,0-.37.3h0c-.08,0-.13-.11-.22-.06a.34.34,0,0,0-.19.2s0,.06,0,.09c-.09.2-.08.22.13.31l.06,0c0,.19-.15.28-.2.43s.05.16,0,.23-.08.12-.13.17l-.66.72-.11.1a1.87,1.87,0,0,1-.08-.44l-.3-3.21c0-.09,0-.17,0-.26,0-.28,0-.57-.06-.84a1,1,0,0,1,0-.31,12.45,12.45,0,0,1,.9-2.16.74.74,0,0,0,.19,0,.79.79,0,0,1,.34-.2.31.31,0,0,0,.25-.27l0-.09c.18-.09.36,0,.55,0s.1.09.15.11a1.55,1.55,0,0,0,.31,0,2.12,2.12,0,0,0,.24,0l.26,0a1.15,1.15,0,0,1,.08-.61c.09,0,.16.06.24.07a2.13,2.13,0,0,0,.27,0l.26,0c0-.12-.09-.25.07-.34a1.2,1.2,0,0,0,.11.1l.05,0,0-.3.16,0c-.07-.27-.29-.38-.52-.48l0,0a1.6,1.6,0,0,1,.53.19l.09.09a1.27,1.27,0,0,1,.59,1.23c0,.07,0,.13,0,.2L42.21,38a1.11,1.11,0,0,1-.05.54.92.92,0,0,0,0,.25l-.36,0c0,.11.09.1.1.17s0,0,0,0a.4.4,0,0,0-.26.05,1.21,1.21,0,0,0-.09.2l.06.13c0,.06.06.11,0,.17a.14.14,0,0,0,0,.16.54.54,0,0,1,.08.17l.32,0c.06.06,0,.16.15.15h.2c0,.2,0,.39,0,.58.08,1.28.15,2.56.23,3.83,0,.45.05.89.07,1.33L42.84,50C42.89,51.68,42.89,53.37,42.87,55.06ZM39.21,41.8a.44.44,0,0,1,.38-.07C39.33,41.88,39.33,41.88,39.21,41.8Zm.43.38h0a1.05,1.05,0,0,0,0,.13C39.62,42.26,39.59,42.22,39.64,42.18Zm.31-.72.07-.08s0,0,0,0l-.08.07Zm.36.31s0,0,0,0,0,.15,0,.3C40.2,41.89,40.2,41.89,40.31,41.77Zm1.91-2.2a.73.73,0,0,1-.2-.19C42.18,39.37,42.18,39.37,42.22,39.57Zm.8-3.15-.12-1.33c0-.2,0-.39,0-.59a1.14,1.14,0,0,1,0-.27,1.42,1.42,0,0,0,.06-.31c0-.07.08-.11.16-.08l.06.13c.06,0,.1-.06.16-.08s.06.07.07.12l0,.1a.58.58,0,0,0,.13.26s0,0,0,0a.69.69,0,0,0,0,.25c0,.08.11.12.08.22l.37,0,0,.14h.32l.12.31L45,35l.06,0c0,.06,0,.1,0,.16l.13.14v.06l-.57,1c0,.06,0,.14-.14.15s-.21.11-.29.22a1.11,1.11,0,0,0-.12-.16.35.35,0,0,0-.44-.12,2.11,2.11,0,0,1-.51.12A.73.73,0,0,1,43,36.42Zm2.82,2.75,0,.09s-.06,0-.07,0a.41.41,0,0,1,0-.12S45.84,39.16,45.84,39.17Zm0-.77h0l0,0S45.81,38.41,45.81,38.4Zm.24,1.24,0,0c-.09,0-.09,0-.18-.12ZM45.71,38l-.2-.08a1.27,1.27,0,0,1,.2-.16s0,0,0,0S45.73,37.87,45.71,38Zm-.13,1.76s0,0,0,0l0,0h0Zm-.16-2.51c.1-.1.1-.1.28-.08C45.63,37.24,45.51,37.16,45.42,37.2Zm.06,2.6c0,.28-.29.34-.31.57L45,40.26a.73.73,0,0,0,.31-.34S45.39,39.87,45.48,39.8Zm-.26-2.43c-.08.07-.14,0-.24,0,.11-.08.17-.1.25,0S45.23,37.35,45.22,37.37Zm-.38-.47s0,0,0,0,.08-.09.15-.07a.07.07,0,0,1,.05,0C45,36.9,44.89,37,44.84,36.9Zm.06,2.6,0,0-.11-.06v0l.14,0S44.9,39.49,44.9,39.5Zm-.25.77s0,0,0,0l0,0,0,0Zm-.72-3.48c0,.09-.09.13-.16.13h-.2a.09.09,0,0,1,.09-.12Zm-.38.13a.21.21,0,0,0,0,.19.42.42,0,0,1,.07.29c-.06.05-.11,0-.17,0l-.18,0,.18-.14c-.05-.2-.23-.1-.35-.16A.77.77,0,0,1,43.55,36.92Zm-.3,19.86s0,0,0-.07a.15.15,0,0,1,.09,0s0,0,.06.11Zm1.09-.17,0-.06s0,0,0,0,0,0,0,0Zm.09-.24h0Zm.59,0s0,0,0,0v0l0,0Zm.12.21,0,0,0-.07s0,0,.05,0,0,0,0,0Zm1.6-.16-.07,0c-.09-.07,0-.09,0-.13h.08S46.77,56.41,46.74,56.44Zm-.1-.15h0a0,0,0,0,1,0,0ZM48.21,45l0,1.35c0,1.59-.09,3.17-.14,4.77,0,.84-.07,1.7-.13,2.55,0,.35,0,.7,0,1.06,0,.12,0,.24-.06.35s-.07-.05-.1-.08l-.16-.23h-.19a2.42,2.42,0,0,1,.32.82c-.08,0-.13-.05-.16-.09s-.22-.27-.33-.4-.07-.08-.12,0a.9.9,0,0,1,0,.16.25.25,0,0,1,0,.11c.05.09.18.14.15.3l-.1,0-.32-.15a.32.32,0,0,0,0,.09l.19.27c-.09.07-.16,0-.23,0s0,.07,0,.1l.24.29v.08s0,0,0,0v0a.25.25,0,0,1,0-.08c-.07,0-.14,0-.2,0L46.49,56c0,.1,0,.14-.1.18l0-.13a.55.55,0,0,0-.18.37c0,.1,0,.1-.2.05a.51.51,0,0,0,.07-.15,1.11,1.11,0,0,0,0-.17l-.15.21c-.12,0-.06-.12-.11-.18s-.12.18-.18.27c-.06-.1-.12-.1-.21-.12s-.11-.1-.17-.16l0,0a.45.45,0,0,0,0,.11,1.21,1.21,0,0,0-.3-.11,2.17,2.17,0,0,0-.33.07.54.54,0,0,1,0-.15s0,0,0,0a.62.62,0,0,1-.29.09c-.06,0-.12.06-.2.1,0-.85,0-1.68,0-2.51,0-1.55-.08-3.11-.15-4.66,0-1.08-.1-2.15-.17-3.22-.08-1.25-.18-2.5-.28-3.75l-.12-1.52a1.55,1.55,0,0,1,0-.21l.32-.2c.13,0,.11.16.15.26l.12.27c.06,0,.09,0,.14,0l.19-.13c0,.12.06.21.1.32.13-.06.25-.11.37-.18a.2.2,0,0,0,.09-.13.2.2,0,0,1,.24-.14.5.5,0,0,1,.21,0,1,1,0,0,0,.5.09l.18,0c0-.13-.1-.19-.15-.29a1.84,1.84,0,0,1-.06-.29c.2.06.27.25.4.4,0-.09,0-.17.08-.24h.06a10.74,10.74,0,0,1,1.83,1.86.46.46,0,0,1,.09.34Q48.24,43.72,48.21,45Zm0-3.34s0,0-.05.06-.11-.11-.17-.17a10.21,10.21,0,0,0-1.33-1.3,1,1,0,0,1-.35-.54l.39-.08s-.09-.11-.14-.13a.66.66,0,0,1-.36-.26.94.94,0,0,1,.46-.28c-.11-.14-.28-.14-.42-.21s0-.17,0-.28l.24-.09s-.06-.1-.1-.1A.84.84,0,0,1,46,38c.1-.18.28-.22.48-.3l-.22-.12a1.94,1.94,0,0,0-.22-.07l0-.17a1,1,0,0,0-.28-.5.32.32,0,0,0-.28-.08c-.12,0-.23,0-.33,0s0,0,0,0c.07-.24.07-.24-.11-.39a2.71,2.71,0,0,1,.48-.83c0,.14-.15.22-.08.35.41-.07.41-.07.59,0l.23-.12s0,0,0,.08.09.35.13.56l.12-.06a1.78,1.78,0,0,1,.3-.17.33.33,0,0,0,.27-.29.08.08,0,0,1,0,0c.16-.14.36,0,.53-.07l.06,0a.9.9,0,0,0,.52.17.53.53,0,0,1,0,.12Zm0-25.92s-.11-.06-.09-.09,0-.07.08-.07.05,0,.09.07S48.23,15.75,48.2,15.76Zm.07-.62s-.06,0-.08,0-.07,0-.07,0c0-.24-.17-.4-.25-.61.1-.07.15,0,.22,0a1,1,0,0,0,.18,0A1.88,1.88,0,0,1,48.27,15.14Zm0-.73v0h0Zm-.15-3h-.19v-.14l.2.08c.06,0,.15,0,.19.12Zm.12-1.69.16-.14c0,.08,0,.12,0,.16S48.28,9.71,48.23,9.69Zm0-5.52L48.34,4c-.08-.19-.27-.08-.43-.14a1,1,0,0,1,.33-.11s.12,0,.13-.09a.54.54,0,0,1,.41-.06c0,.1-.06.13-.14.11l-.27-.05c.05.17.1.35.16.54C48.41,4.28,48.35,4.19,48.25,4.17Zm.57,2.43s0,0,0,.08-.14-.19-.24-.33C48.7,6.42,48.78,6.49,48.82,6.6Zm-.15,8.13a1.9,1.9,0,0,0,.18.2A1,1,0,0,0,49,15c.07,0,0-.09.06-.13s0-.18.08-.27.12-.19.19-.17.1.13.11.21,0,.14.06.22l.32-.17c0,.17-.14.26-.12.4.19,0,.37-.08.55-.07s.14.25,0,.38a1.2,1.2,0,0,0-.2,0l-.16.09c0,.11,0,.23,0,.37l-.17,0a.51.51,0,0,1-.13.16.64.64,0,0,0-.26.41.59.59,0,0,0,.33,0l.29-.07,0,.28c0,.05-.07,0-.1,0a.3.3,0,0,0-.39,0l-.25.17c-.08-.22-.08-.22-.29-.36l.06-.16c0-.05,0-.1,0-.17a1.29,1.29,0,0,1-.25,0,1.76,1.76,0,0,1-.23,0Zm.66,8.72a.47.47,0,0,0,0,.1h0s0,0,0,0a.07.07,0,0,1,.05-.09Zm-.27.73,0,0,0,0-.05,0S49,24.18,49.06,24.18ZM49,21.68h0s0,0,0,0v0A0,0,0,0,1,49,21.68Zm-.14.3c0,.08,0,.14,0,.2s-.08,0-.09,0A.13.13,0,0,1,48.85,22Zm-.06.78h.13s0,0,0,0,0,0,0,0S48.83,22.83,48.79,22.76ZM49,23.94s0,0,0,0v0a.47.47,0,0,1-.09.06s0-.05,0-.07Zm-.08,2.77a.3.3,0,0,1,.13-.23c.06-.06.15-.11.19-.18a.79.79,0,0,0,.05-.25c.14-.21.39-.22.57-.32,0-.16-.17-.17-.21-.27.2-.15.2-.15.18-.45l.12-.06a1.29,1.29,0,0,1-.09-.16,1.47,1.47,0,0,1-.1-.13.61.61,0,0,0,.12-.15l-.15-.16a2.22,2.22,0,0,1,.48-.58c.1.06.05.18.14.26l.48-.27.19.18.26-.19c0,.17-.1.3,0,.46l.21-.11c0,.12.07.22.1.33a4,4,0,0,1,.36-.17c.11,0,.1-.17.15-.24a.47.47,0,0,1,.35,0,1.27,1.27,0,0,0,0,.22c.2,0,.38-.08.59-.1,0,.17.14.31.12.51l-.3,0c-.14,0-.18,0-.18.18l0,.25a.41.41,0,0,1-.27,0,1.42,1.42,0,0,0-.84,0,.2.2,0,0,1-.11,0,.37.37,0,0,0-.38.25,1.77,1.77,0,0,0-.06.17c.11.08.22-.06.35,0-.11.12-.31.13-.37.32l.3,0a1.13,1.13,0,0,0,0,.25,1.41,1.41,0,0,0,0,.25l-.2,0s0,.11-.1.16-.19.15-.25.4c.1.08.21-.05.31,0s-.13.1-.19.14-.13.1-.16.19H51a1,1,0,0,0,.07.6l.28-.11,0,0a1.76,1.76,0,0,0,0,.23c0,.06,0,.13,0,.22l-.19,0c0,.05,0,.11-.06.13-.22.17-.46.33-.7.5a.26.26,0,0,1-.28,0c0-.24-.12-.39-.22-.57a.33.33,0,0,0-.37-.15.34.34,0,0,1-.32-.06l.06-.28-.34-.17C48.9,27.25,48.92,27,48.9,26.71Zm2.41.19s-.06.06-.08.06,0,0-.07,0,0,0,.06,0S51.26,26.89,51.31,26.9Zm-.79,6.84a2.35,2.35,0,0,1-.23.32s-.08,0-.18,0l.23-.25c0-.05,0-.16.16-.15S50.53,33.72,50.52,33.74Zm-.84-.23a.21.21,0,0,1,0,.07s0,0-.05,0,0,0,0-.06A.31.31,0,0,0,49.68,33.51Zm-.13-4.29s0,0,0-.13l.18.08s0,0,0,0A.34.34,0,0,1,49.55,29.22Zm.07-.76-.18-.08c.1,0,.2-.08.32,0S49.7,28.48,49.62,28.46Zm-.17,5.08a.16.16,0,0,1-.07,0c-.09,0-.05-.09,0-.14S49.47,33.47,49.45,33.54Zm.31.48,0,0,0,0v0ZM49,28a.06.06,0,0,1,.1,0,.06.06,0,0,1,0,.1l-.11,0A1.27,1.27,0,0,1,49,28Zm.17.5c.09,0,.2,0,.26-.12,0,.09,0,.17-.06.28L49,28.6C49,28.5,49.11,28.53,49.17,28.51Zm0,6.89.24.07s0-.1,0-.13a.78.78,0,0,0-.06-.7l0-.11a.13.13,0,0,1,0-.09s0,0,0,0a2.83,2.83,0,0,1,.11.31,1.38,1.38,0,0,1,.25-.15.33.33,0,0,0,.24-.29,1.1,1.1,0,0,1,.51,0,2.52,2.52,0,0,0,.54.08.09.09,0,0,0,0-.14.65.65,0,0,1-.16-.43c.19.06.26.23.37.37l.1-.1,0,0a2.6,2.6,0,0,1,.1.25c.33-.1.38-.36.4-.64l.09-.05.38,0a.45.45,0,0,0,.08.17.74.74,0,0,0,.13.08,2.45,2.45,0,0,1-.52.86.27.27,0,0,1-.37.09c0,.06-.06.14-.11.17a1.43,1.43,0,0,1-.67.21.36.36,0,0,0-.23.06c-.1.07-.22,0-.32.07s-.16.14-.25.17a4.24,4.24,0,0,1-.93.2Zm2.64,3.85h0s0,0,0,0l0,0Zm-.06-.39s-.08,0-.07-.07l.05,0,.07,0Zm-.21-.11s-.06,0-.08,0-.07,0-.06-.07,0,0,.05,0Zm-.37-.55a.07.07,0,0,1,0-.1h0l.06.21h0Zm0,.68s0,0,0,0h0l0,0S51.23,38.88,51.24,38.88Zm-.15-.48a.18.18,0,0,1-.17.1l-.26,0a.29.29,0,0,0,.13,0C50.9,38.37,50.9,38.37,51.09,38.4Zm-.3-.84.06-.05,0,0-.07,0Zm.27-1.29,0,0,0,0h.05S51.08,36.27,51.06,36.27Zm-.3-.45-.09,0a.08.08,0,0,1,0-.07s0,0,0,0S50.72,35.78,50.76,35.82Zm-1.54.49c0-.05,0-.1,0-.16a8.89,8.89,0,0,1,.89-.22.62.62,0,0,0,0,.13l.58,0c0,.11-.14,0-.2.08l-.19.07a.65.65,0,0,0,0,.13s-.05,0-.08,0a.21.21,0,0,0-.22.21c0,.15-.09.24-.14.35s0,.12-.07.19h.4c-.18.11-.33.15-.4.31.41,0,.41,0,.64-.12.06.08,0,.12,0,.14l-.14,0c-.22,0-.25.06-.2.28s0,.18.07.29a2,2,0,0,1,.25-.13.33.33,0,0,1,.14,0,.06.06,0,0,1,0,0v0a0,0,0,0,1,0,0l-1.23.69h0s0-.07,0-.1Zm4.43,3.56a.26.26,0,0,0-.09.3c-.49.11-1,.2-1.45.32a9.38,9.38,0,0,0-1.38.48c-.45.2-.89.42-1.35.64,0,0,0-.07,0-.1,0-.77,0-1.54,0-2.32a1,1,0,0,1,.16-.12l.44-.28a1.37,1.37,0,0,1,.62-.26.35.35,0,0,0,.13-.05l.19.5h-.16s-.07,0-.12,0-.25,0-.23.21.05.22.08.34.18-.12.29-.13a.3.3,0,0,0,.22-.23c0-.12.17-.13.24-.21s0,.11,0,.16a.76.76,0,0,0,0,.34l.29-.19c0,.16-.11.29,0,.44l.2-.1c0,.12.06.22.1.35l.23-.14c.19-.11.19-.1.29-.3a1,1,0,0,1,.5,0,2.26,2.26,0,0,0,.53.08c.05-.1,0-.14-.06-.2l-.07-.15a.73.73,0,0,1-.05-.2c.23.06.32.19.34.48.36,0,.36,0,.45,0-.14,0-.31,0-.41.16l-.13.14.4-.06S53.66,39.86,53.65,39.87Zm0-.06.24,0c0,.07,0,.1,0,.09A.42.42,0,0,1,53.67,39.81Zm.33.92c-.07,0-.07,0-.16-.06H54l0,0A.09.09,0,0,1,54,40.73Zm.16.46h0l0,0h0S54.17,41.19,54.16,41.19Zm.27-.11s0,0,0,0h.05a0,0,0,0,1,0,0Zm-.16-.41-.19-.32c.23.07.42-.09.67,0C54.55,40.44,54.36,40.44,54.27,40.67Zm.49-2.15a.87.87,0,0,0-.28.58h-.07a.48.48,0,0,0-.55,0,.15.15,0,0,1-.22-.06,2.6,2.6,0,0,1-.2-.28c.17-.08.33,0,.5-.08,0-.08-.08-.15-.13-.24s.08-.07.12-.07a.51.51,0,0,1,.3,0,1.39,1.39,0,0,0,.53.1S54.77,38.51,54.76,38.52Zm.06,3.06h0s0,0,0,0,0,0,.05,0S54.84,41.57,54.82,41.58Zm0-4.08v0H55v0Zm.12.87s0,0-.05,0a.23.23,0,0,0,.07-.07l.06,0Zm.12-14.59c0-.05,0-.12-.12-.12s-.07-.1-.09-.15.12,0,.09.15l.1,0a.11.11,0,0,1,.07,0c.06.06.14,0,.22,0a.32.32,0,0,1-.09.28A.31.31,0,0,1,55.08,23.78Zm.17.49v-.16C55.33,24.19,55.33,24.19,55.25,24.27Zm0,13.33s0,0,0,.08l-.13-.06C55.17,37.56,55.22,37.55,55.26,37.6Zm-.07,3.26,0,0,0,0s0,0,0,0Zm.19-2.63a.22.22,0,0,1-.11.12s-.09,0-.13,0,.1-.1.15-.12.09,0,.09-.08A.17.17,0,0,1,55.38,38.23Zm.12-.11-.12,0h.13A0,0,0,0,0,55.5,38.12Zm.07,3.1,0,0,0,0,.06,0Zm3.6-7.56a.59.59,0,0,1,.2.12.45.45,0,0,1-.25-.07S59.16,33.66,59.17,33.66Zm-.06.05s0,0,0,0,0,0,0,0Zm-.17-1.57c-.13.09-.14.09-.21,0s-.13-.18,0-.32A.62.62,0,0,1,58.94,32.14Zm-.09,1.58s0,0,0,0h0v0Zm0-4s0,0,0-.06a.26.26,0,0,1,.1,0s0,0,0,.06ZM59,28.59l0,0,0,0,.05,0Zm.33-1.21.05,0,0,0,0,0A0,0,0,0,1,59.3,27.38ZM58.63,27l.62.2c0,.09-.09.13-.16.09a.65.65,0,0,0-.48-.15C58.62,27,58.62,27,58.63,27Zm.25,1.94c-.1.11-.17.07-.27,0Zm-.86,3c0,.22,0,.22-.21.11Zm-.27-.62s0,0,0,0,.08.07.07.16a1.43,1.43,0,0,1-.12-.11S57.74,31.26,57.75,31.26Zm0,1.62-.06,0-.38-.21.17-.13A.83.83,0,0,1,57.74,32.88Zm-.38-5.82a.13.13,0,0,1,.08.14.09.09,0,0,1,0,.05.11.11,0,0,1-.14-.07.48.48,0,0,1-.06-.11A.42.42,0,0,1,57.36,27.06Zm-.23,5.29,0,.22,0,0L57,32.44Zm0,.85L57,33C57.15,33,57.15,33.1,57.13,33.2Zm-.21-5.78s0,0,0,0H57ZM56.72,21l.27.13c-.15.06-.22,0-.3-.1Zm0,5A.59.59,0,0,1,57,26s.06.07.1.1l-.19,0-.21,0C56.67,26,56.71,26,56.76,26Zm-.15-.32a.05.05,0,0,1,0,0s0,0,0,0l0,0Zm-.77.12,0,0-.11.09s0-.06,0-.07Zm0,11.7s0,0,0,0,0,0,0,0h0S55.81,37.48,55.8,37.48Zm.11-.84h0s0,0,0,0h0A0,0,0,0,1,55.91,36.64Zm-.24-2.91.11,0a.38.38,0,0,1,.15,0C55.84,33.84,55.84,33.84,55.67,33.73Zm.46,8-.08-.07.05,0,.06.05A.09.09,0,0,0,56.13,41.68Zm-.06-3.88c0-.13,0-.13.22-.09Zm.27-.34a.12.12,0,0,1-.08,0l-.11-.08.12-.05.07,0A.06.06,0,0,1,56.34,37.46Zm0-13.55c.15,0,.17,0,.23.06s0,0-.07.18A1.66,1.66,0,0,0,56.34,23.91Zm.32,8.46c-.07,0-.15,0-.15-.09a.09.09,0,0,1,.1-.08C56.68,32.23,56.69,32.29,56.66,32.37ZM57,26.76s0,.09,0,.13-.11,0-.15-.06-.12-.23-.17-.35A.54.54,0,0,1,57,26.76Zm-.31.45s0-.06,0-.06a.61.61,0,0,1,.19,0l-.14.13S56.71,27.23,56.7,27.21Zm.14,13.49a.11.11,0,0,1,0-.06,0,0,0,0,1,0,0H57c.06.07,0,.11,0,.15A.25.25,0,0,1,56.84,40.7Zm.09,0c.16,0,.16,0,.2.13Zm.28.77s-.09,0-.19,0l.31-.25A.31.31,0,0,1,57.21,41.52Zm.29-3.94h0s0,0,0,0h0Zm.31-3.89a.4.4,0,0,1-.24-.22,2.84,2.84,0,0,1,.41,0C58,33.6,57.84,33.62,57.81,33.69ZM58,40.85l0,0,0,0,0,0Zm.09-2.47s0,0,0-.05h.08s0,0,0,.06Zm.1-4.83-.06,0,0,0c.05,0,.08,0,.07.06A.05.05,0,0,1,58.18,33.55Zm.06.69v0h0Zm-.06-.87c-.1,0-.12-.12-.08-.2s.12-.09.22-.08A.44.44,0,0,1,58.18,33.37Zm-.08-.43a0,0,0,0,1,0,0l0,0,0,0S58.09,33,58.1,32.94ZM58,32.79s0,0-.12,0a.48.48,0,0,0-.16-.4c-.07,0,0-.14.07-.15a.74.74,0,0,1,.44.06l.21.09s-.07,0-.07,0C58.35,32.62,58.11,32.64,58,32.79Zm.32,7.13s0-.05,0-.05h.05a.1.1,0,0,1,0,0Zm.1.63c-.07,0-.06-.08,0-.13s.11,0,.09.1S58.46,40.55,58.43,40.55Zm.24,0s0,0,0,0l.12,0,0,.05A.19.19,0,0,1,58.67,40.57Zm.12.48s0,0,0,0l0,0,0,0S58.81,41,58.79,41.05Zm.09-6.88a.31.31,0,0,1,0,.26,1.37,1.37,0,0,0-.49,0s0,0,0,0a1.07,1.07,0,0,1,.39-.1s.06-.05.08-.07a2.67,2.67,0,0,1,.26-.09l.13.05A.69.69,0,0,1,58.88,34.17Zm.18,6.09s0,0,0-.06.09,0,.1,0a.51.51,0,0,1,.09.18C59.13,40.4,59.14,40.27,59.06,40.26Zm.3.81-.11,0s0,0-.06-.06a.72.72,0,0,0,.25-.27c0-.08,0-.07.22-.14C59.63,40.8,59.38,40.86,59.36,41.07Zm.35-7.15-.17-.15a.09.09,0,0,1,0-.13.21.21,0,0,1,.13-.07.08.08,0,0,1,.1.09A1.7,1.7,0,0,1,59.71,33.92ZM60,40.06h0a.15.15,0,0,1,0-.06h0Zm.07.32H60v0H60Zm.1-6a.24.24,0,0,1,0-.09l.11-.06s0,.07,0,.09S60.23,34.4,60.13,34.35Zm.79,1.29a.08.08,0,0,1,0,0l0,0,0,0Zm.13,4.27,0,0h0l0,0Zm1.36-1.34c0,.08,0,.13,0,.2C62.26,38.61,62.26,38.61,62.41,38.57Zm-.18.69c0-.07,0-.12,0-.11s.12.05.17.07Z"/><path class="cls-5" d="M21.83,56.45l-.15-.3a8.88,8.88,0,0,1-.87-2.62.53.53,0,0,0-.29-.44.77.77,0,0,1-.27-.24L20,52.49a3.85,3.85,0,0,1-.54-.89,3.51,3.51,0,0,1-.28-2.07c0-.15.07-.3.11-.44a4.06,4.06,0,0,0,.15-1.34A.84.84,0,0,0,19,47a3.74,3.74,0,0,0-1.18-.51,6.22,6.22,0,0,0-1.49-.14c-.34,0-.68,0-1,0a2.07,2.07,0,0,0-.43,0,6.63,6.63,0,0,0-.75.15,5,5,0,0,1-1.63.23c-.56,0-1.11,0-1.66,0a.93.93,0,0,1-.68-.23,3.74,3.74,0,0,0-1.31-.65l-.21-.06a.25.25,0,0,1-.16-.32c0-.14.07-.3.09-.44a.52.52,0,0,0,0-.17L9,44.71a1.37,1.37,0,0,1,.53-.12,1,1,0,0,0,.41-.11.44.44,0,0,0,.24-.31,3.26,3.26,0,0,0,.09-.45c0-.11,0-.17-.15-.18a2.81,2.81,0,0,1-.84-.3,2.47,2.47,0,0,1-.42-.3.24.24,0,0,1-.12-.14.83.83,0,0,0-.24-.44l0-.06a1.38,1.38,0,0,0,.68-1.11c0-.09.05-.17.06-.24l0,0,.09,0a2.07,2.07,0,0,0,1.27-1.22,2.11,2.11,0,0,0,.1-.38.51.51,0,0,0-.05-.12.26.26,0,0,0-.09.1c0,.08-.07.17-.11.26a1.49,1.49,0,0,1-.77.83.84.84,0,0,1-.14.06.18.18,0,0,1-.2,0,.19.19,0,0,1,0-.23A.81.81,0,0,1,9.59,40a6.12,6.12,0,0,0,.87-1.37,3.79,3.79,0,0,0,.36-1.23.76.76,0,0,0,0-.15s0,0,0,0,0,0,0,0a1.73,1.73,0,0,0-.11.32,5,5,0,0,1-.32,1,2.29,2.29,0,0,1-.18.29s-.1,0-.14.08-.11-.21-.11-.32a2.56,2.56,0,0,1,.27-1.22,1.58,1.58,0,0,0,.21-.7,3.47,3.47,0,0,0-.08-.79s0-.08-.08-.07,0,.1,0,.15a1.4,1.4,0,0,1,0,.61,1.77,1.77,0,0,1-.37.84.14.14,0,0,1-.25,0c-.07-.12-.14-.25-.2-.38a1.19,1.19,0,0,1,0-1,.37.37,0,0,0,0-.11s0-.06,0-.08a.38.38,0,0,0-.1,0s0,0,0,0a1.43,1.43,0,0,0,0,1.49l.12.22a1.22,1.22,0,0,1,.2.79c0,.26-.05.53-.09.79a2.53,2.53,0,0,1-.42,1.05.83.83,0,0,1-.3.29.23.23,0,0,1-.24,0,.17.17,0,0,1,0-.22,1.07,1.07,0,0,1,.23-.4s.06-.06,0-.11l-.1,0a1,1,0,0,0-.39.5c-.07.16-.11.33-.18.49a1.74,1.74,0,0,1-.2.41,2.92,2.92,0,0,0-.4.65,3.88,3.88,0,0,1-.77-.81,1.07,1.07,0,0,1-.13-.31c0-.09,0-.2-.07-.29a.71.71,0,0,0-.17-.36l-.1,0c0,.09,0,.15,0,.21a1.11,1.11,0,0,1,.07.26.19.19,0,0,1-.14.21.39.39,0,0,1-.21,0,.84.84,0,0,1-.7-.61,2.28,2.28,0,0,1-.1-.82,3.47,3.47,0,0,1,.23-.95c.06-.16.13-.32.19-.49s0-.1-.06-.12a1.31,1.31,0,0,0-.32.48,4.81,4.81,0,0,0-.33,1.18,1.91,1.91,0,0,1-.06.33.24.24,0,0,1-.32.15.6.6,0,0,1-.33-.35,1.46,1.46,0,0,1-.07-.3,3.94,3.94,0,0,1,.38-2.36s0-.07,0-.14a.45.45,0,0,0-.14.07.82.82,0,0,0-.26.4c0,.16-.08.32-.14.48a3.47,3.47,0,0,1-.17.45.91.91,0,0,1-.21.23.15.15,0,0,1-.21,0,.38.38,0,0,1-.08-.17,1.11,1.11,0,0,1,0-.48A1.85,1.85,0,0,1,3.49,37l.36-.65a1.59,1.59,0,0,0,.19-.7s0-.09,0-.1H4a.87.87,0,0,0-.07.17A3.3,3.3,0,0,1,3.26,37a1.8,1.8,0,0,1-.19.2.2.2,0,0,1-.34-.1.75.75,0,0,1,0-.3c0-.24,0-.49.07-.73a5.14,5.14,0,0,1,.4-1.35s0-.09,0-.16a.42.42,0,0,0-.24.25A7.32,7.32,0,0,0,2.5,36a3,3,0,0,0-.09,1.12,2.84,2.84,0,0,0,.34,1,15.1,15.1,0,0,0,1,1.53A4,4,0,0,0,5,40.83l.26.17a1.79,1.79,0,0,0,0,.83.72.72,0,0,0,.37.54l.13.08a.65.65,0,0,1,.31.47c0,.11,0,.24,0,.36s0,.37,0,.55a2,2,0,0,1-.05.64,3.75,3.75,0,0,0,0,1.91,1.15,1.15,0,0,1,0,.37,4.07,4.07,0,0,0,.06,1.1.61.61,0,0,1,0,.27c0,.2-.11.39-.14.6a1.14,1.14,0,0,0,0,.45,1.74,1.74,0,0,0,.3.76c.15.23.31.44.47.66a5.25,5.25,0,0,1,.69,1.22,4.76,4.76,0,0,1,.42,2,1.69,1.69,0,0,0,.07.45,2.4,2.4,0,0,1,.13.69c0,.25,0,.49,0,.74a4.25,4.25,0,0,1-.05.8,1.36,1.36,0,0,1-.18.51.23.23,0,0,1-.19.13h.45A4.52,4.52,0,0,0,8.64,57a1.4,1.4,0,0,1-.1-.35,1.32,1.32,0,0,1,0-.34v-.1l0-.81,0-.76a1.32,1.32,0,0,1,.08-.33,1.35,1.35,0,0,0,0-.66l-.09-.86a8.36,8.36,0,0,1,.05-1.5.53.53,0,0,1,0-.15l.76.27a2.55,2.55,0,0,1,.08,1.13l-.06.4a3.37,3.37,0,0,1-.19.89.72.72,0,0,0,0,.46,5.65,5.65,0,0,1,.15,1.22v.57a1.64,1.64,0,0,1,0,.22c0,.16,0,.31,0,.46v0l.54-.19a.53.53,0,0,1,0-.46.61.61,0,0,0,0-.33c0-.09,0-.17,0-.26A6.35,6.35,0,0,1,10,54.43a.79.79,0,0,1,.1-.28,1.11,1.11,0,0,0,.14-.5,1.85,1.85,0,0,1,.2-.83,9.51,9.51,0,0,1,.46-1,5.46,5.46,0,0,0,.58,0,5.23,5.23,0,0,0,.54-.12l.91-.25,1.43-.37c.18,0,.36-.06.56-.09l.1.16a2.45,2.45,0,0,0,.53.74c.22.22.46.42.69.62s.25.2.38.31.27.24.4.38a1.13,1.13,0,0,1,.29,1.1,6.93,6.93,0,0,1-.53,1.53c-.06.13-.13.26-.2.38l-.09.15-.06.06-.09.06a.17.17,0,0,0-.08.1,5.16,5.16,0,0,1,.73.57,2.31,2.31,0,0,1,.18-.42h0c-.05-.13-.1-.26-.14-.39v0a.41.41,0,0,1,0-.11l.05-.1a.91.91,0,0,1,.11-.22h0a6.65,6.65,0,0,1,1.06-1.46.52.52,0,0,0,.1-.11.43.43,0,0,0,0-.64l-.08-.08a1,1,0,0,1-.31-.42c-.06-.15-.13-.3-.2-.45a1.21,1.21,0,0,1-.12-.53,2.51,2.51,0,0,0,0-.27.75.75,0,0,1,0-.15.54.54,0,0,1,.34.15,3,3,0,0,1,.45.42,7.8,7.8,0,0,0,1,1,1.31,1.31,0,0,1,.4.5.57.57,0,0,0,.18.2,2.34,2.34,0,0,1,.79,1l.45,1.07.09.23c.05.13.09.27.13.4l-.05,0a1.35,1.35,0,0,0,.77-.1A.53.53,0,0,1,21.83,56.45ZM6.29,42a1.51,1.51,0,0,1-.24-.56.71.71,0,0,1,.55.68C6.47,42.18,6.37,42.11,6.29,42Zm2-.38a1.32,1.32,0,0,0-.12.16.32.32,0,0,1,.06-.38,1.83,1.83,0,0,1,.45-.32c0,.1,0,.12-.07.16l-.11.11-.12.14Z"/><polygon class="cls-1" points="19.53 92.97 20.23 94.39 21.79 94.61 20.66 95.72 20.93 97.28 19.53 96.54 18.13 97.28 18.39 95.72 17.26 94.61 18.83 94.39 19.53 92.97"/><polygon class="cls-1" points="44.29 92.97 44.99 94.39 46.55 94.61 45.42 95.72 45.69 97.28 44.29 96.54 42.89 97.28 43.15 95.72 42.02 94.61 43.59 94.39 44.29 92.97"/><path class="cls-5" d="M24.42,97h.43V93.27H23.77V94h-.65V92.76h4.25V94h-.64v-.75H25.47V97H26v.54H24.42Z"/><path class="cls-5" d="M28,92.76h1.52v.54H29V97h.45v.54H28V97h.45V93.3H28Z"/><path class="cls-5" d="M30.37,97h.46V93.36h-.46v-.6h1.51l1.52,4.12,1.53-4.12h1.43v.6h-.45V97h.45v.54H34.81V97h.51V93.32l-1.67,4.21h-.53l-1.69-4.21V97h.49v.54H30.37Z"/><path class="cls-5" d="M37.26,92.76h3.41v1.35H40V93.3h-1.7v1.53h1.43v.54H38.33V97H40v-.81h.64v1.35H37.26V97h.45V93.3h-.45Z"/></g></g></svg>