<svg xmlns="http://www.w3.org/2000/svg" viewBox="0 0 61.42 64.99"><defs><style>.cls-1{fill:#324b58;}.cls-2{fill:#ff7c96;}.cls-3{fill:#fff;}</style></defs><title>Saisons-01</title><g id="Calque_2" data-name="Calque 2"><g id="Planche_Vacance_-_13" data-name="Planche Vacance - 13"><path class="cls-1" d="M49.34,28.42a10.92,10.92,0,0,1,1.5.36,4.37,4.37,0,0,1-.5.09,7.26,7.26,0,0,0-1-.24,7.46,7.46,0,0,0-1.15-.09c-.44,0-.89,0-1.31,0a5.51,5.51,0,0,0-1.79.43c-.73.27-1.55.59-2.43.88l-.93.3h0l-3.19.26a.49.49,0,0,0,0-.11,3.45,3.45,0,0,1,.41-.73,4.58,4.58,0,0,1,.76-.77,5.59,5.59,0,0,1,2.4-1.09,5.78,5.78,0,0,1,1.59-.09,7.9,7.9,0,0,1,1.39.23c.82.21,1.42.46,1.75.5s.8,0,1.25,0A8.45,8.45,0,0,1,49.34,28.42Z"/><path class="cls-2" d="M4.58,37.91a5.14,5.14,0,0,0-.15-1,4.34,4.34,0,0,0-.3-.84,2.87,2.87,0,0,0-.42-.6.94.94,0,0,0-.49-.29.63.63,0,0,0-.41,0,.74.74,0,0,0-.34.3,1.93,1.93,0,0,0-.22.62,4.16,4.16,0,0,0-.09.94,4.28,4.28,0,0,0,.12,1.13,2.55,2.55,0,0,0,.28.7,1.82,1.82,0,0,0,.4.46c.14.11.29.23.43.36.65.61,1,.9,1.68,1.45a3.44,3.44,0,0,1,.68.8,5.73,5.73,0,0,1,.56,1.19,8.85,8.85,0,0,1,.37,1.57,12.1,12.1,0,0,1,.14,2,14.41,14.41,0,0,1-.26,2.8,10.9,10.9,0,0,1-.74,2.32A6.66,6.66,0,0,1,4.71,53.6a3.31,3.31,0,0,1-1.37,1,1.55,1.55,0,0,1-1,0,1.67,1.67,0,0,1-.8-.6A4.4,4.4,0,0,1,1,52.79,9.31,9.31,0,0,1,.55,51L0,51.17v-5C.76,46.08,1.15,46,2,46v1a8.36,8.36,0,0,0,.08,1.28,3.77,3.77,0,0,0,.25,1,1.3,1.3,0,0,0,.42.59.74.74,0,0,0,.61.11,1.22,1.22,0,0,0,.83-.78,4.4,4.4,0,0,0,.28-1.73,3.32,3.32,0,0,0-.1-.91,2,2,0,0,0-.26-.61,1.76,1.76,0,0,0-.35-.41l-.38-.3c-.54-.4-.81-.61-1.33-1a3,3,0,0,1-.71-.86,6.06,6.06,0,0,1-.58-1.45,13.9,13.9,0,0,1-.4-2.09,22.44,22.44,0,0,1-.15-2.75,19,19,0,0,1,.22-3.12A7.64,7.64,0,0,1,1,31.7a2.09,2.09,0,0,1,1-1.06,1.61,1.61,0,0,1,1.26,0,2.7,2.7,0,0,1,1,.65,5.6,5.6,0,0,1,.88,1.09,7.32,7.32,0,0,1,.68,1.34,9.36,9.36,0,0,1,.43,1.43l.65.12v4.13c-1-.07-1.42-.11-2.32-.2Z"/><path class="cls-2" d="M7.93,32.59c1.89.45,2.89.65,5,1a3.87,3.87,0,0,1,1.62.69,5.49,5.49,0,0,1,1.29,1.3,6.35,6.35,0,0,1,.87,1.7A6,6,0,0,1,17,39.2a9.81,9.81,0,0,1-.24,2.22A5.5,5.5,0,0,1,16,43.23,4.19,4.19,0,0,1,14.7,44.5a3.69,3.69,0,0,1-1.8.53l-1.55.08v3.57l1-.12v3.33c-1.85.33-2.74.51-4.44.92V49.16L9,49V36.42l-1.07-.16Zm3.42,4.13v5l1,0a1.71,1.71,0,0,0,1.35-.55,2.6,2.6,0,0,0,.5-1.77,3.21,3.21,0,0,0-.47-1.82,1.86,1.86,0,0,0-1.38-.8Z"/><path class="cls-2" d="M18.3,34.34c2.57.29,3.9.4,6.64.53a4.67,4.67,0,0,1,1.8.43,4.54,4.54,0,0,1,1.35,1,4.17,4.17,0,0,1,.84,1.39,4.58,4.58,0,0,1,.3,1.64,5.49,5.49,0,0,1-.15,1.36,4,4,0,0,1-.42,1,3.25,3.25,0,0,1-.68.8,5.1,5.1,0,0,1-.91.64,2.43,2.43,0,0,1,.78.81,4.14,4.14,0,0,1,.52,1.4c.17.8.26,1.19.44,2h1.1c0,1.2,0,1.79,0,3-1.55,0-2.32,0-3.84.09-.21-1.47-.31-2.2-.51-3.67a5.84,5.84,0,0,0-.24-1.13,2.39,2.39,0,0,0-.42-.78,1.54,1.54,0,0,0-.65-.44,2.39,2.39,0,0,0-.89-.13H22.3v3.47l1.17-.05v2.85c-2.12.14-3.16.23-5.17.46V48l1.27-.08V37.45l-1.27-.08Zm4,3.26v3.86l1.67,0a3.25,3.25,0,0,0,.87-.1,1.64,1.64,0,0,0,.67-.34,1.44,1.44,0,0,0,.43-.57,2.09,2.09,0,0,0,.15-.83,1.85,1.85,0,0,0-.54-1.41A2.33,2.33,0,0,0,24,37.67Z"/><path class="cls-2" d="M31.29,35c2.27,0,3.38,0,5.56-.15v2.83l-1.35,0v9.9l1.35,0V50.5c-2.18-.11-3.29-.15-5.56-.15V47.57h1.36v-9.8H31.29Z"/><path class="cls-2" d="M45.84,34c1.76-.24,2.61-.38,4.26-.69v3.4l-.89.1v15c-1-.17-1.45-.25-2.45-.4-1.48-3.78-3.13-7.55-4.91-11.19v7.62l1,.07v3c-1.82-.2-2.76-.28-4.67-.4V47.72l1,.05V37.61l-1,0V34.78c1.52-.09,2.27-.15,3.73-.3,2,4.1,3,6.24,4.88,10.94V37.08l-1,.09Z"/><path class="cls-2" d="M58.34,54.13V50.21a10,10,0,0,1-.71,2.21,2.77,2.77,0,0,1-.81,1,1.43,1.43,0,0,1-1.25.07,2.65,2.65,0,0,1-.8-.41,4.64,4.64,0,0,1-.78-.71,8.87,8.87,0,0,1-1.44-2.11,17,17,0,0,1-1.19-3.49,18.15,18.15,0,0,1-.43-4.07,18.65,18.65,0,0,1,.18-2.61,18,18,0,0,1,.51-2.41,15.67,15.67,0,0,1,.78-2.13,12,12,0,0,1,1-1.79,7.74,7.74,0,0,1,1.16-1.33,3.34,3.34,0,0,1,1.27-.72,1.57,1.57,0,0,1,1.27.09,3.39,3.39,0,0,1,1.12,1.42l1.29-.36v5.26c-.7.1-1.06.14-1.8.23a6,6,0,0,0-.52-1.44,2.55,2.55,0,0,0-.53-.68,1,1,0,0,0-.83-.16,1.66,1.66,0,0,0-1,.68,5.87,5.87,0,0,0-.81,1.5,10.7,10.7,0,0,0-.55,2.07,13.41,13.41,0,0,0-.2,2.38,14.11,14.11,0,0,0,.18,2.3A9.84,9.84,0,0,0,54,47a5.27,5.27,0,0,0,.84,1.47,1.73,1.73,0,0,0,1,.64c.44.08.83-.15,1.15-.7A6.57,6.57,0,0,0,57.67,46l-1.78-.16V42c1.77,0,2.61,0,4.15-.08V54.72C59.38,54.47,59,54.36,58.34,54.13Z"/><path class="cls-1" d="M52.18,28.51l-1.13.23c-1.09-.78-2-1.38-2.68-1.81-.53-.34-1.07-.66-1.62-1-.22-.06-.47-.1-.72-.15-.43-.07-.88-.11-1.29-.17a5.06,5.06,0,0,0-1.81.28c-.74.22-1.58.5-2.51.71a20.73,20.73,0,0,1-2.07.33,12.13,12.13,0,0,1-1.8.1c-.18,0-.57-.06-.93-.11l-.49-.09c-.13,0-.22-.07-.24-.11a5.31,5.31,0,0,0,.71-.23,1.89,1.89,0,0,0,.65-.43,5.24,5.24,0,0,1,1.46-1,7.38,7.38,0,0,1,2.4-.66,6.3,6.3,0,0,1,1.57,0,7.15,7.15,0,0,1,1.36.32c.82.26,1.4.58,1.72.64s.79.1,1.23.16l.2,0c-.45-.25-.92-.49-1.38-.72a26,26,0,0,0-2.55-1.08c-.43-.16-.87-.3-1.31-.43l-.67-.19c-.19,0-.35-.14-.54-.2L39.57,23h0a9.9,9.9,0,0,0-1.22-.31l-.56-.1c-.77-.13-1.53-.26-2.29-.37-.49-.07-1-.13-1.47-.16-.71-.05-1.41-.13-2.12-.15a22.41,22.41,0,0,0-5.47.64,28.13,28.13,0,0,0-7.61,3l0,0-.53.33a4.82,4.82,0,0,0-1,.78,2.33,2.33,0,0,0-.39.65,8.36,8.36,0,0,0-.27.8.73.73,0,0,0,0,.22,1,1,0,0,0,0,.27,3.51,3.51,0,0,0,.26.63c.08.15.17.3.26.45l-1.52-.22a1.48,1.48,0,0,1,.12-.29,4.19,4.19,0,0,1,.39-.71,2.5,2.5,0,0,1,.18-.24,1.81,1.81,0,0,0,.1-.17c.09-.22.16-.51.27-.79a3.66,3.66,0,0,1,.28-.56c-.19.14-.38.27-.57.42l-1.18.91L15,28.3a.45.45,0,0,1-.1.09c-.29.27-.58.55-.86.84l-.38-.07.19-.12.17-.19a3.22,3.22,0,0,1-.89.22h-.06A7.71,7.71,0,0,1,11.19,29c-.31-.05-.71-.1-1.14-.2a5.26,5.26,0,0,1-1.25-.42l-.35-.14L8,28.05l-.38-.12h0c-.21-.07-.43-.16-.66-.26A7,7,0,0,1,5.76,27,5.31,5.31,0,0,1,4.6,25.8,4.45,4.45,0,0,1,4,24.66a4.77,4.77,0,0,1-.3-1.28,3.91,3.91,0,0,1,.09-1.2,2.88,2.88,0,0,1,.38-.88A2.42,2.42,0,0,1,4.45,21a4.71,4.71,0,0,1,.41-.35c.29-.22.57-.41.65-.38a4.4,4.4,0,0,0-.33.65l-.06.18,0,.17a.8.8,0,0,0,0,.34,13.3,13.3,0,0,0,.46,1.31,17.55,17.55,0,0,0,.87,1.74c.43.76.86,1.56,1.28,2.21a7.38,7.38,0,0,0,.61.84,4,4,0,0,0,.28.29,1.27,1.27,0,0,0,.25.19l.21.1a4.72,4.72,0,0,0,.94.29c.43.09.85.14,1.16.19l.59.08h0a6.64,6.64,0,0,0,1.18,0,3.54,3.54,0,0,0,.85-.22l.2-.1.21-.12.24-.13a19.66,19.66,0,0,1,4.09-3.17l0,0-.15.05-.9.25c-.3.08-.69.21-1.12.31a7.23,7.23,0,0,1-1.31.17c-.44,0-1.08.18-1.94.22a5,5,0,0,1-1.44-.14,4.11,4.11,0,0,1-1.59-.82A3.73,3.73,0,0,1,9.27,24a3.69,3.69,0,0,1-.37-1.38,3.37,3.37,0,0,1,0-.64.77.77,0,0,1,0-.15.28.28,0,0,1,0-.13,1.55,1.55,0,0,1,0-.23,4.54,4.54,0,0,1,.26-.81c.14-.34.72-1.42.9-1.43a2.37,2.37,0,0,0,.1,1.48,4.42,4.42,0,0,1,.28.7l.06.21,0,.11,0,.09c0,.12.08.24.13.36a4.35,4.35,0,0,0,.88,1.37,9.39,9.39,0,0,0,.85.8c.31.24.66.48,1,.68a4.56,4.56,0,0,0,1.6.66,5.12,5.12,0,0,0,1.22-.16c.42-.1.83-.24,1.13-.32s.59-.17.88-.27l.44-.15.44-.17.46-.16a27.6,27.6,0,0,1,3.84-1.83l1.27-.44a5.79,5.79,0,0,1-1.08-.31,8.79,8.79,0,0,1-2-1.13l0,0-.28-.13-.29-.15-.55-.3a5.45,5.45,0,0,0-1.14-.49,2.75,2.75,0,0,0-.75-.09,7,7,0,0,0-.83.07,1.86,1.86,0,0,0-.94.71,14.18,14.18,0,0,0-.85,1.18,3.43,3.43,0,0,1-.24.31c-.07.09-.14.16-.21.26a1.52,1.52,0,0,0-.17.36,3.25,3.25,0,0,0-.1.47c-.07.22-.07,1.18-.22,1.29a1.92,1.92,0,0,0-.23-.42,1.82,1.82,0,0,0-.46-.39,1.39,1.39,0,0,1-.49-.44,2,2,0,0,1-.33-.88,2.44,2.44,0,0,1,.14-1.15,2.86,2.86,0,0,1,.67-1,2.55,2.55,0,0,1,1.09-.59,3.21,3.21,0,0,1,1-.12,4.17,4.17,0,0,1,.8.11,2.18,2.18,0,0,0,.48.07c.23,0,.53-.06.83-.06a2.88,2.88,0,0,1,.82.07,6.48,6.48,0,0,1,1,.35c-.35-.4-.71-.8-1.08-1.18a8,8,0,0,0-1.48-1.18,7.22,7.22,0,0,0-1-.51l-1.22-.44a3.85,3.85,0,0,0-1.8-.05c-.37.06-.76.14-1.15.24s-.78.22-1.18.35c-.56.18-1.15.4-1.73.65L8.92,18l-.39.18c-.12.05-.24.11-.36.15a4.47,4.47,0,0,1-1.65.33,2.4,2.4,0,0,0,1-1.09l.06-.16a1.38,1.38,0,0,0,.08-.17c.06-.12.14-.24.22-.38a5.18,5.18,0,0,1,.68-.8,5.32,5.32,0,0,1,1-.75A4.7,4.7,0,0,1,11,14.86a4.42,4.42,0,0,1,1.7,0,5.4,5.4,0,0,1,1.39.46c.78.39,1.29.83,1.59.95s.75.27,1.17.43a6.44,6.44,0,0,1,1.11.52A9.5,9.5,0,0,1,19,18a2.39,2.39,0,0,1-.45-.64c-.13-.19-.22-.39-.33-.59a10.37,10.37,0,0,1-.64-1.35c-.1-.22-.22-.42-.32-.64a3.21,3.21,0,0,0-1.53-1.4,4.87,4.87,0,0,0-1.41-.41,8,8,0,0,0-1.2,0s-.12,0-.08-.08a1.56,1.56,0,0,1,1.16-.2,5.21,5.21,0,0,1,1.58.46,5.46,5.46,0,0,1,.73.4,3,3,0,0,0-.23-.3A5.63,5.63,0,0,0,14.84,12a7.06,7.06,0,0,0-1.05-.47l-.63-.22c-.21-.07-.41-.16-.6-.23a3.25,3.25,0,0,0-1.77.05,14,14,0,0,0-2.26.76c-.27.12-.52.24-.74.36a3.09,3.09,0,0,0-.61.41,2.56,2.56,0,0,0-.46.52,4.57,4.57,0,0,0-.32.62c0,.08-.09.2-.15.35s-.12.33-.17.5-.1.35-.14.47-.1.22-.14.23l0-.18a1.35,1.35,0,0,0,0-.18c0-.13,0-.26-.08-.39a4.13,4.13,0,0,0-.27-.82,2.24,2.24,0,0,1-.18-.9,2.72,2.72,0,0,1,.29-1.24,3.38,3.38,0,0,1,1-1.15A4,4,0,0,1,7.85,9.8a4.61,4.61,0,0,1,1.71-.14A6.15,6.15,0,0,1,11,10a7.94,7.94,0,0,1,1,.52,5.33,5.33,0,0,0,.63.36l.54.23.62.21a6.39,6.39,0,0,1,1.13.48A6.58,6.58,0,0,1,16.45,13a5,5,0,0,1,.54.67c0,.05.07.18.15.16s.08-.14.08-.2A3,3,0,0,0,17,13.1a3.83,3.83,0,0,1-.16-.58A8.75,8.75,0,0,0,16.28,11a8.23,8.23,0,0,0-.59-1c-.24-.36-.51-.73-.75-1.07a4.18,4.18,0,0,0-1.42-1.12,10.47,10.47,0,0,0-1.06-.53c-.37-.16-.74-.31-1.12-.44a8.49,8.49,0,0,0-1.67-.41c-.29,0-.58,0-.86-.07H8.4l-.4,0a4.58,4.58,0,0,1-1.63-.44,2.39,2.39,0,0,0,1.38-.54L8,5.14a4.2,4.2,0,0,1,.38-.24,4.26,4.26,0,0,1,1-.4,4.3,4.3,0,0,1,1.36-.08,4.61,4.61,0,0,1,1.46.43A4.49,4.49,0,0,1,13.6,5.92a5.49,5.49,0,0,1,.8,1.21c.38.78.52,1.42.7,1.7s.46.66.71,1a8.08,8.08,0,0,1,.65,1,13.17,13.17,0,0,1,.64,1.68c0-.28-.09-.62-.13-1s0-.44,0-.66l0-.33c0-.11,0-.22,0-.33s0-.49,0-.82a7.67,7.67,0,0,1,0-1.15,5.53,5.53,0,0,1,.32-1.39,4.36,4.36,0,0,1,.91-1.46,3.66,3.66,0,0,1,1.12-.84,3.33,3.33,0,0,1,1.45-.35,2.77,2.77,0,0,1,1.3.3,2.43,2.43,0,0,1,.77.64,1.89,1.89,0,0,1,.22.37,2.5,2.5,0,0,1,.19.52,2.29,2.29,0,0,1,.08.48.38.38,0,0,1,0,.26l-.1-.15-.1-.14a1.79,1.79,0,0,0-.22-.25A.94.94,0,0,0,22.21,6c-.19,0-.39,0-.6,0a2.61,2.61,0,0,0-.6.14,3.75,3.75,0,0,0-.63.32,5.9,5.9,0,0,0-.73.54,12.77,12.77,0,0,0-1.72,1.73,3.57,3.57,0,0,0-.83,1.5,3.73,3.73,0,0,0,0,.58c0,.21,0,.43.06.64.05.45.12.87.16,1.18a11.08,11.08,0,0,0,.33,1.81,16,16,0,0,0,.59,1.77,1.21,1.21,0,0,1,.05.14,11,11,0,0,0,2.44,3.08,8.9,8.9,0,0,0,3,1.72,8.47,8.47,0,0,0,1.33.26l-.52-.24c-.18-.09-.43-.18-.69-.31a3.25,3.25,0,0,1-.74-.45c-.22-.19-.67-.35-1.17-.69a3.74,3.74,0,0,1-.75-.66,3.08,3.08,0,0,1-.56-1,2.75,2.75,0,0,1-.1-1,2.58,2.58,0,0,1,.25-1,2,2,0,0,1,.59-.75,1.51,1.51,0,0,1,.67-.32,1.13,1.13,0,0,1,.33,0,2,2,0,0,1,.42.07,1.27,1.27,0,0,1,.58.22,1.54,1.54,0,0,0-.45.17l-.1.07-.07.07a.47.47,0,0,0-.06.21,1.7,1.7,0,0,0,0,.39,2.45,2.45,0,0,0,0,.38c0,.12,0,.25.05.41s0,.34.06.54c.05.49,0,1.07.09,1.6a2.26,2.26,0,0,0,.3,1.12,2.47,2.47,0,0,0,.68.42c.26.11.52.2.7.29a6.24,6.24,0,0,0,1.09.41,3.25,3.25,0,0,0,.42.11,7.87,7.87,0,0,0,1,0c1.51-.09,3-.12,4.52-.1l1.36,0h.28l1.38.07c.29,0,.59,0,.88,0s.73.09,1.09.13c.66.07,1.32.17,2,.3s1.13.23,1.69.37l.1,0A27.05,27.05,0,0,1,44,23.61c.8.34,1.58.7,2.34,1.11.5.26,1,.55,1.47.84l.77.45c.23.15.47.26.71.39s.26.18.38.27a1.21,1.21,0,0,1,.29.19C50.52,27.29,51.54,28,52.18,28.51Z"/><path class="cls-3" d="M60.28,4.89a5.57,5.57,0,0,1-1.13.6c-.27,0-.42-.12-.67-.09a1.27,1.27,0,0,0-.72.34,11.53,11.53,0,0,1-4,2.38A7.62,7.62,0,0,1,49.2,8a16,16,0,0,1-3.89-2.21,12,12,0,0,0-5.19-2.1c-.63-.11-1.28,0-1.91-.1A5.65,5.65,0,0,1,36.38,3c-1-.44-1.41-1.26-2.12-1.95A4.11,4.11,0,0,0,33.19.31a2.33,2.33,0,0,0-.72-.23A4.88,4.88,0,0,0,31.15,0,6.79,6.79,0,0,0,29,.81c-.29.16-.28.14-.56.31a.84.84,0,0,1-.61.19l-.26,0-.89-.08c-.11,0-.66-.17-.7,0s.25.15.34.19.32.11.48.19.51.2.51.31a3.25,3.25,0,0,1-.52.12,2.11,2.11,0,0,0-.45.1c-.12.08.06.1.15.12s.37.1.56.16a1.12,1.12,0,0,1,.59.33c.15.2.32.39.46.6a7.15,7.15,0,0,1,.72,1.33c1.16,2.94,1.12,5.17,2.7,7.73a14.11,14.11,0,0,0,1.11,1.66,10.44,10.44,0,0,0,7.11,3.77c.2.18.38.36.28.65s-.47.31-.66.38c-.66.22-1.35.39-2,.57s-1.3.3-1.94.48a1.16,1.16,0,0,0-.57.27c-.2.19-.48.41-.18.63s1.38.57,1.56,0c.07-.18,0-.4.09-.57s.57-.29.81-.35c1-.28,2.16-.48,3.18-.85.52-.18.21-.47.49-.81.11-.13.25-.23.35-.36a13.7,13.7,0,0,0,3-.41l.08.05c.12.1.3.18.38.31.21.34-.3.85-.5,1.09a14.4,14.4,0,0,1-2,1.76c-.57.44-1.23.7-1.79,1.12-.78.58,1,.52,1.26.49s.81-.11,1-.4,0-.33-.1-.5c-.15-.54.74-1.09,1.05-1.41a10.93,10.93,0,0,0,1.84-2,1.36,1.36,0,0,0,.14-.9l.56-.2c.14-.05.72-.19.71-.37s-.3-.23-.41-.24a12.19,12.19,0,0,1-2.87-.58,21.69,21.69,0,0,1-4.66-2.29,12.28,12.28,0,0,1-3.57-3.68,4.15,4.15,0,0,1-.77-3.25c.07-.21.27-.79.56-.5s0,.68-.08.87a3.56,3.56,0,0,0,0,1.08,4.68,4.68,0,0,0,.84,2A13.82,13.82,0,0,0,40.37,14,25.21,25.21,0,0,0,46.18,16l.57.13.12,0c.2,0,.4.09.6.12a13.52,13.52,0,0,0,5.66.1c.45-.12,2.57-.57,2.56-1.21s-1.57-.87-2-1.14c1.94-.6-1-.66-.3-1.7s2.06-1.57,3-2.33a21.57,21.57,0,0,1,3.82-2.59c.46-.24,1.27-1,.13-.87l0,0a8.5,8.5,0,0,0,.79-.89C61.84,4.63,61.06,4.48,60.28,4.89Z"/><polygon class="cls-2" points="18.66 60.43 19.36 61.85 20.93 62.07 19.8 63.18 20.07 64.74 18.66 64 17.26 64.74 17.53 63.18 16.4 62.07 17.96 61.85 18.66 60.43"/><polygon class="cls-2" points="43.42 60.43 44.13 61.85 45.69 62.07 44.56 63.18 44.83 64.74 43.42 64 42.02 64.74 42.29 63.18 41.16 62.07 42.73 61.85 43.42 60.43"/><path class="cls-3" d="M23.56,64.45H24V60.74H22.9v.74h-.64V60.22h4.25v1.26h-.64v-.74H24.61v3.71h.49V65H23.56Z"/><path class="cls-3" d="M27.09,60.22h1.52v.54h-.45v3.69h.45V65H27.09v-.54h.45V60.76h-.45Z"/><path class="cls-3" d="M29.51,64.45H30V60.82h-.45v-.6H31l1.51,4.12,1.54-4.12H35.5v.6h-.45v3.63h.45V65H34v-.54h.51V60.79L32.79,65h-.53l-1.69-4.21v3.67h.49V65H29.51Z"/><path class="cls-3" d="M36.4,60.22h3.41v1.35h-.64v-.81h-1.7v1.53H38.9v.54H37.47v1.62h1.7v-.81h.64V65H36.4v-.54h.45V60.76H36.4Z"/></g></g></svg>