<svg xmlns="http://www.w3.org/2000/svg" viewBox="0 0 60.04 88.69"><defs><style>.cls-1{fill:#324b58;}.cls-2{fill:#eeefef;}.cls-3{fill:#b6dffc;}.cls-4{fill:#fff;}.cls-5{fill:#ff7c96;}</style></defs><title>Saisons-05</title><g id="Calque_2" data-name="Calque 2"><g id="Planche_Vacance_-_23" data-name="Planche Vacance - 23"><path class="cls-1" d="M55.06,32l-.52.49-7.59-1c0,.15-.13.28-.2.38l7.94,1.06h0l-.46.31L46.5,32.14a29.57,29.57,0,0,1-2.72,7.42l-2,0-.45,1.89a5.17,5.17,0,0,0,2.1-1.42,0,0,0,0,1,0,0A3.52,3.52,0,0,1,41,42c-.15-.39,2.39-6.9.7-6.23.18.89-1.92,3.25-2.38,3.89l-1.72,0a6,6,0,0,0,.9,1l-.22.29L37,39.49c-.94.14.81,1.65.92,1.92l-.35.46c-1.88-3.4-7.15-15.11-9.38-18.41a48.66,48.66,0,0,0,5.87-4.74c-2-4.66-8.74-7.38-12.75-10l-.45-.24h0l-.16,0c-.57-1.66-1.29-1.3-.32.16a.71.71,0,0,0-.08.15c-.68,4.65-5,13.47-2.93,17.87.17-.06,8.14-1.6,10.5-3,1.52,4,7.52,15.1,9.24,18.85L35,45.23c.33,1,2.07-2.12,2.32-2.2l.36.72-.59,0-.29.26,1-.07c3.83,8.54,6.12,10,.79-.05L40,43.85l.06.07c-.06.27-.39,1.35.25,1.06L41,42a25.29,25.29,0,0,0,3.33.18L43,43.42l-2.13.19-.05.23L49.52,43l0,.21-.44,0-.08.35.42.31.85-3.54c2.27-1.47,2.54-5.58,5-7.48C55.47,32.53,55.31,32,55.06,32ZM41.78,36c.13,0,.12.36,0,.35S41.65,36,41.78,36Zm-.87,3.55h-.53l-1.27,1.56a2.71,2.71,0,0,0,1.39.44l-.33,1.59L38.8,41.57l-.36.43,1.32,1.6-1.25.09-.65-1.29,3.34-4.2Zm2.85,3.76,1.37-1.23c.22,0,.42,0,.62-.06l1.23,1Zm5.37-.48L47.86,43l-1.32-1a8.15,8.15,0,0,0,3-1.09Z"/><path class="cls-2" d="M27.3,39.29l-.63.05-.24-1.14Z"/><path class="cls-3" d="M45.51,19.66a19.63,19.63,0,0,1-10.4,17.2c-.33-.23-6.32-13.45-6.89-13.4a48.66,48.66,0,0,0,5.87-4.74c-2-4.66-8.72-7.35-12.72-10,2.39,1.36,11.74,5.89,13.13,9.54.78,0,8.66-1.57,10.21-4.1A19.4,19.4,0,0,1,45.51,19.66Z"/><path class="cls-2" d="M26,36.21c0,.23-.19.24-.19,0S25.94,36,26,36.21Z"/><path class="cls-3" d="M42.14,8.79c-6.37-1.35-19.68,0-21.25-.29h0l-.16,0c-.57-1.66-1.29-1.3-.32.16a.71.71,0,0,0-.08.15C19.54,10.26,8.93,20.72,6,26.66-2.68,4.61,29.56-10.37,42.14,8.79Z"/><path class="cls-3" d="M27.87,24a.4.4,0,0,1,0-.32c-2.32,1.36-10.39,2.94-10.5,3-2.05-4.47,2.23-13,2.88-17.73-1.42,5.26-5.29,12.7-3.51,18-.13.17-5,5-7.55,5.09a20.48,20.48,0,0,0,5.65,4.68c-.36-.78-.7-1.62-1.06-2.53-.34-.36-2.32-1.73-1.21-2.2l.52.49,7.59-1c0,.15.13.28.21.38l-8,1.06h0l.45.31,7.74-1.07a30.48,30.48,0,0,0,2.61,7.21,14.08,14.08,0,0,0,2.25,0c.05-.44-1.52-4.15-.07-3.65-.15.88,1.6,2.84,2.07,3.47a20.75,20.75,0,0,0,6.47-2ZM25,36.38c-.06-.48-5.28-5.51-3.59-5.83l3.88,5.08A.86.86,0,0,0,25,36.38Z"/><path class="cls-1" d="M25.63,44.32l-.54-.48-.76-.07C24.55,43.91,25.45,45,25.63,44.32Z"/><path class="cls-1" d="M13.33,48.37l.56-.41.63.11,5.72-4.67-.89-.08c.12.12-8.72,6.06-5.72,5.48L21,50.73a.82.82,0,0,1,.1-.46S13.34,48.4,13.33,48.37Z"/><path class="cls-1" d="M21.44,50.29a1,1,0,0,0,.1,1l5.53-6.72-.18-.71Z"/><path class="cls-1" d="M21,31.41l3.94,5a.84.84,0,0,1,.29-.74l-3.88-5.08C21.14,30.5,20.9,31,21,31.41Z"/><path class="cls-1" d="M29.68,41.41c.11-.28,1.87-1.78.92-1.92L29.34,41l-.22-.29a6.48,6.48,0,0,0,.91-1l-1.73,0c-.57-.89-2.45-2.72-2.38-3.89-1.65-.59.76,5.48.7,6.23a3.52,3.52,0,0,1-2.44-1.87s0,0,0,0a5.17,5.17,0,0,0,2.1,1.42l-.45-1.89-2,0a29.81,29.81,0,0,1-2.72-7.42l-7.74,1.07-.45-.31h0l8-1.06c-.08-.1-.23-.23-.21-.38l-7.59,1L12.57,32c-.25,0-.41.54-.22.89,2.49,1.82,2.56,5.73,5,7.48l.85,3.54.42-.31-.07-.35-.44,0,0-.21,8.72.84,0-.23-2.13-.19-1.36-1.28A25.52,25.52,0,0,0,26.63,42l.73,3c.65.29.31-.79.25-1.06l.06-.07,3.12.21-.29-.26-2.63-.2L29.19,42l-.36-.43-1.37,1.62-.33-1.59a2.71,2.71,0,0,0,1.39-.44L27.25,39.6h-.53c0-.15-.25-1.21-.29-1.39.41.1,5.72,8.16,6.17,7Zm-3.83-5c-.11,0-.12-.35,0-.35S26,36.4,25.85,36.39ZM18.5,42.87l-.41-2a8.09,8.09,0,0,0,3,1.09l-1.32,1Zm5.37.48-3.22-.28,1.23-1c.2,0,.41,0,.62.06Zm5.72-1.53c-.13,0-.14-.35,0-.35S29.7,41.83,29.59,41.82Z"/><path class="cls-1" d="M48.28,43.32l-.89.08,5.72,4.67.63-.11.56.41s-7.7,1.88-7.73,1.9a.82.82,0,0,1,.1.46L54,48.8C57,49.4,48.13,43.42,48.28,43.32Z"/><path class="cls-1" d="M42.45,44.5l.85-.73-.76.07-.54.48C42,44.45,42.23,44.59,42.45,44.5Z"/><path class="cls-1" d="M40.74,43.87l-.18.71,5.53,6.72C47.34,50.56,40.9,44.47,40.74,43.87Z"/><path class="cls-1" d="M42.36,35.64a.84.84,0,0,1,.29.74c.05-.49,5.29-5.5,3.59-5.82Z"/><path class="cls-1" d="M46.3,12.31c-1.44,3.62-9.79,6-11.8,6-1.4-3.66-10.77-8.2-13.16-9.55l-.45-.24C22.61,9.54,44.09,4.88,46.3,12.31Z"/><path class="cls-1" d="M20.29,8.8C18.86,14.1,15,21.57,16.74,27c-.45.88-7.54,6.8-10.27,5C1.36,25.68,20.19,10.7,20.29,8.8Z"/><path class="cls-4" d="M16.53,83.81h1.55v.55h-.45V88h.45v.54H16.53V88H17V86.33H14.25V88h.48v.54H13.18V88h.46V84.36h-.46v-.55h1.55v.55h-.48V85.8H17V84.36h-.48Z"/><path class="cls-4" d="M21,88.68a2,2,0,0,1-.9-.19,2.18,2.18,0,0,1-.73-.52,2.38,2.38,0,0,1-.49-.81,3,3,0,0,1,0-1.93,2.71,2.71,0,0,1,.47-.79,2.4,2.4,0,0,1,.73-.53,2.35,2.35,0,0,1,1.85,0,2.24,2.24,0,0,1,.72.53,2.51,2.51,0,0,1,.47.79,2.85,2.85,0,0,1,0,1.94,2.36,2.36,0,0,1-.47.78,2.24,2.24,0,0,1-1.65.73Zm0-.59a1.51,1.51,0,0,0,.68-.15,1.61,1.61,0,0,0,.52-.42,1.93,1.93,0,0,0,.33-.6,2.46,2.46,0,0,0,.11-.72,2.36,2.36,0,0,0-.12-.75,1.88,1.88,0,0,0-.36-.62,1.55,1.55,0,0,0-.53-.39,1.51,1.51,0,0,0-.63-.13,1.54,1.54,0,0,0-.68.15,1.72,1.72,0,0,0-.52.41,2.11,2.11,0,0,0-.33.61,2.46,2.46,0,0,0-.11.72,2.13,2.13,0,0,0,.13.78,1.59,1.59,0,0,0,.34.58,1.89,1.89,0,0,0,.5.38A1.47,1.47,0,0,0,21,88.09Z"/><path class="cls-4" d="M24,83.81h1.55v.55h-.48V88h1.65l.1,0,.09-.06a.47.47,0,0,0,.06-.09.19.19,0,0,0,0-.1v-.6h.6v1.41H24V88h.45V84.36H24Z"/><path class="cls-4" d="M28.08,83.81H29.6v.55h-.45V88h.45v.54H28.08V88h.45V84.36h-.45Z"/><path class="cls-4" d="M30.5,83.81h1.77a2.18,2.18,0,0,1,.63.09,2.7,2.7,0,0,1,.55.24,2.33,2.33,0,0,1,.46.37,2.12,2.12,0,0,1,.35.48,2.43,2.43,0,0,1,.23.57,2.52,2.52,0,0,1,0,1.26,2.7,2.7,0,0,1-.23.58,2.12,2.12,0,0,1-.35.48,2.39,2.39,0,0,1-.46.38,2.7,2.7,0,0,1-.55.24,2.59,2.59,0,0,1-.63.08H30.5V88H31V84.36H30.5Zm1.07.55V88h.74a1.44,1.44,0,0,0,.62-.14,1.54,1.54,0,0,0,.51-.4,1.79,1.79,0,0,0,.34-.59,2.06,2.06,0,0,0,0-1.44,1.85,1.85,0,0,0-.34-.58,1.39,1.39,0,0,0-.51-.39,1.44,1.44,0,0,0-.62-.14Z"/><path class="cls-4" d="M38.06,88h.4L38.08,87H36.24L35.88,88h.49v.54H34.82V88h.41l1.49-4.23h.93L39.13,88h.48v.54H38.06Zm-1.64-1.6H37.9l-.75-2.13Z"/><path class="cls-4" d="M39.4,83.81H41v.55H40.5l.9,1.53,1-1.53h-.49v-.55h1.55v.55H43l-1.34,2V88h.49v.54H40.6V88H41V86.38l-1.26-2H39.4Z"/><path class="cls-4" d="M46.3,84.7a.79.79,0,0,0-.23-.22,1.19,1.19,0,0,0-.26-.11,1,1,0,0,0-.29,0,1.33,1.33,0,0,0-.42.06.71.71,0,0,0-.3.15.52.52,0,0,0-.17.22.58.58,0,0,0-.06.26.62.62,0,0,0,.07.33.55.55,0,0,0,.19.21,1,1,0,0,0,.25.12l.26.09L46,86a3.62,3.62,0,0,1,.51.2,1.34,1.34,0,0,1,.37.28,1.2,1.2,0,0,1,.22.36,1.44,1.44,0,0,1,.08.49,1.22,1.22,0,0,1-.12.54,1.34,1.34,0,0,1-.34.44,1.75,1.75,0,0,1-.52.29,2.13,2.13,0,0,1-1.29,0,1.24,1.24,0,0,1-.43-.22,1.1,1.1,0,0,1-.29-.32,1.76,1.76,0,0,1-.17-.37h-.23v-.54h.79a1.2,1.2,0,0,0,.07.5.79.79,0,0,0,.21.24,1,1,0,0,0,.31.14,1.68,1.68,0,0,0,.4,0,1.48,1.48,0,0,0,.39,0,.73.73,0,0,0,.29-.15.71.71,0,0,0,.19-.23.75.75,0,0,0,.06-.31.58.58,0,0,0-.08-.33.83.83,0,0,0-.2-.22,1.12,1.12,0,0,0-.28-.16l-.29-.1-.69-.2a1.86,1.86,0,0,1-.41-.17,1.35,1.35,0,0,1-.32-.26,1.31,1.31,0,0,1-.21-.36,1.73,1.73,0,0,1-.07-.48,1.26,1.26,0,0,1,.11-.51,1.15,1.15,0,0,1,.31-.42,1.56,1.56,0,0,1,.51-.28,2.09,2.09,0,0,1,.69-.1,1.78,1.78,0,0,1,.47.06,1.68,1.68,0,0,1,.39.16,1.94,1.94,0,0,1,.31.26,1.79,1.79,0,0,1,.22.34h.24v.54H46.4A.75.75,0,0,0,46.3,84.7Z"/><path class="cls-5" d="M3.56,59.55a8,8,0,0,0-.12-1,5.33,5.33,0,0,0-.23-.84,2.37,2.37,0,0,0-.33-.6.67.67,0,0,0-.37-.28.4.4,0,0,0-.32,0,.72.72,0,0,0-.26.32,2.53,2.53,0,0,0-.17.64,5.24,5.24,0,0,0-.07,1,5.83,5.83,0,0,0,.09,1.14,3.32,3.32,0,0,0,.22.71,2,2,0,0,0,.31.45c.11.11.22.24.33.37.5.6.76.9,1.29,1.46a4,4,0,0,1,.52.82A7.34,7.34,0,0,1,4.87,65a12.84,12.84,0,0,1,.29,1.64c.06.62.1,1.31.1,2.08a20.12,20.12,0,0,1-.2,2.9A13.91,13.91,0,0,1,4.5,74a7.15,7.15,0,0,1-.84,1.73,2.34,2.34,0,0,1-1.06.89.89.89,0,0,1-.75,0,1.63,1.63,0,0,1-.62-.67,5,5,0,0,1-.48-1.26,12.26,12.26,0,0,1-.32-1.8L0,72.94v-5l1.55-.17v1c0,.48,0,.91.06,1.31a5.75,5.75,0,0,0,.19,1,1.5,1.5,0,0,0,.33.61.49.49,0,0,0,.47.14c.28-.06.49-.32.64-.76a6,6,0,0,0,.22-1.77,4.84,4.84,0,0,0-.08-.94,2.75,2.75,0,0,0-.2-.63,1.69,1.69,0,0,0-.27-.42c-.1-.12-.2-.22-.29-.31-.42-.43-.63-.64-1-1.09A3.1,3.1,0,0,1,1,65a7,7,0,0,1-.46-1.46,16.44,16.44,0,0,1-.31-2.09c-.08-.8-.12-1.72-.12-2.75a25.87,25.87,0,0,1,.17-3.13A10.16,10.16,0,0,1,.79,53.4a2.35,2.35,0,0,1,.75-1.14,1,1,0,0,1,1-.12,2,2,0,0,1,.8.6A5.28,5.28,0,0,1,4,53.81a8.24,8.24,0,0,1,.52,1.35,10.4,10.4,0,0,1,.32,1.47l.5.1V61l-1.76-.17Z"/><path class="cls-5" d="M5.78,53.83c1.23.33,1.88.49,3.2.78v3.58l-.75-.11v8.33a14.84,14.84,0,0,0,.1,1.92,5.07,5.07,0,0,0,.3,1.26,1.56,1.56,0,0,0,.45.67.77.77,0,0,0,.58.15,1.17,1.17,0,0,0,.6-.27,1.67,1.67,0,0,0,.46-.7A5.23,5.23,0,0,0,11,68.2a14.47,14.47,0,0,0,.11-1.91V58.47l-.91-.12V54.87c1.36.28,2.07.4,3.51.63v3.26L13,58.68v7.07a20.67,20.67,0,0,1-.27,3.43A12.47,12.47,0,0,1,12,71.82a6.13,6.13,0,0,1-1.08,1.8,2.57,2.57,0,0,1-1.3.84,1.45,1.45,0,0,1-1.26-.3,3.66,3.66,0,0,1-1-1.51A12.43,12.43,0,0,1,6.72,70a26.07,26.07,0,0,1-.24-3.75v-8.4l-.7-.12Z"/><path class="cls-5" d="M14.83,70.08l.85-.08V58.94l-.85-.08V55.67c1.5.22,2.28.32,3.86.49.91,4,1.88,7.92,2.88,11.86,1.09-4.68,1.64-6.94,2.75-11.41,1.7.1,2.57.13,4.32.16v2.79l-1,0v9.84l1,0v2.78c-1.57,0-2.35.06-3.88.14V69.45l.71,0v-9c-1.23,4.61-1.84,6.94-3,11.76-.74.06-1.11.08-1.84.15Q19,66.46,17.64,60.49v9.35l.71-.06v3c-1.44.16-2.15.25-3.52.46Z"/><path class="cls-5" d="M30.21,69.35h1V59.57h-1V56.79c1.75,0,2.6,0,4.28-.06,1.21,4.42,1.8,6.64,3,11.21,1.1-4.51,1.64-6.79,2.71-11.52,1.63-.13,2.43-.21,4-.4v3.06l-.88.07V69.79l.86.06V72.9c-1.39-.17-2.11-.24-3.56-.37V69.62l.66,0V60.3c-.93,4-1.91,7.93-2.93,11.87l-1.85-.1c-1.23-4.58-1.85-6.8-3.11-11.25v8.55h.76v2.79c-1.54,0-2.31-.06-3.91,0Z"/><path class="cls-5" d="M45.55,55.84c2.91-.39,4.31-.63,6.91-1.2v6.71l-1.79.11V58.78L48.46,59v3.57l1.72-.06v3.58l-1.72,0v4.19l2.21.26V67.16l1.79.1v7c-2.6-.58-4-.83-6.91-1.23V70l1,.08V59.2l-1,.08Z"/><path class="cls-5" d="M53.39,54.43c1.7-.39,2.51-.6,4-1.07a.92.92,0,0,1,1,.23,2.83,2.83,0,0,1,.71,1.21,10.2,10.2,0,0,1,.43,2,19.72,19.72,0,0,1,.15,2.49c0,.81,0,1.52-.07,2.12A15.38,15.38,0,0,1,59.41,63a7.77,7.77,0,0,1-.35,1.24,5.62,5.62,0,0,1-.48,1A4.14,4.14,0,0,1,59,66.45a15.38,15.38,0,0,1,.27,2.15c.09,1.23.13,1.85.22,3.1l.55.12c0,1.87,0,2.8,0,4.67-.76-.28-1.16-.42-2-.68-.12-2.19-.17-3.27-.28-5.42,0-.64-.08-1.19-.13-1.66a6.23,6.23,0,0,0-.24-1.14,1.68,1.68,0,0,0-.36-.66.72.72,0,0,0-.51-.24l-.64,0V71.3l.69.13v3.93c-1.23-.36-1.87-.53-3.2-.84V70.89l.82.13V58l-.82.13Zm2.51,3.25v5.17l1,0a.86.86,0,0,0,.49-.18,1.26,1.26,0,0,0,.37-.5,3.89,3.89,0,0,0,.24-.86,8.49,8.49,0,0,0,.08-1.22,5.13,5.13,0,0,0-.3-2c-.2-.45-.49-.63-.88-.56Z"/><polygon class="cls-5" points="9.14 82.98 9.84 84.4 11.4 84.63 10.27 85.73 10.54 87.29 9.14 86.55 7.74 87.29 8 85.73 6.87 84.63 8.44 84.4 9.14 82.98"/><polygon class="cls-5" points="50.91 82.98 51.6 84.4 53.17 84.63 52.04 85.73 52.31 87.29 50.91 86.55 49.5 87.29 49.77 85.73 48.64 84.63 50.2 84.4 50.91 82.98"/></g></g></svg>