<svg xmlns="http://www.w3.org/2000/svg" viewBox="0 0 60.04 60.77"><defs><style>.cls-1{fill:#ff7c96;}.cls-2{fill:#324b58;}.cls-3{fill:#fff;}</style></defs><title>Saisons-0ยง</title><g id="Calque_2" data-name="Calque 2"><g id="Planche_Vacance_-_24" data-name="Planche Vacance - 24"><path class="cls-1" d="M9.09,28c1.61.37,2.44.54,4.17.84v3.44l-.9-.1q-1.2,8.11-2.25,16.26c-1.09.23-1.62.36-2.65.63q-.7-6.75-1.34-13.49c-.47,4.74-.9,9.49-1.33,14.24-1,.29-1.41.44-2.29.76C1.85,43.75,1.27,36.92.72,30.09L0,29.89v-4.8a34.3,34.3,0,0,0,3.24,1.25v4.34l-.83-.18Q3,37,3.59,43.55,4.28,35.26,5.06,27c.83.25,1.26.37,2.15.6Q8,35.24,8.8,42.91c.55-4.55.83-6.75,1.39-11l-1.1-.15Z"/><path class="cls-1" d="M14.15,29c1.76.29,2.66.41,4.52.62v3.16l-1.14-.09V44l1.14-.09V47c-1.86.21-2.76.34-4.52.62V44.29l1.07-.11V32.46l-1.07-.1Z"/><path class="cls-1" d="M27,30.21c1.78.06,2.72.07,4.51.06v2.92h-1V46.37c-1.05,0-1.57,0-2.61,0-2-4.13-2.93-6.19-4.82-10.52v7.74l.95,0v3c-1.73.11-2.59.17-4.26.34v-3.1l.92-.06V32.9l-.9,0V29.73c1.33.14,2,.19,3.38.29,1.88,4.48,2.84,6.59,4.79,10.81V33.17l-1,0Z"/><path class="cls-1" d="M34.79,43.51l1.19,0V33l-1.4,0v2.09l-2.5,0v-4.9a90.53,90.53,0,0,0,10.27-.6v5.26L40,35V32.84l-1.54.08V43.63l1.18,0v3c-1.9-.15-2.87-.21-4.84-.28Z"/><path class="cls-1" d="M43.36,29.55a70.9,70.9,0,0,0,8-1.31v6.88l-2.07.13V32.51l-2.56.26v3.64l2-.07V40l-2-.06v4.27c1,.11,1.56.16,2.56.28V41.06l2.07.12V48.4a73.23,73.23,0,0,0-8-1.31V43.92l1.11.09V33l-1.11.09Z"/><path class="cls-1" d="M52.44,28c2-.45,2.89-.7,4.63-1.25a1.15,1.15,0,0,1,1.12.19,2.93,2.93,0,0,1,.8,1.24,9.81,9.81,0,0,1,.49,2.08,19.51,19.51,0,0,1,.17,2.61c0,.84,0,1.59-.09,2.22a12.19,12.19,0,0,1-.24,1.7,6.47,6.47,0,0,1-.39,1.3,5.78,5.78,0,0,1-.54,1,4.45,4.45,0,0,1,.46,1.29,16.23,16.23,0,0,1,.3,2.26c.11,1.29.16,1.94.26,3.24L60,46v4.9c-.86-.33-1.31-.49-2.25-.8-.13-2.28-.19-3.41-.32-5.66,0-.66-.08-1.24-.15-1.72a5.14,5.14,0,0,0-.27-1.19,1.73,1.73,0,0,0-.41-.69.85.85,0,0,0-.58-.25l-.73,0v4.81l.78.14V49.6c-1.4-.41-2.14-.6-3.67-1V44.91l1,.15V31.6l-1,.15Zm2.89,3.28v5.35l1.12-.05a1,1,0,0,0,.56-.19,1.37,1.37,0,0,0,.42-.53A3.12,3.12,0,0,0,57.7,35a7.8,7.8,0,0,0,.09-1.27,4.85,4.85,0,0,0-.34-2.07.86.86,0,0,0-1-.56Z"/><path class="cls-2" d="M58.83,21.93A43.87,43.87,0,0,1,53.56,24c-1.27.4-2.6.77-4,1.11l-1.27.29a81.17,81.17,0,0,1-17.24,1.78q-3.45,0-6.74-.26l-.54,0c-2.51-.21-4.92-.53-7.22-.94l-1-.19A58.68,58.68,0,0,1,9.29,24.2c-.35-.11-.7-.21-1-.33-.82-.27-1.62-.55-2.38-.85-.93-.36-1.81-.73-2.64-1.13.12-.36.24-.74.43-1.19.67-1.63.86-2.93,2.39-4.41a51.92,51.92,0,0,0,5.21-5.52,59,59,0,0,1,4-5.31c1.27,1.52,2.8,3.7,4.06,5A20.6,20.6,0,0,0,23,13.88c1.29.79,2,1,3.16,1.66a15.81,15.81,0,0,0,2.8-5.94,4.41,4.41,0,0,1,1.79-3.53c1.06-.69,1.37-.57,2.08-1.34a14.88,14.88,0,0,0,1.85-2.64A10.91,10.91,0,0,0,35.44,0c.76.77,1.61,1.53,2.38,2.27a15.61,15.61,0,0,1,2,2.15A11.42,11.42,0,0,1,41.5,6.84a6.6,6.6,0,0,0,2.79,3.48,42.24,42.24,0,0,1,5.63,2.93c1.37,1,1.63,1.65,3,2.61a21.74,21.74,0,0,1,4,3.86Z"/><path class="cls-3" d="M58.83,21.93A43.87,43.87,0,0,1,53.56,24c-.1-.16-.19-.32-.28-.48a47.47,47.47,0,0,0-2.85-4.71,35.75,35.75,0,0,0-3-3c-.82-.89-1.08-1.44-1.93-1.91s-1.5-.54-2.31-.93a9.47,9.47,0,0,0,1.68,3c.79.78,1.25,1.32,2.09,2.05s1.87,1.64,2.65,2.48a19.62,19.62,0,0,0-2.5-1.32c-.62-.21-1.21-.59-1.58-.2s.35.74.62,1.26a12.87,12.87,0,0,0,1.4,1.94,24.18,24.18,0,0,1,1.85,2.54c.08.13.15.25.21.37l-1.27.29-.54-.65c-.71-.9-1.37-1.21-2.12-2.27s-1.88-2.85-2.68-4-1.34-2.09-2.16-3.17-2-2.67-2.85-3.57a18.92,18.92,0,0,1-1.69-2.13,19.26,19.26,0,0,1-2.62,2.86c-.88.86-1.14,2.62-1.46,3.49s-.27.42-.68,1a3.62,3.62,0,0,1,.09-1.3,16.86,16.86,0,0,0,.66-2.18,7,7,0,0,1,.59-1.83,5.5,5.5,0,0,0,.67-1.86c0-.61-.11-1-.12-1.56-.8.5-1.46.65-1.9,1.61a17.64,17.64,0,0,0-1.26,3.06,17.74,17.74,0,0,1-.94,3.73,8.55,8.55,0,0,0-1,3.26,17.51,17.51,0,0,1-.34,3,5.43,5.43,0,0,1-1.51,2.48c-.64.6-1.57,1.06-2.09,1.57l-.54,0a10.3,10.3,0,0,1,.9-1.48c.51-.67.84-1,1.31-1.57a4.47,4.47,0,0,0,1.16-1.77,15.71,15.71,0,0,0,.16-1.9,18.89,18.89,0,0,1-1.84,1.92,1.27,1.27,0,0,1-1,.46,24.24,24.24,0,0,0,1.4-2.25,7.5,7.5,0,0,0,.62-1.88,13.43,13.43,0,0,1,.26-1.32,6.36,6.36,0,0,0-1.86,1.57c-.51.75-.87,1.79-1.34,2.6a6.3,6.3,0,0,1-1.78,2,9.32,9.32,0,0,1-2.44,1.37,10.42,10.42,0,0,0-2.54,1.18l-.23.17-1-.19A13.08,13.08,0,0,0,17,24.83c.91-.67,1.14-1.12,2-1.48a3.94,3.94,0,0,0,2-1.2,9.12,9.12,0,0,0,1.39-2.91c.19-.78.22-1.28.4-1.79s.3-.41.48-.82a4.09,4.09,0,0,1-2-.68c-.62-.43-1-1.16-1.78-1.38s-1-.75-1.93-.44a5.94,5.94,0,0,0-2.72,2.13c-.72,1-1.72,2.91-2.44,3.81s-1.29,1.42-1.89,2.07a7.49,7.49,0,0,0-1,1.81c0,.08-.1.17-.16.25-.35-.11-.7-.21-1-.33a16,16,0,0,1,1.18-1.63,8.69,8.69,0,0,0,1.73-2.71c.24-.93.29-1.73.56-2.47s.63-1.6.85-2.14.27-.47.43-.88a15.4,15.4,0,0,0-3.72,2.83,15.41,15.41,0,0,1-2,2.39c-.76.63-.61,1-.84,1.81A8.88,8.88,0,0,1,5.87,23c-.93-.36-1.81-.73-2.64-1.13.12-.36.24-.74.43-1.19.67-1.63.86-2.93,2.39-4.41a51.92,51.92,0,0,0,5.21-5.52,59,59,0,0,1,4-5.31c1.27,1.52,2.8,3.7,4.06,5A20.6,20.6,0,0,0,23,13.88c1.29.79,2,1,3.16,1.66a15.81,15.81,0,0,0,2.8-5.94,4.41,4.41,0,0,1,1.79-3.53c1.06-.69,1.37-.57,2.08-1.34a14.88,14.88,0,0,0,1.85-2.64A10.91,10.91,0,0,0,35.44,0c.76.77,1.61,1.53,2.38,2.27a15.61,15.61,0,0,1,2,2.15A11.42,11.42,0,0,1,41.5,6.84a6.6,6.6,0,0,0,2.79,3.48,42.24,42.24,0,0,1,5.63,2.93c1.37,1,1.63,1.65,3,2.61a21.74,21.74,0,0,1,4,3.86Z"/><polygon class="cls-1" points="17.97 56.21 18.68 57.63 20.24 57.86 19.11 58.96 19.38 60.52 17.97 59.78 16.57 60.52 16.84 58.96 15.71 57.86 17.27 57.63 17.97 56.21"/><polygon class="cls-1" points="42.73 56.21 43.44 57.63 45 57.86 43.87 58.96 44.13 60.52 42.73 59.78 41.33 60.52 41.6 58.96 40.47 57.86 42.03 57.63 42.73 56.21"/><path class="cls-3" d="M22.87,60.23h.43V56.52H22.21v.74h-.64V56h4.25v1.26h-.64v-.74H23.92v3.71h.49v.54H22.87Z"/><path class="cls-3" d="M26.4,56h1.52v.55h-.45v3.68h.45v.54H26.4v-.54h.45V56.55H26.4Z"/><path class="cls-3" d="M28.82,60.23h.45V56.6h-.45V56h1.51l1.51,4.12L33.38,56h1.43v.6h-.45v3.63h.45v.54H33.26v-.54h.51V56.57l-1.67,4.2h-.53l-1.69-4.21v3.67h.49v.54H28.82Z"/><path class="cls-3" d="M35.71,56h3.41v1.35h-.64v-.8h-1.7v1.52h1.43v.54H36.78v1.62h1.7v-.8h.64v1.34H35.71v-.54h.45V56.55h-.45Z"/></g></g></svg>