<svg xmlns="http://www.w3.org/2000/svg" viewBox="0 0 70.98 85.81"><defs><style>.cls-1{fill:#324b58;}.cls-2{fill:#ff7c96;}.cls-3{fill:#fff;}.cls-4{fill:#b6dffc;}</style></defs><title>Saisons-08</title><g id="Calque_2" data-name="Calque 2"><g id="Planche_Vacance_-_26" data-name="Planche Vacance - 26"><path class="cls-1" d="M8.83,40.39c-.46.07-.92-.4-1-1a1.05,1.05,0,0,1,.67-1.29c.46-.07.92.4,1,1S9.3,40.32,8.83,40.39Z"/><path class="cls-1" d="M10.79,44a1,1,0,0,1-.38,1.4c-.44.17-1-.19-1.21-.8s-.07-1.24.37-1.4S10.56,43.39,10.79,44Z"/><path class="cls-1" d="M13.39,48a1.4,1.4,0,0,1,.06.49c-.56-.12-1.22-.28-1.89-.45a1,1,0,0,1,.59-1C12.64,46.86,13.19,47.3,13.39,48Z"/><path class="cls-1" d="M7.51,19.64l-.08,0,0,0,0,0s0,0,0,0S7.49,19.62,7.51,19.64Z"/><path class="cls-2" d="M13.18,53.12c1.6.37,2.44.54,4.17.84V57.4l-.91-.1q-1.2,8.12-2.24,16.26c-1.09.23-1.63.36-2.65.63-.48-4.5-.92-9-1.35-13.49q-.69,7.11-1.32,14.24c-1,.29-1.41.44-2.3.76q-1-10.23-1.77-20.48L4.08,55v-4.8C5.3,50.75,6,51,7.32,51.47v4.34l-.82-.18q.55,6.52,1.17,13.05.69-8.3,1.48-16.59c.83.25,1.26.38,2.14.61Q12,60.37,12.88,68c.55-4.55.83-6.74,1.4-11l-1.1-.15Z"/><path class="cls-2" d="M18.24,54.11c1.75.29,2.66.41,4.52.63v3.15l-1.14-.09V69.11L22.76,69v3.15c-1.86.21-2.77.34-4.52.62V69.42l1.07-.11V57.59l-1.07-.1Z"/><path class="cls-2" d="M31.11,55.34c1.78.06,2.71.07,4.5.06v2.92h-1V71.5c-1,0-1.57,0-2.6,0-2-4.13-2.93-6.19-4.83-10.52v7.74l1,0v3c-1.74.11-2.59.17-4.26.34v-3.1l.91-.06V58l-.9-.05V54.86c1.33.14,2,.19,3.38.29,1.88,4.48,2.85,6.59,4.8,10.81V58.3l-1,0Z"/><path class="cls-2" d="M38.87,68.64l1.19,0V58.14l-1.39,0v2.09l-2.51,0V55.4a90.39,90.39,0,0,0,10.27-.6v5.26l-2.36.09V58l-1.53.08V68.76l1.17,0v3c-1.89-.15-2.86-.21-4.84-.28Z"/><path class="cls-2" d="M47.45,54.68a71.08,71.08,0,0,0,8-1.31v6.88l-2.06.13V57.64l-2.57.26v3.64l2-.07v3.66l-2-.06v4.28c1,.1,1.56.15,2.57.27V66.19l2.06.12v7.22a73.43,73.43,0,0,0-8-1.31V69.05l1.11.09v-11l-1.11.09Z"/><path class="cls-2" d="M56.53,53.13c1.95-.45,2.88-.7,4.62-1.25a1.14,1.14,0,0,1,1.12.19,2.93,2.93,0,0,1,.8,1.24,9.24,9.24,0,0,1,.49,2.08A19.51,19.51,0,0,1,63.73,58c0,.84,0,1.59-.08,2.22a16.17,16.17,0,0,1-.24,1.7,7.16,7.16,0,0,1-.4,1.3,4.67,4.67,0,0,1-.54,1,4.41,4.41,0,0,1,.47,1.29,16.23,16.23,0,0,1,.3,2.26L63.49,71l.63.15v4.9c-.87-.33-1.32-.49-2.25-.8-.13-2.28-.2-3.41-.33-5.66,0-.66-.08-1.24-.14-1.72a6.43,6.43,0,0,0-.27-1.19,1.73,1.73,0,0,0-.41-.69.88.88,0,0,0-.59-.25l-.73,0v4.81l.79.14v4.08c-1.41-.41-2.14-.6-3.67-1V70l.94.15V56.73l-.94.15Zm2.88,3.28v5.35l1.12,0a1,1,0,0,0,.56-.19,1.21,1.21,0,0,0,.42-.53,3,3,0,0,0,.27-.89,7.7,7.7,0,0,0,.1-1.27,5,5,0,0,0-.34-2.07.88.88,0,0,0-1-.56Z"/><path class="cls-3" d="M27,29.28c-.65-.93-2.57-.52-3.39.15,2.78,2.55,3.52,3.36,3.79,5.77.32,2.9,1.07,5-2.45,4.47a2.87,2.87,0,0,0-1.82.31c-1.34.75-1.39-1.48-1.38-2.57a14.58,14.58,0,0,0-1.25-6.3A1.58,1.58,0,0,0,18.67,30,29.29,29.29,0,0,1,5.9,28.6a1,1,0,0,0-1.39.5,14,14,0,0,0-2.62,7.14,13.83,13.83,0,0,0,3.26,10c2.06.65,4.19,1.24,6.41,1.77v0a1,1,0,0,1,.59-1c.49-.14,1,.3,1.24,1a1.4,1.4,0,0,1,.06.49h0l.37.08.36.07a1.91,1.91,0,0,0,.33.06c2.27.48,4.61.88,7,1.22A13.89,13.89,0,0,0,27,29.28ZM9.09,33.78c.25-.61.8-1,1.24-.77a1.07,1.07,0,0,1,.33,1.42,1.35,1.35,0,0,1-.19.33l-.12.14a.87.87,0,0,1-.93.29A1,1,0,0,1,9.09,33.78ZM7.82,39.35a1.05,1.05,0,0,1,.67-1.29c.46-.07.92.4,1,1s-.2,1.22-.67,1.29S7.91,40,7.82,39.35Zm2.59,6c-.44.17-1-.19-1.21-.8s-.07-1.24.37-1.4,1,.19,1.22.8A1,1,0,0,1,10.41,45.4Z"/><path class="cls-3" d="M22.81,15.55a20.28,20.28,0,0,0-11.72-3.68,1.92,1.92,0,0,0-1.59.73,8.06,8.06,0,0,0-1.32,1.93,8.6,8.6,0,0,0-.72,2.2,8.82,8.82,0,0,0-.14,1.54c0,.17,0,.33,0,.5l0,.3a4.78,4.78,0,0,0,.06.53s0,0,0,.08a8.68,8.68,0,0,0,.23,1c0,.15.09.29.14.43a5,5,0,0,0,.21.54,3.22,3.22,0,0,0,2.83,2.2c1.59.19,3.17.32,5.16.44,1-.09,2.48-.15,3.9-.38,2.74-.42,3.52-1.23,4-4a13.41,13.41,0,0,0,.19-2A2.71,2.71,0,0,0,22.81,15.55ZM17,13.89l.24,0a1,1,0,0,1,.54.27,1.27,1.27,0,0,1,.32.76,2,2,0,0,1,0,.24,1.36,1.36,0,0,1-.29.56.79.79,0,0,1-.15.12A1,1,0,0,1,17,16l-.25,0A1,1,0,0,1,15.91,15,1,1,0,0,1,17,13.89ZM11.42,14a.87.87,0,0,1,.22-.32.44.44,0,0,1,.15-.12A.51.51,0,0,1,12,13.5a.94.94,0,0,1,.48-.09,1.12,1.12,0,0,1,.6.19,1,1,0,0,1,.41.65,1.5,1.5,0,0,1,0,.22,1.63,1.63,0,0,1-.1.47.94.94,0,0,1-1,.62,1,1,0,0,1-1.05-1.1A1.43,1.43,0,0,1,11.42,14Zm-2.6,3.73-.22-.05c-.23-.05-.45-.14-.43-.46a.44.44,0,0,1,.14-.32,1,1,0,0,1,.52-.18c1.68-.21,3.35-.43,5-.63a1.4,1.4,0,0,1,.59,0,.76.76,0,0,1,.37.18,1.55,1.55,0,0,1,.46,1c0,1.23-.64,1.83-1.71,1.58C12,18.58,10.4,18.17,8.82,17.76Zm11.52,1.86a2.61,2.61,0,0,1-.19.37,5.65,5.65,0,0,1-2.26,2.13,7.42,7.42,0,0,1-1,.44,8.71,8.71,0,0,1-.85.2,5.64,5.64,0,0,1-2.63-.21,5.5,5.5,0,0,1-.59-.23c-.46-.2-.83-.49-.62-1.05a.67.67,0,0,1,.67-.5,1.44,1.44,0,0,1,.47.09,4.81,4.81,0,0,0,3,.25,3.36,3.36,0,0,0,.79-.32,4.28,4.28,0,0,0,1-.77,5.88,5.88,0,0,0,.77-1c.29-.44.65-.7,1.14-.4A.69.69,0,0,1,20.34,19.62Z"/><path class="cls-1" d="M15.26,0c-.83,0-1.14.5-1.33,1.21-.51,1.83-1.06,3.65-1.6,5.47-.09.4-.24.83.51,1a48.75,48.75,0,0,1,11.35,4.1c.79.41.93-.1,1.13-.53.68-1.65,1.27-3.35,2.06-5a1.79,1.79,0,0,0-.5-2.4C23.64.69,19.63-.15,15.26,0Z"/><path class="cls-1" d="M7.39,19.64l0,0s0-.05,0-.08Z"/><path class="cls-1" d="M71,38.3c-6.72.81-10.07-6.64-10.07-6.64a6.25,6.25,0,0,0,6.71,0,8.53,8.53,0,0,1-7.86-6.19,10,10,0,0,0,6.07,2.71c-5.42-4.82-9.35-15.95-10.06-20.26-.72,4.31-4.65,15.44-10.07,20.26a10,10,0,0,0,6.07-2.71,8.44,8.44,0,0,1-6,5.86A33.36,33.36,0,0,1,41.1,20c-.49,2.95-3.18,10.56-6.89,13.86A6.75,6.75,0,0,0,38.36,32,5.84,5.84,0,0,1,33,36.26a4.25,4.25,0,0,0,4.58,0c-.13.28-2.33,4.82-6.57,4.55a17,17,0,0,0,.24-5.88,17.86,17.86,0,0,0-4.55-9.38c-1.4-1.63-2.2-2.62-1.21-4.72.49-1,.72-1.65,2-1.66s2-.12,2.17-1.06-.47-1.55-1-2.15a15,15,0,0,0-4.09-3A44.88,44.88,0,0,0,9.31,8.17,9.48,9.48,0,0,0,5,8.32c-1.31.44-1.56,1.2-.8,2.35a6.62,6.62,0,0,0,1.88,1.81c.53.35.76.64.42,1.34a9.73,9.73,0,0,0,.07,9c.22.45.4.8-.19,1.12C4,25.32,3.25,27.46,2,29.65A15.41,15.41,0,0,0,.27,40.13a15.68,15.68,0,0,0,2,5.18c.57.21,1.15.4,1.73.6l1.18.37a13.83,13.83,0,0,1-3.26-10A14,14,0,0,1,4.51,29.1a1,1,0,0,1,1.39-.5A29.29,29.29,0,0,0,18.67,30a1.58,1.58,0,0,1,1.87,1.1,14.58,14.58,0,0,1,1.25,6.3c0,1.09,0,3.32,1.38,2.57A2.87,2.87,0,0,1,25,39.67c3.52.55,2.77-1.57,2.45-4.47-.27-2.41-1-3.22-3.79-5.77.82-.67,2.74-1.08,3.39-.15A13.89,13.89,0,0,1,21.52,49.9l1.17.16,1.84.21a15.61,15.61,0,0,0,5.31-6.17A15.34,15.34,0,0,0,31,41a7.17,7.17,0,0,0,7,.51,7.6,7.6,0,0,1-4.88,2.06,61.13,61.13,0,0,0,7.44.81v2.49H42.3V44.34a64.22,64.22,0,0,0,6.8-.79,6.56,6.56,0,0,1-3.41-1,79.53,79.53,0,0,0,9.25.94v3.63h2.59V43.47a94,94,0,0,0,10-1.16c-4,.1-7.14-3-7.14-3C66,42.11,71,38.3,71,38.3ZM23.92,20c-.5,2.73-1.28,3.54-4,4-1.42.23-2.86.29-3.9.38-2-.12-3.57-.25-5.16-.44A3.22,3.22,0,0,1,8,21.66a5,5,0,0,1-.21-.54c0-.14-.1-.28-.14-.43a8.68,8.68,0,0,1-.23-1l0,0,0,0a4.78,4.78,0,0,1-.06-.53l0-.3c0-.17,0-.33,0-.5a8.82,8.82,0,0,1,.14-1.54,8.6,8.6,0,0,1,.72-2.2A8.06,8.06,0,0,1,9.5,12.6a1.92,1.92,0,0,1,1.59-.73,20.28,20.28,0,0,1,11.72,3.68A2.71,2.71,0,0,1,24.11,18,13.41,13.41,0,0,1,23.92,20ZM45.18,42.25a7,7,0,0,1-1-.76A6.61,6.61,0,0,0,46,42.1,5.94,5.94,0,0,1,45.18,42.25Zm.11-4.81a8.48,8.48,0,0,1-.67-1.17,4.85,4.85,0,0,0,1.65.59A8.71,8.71,0,0,1,45.29,37.44Zm2.18-1.54A5.78,5.78,0,0,1,43.83,32,6.75,6.75,0,0,0,48,33.88a12.45,12.45,0,0,1-1.22-1.28,6.6,6.6,0,0,0,3.86-.94A14.49,14.49,0,0,1,47.47,35.9Zm2,4.76a5.28,5.28,0,0,1-1.13-.43,9.92,9.92,0,0,0,2.9-.92A11.45,11.45,0,0,1,49.43,40.66Z"/><path class="cls-1" d="M20,18.66c-.5-.3-.86,0-1.15.41a4.27,4.27,0,0,1-5.58,1.8c-.5-.19-.93-.14-1.14.4s.16.85.62,1.06a5.76,5.76,0,0,0,4.07.24A5.87,5.87,0,0,0,20.15,20C20.43,19.53,20.63,19,20,18.66Z"/><path class="cls-1" d="M15.29,17.38c-.1-.73-.4-1.38-1.43-1.26l-5,.64c-.3,0-.64.1-.66.49s.36.44.64.51c1.58.41,3.16.83,4.75,1.2C14.64,19.21,15.32,18.61,15.29,17.38Z"/><path class="cls-1" d="M17,16a1.06,1.06,0,0,0,1.08-1.1,1,1,0,0,0-1.09-1A1,1,0,0,0,15.91,15,1,1,0,0,0,17,16Z"/><path class="cls-1" d="M12.38,15.56c.66,0,1-.35,1.11-1.08a1,1,0,0,0-1-1.06,1,1,0,0,0-1.11,1A1,1,0,0,0,12.38,15.56Z"/><path class="cls-1" d="M10.66,34.43a1.35,1.35,0,0,1-.19.33l-.12.14a.87.87,0,0,1-.93.29,1,1,0,0,1-.33-1.41c.25-.61.8-1,1.24-.77A1.07,1.07,0,0,1,10.66,34.43Z"/><path class="cls-4" d="M43.6,3.72a6.69,6.69,0,1,0,6.69,6.69A6.69,6.69,0,0,0,43.6,3.72Z"/><polygon class="cls-2" points="23.45 81.25 24.15 82.67 25.71 82.89 24.58 84 24.85 85.56 23.45 84.82 22.05 85.56 22.31 84 21.18 82.89 22.75 82.67 23.45 81.25"/><polygon class="cls-2" points="48.21 81.25 48.91 82.67 50.47 82.89 49.34 84 49.61 85.56 48.21 84.82 46.8 85.56 47.07 84 45.94 82.89 47.51 82.67 48.21 81.25"/><path class="cls-3" d="M28.34,85.27h.43V81.56H27.69v.74H27V81h4.25V82.3h-.64v-.74H29.39v3.71h.49v.54H28.34Z"/><path class="cls-3" d="M31.87,81h1.52v.54h-.45v3.69h.45v.54H31.87v-.54h.45V81.58h-.45Z"/><path class="cls-3" d="M34.29,85.27h.46V81.64h-.46V81H35.8l1.52,4.12L38.85,81h1.43v.6h-.45v3.63h.45v.54H38.73v-.54h.51V81.61l-1.67,4.2H37L35.35,81.6v3.67h.49v.54H34.29Z"/><path class="cls-3" d="M41.18,81h3.41v1.35H44v-.81h-1.7v1.53h1.43v.54H42.25v1.62H44v-.81h.64v1.35H41.18v-.54h.45V81.58h-.45Z"/></g></g></svg>