<svg xmlns="http://www.w3.org/2000/svg" viewBox="0 0 65.26 65.26"><defs><style>.cls-1{fill:#ff7c96;}.cls-5{fill:#000000;}.cls-2{fill:#fff;}.cls-3{fill:none;}.cls-4{fill:#324b58;}.cls-5{stroke:#ff7d97;stroke-miterlimit:10;}.cls-6{fill:#b6dffc;}</style></defs><title>Saisons-10</title><g id="Calque_2" data-name="Calque 2"><g id="Planche_Vacance_-_29" data-name="Planche Vacance - 29"><path class="cls-1" d="M63.57,33.65a4,4,0,0,1,.88-1.52,3.4,3.4,0,0,0,.81-1.61,3.44,3.44,0,0,0-1-1.51c-.5-.53-1-1-1.07-1.4a4,4,0,0,1,.57-1.68,3.37,3.37,0,0,0,.47-1.75c-.1-.39-.69-.85-1.28-1.28s-1.2-.81-1.33-1.17A4.08,4.08,0,0,1,61.84,20,3.45,3.45,0,0,0,62,18.17a3.39,3.39,0,0,0-1.51-1,4.14,4.14,0,0,1-1.53-.88,4.17,4.17,0,0,1-.12-1.77,3.28,3.28,0,0,0-.23-1.79,3.31,3.31,0,0,0-1.67-.68,4.1,4.1,0,0,1-1.67-.57,4.13,4.13,0,0,1-.46-1.71,3.34,3.34,0,0,0-.57-1.71,3.29,3.29,0,0,0-1.77-.35,4,4,0,0,1-1.75-.23,4.07,4.07,0,0,1-.79-1.59A3.34,3.34,0,0,0,49,4.32a3.32,3.32,0,0,0-1.81,0,4.37,4.37,0,0,1-1.77.11c-.34-.16-.69-.79-1.08-1.41s-.81-1.23-1.19-1.36A3.36,3.36,0,0,0,41.38,2a4.18,4.18,0,0,1-1.72.45c-.37-.08-.83-.63-1.33-1.16A3.5,3.5,0,0,0,36.9.21a3.33,3.33,0,0,0-1.66.7,3.92,3.92,0,0,1-1.59.78A4,4,0,0,1,32.13.81,3.4,3.4,0,0,0,30.52,0,3.36,3.36,0,0,0,29,1c-.54.5-1,1-1.41,1.07a4.28,4.28,0,0,1-1.68-.56A3.3,3.3,0,0,0,24.18,1c-.39.1-.85.69-1.28,1.28s-.81,1.2-1.17,1.33A3.93,3.93,0,0,1,20,3.42a3.45,3.45,0,0,0-1.81-.12,3.31,3.31,0,0,0-1,1.51,4.28,4.28,0,0,1-.89,1.53,4.17,4.17,0,0,1-1.77.12,3.28,3.28,0,0,0-1.79.23,3.31,3.31,0,0,0-.68,1.67A4.25,4.25,0,0,1,11.48,10a4.13,4.13,0,0,1-1.71.46,3.31,3.31,0,0,0-1.71.57,3.29,3.29,0,0,0-.35,1.77,4,4,0,0,1-.23,1.75,4.07,4.07,0,0,1-1.59.79,3.34,3.34,0,0,0-1.57.89,3.4,3.4,0,0,0,0,1.81,4.23,4.23,0,0,1,.12,1.77c-.16.35-.79.69-1.41,1.08s-1.23.81-1.36,1.19A3.36,3.36,0,0,0,2,23.88a4.18,4.18,0,0,1,.45,1.72c-.08.37-.63.83-1.16,1.33A3.42,3.42,0,0,0,.21,28.36,3.42,3.42,0,0,0,.91,30a3.92,3.92,0,0,1,.78,1.59,4,4,0,0,1-.88,1.52A3.4,3.4,0,0,0,0,34.74a3.44,3.44,0,0,0,1,1.51c.5.53,1,1,1.07,1.4a4.12,4.12,0,0,1-.56,1.68A3.3,3.3,0,0,0,1,41.08c.1.39.69.85,1.28,1.28s1.2.81,1.33,1.17a4.08,4.08,0,0,1-.23,1.75,3.45,3.45,0,0,0-.12,1.81,3.39,3.39,0,0,0,1.51,1A4.14,4.14,0,0,1,6.34,49a4.17,4.17,0,0,1,.12,1.77,3.28,3.28,0,0,0,.23,1.79,3.31,3.31,0,0,0,1.67.68,4.25,4.25,0,0,1,1.67.57,4.13,4.13,0,0,1,.46,1.71,3.31,3.31,0,0,0,.57,1.71,3.29,3.29,0,0,0,1.77.35,4,4,0,0,1,1.75.23,4.07,4.07,0,0,1,.79,1.59,3.34,3.34,0,0,0,.89,1.57,3.32,3.32,0,0,0,1.81,0,4.36,4.36,0,0,1,1.77-.11c.35.16.69.79,1.08,1.41s.81,1.23,1.19,1.36a3.36,3.36,0,0,0,1.77-.36,4.18,4.18,0,0,1,1.72-.45c.37.08.83.63,1.33,1.16a3.42,3.42,0,0,0,1.43,1.11,3.33,3.33,0,0,0,1.66-.7,3.92,3.92,0,0,1,1.59-.78,4,4,0,0,1,1.52.88,3.4,3.4,0,0,0,1.61.81,3.36,3.36,0,0,0,1.5-1c.54-.5,1-1,1.41-1.07a4.17,4.17,0,0,1,1.68.57,3.37,3.37,0,0,0,1.75.47c.39-.1.85-.69,1.28-1.28s.81-1.2,1.17-1.33a4.08,4.08,0,0,1,1.75.23,3.45,3.45,0,0,0,1.81.12,3.39,3.39,0,0,0,1-1.51A4.14,4.14,0,0,1,49,58.92a4.17,4.17,0,0,1,1.77-.12,3.28,3.28,0,0,0,1.79-.23,3.31,3.31,0,0,0,.68-1.67,4.25,4.25,0,0,1,.57-1.67,4.13,4.13,0,0,1,1.71-.46,3.31,3.31,0,0,0,1.71-.57,3.29,3.29,0,0,0,.35-1.77,4,4,0,0,1,.23-1.75,4.07,4.07,0,0,1,1.59-.79A3.34,3.34,0,0,0,60.94,49a3.5,3.5,0,0,0,0-1.81,4.23,4.23,0,0,1-.12-1.77c.16-.34.79-.69,1.41-1.08s1.23-.81,1.36-1.19a3.36,3.36,0,0,0-.36-1.77,4.18,4.18,0,0,1-.45-1.72c.08-.37.63-.83,1.16-1.33a3.42,3.42,0,0,0,1.11-1.43,3.42,3.42,0,0,0-.7-1.66A3.92,3.92,0,0,1,63.57,33.65ZM32.63,60.05A27.42,27.42,0,1,1,60.05,32.63,27.42,27.42,0,0,1,32.63,60.05Z"/><path class="cls-2" d="M32.63,5.21A27.42,27.42,0,1,0,60.05,32.63,27.42,27.42,0,0,0,32.63,5.21Zm0,54.23a26.66,26.66,0,0,1-5.4-.55l-.81-.18c-.54-.13-1.08-.27-1.6-.43-.27-.08-.53-.16-.79-.26a20.31,20.31,0,0,1-2.28-.89L21,56.79c-.78-.38-1.54-.79-2.28-1.24a24.86,24.86,0,0,1-2.13-1.44,27.17,27.17,0,0,1-2.92-2.53,26.8,26.8,0,1,1,37.9-37.9,27.17,27.17,0,0,1,2.53,2.92,24.86,24.86,0,0,1,1.44,2.13c.45.74.86,1.5,1.24,2.28.12.24.23.49.34.74A20.31,20.31,0,0,1,58,24c.1.26.18.52.26.79.16.52.3,1.06.43,1.6l.18.81A26.81,26.81,0,0,1,32.63,59.44Z"/><path class="cls-3" d="M32.88,17.94l-.36,0a.4.4,0,0,1,.15,0A.46.46,0,0,1,32.88,17.94Z"/><path class="cls-3" d="M44.5,39.24l-3.37-2,3-1.81a.5.5,0,0,0,.18-.67.48.48,0,0,0-.66-.18l-3.5,2.09L37.5,35.07l3.4-2a.53.53,0,0,0,.24-.23.43.43,0,0,0,0-.4.62.62,0,0,0-.24-.24l-3.4-2,2.67-1.59,3.5,2.09a.49.49,0,0,0,.66-.18.51.51,0,0,0-.18-.68l-3-1.8,3.37-2a.5.5,0,0,0,.18-.66.47.47,0,0,0-.65-.18l-3.38,2v-3.6a.48.48,0,1,0-.95,0v4.17L37,29.34l0-4A.77.77,0,0,0,37,25a.49.49,0,0,0-.66-.15L33.11,27V23.81l3.49-2.08a.5.5,0,0,0,.18-.67.48.48,0,0,0-.65-.18l-3,1.8v-4a.48.48,0,1,0-1,0v4l-3-1.8a.48.48,0,0,0-.65.18.5.5,0,0,0,.18.67l3.49,2.08V27l-3.21-2.13a.47.47,0,0,0-.65.15.66.66,0,0,0-.08.34l0,4-2.67-1.59V23.58a.48.48,0,1,0-.95,0v3.6l-3.38-2a.45.45,0,0,0-.64.18.48.48,0,0,0,.17.66l3.37,2-3,1.8a.51.51,0,0,0-.18.68.49.49,0,0,0,.66.18l3.5-2.09,2.67,1.59-3.4,2a.62.62,0,0,0-.24.24.43.43,0,0,0,0,.4.53.53,0,0,0,.24.23l3.4,2-2.67,1.59-3.5-2.09a.48.48,0,0,0-.66.18.5.5,0,0,0,.18.67l3,1.81-3.37,2a.5.5,0,0,0-.17.67.46.46,0,0,0,.64.18l3.38-2v3.6a.48.48,0,1,0,.95,0V37.51l2.67-1.59,0,4a.68.68,0,0,0,.08.34.46.46,0,0,0,.65.14l3.21-2.12v3.14l-3.49,2.08a.5.5,0,0,0-.18.67.47.47,0,0,0,.65.18l3-1.8v4a.48.48,0,1,0,1,0v-4l3,1.8a.47.47,0,0,0,.65-.18.5.5,0,0,0-.18-.67l-3.49-2.08V38.31l3.21,2.12a.47.47,0,0,0,.66-.14.8.8,0,0,0,.07-.34l0-4,2.67,1.59v4.17a.48.48,0,1,0,.95,0v-3.6l3.38,2a.48.48,0,0,0,.65-.18A.51.51,0,0,0,44.5,39.24ZM28.71,34.5l-3.17-1.87,3.17-1.87,3.11,1.87Zm3.44,2.64-3,2,0-3.77,3-1.78Zm0-5.46-3-1.77,0-3.77,3,2Zm1-3.56,3-2,0,3.77-3,1.77Zm0,9V33.57l3,1.78,0,3.77Zm3.45-2.64-3.12-1.87,3.12-1.87,3.16,1.87Z"/><path class="cls-3" d="M32.63,15.07A17.56,17.56,0,1,0,50.19,32.63,17.56,17.56,0,0,0,32.63,15.07Zm0,33.81A16.25,16.25,0,1,1,48.88,32.63,16.26,16.26,0,0,1,32.63,48.88Z"/><path class="cls-2" d="M32.63,14.46A18.17,18.17,0,1,0,50.8,32.63,18.16,18.16,0,0,0,32.63,14.46Zm0,35.73A17.56,17.56,0,1,1,50.19,32.63,17.56,17.56,0,0,1,32.63,50.19Z"/><path class="cls-3" d="M32.88,17.94l-.36,0a.4.4,0,0,1,.15,0A.46.46,0,0,1,32.88,17.94Z"/><path class="cls-3" d="M44.5,39.24l-3.37-2,3-1.81a.5.5,0,0,0,.18-.67.48.48,0,0,0-.66-.18l-3.5,2.09L37.5,35.07l3.4-2a.53.53,0,0,0,.24-.23.43.43,0,0,0,0-.4.62.62,0,0,0-.24-.24l-3.4-2,2.67-1.59,3.5,2.09a.49.49,0,0,0,.66-.18.51.51,0,0,0-.18-.68l-3-1.8,3.37-2a.5.5,0,0,0,.18-.66.47.47,0,0,0-.65-.18l-3.38,2v-3.6a.48.48,0,1,0-.95,0v4.17L37,29.34l0-4A.77.77,0,0,0,37,25a.49.49,0,0,0-.66-.15L33.11,27V23.81l3.49-2.08a.5.5,0,0,0,.18-.67.48.48,0,0,0-.65-.18l-3,1.8v-4a.48.48,0,1,0-1,0v4l-3-1.8a.48.48,0,0,0-.65.18.5.5,0,0,0,.18.67l3.49,2.08V27l-3.21-2.13a.47.47,0,0,0-.65.15.66.66,0,0,0-.08.34l0,4-2.67-1.59V23.58a.48.48,0,1,0-.95,0v3.6l-3.38-2a.45.45,0,0,0-.64.18.48.48,0,0,0,.17.66l3.37,2-3,1.8a.51.51,0,0,0-.18.68.49.49,0,0,0,.66.18l3.5-2.09,2.67,1.59-3.4,2a.62.62,0,0,0-.24.24.43.43,0,0,0,0,.4.53.53,0,0,0,.24.23l3.4,2-2.67,1.59-3.5-2.09a.48.48,0,0,0-.66.18.5.5,0,0,0,.18.67l3,1.81-3.37,2a.5.5,0,0,0-.17.67.46.46,0,0,0,.64.18l3.38-2v3.6a.48.48,0,1,0,.95,0V37.51l2.67-1.59,0,4a.68.68,0,0,0,.08.34.46.46,0,0,0,.65.14l3.21-2.12v3.14l-3.49,2.08a.5.5,0,0,0-.18.67.47.47,0,0,0,.65.18l3-1.8v4a.48.48,0,1,0,1,0v-4l3,1.8a.47.47,0,0,0,.65-.18.5.5,0,0,0-.18-.67l-3.49-2.08V38.31l3.21,2.12a.47.47,0,0,0,.66-.14.8.8,0,0,0,.07-.34l0-4,2.67,1.59v4.17a.48.48,0,1,0,.95,0v-3.6l3.38,2a.48.48,0,0,0,.65-.18A.51.51,0,0,0,44.5,39.24ZM28.71,34.5l-3.17-1.87,3.17-1.87,3.11,1.87Zm3.44,2.64-3,2,0-3.77,3-1.78Zm0-5.46-3-1.77,0-3.77,3,2Zm1-3.56,3-2,0,3.77-3,1.77Zm0,9V33.57l3,1.78,0,3.77Zm3.45-2.64-3.12-1.87,3.12-1.87,3.16,1.87Z"/><path class="cls-3" d="M32.63,14.46A18.17,18.17,0,1,0,50.8,32.63,18.16,18.16,0,0,0,32.63,14.46Zm0,34.42A16.25,16.25,0,1,1,48.88,32.63,16.26,16.26,0,0,1,32.63,48.88Z"/><polygon class="cls-4" points="10.44 32.36 11.16 32.79 11.9 32.36 11.16 31.93 10.44 32.36"/><polygon class="cls-4" points="10.37 32.58 10.37 33.4 11.06 33.86 11.06 32.99 10.37 32.58"/><polygon class="cls-4" points="11.06 30.86 10.37 31.32 10.37 32.14 11.06 31.73 11.06 30.86"/><polygon class="cls-4" points="9.46 31.73 10.15 32.14 10.15 31.32 9.46 30.86 9.46 31.73"/><polygon class="cls-4" points="9.35 31.93 8.62 32.36 9.35 32.79 10.07 32.36 9.35 31.93"/><polygon class="cls-4" points="9.46 33.86 10.15 33.4 10.15 32.58 9.46 32.99 9.46 33.86"/><polygon class="cls-4" points="54.34 31.73 55.03 32.14 55.03 31.32 54.34 30.86 54.34 31.73"/><polygon class="cls-4" points="56.05 31.93 55.33 32.36 56.05 32.79 56.78 32.36 56.05 31.93"/><polygon class="cls-4" points="54.23 31.93 53.5 32.36 54.23 32.79 54.95 32.36 54.23 31.93"/><polygon class="cls-4" points="55.25 32.58 55.25 33.4 55.94 33.86 55.94 32.99 55.25 32.58"/><path class="cls-4" d="M58.89,27.23l-.18-.81c-.13-.54-.27-1.08-.43-1.6-.08-.27-.17-.53-.26-.79-.26-.78-.56-1.54-.89-2.28-.11-.25-.22-.5-.34-.74-.38-.78-.79-1.54-1.24-2.28s-.93-1.45-1.44-2.13a27.17,27.17,0,0,0-2.53-2.92,26.8,26.8,0,1,0-37.9,37.9,27.17,27.17,0,0,0,2.92,2.53c.68.51,1.4,1,2.13,1.44s1.5.86,2.28,1.24l.74.34c.74.33,1.5.63,2.28.89l.79.26c.52.16,1.06.3,1.6.43l.81.18a27.39,27.39,0,0,0,5.4.54,26.8,26.8,0,0,0,26.8-26.8A27.39,27.39,0,0,0,58.89,27.23Zm-46,4.48a.11.11,0,0,1-.11.2L12,31.43l-.62.37.79.46.06.05s0,0,0,0,0,0,0,0l-.06.05-.79.46.62.37.81-.48a.11.11,0,0,1,.11.2l-.7.41.78.47A.1.1,0,0,1,13,34a.11.11,0,0,1-.15.05l-.78-.47v.84a.11.11,0,0,1-.22,0v-1l-.62-.37v.93a.11.11,0,0,1,0,.08.11.11,0,0,1-.15,0l-.74-.5v.73l.81.48a.12.12,0,0,1,0,.16.11.11,0,0,1-.15,0l-.7-.42v.93a.11.11,0,1,1-.22,0v-.93l-.7.42a.11.11,0,0,1-.15,0,.11.11,0,0,1,0-.16l.81-.48v-.73l-.75.5a.11.11,0,0,1-.15,0,.19.19,0,0,1,0-.08v-.93l-.62.37v1a.11.11,0,0,1-.22,0v-.84l-.78.47A.11.11,0,0,1,7.47,34a.11.11,0,0,1,0-.15l.78-.47L7.59,33a.12.12,0,0,1,0-.16.11.11,0,0,1,.15,0l.81.48.62-.37-.79-.46a.12.12,0,0,1-.05-.05l0,0,0,0,.05-.05.79-.46-.62-.37-.81.48a.11.11,0,0,1-.15,0,.12.12,0,0,1,0-.16l.7-.41-.78-.47a.11.11,0,0,1,0-.15.11.11,0,0,1,.15-.05l.78.47v-.84a.11.11,0,0,1,.22,0v1l.62.37v-.93a.19.19,0,0,1,0-.08.11.11,0,0,1,.15,0l.75.5v-.73l-.81-.48a.11.11,0,0,1,0-.16.11.11,0,0,1,.15,0l.7.42v-.93a.11.11,0,1,1,.22,0v.93l.7-.42a.11.11,0,0,1,.15,0,.12.12,0,0,1,0,.16l-.81.48v.73l.74-.5a.11.11,0,0,1,.15,0,.11.11,0,0,1,0,.08v.93l.62-.37v-1a.11.11,0,0,1,.22,0v.84l.78-.47a.11.11,0,0,1,.15.05.1.1,0,0,1,0,.15l-.78.47ZM32.63,50.8A18.17,18.17,0,1,1,50.8,32.63,18.16,18.16,0,0,1,32.63,50.8ZM57.8,31.71a.11.11,0,0,1,0,.16.11.11,0,0,1-.15,0l-.81-.48-.61.37.78.46.06.05s0,0,0,0,0,0,0,0l-.06.05-.78.46.61.37.81-.48a.11.11,0,0,1,.15,0,.11.11,0,0,1,0,.16l-.7.41.79.47a.12.12,0,0,1,0,.15.11.11,0,0,1-.15.05L57,33.62v.84a.11.11,0,0,1-.22,0v-1l-.61-.37v.93a.11.11,0,0,1,0,.08.11.11,0,0,1-.15,0l-.74-.5v.73l.81.48a.12.12,0,0,1,0,.16.11.11,0,0,1-.15,0l-.7-.42v.93a.11.11,0,1,1-.22,0v-.93l-.7.42a.11.11,0,0,1-.15,0,.12.12,0,0,1,0-.16L55,34.4v-.73l-.75.5a.11.11,0,0,1-.15,0,.19.19,0,0,1,0-.08v-.93l-.62.37v1a.11.11,0,0,1-.22,0v-.84l-.78.47a.11.11,0,0,1-.15-.05.11.11,0,0,1,0-.15l.78-.47-.7-.41a.12.12,0,0,1,0-.16.11.11,0,0,1,.15,0l.81.48.62-.37-.79-.46a.12.12,0,0,1,0-.05.13.13,0,0,1,0-.1.12.12,0,0,1,0-.05L54,31.8l-.62-.37-.81.48a.11.11,0,0,1-.15,0,.12.12,0,0,1,0-.16l.7-.41-.78-.47a.11.11,0,0,1,0-.15.11.11,0,0,1,.15-.05l.78.47v-.84a.11.11,0,1,1,.22,0v1l.62.37v-.93a.19.19,0,0,1,0-.08.11.11,0,0,1,.15,0l.75.5v-.73l-.81-.48a.12.12,0,0,1,0-.16.11.11,0,0,1,.15,0l.7.42v-.93a.11.11,0,1,1,.22,0v.93l.7-.42a.11.11,0,0,1,.15,0,.12.12,0,0,1,0,.16l-.81.48v.73l.74-.5a.11.11,0,0,1,.15,0,.11.11,0,0,1,0,.08v.93l.61-.37v-1a.11.11,0,1,1,.22,0v.84l.79-.47a.11.11,0,0,1,.15.05.12.12,0,0,1,0,.15l-.79.47Z"/><polygon class="cls-4" points="55.94 30.86 55.25 31.32 55.25 32.14 55.94 31.73 55.94 30.86"/><polygon class="cls-4" points="54.34 33.86 55.03 33.4 55.03 32.58 54.34 32.99 54.34 33.86"/><path class="cls-2" d="M13,30.68a.1.1,0,0,0-.14-.05l-.79.47v-.83a.11.11,0,1,0-.22,0v1l-.61.37v-.93a.11.11,0,0,0,0-.08.11.11,0,0,0-.15,0l-.74.5v-.73l.81-.48a.12.12,0,0,0,0-.16.11.11,0,0,0-.15,0l-.7.42v-.93a.11.11,0,1,0-.22,0v.93l-.7-.42a.11.11,0,0,0-.15,0,.12.12,0,0,0,0,.16l.81.48v.73l-.75-.5a.11.11,0,0,0-.15,0,.19.19,0,0,0,0,.08v.93l-.62-.37v-1a.11.11,0,1,0-.22,0v.83l-.78-.47a.11.11,0,0,0-.15.05.11.11,0,0,0,0,.15l.78.47-.7.41a.13.13,0,0,0,0,.16.11.11,0,0,0,.15,0l.81-.48.62.37-.79.46-.05.05a.13.13,0,0,0,0,.1.12.12,0,0,0,.05.05l.79.47-.62.36-.81-.48a.11.11,0,0,0-.15,0,.12.12,0,0,0,0,.16l.7.42-.78.46a.12.12,0,0,0,0,.16.11.11,0,0,0,.15,0l.78-.47v.84a.11.11,0,0,0,.22,0v-1l.62-.37v.93a.19.19,0,0,0,0,.08.1.1,0,0,0,.15,0l.75-.5v.73l-.81.48a.12.12,0,0,0,0,.16.11.11,0,0,0,.15,0l.7-.42v.93a.11.11,0,1,0,.22,0v-.93l.7.42a.11.11,0,0,0,.15,0,.12.12,0,0,0,0-.16l-.81-.48v-.73l.74.5a.1.1,0,0,0,.15,0,.11.11,0,0,0,0-.08v-.93l.61.37v1a.11.11,0,0,0,.22,0v-.84l.79.47a.1.1,0,0,0,.14,0,.11.11,0,0,0,0-.16l-.78-.46.7-.42a.11.11,0,0,0,0-.16.11.11,0,0,0-.15,0l-.81.48-.62-.36.79-.47.06-.05s0,0,0,0,0,0,0,0l-.06-.05-.79-.46.62-.37.81.48a.11.11,0,0,0,.15,0,.12.12,0,0,0,0-.16l-.7-.41.78-.47A.1.1,0,0,0,13,30.68ZM9.35,32.79l-.74-.43.74-.43.72.43Zm.8.61-.7.46V33l.69-.41Zm0-1.26-.69-.41v-.87l.7.46Zm.22-.82.69-.46v.87l-.69.41Zm0,2.08v-.82l.69.41v.87Zm1.53-1-.73.43-.73-.43.73-.43Z"/><path class="cls-2" d="M57.1,33.43l.7-.42a.11.11,0,0,0,0-.16.11.11,0,0,0-.15,0l-.81.48-.61-.36.78-.47a.15.15,0,0,0,.06-.05.13.13,0,0,0,0-.1.15.15,0,0,0-.06-.05l-.78-.46.61-.37.81.48a.11.11,0,0,0,.11-.2l-.7-.41.79-.47a.11.11,0,0,0,0-.15.11.11,0,0,0-.15-.05L57,31.1v-.83a.12.12,0,0,0-.12-.12.11.11,0,0,0-.11.12v1l-.61.37v-.93a.11.11,0,0,0,0-.08.11.11,0,0,0-.15,0l-.74.5v-.73l.81-.48a.12.12,0,0,0,0-.16.11.11,0,0,0-.15,0l-.7.42v-.93a.11.11,0,1,0-.22,0v.93l-.7-.42a.11.11,0,0,0-.15,0,.12.12,0,0,0,0,.16l.81.48v.73l-.75-.5a.12.12,0,0,0-.15,0,.19.19,0,0,0,0,.08v.93l-.62-.37v-1a.11.11,0,1,0-.22,0v.83l-.78-.47a.11.11,0,0,0-.15.05.11.11,0,0,0,0,.15l.78.47-.7.41a.13.13,0,0,0,0,.16.11.11,0,0,0,.15,0l.81-.48.62.37-.78.46a.1.1,0,0,0-.06.05.13.13,0,0,0,0,.1.1.1,0,0,0,.06.05l.78.47-.62.36-.81-.48a.11.11,0,0,0-.15,0,.12.12,0,0,0,0,.16l.7.42-.78.46a.12.12,0,0,0,0,.16.11.11,0,0,0,.15,0l.78-.47v.84a.11.11,0,0,0,.22,0v-1l.62-.37v.93a.19.19,0,0,0,0,.08.11.11,0,0,0,.15,0l.75-.5v.73l-.81.48a.12.12,0,0,0,0,.16.11.11,0,0,0,.15,0l.7-.42v.93a.11.11,0,1,0,.22,0v-.93l.7.42a.11.11,0,0,0,.15,0,.12.12,0,0,0,0-.16l-.81-.48v-.73l.74.5a.1.1,0,0,0,.15,0,.11.11,0,0,0,0-.08v-.93l.61.37v1a.11.11,0,0,0,.11.11.11.11,0,0,0,.12-.11v-.84l.78.47a.11.11,0,0,0,.15,0,.12.12,0,0,0,0-.16Zm-2.87-.64-.73-.43.73-.43.72.43Zm.8.61-.69.46V33l.69-.41Zm0-1.26-.69-.41v-.87l.69.46Zm.22-.82.69-.46v.87l-.69.41Zm0,2.08v-.82l.69.41v.87Zm.8-.61-.72-.43.72-.43.73.43Z"/><path class="cls-2" d="M56.72,40.75l-.28.77-2.32-.83c-.11,0-.18-.17-.2-.38l0,0,0,0c-.16.16-.31.22-.45.17l-2.08-.75.28-.77,2.07.74a.44.44,0,0,0,.46-.16l0,0a.43.43,0,0,0,.25.42Z"/><path class="cls-2" d="M55.9,43l-1.16,2.27L54,44.84l.4-.76L53,43.34c-.12-.06-.18-.2-.17-.41l0,0h0s-.08,0-.2.1a.28.28,0,0,1-.25,0l-2-1,.38-.73,1.95,1a.4.4,0,0,0,.48-.1l0,0a1.71,1.71,0,0,1,0,.27.32.32,0,0,0,.17.19l1.41.72.4-.77Z"/><path class="cls-2" d="M53.92,46.52l-.42.61h0l-.95-.8.29-.42C53.52,46.3,53.89,46.49,53.92,46.52Z"/><path class="cls-2" d="M51.81,49.41l-.11.12a1.18,1.18,0,0,1-1,.4,1.44,1.44,0,0,1-.71-.28l-.13-.12.53-.59c.36.24.62.27.79.08l.05-.05c.15-.17.11-.39-.13-.66l0-.05a1.73,1.73,0,0,0-1.46-.19q-.16,0-.21,0h0l-.07-.12h0s-.16,0-.4.13a1,1,0,0,1-.7-.08,1.21,1.21,0,0,1-.47-.26,1.41,1.41,0,0,1-.51-1.16,1.32,1.32,0,0,1,.36-.74,1.28,1.28,0,0,1,1.53-.35,2.81,2.81,0,0,1,.6.37l-.52.59a1.19,1.19,0,0,0-.62-.27.46.46,0,0,0-.4.13.53.53,0,0,0,0,.63,1.29,1.29,0,0,0,.16.18,1.45,1.45,0,0,0,1.29.14c.09,0,.26-.11.51-.23h0a1.17,1.17,0,0,0,.07.15l0,0a1.39,1.39,0,0,0,.54.07,1.58,1.58,0,0,1,.78.37l.1.09a1.22,1.22,0,0,1,.41,1.3A1.27,1.27,0,0,1,51.81,49.41Z"/><path class="cls-2" d="M46.61,53.94l-.14.09a1.2,1.2,0,0,1-1.09.11,1.45,1.45,0,0,1-.6-.46l-.1-.15.67-.43c.28.33.52.43.74.29l.06,0c.19-.12.21-.35.05-.67l0,0a1.68,1.68,0,0,0-1.35-.58.3.3,0,0,1-.19-.08v0l0-.12h0a1,1,0,0,0-.41,0,1,1,0,0,1-.66-.26,1.25,1.25,0,0,1-.38-.38A1.44,1.44,0,0,1,42.94,50a1.36,1.36,0,0,1,.55-.62,1.28,1.28,0,0,1,1.57.07,2.24,2.24,0,0,1,.47.52l-.65.42a1.33,1.33,0,0,0-.53-.42.47.47,0,0,0-.42,0,.51.51,0,0,0-.2.59.89.89,0,0,0,.1.23,1.47,1.47,0,0,0,1.2.47,3.29,3.29,0,0,0,.56-.09h0a.62.62,0,0,0,0,.16l0,0a1.69,1.69,0,0,0,.5.2,1.69,1.69,0,0,1,.66.57l.07.11A1.24,1.24,0,0,1,47,53.59,1.45,1.45,0,0,1,46.61,53.94Z"/><path class="cls-2" d="M43.81,55.51l-.84.35a2,2,0,0,1-.31-.36c-.89-1.08-1.34-1.63-1.35-1.66l0-.05c0-.07,0-.17.09-.29v0L41,53.39c-.1,0-.25-.16-.44-.43h0l.14.35q.08.2.39.21l0,0v0a1.5,1.5,0,0,0-.17.29A.49.49,0,0,0,41,54l1,2.3-.77.32-.92-2.2a.38.38,0,0,1,0-.42l.09-.13s-.12-.06-.27-.08a.43.43,0,0,1-.17-.14l-.85-2.05.83-.34c.08.1.6.72,1.56,1.83a1.14,1.14,0,0,0,.49.12l0,0a.37.37,0,0,0-.09.32s.13.17.36.44h0l-.16-.38a.38.38,0,0,1,.11-.45v-.07A1.14,1.14,0,0,0,42,53a.45.45,0,0,1-.17-.19l-.83-2,.77-.32.85,2c0,.11.16.16.34.16l.06,0s0,.11-.1.22a.32.32,0,0,0,0,.26Z"/><path class="cls-2" d="M38.34,57.47l-.13,0a1.27,1.27,0,0,1-1.47-.94l-.28-1.27c0-.14,0-.27.22-.41v0l-.26-.11a.31.31,0,0,1-.12-.18l-.22-1a1.29,1.29,0,0,1,.5-1.3,1.5,1.5,0,0,1,.5-.23,1.32,1.32,0,0,1,1.33.5,1.51,1.51,0,0,1,.21.47l.21,1a.35.35,0,0,0,.33.26l.05.06c-.16.18-.23.31-.22.39a.36.36,0,0,0,0,.1L39.27,56a1.27,1.27,0,0,1-.44,1.23A1.34,1.34,0,0,1,38.34,57.47Zm.14-1.35-.26-1.19a.37.37,0,0,1,.2-.39l0,0v0a.89.89,0,0,0-.24-.11.32.32,0,0,1-.14-.2l-.21-.94a.45.45,0,0,0-.44-.37h-.08l-.1,0a.41.41,0,0,0-.24.2.45.45,0,0,0,0,.34l.2.91a.39.39,0,0,0,.34.3s0,0,.06,0,0,.1-.14.18a.33.33,0,0,0-.08.32l.26,1.16a.45.45,0,0,0,.46.37h.1a.45.45,0,0,0,.36-.46A.34.34,0,0,0,38.48,56.12Z"/><path class="cls-2" d="M35.18,58h-.84s0-.12-.07-.36c0,0-.12-.72-.35-2.12a.37.37,0,0,1,.21-.3l0,0v0l0,0h0s-.06.08-.18.15a.47.47,0,0,0-.2.47c0,.07-.11.82-.27,2.24l-.85,0a3.15,3.15,0,0,1-.12-.69c0-.11-.13-.72-.31-1.83q0-.14.21-.27s0,0,0,0a.85.85,0,0,1-.23.16.43.43,0,0,0-.13.35l-.29,2.34H31c.2-1.45.32-2.31.36-2.57a.53.53,0,0,1,.26-.21c.06,0,.09-.07.09-.08v0l-.2-.16a.29.29,0,0,1-.06-.15l.31-2.24h.77s0,.11.07.33c0,0,.12.67.34,1.93a.61.61,0,0,0,.33.29.09.09,0,0,1,0,.06c-.16.1-.24.2-.24.29v0h0q0-.13.33-.3v-.06c-.17-.11-.25-.2-.25-.27v0l.28-2.27h.79l.42,2.24a.83.83,0,0,0,.34.26l0,0a1.2,1.2,0,0,1-.2.19.21.21,0,0,0-.05.12v0s.15.88.45,2.53Z"/><path class="cls-2" d="M25.56,57.12l-.16,0a1.18,1.18,0,0,1-.79-.75,1.41,1.41,0,0,1,0-.77l.05-.17.75.23c-.07.43,0,.68.26.75l.07,0c.22.07.41-.06.55-.39l0-.06a1.71,1.71,0,0,0-.44-1.4c-.06-.09-.08-.16-.06-.2v0l.08-.11h0s-.09-.13-.29-.3a1,1,0,0,1-.23-.67,1.38,1.38,0,0,1,0-.54,1.42,1.42,0,0,1,.83-.95,1.38,1.38,0,0,1,.83,0A1.28,1.28,0,0,1,28,53a2.42,2.42,0,0,1-.08.69l-.75-.22a1.23,1.23,0,0,0,0-.67.42.42,0,0,0-.29-.3.51.51,0,0,0-.58.22,1,1,0,0,0-.1.23,1.42,1.42,0,0,0,.42,1.22,3.78,3.78,0,0,0,.43.36s0,0,0,0l-.1.12v0a1.35,1.35,0,0,0,.17.51,1.82,1.82,0,0,1,0,.87l0,.13a1.23,1.23,0,0,1-1,.92A1.3,1.3,0,0,1,25.56,57.12Z"/><path class="cls-2" d="M22.61,56,20.5,55l.36-.74,1.36.67.65-1.33-1-.49.08-.16c.05-.11.18-.16.4-.16l0,0a.72.72,0,0,1-.13-.37l1,.48,0-.11.6-1.22-1.36-.67.37-.74,2.1,1-1,2c-.05.1,0,.23.13.4v0c-.24,0-.38.09-.42.17Z"/><path class="cls-2" d="M17.33,52.93a2.8,2.8,0,0,1,.24-.5c.56-1.15.86-1.75.9-1.81a.41.41,0,0,1,.35-.09l0,0c-.11-.26-.13-.43-.06-.53l1-2,.7.5-.57,1.13.67.49s.15-.12.39-.37l.52-.51.69.5-1.63,1.6h0c-.05.07,0,.19,0,.35l0,0a2.26,2.26,0,0,0-.42,0,10.64,10.64,0,0,0-.95.91l-.94.91Zm1.21-.72c.55-.57.84-.87.88-.9a.51.51,0,0,1,.22,0c.15,0,.23,0,.25,0-.09-.19-.09-.33,0-.42l.14-.15-.48-.35a.48.48,0,0,0,0,.61v0l0,0c-.2,0-.32,0-.36.07l-.05,0c-.35.67-.53,1-.56,1.06Z"/><path class="cls-2" d="M14.44,50.47l-.11-.12a1.16,1.16,0,0,1-.33-1,1.54,1.54,0,0,1,.34-.69l.13-.12.55.57q-.4.51-.15.78l.05.06c.16.16.39.14.67-.08l.05,0a1.68,1.68,0,0,0,.3-1.44.28.28,0,0,1,.05-.2h0l.12-.06h0a1.37,1.37,0,0,0-.1-.4.9.9,0,0,1,.13-.7,1.09,1.09,0,0,1,.29-.44,1.39,1.39,0,0,1,1.2-.42,1.39,1.39,0,0,1,.94,2,3,3,0,0,1-.41.57l-.55-.56a1.19,1.19,0,0,0,.31-.6.4.4,0,0,0-.1-.4.5.5,0,0,0-.62-.09.77.77,0,0,0-.19.14,1.42,1.42,0,0,0-.24,1.27,4.15,4.15,0,0,0,.2.53s0,0,0,0l-.15.05,0,0a1.55,1.55,0,0,0-.11.53,1.57,1.57,0,0,1-.42.75l-.1.1a1.25,1.25,0,0,1-1.33.31A1.29,1.29,0,0,1,14.44,50.47Z"/><path class="cls-2" d="M11.64,47.07l-.07-.1a1.28,1.28,0,0,1,0-1.35,1.39,1.39,0,0,1,.35-.37L13,44.52c.11-.08.26-.06.45,0h0a.84.84,0,0,0,0-.28.31.31,0,0,1,.13-.19l.82-.55a1.27,1.27,0,0,1,1.39,0,1.41,1.41,0,0,1,.39.38,1.3,1.3,0,0,1,0,1.42,1.23,1.23,0,0,1-.36.36l-.81.55a.37.37,0,0,0-.12.41.14.14,0,0,1,0,.07c-.22-.08-.37-.1-.44-.06l-.09.05-1,.69a1.27,1.27,0,0,1-1.31,0A1.24,1.24,0,0,1,11.64,47.07Zm1.3-.36L14,46a.38.38,0,0,1,.43,0h.06v0a.72.72,0,0,0,0-.26.31.31,0,0,1,.13-.2L15.4,45a.44.44,0,0,0,.17-.54l0-.07-.06-.09a.44.44,0,0,0-.28-.15.43.43,0,0,0-.33.08l-.77.52a.38.38,0,0,0-.15.43s0,0,0,.06-.1,0-.22-.06a.32.32,0,0,0-.31,0l-1,.67a.45.45,0,0,0-.18.57l0,.09a.45.45,0,0,0,.56.16Z"/><path class="cls-2" d="M10.05,44.4l-.37-.84a2.23,2.23,0,0,1,.35-.31c1.06-.92,1.6-1.38,1.62-1.39l0,0c.07,0,.17,0,.3.08h.05l0-.35q0-.15.42-.45h0l-.34.15a.39.39,0,0,0-.2.4l0,0h0a1,1,0,0,0-.29-.16.25.25,0,0,0-.13,0l-2.28,1-.34-.76,2.18-1a.37.37,0,0,1,.42,0l.14.09a.71.71,0,0,0,.07-.27.41.41,0,0,1,.13-.18l2-.9.37.82L12.43,42a1,1,0,0,0-.1.48l-.05,0a.39.39,0,0,0-.32-.08l-.43.36h0l.38-.16a.38.38,0,0,1,.45.1h.07a.73.73,0,0,0,.06-.27.37.37,0,0,1,.19-.18l2-.89.34.76-2,.91c-.1,0-.15.16-.15.35l0,.05s-.11,0-.22-.09a.35.35,0,0,0-.26,0Z"/><path class="cls-2" d="M8.64,24.22l.29-.77,2.31.86c.12,0,.18.17.2.38l0,0,0,0a.43.43,0,0,1,.45-.16l2.07.77-.29.77-2.06-.77a.44.44,0,0,0-.46.16l-.06,0q0-.34-.24-.42Z"/><path class="cls-2" d="M9.51,22l1.19-2.25.74.39-.41.76,1.43.76c.12.06.18.2.16.41l0,0h0a.76.76,0,0,0,.21-.1.29.29,0,0,1,.24,0l2,1.05-.39.73-1.94-1a.42.42,0,0,0-.48.09l0,0s0-.1,0-.26a.37.37,0,0,0-.17-.2l-1.4-.74-.41.76Z"/><path class="cls-2" d="M11.53,18.46l.42-.61h0l.93.81-.29.42C11.92,18.69,11.56,18.48,11.53,18.46Z"/><path class="cls-2" d="M13.68,15.6l.11-.12a1.17,1.17,0,0,1,1-.39,1.42,1.42,0,0,1,.7.29l.13.12-.53.59c-.36-.25-.62-.29-.79-.1l-.05,0c-.16.17-.12.4.11.67l0,0a1.69,1.69,0,0,0,1.45.21c.11,0,.18,0,.21,0h0c0,.07.06.11.07.11h0s.16,0,.4-.13a1,1,0,0,1,.7.09,1.24,1.24,0,0,1,.46.27,1.24,1.24,0,0,1,.13,1.9,1.26,1.26,0,0,1-1.53.33,2.82,2.82,0,0,1-.6-.38l.53-.57a1.39,1.39,0,0,0,.62.27.41.41,0,0,0,.39-.13.52.52,0,0,0,.06-.62.75.75,0,0,0-.17-.19,1.44,1.44,0,0,0-1.28-.16c-.09,0-.26.11-.51.23h0l-.07-.14,0,0a1.9,1.9,0,0,0-.53-.07,1.63,1.63,0,0,1-.79-.38l-.09-.09a1.23,1.23,0,0,1-.4-1.31A1.42,1.42,0,0,1,13.68,15.6Z"/><path class="cls-2" d="M18.94,11.14l.14-.09a1.17,1.17,0,0,1,1.09-.1,1.49,1.49,0,0,1,.6.47l.1.15-.68.42c-.27-.33-.52-.43-.73-.3l-.06,0c-.2.12-.22.34-.07.67l0,0a1.69,1.69,0,0,0,1.35.59.47.47,0,0,1,.19.09v0a.33.33,0,0,0,0,.13h0a1.25,1.25,0,0,0,.42,0,.9.9,0,0,1,.65.27,1.37,1.37,0,0,1,.38.38,1.42,1.42,0,0,1,.16,1.26,1.33,1.33,0,0,1-.55.61,1.28,1.28,0,0,1-1.57-.1,2.8,2.8,0,0,1-.47-.52l.67-.41a1.12,1.12,0,0,0,.52.42.42.42,0,0,0,.41,0,.53.53,0,0,0,.22-.59.76.76,0,0,0-.11-.22,1.42,1.42,0,0,0-1.19-.49,4.4,4.4,0,0,0-.56.08s0,0,0,0a.9.9,0,0,0,0-.16l0,0a1.46,1.46,0,0,0-.5-.21,1.69,1.69,0,0,1-.65-.58l-.07-.11a1.22,1.22,0,0,1,0-1.37A1.39,1.39,0,0,1,18.94,11.14Z"/><path class="cls-2" d="M21.73,9.62l.85-.34a1.77,1.77,0,0,1,.3.36c.88,1.09,1.32,1.65,1.33,1.68l0,0c0,.08,0,.17-.09.3v0l0,0,.34.06c.1,0,.24.17.43.44h0l-.14-.34a.4.4,0,0,0-.39-.22l0,0v0a1.09,1.09,0,0,0,.17-.29.18.18,0,0,0,0-.13l-.93-2.31.78-.31.89,2.21c.07.19.06.33,0,.42l-.09.13a.73.73,0,0,0,.27.09.43.43,0,0,1,.17.14l.82,2-.83.33c-.08-.1-.59-.72-1.54-1.85a1.13,1.13,0,0,0-.48-.12l0,0c.09-.13.13-.24.09-.32a3.34,3.34,0,0,0-.34-.44h0l.15.38a.4.4,0,0,1-.12.45v.07a1.41,1.41,0,0,0,.27.07.45.45,0,0,1,.17.19l.81,2-.77.31-.83-2.06c0-.11-.16-.16-.34-.17l-.06,0s0-.11.1-.22a.29.29,0,0,0,0-.25Z"/><path class="cls-2" d="M27.24,7.72l.12,0a1.28,1.28,0,0,1,1.25.5,1.22,1.22,0,0,1,.21.47l.26,1.27c0,.13,0,.27-.22.4v0l.26.12a.32.32,0,0,1,.12.18l.2,1a1.3,1.3,0,0,1-2.33,1,1.31,1.31,0,0,1-.21-.47l-.2-1q0-.21-.33-.27a.12.12,0,0,1-.05-.06c.17-.18.24-.3.22-.38a.41.41,0,0,0,0-.11l-.25-1.21A1.28,1.28,0,0,1,26.74,8,1.52,1.52,0,0,1,27.24,7.72Zm-.16,1.35.24,1.19a.37.37,0,0,1-.2.39l0,0v0a1.07,1.07,0,0,0,.25.1.33.33,0,0,1,.13.21l.2.94a.46.46,0,0,0,.43.38h.09l.1,0a.47.47,0,0,0,.24-.2.51.51,0,0,0,.06-.34l-.19-.91a.37.37,0,0,0-.34-.3.06.06,0,0,0-.06,0s0-.1.14-.18a.34.34,0,0,0,.09-.31L28,8.88a.45.45,0,0,0-.45-.38h-.11a.45.45,0,0,0-.36.46A.31.31,0,0,0,27.08,9.07Z"/><path class="cls-2" d="M30.34,7.25h.84s0,.12.07.36c0,0,.12.72.35,2.12,0,.11-.07.21-.21.3l0,0v0s0,0,0,0h0s.06-.08.18-.15a.47.47,0,0,0,.2-.47c0-.07.11-.82.28-2.24l.84,0A3.15,3.15,0,0,1,33,7.9c0,.11.13.72.31,1.83q0,.13-.21.27s0,0,0,.05a1.72,1.72,0,0,1,.23-.16.43.43,0,0,0,.13-.35L33.7,7.2h.86c-.2,1.45-.32,2.31-.36,2.57a.62.62,0,0,1-.26.22c-.06,0-.09.06-.09.07v0l.2.16a.48.48,0,0,1,.07.15l-.32,2.24H33s0-.11-.07-.33c0,0-.12-.67-.34-1.93a.61.61,0,0,0-.33-.29.09.09,0,0,1,0-.06c.16-.1.24-.2.24-.29v0h0q0,.13-.33.3v.06c.17.11.25.2.26.27v0l-.29,2.27h-.79l-.42-2.24a.77.77,0,0,0-.34-.26l0,0a1.2,1.2,0,0,1,.2-.19.21.21,0,0,0,.05-.12v0s-.15-.88-.45-2.53Z"/><path class="cls-2" d="M40,8.25l.16.05a1.16,1.16,0,0,1,.78.76,1.3,1.3,0,0,1,0,.76L41,10l-.75-.24c.07-.42,0-.68-.25-.75l-.07,0c-.22-.07-.4.06-.55.38l0,.06a1.67,1.67,0,0,0,.42,1.41.33.33,0,0,1,.06.2v0c0,.06-.07.1-.08.1h0s.09.13.28.31a.91.91,0,0,1,.22.67,1.18,1.18,0,0,1,0,.53,1.45,1.45,0,0,1-.85.95,1.36,1.36,0,0,1-.82,0,1.3,1.3,0,0,1-1-1.26,2.4,2.4,0,0,1,.09-.69l.75.23a1.27,1.27,0,0,0,0,.67.45.45,0,0,0,.29.31.51.51,0,0,0,.58-.22.74.74,0,0,0,.1-.22,1.41,1.41,0,0,0-.4-1.23,4.2,4.2,0,0,0-.42-.37l0,0a.58.58,0,0,0,.1-.12v0a1.58,1.58,0,0,0-.16-.51,1.7,1.7,0,0,1,0-.87l0-.13A1.18,1.18,0,0,1,40,8.25Z"/><path class="cls-2" d="M43,9.38l2.1,1.06-.38.73-1.35-.68-.67,1.32,1,.5-.08.16c0,.11-.19.16-.4.16l0,0a.72.72,0,0,1,.12.36l-1-.49,0,.11-.61,1.21,1.35.69-.38.73-2.09-1.06,1-2c0-.1,0-.23-.12-.4v-.05c.24,0,.38-.08.42-.16Z"/><path class="cls-2" d="M48.17,12.52a2.35,2.35,0,0,1-.24.5c-.58,1.14-.88,1.74-.93,1.8s-.16.09-.34.08l0,0c.11.26.13.44.06.53l-1,2L45,16.91l.59-1.11-.67-.5s-.15.11-.39.37l-.53.5-.68-.51L45,14.08h0c.06-.07,0-.19,0-.35l0,0a2.26,2.26,0,0,0,.42,0,8.87,8.87,0,0,0,1-.9l1-.89Zm-1.21.7c-.56.57-.86.87-.89.89a.56.56,0,0,1-.23,0c-.14,0-.22,0-.24,0a.43.43,0,0,1,0,.43l-.14.15.48.35a.5.5,0,0,0,0-.61v-.08c.2,0,.32,0,.36-.07l0-.05c.36-.66.55-1,.58-1Z"/><path class="cls-2" d="M51.06,15l.11.12a1.15,1.15,0,0,1,.31,1.05,1.46,1.46,0,0,1-.35.68L51,17l-.54-.58c.28-.34.33-.6.16-.78l0-.05c-.16-.17-.38-.15-.67.06l0,0a1.71,1.71,0,0,0-.32,1.44.3.3,0,0,1-.05.2h0q-.12,0-.12.06h0s0,.16.1.41a1,1,0,0,1-.14.69A1.25,1.25,0,0,1,49,19a1.41,1.41,0,0,1-1.2.41,1.43,1.43,0,0,1-.7-.42,1.29,1.29,0,0,1-.21-1.56,2.56,2.56,0,0,1,.42-.56l.53.57a1.22,1.22,0,0,0-.31.59.42.42,0,0,0,.09.41.55.55,0,0,0,.62.1,1.3,1.3,0,0,0,.2-.15,1.43,1.43,0,0,0,.25-1.27,4.1,4.1,0,0,0-.19-.53s0,0,0,0l.15-.05,0,0a1.38,1.38,0,0,0,.11-.53,1.74,1.74,0,0,1,.44-.75l.1-.09a1.25,1.25,0,0,1,1.33-.3A1.3,1.3,0,0,1,51.06,15Z"/><path class="cls-2" d="M53.82,18.48l.07.1a1.3,1.3,0,0,1,0,1.35,1.41,1.41,0,0,1-.36.37L52.45,21c-.12.08-.27.06-.46-.06h0a1.23,1.23,0,0,0,0,.28.3.3,0,0,1-.13.18L51,22a1.25,1.25,0,0,1-1.39,0,1.45,1.45,0,0,1-.39-.39,1.31,1.31,0,0,1,0-1.41,1.4,1.4,0,0,1,.37-.36l.81-.54a.35.35,0,0,0,.13-.41l0-.07c.23.09.37.11.44.07l.09-.05,1-.68a1.29,1.29,0,0,1,1.32,0A1.33,1.33,0,0,1,53.82,18.48Zm-1.31.34-1,.67a.37.37,0,0,1-.43,0H51a1.37,1.37,0,0,0,0,.27.29.29,0,0,1-.14.2l-.81.53a.46.46,0,0,0-.18.54l0,.08.06.08a.4.4,0,0,0,.27.16.49.49,0,0,0,.34-.07l.78-.52a.38.38,0,0,0,.16-.42.15.15,0,0,0,0-.07s.11,0,.22.07a.34.34,0,0,0,.32,0l1-.65a.46.46,0,0,0,.19-.57L53.16,19a.45.45,0,0,0-.56-.17Z"/><path class="cls-2" d="M55.35,21.14l.37.84a2,2,0,0,1-.36.31c-1.07.9-1.61,1.36-1.64,1.37l0,0c-.07,0-.17,0-.29-.08h0l0,0-.06.34c0,.1-.16.25-.42.44h0l.34-.15a.38.38,0,0,0,.21-.39l0-.05h0a1.28,1.28,0,0,0,.29.16.25.25,0,0,0,.13,0l2.29-1,.33.76-2.19,1a.37.37,0,0,1-.42,0l-.13-.09a.66.66,0,0,0-.08.27c0,.1-.09.15-.14.17l-2,.88-.35-.82c.1-.08.71-.61,1.81-1.59a1.13,1.13,0,0,0,.11-.48l0,0c.13.09.24.12.32.08a4.81,4.81,0,0,0,.44-.36h0l-.38.16a.4.4,0,0,1-.45-.11H53a2,2,0,0,0-.06.27.32.32,0,0,1-.19.17l-2,.87-.33-.77,2-.88c.1,0,.15-.16.15-.34l0-.06s.11,0,.22.1a.35.35,0,0,0,.26,0Z"/><path class="cls-5" d="M44.5,39.24l-3.37-2,3-1.81a.5.5,0,0,0,.18-.67.48.48,0,0,0-.66-.18l-3.5,2.09L37.5,35.07l3.4-2a.53.53,0,0,0,.24-.23.43.43,0,0,0,0-.4.62.62,0,0,0-.24-.24l-3.4-2,2.67-1.59,3.5,2.09a.49.49,0,0,0,.66-.18.51.51,0,0,0-.18-.68l-3-1.8,3.37-2a.5.5,0,0,0,.18-.66.47.47,0,0,0-.65-.18l-3.38,2v-3.6a.48.48,0,1,0-.95,0v4.17L37,29.34l0-4A.77.77,0,0,0,37,25a.49.49,0,0,0-.66-.15L33.11,27V23.81l3.49-2.08a.5.5,0,0,0,.18-.67.48.48,0,0,0-.65-.18l-3,1.8v-4a.48.48,0,1,0-1,0v4l-3-1.8a.48.48,0,0,0-.65.18.5.5,0,0,0,.18.67l3.49,2.08V27l-3.21-2.13a.47.47,0,0,0-.65.15.66.66,0,0,0-.08.34l0,4-2.67-1.59V23.58a.48.48,0,1,0-.95,0v3.6l-3.38-2a.45.45,0,0,0-.64.18.48.48,0,0,0,.17.66l3.37,2-3,1.8a.51.51,0,0,0-.18.68.49.49,0,0,0,.66.18l3.5-2.09,2.67,1.59-3.4,2a.62.62,0,0,0-.24.24.43.43,0,0,0,0,.4.53.53,0,0,0,.24.23l3.4,2-2.67,1.59-3.5-2.09a.48.48,0,0,0-.66.18.5.5,0,0,0,.18.67l3,1.81-3.37,2a.5.5,0,0,0-.17.67.46.46,0,0,0,.64.18l3.38-2v3.6a.48.48,0,1,0,.95,0V37.51l2.67-1.59,0,4a.68.68,0,0,0,.08.34.46.46,0,0,0,.65.14l3.21-2.12v3.14l-3.49,2.08a.5.5,0,0,0-.18.67.47.47,0,0,0,.65.18l3-1.8v4a.48.48,0,1,0,1,0v-4l3,1.8a.47.47,0,0,0,.65-.18.5.5,0,0,0-.18-.67l-3.49-2.08V38.31l3.21,2.12a.47.47,0,0,0,.66-.14.8.8,0,0,0,.07-.34l0-4,2.67,1.59v4.17a.48.48,0,1,0,.95,0v-3.6l3.38,2a.48.48,0,0,0,.65-.18A.51.51,0,0,0,44.5,39.24ZM28.71,34.5l-3.17-1.87,3.17-1.87,3.11,1.87Zm3.44,2.64-3,2,0-3.77,3-1.78Zm0-5.46-3-1.77,0-3.77,3,2Zm1-3.56,3-2,0,3.77-3,1.77Zm0,9V33.57l3,1.78,0,3.77Zm3.45-2.64-3.12-1.87,3.12-1.87,3.16,1.87Z"/><path class="cls-3" d="M32.67,17.89a.4.4,0,0,0-.15,0l.36,0A.46.46,0,0,0,32.67,17.89Z"/><path class="cls-1" d="M32.63,15.07A17.56,17.56,0,1,0,50.19,32.63,17.56,17.56,0,0,0,32.63,15.07Zm0,33.81A16.25,16.25,0,1,1,48.88,32.63,16.26,16.26,0,0,1,32.63,48.88Z"/><path class="cls-6" d="M32.63,16.38A16.25,16.25,0,1,0,48.88,32.63,16.26,16.26,0,0,0,32.63,16.38Zm0,1.51a.46.46,0,0,1,.21.05l-.36,0A.4.4,0,0,1,32.67,17.89Zm12,22a.48.48,0,0,1-.65.18l-3.38-2v3.6a.48.48,0,1,1-.95,0V37.51L37,35.92l0,4a.8.8,0,0,1-.07.34.47.47,0,0,1-.66.14l-3.21-2.12v3.14l3.49,2.08a.5.5,0,0,1,.18.67.47.47,0,0,1-.65.18l-3-1.8v4a.48.48,0,1,1-1,0v-4l-3,1.8a.47.47,0,0,1-.65-.18.5.5,0,0,1,.18-.67l3.49-2.08V38.31l-3.21,2.12a.46.46,0,0,1-.65-.14.68.68,0,0,1-.08-.34l0-4-2.67,1.59v4.17a.48.48,0,1,1-.95,0v-3.6l-3.38,2a.46.46,0,0,1-.64-.18.5.5,0,0,1,.17-.67l3.37-2-3-1.81a.5.5,0,0,1-.18-.67.48.48,0,0,1,.66-.18l3.5,2.09,2.67-1.59-3.4-2a.53.53,0,0,1-.24-.23.43.43,0,0,1,0-.4.62.62,0,0,1,.24-.24l3.4-2L25.09,28.6l-3.5,2.09a.49.49,0,0,1-.66-.18.51.51,0,0,1,.18-.68l3-1.8-3.37-2a.48.48,0,0,1-.17-.66.45.45,0,0,1,.64-.18l3.38,2v-3.6a.48.48,0,1,1,.95,0v4.17l2.67,1.59,0-4a.66.66,0,0,1,.08-.34.47.47,0,0,1,.65-.15L32.15,27V23.81l-3.49-2.08a.5.5,0,0,1-.18-.67.48.48,0,0,1,.65-.18l3,1.8v-4a.48.48,0,1,1,1,0v4l3-1.8a.48.48,0,0,1,.65.18.5.5,0,0,1-.18.67l-3.49,2.08V27l3.21-2.13A.49.49,0,0,1,37,25a.77.77,0,0,1,.07.34l0,4,2.67-1.59V23.58a.48.48,0,1,1,.95,0v3.6l3.38-2a.47.47,0,0,1,.65.18.5.5,0,0,1-.18.66l-3.37,2,3,1.8a.51.51,0,0,1,.18.68.49.49,0,0,1-.66.18l-3.5-2.09L37.5,30.19l3.4,2a.62.62,0,0,1,.24.24.43.43,0,0,1,0,.4.53.53,0,0,1-.24.23l-3.4,2,2.67,1.59,3.5-2.09a.48.48,0,0,1,.66.18.5.5,0,0,1-.18.67l-3,1.81,3.37,2A.51.51,0,0,1,44.68,39.91Z"/><polygon class="cls-6" points="29.18 29.91 32.15 31.68 32.15 28.12 29.16 26.14 29.18 29.91"/><polygon class="cls-6" points="36.1 26.14 33.11 28.12 33.11 31.68 36.08 29.91 36.1 26.14"/><polygon class="cls-6" points="36.56 30.76 33.44 32.63 36.56 34.5 39.72 32.63 36.56 30.76"/><polygon class="cls-6" points="33.11 33.57 33.11 37.14 36.1 39.12 36.08 35.35 33.11 33.57"/><polygon class="cls-6" points="29.16 39.12 32.15 37.14 32.15 33.57 29.18 35.35 29.16 39.12"/><polygon class="cls-6" points="28.71 30.76 25.54 32.63 28.71 34.5 31.82 32.63 28.71 30.76"/></g></g></svg>