<svg xmlns="http://www.w3.org/2000/svg" viewBox="0 0 72.7 78.06"><defs><style>.cls-1{fill:#b6dffc;}.cls-2{fill:#324b58;}.cls-3{fill:#ff7c96;}.cls-5{fill:#fff;}</style></defs><title>Holidays-16</title><g id="Calque_2" data-name="Calque 2"><g id="Planche_Vacance_-_20" data-name="Planche Vacance - 20"><path class="cls-1" d="M43.82,14.23a6.18,6.18,0,0,1-1.87,0l.12-.16L41.85,14l1-.61a1.21,1.21,0,0,1,.75-.11l.92.1a15.54,15.54,0,0,0-30.93,2.15,14.88,14.88,0,0,0,.09,1.64,2.39,2.39,0,0,1,.67.45,2.13,2.13,0,0,0,1.34.53l.84.08c.44.06.56.45.75.76,0,0,0,.19-.09.21a3,3,0,0,1-.65.18c-.31.05-.62.07-.93.09a1.24,1.24,0,0,1-.33,0,1.07,1.07,0,0,0-.3-.06c-.45,0-.47.07-.62.52a2,2,0,0,1-.08.22,15.54,15.54,0,0,0,23.93,8c-.11-.4-.22-.79-.32-1.19a9.31,9.31,0,0,1-.17-1.18,1.62,1.62,0,0,0,0-.31,1,1,0,0,0-.62-.81,7.62,7.62,0,0,1-1.06-.55A2.87,2.87,0,0,0,34,23.79a3.42,3.42,0,0,1-1.46.1c-.16,0-.33,0-.58,0l.32-.2-.46,0,.29-.15a3.15,3.15,0,0,0,.55-.28,1.37,1.37,0,0,1,1-.25c.53,0,1.06.1,1.58.1a2.91,2.91,0,0,0,1.83-.5,3.72,3.72,0,0,1,.38-.22c.13-.42-.19-.7-.39-1.07a2.34,2.34,0,0,1,.46-.07,4.32,4.32,0,0,1,.87.17c.85.28,1.7.59,2.55.89a3,3,0,0,1,.31.15.69.69,0,0,1,.42.82.84.84,0,0,0,.54.87,15.51,15.51,0,0,0,2.55-8.54q0-.67-.06-1.35A3.25,3.25,0,0,0,43.82,14.23Zm-5,1a1.07,1.07,0,0,1-.25,0c-.21,0-.43-.08-.64-.09a1.73,1.73,0,0,1-.91-.27c-.28-.2-.49-.11-.73.15a2.82,2.82,0,0,1-.7.59,1.75,1.75,0,0,1-.7.11c-.38,0-.76,0-1.14.08a1.83,1.83,0,0,0-.42.13.59.59,0,0,1-.32-.56.94.94,0,0,0-.1-.31c0-.07-.11-.14-.11-.21,0-.39-.3-.5-.6-.61a6.25,6.25,0,0,1-1.7-1.05,1.78,1.78,0,0,0-1.28-.44,6,6,0,0,1-1.79-.23c-.09,0-.16-.15-.23-.21l1.09-.47a1.42,1.42,0,0,1,1.09,0c.46.18.9.38,1.36.55a1.14,1.14,0,0,0,1.35-.25,1.62,1.62,0,0,0-.67-1.06.87.87,0,0,1-.21-.17c-.21-.26-.26-.61-.51-.88a2.07,2.07,0,0,1-.34-.93c-.12-.48-.21-1-.3-1.47,0-.13,0-.25-.07-.43.35.14.32.49.53.74v-.7c.33.2.31.53.44.84l.13-.62c.31.15.28.45.4.7l.24-.31c.22.06.23.25.31.42l.21-.1a10.37,10.37,0,0,1,1,.77,12,12,0,0,1,.87,1c0,.52.5.7.79,1a1.79,1.79,0,0,1,.63,1.31c.17.22.19.55.5.68a6.93,6.93,0,0,1,1.45.88,1.46,1.46,0,0,0,.53.22,1.78,1.78,0,0,1,1,.58l-.81-.05C38.36,14.87,38.74,14.84,38.78,15.2Z"/><path class="cls-2" d="M72.32,30.16a.57.57,0,0,0-.14-.13l-.59-.3L70,28.87s0,0,0-.11c.19-.12.39-.25.6-.36a1.28,1.28,0,0,0,.64-1.25c0-.4-.28-.72-.3-1.11a.06.06,0,0,0,0-.05c-.23,0-.1-.21-.19-.27-.26.09-.36.39-.71.41a3.73,3.73,0,0,0,.17-.37c0-.12.06-.25.09-.37l-.08,0c-.25.24-.32.63-.72.83.07-.22.13-.39.17-.56a.44.44,0,0,0-.09-.51c-.21.39-.16.86-.51,1.19,0-1,0-1-.23-1.23l0,.7L68,24.85a2.68,2.68,0,0,1-.18-.33,3.2,3.2,0,0,0-.86-1.19c-.05,0-.07-.1-.11-.15-.2-.27-.4-.55-.61-.82,0,0-.07-.09-.11-.1a.73.73,0,0,1-.38-.41c-.08-.15-.17-.3-.38-.2-.12-.18-.14-.41-.38-.5l-.2.59c-.17-.36-.07-.78-.47-1,0,.35-.06.65-.08.94-.22-.32-.12-.77-.54-1,0,.25,0,.44,0,.63s.08.56.08.85a1.9,1.9,0,0,1-.08.83,1,1,0,0,0,0,.67,3.61,3.61,0,0,0,.46,1,5.86,5.86,0,0,1,.4,1.11s.07.08.1.12a5.39,5.39,0,0,1,.34.68,8.21,8.21,0,0,1,.18.83c.09.4.09.5-.37.68a3,3,0,0,1-1.63.2c-.46-.09-.92-.21-1.38-.33a1.53,1.53,0,0,0-1-.05c-.42.17-.82.39-1.25.6l.29.07-.27.15a9.56,9.56,0,0,0,1.78.16,3.73,3.73,0,0,1,1.45.12c.42.12.83.28,1.24.43l2.41.84a2.73,2.73,0,0,0,.75.17,13.5,13.5,0,0,0,2.77,0,3.93,3.93,0,0,1,.84,0c.18,0,.35.08.53.09s.67,0,1,0l.24,0A4.26,4.26,0,0,0,72.32,30.16Z"/><path class="cls-2" d="M15,19.38a1.07,1.07,0,0,1,.3.06,1.24,1.24,0,0,0,.33,0c.31,0,.62,0,.93-.09a3,3,0,0,0,.65-.18c.05,0,.12-.17.09-.21-.19-.31-.31-.7-.75-.76l-.84-.08a2.13,2.13,0,0,1-1.34-.53,2.39,2.39,0,0,0-.67-.45l-.17-.07c-.51-.21-1-.39-1.54-.64a2.88,2.88,0,0,0-2.45.17,3,3,0,0,1-1.3.25c-.76-.06-1.51-.16-2.27-.23a1.21,1.21,0,0,0-.75.08l-1.14.64.15.08-.06.15c.14,0,.27,0,.39,0a4,4,0,0,0,1.73-.09l.34-.05a3.17,3.17,0,0,1,2.26.62c-.06.34-.12.66-.18,1l.31.06c0,.16,0,.29.07.46l.37-.16.21.44.38-.49c0,.17.1.29.07.37a2.77,2.77,0,0,0-.08,1.11A4.63,4.63,0,0,1,10,22.12a4.4,4.4,0,0,0-.13,1c0,.92,0,1.85.05,2.78a1.77,1.77,0,0,0,.05.32l.29,0c0,.19.06.36.09.53h.09c.07-.12.15-.23.24-.37l.18.51c.31-.33.15-.73.3-1.06.16.17.1.44.34.53.08-.17.1-.39.22-.49a.74.74,0,0,0,.2-.86c.39,0,.39,0,.49-.36a1.57,1.57,0,0,1,.1-.28l.18-.41c0-.06,0-.13.07-.18a3.2,3.2,0,0,0,.43-1.2,1.68,1.68,0,0,1,.19-.53,9.72,9.72,0,0,0,.93-1.92,2,2,0,0,0,.08-.22C14.54,19.45,14.56,19.41,15,19.38Z"/><path class="cls-2" d="M51.55,14.1a6,6,0,0,0,.49-.69c.19-.34.25-.39.59-.34a4.55,4.55,0,0,0,.53,0c.05-.23-.11-.25-.24-.29-.38-.13-.76-.25-1.13-.4a2.27,2.27,0,0,1-.46-.29c.24-.09.21-.2.15-.33a.58.58,0,0,1,0-.14c.13,0,.08-.11.08-.2s0-.33,0-.49a3.29,3.29,0,0,0-.11-1,.46.46,0,0,1,0-.33A4.47,4.47,0,0,0,52,8a1.55,1.55,0,0,0,0-.43l-.23-.13.14-.24L51.54,7c.2-.28-.08-.26-.19-.34s.07-.21.12-.36a2.44,2.44,0,0,0-.36.1c-.49.22-1,.46-1.47.69a9.11,9.11,0,0,0-1.91,1.65s0,.09-.08.13a.51.51,0,0,0-.09.54,3.89,3.89,0,0,1,0,2.5,2.32,2.32,0,0,1-1.21,1.34,1.52,1.52,0,0,1-.92.22l-.88-.1-.92-.1a1.21,1.21,0,0,0-.75.11l-1,.61.22.05-.12.16a6.18,6.18,0,0,0,1.87,0,3.25,3.25,0,0,1,.82,0,5,5,0,0,1,2.1.56,7.15,7.15,0,0,0,4.66.83,1.21,1.21,0,0,1,.65.05,1.51,1.51,0,0,0,.52.06,3,3,0,0,1,.5,0c.43.09.73-.19,1.1-.3A2.83,2.83,0,0,0,53,14.72C52.51,14.55,52.05,14.32,51.55,14.1Z"/><path class="cls-2" d="M38,14.07a1.46,1.46,0,0,1-.53-.22A6.93,6.93,0,0,0,36,13c-.31-.13-.33-.46-.5-.68A1.79,1.79,0,0,0,34.91,11c-.29-.32-.76-.5-.79-1a12,12,0,0,0-.87-1,10.37,10.37,0,0,0-1-.77l-.21.1c-.08-.17-.09-.36-.31-.42l-.24.31c-.12-.25-.09-.55-.4-.7l-.13.62c-.13-.31-.11-.64-.44-.84V8c-.21-.25-.18-.6-.53-.74,0,.18,0,.3.07.43.09.49.18,1,.3,1.47a2.07,2.07,0,0,0,.34.93c.25.27.3.62.51.88a.87.87,0,0,0,.21.17,1.62,1.62,0,0,1,.67,1.06,1.14,1.14,0,0,1-1.35.25c-.46-.17-.9-.37-1.36-.55a1.42,1.42,0,0,0-1.09,0l-1.09.47c.07.06.14.19.23.21a6,6,0,0,0,1.79.23,1.78,1.78,0,0,1,1.28.44,6.25,6.25,0,0,0,1.7,1.05c.3.11.59.22.6.61,0,.07.08.14.11.21a.94.94,0,0,1,.1.31.59.59,0,0,0,.32.56,1.83,1.83,0,0,1,.42-.13c.38,0,.76,0,1.14-.08a1.75,1.75,0,0,0,.7-.11,2.82,2.82,0,0,0,.7-.59c.24-.26.45-.35.73-.15a1.73,1.73,0,0,0,.91.27c.21,0,.43.07.64.09a1.07,1.07,0,0,0,.25,0c0-.36-.42-.33-.61-.6l.81.05A1.78,1.78,0,0,0,38,14.07Z"/><path class="cls-2" d="M41.61,23.21a.69.69,0,0,0-.42-.82,3,3,0,0,0-.31-.15c-.85-.3-1.7-.61-2.55-.89a4.32,4.32,0,0,0-.87-.17,2.34,2.34,0,0,0-.46.07c.2.37.52.65.39,1.07a3.72,3.72,0,0,0-.38.22,2.91,2.91,0,0,1-1.83.5c-.52,0-1-.06-1.58-.1a1.37,1.37,0,0,0-1,.25,3.15,3.15,0,0,1-.55.28l-.29.15.46,0-.32.2c.25,0,.42,0,.58,0a3.42,3.42,0,0,0,1.46-.1,2.87,2.87,0,0,1,2.09.32,7.62,7.62,0,0,0,1.06.55,1,1,0,0,1,.62.81,1.62,1.62,0,0,1,0,.31A9.31,9.31,0,0,0,37.92,27c.1.4.21.79.32,1.19.17.58.34,1.17.49,1.75a.76.76,0,0,0,.44.56c0-.18,0-.33.07-.53.09.19.14.33.2.46h.08c0-.22,0-.44,0-.68l.19.17c.09-.2.25-.38.25-.56,0-.4.31-.71.29-1.1a.43.43,0,0,1,0-.19,2.4,2.4,0,0,0,.18-1.34,1,1,0,0,1,0-.58,0,0,0,0,0,0,0,8.71,8.71,0,0,0,.75-.86.55.55,0,0,1,.51,0,1.14,1.14,0,0,0,.85.13,1.19,1.19,0,0,1,.46,0,.87.87,0,0,0,.78-.29c-.54-.78-.77-.93-1.56-.95a.45.45,0,0,1-.2,0A.84.84,0,0,1,41.61,23.21Z"/><path class="cls-3" d="M5.14,38.14c1.41.43,2.16.63,3.69,1v4.5L7.9,43.5V59.66l.93-.16V64c-1.53.38-2.28.59-3.69,1V60.16L6,60V53.25l-3.64.16v7.34l.82-.18v5.08c-1.34.46-2,.7-3.19,1.2V61.34l.74-.2V42.06L0,41.88V36.34c1.21.49,1.85.73,3.19,1.18v5.1l-.82-.17v6L6,48.66V43.18L5.14,43Z"/><path class="cls-3" d="M14.5,63.17A1.92,1.92,0,0,1,13.23,63a3.18,3.18,0,0,1-1.11-1,7.42,7.42,0,0,1-.92-1.74,14.75,14.75,0,0,1-.7-2.41,26.32,26.32,0,0,1-.44-3,32.51,32.51,0,0,1-.16-3.34,32.91,32.91,0,0,1,.16-3.36,26.32,26.32,0,0,1,.44-3,14.47,14.47,0,0,1,.7-2.41,7.3,7.3,0,0,1,.92-1.75,3.18,3.18,0,0,1,1.11-1,1.92,1.92,0,0,1,1.27-.18,2.88,2.88,0,0,1,1.3.64A6.59,6.59,0,0,1,17,41.88a10.83,10.83,0,0,1,1,1.86A16.59,16.59,0,0,1,18.75,46a20.42,20.42,0,0,1,.51,2.63,24.54,24.54,0,0,1,.17,2.89,24.49,24.49,0,0,1-.17,2.88,20.42,20.42,0,0,1-.51,2.63A16.59,16.59,0,0,1,18,59.35a10.13,10.13,0,0,1-1,1.86,6.39,6.39,0,0,1-1.17,1.32A2.88,2.88,0,0,1,14.5,63.17Zm0-4.64a1.57,1.57,0,0,0,1-.66,5.49,5.49,0,0,0,.83-1.55,11.77,11.77,0,0,0,.54-2.18,16.43,16.43,0,0,0,.19-2.59,16.65,16.65,0,0,0-.19-2.6,11.86,11.86,0,0,0-.55-2.19,5.29,5.29,0,0,0-.83-1.54,1.54,1.54,0,0,0-1-.66,1.15,1.15,0,0,0-1,.45,4.2,4.2,0,0,0-.79,1.47,11.81,11.81,0,0,0-.51,2.27,20.8,20.8,0,0,0,0,5.61,12.05,12.05,0,0,0,.51,2.26,4.14,4.14,0,0,0,.79,1.46A1.15,1.15,0,0,0,14.5,58.53Z"/><path class="cls-3" d="M20.82,41.29c1.82.22,2.76.32,4.66.48v3.55l-1.17-.07v12.6l2.42-.13a.28.28,0,0,0,.19-.1.82.82,0,0,0,.16-.26A1.61,1.61,0,0,0,27.2,57a1.45,1.45,0,0,0,0-.35V54.1l2.43,0v7c-3.66.2-5.45.36-8.85.78V58.1L21.93,58V45.1L20.82,45Z"/><path class="cls-3" d="M30.69,42.11c2,.09,3,.12,5,.14v3.36H34.45V57.49l1.25,0v3.36c-2,0-3,.05-5,.14v-3.4l1.2,0v-12l-1.2,0Z"/><path class="cls-3" d="M36.73,42.26c1.83,0,2.72,0,4.49,0a3.57,3.57,0,0,1,1.52.28,4.74,4.74,0,0,1,1.34.89,6.9,6.9,0,0,1,1.12,1.43,9.83,9.83,0,0,1,.85,1.88A13.71,13.71,0,0,1,46.6,49a17.27,17.27,0,0,1,0,5.11,13.59,13.59,0,0,1-.55,2.28,9.75,9.75,0,0,1-.85,1.9,6.71,6.71,0,0,1-1.12,1.44,4.39,4.39,0,0,1-1.34.9,3.58,3.58,0,0,1-1.52.29c-1.77-.05-2.66-.06-4.49-.06V57.47h1V45.63h-1Zm3.51,3.35V57.49h1a1.72,1.72,0,0,0,1.16-.44,4,4,0,0,0,1-1.27,8.46,8.46,0,0,0,.63-1.9,11.76,11.76,0,0,0,.23-2.37A11.56,11.56,0,0,0,44,49.17a8.64,8.64,0,0,0-.63-1.9,3.87,3.87,0,0,0-1-1.24,1.77,1.77,0,0,0-1.16-.44Z"/><path class="cls-3" d="M53.61,58.09l1,.08c-.19-1.21-.28-1.81-.47-3-1.28-.06-1.94-.09-3.26-.13-.19,1.13-.29,1.7-.49,2.82l1.14.08v3.62c-1.62-.18-2.45-.25-4.13-.37V57.7l.82,0c1.2-6.3,1.79-9.51,3-16.16,1.14-.12,1.7-.18,2.81-.32,1.11,6.61,1.66,10,2.74,17.11l.73.07v3.89c-1.52-.24-2.3-.35-3.89-.54Zm-2.13-6.41h2.14c-.43-2.67-.64-4-1.07-6.59C52.12,47.77,51.91,49.08,51.48,51.68Z"/><path class="cls-3" d="M57,40.86c1.73-.26,2.58-.41,4.22-.72v4.14l-.81.1c.52,2,.77,3,1.28,5.13.54-2.13.81-3.22,1.33-5.46l-.89.12V40c1.61-.33,2.4-.5,3.9-.88v4.53l-.65.1c-1.06,4.15-1.61,6.11-2.72,9.85V59l1.13.16v4.32c-1.64-.36-2.49-.54-4.23-.85v-4l1.07.12V53.43C59.52,49.76,59,48,57.85,44.65l-.88.09Z"/><path class="cls-3" d="M70.88,45.52a8.33,8.33,0,0,0-.13-1.19,5.06,5.06,0,0,0-.26-.93,1.87,1.87,0,0,0-.36-.57.47.47,0,0,0-.43-.15.75.75,0,0,0-.38.22,1.29,1.29,0,0,0-.31.49,3.89,3.89,0,0,0-.22.78,6.85,6.85,0,0,0-.08,1.09,5.65,5.65,0,0,0,.11,1.24,2.66,2.66,0,0,0,.27.73,1.54,1.54,0,0,0,.37.45,2.55,2.55,0,0,1,.38.36c.59.61.87.93,1.44,1.58a4.05,4.05,0,0,1,.54,1,9.34,9.34,0,0,1,.43,1.6,22,22,0,0,1,.29,2.2c.07.84.1,1.77.1,2.81a33.14,33.14,0,0,1-.2,3.79,14.65,14.65,0,0,1-.56,2.8,3.68,3.68,0,0,1-.9,1.59,1.11,1.11,0,0,1-1.18.27,2,2,0,0,1-.89-.63,4.87,4.87,0,0,1-.77-1.2,10.06,10.06,0,0,1-.63-1.67,14.12,14.12,0,0,1-.42-2.06L66.5,60V55l2,.15v1.08a13.25,13.25,0,0,0,.08,1.46,8.16,8.16,0,0,0,.24,1.18,2.74,2.74,0,0,0,.4.84.91.91,0,0,0,.55.38c.32.06.56-.14.72-.61a8.29,8.29,0,0,0,.16-3.24,4.33,4.33,0,0,0-.22-.8,2.28,2.28,0,0,0-.31-.56q-.16-.23-.33-.42c-.49-.56-.73-.84-1.24-1.37a4.06,4.06,0,0,1-.69-1,7,7,0,0,1-.6-1.53,13.1,13.1,0,0,1-.42-2.11,20.64,20.64,0,0,1-.16-2.76,21.54,21.54,0,0,1,.23-3.26,12.91,12.91,0,0,1,.63-2.54,6.36,6.36,0,0,1,1-1.77,2.47,2.47,0,0,1,1.18-.89,1,1,0,0,1,.91.09,2.29,2.29,0,0,1,.73.82,5.68,5.68,0,0,1,.53,1.37,12.62,12.62,0,0,1,.34,1.73l.49-.13v5.79l-1.82.2Z"/><polygon class="cls-3" points="10.51 73.16 11.21 74.58 12.77 74.81 11.64 75.91 11.91 77.47 10.51 76.74 9.1 77.47 9.37 75.91 8.24 74.81 9.8 74.58 10.51 73.16"/><polygon class="cls-3" points="62.19 73.16 62.9 74.58 64.46 74.81 63.33 75.91 63.59 77.47 62.19 76.74 60.79 77.47 61.06 75.91 59.93 74.81 61.49 74.58 62.19 73.16"/><path class="cls-5" d="M18.91,73.29h1.55v.54H20v3.69h.46v.54H18.91v-.54h.48V75.8H16.63v1.72h.48v.54H15.56v-.54H16V73.83h-.45v-.54h1.55v.54h-.48v1.44h2.76V73.83h-.48Z"/><path class="cls-5" d="M24.18,77.52h.39l-.38-1.09H22.36L22,77.52h.49v.54H20.94v-.54h.41l1.49-4.23h.92l1.48,4.23h.48v.54H24.18Zm-1.64-1.61H24l-.74-2.13Z"/><path class="cls-5" d="M26.2,73.29h1.93a2.16,2.16,0,0,1,.59.08,1.41,1.41,0,0,1,.47.25,1.08,1.08,0,0,1,.3.4,1.4,1.4,0,0,1,.11.56,1.17,1.17,0,0,1-.11.49,1.21,1.21,0,0,1-.3.41,1.53,1.53,0,0,1-.47.27,1.64,1.64,0,0,1-.6.1h-.85v1.67h.48v.54H26.2v-.54h.46V73.83H26.2Zm1.07.54v1.5h.86a.88.88,0,0,0,.33,0,.72.72,0,0,0,.26-.14.66.66,0,0,0,.17-.23.88.88,0,0,0,.06-.33.71.71,0,0,0-.21-.55,1,1,0,0,0-.69-.2Z"/><path class="cls-5" d="M30.21,73.29h1.92a2.16,2.16,0,0,1,.59.08,1.41,1.41,0,0,1,.47.25,1.08,1.08,0,0,1,.3.4,1.25,1.25,0,0,1,.11.56,1,1,0,0,1-.11.49,1.21,1.21,0,0,1-.3.41,1.6,1.6,0,0,1-.46.27,1.74,1.74,0,0,1-.61.1h-.85v1.67h.48v.54H30.21v-.54h.45V73.83h-.45Zm1.06.54v1.5h.86a.88.88,0,0,0,.33,0,.72.72,0,0,0,.26-.14.66.66,0,0,0,.17-.23.88.88,0,0,0,.06-.33.71.71,0,0,0-.21-.55,1,1,0,0,0-.69-.2Z"/><path class="cls-5" d="M33.92,73.29h1.54v.54H35l.9,1.53,1-1.53h-.5v-.54h1.55v.54h-.41l-1.34,2v1.66h.49v.54H35.11v-.54h.44V75.85l-1.26-2h-.37Z"/><path class="cls-5" d="M40.85,77.52h.44V73.81H40.2v.74h-.65V73.29H43.8v1.26h-.64v-.74H41.9v3.71h.49v.54H40.85Z"/><path class="cls-5" d="M44.38,73.29H45.9v.54h-.45v3.69h.45v.54H44.38v-.54h.46V73.83h-.46Z"/><path class="cls-5" d="M46.8,77.52h.46V73.89H46.8v-.6h1.51l1.52,4.12,1.53-4.12h1.43v.6h-.45v3.63h.45v.54H51.24v-.54h.51V73.86l-1.67,4.2h-.53l-1.69-4.21v3.67h.49v.54H46.8Z"/><path class="cls-5" d="M53.69,73.29H57.1v1.35h-.64v-.81h-1.7v1.53h1.43v.54H54.76v1.62h1.7v-.81h.64v1.35H53.69v-.54h.45V73.83h-.45Z"/></g></g></svg>