<svg xmlns="http://www.w3.org/2000/svg" viewBox="0 0 83.19 92.72"><defs><style>.cls-1{fill:#ff7c96;}.cls-2{fill:#324b58;}.cls-3{fill:#b6dffc;}.cls-5{fill:#ffffff;}.cls-6{fill:#000000;opacity:0.4;}</style></defs><title>Holidays-02</title><g id="Calque_2" data-name="Calque 2"><g id="Planche_Vacance_-_03" data-name="Planche Vacance - 03"><path class="cls-1" d="M2.75,66.44,4,66.18q.15-6.65.31-13.28L2.75,53l0,2.71L0,55.88V49.29H11.86l-.3,5.8-2.78.16c.05-1,.07-1.52.11-2.53l-1.77.07q-.24,6.43-.47,12.87L8,65.42,7.8,69c-2.09.46-3.12.7-5.12,1.24C2.71,68.7,2.72,68,2.75,66.44Z"/><path class="cls-1" d="M13.1,49.29H20a3.73,3.73,0,0,1,1.77.41,3.92,3.92,0,0,1,1.28,1.07,4.64,4.64,0,0,1,.74,1.55,5.63,5.63,0,0,1,.2,1.84,8.2,8.2,0,0,1-.23,1.55,5.1,5.1,0,0,1-.48,1.19,4.61,4.61,0,0,1-.73,1,6.22,6.22,0,0,1-1,.77,2.16,2.16,0,0,1,.74.87,5.13,5.13,0,0,1,.43,1.56c.13.89.19,1.34.32,2.23l1.11-.09L24,66.55c-1.58.14-2.37.22-3.92.4C20,65.3,20,64.47,19.84,62.8a7.19,7.19,0,0,0-.16-1.27,2.23,2.23,0,0,0-.38-.85,1.33,1.33,0,0,0-.62-.46,2.19,2.19,0,0,0-.91-.09l-1.11.09c-.09,1.58-.14,2.37-.23,4l1.2-.14-.2,3.25c-2.17.3-3.24.47-5.34.84.07-1.36.11-2,.18-3.4l1.32-.19q.35-5.94.67-11.87l-1.35,0C13,51.34,13,50.66,13.1,49.29Zm4,3.3c-.1,1.76-.16,2.64-.26,4.4.69-.05,1-.07,1.72-.1a3.13,3.13,0,0,0,.89-.18,1.85,1.85,0,0,0,.7-.42,2,2,0,0,0,.47-.68,2.66,2.66,0,0,0,.21-1,2.07,2.07,0,0,0-.45-1.58,2,2,0,0,0-1.57-.53Z"/><path class="cls-1" d="M32.66,63l1.4,0c-.24-1-.36-1.44-.59-2.4-1.7,0-2.54,0-4.22.11-.28,1-.42,1.47-.71,2.46L30,63.11l-.1,3c-2.13.1-3.18.17-5.25.35.06-1.25.09-1.87.16-3.11l1-.07q2.14-7,4.22-14h3.45Q35.13,56.16,37,63h1c0,1.2,0,1.81,0,3-2.17,0-3.27,0-5.41.06C32.62,64.84,32.64,64.23,32.66,63Zm-2.6-5.18,2.74-.06c-.51-2.17-.75-3.26-1.23-5.44C31,54.53,30.68,55.63,30.06,57.84Z"/><path class="cls-1" d="M44.65,49.29h5.58c.07,1.27.1,1.9.17,3.16l-1.17,0q-1.4,6.95-2.93,13.86c-1.5-.1-2.26-.14-3.78-.19q-2-6.87-3.81-13.78H37.43c0-1.21,0-1.81,0-3H43l.1,3.06H41.7c.85,3.21,1.74,6.4,2.64,9.6q1-4.77,1.95-9.56H44.77C44.72,51.14,44.69,50.52,44.65,49.29Z"/><path class="cls-1" d="M51.38,49.29H61.76c.13,2.6.19,3.9.32,6.49l-2.78-.16c0-1-.08-1.58-.14-2.63-1.34-.05-2-.07-3.34-.1l.2,3.55,2.59.16.2,3.52-2.58-.23c.09,1.67.14,2.51.24,4.18,1.34.15,2,.24,3.33.42-.07-1.32-.11-2-.18-3.29,1.11.11,1.66.17,2.75.3l.35,6.82c-3.43-.65-6.89-1.15-10.36-1.52-.07-1.26-.1-1.9-.18-3.16l1.4.13-.63-11-1.37,0Z"/><path class="cls-1" d="M63.25,49.29h5.58l.1,3.72L67.57,53q.21,6.44.41,12.86c1.06.21,1.59.31,2.63.53a.25.25,0,0,0,.2-.06.69.69,0,0,0,.17-.23,1.5,1.5,0,0,0,.12-.34,1.47,1.47,0,0,0,0-.36l0-2.8c1,.16,1.56.25,2.59.43v8c-3.14-.92-6.32-1.69-9.53-2.33-.06-1.4-.09-2.1-.16-3.49l1.29.22q-.25-6.26-.53-12.49l-1.33,0C63.35,51.39,63.32,50.69,63.25,49.29Z"/><rect class="cls-1" y="45.05" width="73.68" height="1.33"/><path class="cls-1" d="M82.91,15.93a23.88,23.88,0,0,1-1.51,5.46,24.33,24.33,0,0,1-3,5.3,23.11,23.11,0,0,1-2,2.4A23.9,23.9,0,0,1,74,31.21c-.41.35-.85.64-1.28.95s-.91.62-1.36.87l-.67.39c-.25.15-.48.25-.72.38q-.7.36-1.44.66a25.16,25.16,0,0,1-6,1.66,28.51,28.51,0,0,1-5.78.29,29.85,29.85,0,0,1-5.16-.72c-.86-.2-1.67-.43-2.43-.68V32.12a26,26,0,0,0,3.07,1.07,26.59,26.59,0,0,0,4.69.88,27.28,27.28,0,0,0,5.34,0,23,23,0,0,0,5.55-1.29c.46-.17.91-.35,1.36-.56.21-.1.46-.2.65-.3l.68-.35c.46-.24.86-.49,1.29-.74s.84-.53,1.24-.83a21.89,21.89,0,0,0,2.31-1.89,23.08,23.08,0,0,0,2-2.17A22.78,22.78,0,0,0,80.5,21a23.15,23.15,0,0,0,1.7-5.19,22.94,22.94,0,0,0,.32-7.13l.41.19c.1.64.17,1.32.22,2A23,23,0,0,1,82.91,15.93Z"/><path class="cls-2" d="M21.88,20.8l-.31-.16v2.61h5.14C25,22.45,23.41,21.63,21.88,20.8Zm26-12.16a4.06,4.06,0,0,0-1.57-2.11,4.34,4.34,0,0,0-1-.5,4.21,4.21,0,0,0-1.18-.18H41.12V2.19A2.2,2.2,0,0,0,38.93,0H30.67a2.19,2.19,0,0,0-1.55.65A1.09,1.09,0,0,0,29,.82L28.85,1a2.22,2.22,0,0,0-.37,1.22V5.85H25.54A3.93,3.93,0,0,0,24,6.17a.61.61,0,0,0-.14.07,163.92,163.92,0,0,1,13.46,9.64l.8.63.05,0h0l0,0,.07.07h.1l.21,0,1.71.14L42,17l2.68.19,2,.14.48-.48.92-.94v-6A4.16,4.16,0,0,0,47.85,8.64ZM39.44,5.85H30.15V2.19a.65.65,0,0,1,0-.2.52.52,0,0,1,.48-.31h8.26a.51.51,0,0,1,.51.51ZM48,17.37H48v-.09Z"/><path class="cls-2" d="M48,29.8V35a4.16,4.16,0,0,1-.17,1.18,4.11,4.11,0,0,1-.74,1.34,3.85,3.85,0,0,1-.84.77,4,4,0,0,1-1,.5,3.77,3.77,0,0,1-1.17.18H41.89v0a1.29,1.29,0,1,1-2.57,0v0h-9v0A1.29,1.29,0,0,1,29,40.31a1.32,1.32,0,0,1-.91-.38,1.37,1.37,0,0,1-.35-.65,2.11,2.11,0,0,1,0-.26v0H25.54a3.83,3.83,0,0,1-1.18-.18L24,38.68a4.38,4.38,0,0,1-.67-.37,2.43,2.43,0,0,1-.32-.24l-.27-.25a3.33,3.33,0,0,1-.25-.28,4.38,4.38,0,0,1-.43-.63,4.45,4.45,0,0,1-.3-.71A4.16,4.16,0,0,1,21.57,35V24.25h7.31c7.16,3.2,13.72,5.19,18,5.49l.36,0Z"/><polygon class="cls-3" points="52.29 15.91 51.68 17.66 51.41 17.64 48.02 17.38 47.94 17.37 48.02 17.28 50.63 14.64 52.29 15.91"/><path class="cls-3" d="M26.71,23.25H7.13L4.8,20.93a43.14,43.14,0,0,0,11-3.34l.44-.21,0,0h0l.45.3.23.15h0c1.38.91,3,1.84,4.66,2.78l.31.16C23.4,21.63,25,22.45,26.71,23.25Z"/><path class="cls-3" d="M49.5,27.56a1,1,0,0,1,0,.69,1,1,0,0,1-.7.51h-.49l-.08-.07L48,28.53a28.6,28.6,0,0,0-3.4-2.89h0l-.41-.3L44,25.16l1.14.1,1.5.13,1,.09.44,0h.13l.56,0,.18,0,.52.05.36,0h.16l11.81,1,.24,0,1.36.81H49.5Z"/><path class="cls-3" d="M78.57,22.37l-16.84.35L49.81,23l-.57,1.64-.26,0-.19,0-.55,0-.22,0-.36,0-.34,0c-.56-.43-1.15-.89-1.75-1.38h-1c.53.44,1.05.86,1.56,1.25l-.91-.08-1.13-.1L42.43,24l-1.16-.85s0,0,0,0l-1.08,0h0l1,.71L45,27.16l.09.07h0l1.74,1.49c-4-.32-9.73-2.1-15.39-4.47-.77-.32-1.54-.65-2.3-1h0l-.95-.44c-2.3-1-4.52-2.18-6.57-3.31-1.58-.88-3.05-1.77-4.35-2.63,0,0,0,0,0,0l-.74-.5-.19-.14-.53-.38a17.42,17.42,0,0,1-3.53-3.18C10.38,10.27,9.44,8,9.5,6.29a25.73,25.73,0,0,1,6.15,2.05c1.8.8,3.78,1.8,5.92,3,3.15,1.76,6.66,3.94,10.49,6.53l.23.18h.29l4.88.25,2.6.12-.53-.53-.16-.16.18,0,2.34.19,3.81.27,1.1.08H47l1,.08,3.32.25.75.05.28,0,9.36.7,14.62,1.1Z"/><path class="cls-3" d="M45,27.23,45,27.16l-3.8-3.26Z"/><path class="cls-3" d="M37.51,17.3l-4.88-.24-.54-.37C28.6,14.35,25.58,12.47,23,11l-1.41-.79C19.44,9,17.62,8.11,16.06,7.42A26.47,26.47,0,0,0,9.64,5.3l.09-.21,0-.12a.08.08,0,0,0,0,0c.61-1.24,2.05-1.86,4.29-1.88h0a12.69,12.69,0,0,1,5,1.66c1.18.59,2.45,1.31,3.79,2.13a156.43,156.43,0,0,1,13.58,9.69l.19.15.51.4Z"/><path class="cls-3" d="M41.15,23.9,45,27.16l.09.07Zm3.9,3.33,1.74,1.49C46.23,28.19,45.64,27.7,45.05,27.23Z"/><polygon class="cls-2" points="13.95 77.06 11.82 81.58 8.63 76.58 13.95 77.06"/><polygon class="cls-2" points="65.05 77.03 61.87 82.03 59.76 77.51 65.05 77.03"/><path class="cls-2" d="M15.84,81.41c-1,.52-2,1.1-3,1.72-.82.5-1.64,1-2.47,1.6l1.48-3.15L14,77.06Z"/><path class="cls-3" d="M63.14,84.73c-.4-.31-1.1-.82-2.06-1.45s-1.84-1.16-3-1.81l1.71-4L61.87,82Z"/><line class="cls-3" x1="11.82" y1="81.58" x2="13.95" y2="77.06"/><path class="cls-2" d="M63.14,84.73c-.4-.31-1.1-.82-2.06-1.45s-1.84-1.16-3-1.81l1.71-4L61.87,82Z"/><path class="cls-2" d="M63.54,85.05,56.8,92.72c-19.63-15.33-40.17-.16-40.17-.16l-6.29-7.83c.83-.56,1.65-1.1,2.47-1.6,1-.62,2-1.2,3-1.72,18.49-9.81,34.27-4.26,42.21.06,1.19.65,2.21,1.27,3,1.81s1.66,1.14,2.06,1.45Z"/><path class="cls-5" d="M25.73,85.76q-.89-2.67-1.83-5.34c1.19-.39,2.4-.73,3.62-1l.15.61c-.93.21-1.84.46-2.75.74l.55,1.69c.75-.23,1.52-.44,2.29-.63,0,.18.09.37.14.55-.76.18-1.52.39-2.26.62.21.65.41,1.31.61,2,.88-.27,1.76-.5,2.66-.71,0,.21.09.41.14.61A33.93,33.93,0,0,0,25.73,85.76Z"/><path class="cls-5" d="M30.62,84.52l-.68.13q-.56-2.76-1.15-5.52l.85-.16a38.49,38.49,0,0,1,3.46,3.55l.3.42-.06-.44-.42-4,.8-.07q.24,2.82.47,5.62l-.73.07a37.47,37.47,0,0,0-3.33-3.61l-.35-.4c0,.15.07.3.1.44C30.13,81.88,30.38,83.2,30.62,84.52Z"/><path class="cls-5" d="M34.82,83.06l.77,0v0a.45.45,0,0,0,.1.27.54.54,0,0,0,.27.18,1.36,1.36,0,0,0,.41,0,.92.92,0,0,0,.43-.11.61.61,0,0,0,.29-.32,3.06,3.06,0,0,0,.09-.95c0-1.29,0-2.58,0-3.87h.87c0,1.3-.07,2.59-.1,3.88a2.62,2.62,0,0,1-.24,1.26,1.41,1.41,0,0,1-.5.5,1.82,1.82,0,0,1-.81.16,1.71,1.71,0,0,1-1.2-.3,1,1,0,0,1-.4-.73Z"/><path class="cls-5" d="M41.23,84.36a2.38,2.38,0,0,1-1.69-.94A3.24,3.24,0,0,1,39,81.17,2.9,2.9,0,0,1,39.85,79,2.63,2.63,0,0,1,42,78.43a2.57,2.57,0,0,1,1.9,1,2.91,2.91,0,0,1,.34,2.3,3.37,3.37,0,0,1-1.1,2.06A2.44,2.44,0,0,1,41.23,84.36Zm.07-.56a1.48,1.48,0,0,0,1.33-.49,3.2,3.2,0,0,0,.75-1.67,2.8,2.8,0,0,0-.2-1.81A1.57,1.57,0,0,0,41.89,79a1.64,1.64,0,0,0-1.47.52,2.85,2.85,0,0,0-.63,1.72A3.18,3.18,0,0,0,40.12,83,1.5,1.5,0,0,0,41.3,83.8Z"/><path class="cls-5" d="M46.63,85.23,45.91,85l.66-2.57c-.39-1.13-.84-2.25-1.33-3.36l1,.21c.37.86.7,1.72,1,2.59q1.05-.9,2.19-1.74l.8.25c-1,.72-2,1.47-2.87,2.25Z"/><path class="cls-6" d="M15.84,81.41c-1,.52-2,1.1-3,1.72-.82.5-1.64,1-2.47,1.6l1.48-3.15L14,77.06Z"/><path class="cls-6" d="M63.14,84.73c-.4-.31-1.1-.82-2.06-1.45s-1.84-1.16-3-1.81l1.71-4L61.87,82Z"/></g></g></svg>