<svg xmlns="http://www.w3.org/2000/svg" viewBox="0 0 88.84 108.82"><defs><style>.cls-1{fill:#ff7c96;}.cls-2{fill:#b6dffc;}.cls-3{fill:#324b58;}.cls-5{fill:#ffffff;}.cls-6{fill:#000000;opacity:0.4;}</style></defs><title>Holidays-06</title><g id="Calque_2" data-name="Calque 2"><g id="Planche_Vacance_-_07" data-name="Planche Vacance - 07"><rect class="cls-1" x="7.84" y="64.22" width="73.15" height="1.33"/><path class="cls-2" d="M64.25,46.48l-2.56,1V47.4a.12.12,0,0,0-.14-.11.15.15,0,0,0-.1.07.12.12,0,0,0-.1,0,.15.15,0,0,0-.1.07.1.1,0,0,0-.11,0,.11.11,0,0,0-.08.07.12.12,0,0,0-.12,0,.11.11,0,0,0-.08.07.12.12,0,0,0-.11,0c-.05,0-.08,0-.09.07a.12.12,0,0,0-.11,0,.13.13,0,0,0-.11.15h0c-2.07.3-6.09.87-6.9,1-1.1.21-8.22,1.15-8.22,1.15A7.54,7.54,0,0,0,45.43,48c-.13-.32-.81-1-1.19-1a3,3,0,0,0-1,.2s0-.07-.18,0-1.27.68-1.56.79-1.19.71-1.59.89l-.11,0c-.39.19-1,.6-1.12.65s.2-.22.2-.3.28-.4.28-.46a.89.89,0,0,0,0-.13,1.14,1.14,0,0,0,.16-.4.28.28,0,0,0-.13-.22l.62-1.37c.3-.7.61-1.41.61-1.49a4.73,4.73,0,0,0-.61-.39l-.95-.53c-.05,0-.08.1-.08.1l-.25,0s-1.92,3.83-2,3.9.62.45.62.45-.34.53-.52.6l-.29.13A9.06,9.06,0,0,0,35.31,49a11,11,0,0,1-1.87-.66A6.91,6.91,0,0,0,32,47.5a2.4,2.4,0,0,1,.09-.41.3.3,0,0,0,0-.17,19.41,19.41,0,0,0,.46-2.36.72.72,0,0,0-.6-.54,7.35,7.35,0,0,0-1.57.1.68.68,0,0,0-.07-.25c-.11-.2-.49-.77-.49-.77s.45-.52-.25-.8-2.6-.49-3.06.73a1.54,1.54,0,0,0-.08.34,1.22,1.22,0,0,0-.22.9,6.45,6.45,0,0,0,.3.78v.2l-.2.19s-4-1.68-4.73-2a.15.15,0,0,0-.05-.15.12.12,0,0,0-.1,0s0-.08-.06-.1a.11.11,0,0,0-.11,0,.13.13,0,0,0-.05-.11.16.16,0,0,0-.12,0,.13.13,0,0,0,0-.1.11.11,0,0,0-.11,0,.16.16,0,0,0-.05-.1.13.13,0,0,0-.12,0v-.05a22.37,22.37,0,0,1-.67-5.46,23.22,23.22,0,0,1,1.68-8.65c.63,1.78-.15,4.92-.15,4.92,3.34-3.2,3.36-6.22,2.13-8.72a19.61,19.61,0,0,1,1.76-2.39,12.08,12.08,0,0,1,3.18,2.52,6.42,6.42,0,0,0-.11-1.76c2.32.33,5.34,3.14,5.34,3.14-.33-3.69-2.75-5.65-5.67-6.66a22.75,22.75,0,0,1,6.29-3.81c.47.2.76.36.76.36a4.53,4.53,0,0,0-.16-.59A23.13,23.13,0,0,1,55,17.42c.47.76,1,1.53,1.6,2.31-2-1.91-5.78-4.6-10.09-3.8-6.51,1.2-6,6.44-6,6.44a9.7,9.7,0,0,1,4.09-2.16,4,4,0,0,0-.26,2.21s3.24-2.45,6.86-2c0,0-1.6.61-1.86,1.29,0,0,4.31-1.41,7.34-.85-4.29.79-13.58,3.37-12.35,10.92,0,0,2.23-3.46,4.38-4.35A7.65,7.65,0,0,0,49,29.21a10.92,10.92,0,0,1,4.54-4.63,4,4,0,0,0,0,1.57,13.63,13.63,0,0,1,3.6-4.48c-2.61,3.12-6.81,9.8.85,14.14,0,0-1.58-2.94-1.35-4.83a3.38,3.38,0,0,0,2.47.73s-2.37-3-1.54-5.28a4.28,4.28,0,0,0,1.55,1.22,10.32,10.32,0,0,1-1-5.54A86.27,86.27,0,0,1,64.25,46.48Z"/><path class="cls-2" d="M26.55,45.19l-.07.06v-.2A1.42,1.42,0,0,0,26.55,45.19Z"/><path class="cls-2" d="M66.24,37.26A21.69,21.69,0,0,1,66,40.4a85.88,85.88,0,0,0-7.24-18.79C60.93,23.16,62,27.06,62,27.06a5.67,5.67,0,0,0,.12-1.74,4.05,4.05,0,0,1,1.3.94s0,0,0,0A22.25,22.25,0,0,1,65,29.82a4.23,4.23,0,0,0-.82,2.5,7.55,7.55,0,0,1,1.31-.85A22.15,22.15,0,0,1,66.24,37.26Z"/><path class="cls-2" d="M26.55,45.19l-.07.06v-.2A1.42,1.42,0,0,0,26.55,45.19Z"/><path class="cls-2" d="M31.06,45.41l-.2.21-.27,0,0-.21Z"/><path class="cls-3" d="M5.13,24.48a8.91,8.91,0,0,1,1.5-2.92s0,0,0,0a7.13,7.13,0,0,0-.42,1.82A12.17,12.17,0,0,1,11.57,21C9,22.58,7.16,25.37,8.86,30.16c0,0,.74-3.25,2.15-4.53A3.38,3.38,0,0,0,12.4,27.8s.19-3.84,2.3-5a4.2,4.2,0,0,0,.37,1.94,10.55,10.55,0,0,1,2.11-4c-1.4,6-3.76,18.38-.88,36-.78-2.21-1.58-4.22-2.4-6.06a9,9,0,0,0-.16,3.46,27.35,27.35,0,0,0,1.19,5.51c.16.47.31,1,.48,1.41C10.91,61.72,8,62.32,8,62.32l72.85-.12c-1.22-.72-2.38-1.36-3.49-1.93-.47-.24-.92-.47-1.36-.68h0a41.71,41.71,0,0,0-4.36-1.84,64.14,64.14,0,0,1,4.69-25.18,10.91,10.91,0,0,1-.56,4,3.61,3.61,0,0,0,.84-.91c.9,1.7-.43,4.15-.43,4.15a2.07,2.07,0,0,0,1.08-.68c.38,1.32-.46,4.09-.46,4.09,4.79-4.43,1.81-9,.07-11A6.71,6.71,0,0,1,79.31,36a3,3,0,0,0,.31-1.28c1.42.83,1.44,3.41,1.44,3.41a2.24,2.24,0,0,0,1-1.41,6.91,6.91,0,0,1,1.37,3.09c2.5-6.07-4.12-7.57-6.46-7.91a10.23,10.23,0,0,1,4.07.41,3,3,0,0,0-.87-.78,8.09,8.09,0,0,1,4.8-.06,4.87,4.87,0,0,0-.74-1.06c1.6-.7,4.6-.1,4.6-.1C85.62,26,79.93,29,77.1,30.92a10.54,10.54,0,0,1,4.2-3.31c-.46-.36-2,.14-2,.14.83-1.67,5.07-3.07,5.07-3.07a3.7,3.7,0,0,0-1.8-.42c1-1,3.74-1.35,3.74-1.35-.59-.47-4.34-2.24-7.79,1.31a8.37,8.37,0,0,0-2.34,4.88c-.37-3.2-1.58-7.79-5.31-8.72a17.64,17.64,0,0,1,5.18.93c-3.62-6.55-12-3.67-16.41-1.51a14.38,14.38,0,0,1,6.21-3.05c-.53-.68-2.86-.45-2.86-.45,1.63-2.22,7.91-2.93,7.91-2.93-.49-.75-2.38-1.2-2.38-1.2,1.7-1.13,5.6-.8,5.6-.8-.68-.9-5.41-4.75-11.23-.58a12.7,12.7,0,0,0-5,8.12,24.53,24.53,0,0,0-.61-8.51,2.22,2.22,0,0,1-.33,1.36s-.67-6.39-5.1-9a12.11,12.11,0,0,0,.83,7.08,1.18,1.18,0,0,1-1.1-.45,25.8,25.8,0,0,0,3.43,8c.47.76,1,1.53,1.6,2.31-2-1.91-5.78-4.6-10.09-3.8-6.51,1.2-6,6.44-6,6.44a9.7,9.7,0,0,1,4.09-2.16,4,4,0,0,0-.26,2.21s3.24-2.45,6.86-2c0,0-1.6.61-1.86,1.29,0,0,4.31-1.41,7.34-.85-4.29.79-13.58,3.37-12.35,10.92,0,0,2.23-3.46,4.38-4.35A7.65,7.65,0,0,0,49,29.21a10.92,10.92,0,0,1,4.54-4.63,4,4,0,0,0,0,1.57,13.63,13.63,0,0,1,3.6-4.48c-2.61,3.12-6.81,9.8.85,14.14,0,0-1.58-2.94-1.35-4.83a3.38,3.38,0,0,0,2.47.73s-2.37-3-1.54-5.28a4.28,4.28,0,0,0,1.55,1.22,10.32,10.32,0,0,1-1-5.54,86.27,86.27,0,0,1,6.13,24.37l-2.56,1V47.4a.12.12,0,0,0-.14-.11.15.15,0,0,0-.1.07.12.12,0,0,0-.1,0,.15.15,0,0,0-.1.07.1.1,0,0,0-.11,0,.11.11,0,0,0-.08.07.12.12,0,0,0-.12,0,.11.11,0,0,0-.08.07.12.12,0,0,0-.11,0c-.05,0-.08,0-.09.07a.12.12,0,0,0-.11,0,.13.13,0,0,0-.11.15h0c-2.07.3-6.09.87-6.9,1-1.1.21-8.22,1.15-8.22,1.15A7.54,7.54,0,0,0,45.43,48c-.13-.32-.81-1-1.19-1a3,3,0,0,0-1,.2s0-.07-.18,0-1.27.68-1.56.79-1.19.71-1.59.89l-.11,0c-.39.19-1,.6-1.12.65s.2-.22.2-.3.28-.4.28-.46a.89.89,0,0,0,0-.13,1.14,1.14,0,0,0,.16-.4.28.28,0,0,0-.13-.22l.62-1.37c.3-.7.61-1.41.61-1.49a4.73,4.73,0,0,0-.61-.39l-.95-.53c-.05,0-.08.1-.08.1l-.25,0s-1.92,3.83-2,3.9.62.45.62.45-.34.53-.52.6l-.29.13A9.06,9.06,0,0,0,35.31,49a11,11,0,0,1-1.87-.66A6.91,6.91,0,0,0,32,47.5a2.4,2.4,0,0,1,.09-.41.3.3,0,0,0,0-.17,19.41,19.41,0,0,0,.46-2.36.72.72,0,0,0-.6-.54,7.35,7.35,0,0,0-1.57.1.68.68,0,0,0-.07-.25c-.11-.2-.49-.77-.49-.77s.45-.52-.25-.8-2.6-.49-3.06.73a1.54,1.54,0,0,0-.08.34,1.22,1.22,0,0,0-.22.9,6.45,6.45,0,0,0,.3.78,1.42,1.42,0,0,0,.07.14l-.07.06-.2.19s-4-1.68-4.73-2a.15.15,0,0,0-.05-.15.12.12,0,0,0-.1,0s0-.08-.06-.1a.11.11,0,0,0-.11,0,.13.13,0,0,0-.05-.11.16.16,0,0,0-.12,0,.13.13,0,0,0,0-.1.11.11,0,0,0-.11,0,.16.16,0,0,0-.05-.1.13.13,0,0,0-.12,0v-.05a.08.08,0,0,0,0,0,.09.09,0,0,0-.1,0l-3.12-3.38a82.21,82.21,0,0,1,.64-19,10.31,10.31,0,0,1,.41,5.61,4.38,4.38,0,0,0,1.2-1.56c1.35,2-.2,5.5-.2,5.5a3.36,3.36,0,0,0,2.21-1.31s0,.06,0,.09c.63,1.78-.15,4.92-.15,4.92,3.34-3.2,3.36-6.22,2.13-8.72A15.3,15.3,0,0,0,19,19.61a13.62,13.62,0,0,1,4.6,3.47,4.11,4.11,0,0,0-.44-1.52,7.71,7.71,0,0,1,2.37.86,12.08,12.08,0,0,1,3.18,2.52,6.42,6.42,0,0,0-.11-1.76c2.32.33,5.34,3.14,5.34,3.14-.33-3.69-2.75-5.65-5.67-6.66a24.38,24.38,0,0,0-9-.9c2.8-1.29,7.32-1,7.32-1-.41-.6-2.1-.8-2.1-.8,3.38-1.37,7.11.21,7.11.21a4.06,4.06,0,0,0-.79-2.08,9.18,9.18,0,0,1,3.74.73c.47.2.76.36.76.36a4.53,4.53,0,0,0-.16-.59c-.43-1.35-2-4.52-7.22-4.19-4.37.29-7.34,3.81-8.86,6.16A27.27,27.27,0,0,0,21.4,6.35a1.2,1.2,0,0,1-1,.71A12.15,12.15,0,0,0,19.52,0c-3.66,3.58-2.75,10-2.75,10a2.25,2.25,0,0,1-.65-1.24,24.19,24.19,0,0,0,1.49,8.4,12.72,12.72,0,0,0-6.86-6.65C4.1,7.85.44,12.74,0,13.77c0,0,3.69-1.27,5.62-.59,0,0-1.72.9-2,1.75,0,0,6.27-.85,8.39.9,0,0-2.32.35-2.68,1.14a14.47,14.47,0,0,1,6.79,1.43c-4.83-1-13.63-1.75-15.55,5.48a18.61,18.61,0,0,1,4.59-2.12.16.16,0,0,1,.19.17Zm54.67-3.2a14.52,14.52,0,0,1,4.86,1.33,4.36,4.36,0,0,0-1.07-1.28,11.49,11.49,0,0,1,6.78.88,7.31,7.31,0,0,0-.84-1.65h0A9,9,0,0,1,72.06,24a5.6,5.6,0,0,0-1.34.09A8.39,8.39,0,0,1,73.8,28a3,3,0,0,0-1.2-.2A10.31,10.31,0,0,1,75.66,31c-1.35-1.39-3.92-3.43-7-3-1.53-4.41-6-6-8.82-6.6l-.44-.09ZM31.06,45.41l-.2.21-.27,0,0-.21ZM17.5,39.77l2.87,3.11-.05.06-2.7-1.87C17.57,40.64,17.54,40.21,17.5,39.77ZM55.4,56.84c-4.75,1-9.4,2.61-15.73,2.46-1.15,0-2.31,0-3.48,0a148,148,0,0,0-15.73,1.1,24.67,24.67,0,0,1,.29-3.85l-.38.13a98.82,98.82,0,0,1-2.7-15.18l2.49,1.72a.13.13,0,0,0,.05.11.12.12,0,0,0,.1,0,.13.13,0,0,0,.06.1s.06,0,.11,0a.13.13,0,0,0,.05.11.12.12,0,0,0,.1,0,.16.16,0,0,0,.05.1.14.14,0,0,0,.12,0,.13.13,0,0,0,.05.11.15.15,0,0,0,.11,0,.3.3,0,0,0,0,.1s.06,0,.06,0a.11.11,0,0,0,.13,0l0,0c.72.72,3.78,3.84,4.53,4.54.16.15.42.37.74.63l.42.34c1,.84,2.43,1.91,3.34,2.54.25.17.46.31.62.4,1,.58,4.74,2.21,6.91,1.89S43.31,53,43.31,53a15.37,15.37,0,0,1,.15,2.16c-.06.44-.48,1.08.07,1.34s1.56-.19,2.07,0,1.37.32,1.46.14c0,0,.49.17.62.08s-.09-.47-.4-.62-.86-.12-1.1-.35-1.09-.55-1.2-1.1a10.33,10.33,0,0,1,0-2A35.72,35.72,0,0,0,48.52,52c.91-.3,6.51-2.08,7.5-2.3.67-.16,3-1,4.54-1.49a.21.21,0,0,0,.12,0,.18.18,0,0,0,.1-.07.19.19,0,0,0,.1,0,.15.15,0,0,0,.1-.07.13.13,0,0,0,.11,0,.2.2,0,0,0,.09-.07.13.13,0,0,0,.11,0,.14.14,0,0,0,.08-.07.13.13,0,0,0,.12,0,.1.1,0,0,0,.08-.07.13.13,0,0,0,.11,0,.14.14,0,0,0,.12-.15l0-.11h0v0l2.25-.7.26-.08c.37,3.7.5,6.85.51,9.16A28.66,28.66,0,0,0,55.4,56.84ZM69.65,40.31A7.78,7.78,0,0,1,71,37a2.44,2.44,0,0,0,1.09,1.49s0-2.77,1.42-3.7a3,3,0,0,0,.34,1.36,7.57,7.57,0,0,1,1.54-3.24,66.41,66.41,0,0,0-6.55,24V57s0-.09,0-.13A101.79,101.79,0,0,0,66,40.4a85.88,85.88,0,0,0-7.24-18.79C60.93,23.16,62,27.06,62,27.06a5.67,5.67,0,0,0,.12-1.74,4.05,4.05,0,0,1,1.3.94s0,0,0,0a8.43,8.43,0,0,1,1.71,3.32l-.18.22a4.23,4.23,0,0,0-.82,2.5,7.55,7.55,0,0,1,1.31-.85,5.92,5.92,0,0,1,1.63-.56,2.91,2.91,0,0,0-.24,1.55,8.27,8.27,0,0,1,1.35-.7c.5,1,.82,1.79.82,1.79a14.81,14.81,0,0,0,.18-2.13,5.84,5.84,0,0,1,2.52-.15s-1.13.39-1.32.86a12.74,12.74,0,0,1,5.26-.39C73,32.29,67,34.22,69.65,40.31Z"/><path class="cls-2" d="M66.18,28.76a2.71,2.71,0,0,0-.25.17,2.54,2.54,0,0,0,0-.34Z"/><path class="cls-2" d="M64.05,47.08a23.28,23.28,0,0,1-8.65,9.76c-4.75,1-9.4,2.61-15.73,2.46-1.15,0-2.31,0-3.48,0A23.13,23.13,0,0,1,21.06,43.94a.11.11,0,0,0,.13,0l0,0c.72.72,3.78,3.84,4.53,4.54.16.15.42.37.74.63l.42.34c1,.84,2.43,1.91,3.34,2.54.25.17.46.31.62.4,1,.58,4.74,2.21,6.91,1.89S43.31,53,43.31,53a15.37,15.37,0,0,1,.15,2.16c-.06.44-.48,1.08.07,1.34s1.56-.19,2.07,0,1.37.32,1.46.14c0,0,.49.17.62.08s-.09-.47-.4-.62-.86-.12-1.1-.35-1.09-.55-1.2-1.1a10.33,10.33,0,0,1,0-2A35.72,35.72,0,0,0,48.52,52c.91-.3,6.51-2.08,7.5-2.3.67-.16,3-1,4.54-1.49a.21.21,0,0,0,.12,0,.18.18,0,0,0,.1-.07.19.19,0,0,0,.1,0,.15.15,0,0,0,.1-.07.13.13,0,0,0,.11,0,.2.2,0,0,0,.09-.07.13.13,0,0,0,.11,0,.14.14,0,0,0,.08-.07.13.13,0,0,0,.12,0,.1.1,0,0,0,.08-.07.13.13,0,0,0,.11,0,.14.14,0,0,0,.12-.15l0-.11h0v0Z"/><path class="cls-1" d="M17,73.09a3.26,3.26,0,0,0-.15-1,2.28,2.28,0,0,0-.42-.75,1.92,1.92,0,0,0-.62-.49,1.53,1.53,0,0,0-.76-.16,2,2,0,0,0-.69.14,1.81,1.81,0,0,0-.57.39,2.17,2.17,0,0,0-.4.65,3.2,3.2,0,0,0-.18.94,2.42,2.42,0,0,0,.13,1,1.6,1.6,0,0,0,.43.62,1.85,1.85,0,0,0,.59.35c.22.08.44.17.65.27,1,.46,1.46.69,2.44,1.13a3.08,3.08,0,0,1,.93.7A3.72,3.72,0,0,1,19,78.11a6.24,6.24,0,0,1,.37,1.57,10,10,0,0,1,0,2,12.09,12.09,0,0,1-.68,2.89A10.3,10.3,0,0,1,17.46,87a8.11,8.11,0,0,1-1.64,1.75,5.07,5.07,0,0,1-1.9,1,2.62,2.62,0,0,1-1.27,0,2.32,2.32,0,0,1-1-.56A4.11,4.11,0,0,1,10.83,88a7.19,7.19,0,0,1-.52-1.64l-.76.19V81.92c1.15-.21,1.73-.31,2.95-.5l0,.93a6,6,0,0,0,.06,1.23,2.84,2.84,0,0,0,.31.92,1.19,1.19,0,0,0,.56.53,1.36,1.36,0,0,0,.84.07,1.85,1.85,0,0,0,1.21-.82A3.65,3.65,0,0,0,16,82.54a2.25,2.25,0,0,0-.07-.9,1.41,1.41,0,0,0-.32-.58,1.89,1.89,0,0,0-.48-.36l-.53-.24-1.92-.84a3.38,3.38,0,0,1-1.05-.7,4.6,4.6,0,0,1-.88-1.26,8,8,0,0,1-.61-1.87,11.36,11.36,0,0,1-.23-2.53,10.59,10.59,0,0,1,.39-3,6.3,6.3,0,0,1,1.12-2.21,4.71,4.71,0,0,1,1.73-1.35,5.28,5.28,0,0,1,2.18-.45,4.54,4.54,0,0,1,1.69.31,4.66,4.66,0,0,1,1.34.83,4.48,4.48,0,0,1,.93,1.16,4.71,4.71,0,0,1,.52,1.36l1,0c-.18,1.7-.27,2.55-.46,4.25l-3.45.23Z"/><path class="cls-1" d="M22.63,66.88l6.47,0-.45,3.66-1.6,0c-.65,5.21-1,7.82-1.62,13l1.63-.17-.45,3.66c-2.69.31-4,.49-6.4.9.18-1.53.26-2.29.44-3.82l1.5-.19c.64-5.33,1-8,1.59-13.33l-1.55,0C22.36,69.17,22.45,68.4,22.63,66.88Z"/><path class="cls-1" d="M30.71,66.85l12.09,0c-.12,2.62-.17,3.93-.29,6.56l-3.47,0,.2-2.74-4,.06c-.15,1.54-.23,2.32-.38,3.86L38,74.52l-.3,3.71c-1.32,0-2,.06-3.26.12-.18,1.82-.27,2.72-.46,4.54,1.72-.1,2.59-.15,4.36-.21l.25-3.44c1.44,0,2.17-.06,3.64-.08L42,86c-5.77.14-8.55.32-13.66.85.17-1.45.26-2.17.44-3.62l1.68-.14c.57-4.93.85-7.39,1.42-12.33l-1.61,0C30.42,69.24,30.52,68.44,30.71,66.85Z"/><path class="cls-1" d="M52.15,72.25a2.7,2.7,0,0,0-.85-1.53,2.67,2.67,0,0,0-.74-.45,2.21,2.21,0,0,0-.84-.17,2.55,2.55,0,0,0-.74.1,1.75,1.75,0,0,0-.59.31A1.43,1.43,0,0,0,48,71a1.75,1.75,0,0,0-.14.79,1.66,1.66,0,0,0,.21.9,1.8,1.8,0,0,0,.55.55,3.07,3.07,0,0,0,.73.35c.27.08.53.18.79.28l3,1.21a5.31,5.31,0,0,1,1.2.72,5.12,5.12,0,0,1,1,1.11,6.28,6.28,0,0,1,.74,1.49,7.54,7.54,0,0,1,.39,1.88,6.76,6.76,0,0,1-.25,2.55,4.72,4.72,0,0,1-1.14,1.94,5.16,5.16,0,0,1-2,1.21,7.49,7.49,0,0,1-2.68.39,8.69,8.69,0,0,1-2-.28,6.85,6.85,0,0,1-1.73-.72,5.64,5.64,0,0,1-1.35-1.11,4.52,4.52,0,0,1-.86-1.47l-1.22,0L43.42,79c1.64,0,2.47,0,4.13,0v.78a3.21,3.21,0,0,0,.17,1,2.42,2.42,0,0,0,.52.84,2.61,2.61,0,0,0,.86.56,3.68,3.68,0,0,0,1.21.21,2.11,2.11,0,0,0,1.57-.5,1.8,1.8,0,0,0,.46-1.45,1.67,1.67,0,0,0-.22-.81,2,2,0,0,0-.51-.56,3.07,3.07,0,0,0-.66-.38l-.72-.29-2.6-1a6.18,6.18,0,0,1-1.41-.7,4.9,4.9,0,0,1-1.18-1.14,5.11,5.11,0,0,1-.77-1.59,7.38,7.38,0,0,1,.25-4.53,5.21,5.21,0,0,1,1.18-1.81,5,5,0,0,1,1.73-1.11,6,6,0,0,1,2.16-.38,5.15,5.15,0,0,1,1.73.28,5.7,5.7,0,0,1,1.46.73,5.46,5.46,0,0,1,1.14,1,5.65,5.65,0,0,1,.77,1.24h1c.13,1.55.2,2.32.32,3.87l-3.83-.07Z"/><path class="cls-1" d="M61.38,83l1.69.12c-.59-5.13-.88-7.69-1.46-12.81l-1.87,0c.11,1,.16,1.53.27,2.55l-3.39-.08c-.2-2.37-.31-3.55-.51-5.92l13.78,0c.3,2.55.44,3.82.74,6.37l-3.25-.15-.32-2.65-2.1,0c.63,5.21,1,7.82,1.58,13l1.63.16.45,3.69c-2.62-.33-4-.48-6.85-.71C61.61,85.15,61.54,84.43,61.38,83Z"/><path class="cls-1" d="M79.27,85.19l1.24.25c-.28-1.35-.43-2-.74-3.35-1.58-.25-2.4-.36-4.1-.58-.13,1.21-.2,1.81-.32,3l1.43.23.35,3.94c-2-.41-3-.6-5.22-.94-.18-1.51-.26-2.27-.44-3.77l1.08.14c.79-6.69,1.17-10.12,2.16-17.22l4,0A157.21,157.21,0,0,1,83,86l.81.19V90.4c-1.56-.5-2.41-.73-4.25-1.18C79.43,87.61,79.38,86.81,79.27,85.19Zm-3.22-7.27,2.79.3c-.74-3-1.13-4.43-2-7.32C76.53,73.75,76.36,75.15,76.05,77.92Z"/><polygon class="cls-3" points="21.53 93.16 19.4 97.68 16.21 92.68 21.53 93.16"/><polygon class="cls-3" points="72.63 93.13 69.45 98.13 67.34 93.61 72.63 93.13"/><path class="cls-3" d="M23.42,97.51c-1,.52-2,1.1-3,1.72-.82.5-1.64,1-2.47,1.6l1.48-3.15,2.13-4.52Z"/><path class="cls-2" d="M70.72,100.83c-.4-.31-1.1-.82-2.06-1.45s-1.84-1.16-3-1.81l1.71-4,2.11,4.52Z"/><line class="cls-2" x1="19.4" y1="97.68" x2="21.53" y2="93.16"/><path class="cls-3" d="M70.72,100.83c-.4-.31-1.1-.82-2.06-1.45s-1.84-1.16-3-1.81l1.71-4,2.11,4.52Z"/><path class="cls-3" d="M71.12,101.15l-6.74,7.67c-19.63-15.33-40.17-.16-40.17-.16l-6.29-7.83c.83-.56,1.65-1.1,2.47-1.6,1-.62,2-1.2,3-1.72,18.49-9.81,34.27-4.26,42.21.06,1.19.65,2.21,1.27,3,1.81s1.66,1.14,2.06,1.45Z"/><path class="cls-5" d="M33.31,101.86q-.89-2.67-1.83-5.34c1.19-.39,2.4-.73,3.62-1l.15.61c-.92.21-1.84.46-2.75.74l.55,1.69c.76-.23,1.52-.44,2.29-.63,0,.18.1.37.14.55-.76.18-1.51.39-2.26.62.21.65.41,1.31.62,2,.87-.27,1.76-.5,2.65-.71,0,.21.09.41.14.61C35.51,101.19,34.4,101.5,33.31,101.86Z"/><path class="cls-5" d="M38.2,100.62l-.67.13c-.38-1.84-.76-3.68-1.16-5.52l.85-.16a38.49,38.49,0,0,1,3.46,3.55L41,99l-.06-.44-.42-4,.8-.07c.16,1.87.32,3.75.47,5.62l-.73.06a38.59,38.59,0,0,0-3.33-3.6l-.35-.4c0,.15.07.3.1.44C37.72,98,38,99.3,38.2,100.62Z"/><path class="cls-5" d="M42.4,99.16l.77,0v0a.49.49,0,0,0,.38.45,1.25,1.25,0,0,0,.4,0,.92.92,0,0,0,.43-.11.65.65,0,0,0,.29-.32,3.29,3.29,0,0,0,.1-1c0-1.29,0-2.58,0-3.87h.87c0,1.3-.07,2.59-.1,3.88a2.65,2.65,0,0,1-.23,1.26,1.32,1.32,0,0,1-.51.49,1.68,1.68,0,0,1-.81.17,1.73,1.73,0,0,1-1.2-.3,1,1,0,0,1-.39-.73Z"/><path class="cls-5" d="M48.82,100.46a2.4,2.4,0,0,1-1.7-.94,3.29,3.29,0,0,1-.58-2.25,2.94,2.94,0,0,1,.89-2.16,2.63,2.63,0,0,1,2.11-.58,2.55,2.55,0,0,1,1.9,1,2.86,2.86,0,0,1,.34,2.3,3.37,3.37,0,0,1-1.1,2.06A2.42,2.42,0,0,1,48.82,100.46Zm.06-.56a1.51,1.51,0,0,0,1.34-.49A3.28,3.28,0,0,0,51,97.74a2.8,2.8,0,0,0-.2-1.81,1.56,1.56,0,0,0-1.29-.84,1.59,1.59,0,0,0-1.46.52,2.73,2.73,0,0,0-.63,1.72,3.1,3.1,0,0,0,.32,1.79A1.5,1.5,0,0,0,48.88,99.9Z"/><path class="cls-5" d="M54.21,101.33l-.72-.19.66-2.57c-.39-1.13-.83-2.25-1.33-3.36l1,.21c.36.86.69,1.72,1,2.58.7-.59,1.43-1.17,2.19-1.73l.8.25c-1,.72-2,1.47-2.87,2.25Z"/><path class="cls-6" d="M23.42,97.51c-1,.52-2,1.1-3,1.72-.82.5-1.64,1-2.47,1.6l1.48-3.15,2.13-4.52Z"/><path class="cls-6" d="M70.72,100.83c-.4-.31-1.1-.82-2.06-1.45s-1.84-1.16-3-1.81l1.71-4,2.11,4.52Z"/></g></g></svg>