<svg xmlns="http://www.w3.org/2000/svg" viewBox="0 0 180 136.61"><defs><style>.cls-1{fill:#324b56;}</style></defs><title>Frames 06</title><g id="Calque_2" data-name="Calque 2"><g id="LABEL_06" data-name="LABEL 06"><path class="cls-1" d="M174,99.31c-2.61-1.15-6.42-2-12-2.33A222.15,222.15,0,0,1,160.76,71c0-15.88.94-30.58.94-33.41,0-.62,0-1.35.06-2.16a62.78,62.78,0,0,0,7.57-1.36,26.46,26.46,0,0,0,7-2.68c2-1.19,3.61-2.9,3.62-5.25s-1.46-4.48-4.39-7c-2.44-2-4.62-3-6.67-3-4.46.1-6.66,4.42-7.93,8.84a47.78,47.78,0,0,0-1.44,8.35l-.4,0-54.94-7a32,32,0,0,1-12.61-4.26c4.12-3,7.61-3.87,7.63-9.84A16.39,16.39,0,0,0,99,9.65C98,3.14,95,0,91.41,0c-5,.14-9.4,5.57-9.5,11.23a17,17,0,0,0-.1,1.76c0,4.37,1.74,5.38,5.78,9l-.72.41a44,44,0,0,1-10.24,4c-2.82,0-42.77,7.19-52.95,7.19a24.22,24.22,0,0,1-3.29-.22c.08-1.15.14-2.51.14-4a28.94,28.94,0,0,0-1.24-9.26C18.36,17.39,16.35,15,13.1,15a12.25,12.25,0,0,0-6.37,2.31q-5.16,3.3-5.19,7.08c.12,3.91,3.85,6.55,8.19,8.51a38.61,38.61,0,0,0,8.15,2.48c-.08.81-.15,1.29-.15,1.29l0,.11v.13c.39,6.65.58,13.14.58,19.34,0,16-1.24,30-3.27,40a1.29,1.29,0,0,1,0,.19,45.31,45.31,0,0,0-7.08,1,15.64,15.64,0,0,0-5.37,2.2A5.44,5.44,0,0,0,0,104.06c0,2.4,1.49,5,4.62,8.08a4.91,4.91,0,0,0,3.44,1.64c2.44-.07,4.1-2.08,5.55-5A48.66,48.66,0,0,0,16.9,98.62c1.06,0,2-.05,2.87-.05,1.94,0,3.2.08,3.2.08l54.08,10.72a34.55,34.55,0,0,1,10.34,4,14.13,14.13,0,0,0-5.52,11.36c0,.34,0,.69,0,1.06.37,7.11,3.65,10.84,7.54,10.85,4.39-.06,8.27-4.56,8.28-10.94,0-.36,0-.74,0-1.13a15.78,15.78,0,0,0-6.16-11.15c.61-.33,1.23-.63,1.86-.91a31.2,31.2,0,0,1,6.55-2c1.79-.34,2.94-.42,2.94-.43L156.7,99.15c1.15,0,2.22,0,3.24.06.08.57.17,1.13.26,1.67a38.6,38.6,0,0,0,2.89,10.44c1.27,2.61,3.09,4.53,5.65,4.54,2.21,0,4.36-1.38,6.74-3.94,0,0,3.23-2.84,3.32-6.63C178.84,103.06,177.37,100.75,174,99.31ZM163.26,25.65c1.18-4.22,3.13-7.15,5.55-7.15h.13c1.25,0,3,.64,5.16,2.5,2.74,2.29,3.59,4.06,3.57,5.18s-.81,2.21-2.5,3.25c-2.49,1.53-6.55,2.57-9.92,3.17-1.23.21-2.36.38-3.31.5A43.66,43.66,0,0,1,163.26,25.65ZM18.08,33a35.63,35.63,0,0,1-7.41-2.28c-4.15-1.78-6.92-4.34-6.79-6.37,0-1.31,1-3.08,4.12-5.12a10.08,10.08,0,0,1,5.08-1.94h0c2,0,3.09,1.25,4,3.65a27.09,27.09,0,0,1,1.11,8.48C18.2,30.72,18.15,31.94,18.08,33Zm-6.57,74.8c-1.3,2.68-2.67,3.73-3.45,3.65a2.74,2.74,0,0,1-1.8-1c-3-2.92-3.95-5.1-3.92-6.42a3.11,3.11,0,0,1,1.55-2.59c2.18-1.6,6.58-2.38,10.58-2.7A43.47,43.47,0,0,1,11.51,107.8ZM84.15,13c0-.54,0-1.07.08-1.6v-.13a10,10,0,0,1,2.38-6.19,6.8,6.8,0,0,1,4.75-2.74h0c2,0,4.22,1.58,5.31,7.71a13.81,13.81,0,0,1,.19,2.27c0,5.2-3.24,5.57-7.29,8.4C85.69,17.44,84.17,16.86,84.15,13ZM95.36,124.7c0,.33,0,.66,0,1,0,5.49-3.33,8.6-5.94,8.61-2.16,0-4.75-2-5.21-8.67,0-.31,0-.62,0-.91a11.82,11.82,0,0,1,5.22-10C92.81,117.28,95.11,120.61,95.36,124.7ZM156.7,96.81l-53.91,10.93a34.59,34.59,0,0,0-10.33,2.6,23.55,23.55,0,0,0-3,1.54,36.65,36.65,0,0,0-12-4.82l-.13,0L23,96.32c.05,0-1.27-.08-3.27-.08-.71,0-1.51,0-2.37,0,2-10.19,3.22-24.17,3.24-40.07,0-6.21-.19-12.7-.59-19.36,0-.18.08-.58.14-1.14a28.76,28.76,0,0,0,3.49.23c10.56,0,53.12-7.2,53.12-7.2h.13l.12,0a45.7,45.7,0,0,0,11-4.26c.51-.28,1-.57,1.53-.89C93,26,97.77,27.88,104,28.73h.08l55.19,7h.16c0,.7,0,1.35,0,1.92,0,2.61-1,17.49-1,33.41a229.2,229.2,0,0,0,1.22,25.83Q158.25,96.83,156.7,96.81Zm18.47,11.87a13.22,13.22,0,0,1-1.35,1.6c-2.24,2.43-4,3.28-5.08,3.25s-2.4-.91-3.55-3.23a38.5,38.5,0,0,1-2.87-11c5.15.35,8.59,1.14,10.74,2.1,2.85,1.32,3.37,2.61,3.4,3.85A6.28,6.28,0,0,1,175.17,108.68Z"/></g></g></svg>