<svg xmlns="http://www.w3.org/2000/svg" viewBox="0 0 188 149.34"><defs><style>.cls-1{fill:#324b56;}.cls-2{fill:#fff;}.cls-3{fill:#ff7d97;}.cls-4{opacity:0.3;}</style></defs><title>Frames 08</title><g id="Calque_2" data-name="Calque 2"><g id="LABEL_08" data-name="LABEL 08"><path class="cls-1" d="M187.81,118a2,2,0,0,0-1.74-1.15L163.36,116l.93-2.29a2,2,0,0,0,0-1.55,2.06,2.06,0,0,0-1.12-1.07l-1.11-.43a85.5,85.5,0,0,0-8.38-2.74,1.46,1.46,0,0,0,.05-.2,15.09,15.09,0,0,0,.06-3.48c-.8-10-2.45-20.19-4.06-30-3.77-23.1-7.67-47-.11-70.11l.5-1.53A2,2,0,0,0,148.21,0H33.6a2,2,0,0,0-1.9,2.63l.5,1.53c7.55,23.13,3.65,47-.12,70.11-1.6,9.81-3.26,20-4,29.92A13.76,13.76,0,0,0,28,106c-1.62-.51-3.23-1-4.79-1.65l-2.29-.89A2,2,0,0,0,18.27,106l3.29,10.21-19.62.63A2,2,0,0,0,.19,118,2,2,0,0,0,.42,120L9,131.14,1,143.2a2,2,0,0,0,1.66,3.1l49.77-.71a2,2,0,0,0,1.92-1.53l1.42-5.89a1.9,1.9,0,0,0,0-.53c1.43.05,2.89.08,4.36.08,1.27,0,2.53,0,3.79-.05a2,2,0,0,0,1.15,1.69c7.56,3.49,15.61,6.76,24,9.73l.2.07a1.93,1.93,0,0,0,.53.11l1,.06H91l1-.06a2.92,2.92,0,0,0,.65-.15l.1,0a275.26,275.26,0,0,0,29-12.12c1.55-.77,3.1-1.58,4.62-2.39a2,2,0,0,0,1-1.61c1.24.08,2.47.17,3.68.29a1.35,1.35,0,0,0,0,.28l2.53,10.53a2,2,0,0,0,1.92,1.53l49.77.71a2,2,0,0,0,1.67-3.1l-8-12.06L187.58,120A2,2,0,0,0,187.81,118Zm-11.26,13.11,8.77,13.24-49.74-.71-.25-1-3-11.18-2-.2-1.32-.11h-.1c-1.93,1-6.65,3.39-8.1,4.12a275.88,275.88,0,0,1-28.75,12l-.21.07-1,.07-1-.07-.22-.07c-9.56-3.4-22.3-8.69-28.4-11.49H60.19c-1.15,0-2.28,0-3.4-.06l-2-.08H54.6l-1.93,7-.25,1-49.74.71,8.77-13.24L2,118.8l22.31-.63-4.13-12.82,2.29.88c1.22.47,2.46.91,3.72,1.33,1.08.35,2.18.68,3.29,1l.49.13c0-1.41,0-3.7.06-4.28.78-9.93,2.43-20,4-29.81,3.81-23.33,7.75-47.45,0-71L33.6,2H148.21l-.5,1.54c-7.71,23.6-3.77,47.72,0,71.05,1.6,9.77,3.25,19.88,4,29.84.09.81.09,3.53,0,5.12l.15,0c.71.18,1.42.37,2.12.57,1,.27,1.9.55,2.83.85.33.1.66.22,1,.33,1.15.38,2.3.78,3.43,1.22l1.12.43-2.06,5,25.62.77Z"/><path class="cls-1" d="M90.83,133.24l-3.12.38-1.76.2L84.4,134l-2.1.23-1.07.12c-3.77.41-7.56.77-11.35,1h-.22c-1,.06-2,.12-2.93.16,5.56,2.43,16.49,6.84,23.79,9.44l.23.08.15-.1.15.1.24-.08a342.88,342.88,0,0,0,32.49-13.92c.15-.09.31-.16.46-.24-1,0-2-.06-3.07-.06C111.11,130.77,100.8,132,90.83,133.24Z"/><path class="cls-1" d="M145.43,75c-3.77-23.11-7.67-47-.44-70.62H36.82C44.05,28,40.15,51.86,36.37,75c-1.59,9.72-3.23,19.78-4,29.65-.07.69-.07,3.17,0,4.69l.15,0q4,1,8.16,1.6l.88.13,2.47.32,2.31.23,2.44.2,2.75.16,1.39,0c1.38,0,2.77.08,4.19.08,11.36,0,23-1.42,34.24-2.79s23-2.8,34.53-2.8c1.47,0,2.91,0,4.33.08l1.1,0c1.35.06,2.69.14,4,.24.35,0,.69.06,1,.09q1.5.14,3,.3l1.43.17c1.15.15,2.28.31,3.4.5.52.08,1,.18,1.54.27.77.14,1.54.29,2.3.45l1.45.31h.07c0-1.42,0-3.75,0-4.33C148.67,94.75,147,84.69,145.43,75Z"/><path class="cls-2" d="M186,118.8,160.38,118l-1,2.45,22,.58-7.55,9.79,7.21,10.9-40.13-.55,8.49-6.1h0c.81.28,1.63.56,2.43.87l1.07.42L160.38,118h0l2.06-5-1.12-.43c-1.13-.44-2.28-.84-3.43-1.22-.33-.11-.66-.23-1-.33-.93-.3-1.87-.58-2.83-.85-.7-.2-1.41-.39-2.12-.57l-.15,0c.07-1.59.07-4.31,0-5.12-.78-10-2.43-20.07-4-29.84-3.81-23.33-7.75-47.45,0-71l.5-1.54H33.6l.5,1.54c7.71,23.6,3.77,47.72,0,71.05-1.6,9.77-3.25,19.88-4,29.81-.06.58-.08,2.87-.06,4.28v0l-.49-.15c-1.11-.31-2.21-.64-3.29-1-1.26-.42-2.5-.86-3.72-1.33l-2.29-.88,4.13,12.82h0L2,118.8l9.45,12.26L2.68,144.3l49.74-.71.25-1,1.93-7-.73,0-2.61,7.1L40.43,133.8l-.58-.14,1,.22a89.42,89.42,0,0,0,9.29,1.37l.3,0c1,.09,2,.16,3,.22l.38,0,.73,0h.17l2,.08c1.12,0,2.25.06,3.4.06l1.54,0h-.4c6.1,2.8,18.84,8.09,28.4,11.49l.22.07,1,.07,1-.07.21-.07a275.88,275.88,0,0,0,28.75-12c1.45-.73,6.17-3.12,8.1-4.12h.1l1.32.11,2,.2h0l3,11.18.25,1,49.74.71-8.77-13.24ZM32.36,104.62c.78-9.87,2.42-19.93,4-29.65,3.78-23.11,7.68-47,.45-70.62H145c-7.23,23.64-3.33,47.51.44,70.62,1.59,9.72,3.24,19.78,4,29.68.06.58.07,2.91,0,4.33h-.07l-1.45-.31c-.76-.16-1.53-.31-2.3-.45-.51-.09-1-.19-1.54-.27-1.12-.19-2.25-.35-3.4-.5l-1.43-.17q-1.47-.17-3-.3c-.34,0-.68-.07-1-.09-1.31-.1-2.65-.18-4-.24l-1.1,0c-1.42,0-2.86-.08-4.33-.08-11.5,0-23.21,1.43-34.53,2.8s-22.88,2.79-34.24,2.79c-1.42,0-2.81,0-4.19-.08l-1.39,0-2.75-.16-2.44-.2L44,111.39l-2.47-.32-.88-.13q-4.2-.63-8.16-1.6l-.15,0h0C32.29,107.79,32.29,105.31,32.36,104.62ZM47.09,141.2,7,141.75l7.21-10.9-7.55-9.79,18.48-.44h0l3.07,9.54.52.2A73.85,73.85,0,0,0,36,132.75h0Zm77.15-10.37c-.15.08-.31.15-.46.24A342.88,342.88,0,0,1,91.29,145l-.24.08-.15-.1-.15.1-.23-.08c-7.3-2.6-18.23-7-23.79-9.44h0c1,0,2-.1,2.93-.16h.22c3.79-.25,7.58-.61,11.35-1l1.07-.12,2.1-.23,1.55-.19,1.76-.2,3.12-.38c10-1.22,20.28-2.47,30.34-2.47,1,0,2.06,0,3.08,0Zm-3.07-2.41c-10.2,0-20.59,1.26-30.63,2.49s-20.28,2.47-30.35,2.47c-11.5,0-21.09-1.6-30.13-5L23.9,109.26c9.91,3.5,20.79,5.2,33.19,5.2,11.5,0,23.21-1.43,34.52-2.81s22.89-2.78,34.25-2.78c12.76,0,23.45,1.73,33.5,5.45l-7.76,19.05C142.54,130,132.58,128.42,121.17,128.42Zm11.37,3h0c1.17.13,2.32.28,3.46.46l.32,0c1.12.18,2.22.38,3.3.59l.28.06c1.14.22,2.25.48,3.36.75h.05c1.12.29,2.23.59,3.33.92h0l-9.93,8.4Z"/><path class="cls-3" d="M50.45,135.28l-.3,0a89.42,89.42,0,0,1-9.29-1.37l-.43-.08,10.83,8.83,2.61-7.1-.38,0C52.47,135.44,51.45,135.37,50.45,135.28Z"/><path class="cls-3" d="M36,132.75a73.85,73.85,0,0,1-7.33-2.39l-.52-.2-3.07-9.54-18.48.44,7.55,9.79L7,141.75l40.13-.55L36,132.76Z"/><path class="cls-3" d="M146.64,134.22c-1.1-.33-2.21-.63-3.33-.92h-.05c-1.11-.27-2.22-.53-3.36-.75l-.28-.06c-1.08-.21-2.18-.41-3.3-.59l-.32,0c-1.14-.18-2.29-.33-3.46-.46l4.2,11.24,9.93-8.4Z"/><path class="cls-3" d="M181.38,121.06l-22-.58-6.49,15.91-1.07-.42c-.8-.31-1.62-.59-2.43-.87l-8.49,6.1,40.13.55-7.21-10.9Z"/><path class="cls-3" d="M159.36,114.32c-10.05-3.72-20.74-5.45-33.5-5.45-11.36,0-23,1.41-34.25,2.78s-23,2.81-34.52,2.81c-12.4,0-23.28-1.7-33.19-5.2l6.16,19.11c9,3.41,18.63,5,30.13,5,10.07,0,20.38-1.26,30.35-2.47s20.43-2.49,30.63-2.49c11.41,0,21.37,1.62,30.43,5Z"/><path class="cls-4" d="M50.45,135.28l-.3,0a89.42,89.42,0,0,1-9.29-1.37l-.43-.08,10.83,8.83,2.61-7.1-.38,0C52.47,135.44,51.45,135.37,50.45,135.28Z"/><path class="cls-4" d="M146.64,134.22c-1.1-.33-2.21-.63-3.33-.92h-.05c-1.11-.27-2.22-.53-3.36-.75l-.28-.06c-1.08-.21-2.18-.41-3.3-.59l-.32,0c-1.14-.18-2.29-.33-3.46-.46l4.2,11.24,9.93-8.4Z"/></g></g></svg>