<svg xmlns="http://www.w3.org/2000/svg" viewBox="0 0 186.59 174.53"><defs><style>.cls-1{fill:#324b56;}.cls-1,.cls-2,.cls-3{fill-rule:evenodd;}.cls-2{fill:#fff;}.cls-3{fill:#ff7d97;}</style></defs><title>Frames 03</title><g id="Calque_2" data-name="Calque 2"><g id="LABEL_03" data-name="LABEL 03"><path class="cls-1" d="M170.33,115.68h16.26l-1.25-3.35-6.12-24.54,6.12-25.6,1.18-3.35H175.9c-2.08-3.19-5-5.09-7.79-7.24-3.14-2.49-4.32-4.15-5.15-8.06-1.35-6-.31-10.65-3.7-13.94-3.12-3-6.58-4-10.11-4.91-5.53-1.28-8.13-2-11.41-6.92-3-4.54-4.15-8.51-8.24-10.07-5-1.73-9.24-.55-13.53.14-4.08.79-6.26.69-9.86-1.42-5.32-3-8.06-6.71-12.76-6.4-5.16.38-8.55,3.11-12,5.64-3,2-4.47,2.8-8,2.42-6.26-.62-10.27-3-14.49-.93-4.4,2.24-6.4,5.95-8.55,9.37-2.63,4.22-4.12,5.4-9.13,6.44-4.71,1.1-8.38,1.1-11,4.15-2.91,3.46-3.53,7.2-4.08,10.9-.76,5-1.18,6.71-5.4,9.69S13,52,11.83,55.83a14,14,0,0,0-.59,3H1l1,3.28L6.37,87.76,1.25,112.33,0,115.68H15.29c-.55,5.12-1.94,8.82.21,12.35,2.84,4.6,7.06,6.27,10.9,8.44,4.39,2.36,5.88,4.57,7.37,9.24s1.87,8.55,5.15,10.9c4.16,2.73,8.24,2.91,12.29,3,5.08.38,7.43,1.1,11.07,4.84s5.53,7.68,9.86,8.48c4.84.86,8.68-.8,12.52-2.22,4.36-1.69,6.71-2,11.11-.38,5.47,2,8.75,5,13.22,3.91,4.7-1.24,7.54-4.15,10.27-7,4.08-4,6.57-5.19,12.35-5.19,4.71-.07,8.41.72,11.52-1.8,3.29-2.49,4.64-5.64,5.89-8.82,2.18-5.57,3.21-8.31,8.68-11,4.77-2.46,8.86-3.08,10.9-6.92,2.25-4.46,1.8-8.44,1.56-12.59A19.37,19.37,0,0,1,170.33,115.68Z"/><path class="cls-2" d="M155.28,41.12l.14,1.11c.07.83.17,1.69.27,2.59a1,1,0,0,0,.94.83.13.13,0,0,0,.1,0,.91.91,0,0,0,.8-1c-.11-.86-.21-1.73-.28-2.56l-.1-1.11a.94.94,0,1,0-1.87.21Z"/><path class="cls-2" d="M157.08,47.49a.91.91,0,0,0-.63,1.14,11.62,11.62,0,0,0,1.67,3.67.92.92,0,0,0,.76.38.91.91,0,0,0,.52-.18,1,1,0,0,0,.24-1.31,9.09,9.09,0,0,1-1.42-3.08A.91.91,0,0,0,157.08,47.49Z"/><path class="cls-2" d="M153,35.14a6.07,6.07,0,0,1,1.59,2.52.93.93,0,0,0,.87.62,1.12,1.12,0,0,0,.31,0,1,1,0,0,0,.59-1.21,8,8,0,0,0-2-3.22l-.24-.24A.93.93,0,1,0,152.86,35Z"/><path class="cls-2" d="M167.91,58.49a.93.93,0,0,0-1.32,0,.89.89,0,0,0-.21.38h1.84C168.11,58.73,168,58.59,167.91,58.49Z"/><path class="cls-2" d="M161.23,55.34c.41.35.86.66,1.28,1s.9.7,1.38,1a.79.79,0,0,0,.56.21.9.9,0,0,0,.72-.38.92.92,0,0,0-.13-1.28c-.49-.38-.94-.73-1.42-1.07s-.83-.63-1.25-1l-.31-.24a.92.92,0,0,0-1.28.13.9.9,0,0,0,.14,1.32Z"/><path class="cls-2" d="M146.73,31.57A18.68,18.68,0,0,1,150,32.92a1,1,0,0,0,.45.11.94.94,0,0,0,.8-.49.92.92,0,0,0-.39-1.24,18.31,18.31,0,0,0-3.59-1.49.91.91,0,0,0-1.18.62A.93.93,0,0,0,146.73,31.57Z"/><path class="cls-2" d="M139.5,29.57a32.74,32.74,0,0,0,3.7,1.07h.21a.91.91,0,0,0,.21-1.8,30,30,0,0,1-3.46-1,.91.91,0,0,0-1.21.51A1,1,0,0,0,139.5,29.57Z"/><path class="cls-2" d="M136,27.49a.84.84,0,0,0,.62.24,1,1,0,0,0,.7-.31,1,1,0,0,0-.11-1.31A14.18,14.18,0,0,1,135,23.44a.93.93,0,0,0-1.52,1.07A16.15,16.15,0,0,0,136,27.49Z"/><path class="cls-2" d="M131.34,21.05l.13.21a.9.9,0,0,0,.8.49.79.79,0,0,0,.45-.14.91.91,0,0,0,.35-1.25l-.11-.24c-.62-1.07-1.21-2.11-1.87-3a1,1,0,0,0-1.31-.21.9.9,0,0,0-.21,1.28C130.16,19,130.75,20,131.34,21.05Z"/><path class="cls-2" d="M124,14.72a13.47,13.47,0,0,1,2.07.56,6.69,6.69,0,0,1,1.11.52.81.81,0,0,0,.48.13.92.92,0,0,0,.8-.41,1,1,0,0,0-.31-1.28,7.2,7.2,0,0,0-1.42-.69,15.7,15.7,0,0,0-2.42-.63,1,1,0,0,0-1.08.73A.9.9,0,0,0,124,14.72Z"/><path class="cls-2" d="M116.77,15h.17a25.53,25.53,0,0,1,3.57-.45,1,1,0,0,0,.9-1,1,1,0,0,0-1-.9,29.27,29.27,0,0,0-3.84.49.92.92,0,0,0,.17,1.83Z"/><path class="cls-2" d="M109.26,15.83c.42,0,.83.07,1.25.07a17.2,17.2,0,0,0,2.73-.24.93.93,0,0,0,.76-1.08.87.87,0,0,0-1-.76,12.29,12.29,0,0,1-3.46.18.88.88,0,0,0-1,.79A.93.93,0,0,0,109.26,15.83Z"/><path class="cls-2" d="M104.56,14.07c.31.17.59.34.86.48a1,1,0,0,0,.45.1.92.92,0,0,0,.83-.48.91.91,0,0,0-.41-1.25c-.25-.13-.52-.31-.83-.48-.8-.45-1.56-.94-2.25-1.38a.87.87,0,0,0-1.28.24.88.88,0,0,0,.24,1.28C102.9,13.06,103.69,13.58,104.56,14.07Z"/><path class="cls-2" d="M96.08,8.7a17.16,17.16,0,0,1,3,1.7.73.73,0,0,0,.52.17,1,1,0,0,0,.77-.38,1,1,0,0,0-.25-1.31A16.4,16.4,0,0,0,96.7,7a.92.92,0,0,0-1.17.56A.9.9,0,0,0,96.08,8.7Z"/><path class="cls-2" d="M89.13,9.29a1,1,0,0,0,.34-.07,12.69,12.69,0,0,1,3.36-.86.93.93,0,0,0,.83-1,.92.92,0,0,0-1-.83,17.17,17.17,0,0,0-3.84,1,1,1,0,0,0-.52,1.21A.9.9,0,0,0,89.13,9.29Z"/><path class="cls-2" d="M82.79,13.17a.71.71,0,0,0,.52-.18l.38-.27c.87-.63,1.73-1.25,2.63-1.84a.92.92,0,1,0-1-1.55c-.93.58-1.83,1.24-2.73,1.9l-.35.27A.91.91,0,0,0,82,12.79.93.93,0,0,0,82.79,13.17Z"/><path class="cls-2" d="M75.94,15.76a2.93,2.93,0,0,0,.59,0A7.79,7.79,0,0,0,80,15a.86.86,0,0,0,.45-1.21.87.87,0,0,0-1.21-.45,6.37,6.37,0,0,1-2.7.56H76a.88.88,0,0,0-1,.86A.93.93,0,0,0,75.94,15.76Z"/><path class="cls-2" d="M68.44,14.48l1.28.28,2.38.52h.18a.93.93,0,0,0,.17-1.84c-.8-.14-1.59-.31-2.32-.48l-1.31-.28a.88.88,0,0,0-1.08.69A.93.93,0,0,0,68.44,14.48Z"/><path class="cls-2" d="M61.38,15.07a1,1,0,0,0,.45-.14l.38-.21A6.64,6.64,0,0,1,65,14.07a.93.93,0,0,0,.9-1,1,1,0,0,0-1-.9,8.07,8.07,0,0,0-3.53.9l-.45.2a1,1,0,0,0-.35,1.28A.92.92,0,0,0,61.38,15.07Z"/><path class="cls-2" d="M56.05,20.15a.89.89,0,0,0,.76-.38A19.65,19.65,0,0,1,59.06,17a.89.89,0,0,0,0-1.28.93.93,0,0,0-1.31,0,20.55,20.55,0,0,0-2.49,3A.94.94,0,0,0,55.53,20,.77.77,0,0,0,56.05,20.15Z"/><path class="cls-2" d="M51.86,26.35a.92.92,0,0,0,.7-.31,18.22,18.22,0,0,0,2.17-3s.11-.14.14-.18a.88.88,0,0,0-.38-1.21,1,1,0,0,0-1.28.38,23.82,23.82,0,0,1-2,2.77.88.88,0,0,0,0,1.28A1,1,0,0,0,51.86,26.35Z"/><path class="cls-2" d="M45.25,29.39a.51.51,0,0,0,.21,0l.31-.07a17.9,17.9,0,0,0,3.39-.94.9.9,0,0,0,.52-1.21.9.9,0,0,0-1.17-.52,18.54,18.54,0,0,1-3.12.87l-.38.07a.91.91,0,0,0-.65,1.11A.85.85,0,0,0,45.25,29.39Z"/><path class="cls-2" d="M38,31.23a.94.94,0,0,0,.42-.11,14.43,14.43,0,0,1,3.32-1,.93.93,0,1,0-.38-1.83,17.55,17.55,0,0,0-3.77,1.17.92.92,0,0,0-.42,1.25A1,1,0,0,0,38,31.23Z"/><path class="cls-2" d="M33,36.73a1.69,1.69,0,0,0,.38.07.87.87,0,0,0,.83-.59,14.51,14.51,0,0,1,1.73-3,.91.91,0,0,0-1.45-1.11,14,14,0,0,0-2,3.43A.93.93,0,0,0,33,36.73Z"/><path class="cls-2" d="M31.55,44a.2.2,0,0,0,.14,0,.92.92,0,0,0,.9-.79l.17-1c.11-.9.25-1.8.42-2.67a.92.92,0,1,0-1.8-.38c-.17.94-.34,1.84-.45,2.77l-.17,1A.93.93,0,0,0,31.55,44Z"/><path class="cls-2" d="M28.61,50.64a.94.94,0,0,0,.63-.25,8.7,8.7,0,0,0,2.42-3.32.93.93,0,0,0-.52-1.21,1,1,0,0,0-1.21.52A6.53,6.53,0,0,1,28,49a.93.93,0,0,0-.07,1.31A.87.87,0,0,0,28.61,50.64Z"/><path class="cls-2" d="M22.49,54.89a1.07,1.07,0,0,0,.52-.17c.59-.42,1.17-.8,1.83-1.21l1.28-.83a.89.89,0,0,0,.24-1.28.93.93,0,0,0-1.28-.28L23.84,52c-.66.42-1.28.83-1.9,1.25a.89.89,0,0,0-.21,1.28A.87.87,0,0,0,22.49,54.89Z"/><path class="cls-2" d="M19.62,58.77A5.59,5.59,0,0,1,20.48,57a.9.9,0,0,0-.21-1.28.91.91,0,0,0-1.28.17,9,9,0,0,0-1.17,2.32c-.07.21-.11.42-.17.63h1.93S19.62,58.8,19.62,58.77Z"/><path class="cls-2" d="M22.18,122.5a7.2,7.2,0,0,1-.24-2c0-.45,0-.9.06-1.38a.89.89,0,0,0-.83-1,.87.87,0,0,0-1,.83,11.64,11.64,0,0,0-.07,1.56,9.13,9.13,0,0,0,.28,2.46.91.91,0,0,0,.9.69.51.51,0,0,0,.24,0A.89.89,0,0,0,22.18,122.5Z"/><path class="cls-2" d="M21.62,116.27a.88.88,0,0,0,.83-.59H20.79a.78.78,0,0,0,.7.55S21.55,116.27,21.62,116.27Z"/><path class="cls-2" d="M23.77,125.4a.87.87,0,0,0-1.28-.13.89.89,0,0,0-.17,1.28,14.55,14.55,0,0,0,2.83,2.76.89.89,0,0,0,.56.18,1,1,0,0,0,.76-.35.93.93,0,0,0-.21-1.31A14,14,0,0,1,23.77,125.4Z"/><path class="cls-2" d="M29.31,129.76a.92.92,0,0,0-1.25.38.91.91,0,0,0,.35,1.25l1.41.76c.59.31,1.18.66,1.8,1l.52-.79.38-.83c-.62-.35-1.21-.69-1.83-1Z"/><path class="cls-2" d="M38.27,137a10.72,10.72,0,0,0-2.43-3.21.93.93,0,1,0-1.24,1.38,8.81,8.81,0,0,1,2,2.66.94.94,0,0,0,.83.52.91.91,0,0,0,.8-1.35Z"/><path class="cls-2" d="M40.76,144.19l-.21-.8c-.28-.86-.52-1.83-.87-2.8a.91.91,0,0,0-1.17-.59.93.93,0,0,0-.59,1.18c.35.93.59,1.87.83,2.73l.24.8a.9.9,0,0,0,.87.66.63.63,0,0,0,.27,0A.92.92,0,0,0,40.76,144.19Z"/><path class="cls-2" d="M42,147.51a.92.92,0,0,0-1.25-.38.91.91,0,0,0-.38,1.25A8.26,8.26,0,0,0,43,151.49L44,150A6.73,6.73,0,0,1,42,147.51Z"/><path class="cls-2" d="M50.62,152.32a16,16,0,0,1-3.43-.79,1,1,0,0,0-1.21.58,1,1,0,0,0,.59,1.18,17.57,17.57,0,0,0,3.81.86s.1,0,.13,0a.93.93,0,0,0,.9-.83A.92.92,0,0,0,50.62,152.32Z"/><path class="cls-2" d="M58.09,153a29.09,29.09,0,0,0-3.29-.38l-.55,0a.89.89,0,0,0-1,.9.92.92,0,0,0,.9.93l.52,0c1.28.1,2.25.2,3,.34a.3.3,0,0,0,.17,0,1,1,0,0,0,.93-.76A.92.92,0,0,0,58.09,153Z"/><path class="cls-2" d="M61.86,154.33a.91.91,0,0,0-1.24.34A.94.94,0,0,0,61,156a13.83,13.83,0,0,1,2.74,2.15.91.91,0,0,0,1.31,0,.93.93,0,0,0,0-1.32A14,14,0,0,0,61.86,154.33Z"/><path class="cls-2" d="M68.16,160.31l-.59-.72a.93.93,0,1,0-1.42,1.21l.59.69c.66.76,1.28,1.49,1.9,2.14a.87.87,0,0,0,.66.32,1,1,0,0,0,.66-.28.94.94,0,0,0,0-1.32C69.37,161.73,68.78,161,68.16,160.31Z"/><path class="cls-2" d="M75.94,165a16.8,16.8,0,0,1-1.86-.21,4.81,4.81,0,0,1-1.42-.45,1,1,0,0,0-1.25.49.91.91,0,0,0,.49,1.21,7.34,7.34,0,0,0,1.86.59,11.94,11.94,0,0,0,2.11.2h0a.92.92,0,1,0,0-1.83Z"/><path class="cls-2" d="M82.86,163.67a27.92,27.92,0,0,1-3.46,1,1,1,0,0,0-.69,1.11.9.9,0,0,0,.9.73h.21a31.2,31.2,0,0,0,3.67-1.11.92.92,0,0,0-.63-1.73Z"/><path class="cls-2" d="M90.23,161.46a16.12,16.12,0,0,0-3.84.89.94.94,0,0,0-.59,1.18.93.93,0,0,0,.87.62,1.09,1.09,0,0,0,.31,0,12.51,12.51,0,0,1,3.39-.8.93.93,0,0,0,.87-1A1,1,0,0,0,90.23,161.46Z"/><path class="cls-2" d="M97.84,163.29c-.62-.28-1.28-.55-2-.8s-1.1-.38-1.62-.55a.94.94,0,0,0-.52,1.8c.48.14,1,.28,1.49.48s1.28.52,1.86.76a.93.93,0,0,0,.38.11,1,1,0,0,0,.87-.56A.93.93,0,0,0,97.84,163.29Z"/><path class="cls-2" d="M104.52,166.09a16.24,16.24,0,0,1-3.28-1.17.87.87,0,0,0-1.22.44.89.89,0,0,0,.45,1.22,14.85,14.85,0,0,0,3.71,1.31.27.27,0,0,0,.17,0,.93.93,0,0,0,.17-1.84Z"/><path class="cls-2" d="M111,164.57a15,15,0,0,1-3.22,1.38.93.93,0,0,0-.62,1.14.9.9,0,0,0,.9.66.66.66,0,0,0,.24,0,14.92,14.92,0,0,0,3.64-1.56.92.92,0,0,0,.31-1.28A.88.88,0,0,0,111,164.57Z"/><path class="cls-2" d="M117,159.62a.77.77,0,0,0-.59.24,33.1,33.1,0,0,1-2.6,2.56.94.94,0,0,0,.63,1.63.84.84,0,0,0,.62-.24c1-.83,1.83-1.77,2.7-2.67a.91.91,0,0,0,.24-.65A1,1,0,0,0,117,159.62Z"/><path class="cls-2" d="M122.93,155.5a11.47,11.47,0,0,0-3.6,1.8.91.91,0,0,0-.21,1.28,1,1,0,0,0,1.32.21,9.71,9.71,0,0,1,3-1.52.9.9,0,0,0,.62-1.18A.92.92,0,0,0,122.93,155.5Z"/><path class="cls-2" d="M130.61,154.85H128.4c-.56,0-1.08,0-1.6,0a.92.92,0,0,0,.07,1.84h0c.48,0,1,0,1.49,0h.69c.52,0,1,0,1.48,0a1,1,0,0,0,.94-.9A.93.93,0,0,0,130.61,154.85Z"/><path class="cls-2" d="M137.46,154a7.84,7.84,0,0,1-3.22.87.91.91,0,0,0-.86,1,.94.94,0,0,0,.93.86h.07a8.9,8.9,0,0,0,3.94-1.07.92.92,0,1,0-.86-1.63Z"/><path class="cls-2" d="M143.27,148.55a.91.91,0,0,0-1.24.38,12.94,12.94,0,0,1-2,2.87.94.94,0,0,0,.07,1.32.92.92,0,0,0,.63.24.91.91,0,0,0,.69-.31,16.26,16.26,0,0,0,2.21-3.25A.91.91,0,0,0,143.27,148.55Z"/><path class="cls-2" d="M146.14,141.66a.94.94,0,0,0-1.24.45c-.45,1-.9,2.15-1.42,3.46l1.73.7c.48-1.28.93-2.39,1.38-3.39A.93.93,0,0,0,146.14,141.66Z"/><path class="cls-2" d="M150,136.13a12.61,12.61,0,0,0-3,2.59,1,1,0,0,0,.11,1.32.93.93,0,0,0,.59.21.87.87,0,0,0,.72-.35,11.25,11.25,0,0,1,2.6-2.21,1,1,0,0,0,.28-1.28A.92.92,0,0,0,150,136.13Z"/><path class="cls-2" d="M156.84,132.84c-.52.24-1,.45-1.6.69l-1.83.8a1,1,0,0,0-.45,1.25.92.92,0,0,0,.83.51.84.84,0,0,0,.38-.06c.62-.28,1.21-.56,1.8-.8s1.11-.45,1.63-.69a.93.93,0,0,0,.45-1.21A.9.9,0,0,0,156.84,132.84Z"/><path class="cls-2" d="M163,128a.91.91,0,0,0-1.21.45c-.11.24-.24.48-.35.72a6.88,6.88,0,0,1-1.59,1.94.93.93,0,0,0-.1,1.32,1,1,0,0,0,.72.31.93.93,0,0,0,.59-.21,9.44,9.44,0,0,0,2-2.49c.14-.28.25-.55.38-.83A.89.89,0,0,0,163,128Z"/><path class="cls-2" d="M162.65,115.68V116c0,.62,0,1.24.07,1.9a.91.91,0,0,0,.93.87h0a.88.88,0,0,0,.86-1c0-.63,0-1.21,0-1.8v-.28Z"/><path class="cls-2" d="M163.82,120.63h0a.92.92,0,0,0-.9.93l0,.7a18,18,0,0,1-.2,2.87.91.91,0,0,0,.76,1,.23.23,0,0,0,.14,0,1,1,0,0,0,.93-.8,21.56,21.56,0,0,0,.21-3.14v-.73A.91.91,0,0,0,163.82,120.63Z"/><path class="cls-3" d="M176.87,87.79l.24-.93,6.23-25.57H4.15L8.23,85.06l.45,2.73L6.89,96.17,3.25,113.26H183.34L180.22,101Z"/></g></g></svg>