<svg xmlns="http://www.w3.org/2000/svg" viewBox="0 0 163.76 186"><defs><style>.cls-1{fill:#324b56;}</style></defs><title>Frames 02</title><g id="Calque_2" data-name="Calque 2"><g id="Label_02" data-name="Label 02"><path class="cls-1" d="M104.71,173.63c7.84,12.29,14.29,6,14.29,6C115.59,171,104.71,173.63,104.71,173.63Z"/><path class="cls-1" d="M137.74,147.54c6.42-13.09-5.52-15.34-5.52-15.34C126.56,139.65,137.74,147.54,137.74,147.54Z"/><path class="cls-1" d="M146.16,135.05a87,87,0,0,0,5.76-30.11s0-.11,0-.33c14.38-1.64,11.62-10.15,11.62-10.15-8.25-.69-11.06,7.77-11.61,9.75,0-.17,0-.37,0-.59a56.15,56.15,0,0,0-2.75-16.26c12.82-6,7.65-13.12,7.65-13.12-7.23,1.7-8,9.05-8,12a75,75,0,0,0-6.91-15C153.57,63.09,147.19,57,147.19,57c-7.08,3.07-6.22,10.92-5.7,13.58a88.79,88.79,0,0,0-6.69-9.4c-2.28-12.56-13-13.1-13-13.1-.74,7.78,9,13.05,12.21,14.59a85,85,0,0,1,6.32,9c-10.08-10.18-18.28-2.84-18.28-2.84,5,7.62,17.67,3.28,18.39,3,9.16,15.21,10,27.9,10,31.81v.07c-4.18-13.15-15-9.18-15-9.18.73,8.63,13.12,9.73,15,9.85,0,.3,0,.5,0,.5a98.32,98.32,0,0,1-1.36,14c-1.9-13-12.95-10.59-12.95-10.59-.88,8.38,10.45,11.33,12.72,11.84a76.44,76.44,0,0,1-4,14.1c3.22-13.56-8.64-14-8.64-14-3.9,8.09,7.49,14.06,8.44,14.54a61.59,61.59,0,0,1-15.22,22.44c7-12.29-4.51-15.16-4.51-15.16-5.91,6.67,3.34,14.64,4.26,15.4a64.14,64.14,0,0,1-11,8.16c8.91-10.63-1.8-14.95-1.8-14.95-6.86,5.3.23,14,1.31,15.23a75.17,75.17,0,0,1-12.85,5.87c11.35-9,1.3-14.76,1.3-14.76-8.21,4.2-1.58,14.48-1.38,14.78A83.4,83.4,0,0,1,93,174.89c10.75-8.79,1-14.45,1-14.45-7.63,3.89-2.45,13-1.52,14.56A72.24,72.24,0,0,1,82,176.24,73.14,73.14,0,0,1,71.34,175c.94-1.54,6.1-10.67-1.52-14.56,0,0-9.79,5.66,1,14.45A83.3,83.3,0,0,1,59,171.73c.19-.29,6.84-10.58-1.38-14.78,0,0-10,5.78,1.3,14.76a74.74,74.74,0,0,1-12.85-5.86c1.07-1.25,8.17-9.94,1.31-15.24,0,0-10.71,4.32-1.8,15a64.74,64.74,0,0,1-11-8.16c.84-.7,10.21-8.71,4.27-15.41,0,0-11.54,2.88-4.5,15.19a61.72,61.72,0,0,1-15.25-22.47c.86-.43,12.37-6.41,8.46-14.54,0,0-11.9.49-8.64,14.11a76.65,76.65,0,0,1-4-14.16c2.23-.5,13.61-3.44,12.73-11.84,0,0-11.07-2.38-13,10.63a98.32,98.32,0,0,1-1.36-14s0-.24,0-.54c1.81-.11,14.23-1.2,15-9.85,0,0-10.82-4-15,9.19a.25.25,0,0,1,0-.09c0-3.9.8-16.59,10-31.8.67.23,13.42,4.6,18.4-3,0,0-8.21-7.35-18.3,2.85a87.3,87.3,0,0,1,6.33-9c3.23-1.53,13-6.8,12.22-14.59,0,0-10.69.54-13,13.1a89.14,89.14,0,0,0-6.69,9.39c.52-2.66,1.37-10.5-5.7-13.57,0,0-6.39,6.12,5.26,14.31a75.36,75.36,0,0,0-6.9,15c0-3-.81-10.3-8-12,0,0-5.16,7.13,7.65,13.12a55.92,55.92,0,0,0-2.76,16.25c0,.22,0,.41,0,.57-.57-2-3.39-10.4-11.6-9.72,0,0-2.76,8.51,11.61,10.15,0,.23,0,.36,0,.37a86.89,86.89,0,0,0,5.75,30.07c-1.85-1.72-8.26-6.84-14.71-2.28,0,0,1.94,8.63,15,2.92A65.53,65.53,0,0,0,24.42,148c-2.44-1.42-9.41-4.68-14.61.86,0,0,3.6,8,15.17-.07a62.25,62.25,0,0,0,8.6,9.79c-2.94-.56-10.26-1.19-13.33,5.54,0,0,5.91,6.36,14.19-4.73a66.65,66.65,0,0,0,10.84,7.8c-2.22-.53-10.68-2-14,5.39,0,0,6.06,6.54,14.5-5.13.66.37,1.33.76,2,1.11a82.47,82.47,0,0,0,22.76,7.88c-2.89.19-10.35,1.38-11.61,8.79,0,0,7.49,4.74,12.66-8.58a71.56,71.56,0,0,0,10.06,1.16h.55v0a74.13,74.13,0,0,0,10.07-1.17c5.16,13.33,12.66,8.59,12.66,8.59-1.27-7.43-8.75-8.61-11.62-8.79A82.58,82.58,0,0,0,116,168.51c.66-.35,1.33-.74,2-1.12,8.45,11.68,14.51,5.14,14.51,5.14-3.37-7.37-11.84-5.92-14.05-5.39a65.71,65.71,0,0,0,10.84-7.81c8.29,11.1,14.2,4.74,14.2,4.74-3.07-6.74-10.41-6.1-13.34-5.54a62.44,62.44,0,0,0,8.61-9.8c11.57,8.1,15.17.08,15.17.08-5.21-5.55-12.2-2.27-14.63-.85a65.67,65.67,0,0,0,6.58-12.27c13,5.72,15-2.92,15-2.92C154.42,128.2,148,133.35,146.16,135.05Z"/><path class="cls-1" d="M150.33,120.69c14.54,1.13,13.41-7.78,13.41-7.78C154.72,110.39,150.33,120.69,150.33,120.69Z"/><path class="cls-1" d="M147.67,87.65C139.52,75.56,130,82,130,82,133.63,90.6,147.67,87.65,147.67,87.65Z"/><path class="cls-1" d="M44.76,179.66s6.45,6.26,14.28-6C59,173.63,48.17,171,44.76,179.66Z"/><path class="cls-1" d="M26,147.54s11.18-7.89,5.52-15.34C31.54,132.2,19.59,134.45,26,147.54Z"/><path class="cls-1" d="M13.43,120.69S9,110.39,0,112.91C0,112.91-1.1,121.82,13.43,120.69Z"/><path class="cls-1" d="M16.09,87.65s14,2.95,17.68-5.67C33.77,82,24.24,75.56,16.09,87.65Z"/><path class="cls-1" d="M42.47,29l.42-.2,9,20.74a17.88,17.88,0,0,1,3.59-2.11,60.62,60.62,0,0,1,25.79-5.28,61.49,61.49,0,0,1,26.89,5.28c2,1,3.11,1.78,3.11,2.17l9.59-20.8.42.2c2.07,1.13,5.28-1.17,5.28-5.12s-3-6.25-5.09-5.31c-2.17.74-3,3.46-2.91,5v.29c0,.13,0,.26,0,.39a6.21,6.21,0,0,0,.94,3.17C117,32,113.42,36,108.91,35.82c-4.08-.09-8.48-4.11-8.29-9.94a3.48,3.48,0,0,0,1.85-3.27c0-2.46-2-4-3.27-3.34a3.17,3.17,0,0,0-1.75,3.14v.16c0,.1,0,.2,0,.33a3.56,3.56,0,0,0,1.14,2.62c-.46,1.82-1.69,4.31-4,5.38s-5.45.29-7.65-2.59c-4-5.8-4-13.58-4.11-17.56a1.79,1.79,0,0,0,.32-.13c2.17-.91,2.85-3.69,2.72-5.18V5.08c0-1.52-.71-3.95-2.75-4.79-2.08-1.14-5.32,1.2-5.25,5.21a5.44,5.44,0,0,0,3,5.22c-.16,3.95-.13,11.76-4.11,17.59C74.67,31.09,71.66,32,69.39,31s-3.63-3.5-4.11-5.35l0-.13a3.6,3.6,0,0,0,1.07-2.95c0-.09,0-.22,0-.35a3.24,3.24,0,0,0-1.69-2.92c-1.29-.74-3.37.75-3.34,3.31a3.41,3.41,0,0,0,1.82,3.27,9.37,9.37,0,0,1-8.29,9.94c-4.41.46-8.17-3.95-10.57-8.42a6,6,0,0,0,.91-3.56v-.36c0-1.55-.71-4-2.72-4.83-2.11-1.13-5.34,1.2-5.28,5.22S40.4,30.12,42.47,29Zm55.62,4,2,3.56-3.2,2.75v0l-2-3.53ZM81,29.51h0l4.24,4.92-4.08,5.35,0,0-4.31-4.89ZM65.18,33.59h0l3.08,2.66-2,3.66,0,0-3.14-2.62Z"/></g></g></svg>