<svg xmlns="http://www.w3.org/2000/svg" viewBox="0 0 177.3 198"><defs><style>.cls-1{fill:#fff;}.cls-2{fill:#ff7d97;}.cls-3{opacity:0.3;}.cls-4{fill:#324b56;}</style></defs><title>Frames 13</title><g id="Calque_2" data-name="Calque 2"><g id="Label_13" data-name="Label 13"><path class="cls-1" d="M165.65,29.32c-2-.66-63.41-25-64.08-25.3C97.45,2.1,93.1.28,89.09,0H88.4c-4.17.28-8.6,2.12-12.83,4.09C69.21,6.61,13.46,28.7,11.63,29.33A16.69,16.69,0,0,0,0,45.29V152.71a16.72,16.72,0,0,0,11.66,16c1.64.56,47.94,18.9,64.07,25.3,4.12,1.92,8.47,3.74,12.48,4h.71c4.17-.29,8.59-2.12,12.8-4.09,6.37-2.52,62.12-24.62,63.94-25.24a16.71,16.71,0,0,0,11.64-16V45.29A16.73,16.73,0,0,0,165.65,29.32Z"/><path class="cls-2" d="M21.55,145.87a12.86,12.86,0,0,1-1.25-5.59V57.72a13.1,13.1,0,0,1,1.5-6.12,9.42,9.42,0,0,1,.51-.87L4.25,37.36l-.54,1A14.93,14.93,0,0,0,2,45.29V152.71A14.63,14.63,0,0,0,3.4,159l.51,1.11L22,146.78C21.84,146.48,21.68,146.18,21.55,145.87Z"/><path class="cls-2" d="M98.75,25.83c16.51,6.54,48.1,19.05,49.15,19.4a12.74,12.74,0,0,1,5.6,3.57,6.88,6.88,0,0,1,.66.77l18.09-13.31-.72-.82a14.87,14.87,0,0,0-6.48-4.21c-1.42-.45-53.28-21-64.28-25.37a44.94,44.94,0,0,0-9.93-3.6L89.65,2V22.75c.32,0,.66.09,1,.16A34.38,34.38,0,0,1,98.75,25.83Z"/><path class="cls-2" d="M76.36,5.93l-.1,0c-30.2,12-62.88,24.9-64,25.26A14.8,14.8,0,0,0,5.8,35.41l-.73.82,18,13.37a9.61,9.61,0,0,1,.65-.76,12.86,12.86,0,0,1,5.64-3.61c1-.34,32.64-12.86,49.2-19.42a34.24,34.24,0,0,1,8.05-2.9,9.32,9.32,0,0,1,1-.15V2.05l-1.19.22A45.82,45.82,0,0,0,76.36,5.93Z"/><path class="cls-2" d="M78.55,172.17C62,165.62,30.42,153.11,29.4,152.77a13,13,0,0,1-5.61-3.57,9.88,9.88,0,0,1-.66-.77L5,161.74l.73.82a14.87,14.87,0,0,0,6.48,4.21c1.43.46,53.28,21,64.28,25.37a44.76,44.76,0,0,0,9.93,3.6l1.19.23V175.25c-.32,0-.66-.09-1-.16A34.38,34.38,0,0,1,78.55,172.17Z"/><path class="cls-2" d="M173.9,39l-.52-1.11-18.09,13.3c.16.29.32.59.46.9a13,13,0,0,1,1.25,5.6v82.56a13.1,13.1,0,0,1-1.51,6.12,9.34,9.34,0,0,1-.5.87l18.06,13.37.54-1a15,15,0,0,0,1.7-6.9V45.29A14.74,14.74,0,0,0,173.9,39Z"/><path class="cls-2" d="M153.54,149.17a12.93,12.93,0,0,1-5.64,3.6c-1,.34-32.64,12.85-49.2,19.42a33.78,33.78,0,0,1-8,2.9,9.32,9.32,0,0,1-1,.15V196l1.19-.22a45.56,45.56,0,0,0,10.09-3.66c30.22-12,63-24.94,64.12-25.3a14.8,14.8,0,0,0,6.45-4.18l.73-.82-18-13.37A7.92,7.92,0,0,1,153.54,149.17Z"/><path class="cls-3" d="M98.75,25.83c16.51,6.54,48.1,19.05,49.15,19.4a12.74,12.74,0,0,1,5.6,3.57,6.88,6.88,0,0,1,.66.77l18.09-13.31-.72-.82a14.87,14.87,0,0,0-6.48-4.21c-1.42-.45-53.28-21-64.28-25.37a44.94,44.94,0,0,0-9.93-3.6L89.65,2V22.75c.32,0,.66.09,1,.16A34.38,34.38,0,0,1,98.75,25.83Z"/><path class="cls-3" d="M78.55,172.17C62,165.62,30.42,153.11,29.4,152.77a13,13,0,0,1-5.61-3.57,9.88,9.88,0,0,1-.66-.77L5,161.74l.73.82a14.87,14.87,0,0,0,6.48,4.21c1.43.46,53.28,21,64.28,25.37a44.76,44.76,0,0,0,9.93,3.6l1.19.23V175.25c-.32,0-.66-.09-1-.16A34.38,34.38,0,0,1,78.55,172.17Z"/><path class="cls-3" d="M173.9,39l-.52-1.11-18.09,13.3c.16.29.32.59.46.9a13,13,0,0,1,1.25,5.6v82.56a13.1,13.1,0,0,1-1.51,6.12,9.34,9.34,0,0,1-.5.87l18.06,13.37.54-1a15,15,0,0,0,1.7-6.9V45.29A14.74,14.74,0,0,0,173.9,39Z"/><path class="cls-3" d="M153.54,149.17a12.93,12.93,0,0,1-5.64,3.6c-1,.34-32.64,12.85-49.2,19.42a33.78,33.78,0,0,1-8,2.9,9.32,9.32,0,0,1-1,.15V196l1.19-.22a45.56,45.56,0,0,0,10.09-3.66c30.22-12,63-24.94,64.12-25.3a14.8,14.8,0,0,0,6.45-4.18l.73-.82-18-13.37A7.92,7.92,0,0,1,153.54,149.17Z"/><path class="cls-4" d="M165.65,29.32c-2-.66-63.41-25-64.08-25.3C97.45,2.1,93.1.28,89.09,0H88.4c-4.17.28-8.6,2.12-12.83,4.09C69.21,6.61,13.46,28.7,11.63,29.33A16.69,16.69,0,0,0,0,45.29V152.71a16.72,16.72,0,0,0,11.66,16c1.64.56,47.94,18.9,64.07,25.3,4.12,1.92,8.47,3.74,12.48,4h.71c4.17-.29,8.59-2.12,12.8-4.09,6.37-2.52,62.12-24.62,63.94-25.24a16.71,16.71,0,0,0,11.64-16V45.29A16.73,16.73,0,0,0,165.65,29.32ZM89.65,2l1.19.23a44.94,44.94,0,0,1,9.93,3.6c11,4.37,62.86,24.92,64.28,25.37a14.87,14.87,0,0,1,6.48,4.21l.72.82L154.16,49.57a6.88,6.88,0,0,0-.66-.77,12.74,12.74,0,0,0-5.6-3.57c-1.05-.35-32.64-12.86-49.15-19.4a34.38,34.38,0,0,0-8.1-2.92c-.34-.07-.68-.12-1-.16ZM5.8,35.41a14.8,14.8,0,0,1,6.45-4.18C13.38,30.87,46.06,18,76.26,6l.1,0a45.82,45.82,0,0,1,10.1-3.66l1.19-.22V22.76a9.32,9.32,0,0,0-1,.15,34.24,34.24,0,0,0-8.05,2.9C62,32.37,30.43,44.89,29.4,45.23a12.86,12.86,0,0,0-5.64,3.61,9.61,9.61,0,0,0-.65.76l-18-13.37ZM3.91,160.08,3.4,159A14.63,14.63,0,0,1,2,152.71V45.29a14.93,14.93,0,0,1,1.71-6.9l.54-1L22.31,50.73a9.42,9.42,0,0,0-.51.87,13.1,13.1,0,0,0-1.5,6.12v82.56a12.86,12.86,0,0,0,1.25,5.59c.13.31.29.61.45.91ZM87.65,196l-1.19-.23a44.76,44.76,0,0,1-9.93-3.6c-11-4.37-62.85-24.91-64.28-25.37a14.87,14.87,0,0,1-6.48-4.21L5,161.74l18.09-13.31a9.88,9.88,0,0,0,.66.77,13,13,0,0,0,5.61,3.57c1,.34,32.63,12.85,49.15,19.4a34.38,34.38,0,0,0,8.1,2.92c.34.07.68.12,1,.16Zm1.23-22.65h-.41l-.82-.08-1-.18a34.66,34.66,0,0,1-7.31-2.73c-2-.78-48.15-19.08-49.34-19.47A11.08,11.08,0,0,1,25.41,148a8.09,8.09,0,0,1-.67-.76,10.54,10.54,0,0,1-1.55-2.58,11.1,11.1,0,0,1-.89-4.38V57.72a11,11,0,0,1,1.13-4.91c.15-.31.31-.6.48-.89a9.65,9.65,0,0,1,.8-1.13,6.67,6.67,0,0,1,.67-.75A11,11,0,0,1,30,47.13c1.19-.38,47.36-18.69,49.38-19.49a34.63,34.63,0,0,1,7.27-2.7,9.61,9.61,0,0,1,1-.18c.26,0,.51-.06.76-.08h.41l.83.08c.31,0,.66.11,1,.19A34,34,0,0,1,98,27.67c2,.77,48.14,19.08,49.34,19.46A10.94,10.94,0,0,1,151.88,50a6.78,6.78,0,0,1,.68.75,9,9,0,0,1,1.09,1.67,7.76,7.76,0,0,1,.46.91,11.36,11.36,0,0,1,.89,4.39v82.56a11,11,0,0,1-1.14,4.91c-.15.3-.3.6-.48.89a8,8,0,0,1-.8,1.13,6.87,6.87,0,0,1-.67.76,10.88,10.88,0,0,1-4.61,2.89c-1.19.39-47.37,18.69-49.39,19.5a34.79,34.79,0,0,1-7.26,2.7c-.35.08-.69.14-1,.18S89.13,173.3,88.88,173.32Zm82.62-10.73a14.8,14.8,0,0,1-6.45,4.18c-1.14.36-33.9,13.32-64.12,25.3a45.56,45.56,0,0,1-10.09,3.66l-1.19.22V175.24a9.32,9.32,0,0,0,1-.15,33.78,33.78,0,0,0,8-2.9c16.56-6.57,48.16-19.08,49.2-19.42a12.93,12.93,0,0,0,5.64-3.6,7.92,7.92,0,0,0,.64-.77l18,13.37Zm3.79-9.88a15,15,0,0,1-1.7,6.9l-.54,1L155,147.27a9.34,9.34,0,0,0,.5-.87,13.1,13.1,0,0,0,1.51-6.12V57.72a13,13,0,0,0-1.25-5.6c-.14-.31-.3-.61-.46-.9l18.09-13.3L173.9,39a14.74,14.74,0,0,1,1.39,6.26Z"/></g></g></svg>