<svg xmlns="http://www.w3.org/2000/svg" viewBox="0 0 202.83 183.96"><defs><style>.cls-1{fill:#324b56;}.cls-2{fill:#fff;}</style></defs><title>Frames 12</title><g id="Calque_2" data-name="Calque 2"><g id="Label_12" data-name="Label 12"><path class="cls-1" d="M183.44,73.93V49.37H158.89L109.52,0,104.8,4.72,100.08,0,95.36,4.72,90.64,0,41.27,49.37H19.38V71.26L0,90.65,19.38,110v24.55H43.94L93.31,184,98,179.24l4.72,4.72,4.71-4.72,4.72,4.72,49.37-49.38h21.89V112.7l19.39-19.39ZM19.38,90.14l-.51.51.51.51v6.61l-7.11-7.12,7.11-7.12Zm0-9.44-9.94,10,9.94,9.94v6.61L2.83,90.65,19.38,74.09ZM109.52,2.83l46.54,46.54h-6.6L106.22,6.13Zm37.11,46.54H140L101.5,10.85l3.3-3.3Zm-83,83.16L21.7,90.65,60.92,51.43h78.33l41.88,41.88-39.22,39.22Zm76.27,2.05-37.1,37.11L65.64,134.58ZM63,49.37l37.11-37.1,37.11,37.1ZM100.08,2.83l3.31,3.3-3.31,3.31-3.3-3.31Zm-1.41,8L60.15,49.37H53.54L95.36,7.55Zm-8-8L94,6.13,50.71,49.37H44.1Zm-69.2,48.6H39.21L21.44,69.2Zm0,20.6L42,51.43h6.61L21.44,78.64Zm0,9.44,30-30h6.61L21.44,88.08Zm0,11.75,39.31,39.31H54.14l-32.7-32.7Zm0,39.31V112.09l20.44,20.44Zm0-23.27v-6.61l29.88,29.88H44.71Zm71.87,71.87L46.77,134.58h6.6l43.24,43.24ZM56.2,134.58h6.61l38.52,38.52L98,176.41Zm46.55,46.55-3.31-3.31,3.31-3.3,3.3,3.3Zm1.41-8,38.52-38.52h6.61l-41.83,41.83Zm8,8-3.3-3.31,43.24-43.24h6.61Zm69.2-48.6H163.61l17.77-17.78Zm0-20.6-20.59,20.6h-6.61l27.2-27.21Zm0-9.44-30,30h-6.61l36.64-36.65Zm0-11.75-39.3-39.31h6.61l32.69,32.7Zm0-9.44L151.52,51.43h6.6l23.26,23.26Zm0-9.43L161,51.43h20.43Zm2.06,21.95.52-.51-.52-.51V86.19l7.13,7.12-7.13,7.12Zm0,9.44,9.95-10-9.95-10V76.75L200,93.31l-16.56,16.56Z"/><rect class="cls-2" x="20.41" y="50.4" width="162" height="83.15"/></g></g></svg>