<svg xmlns="http://www.w3.org/2000/svg" viewBox="0 0 178 178"><defs><style>.cls-1{fill:#ff7d97;}.cls-2{fill:#324b56;}.cls-3{fill:#fff;}</style></defs><title>Frames 07</title><g id="Calque_2" data-name="Calque 2"><g id="LABEL_07" data-name="LABEL 07"><path class="cls-1" d="M167.24,15.54a4.78,4.78,0,0,1-4.78-4.78A10.78,10.78,0,0,0,151.7,0H26.31A10.78,10.78,0,0,0,15.54,10.76a4.78,4.78,0,0,1-4.78,4.78A10.78,10.78,0,0,0,0,26.3V151.7a10.78,10.78,0,0,0,10.76,10.76,4.78,4.78,0,0,1,4.78,4.78A10.78,10.78,0,0,0,26.31,178H151.7a10.78,10.78,0,0,0,10.76-10.76,4.78,4.78,0,0,1,4.78-4.78A10.78,10.78,0,0,0,178,151.7V26.3A10.78,10.78,0,0,0,167.24,15.54Z"/><path class="cls-2" d="M167.24,15.54a4.78,4.78,0,0,1-4.78-4.78A10.78,10.78,0,0,0,151.7,0H26.31A10.78,10.78,0,0,0,15.54,10.76a4.78,4.78,0,0,1-4.78,4.78A10.78,10.78,0,0,0,0,26.3V151.7a10.78,10.78,0,0,0,10.76,10.76,4.78,4.78,0,0,1,4.78,4.78A10.78,10.78,0,0,0,26.31,178H151.7a10.78,10.78,0,0,0,10.76-10.76,4.78,4.78,0,0,1,4.78-4.78A10.78,10.78,0,0,0,178,151.7V26.3A10.78,10.78,0,0,0,167.24,15.54ZM172,151.7a4.79,4.79,0,0,1-4.78,4.78,10.78,10.78,0,0,0-10.76,10.76A4.79,4.79,0,0,1,151.7,172H26.31a4.79,4.79,0,0,1-4.79-4.78,10.78,10.78,0,0,0-10.76-10.76A4.79,4.79,0,0,1,6,151.7V26.3a4.79,4.79,0,0,1,4.78-4.78A10.77,10.77,0,0,0,21.52,10.76,4.79,4.79,0,0,1,26.31,6H151.7a4.79,4.79,0,0,1,4.78,4.78,10.77,10.77,0,0,0,10.76,10.76A4.79,4.79,0,0,1,172,26.3Z"/><path class="cls-3" d="M160.54,23.82a6.36,6.36,0,0,1-6.36-6.36,7.86,7.86,0,0,0-7.85-7.85H31.67a7.86,7.86,0,0,0-7.85,7.85,6.36,6.36,0,0,1-6.36,6.36,7.86,7.86,0,0,0-7.85,7.85V146.33a7.86,7.86,0,0,0,7.85,7.85,6.37,6.37,0,0,1,6.36,6.36,7.87,7.87,0,0,0,7.85,7.86H146.33a7.87,7.87,0,0,0,7.85-7.86,6.37,6.37,0,0,1,6.36-6.36,7.86,7.86,0,0,0,7.85-7.85V31.67A7.86,7.86,0,0,0,160.54,23.82Zm6.36,122.51a6.36,6.36,0,0,1-6.36,6.36,7.86,7.86,0,0,0-7.85,7.85,6.36,6.36,0,0,1-6.36,6.36H31.67a6.36,6.36,0,0,1-6.36-6.36,7.86,7.86,0,0,0-7.85-7.85,6.36,6.36,0,0,1-6.36-6.36V31.67a6.37,6.37,0,0,1,6.36-6.36,7.86,7.86,0,0,0,7.85-7.85,6.36,6.36,0,0,1,6.36-6.36H146.33a6.36,6.36,0,0,1,6.36,6.36,7.86,7.86,0,0,0,7.85,7.85,6.37,6.37,0,0,1,6.36,6.36Z"/></g></g></svg>