<svg xmlns="http://www.w3.org/2000/svg" viewBox="0 0 191.13 111.61"><defs><style>.cls-1{fill:#fff;}.cls-2{fill:#ff7d97;}.cls-3{fill:#324b56;}</style></defs><title>Frames 14</title><g id="Calque_2" data-name="Calque 2"><g id="Label_14" data-name="Label 14"><path class="cls-1" d="M183.41,15.17V8.29a.56.56,0,0,0-.56-.57H176A8.66,8.66,0,0,0,167.7,0H23.44a8.65,8.65,0,0,0-8.27,7.72H8.29a.57.57,0,0,0-.57.57v6.88A8.65,8.65,0,0,0,0,23.43V88.18a8.64,8.64,0,0,0,7.72,8.26v6.88a.57.57,0,0,0,.57.57h6.88a8.65,8.65,0,0,0,8.27,7.72H167.7a8.66,8.66,0,0,0,8.27-7.72h6.88a.56.56,0,0,0,.56-.57V96.44a8.64,8.64,0,0,0,7.72-8.26V23.43A8.65,8.65,0,0,0,183.41,15.17Z"/><path class="cls-2" d="M181.06,17.49V10.07h-7.42a8.07,8.07,0,0,0-7.72-7.72H25.22a8.08,8.08,0,0,0-7.73,7.72H10.07v7.42a8.08,8.08,0,0,0-7.72,7.73V86.4a8.08,8.08,0,0,0,7.72,7.72v7.42h7.42a8.08,8.08,0,0,0,7.73,7.72h140.7a8.07,8.07,0,0,0,7.72-7.72h7.42V94.12a8.08,8.08,0,0,0,7.73-7.72V25.22A8.09,8.09,0,0,0,181.06,17.49Z"/><path class="cls-3" d="M183.41,15.17V8.29a.56.56,0,0,0-.56-.57H176A8.66,8.66,0,0,0,167.7,0H23.44a8.65,8.65,0,0,0-8.27,7.72H8.29a.57.57,0,0,0-.57.57v6.88A8.65,8.65,0,0,0,0,23.43V88.18a8.64,8.64,0,0,0,7.72,8.26v6.88a.57.57,0,0,0,.57.57h6.88a8.65,8.65,0,0,0,8.27,7.72H167.7a8.66,8.66,0,0,0,8.27-7.72h6.88a.56.56,0,0,0,.56-.57V96.44a8.64,8.64,0,0,0,7.72-8.26V23.43A8.65,8.65,0,0,0,183.41,15.17Zm6.59,73a7.54,7.54,0,0,1-7.15,7.15.56.56,0,0,0-.57.57v6.85h-6.86a.58.58,0,0,0-.57.57,7.53,7.53,0,0,1-7.15,7.16H23.44a7.54,7.54,0,0,1-7.16-7.16.57.57,0,0,0-.57-.57H8.86V95.9a.57.57,0,0,0-.57-.57,7.54,7.54,0,0,1-7.16-7.15V23.43a7.54,7.54,0,0,1,7.16-7.15.57.57,0,0,0,.57-.57V8.86h6.85a.57.57,0,0,0,.57-.57,7.54,7.54,0,0,1,7.16-7.16H167.7a7.53,7.53,0,0,1,7.15,7.16.58.58,0,0,0,.57.57h6.86v6.85a.56.56,0,0,0,.57.57A7.54,7.54,0,0,1,190,23.43Z"/><path class="cls-3" d="M181.06,17.49V10.07h-7.42a8.07,8.07,0,0,0-7.72-7.72H25.22a8.08,8.08,0,0,0-7.73,7.72H10.07v7.42a8.08,8.08,0,0,0-7.72,7.73V86.4a8.08,8.08,0,0,0,7.72,7.72v7.42h7.42a8.08,8.08,0,0,0,7.73,7.72h140.7a8.07,8.07,0,0,0,7.72-7.72h7.42V94.12a8.08,8.08,0,0,0,7.73-7.72V25.22A8.09,8.09,0,0,0,181.06,17.49ZM187,84.61a8.07,8.07,0,0,1-7.72,7.72v7.43h-7.42a8.08,8.08,0,0,1-7.73,7.72H27a8.07,8.07,0,0,1-7.72-7.72H11.85V92.33a8.07,8.07,0,0,1-7.72-7.72V27a8.07,8.07,0,0,1,7.72-7.72V11.85h7.43A8.07,8.07,0,0,1,27,4.13H164.13a8.08,8.08,0,0,1,7.73,7.72h7.42v7.43A8.07,8.07,0,0,1,187,27Z"/></g></g></svg>