<svg xmlns="http://www.w3.org/2000/svg" viewBox="0 0 160.35 188.92"><defs><style>.cls-1{fill:#ff7d97;}.cls-2{fill:#324b56;}.cls-3{fill:#fff;}</style></defs><title>Frames 01</title><g id="Calque_2" data-name="Calque 2"><g id="label_01" data-name="label 01"><path class="cls-1" d="M80.17,0l-.9.54L0,47.79v92.54l80.89,48.59,79.46-48.6V47.79Z"/><path class="cls-2" d="M80.17,0l-.9.54L0,47.79v92.54l80.89,48.59,79.46-48.6V47.79ZM156.8,138.33,80.87,184.78,3.54,138.32V49.81L80.17,4.12,156.8,49.81Z"/><polygon class="cls-3" points="15.55 51.84 13.64 54.82 75.81 94.82 13.64 134.82 15.55 137.8 79.09 96.93 142.62 137.8 144.54 134.82 82.36 94.82 144.54 54.82 142.62 51.84 79.09 92.72 15.55 51.84"/></g></g></svg>