<svg xmlns="http://www.w3.org/2000/svg" viewBox="0 0 196 45.04"><defs><style>.cls-1{fill:#fff;}.cls-2{fill:#324b56;}.cls-3{opacity:0.5;}</style></defs><title>Banners03</title><g id="Calque_2" data-name="Calque 2"><g id="Ribbon_03" data-name="Ribbon 03"><path class="cls-1" d="M194.79,23.42a184.09,184.09,0,0,0-23.39-8.3,2,2,0,0,0-.53-.07l1.63-6.16a2,2,0,0,0-1.42-2.45C155.9,2.41,128.56,0,97.94,0S40.22,2.39,25.09,6.4a2,2,0,0,0-1.42,2.44L25.3,15a2.33,2.33,0,0,0-.53.07A185.16,185.16,0,0,0,1.21,23.42,2,2,0,0,0,0,25.06,2,2,0,0,0,.85,26.9c2.74,1.91,5.45,3.91,8.06,6-.48,3.31-.89,6.67-1.2,10a2,2,0,0,0,.81,1.81A2,2,0,0,0,9.7,45a2,2,0,0,0,.79-.16A160.9,160.9,0,0,1,43.27,34.69a2,2,0,0,0,1.58-2.33,2.06,2.06,0,0,0-.45-.94,2,2,0,0,0,.07-1l-.64-3.21c13.9-2,33-3.16,54.12-3.16s40.28,1.15,54.21,3.17l-.62,3.2a1.92,1.92,0,0,0,.07,1,2,2,0,0,0-.46.94,2,2,0,0,0,1.58,2.33,160.27,160.27,0,0,1,32.78,10.19,2,2,0,0,0,.8.16,2,2,0,0,0,1.17-.38,2,2,0,0,0,.82-1.81c-.32-3.34-.73-6.7-1.21-10,2.61-2,5.31-4,8.06-6a2,2,0,0,0,.84-1.84A2,2,0,0,0,194.79,23.42Z"/><path class="cls-2" d="M164.72,29.81q-5.25-1.39-10.55-2.43c-.22,1.14-.45,2.28-.67,3.42C162.92,32.41,164.71,29.87,164.72,29.81Z"/><path class="cls-2" d="M194,25.26a181.55,181.55,0,0,0-23.14-8.21q-1.89,6.7-3.77,13.41l-.14-.05c0,.1-2.38,4.34-13.83,2.32A162.56,162.56,0,0,1,186.31,43q-.52-5.51-1.37-11Q189.34,28.52,194,25.26Z"/><path class="cls-2" d="M29.05,30.41Q27.18,23.71,25.31,17A182.08,182.08,0,0,0,2,25.26Q6.67,28.52,11.06,32q-.84,5.53-1.36,11A162.48,162.48,0,0,1,42.88,32.73C31.43,34.75,29.07,30.51,29.05,30.41Z"/><path class="cls-2" d="M170.57,8.37c-31.94-8.48-113-8.49-145,0l5.13,19.38c28.58-7.56,106.12-7.55,134.7,0Q168,18.06,170.57,8.37Z"/><path class="cls-2" d="M42.51,30.8c-.23-1.14-.45-2.28-.68-3.42q-5.3,1-10.54,2.43C31.29,29.87,33.08,32.41,42.51,30.8Z"/><path class="cls-2" d="M164.72,29.81q-5.25-1.39-10.55-2.43c-.22,1.14-.45,2.28-.67,3.42C162.92,32.41,164.71,29.87,164.72,29.81Z"/><path class="cls-2" d="M42.51,30.8c-.23-1.14-.45-2.28-.68-3.42q-5.3,1-10.54,2.43C31.29,29.87,33.08,32.41,42.51,30.8Z"/><path class="cls-3" d="M164.72,29.81q-5.25-1.39-10.55-2.43c-.22,1.14-.45,2.28-.67,3.42C162.92,32.41,164.71,29.87,164.72,29.81Z"/><path class="cls-3" d="M42.51,30.8c-.23-1.14-.45-2.28-.68-3.42q-5.3,1-10.54,2.43C31.29,29.87,33.08,32.41,42.51,30.8Z"/><path class="cls-2" d="M153.5,30.8c9.42,1.61,11.21-.93,11.22-1"/><path class="cls-2" d="M41.83,27.38q-5.3,1-10.54,2.43"/></g></g></svg>