<svg xmlns="http://www.w3.org/2000/svg" viewBox="0 0 150.77 40.26"><defs><style>.cls-1{fill:#324b56;}.cls-3{opacity:0.2;}.cls-5{opacity:0.5;}</style></defs><title>Banners05</title><g id="Calque_2" data-name="Calque 2"><g id="Ribbon_14" data-name="Ribbon 14"><path class="cls-1" d="M150.77,30.67,141.85,21,147,12.42H130.66L127.4,0h0c-11.27,6.64-35.46,10.7-52,10.7-15.92,0-38.93-3.77-50.68-10L23.85.26,23.39,0h0L20.12,12.42H3.78L8.92,21,0,30.67H33.17l4.7-6.7A145.75,145.75,0,0,0,75.4,29.32,144.25,144.25,0,0,0,116.08,23l1.52,7.65Z"/><g class="cls-3"><path class="cls-4" d="M117.6,30.67h33.17L141.85,21,147,12.42H130.66l.92,3.49h0Z"/><polygon points="20.12 12.42 3.78 12.42 8.92 21.04 0 30.67 33.17 30.67 19.2 15.91 20.12 12.42"/></g><path class="cls-5" d="M116.08,23l1.52,7.65,14-14.75C127.72,18.65,122.29,21,116.08,23Z"/><path class="cls-5" d="M20.13,12.42h0l-.92,3.49,14,14.76,4.7-6.7c-7.54-2.14-14.18-4.87-18.66-8.06Z"/></g></g></svg>