<svg xmlns="http://www.w3.org/2000/svg" viewBox="0 0 200 40"><defs><style>.cls-1{fill:#cce3e8;}.cls-2{fill:#324b56;}.cls-3{opacity:0.5;}</style></defs><title>Banners16</title><g id="Calque_2" data-name="Calque 2"><g id="Ribbon_15" data-name="Ribbon 15"><polygon class="cls-1" points="1.31 37.78 1.31 37.78 1.57 37.35 1.31 37.78"/><path class="cls-2" d="M162.22,37.78l4.44-1.48h31.16l-5.23-8.89,5.23-8.89h-20V17h20.91L200,14.81H177.78v-3.7H155.56V9.63h22.22V7.41H155.56V3.7H44.44V7.41H22.22V9.63H44.44v1.48H22.22v3.7H0L1.31,17H22.22v1.48h-20l5.23,8.89L2.18,36.3H33.34l4.44,1.48H1.31L0,40H44.44V32.59H66.67v-7.4h66.66v7.4h22.23V40H200l-1.31-2.22Zm-140-7.41V28.89H55.56L60,30.37ZM44.44,23V21.48H155.56V23ZM140,30.37l4.44-1.48h33.34v1.48Z"/><polygon class="cls-2" points="198.44 37.35 198.69 37.78 198.69 37.78 198.44 37.35"/><polygon class="cls-2" points="148.89 2.22 155.56 2.22 155.56 0 44.44 0 44.44 2.22 51.11 2.22 148.89 2.22"/><polygon class="cls-1" points="177.78 18.52 197.82 18.52 198.69 17.04 177.78 17.04 177.78 18.52"/><polygon class="cls-1" points="22.22 17.04 1.31 17.04 2.18 18.52 22.22 18.52 22.22 17.04"/><rect class="cls-1" x="22.22" y="9.63" width="22.22" height="1.48"/><rect class="cls-1" x="155.56" y="9.63" width="22.22" height="1.48"/><polygon class="cls-1" points="198.44 37.35 197.82 36.3 166.66 36.3 162.22 37.78 198.69 37.78 198.44 37.35"/><polygon class="cls-1" points="2.18 36.3 1.57 37.35 1.31 37.78 37.78 37.78 33.34 36.3 2.18 36.3"/><polygon class="cls-1" points="60 30.37 22.22 30.37 22.22 28.89 55.56 28.89 60 30.37"/><polygon class="cls-1" points="177.78 28.89 177.78 30.37 140 30.37 144.44 28.89 177.78 28.89"/><rect class="cls-1" x="44.44" y="21.48" width="111.12" height="1.48"/><rect class="cls-1" x="44.44" y="2.22" width="111.12" height="1.48"/><polygon class="cls-3" points="44.44 32.59 22.22 32.59 33.34 36.3 37.78 37.78 44.44 40 44.44 40 44.44 32.59 44.44 32.59"/><polygon class="cls-3" points="44.44 25.18 55.56 28.89 60 30.37 66.67 32.59 66.67 30.37 66.67 28.89 66.67 25.18 44.44 25.18"/><polygon class="cls-3" points="133.33 25.18 133.33 28.89 133.33 30.37 133.33 32.59 140 30.37 144.44 28.89 155.56 25.18 133.33 25.18"/><polygon class="cls-3" points="155.56 32.59 155.56 40 162.22 37.78 166.66 36.3 177.78 32.59 155.56 32.59"/></g></g></svg>