<svg xmlns="http://www.w3.org/2000/svg" viewBox="0 0 198 32.33"><defs><style>.cls-1{fill:#fff;}.cls-1,.cls-2{fill-rule:evenodd;}.cls-2{fill:#324b56;}</style></defs><title>Banners04</title><g id="Calque_2" data-name="Calque 2"><g id="Ribbon_04" data-name="Ribbon 04"><path class="cls-1" d="M197.64,23.82l-7.9-11.33,7.79-9.2a2,2,0,0,0,.28-2.13A2,2,0,0,0,196,0H148.92a2,2,0,0,0-2,2V5.34H51.07V2a2,2,0,0,0-2-2H2A2,2,0,0,0,.19,1.16,2,2,0,0,0,.47,3.29l7.79,9.2L.36,23.82a2,2,0,0,0-.13,2.07A2,2,0,0,0,2,27H38.85v3.36a2,2,0,0,0,2,2h116.3a2,2,0,0,0,2-2V27H196a2,2,0,0,0,1.64-3.15Z"/><polygon class="cls-2" points="196 24.97 158.29 24.97 158.29 6.21 151.56 3.36 156.65 6.21 148.92 6.21 148.92 2 196 2 187.22 12.38 196 24.97"/><polygon class="cls-2" points="2 24.97 39.71 24.97 39.71 6.21 46.44 3.36 41.34 6.21 49.07 6.21 49.07 2 2 2 10.78 12.38 2 24.97"/><polygon class="cls-2" points="99.19 30.33 157.15 30.33 157.15 7.34 99.19 7.34 98.81 7.34 40.84 7.34 40.84 30.33 98.81 30.33 99.19 30.33"/></g></g></svg>