<svg xmlns="http://www.w3.org/2000/svg" viewBox="0 0 142 187.82"><defs><style>.cls-1{fill:#324b56;}.cls-2{fill:#cce3e8;}.cls-3{opacity:0.3;}</style></defs><title>Banners 14</title><g id="Calque_2" data-name="Calque 2"><g id="Ribbon_14" data-name="Ribbon 14"><polygon class="cls-1" points="68.42 130.1 68.36 130.1 68.39 130.03 68.42 130.1"/><polygon class="cls-1" points="73.64 130.1 73.58 130.1 73.61 130.03 73.64 130.1"/><path class="cls-1" d="M73.61,130l0,.07h.06Zm-5.22,0,0,.07h.06Z"/><path class="cls-1" d="M73.61,130l0,.07h.06Zm-5.22,0,0,.07h.06Z"/><path class="cls-1" d="M117.92,124.27a71,71,0,1,0-93.84,0l-2,4.38L3.77,167.82,9.39,167l22.49-3.44,9.86,16.2,2,3.24,2.95,4.86,19.28-41.34,2.12-4.54q1.45.06,2.94.06t2.94-.06l2.12,4.54,19.28,41.34,3-4.86,2-3.24,9.86-16.2L132.61,167l5.62.86L120,128.65ZM73.64,130.1h-.06l0-.07Zm-5.22,0h-.06l0-.07Z"/><polygon class="cls-1" points="68.42 130.1 68.36 130.1 68.39 130.03 68.42 130.1"/><polygon class="cls-1" points="73.64 130.1 73.58 130.1 73.61 130.03 73.64 130.1"/><path class="cls-2" d="M41.74,179.72l2,3.24L63,141.55c-1.1-.12-2.2-.27-3.28-.44Z"/><path class="cls-2" d="M9.39,167l3.75-.58,17.3-37.1c-.88-.62-1.74-1.25-2.59-1.91Z"/><path class="cls-2" d="M79,141.55,98.29,183l2-3.24-18-38.61C81.18,141.28,80.08,141.43,79,141.55Z"/><path class="cls-2" d="M111.56,129.28l17.3,37.1,3.75.58-18.46-39.59C113.3,128,112.44,128.66,111.56,129.28Z"/><path class="cls-2" d="M71,4.73a66.23,66.23,0,0,0-44.82,115c1.2,1.11,2.45,2.17,3.73,3.19.84.67,1.7,1.32,2.58,1.94a65.93,65.93,0,0,0,29.34,11.74c1.09.15,2.2.28,3.31.37,1.68.15,3.38.24,5.1.25h1.52c1.72,0,3.42-.1,5.1-.25,1.11-.09,2.22-.22,3.31-.37a65.93,65.93,0,0,0,29.34-11.74c.88-.62,1.74-1.27,2.58-1.94,1.28-1,2.53-2.08,3.73-3.19A66.23,66.23,0,0,0,71,4.73Zm43.42,112q-1.78,1.69-3.7,3.25c-.84.68-1.69,1.34-2.57,2a62.68,62.68,0,0,1-29.38,11.65q-1.65.21-3.33.33c-1.23.08-2.48.13-3.73.14H70.29c-1.25,0-2.5-.06-3.73-.14s-2.23-.19-3.33-.33A62.68,62.68,0,0,1,33.85,122c-.88-.63-1.73-1.29-2.57-2q-1.92-1.56-3.7-3.25a63.11,63.11,0,1,1,86.84,0Z"/><path class="cls-3" d="M63,141.55q2.49.28,5,.39l-2.12,4.54c-1.68-.11-3.34-.27-5-.5-1.09-.14-2.18-.3-3.25-.49a75.22,75.22,0,0,1-29.25-11.94q-1.32-.9-2.61-1.86-1.95-1.45-3.81-3l2-4.38c1.22,1.08,2.47,2.12,3.77,3.1.85.66,1.71,1.29,2.59,1.91a70.6,70.6,0,0,0,29.3,11.83C60.82,141.28,61.92,141.43,63,141.55Z"/><path class="cls-3" d="M120,128.65q-1.86,1.59-3.81,3-1.29,1-2.61,1.86A75.22,75.22,0,0,1,84.3,145.49c-1.07.19-2.16.35-3.25.49-1.65.23-3.31.39-5,.5l-2.12-4.54q2.55-.1,5-.39c1.1-.12,2.2-.27,3.28-.44a70.6,70.6,0,0,0,29.3-11.83c.88-.62,1.74-1.25,2.59-1.91,1.3-1,2.55-2,3.77-3.1Z"/></g></g></svg>