<svg xmlns="http://www.w3.org/2000/svg" viewBox="0 0 178.6 121.79"><defs><style>.cls-1{fill:#fff;}.cls-2{fill:#324b56;}</style></defs><title>Speech Ballon 04</title><g id="Calque_2" data-name="Calque 2"><g id="bubble_04" data-name="bubble 04"><path class="cls-1" d="M120.4,119.84a177,177,0,0,1-19-8.7,6.7,6.7,0,0,0-3.18-.8,7.13,7.13,0,0,0-1,.07,140.9,140.9,0,0,1-21.56,1.69c-39.19,0-70.41-17.48-74.24-41.56-4.72-29.65,30.87-60,79.32-67.76A141.3,141.3,0,0,1,102.89,1c39.85,0,70.4,17.09,74.29,41.56,3.84,24-19.29,49.54-56.26,62.08a6.71,6.71,0,0,0-3.66,9.68Z"/><path class="cls-2" d="M102.89,2c39.35,0,69.49,16.74,73.31,40.71,3.76,23.53-19.1,48.61-55.6,61a7.7,7.7,0,0,0-4.21,11.12l1.73,3a174.27,174.27,0,0,1-16.22-7.59,7.64,7.64,0,0,0-3.65-.92,7.72,7.72,0,0,0-1.18.09,140.39,140.39,0,0,1-21.41,1.67C37,111.1,6.16,94,2.41,70.39.2,56.49,7,41.92,21.63,29.36,36.51,16.57,57.56,7.48,80.9,3.76a140.36,140.36,0,0,1,22-1.76m0-2a141.91,141.91,0,0,0-22.3,1.79C31.58,9.59-4.37,40.5.43,70.7,4.34,95.27,36,113.1,75.66,113.1a141.6,141.6,0,0,0,21.71-1.7,6.4,6.4,0,0,1,.88-.06,5.67,5.67,0,0,1,2.7.68,183.51,183.51,0,0,0,21.7,9.77c-1.27-2.26-2.77-4.89-4.53-8a5.7,5.7,0,0,1,3.12-8.23c37.44-12.7,60.85-38.68,56.93-63.19-4-25-34.93-42.4-75.28-42.4Z"/></g></g></svg>