<svg xmlns="http://www.w3.org/2000/svg" viewBox="0 0 167.95 171.16"><defs><style>.cls-1{fill:#fff;}.cls-2{fill:#324b56;}</style></defs><title>Speech Ballon 02</title><g id="Calque_2" data-name="Calque 2"><g id="bubble_02" data-name="bubble 02"><path class="cls-1" d="M165.44,2.35c-1.21,7.59-2.56,24.74-4.09,44.17-2.31,29.36-5.17,65.59-8.23,75.54-6.51.33-26.53,2-49.5,3.93l-.51,0-.33,0-.84.07-.18,1-.19,1L99,142.25l-9.23,7.64-28.95,16.8,5.31-11.64a3,3,0,0,0,.18-.6l1.46-9.23a2.37,2.37,0,0,0-.35-1.68,1.49,1.49,0,0,0-1.23-.71h0l-17.89.43-4.37-10.39-.41-1-.41-1-.88.07-.88.06c-13.1,1-23.4,1.66-27.75,1.69C12.27,120.65,4.41,49.21,2.19,32,22.27,25.53,134.64,6.63,165.44,2.35Z"/><path class="cls-2" d="M0,30.68c2,15,11.8,104,11.8,104a14.62,14.62,0,0,0,1.54.06c4.32,0,15.07-.69,28.83-1.74l5.16,12.29,18.89-.45-1.46,9.23L57,171.16l33.63-19.52,9.87-8.17L103.25,128c25.23-2.1,46.92-3.92,51.31-4C160.23,110.16,164.77,11.8,168,0,140,3.63,15.66,24.55,0,30.68Zm153.12,91.38c-6.51.33-26.53,2-49.5,3.93l-.51,0-.33,0-.84.07-.18,1-.19,1L99,142.25l-9.23,7.64-28.95,16.8,5.31-11.64a3,3,0,0,0,.18-.6l1.46-9.23a2.37,2.37,0,0,0-.35-1.68,1.49,1.49,0,0,0-1.23-.71h0l-17.89.43-4.37-10.39-.41-1-.41-1-.88.07-.88.06c-13.1,1-23.4,1.66-27.75,1.69C12.27,120.65,4.41,49.21,2.19,32,22.27,25.53,134.64,6.63,165.44,2.35c-1.21,7.59-2.56,24.74-4.09,44.17C159,75.88,156.18,112.11,153.12,122.06Z"/></g></g></svg>