<svg xmlns="http://www.w3.org/2000/svg" viewBox="0 0 172.99 174"><defs><style>.cls-1{fill:#ff7d97;}.cls-2{fill:#324b56;}.cls-3{fill:#f9f9f9;}</style></defs><title>Frames 04</title><g id="Calque_2" data-name="Calque 2"><g id="LABEL_04" data-name="LABEL 04"><path class="cls-1" d="M162.07,87.05,173,77.89l-12.62-6.6,8.89-11.18L155.54,56.3l6.27-12.78-14.22-.93,3.56-13.8-14.06,2,.5-14.23-13.3,5-2.46-14-12,7.62L104.57,1.94,94.4,11.86,86.45,0,78.58,11.86,68.41,1.94,63.17,15.16l-12-7.62L48.68,21.59l-13.37-5,.59,14.23-14.06-2,3.56,13.8-14.22.93L17.44,56.3,3.72,60.11l8.9,11.18L0,77.89l10.92,9.16L0,96.11l12.62,6.6-8.9,11.17,13.72,3.9-6.26,12.7,14.22.93-3.56,13.8,14.06-2-.59,14.22,13.37-5,2.45,14.05,12-7.62,5.24,13.29,10.17-10L86.45,174l8-11.86,10.17,10,5.25-13.29,12,7.62,2.46-14.05,13.3,5-.5-14.22,14.06,2-3.56-13.8,14.22-.93-6.27-12.7,13.72-3.9-8.89-11.17L173,96.11Z"/><path class="cls-2" d="M162.07,87.05,173,77.89l-12.62-6.6,8.89-11.18L155.54,56.3l6.27-12.78-14.22-.93,3.56-13.8-14.06,2,.5-14.23-13.3,5-2.46-14-12,7.62L104.57,1.94,94.4,11.86,86.45,0,78.58,11.86,68.41,1.94,63.17,15.16l-12-7.62L48.68,21.59l-13.37-5,.59,14.23-14.06-2,3.56,13.8-14.22.93L17.44,56.3,3.72,60.11l8.9,11.18L0,77.89l10.92,9.16L0,96.11l12.62,6.6-8.9,11.17,13.72,3.9-6.26,12.7,14.22.93-3.56,13.8,14.06-2-.59,14.22,13.37-5,2.45,14.05,12-7.62,5.24,13.29,10.17-10L86.45,174l8-11.86,10.17,10,5.25-13.29,12,7.62,2.46-14.05,13.3,5-.5-14.22,14.06,2-3.56-13.8,14.22-.93-6.27-12.7,13.72-3.9-8.89-11.17L173,96.11ZM86.43,157.66A70.66,70.66,0,1,1,157.16,87,70.67,70.67,0,0,1,86.43,157.66Z"/><rect class="cls-3" x="28.1" y="66.36" width="116.77" height="1.68"/><rect class="cls-3" x="28.1" y="104.81" width="116.77" height="1.68"/></g></g></svg>