<svg xmlns="http://www.w3.org/2000/svg" viewBox="0 0 182 158"><defs><style>.cls-1{fill:#324b56;}.cls-2{fill:#fff;}.cls-3{fill:#ff7d97;}</style></defs><title>Frames 05</title><g id="Calque_2" data-name="Calque 2"><g id="LABEL_05" data-name="LABEL 05"><path class="cls-1" d="M175.56,25.33l-.23-.89L91.45.13,91,0,6.67,24.44l-.23.89A221.53,221.53,0,0,0,0,79a221.53,221.53,0,0,0,6.44,53.67l.23.89,83.88,24.31L91,158l84.33-24.44.23-.89A221.53,221.53,0,0,0,182,79,221.59,221.59,0,0,0,175.56,25.33Z"/><path class="cls-2" d="M171,28.61,91,5.43,11,28.61A216.55,216.55,0,0,0,5.21,79,216.55,216.55,0,0,0,11,129.39l80,23.18,80-23.18A216.48,216.48,0,0,0,176.79,79,216.48,216.48,0,0,0,171,28.61Zm-1.68,99.19L91,150.49,12.68,127.8A215.46,215.46,0,0,1,7.21,79a215.46,215.46,0,0,1,5.47-48.8L91,7.51,169.31,30.2A214.77,214.77,0,0,1,174.79,79,214.77,214.77,0,0,1,169.31,127.8Z"/><path class="cls-3" d="M169.31,30.2,91,7.51,12.68,30.2A215.46,215.46,0,0,0,7.21,79a215.46,215.46,0,0,0,5.47,48.8L91,150.49l78.31-22.69A214.77,214.77,0,0,0,174.79,79,214.77,214.77,0,0,0,169.31,30.2Z"/></g></g></svg>