<svg xmlns="http://www.w3.org/2000/svg" viewBox="0 0 180 180"><defs><style>.cls-1{fill:#ff7d97;}.cls-2{fill:#324b56;}.cls-3{fill:#fff;}</style></defs><title>Frames 09</title><g id="Calque_2" data-name="Calque 2"><g id="LABEL_09" data-name="LABEL 09"><path class="cls-1" d="M90,0a90,90,0,1,0,90,90A90.1,90.1,0,0,0,90,0Z"/><path class="cls-2" d="M90,0a90,90,0,1,0,90,90A90.1,90.1,0,0,0,90,0Zm0,174.49A84.49,84.49,0,1,1,174.49,90,84.58,84.58,0,0,1,90,174.49Z"/><path class="cls-3" d="M90,9.18A80.82,80.82,0,1,0,170.82,90,80.9,80.9,0,0,0,90,9.18ZM90,168.6A78.6,78.6,0,1,1,168.6,90,78.69,78.69,0,0,1,90,168.6Z"/></g></g></svg>