<svg xmlns="http://www.w3.org/2000/svg" viewBox="0 0 208.19 157.34"><defs><style>.cls-1{fill:#ff7d97;}.cls-2{fill:#324b56;}.cls-3{fill:#fff;}</style></defs><title>Frames 11</title><g id="Calque_2" data-name="Calque 2"><g id="Label_11" data-name="Label 11"><path class="cls-1" d="M104.58,157.34a78,78,0,0,1-56.2-23.64,20.61,20.61,0,0,0-6.24,4.1l-.46.5-.68-.09c-3-.39-5.88-.82-8.73-1.25l-.79-.12-.26-.76c-1.92-5.53-7.68-10.41-13.11-11.13l-.84-.11L17,124c-.85-2.7-1.64-11.47-2.35-14.25h-1.8A12.88,12.88,0,0,1,0,96.93V60A12.88,12.88,0,0,1,12.86,47.1h1.68c.72-2.82,1.52-11.63,2.37-14.35l.25-.81.84-.11c5.61-.72,11.41-5.74,13.22-11.43l.25-.78.81-.13c4.61-.7,9.32-1.35,14-1.93l.4,0,.35.17a47.72,47.72,0,0,0,5.28,2.19,78.62,78.62,0,0,1,104.21-.27,47.32,47.32,0,0,0,4.73-2l.35-.18.4.05c5.05.61,10.06,1.29,14.92,2l.81.13.25.78c1.81,5.69,7.61,10.71,13.22,11.43l.84.11.25.81c.85,2.72,1.65,11.53,2.37,14.35h.66A12.88,12.88,0,0,1,208.19,60v37a12.88,12.88,0,0,1-12.86,12.86h-.77c-.69,2.66-1.45,11.32-2.26,13.91l-.25.81-.84.11c-5.61.73-11.41,5.75-13.22,11.43l-.25.79-.81.12c-2.86.44-5.79.86-8.72,1.25l-.68.09-.46-.5a20.68,20.68,0,0,0-6.27-4.11A78,78,0,0,1,104.58,157.34Z"/><path class="cls-2" d="M104.58,157.34a78,78,0,0,1-56.2-23.64,20.61,20.61,0,0,0-6.24,4.1l-.46.5-.68-.09c-3-.39-5.88-.82-8.73-1.25l-.79-.12-.26-.76c-1.92-5.53-7.68-10.41-13.11-11.13l-.84-.11L17,124c-.85-2.7-1.64-11.47-2.35-14.25h-1.8A12.88,12.88,0,0,1,0,96.93V60A12.88,12.88,0,0,1,12.86,47.1h1.68c.72-2.82,1.52-11.63,2.37-14.35l.25-.81.84-.11c5.61-.72,11.41-5.74,13.22-11.43l.25-.78.81-.13c4.61-.7,9.32-1.35,14-1.93l.4,0,.35.17a47.72,47.72,0,0,0,5.28,2.19,78.62,78.62,0,0,1,104.21-.27,47.32,47.32,0,0,0,4.73-2l.35-.18.4.05c5.05.61,10.06,1.29,14.92,2l.81.13.25.78c1.81,5.69,7.61,10.71,13.22,11.43l.84.11.25.81c.85,2.72,1.65,11.53,2.37,14.35h.66A12.88,12.88,0,0,1,208.19,60v37a12.88,12.88,0,0,1-12.86,12.86h-.77c-.69,2.66-1.45,11.32-2.26,13.91l-.25.81-.84.11c-5.61.73-11.41,5.75-13.22,11.43l-.25.79-.81.12c-2.86.44-5.79.86-8.72,1.25l-.68.09-.46-.5a20.68,20.68,0,0,0-6.27-4.11A78,78,0,0,1,104.58,157.34ZM49,130.52l.65.67a76,76,0,0,0,109.88,0l.64-.67.85.37a26.06,26.06,0,0,1,7.49,4.62c2.42-.33,4.85-.68,7.23-1,2.27-6.07,8.18-11.17,14.27-12.33.81-2.63,1.56-11.31,2.23-14l.25-1h2.84a10.22,10.22,0,0,0,10.21-10.21V60a10.22,10.22,0,0,0-10.21-10.22H192.6l-.25-1c-.71-2.84-1.49-11.67-2.34-14.42-6.09-1.17-12-6.27-14.27-12.34-4.46-.67-9-1.29-13.65-1.85a52,52,0,0,1-5.41,2.23l-.74.26-.59-.52a76,76,0,0,0-101.83.26l-.58.53-.74-.25a52.78,52.78,0,0,1-6-2.41C42,20.77,37.67,21.36,33.47,22,31.2,28.06,25.29,33.16,19.2,34.33c-.85,2.74-1.63,11.57-2.34,14.42l-.25,1H12.86A10.22,10.22,0,0,0,2.65,60v37a10.22,10.22,0,0,0,10.21,10.21h3.86l.25,1c.7,2.79,1.49,11.59,2.33,14.31,5.92,1.15,11.77,6.11,14.14,12,2.38.35,4.81.7,7.26,1a26.15,26.15,0,0,1,7.45-4.6Z"/><path class="cls-3" d="M104.58,153a73.7,73.7,0,0,1-53.74-23l-1.44-1.52-1.91.85a29.77,29.77,0,0,0-7.22,4.27l-.11.1-.14,0c-1.77-.24-3.53-.5-5.26-.75l-.17,0-.08-.16a22.51,22.51,0,0,0-13.73-11.68l-.18,0-.05-.18c-.71-2.35-1.37-10.76-2-13.14L18,105.49H12.86a8.56,8.56,0,0,1-8.55-8.56V60a8.56,8.56,0,0,1,8.55-8.56h5.05l.56-2.26c.61-2.44,1.27-10.88,2-13.24l.05-.18.18,0a22.24,22.24,0,0,0,13.9-12l.07-.17.18,0c3.64-.54,7.35-1,11-1.51H46L46,22a60.11,60.11,0,0,0,5.63,2.23l1.66.56,1.3-1.18a74.31,74.31,0,0,1,99.61-.26l1.32,1.18,1.67-.59a52.83,52.83,0,0,0,5.05-2.05l.09,0h.09c4,.5,8,1,11.92,1.62l.18,0,.07.17a22.24,22.24,0,0,0,13.9,12l.18,0,0,.18c.71,2.38,1.38,10.81,2,13.24l.56,2.26h4A8.57,8.57,0,0,1,203.88,60v37a8.57,8.57,0,0,1-8.55,8.56H191.2l-.57,2.25c-.56,2.26-1.19,10.55-1.87,12.81l0,.17-.18,0a22.28,22.28,0,0,0-13.9,12l-.07.16-.18,0-5.19.74-.14,0-.11-.1a30,30,0,0,0-7.25-4.29l-1.91-.84L158.33,130A73.67,73.67,0,0,1,104.58,153Zm-55-25.29,1.76,1.85a73.65,73.65,0,0,0,106.54,0l1.76-1.84,2.34,1a31,31,0,0,1,7.29,4.3c1.63-.22,3.25-.45,4.85-.69a23,23,0,0,1,14.08-12.18c.65-2.19,1.26-10.41,1.81-12.6l.69-2.76h4.65a7.9,7.9,0,0,0,7.89-7.89V60a7.9,7.9,0,0,0-7.89-7.9h-4.55l-.68-2.76c-.59-2.36-1.23-10.72-1.92-13A23,23,0,0,1,174.1,24.1c-3.8-.57-7.71-1.1-11.62-1.58-1.51.71-3.2,1.39-5,2l-2,.72-1.61-1.45a73.65,73.65,0,0,0-98.72.26l-1.59,1.44-2-.69a54.77,54.77,0,0,1-5.61-2.21c-3.59.45-7.2.94-10.74,1.47A23,23,0,0,1,21,36.27c-.68,2.3-1.33,10.67-1.92,13l-.68,2.76H12.86A7.9,7.9,0,0,0,5,60v37a7.9,7.9,0,0,0,7.89,7.89h5.67l.69,2.76c.58,2.31,1.23,10.65,1.91,12.94A23.21,23.21,0,0,1,35,132.35l4.93.7a30.36,30.36,0,0,1,7.26-4.28Z"/></g></g></svg>