<svg xmlns="http://www.w3.org/2000/svg" viewBox="0 0 184 184"><defs><style>.cls-1{fill:#ff7d97;}.cls-2{fill:#fff;}.cls-3{fill:#324b56;}</style></defs><title>Frames 10</title><g id="Calque_2" data-name="Calque 2"><g id="LABEL_10" data-name="LABEL 10"><path class="cls-1" d="M92,180.93A88.93,88.93,0,1,1,180.93,92,89,89,0,0,1,92,180.93Z"/><path class="cls-2" d="M168.93,92A76.93,76.93,0,1,0,92,168.92,77,77,0,0,0,168.93,92Z"/><path class="cls-3" d="M92,0a92,92,0,1,0,92,92A92.1,92.1,0,0,0,92,0Zm0,180.93A88.93,88.93,0,1,1,180.93,92,89,89,0,0,1,92,180.93Z"/><path class="cls-3" d="M168.93,92A76.93,76.93,0,1,0,92,168.92,77,77,0,0,0,168.93,92ZM92,165.86A73.86,73.86,0,1,1,165.86,92,74,74,0,0,1,92,165.86Z"/><path class="cls-3" d="M58.45,17.71l-1-2.1c-.94.43-1.87.87-2.8,1.33l1,2.07C56.62,18.56,57.53,18.13,58.45,17.71Z"/><path class="cls-3" d="M53.05,20.4l-1.1-2c-.91.49-1.81,1-2.69,1.53l1.17,2C51.29,21.38,52.17,20.88,53.05,20.4Z"/><path class="cls-3" d="M42.93,26.93l-1.39-1.84c-.82.63-1.64,1.26-2.44,1.91l1.46,1.79C41.34,28.15,42.13,27.54,42.93,26.93Z"/><path class="cls-3" d="M47.87,23.48l-1.25-1.94c-.87.56-1.72,1.14-2.57,1.73l1.32,1.89C46.19,24.58,47,24,47.87,23.48Z"/><path class="cls-3" d="M69.77,13.58l-.62-2.22q-1.5.42-3,.9l.71,2.19Q68.33,14,69.77,13.58Z"/><path class="cls-3" d="M64,15.43l-.79-2.16c-1,.36-1.94.73-2.9,1.12l.87,2.13C62.15,16.14,63.09,15.78,64,15.43Z"/><path class="cls-3" d="M38.26,30.73,36.74,29c-.78.68-1.54,1.38-2.29,2.08L36,32.76C36.76,32.07,37.51,31.39,38.26,30.73Z"/><path class="cls-3" d="M75.62,12.15,75.16,9.9c-1,.21-2,.43-3,.67l.54,2.24Q74.15,12.45,75.62,12.15Z"/><path class="cls-3" d="M10.56,88.85l-2.3-.09q-.06,1.53-.06,3.09h2.3C10.5,90.85,10.52,89.84,10.56,88.85Z"/><path class="cls-3" d="M15,65.26l-2.18-.75q-.49,1.45-1,2.94l2.2.67C14.35,67.16,14.66,66.21,15,65.26Z"/><path class="cls-3" d="M13.23,71,11,70.43c-.26,1-.51,2-.74,3l2.25.5C12.73,73,13,72,13.23,71Z"/><path class="cls-3" d="M11.9,76.89l-2.26-.43c-.19,1-.37,2-.52,3.06l2.28.33C11.55,78.86,11.71,77.87,11.9,76.89Z"/><path class="cls-3" d="M11,82.84l-2.29-.25c-.11,1-.21,2-.29,3.08l2.3.17C10.81,84.83,10.9,83.84,11,82.84Z"/><path class="cls-3" d="M17.17,59.66l-2.11-.91c-.41.94-.8,1.89-1.18,2.85l2.15.84C16.39,61.5,16.77,60.58,17.17,59.66Z"/><path class="cls-3" d="M19.76,54.24l-2-1.06q-.72,1.37-1.38,2.76l2.07,1C18.85,56,19.3,55.13,19.76,54.24Z"/><path class="cls-3" d="M33.88,34.87l-1.64-1.61c-.72.73-1.43,1.48-2.13,2.24l1.7,1.56Q32.83,36,33.88,34.87Z"/><path class="cls-3" d="M29.82,39.31l-1.75-1.49c-.67.79-1.32,1.59-2,2.4l1.81,1.43C28.54,40.85,29.17,40.08,29.82,39.31Z"/><path class="cls-3" d="M26.1,44l-1.86-1.36c-.6.84-1.2,1.68-1.78,2.54l1.92,1.28C24.94,45.67,25.51,44.85,26.1,44Z"/><path class="cls-3" d="M22.74,49l-1.95-1.22c-.55.87-1.08,1.76-1.59,2.65l2,1.15C21.7,50.74,22.21,49.87,22.74,49Z"/><path class="cls-3" d="M140,23.3c-.84-.59-1.7-1.16-2.56-1.72l-1.26,1.93c.85.55,1.68,1.11,2.5,1.68Z"/><path class="cls-3" d="M162.84,51.68l2-1.14q-.76-1.35-1.59-2.67l-1.95,1.22C161.83,49.94,162.34,50.8,162.84,51.68Z"/><path class="cls-3" d="M161.57,45.27c-.58-.86-1.17-1.71-1.78-2.54l-1.86,1.36c.59.81,1.17,1.63,1.73,2.46Z"/><path class="cls-3" d="M87.56,10.63l-.13-2.3c-1,.05-2.06.13-3.08.22l.2,2.29C85.55,10.75,86.55,10.68,87.56,10.63Z"/><path class="cls-3" d="M165.63,57l2.08-1c-.45-.93-.91-1.86-1.39-2.77l-2,1.06Q165,55.66,165.63,57Z"/><path class="cls-3" d="M157.92,40.26c-.64-.81-1.29-1.61-2-2.4l-1.75,1.49c.65.77,1.28,1.54,1.9,2.33Z"/><path class="cls-3" d="M153.92,35.54c-.7-.77-1.41-1.51-2.13-2.25l-1.64,1.61q1,1.08,2.07,2.19Z"/><path class="cls-3" d="M173.28,86l2.3-.17c-.08-1-.17-2.06-.28-3.08L173,83Q173.18,84.48,173.28,86Z"/><path class="cls-3" d="M168,62.56l2.14-.83c-.37-1-.76-1.92-1.17-2.87l-2.11.91Q167.47,61.15,168,62.56Z"/><path class="cls-3" d="M172.62,80l2.28-.34c-.15-1-.32-2-.51-3l-2.26.42C172.31,78,172.48,79,172.62,80Z"/><path class="cls-3" d="M170,68.27l2.2-.67c-.3-1-.62-2-1-2.95l-2.18.75C169.38,66.35,169.69,67.3,170,68.27Z"/><path class="cls-3" d="M171.52,74.09l2.25-.51c-.23-1-.47-2-.74-3l-2.22.59C171.06,72.13,171.3,73.11,171.52,74.09Z"/><path class="cls-3" d="M149.58,31.12c-.75-.71-1.51-1.4-2.28-2.08l-1.52,1.73c.75.66,1.49,1.33,2.22,2Z"/><path class="cls-3" d="M112,10.61c-1-.25-2-.47-3-.68l-.46,2.25q1.47.32,2.94.66Z"/><path class="cls-3" d="M105.94,9.36c-1-.17-2-.32-3.06-.46l-.3,2.29c1,.13,2,.28,3,.44Z"/><path class="cls-3" d="M99.8,8.56c-1-.09-2-.17-3.09-.22l-.13,2.29c1,.06,2,.13,3,.22Z"/><path class="cls-3" d="M118,12.3c-1-.32-2-.62-3-.9l-.63,2.21c1,.28,1.93.57,2.88.88Z"/><path class="cls-3" d="M92,10.51h1.58l0-2.3c-1,0-2.07,0-3.1,0l0,2.3Z"/><path class="cls-3" d="M134.81,20c-.88-.53-1.78-1-2.68-1.53l-1.11,2c.88.48,1.75,1,2.61,1.49Z"/><path class="cls-3" d="M123.77,14.43c-1-.38-1.92-.76-2.89-1.11l-.79,2.15c.94.35,1.88.72,2.81,1.1Z"/><path class="cls-3" d="M10.55,94.87l-2.3.07c0,1,.09,2.07.16,3.1l2.3-.16C10.64,96.88,10.58,95.87,10.55,94.87Z"/><path class="cls-3" d="M144.93,27c-.79-.65-1.61-1.29-2.43-1.92L141.11,27q1.2.91,2.37,1.86Z"/><path class="cls-3" d="M129.39,17c-.92-.46-1.85-.9-2.79-1.33l-.95,2.09c.91.42,1.82.85,2.71,1.3Z"/><path class="cls-3" d="M81.56,11.17l-.29-2.28c-1,.13-2,.28-3.06.44l.37,2.28C79.57,11.44,80.56,11.3,81.56,11.17Z"/><path class="cls-3" d="M133.44,162.2l1.17,2c.9-.53,1.78-1.07,2.64-1.63L136,160.61C135.16,161.16,134.31,161.68,133.44,162.2Z"/><path class="cls-3" d="M128.14,165.07l1,2.06c.92-.46,1.84-.93,2.74-1.42l-1.09-2C129.94,164.16,129,164.62,128.14,165.07Z"/><path class="cls-3" d="M138.51,158.94l1.32,1.89c.84-.59,1.68-1.2,2.51-1.82L141,157.17C140.15,157.77,139.34,158.36,138.51,158.94Z"/><path class="cls-3" d="M147.86,151.35l1.58,1.68c.75-.71,1.49-1.43,2.21-2.17L150,149.25Q149,150.32,147.86,151.35Z"/><path class="cls-3" d="M143.33,155.32l1.45,1.78c.8-.64,1.59-1.31,2.37-2l-1.52-1.73C144.87,154,144.11,154.68,143.33,155.32Z"/><path class="cls-3" d="M122.64,167.55l.87,2.13c1-.39,1.91-.79,2.85-1.22l-1-2.1C124.5,166.78,123.57,167.17,122.64,167.55Z"/><path class="cls-3" d="M105.27,172.43l.38,2.27c1-.17,2-.35,3-.56l-.46-2.25C107.25,172.09,106.26,172.27,105.27,172.43Z"/><path class="cls-3" d="M111.17,171.24l.54,2.23q1.52-.36,3-.78l-.63-2.21C113.12,170.75,112.15,171,111.17,171.24Z"/><path class="cls-3" d="M117,169.61l.7,2.19c1-.32,2-.65,2.94-1l-.78-2.17C118.88,169,117.93,169.3,117,169.61Z"/><path class="cls-3" d="M152.09,147.07l1.7,1.55c.69-.76,1.38-1.53,2-2.32l-1.75-1.49C153.43,145.58,152.77,146.33,152.09,147.07Z"/><path class="cls-3" d="M173.26,98.32l2.29.17c.08-1,.14-2,.18-3.08l-2.3-.1C173.39,96.32,173.33,97.32,173.26,98.32Z"/><path class="cls-3" d="M156,142.48l1.8,1.43c.64-.8,1.27-1.63,1.88-2.46l-1.86-1.36C157.22,140.9,156.61,141.7,156,142.48Z"/><path class="cls-3" d="M11,100.87l-2.29.25c.11,1,.24,2,.39,3.07l2.28-.33C11.21,102.87,11.09,101.87,11,100.87Z"/><path class="cls-3" d="M172.58,104.3l2.28.34c.15-1,.29-2,.4-3.07l-2.29-.26C172.86,102.32,172.73,103.31,172.58,104.3Z"/><path class="cls-3" d="M99.3,173.18l.2,2.29c1-.09,2.06-.2,3.08-.33l-.29-2.28C101.3,173,100.3,173.09,99.3,173.18Z"/><path class="cls-3" d="M175.75,88.91l-2.31.09c0,1,.06,2,.06,3v.3h2.3V92C175.8,91,175.78,89.94,175.75,88.91Z"/><path class="cls-3" d="M169.9,116l2.2.67c.31-1,.59-2,.86-3l-2.23-.6C170.48,114.11,170.2,115.07,169.9,116Z"/><path class="cls-3" d="M159.54,137.63l1.91,1.29c.58-.85,1.14-1.72,1.68-2.59l-1.95-1.22C160.65,136,160.11,136.8,159.54,137.63Z"/><path class="cls-3" d="M162.73,132.53l2,1.15c.51-.89,1-1.8,1.49-2.71l-2-1.07C163.71,130.79,163.22,131.67,162.73,132.53Z"/><path class="cls-3" d="M165.52,127.21l2.08,1c.44-.92.87-1.86,1.28-2.81l-2.11-.92C166.37,125.41,166,126.31,165.52,127.21Z"/><path class="cls-3" d="M167.92,121.71l2.14.84c.38-1,.73-1.93,1.08-2.91l-2.18-.75C168.63,119.84,168.28,120.78,167.92,121.71Z"/><path class="cls-3" d="M171.46,110.21l2.24.52q.35-1.52.63-3l-2.26-.43C171.88,108.26,171.68,109.24,171.46,110.21Z"/><path class="cls-3" d="M24.12,141.16c.61.83,1.23,1.66,1.86,2.47l1.82-1.42c-.62-.79-1.23-1.59-1.82-2.41Z"/><path class="cls-3" d="M22.63,134.8l-2,1.21q.81,1.32,1.68,2.61l1.91-1.28C23.7,136.5,23.16,135.65,22.63,134.8Z"/><path class="cls-3" d="M32.1,150.62c.72.73,1.46,1.46,2.21,2.17l1.58-1.67c-.73-.7-1.44-1.4-2.14-2.12Z"/><path class="cls-3" d="M19.65,129.56l-2,1.06c.48.92,1,1.83,1.49,2.73l2-1.14C20.59,131.34,20.11,130.45,19.65,129.56Z"/><path class="cls-3" d="M27.94,146c.66.79,1.34,1.57,2,2.33l1.7-1.55c-.67-.74-1.34-1.49-2-2.26Z"/><path class="cls-3" d="M13.15,112.7l-2.23.59c.27,1,.55,2,.84,3L14,115.6C13.68,114.64,13.41,113.68,13.15,112.7Z"/><path class="cls-3" d="M17.07,124.11,15,125c.41,1,.83,1.89,1.28,2.83l2.08-1C17.88,126,17.46,125,17.07,124.11Z"/><path class="cls-3" d="M11.84,106.83l-2.26.42c.19,1,.39,2,.62,3l2.25-.5C12.23,108.81,12,107.82,11.84,106.83Z"/><path class="cls-3" d="M36.59,154.87c.77.69,1.56,1.36,2.36,2l1.45-1.78c-.77-.64-1.54-1.29-2.29-1.95Z"/><path class="cls-3" d="M14.89,118.48l-2.17.75c.33,1,.69,2,1.06,2.91l2.15-.83C15.57,120.38,15.22,119.43,14.89,118.48Z"/><path class="cls-3" d="M41.38,158.79q1.23.94,2.49,1.83l1.33-1.88c-.82-.58-1.63-1.17-2.43-1.78Z"/><path class="cls-3" d="M81,175.09c1,.13,2,.25,3.08.34l.21-2.29c-1-.1-2-.21-3-.34Z"/><path class="cls-3" d="M74.87,174.06c1,.2,2,.4,3,.57l.39-2.27c-1-.17-2-.36-3-.56Z"/><path class="cls-3" d="M93.29,173.5l0,2.29c1,0,2.07,0,3.1-.1l-.12-2.3C95.3,173.44,94.3,173.48,93.29,173.5Z"/><path class="cls-3" d="M68.86,172.57c1,.28,2,.55,3,.8l.56-2.24c-1-.24-2-.5-2.92-.77Z"/><path class="cls-3" d="M87.14,175.67q1.53.09,3.09.12l0-2.3c-1,0-2-.06-3-.12Z"/><path class="cls-3" d="M46.43,162.34c.87.57,1.74,1.11,2.63,1.64l1.18-2q-1.29-.78-2.55-1.59Z"/><path class="cls-3" d="M51.74,165.52c.9.49,1.81,1,2.74,1.43l1-2c-.9-.46-1.79-.92-2.66-1.4Z"/><path class="cls-3" d="M57.26,168.29c.93.43,1.88.83,2.83,1.23l.88-2.13c-.92-.38-1.84-.78-2.75-1.19Z"/><path class="cls-3" d="M63,170.64c1,.36,1.94.7,2.92,1l.72-2.19c-1-.31-1.91-.64-2.85-1Z"/></g></g></svg>