<svg xmlns="http://www.w3.org/2000/svg" viewBox="0 0 111.59 92.92"><defs><style>.cls-1{fill:#ff7c96;}.cls-2{fill:#ede9e0;}.cls-3{fill:#324b58;}.cls-4{fill:#b6defa;}</style></defs><g id="Calque_2" data-name="Calque 2"><g id="Equestrian"><path class="cls-1" d="M71.45,16.51h0c-.64,0-1.32,0-2-.08a20.72,20.72,0,0,1-6.2-1.59s-.47-.21-1.17-.46A14.64,14.64,0,0,0,56.44,13h-.59l-.51,0h0a15.74,15.74,0,0,0-6,1.5l-.17.06a22.47,22.47,0,0,1-6.83,1.85c-.7.05-1.37.08-2,.08h0a15.51,15.51,0,0,1-4.74-.63l.07,21.59a.41.41,0,0,1,0,.19l0,.05a45.24,45.24,0,0,0,.21,6.52,6.66,6.66,0,0,1,.15.65,23.84,23.84,0,0,0,1.64,5.17l0,.1.46.92a27.33,27.33,0,0,0,6.12,7.84l.11.11c1.89,1.86,3.89,3.7,6,5.47a57.75,57.75,0,0,0,5.5,4.36h.11l.66-.49.17-.13A39.83,39.83,0,0,0,60,65.67a103.89,103.89,0,0,0,8.85-8.14l0,0a23.5,23.5,0,0,0,3.51-4.32l0,0a24.11,24.11,0,0,0,1.44-2.52.11.11,0,0,1,0-.08,22.17,22.17,0,0,0,2-6.07.19.19,0,0,1,0-.1c.05-.33.08-.65.11-.95s0-.67,0-.74v0l.18-26.8a19,19,0,0,1-3.79.64Z"/><path class="cls-2" d="M97.23,55.47c2.72-.84,4-3.19,4-7l-3.52,2.49a22.78,22.78,0,0,0-.24-4.3c1.16-2.3.67-4.57-1.62-7.13a5,5,0,0,0,1.09,6.85,25.13,25.13,0,0,1,0,5.53,11.7,11.7,0,0,0-2.59-4.31q-.74,5,2.14,8.06a14.85,14.85,0,0,1-1.15,3.8q-1-4.59-2.82-6.25-1.68,5.46,1.67,8.56l-2,3.11a11.51,11.51,0,0,0-1.47-6.89q-3.1,4.55-.28,8.59A9.73,9.73,0,0,1,87,68.93a8,8,0,0,0,.38-6.49Q84,66.12,85.26,69.93a16.62,16.62,0,0,1-4.07,1.43q3-3.21,2.11-5.67-3.8,1.41-3.9,5.88l-1.7.5.82.83,2-.79A8.3,8.3,0,0,0,86,74.57a6,6,0,0,0,2-.35,13.68,13.68,0,0,0-4.54-2.75l2.15-.9a7.59,7.59,0,0,0,4,1.36,5.22,5.22,0,0,0,4.08-2.14,12.31,12.31,0,0,0-5-.88l2.21-1.76a8,8,0,0,0,1.49.16A5.21,5.21,0,0,0,97.26,64a21.2,21.2,0,0,0-3.8.52L95,62.27c2.9-.28,4.58-2,5-5h-.13c-1.7,0-2.61,1.23-3.46,1.3A13.32,13.32,0,0,0,97.23,55.47Z"/><path class="cls-2" d="M31.05,71.62q-.07-4.47-3.87-5.9c-.56,1.64.13,3.54,2.08,5.68A17.21,17.21,0,0,1,25.2,70q1.29-3.81-2.13-7.5A8,8,0,0,0,23.43,69a9.78,9.78,0,0,1-3.37-2.41q2.85-4-.25-8.59a11.55,11.55,0,0,0-1.49,6.88l-2-3.12q3.34-3.09,1.7-8.55-1.82,1.65-2.85,6.24a15.12,15.12,0,0,1-1.13-3.8,9.28,9.28,0,0,0,2.17-8.06,11.84,11.84,0,0,0-2.61,4.31,25.1,25.1,0,0,1,0-5.53,5.06,5.06,0,0,0,1.11-6.86c-2.3,2.56-2.8,4.83-1.64,7.13a22,22,0,0,0-.26,4.3l-3.52-2.5c-.07,3.86,1.24,6.21,3.95,7.06a14.31,14.31,0,0,0,.82,3.08c-.85-.08-1.75-1.32-3.46-1.32h-.12c.43,3.07,2.1,4.76,5,5L17,64.55A21.52,21.52,0,0,0,13.22,64a5.23,5.23,0,0,0,4.86,3.29,6.93,6.93,0,0,0,1.46-.16l2.21,1.77a12.38,12.38,0,0,0-5,.87,5.25,5.25,0,0,0,4.1,2.15,7.65,7.65,0,0,0,4-1.35L27,71.5a13.49,13.49,0,0,0-4.55,2.74,6.15,6.15,0,0,0,2,.36,8.29,8.29,0,0,0,5.45-2.45l2,.81.81-.83Z"/><polygon class="cls-3" points="107.71 32.49 108.14 36.38 111.59 38.22 108.02 39.83 107.33 43.68 104.7 40.79 100.83 41.32 102.76 37.92 101.06 34.41 104.89 35.2 107.71 32.49"/><polygon class="cls-3" points="4.18 32.49 6.85 35.34 10.71 34.76 8.83 38.18 10.58 41.67 6.74 40.94 3.96 43.68 3.47 39.8 0 38 3.54 36.34 4.18 32.49"/><path class="cls-3" d="M105.19,44.7c0,.13,0,.25,0,.38h0A50.44,50.44,0,0,1,90.7,77a49.63,49.63,0,0,1-70.61,0A50.41,50.41,0,0,1,5.65,45.45H4.56c2,26.66,24.29,47.47,50.83,47.47s49-21,50.87-47.84v0c0-.13,0-.24,0-.35Z"/><path class="cls-3" d="M55.25,0A38.08,38.08,0,0,0,19.46,50a36.67,36.67,0,0,0,1.78,4.46,37.55,37.55,0,0,0,69.53-3.69,34.29,34.29,0,0,0,1.08-3.66c.06-.22.11-.43.15-.65h0c.21-.89.38-1.8.51-2.71A38.06,38.06,0,0,0,55.25,0ZM89.51,46.49c-.05.22-.1.45-.17.67a33.49,33.49,0,0,1-1.08,3.44c-.06.15-.11.3-.17.44a33.44,33.44,0,0,1-2,4.28A35.1,35.1,0,0,1,30.3,63.16a35.83,35.83,0,0,1-5.44-7.07c-.33-.56-.64-1.12-.93-1.69a33.6,33.6,0,0,1-1.66-3.73c-.12-.33-.24-.66-.35-1A35.76,35.76,0,0,1,30.3,12.92a35.07,35.07,0,0,1,49.89,0A35.42,35.42,0,0,1,90.51,38a35.9,35.9,0,0,1-.31,4.76A32.85,32.85,0,0,1,89.51,46.49Z"/><path class="cls-4" d="M15.9,28.89h0a.61.61,0,0,1,.12-.16Z"/><path class="cls-4" d="M75.34,18a.19.19,0,0,0-.15-.05Z"/><path class="cls-4" d="M11.69,29.68a0,0,0,0,0,0,0l.05,0Z"/><path class="cls-4" d="M93,24.73h0l-.09-.17h0l0-.08a1.33,1.33,0,0,0-.55-.81l-.25-.36c-.48-.61-.89-1.38-1.41-1.94l-.31-.3,0,0c-.09-.13-.45-.53-.73-.85a2.89,2.89,0,0,0-.56-.83c-.21-.48-.26-.94-.48-1.37,0,0,0,0,0,0a.36.36,0,0,0,0-.21c0-.1,0-.3-.14-.28a.86.86,0,0,0-.1-.16.09.09,0,0,0,0-.05c0-.05-.11-.14-.17-.14h0a.89.89,0,0,0-.22-.16.1.1,0,0,0-.12-.07h0a1.18,1.18,0,0,0-.52-.13s-.17.05-.22.05l-.06,0-.08,0a2.58,2.58,0,0,0,0-.35c.12-1.23-1.34-1.68-2.4-2.09a6.46,6.46,0,0,1,.78,1,13.55,13.55,0,0,0-1.54-.64A4.24,4.24,0,0,1,85,16.6c-.16,0-.65-.07-.72,0l0,.06h0a3.53,3.53,0,0,0-.92,0,5.75,5.75,0,0,1-1,.09h0l-.57,0h0l-.57-.08c-.34,0-.83,0-1-.43v0a.08.08,0,0,0,0,0,.63.63,0,0,0,0,.19.63.63,0,0,1,0,.36.41.41,0,0,1-.2.23,1,1,0,0,1-.31.08,2.29,2.29,0,0,1-1.56-.32,1.11,1.11,0,0,1-.53-.74l-.07.08h0a.68.68,0,0,0,0,.54h0c-.32.11-.49-.38-.62-.56a1.88,1.88,0,0,0-.19.41.58.58,0,0,0,0,.18,1.09,1.09,0,0,0,0,.18.28.28,0,0,1-.27-.19v0h0a1.1,1.1,0,0,1,0,.18.76.76,0,0,0,0,.34.29.29,0,0,0,.17.14,4.07,4.07,0,0,0,.55.37c.14.1.22.24.34.33a2,2,0,0,0-1-.49.5.5,0,0,0-.4.08c.38.1.86.17.91.66a1.7,1.7,0,0,0-.74-.44,3.68,3.68,0,0,1-.86-.19,3.16,3.16,0,0,1-.68-.29.82.82,0,0,0,.41.45,1.05,1.05,0,0,1,.21.16h0l.07.05c0,.06.08.12,0,.16s-.31,0-.37-.05a1.14,1.14,0,0,0-.58,0,1.67,1.67,0,0,1,.78.22c.3.19.26.45-.12.35l0,0a.41.41,0,0,0-.19-.09l0,0c-.14-.06-.26-.15-.39-.22a1.52,1.52,0,0,0-1.42,0,.48.48,0,0,0-.17.05h.23l0,0h.13a1.45,1.45,0,0,1,.33.16l.11.09a.16.16,0,0,1-.08.09c-.23.18-.8-.21-1-.28a10.26,10.26,0,0,0-2.78-.38,26.68,26.68,0,0,0,0-3.59s0-.07,0-.11l.26-.12.61-.11a1.25,1.25,0,0,0,.45.35h0l.6.46h0l0,0,.61-.66.18-.07,0-.15.22-.06.25-.29.35.26.43-1.14,0,0,.69-.83v0l1.4.42.34.14.1-.11-1.23-1.28a3.79,3.79,0,0,0-.71-3h0l-.11-.11h0l-.18-.16-.06,0a4.22,4.22,0,0,0-1.57-.79,3,3,0,0,0-3.13,1.66s-.12.19-.09.21h0c0,.1-.08.19-.11.29a1.19,1.19,0,0,1,0,.14,2,2,0,0,0-.12.41s0,0,0,0h0a.38.38,0,0,0,0,.15h0a1.19,1.19,0,0,0,.09.44A7.92,7.92,0,0,0,67.54,10l-.13,0a7.59,7.59,0,0,0-2.34-.06,7,7,0,0,0-1.15.26l-.31.09-.25.08h0c-.51.15-1,.33-1.53.52l0,0-.84.3-.24.09h0c-.59.21-1.17.42-1.75.59-.26,0-.52-.09-.75.08l-.06.07h0l0,0a.3.3,0,0,1-.12.13h0a.78.78,0,0,1-.23-.06h0a.28.28,0,0,0-.17,0,.87.87,0,0,0-.44.24h0l0,0,0,0-.2.21,0,0,0,0-.08.07-.08,0a.18.18,0,0,1-.07.05l-.1,0a3.65,3.65,0,0,1-.57.14l-.22.07h0c-.23.12-.31.3-.52.43a1.91,1.91,0,0,1-.68.13.37.37,0,0,0-.14,0c-.29.11-.41.42-.16.64a1.09,1.09,0,0,0,.17.13c-.24.25-.49.53-.73.81-1,1.22-.9,2.93-.2,3.53h0a4.82,4.82,0,0,1,.5.72s0,.05,0,.07A8.06,8.06,0,0,0,57.33,22a22.35,22.35,0,0,0,2.83.81c.19.06.4.11.61.16l-.06.07v0c0-.1-.21-.1-.33,0l-1.76,2,0,0h-.1l-.26.26-.49.23a20.71,20.71,0,0,1-3.56.23,5.85,5.85,0,0,1-3.57-3c-.14-.23-.5-.81-.81-.82l-.09,0h0l0,0,0,.05s0,0,0,0l0,0v0a.06.06,0,0,0,0,0v.07s0,0,0,0v.44c0,.54.24,1.14.23,1.71a1.53,1.53,0,0,0,0,.3s0,0,0,.06a.41.41,0,0,0,0,.11l-.37-.09-.24-.06h0l-.74-.19-.11,0a6.06,6.06,0,0,0-1.5-.29,1,1,0,0,0-.61.34,2.68,2.68,0,0,0-.63.58L45,25c-.2,0-.39-.07-.59-.09a10.62,10.62,0,0,1-1.38-.17c-.76-.17-1.49-.33-2.26-.43-1.59-.2-2.8-.68-4.31-.54a9.46,9.46,0,0,0-3.13,1,12.76,12.76,0,0,0-2,1,18.93,18.93,0,0,0-2.71.73,12.22,12.22,0,0,1-2.74,1,10.88,10.88,0,0,1-1.57.47c-.81.11-1.63.16-2.43.28a11.64,11.64,0,0,1-2.36,0,3.4,3.4,0,0,0-1.38.19l-.59.22c-.45.17-1.19.5-1.63.16-.28.49.07,1-.69,1.24A2.81,2.81,0,0,1,13.11,30a2.66,2.66,0,0,1-.88-1c-.19-.36-.16-.75-.32-1.1h0l0,0c0,.64-.14,1.2.25,1.8l0,0a2.73,2.73,0,0,0,.38.52,1.48,1.48,0,0,1-.81-.42.19.19,0,0,1,0-.1c-.11.07-.1.27-.06.44a.8.8,0,0,0,.17.58c-.27,0-.48-.31-.56-.53a4.25,4.25,0,0,0-.1,1.55,3.34,3.34,0,0,1-.41-.93,1.39,1.39,0,0,1-.07-.47,3.43,3.43,0,0,0-.24.33l-.11.17A2.69,2.69,0,0,0,10,32.35h0a3.33,3.33,0,0,0,.59,1.74,1,1,0,0,1,.18.79.25.25,0,0,1,0,.07l0,.09,0,0a1.92,1.92,0,0,1-.56.75,11.33,11.33,0,0,0,1.16-.4,9,9,0,0,0,1.15-.24,4.44,4.44,0,0,0,.82-.4c-.43.33-.81.77-1.23,1.1a7.4,7.4,0,0,1-1.52.81,4.07,4.07,0,0,0,2.14-.75,2.33,2.33,0,0,1,1.13-.51.51.51,0,0,1,.3.09.86.86,0,0,1-.07.1c-.11.13-.13.3-.26.43s-.32.19-.4.34c.36,0,.63-.49.83-.76a.71.71,0,0,1-.12.7,4.46,4.46,0,0,1-2,1.33,8.1,8.1,0,0,1-2,.55,8.76,8.76,0,0,0,3-.57l.3-.17,0,0a3.52,3.52,0,0,0,.86-.58l.41-.29c.68-.45,1.43-.84,2.09-1.32l.27-.15a3.7,3.7,0,0,1-2,1.83,4.51,4.51,0,0,0,1.56-.79c-.29.16-.63.75-.86,1,.63,0,1.49-.79,2-1.12A8.14,8.14,0,0,0,19,35.17a2,2,0,0,0,.69-.84,1.09,1.09,0,0,1,.58-.74c.48-.06.75.64.64,1a.64.64,0,0,1-.17.3l-.15.14h0l0,0a1.35,1.35,0,0,0,.48-.26l0,0a1.56,1.56,0,0,0,.5-.62,5.31,5.31,0,0,1-.31.84l0,0h0v0l.07,0a.88.88,0,0,0,.45-.16,2.72,2.72,0,0,0,.71-.76c.07-.1.17-.23.25-.36l0,0c.07.19.09.41.17.6a2.33,2.33,0,0,0,.19.28.19.19,0,0,1,0,.08.17.17,0,0,0,0-.07.36.36,0,0,1,.09.15c-.1-.58-.09-1.1.53-1.33a3.78,3.78,0,0,1,.88-.19h.15a.73.73,0,0,1,.35,0,2,2,0,0,1-.36-.18l0-.26a2.4,2.4,0,0,0,1.92-.16.62.62,0,0,1-.27,0l0,0a1.24,1.24,0,0,1-.37-.06,1.15,1.15,0,0,1-.5-.42,2.64,2.64,0,0,1,.5-2.11c.07-.1.14-.18.21-.27l.12-.13a2.66,2.66,0,0,1,.24-.23h0a4.9,4.9,0,0,1,1-.76,3.85,3.85,0,0,1,.86-.31,7.38,7.38,0,0,0-.59,1h0s0-.08,0-.11a3,3,0,0,0-.27.35l-.09.08a4.18,4.18,0,0,0-.56,2,8.46,8.46,0,0,0,.31,2.76,7.77,7.77,0,0,0,.46,1.59,4.57,4.57,0,0,0,.81,1.17,8.82,8.82,0,0,0,.77.85,18.71,18.71,0,0,0,2,1.84l.15.12-.48.33a12.22,12.22,0,0,1-2.82,1.24c-.06,0-.29,0-.3,0a9.18,9.18,0,0,0-2.33.29c-.61-.11-1.76,1-2.18,1.35-.65.55-.52.77-.52,1.34,0,1,.71,1.12,1,1.41a31.41,31.41,0,0,1,5.3,6.48c.56.94.66,1.72,1.08,2.24a1.12,1.12,0,0,1-.46.71h0A1.61,1.61,0,0,0,29,55.3a.12.12,0,0,0-.08,0,.36.36,0,0,0-.17.07s0,0-.06,0l-.75.21c-.2.07-.37,1-.34,1.74,0,.07,0,1.16.08,1.86v0s0,.09,0,.13v0a.36.36,0,0,0,0,.1v.06h0c0,.11.06.19.1.2a2.48,2.48,0,0,0,.94-.39,1.67,1.67,0,0,0,.63-.33,3.56,3.56,0,0,0,.49-.46l.21-.21A6.16,6.16,0,0,0,31.31,57l0-.2,0-.06h0c.16-.79.57-.89,1-1.37l0-.07a.4.4,0,0,0,.15-.14A2.58,2.58,0,0,0,32,52.2a15.38,15.38,0,0,1-1.52-1.48,13.75,13.75,0,0,1-2.33-3.66c-.36-.62-.69-1.22-1-1.78A14.19,14.19,0,0,0,30,45a1.31,1.31,0,0,0-.62.7A2.25,2.25,0,0,0,30,47.79l.15.08.15.28c.43.83,3.2,1.5,3.45,1.61A18.86,18.86,0,0,1,38,52.17h0a7.49,7.49,0,0,0,1.41,1.52,1.66,1.66,0,0,0,.06.68c0,1.06-.23.89-.4,1.24,0,0,0,0,0,0h0s0,0,0,0a.28.28,0,0,0,0,.13A.23.23,0,0,0,39,56a.83.83,0,0,0,0,.24,4.83,4.83,0,0,0,.22,1s.09.3.2.62v0l0,.08,0,.1,0,.06.06.17v0l.06.15v0a1.12,1.12,0,0,1,0,.13l0,0,.06.14,0,.06,0,0h0c.1.23.2.38.26.37a4.09,4.09,0,0,0,1.43-1.61.46.46,0,0,0,.09-.19h0l0-.16a1.66,1.66,0,0,0,.1-.52s0,0,0,0h0a2,2,0,0,0,0-.49,4.88,4.88,0,0,0-.39-1.73,1.6,1.6,0,0,1,.07-.91s0,0,0-.07a1.6,1.6,0,0,0-1-2l-.25-.11L40,51.41l-.21-.06c-.47-.17-.92-.32-1.38-.51a12.15,12.15,0,0,1-1.64-1.41C36.07,48.84,35,47.8,34,46.9c.4-.29.76-.6,1.07-.86a30.31,30.31,0,0,0,3.32-3.39,9.82,9.82,0,0,0,2.84-1.28,3.21,3.21,0,0,0,.58-2.52l.2-.24,0,0c2.69.37,4.19,1.67,6.18,2.17.36.21,3.76,1.2,6.12,1.89,0,0,0,.09,0,.14s.8.36,1.36.43c.4.09.76.13.81.06l.09,0c.1,0,.72.29,1.59.58a4.29,4.29,0,0,0,.71.33c-.28.61-.59,1.3-.91,2.06-.58.95-1.4,2-2.25,3.11a11.6,11.6,0,0,0-1.69,2.44l0,.09c-.19.14-.39.31-.62.51a.72.72,0,0,0,0-.52,1.56,1.56,0,0,0-.12-.32L53,51a3.65,3.65,0,0,0-1.69-.29H50.24c-.29,0-.58,0-.81,0h-.14l-.1,0h0c-.11,0-.19,0-.19.07a2.65,2.65,0,0,0,.49,1,5.14,5.14,0,0,0,.46.55,3.53,3.53,0,0,0,.57.51h0a12,12,0,0,0,1.49.92c.19.17.33.31.44.42-.27.18-.69.49-1.15.82h0c-.12,0-.37.21-.47.28l-.52.36-.51.39c-1.07.72-1.94,1.24-3.36,2.09a6,6,0,0,0-.82.47c-1.35.6-.49,1.9-1.55,2.76-.32.23-.33-.11-.85.17a2.21,2.21,0,0,0-.42.37h0a.39.39,0,0,0-.06.11h0l-.19.11a1.83,1.83,0,0,0-.07,1h0v0a2.48,2.48,0,0,0,0,.27s0,0,0,.07l.06.33c0,.1.43,2.3.64,2.3a3.32,3.32,0,0,0,1.48-1.3c.11,0,.27-.4.28-.42a4.48,4.48,0,0,0,.21-.82q0-.18.09-.39c.06-.22.14-.45.24-.72a10.6,10.6,0,0,1,1.07-1.78,2.39,2.39,0,0,1,.25-.21,1.41,1.41,0,0,0,.45-.34s2-1.58,2.92-2.25a25.52,25.52,0,0,0,2.18-2.18l.56-.62a4.62,4.62,0,0,0,.29.73,1.29,1.29,0,0,0,1,.84A3.13,3.13,0,0,0,56,56.6c1.77-.3,2.43-.45,3.21-.5.25,0,2.24-.09,2.62-.08a3.72,3.72,0,0,0,.75,0h0a2.28,2.28,0,0,0,1.24-1.73,6.2,6.2,0,0,0,0-.83,2.41,2.41,0,0,0-.12-1h0l0-.14a12.12,12.12,0,0,0,.18-5.26c0-.23-.06-.45-.08-.66.56-.57.67-.88,1.51-1.72a8.73,8.73,0,0,0,2.12-.63,2.28,2.28,0,0,0-.77,0c.38-.18.73-.38,1.11-.59a2.84,2.84,0,0,0,1.93-1.26,23.51,23.51,0,0,0,2.44-4l.38-.69c.14-.24.27-.47.38-.7l.35-.64a.27.27,0,0,0,0-.08l0,0c.2-.31.36-.58.48-.8l.66-.7c1.14-1.1,2.74-2.65,3.06-3,.56-.66,1.15-1.3,1.74-1.94.84-.9,1.27-2.25,2.17-3.07h0l.1-.08a12.14,12.14,0,0,0,1.2,1.18c2.13,1.8,4.24,3.28,6,.82a7.71,7.71,0,0,0,1.76.82l.09,0a.76.76,0,0,0,.41.15h0a1.57,1.57,0,0,1,.23.57,2.32,2.32,0,0,0,.18.46h0l.09.13h0l.09.08,0,0,.05,0c.54.3,1.35-.22,1.51-.1h0v0a0,0,0,0,1,0,0c0,.07,0,.15.06.17h.12a1.17,1.17,0,0,0,.37,0l.09,0,.18-.06.09-.07,0,0,.21-.18s0,0,0,0A2.55,2.55,0,0,0,95,29.23a2.64,2.64,0,0,0,0-.54h0v0c0-.07,0-.18,0-.29s0-.07,0-.1a2.44,2.44,0,0,0-.06-.26s0-.05,0-.07a3,3,0,0,0-.1-.32,2.41,2.41,0,0,0-.21-.5,10.83,10.83,0,0,0-1-1.67ZM61.71,54.39a1.08,1.08,0,0,0,.09.45,6.19,6.19,0,0,1-.88,0,13.52,13.52,0,0,0-2-.09h0a7.4,7.4,0,0,1-3.24-.38,2.06,2.06,0,0,0-.86-.11l0,0,.34-.24a2,2,0,0,0,.43-.57,8.49,8.49,0,0,0,.79-.62l.51-.47,0,0c.42-.39.84-.8,1.27-1.19.61-.56,1.29-1.08,1.89-1.66l.46-.34.75-.56c.12.76.12,1.39.36,2.51.11.39.26,1.09.47,1.65A11.93,11.93,0,0,0,61.71,54.39Zm-.37-36.57h.06c.34-.07.67-.15,1-.24s.53-.13.79-.21h0l.24-.08c.69-.21,1.47-.52,2.23-.84l.06.46c0,.56.1,1.63.15,2.48,0,0,0,0,0,.06a.51.51,0,0,0,0,.09c0,.43,0,.79,0,1a1.49,1.49,0,0,0-.26-.32A11,11,0,0,0,61.34,17.82Zm8,4.29c-.12.08-.34,0-.47,0a2.53,2.53,0,0,0-2,.71,1.69,1.69,0,0,1,1-.24c.24.06.4.26.29.46l-.51.17-.35.13a3.79,3.79,0,0,0-1.83.66l-.79.14A13.53,13.53,0,0,0,65.54,23l0,0a.35.35,0,0,0,0-.08l0,0a.36.36,0,0,0,0-.09l.06-.15a1.11,1.11,0,0,1,.07-.16.49.49,0,0,1,0-.11l0-.11a1.59,1.59,0,0,0,.07-.2s0,0,0-.05l.06-.23h0s0-.07,0-.1h0a1.26,1.26,0,0,0,.08-.66,2.11,2.11,0,0,0-.06-.29,1.85,1.85,0,0,0,.46.33,1.16,1.16,0,0,0,.1.22,2.63,2.63,0,0,0,1,.27h0l.28,0h0l.14,0,.34,0,0,.07.22-.06.65,0a.1.1,0,0,1,.05,0C69.37,21.85,69.42,22,69.29,22.11Zm.48-7.8,0,0,.14,0-.19.06Zm14.55,2.45h0v0ZM82.68,27.07c-.24-.23-.51-.53-.81-.87l.19-.1a4.49,4.49,0,0,1,1.53-.4,4,4,0,0,1,.57.16,5.37,5.37,0,0,0,.25.74c0,.07.13.08.23.06s.34-.07.3-.15a2.25,2.25,0,0,1-.08-.24l.25.22a4.54,4.54,0,0,0,2,.79,10.4,10.4,0,0,0,1.17.95C87.25,30.11,84.75,29.07,82.68,27.07Z"/></g></g></svg>