<svg xmlns="http://www.w3.org/2000/svg" viewBox="0 0 111.59 103.55"><defs><style>.cls-1{fill:#ff7c96;}.cls-2{fill:#ede9e0;}.cls-3{fill:#324b58;}.cls-4{fill:#b6defa;}</style></defs><g id="Calque_2" data-name="Calque 2"><g id="_sail" data-name="
sail"><path class="cls-1" d="M71.45,27.14h0c-.64,0-1.32,0-2-.08a20.43,20.43,0,0,1-6.2-1.59s-.47-.2-1.17-.46a14.64,14.64,0,0,0-5.63-1.36h0l-.51,0h-.08l-.51,0h0a15.74,15.74,0,0,0-6,1.5l-.17.07a22.48,22.48,0,0,1-6.83,1.84c-.7.05-1.37.08-2,.08h0a15.51,15.51,0,0,1-4.74-.63l.07,21.59a.38.38,0,0,1,0,.19l0,.05a45.24,45.24,0,0,0,.21,6.52,6.66,6.66,0,0,1,.15.65,23.84,23.84,0,0,0,1.64,5.17l0,.1.46.92a27.33,27.33,0,0,0,6.12,7.84l.11.11c1.89,1.86,3.89,3.7,6,5.47a57.75,57.75,0,0,0,5.5,4.36h.11l.66-.49.17-.12c.83-.57,1.92-1.43,3.26-2.57a103.89,103.89,0,0,0,8.85-8.14l0,0a23.5,23.5,0,0,0,3.51-4.32l0,0a24.11,24.11,0,0,0,1.44-2.52.11.11,0,0,1,0-.08,22.17,22.17,0,0,0,2-6.07.19.19,0,0,1,0-.1c.05-.32.08-.65.11-1s0-.67,0-.74v0l.18-26.8a19,19,0,0,1-3.79.64Z"/><path class="cls-2" d="M97.23,66.1c2.72-.84,4-3.19,4-7l-3.52,2.49a22.78,22.78,0,0,0-.24-4.3c1.16-2.3.67-4.57-1.62-7.13A5,5,0,0,0,96.92,57a25.06,25.06,0,0,1,0,5.52,11.79,11.79,0,0,0-2.59-4.31q-.74,4.95,2.14,8.06A14.85,14.85,0,0,1,95.3,70q-1-4.59-2.82-6.25-1.68,5.46,1.67,8.56l-2,3.11a11.51,11.51,0,0,0-1.47-6.89q-3.1,4.55-.28,8.59A9.91,9.91,0,0,1,87,79.57a8,8,0,0,0,.38-6.5Q84,76.75,85.26,80.56A16.62,16.62,0,0,1,81.19,82q3-3.21,2.11-5.67-3.8,1.41-3.9,5.88l-1.7.5.82.83,2-.79A8.32,8.32,0,0,0,86,85.21a6.3,6.3,0,0,0,2-.35,13.51,13.51,0,0,0-4.54-2.76l2.15-.9a7.59,7.59,0,0,0,4,1.36,5.22,5.22,0,0,0,4.08-2.14,12.31,12.31,0,0,0-5-.88l2.21-1.76a8,8,0,0,0,1.49.16,5.21,5.21,0,0,0,4.84-3.27,21.2,21.2,0,0,0-3.8.52L95,72.9c2.9-.28,4.58-2,5-5h-.13c-1.7,0-2.61,1.23-3.46,1.3A13.32,13.32,0,0,0,97.23,66.1Z"/><path class="cls-2" d="M31.05,82.25q-.07-4.47-3.87-5.9-.84,2.48,2.08,5.68a16.78,16.78,0,0,1-4.06-1.44q1.29-3.81-2.13-7.5a8,8,0,0,0,.36,6.5,10,10,0,0,1-3.37-2.42q2.85-4-.25-8.59a11.55,11.55,0,0,0-1.49,6.88l-2-3.12q3.34-3.09,1.7-8.55Q16.24,65.44,15.2,70a15,15,0,0,1-1.13-3.8,9.28,9.28,0,0,0,2.17-8.06,11.84,11.84,0,0,0-2.61,4.31,25.1,25.1,0,0,1,0-5.53,5,5,0,0,0,1.11-6.85c-2.3,2.55-2.8,4.82-1.64,7.12a22,22,0,0,0-.26,4.3L9.33,59c-.07,3.86,1.24,6.21,3.95,7.06a14.31,14.31,0,0,0,.82,3.08c-.85-.08-1.75-1.32-3.46-1.32h-.12c.43,3.07,2.1,4.76,5,5L17,75.18a21.52,21.52,0,0,0-3.81-.53,5.23,5.23,0,0,0,4.86,3.29,6.93,6.93,0,0,0,1.46-.16l2.21,1.77a12.38,12.38,0,0,0-5,.87,5.25,5.25,0,0,0,4.1,2.15,7.65,7.65,0,0,0,4-1.35l2.14.91a13.49,13.49,0,0,0-4.55,2.74,6.15,6.15,0,0,0,2,.36,8.29,8.29,0,0,0,5.45-2.45l2,.81.81-.83Z"/><polygon class="cls-3" points="107.71 43.12 108.14 47.01 111.59 48.85 108.02 50.46 107.33 54.31 104.7 51.42 100.83 51.95 102.76 48.55 101.06 45.04 104.89 45.83 107.71 43.12"/><polygon class="cls-3" points="4.18 43.12 6.85 45.97 10.71 45.39 8.83 48.81 10.58 52.3 6.74 51.57 3.96 54.31 3.47 50.43 0 48.63 3.54 46.98 4.18 43.12"/><path class="cls-3" d="M105.19,55.33c0,.13,0,.25,0,.38h0A50.44,50.44,0,0,1,90.7,87.61a49.63,49.63,0,0,1-70.61,0A50.41,50.41,0,0,1,5.65,56.08H4.56c2,26.66,24.29,47.47,50.83,47.47s49-21,50.87-47.84v0c0-.13,0-.24,0-.35Z"/><path class="cls-3" d="M55.25,10.63a38.08,38.08,0,0,0-35.79,50,36.67,36.67,0,0,0,1.78,4.46,37.55,37.55,0,0,0,69.53-3.69,34.29,34.29,0,0,0,1.08-3.66c.06-.22.11-.43.15-.65h0c.21-.89.38-1.8.51-2.71a38.06,38.06,0,0,0-37.26-43.7ZM89.51,57.12c-.05.22-.1.45-.17.67a33.49,33.49,0,0,1-1.08,3.44c-.06.15-.11.3-.17.44a33.44,33.44,0,0,1-2,4.28A35.1,35.1,0,0,1,30.3,73.79a35.83,35.83,0,0,1-5.44-7.07c-.33-.56-.64-1.12-.93-1.69a33.6,33.6,0,0,1-1.66-3.73c-.12-.33-.24-.66-.35-1A35.76,35.76,0,0,1,30.3,23.55a35.07,35.07,0,0,1,49.89,0A35.42,35.42,0,0,1,90.51,48.67a35.9,35.9,0,0,1-.31,4.76A32.85,32.85,0,0,1,89.51,57.12Z"/><path class="cls-3" d="M5.65,56.08H4.56A51.3,51.3,0,0,0,9.17,73.77l1.13-.16A50.33,50.33,0,0,1,5.65,56.08Z"/><path class="cls-3" d="M106.28,55.33c0,.11,0,.22,0,.35v0c-1.87,26.84-24.2,47.84-50.87,47.84A50.93,50.93,0,0,1,14,82.1a51.46,51.46,0,0,1-4.85-8.33l1.13-.16a51,51,0,0,0,9.79,14,49.58,49.58,0,0,0,70.61,0,50.44,50.44,0,0,0,14.47-31.89h0c0-.13,0-.25,0-.38Z"/><path class="cls-4" d="M89.28,91.18s-10.68-.66-11.19-.67-.78-.07-.85-.28a6.3,6.3,0,0,1,.13-1.5,46.44,46.44,0,0,0,1.74-5.33c.22-1.47-2.5-3.67-2.65-4.09s-.83-.51-1-.52,0-.51,0-.51a17,17,0,0,0,.18-1.9c.05-1-2.58-.95-3.5-.78s-.87,1.27-.87,1.41,0,1.5-.07,1.85.28.24.42.34.15.54.15.54-.36.2-.74.38a3.86,3.86,0,0,0-.93,1,22.27,22.27,0,0,0-.18,2.62c.09.33-.31.28-.31.28l-1.26-3.43-3-7.28S59,59.23,58.67,58.06a26.5,26.5,0,0,0-2.06-4.17c-.19-.47-4.25-13.56-5-15.33S45,16,45,16,41.6,2.55,41.62,1.87,41.66,0,41.14,0s-.6,1.59-.6,1.59l-.19,1.29-.68,12s-.8,15-.8,15.26S38,42.44,38,44.31s-.32,16.51-.32,16.51l.39,17.26.25.26s.48,8.71.5,10.26.33,1.26-1.53,1.06S20,89.74,20,89.74a1.58,1.58,0,0,1-.48.06.84.84,0,0,0-.79.46c-.14.3.78,1,.78,1a38.74,38.74,0,0,1,4.33,4.52c1,1.54,1.7,1.46,9.39,1.52s48.14,0,48.14,0c1.66.13,5.34-2,6.8-2.86a2.38,2.38,0,0,0,1-2.56s.49.13.59-.2S89.28,91.18,89.28,91.18ZM46.91,82.41c.22,0,5.05,1.29,4.68,1.81s-2.2.73-3.38.71-3.81-1.66-3.81-1.66L45,82.8A4.74,4.74,0,0,1,46.91,82.41Zm-2.16-.79s-3.5,3.85-4.08,4.41-.31-5.56-.31-5.56,0-.4.18-.35Zm-3.58-2.49c.13.22-1.56-.65-1.56-.65l-.08-.26A8.7,8.7,0,0,1,41.17,79.13Zm-1.72.79c0-.52.61.19.61.19l-.25,7.21S39.44,80.45,39.45,79.92Zm.54,9s.91-1.46,1.08-1.33L42.52,89Zm4,.36c-.75,0-2.71-2-2.71-2l2.92-3.65s.22-.08.43.36,1.69.87,4.25,1.28S52,84.4,52,84.4s1.87.44,2,.87l1.56,4.33S44.75,89.26,44,89.25Zm20.65-1.16a13.36,13.36,0,0,0-1.3,1.63l-7.12-.37-1.75-3.76c-.12-.18.49-.38.49-.38s6.83,1.64,8.3,2.07S64.89,88,64.66,88.09Z"/></g></g></svg>