<svg xmlns="http://www.w3.org/2000/svg" viewBox="0 0 111.59 92.92"><defs><style>.cls-1{fill:#ff7c96;}.cls-2{fill:#ede9e0;}.cls-3{fill:#324b58;}.cls-4{fill:#b6defa;fill-rule:evenodd;}</style></defs><g id="Calque_2" data-name="Calque 2"><g id="_bodybuilding" data-name="
bodybuilding"><path class="cls-1" d="M71.45,16.51h0c-.64,0-1.32,0-2-.08a20.72,20.72,0,0,1-6.2-1.59s-.47-.21-1.17-.46A14.64,14.64,0,0,0,56.44,13h-.59l-.51,0h0a15.74,15.74,0,0,0-6,1.5l-.17.06a22.47,22.47,0,0,1-6.83,1.85c-.7.05-1.37.08-2,.08h0a15.51,15.51,0,0,1-4.74-.63l.07,21.59a.41.41,0,0,1,0,.19l0,.05a45.24,45.24,0,0,0,.21,6.52,6.66,6.66,0,0,1,.15.65,23.84,23.84,0,0,0,1.64,5.17l0,.1.46.92a27.33,27.33,0,0,0,6.12,7.84l.11.11c1.89,1.86,3.89,3.7,6,5.47a57.75,57.75,0,0,0,5.5,4.36h.11l.66-.49.17-.13A39.83,39.83,0,0,0,60,65.67a103.89,103.89,0,0,0,8.85-8.14l0,0a23.5,23.5,0,0,0,3.51-4.32l0,0a24.11,24.11,0,0,0,1.44-2.52.11.11,0,0,1,0-.08,22.17,22.17,0,0,0,2-6.07.19.19,0,0,1,0-.1c.05-.33.08-.65.11-.95s0-.67,0-.74v0l.18-26.8a19,19,0,0,1-3.79.64Z"/><path class="cls-2" d="M97.23,55.47c2.72-.84,4-3.19,4-7l-3.52,2.49a22.78,22.78,0,0,0-.24-4.3c1.16-2.3.67-4.57-1.62-7.13a5,5,0,0,0,1.09,6.85,25.13,25.13,0,0,1,0,5.53,11.7,11.7,0,0,0-2.59-4.31q-.74,5,2.14,8.06a14.85,14.85,0,0,1-1.15,3.8q-1-4.59-2.82-6.25-1.68,5.46,1.67,8.56l-2,3.11a11.51,11.51,0,0,0-1.47-6.89q-3.1,4.55-.28,8.59A9.73,9.73,0,0,1,87,68.93a8,8,0,0,0,.38-6.49Q84,66.12,85.26,69.93a16.62,16.62,0,0,1-4.07,1.43q3-3.21,2.11-5.67-3.8,1.41-3.9,5.88l-1.7.5.82.83,2-.79A8.3,8.3,0,0,0,86,74.57a6,6,0,0,0,2-.35,13.68,13.68,0,0,0-4.54-2.75l2.15-.9a7.59,7.59,0,0,0,4,1.36,5.22,5.22,0,0,0,4.08-2.14,12.31,12.31,0,0,0-5-.88l2.21-1.76a8,8,0,0,0,1.49.16A5.21,5.21,0,0,0,97.26,64a21.2,21.2,0,0,0-3.8.52L95,62.27c2.9-.28,4.58-2,5-5h-.13c-1.7,0-2.61,1.23-3.46,1.3A13.32,13.32,0,0,0,97.23,55.47Z"/><path class="cls-2" d="M31.05,71.62q-.07-4.47-3.87-5.9c-.56,1.64.13,3.54,2.08,5.68A17.21,17.21,0,0,1,25.2,70q1.29-3.81-2.13-7.5A8,8,0,0,0,23.43,69a9.78,9.78,0,0,1-3.37-2.41q2.85-4-.25-8.59a11.55,11.55,0,0,0-1.49,6.88l-2-3.12q3.34-3.09,1.7-8.55-1.82,1.65-2.85,6.24a15.12,15.12,0,0,1-1.13-3.8,9.28,9.28,0,0,0,2.17-8.06,11.84,11.84,0,0,0-2.61,4.31,25.1,25.1,0,0,1,0-5.53,5.06,5.06,0,0,0,1.11-6.86c-2.3,2.56-2.8,4.83-1.64,7.13a22,22,0,0,0-.26,4.3l-3.52-2.5c-.07,3.86,1.24,6.21,3.95,7.06a14.31,14.31,0,0,0,.82,3.08c-.85-.08-1.75-1.32-3.46-1.32h-.12c.43,3.07,2.1,4.76,5,5L17,64.55A21.52,21.52,0,0,0,13.22,64a5.23,5.23,0,0,0,4.86,3.29,6.93,6.93,0,0,0,1.46-.16l2.21,1.77a12.38,12.38,0,0,0-5,.87,5.25,5.25,0,0,0,4.1,2.15,7.65,7.65,0,0,0,4-1.35L27,71.5a13.49,13.49,0,0,0-4.55,2.74,6.15,6.15,0,0,0,2,.36,8.29,8.29,0,0,0,5.45-2.45l2,.81.81-.83Z"/><polygon class="cls-3" points="107.71 32.49 108.14 36.38 111.59 38.22 108.02 39.83 107.33 43.68 104.7 40.79 100.83 41.32 102.76 37.92 101.06 34.41 104.89 35.2 107.71 32.49"/><polygon class="cls-3" points="4.18 32.49 6.85 35.34 10.71 34.76 8.83 38.18 10.58 41.67 6.74 40.94 3.96 43.68 3.47 39.8 0 38 3.54 36.34 4.18 32.49"/><path class="cls-3" d="M105.19,44.7c0,.13,0,.25,0,.38h0A50.44,50.44,0,0,1,90.7,77a49.63,49.63,0,0,1-70.61,0A50.41,50.41,0,0,1,5.65,45.45H4.56c2,26.66,24.29,47.47,50.83,47.47s49-21,50.87-47.84v0c0-.13,0-.24,0-.35Z"/><path class="cls-3" d="M55.25,0A38.08,38.08,0,0,0,19.46,50a36.67,36.67,0,0,0,1.78,4.46,37.55,37.55,0,0,0,69.53-3.69,34.29,34.29,0,0,0,1.08-3.66c.06-.22.11-.43.15-.65h0c.21-.89.38-1.8.51-2.71A38.06,38.06,0,0,0,55.25,0ZM89.51,46.49c-.05.22-.1.45-.17.67a33.49,33.49,0,0,1-1.08,3.44c-.06.15-.11.3-.17.44a33.44,33.44,0,0,1-2,4.28A35.1,35.1,0,0,1,30.3,63.16a35.83,35.83,0,0,1-5.44-7.07c-.33-.56-.64-1.12-.93-1.69a33.6,33.6,0,0,1-1.66-3.73c-.12-.33-.24-.66-.35-1A35.76,35.76,0,0,1,30.3,12.92a35.07,35.07,0,0,1,49.89,0A35.42,35.42,0,0,1,90.51,38a35.9,35.9,0,0,1-.31,4.76A32.85,32.85,0,0,1,89.51,46.49Z"/><path class="cls-4" d="M51.1,85.31c.54,0,.62.14.64.48s-.45.31-.7.31-.92,0-1.52,0-.66-.15-.66-.15-.14.37-1.24-.22-1.45-1.18-.52-2a2.9,2.9,0,0,0,1.2-2.37c-.09-.59-.49-2.49-.52-3.33-.05-1.6,1.38-1.12,2-1.3.13,0,.31-.13.63-.27.73-.33,4.06-4.66,4.06-4.66a13,13,0,0,1,.82-2.72,7,7,0,0,1,2.9-2.86,12.69,12.69,0,0,0,.95-.92,15.74,15.74,0,0,0-1.57-4.32c-.95-1.39-.8-2.11-.8-2.11l-1.93-2.73a6.6,6.6,0,0,1-1-1.63,11.92,11.92,0,0,1-1.36-1.75c-.74-1.12-1.37-4.62-1.57-6.82s1.21-2.61,1.36-3.35-.36-1.75-1.48-5.49a19.17,19.17,0,0,1-.36-7.83,19.52,19.52,0,0,1,.27-2.52,9.12,9.12,0,0,1-.24-1.9c-.06-1.27-.06-2.4-.06-2.4a5.72,5.72,0,0,1-4-2.58c-1.81-2.49-2.14-4.6-2.64-4.8S43,12.88,43,12.61A16.3,16.3,0,0,0,45.39,9.2c.92-2.07,3.26-2.87,3.59-3.14a23.63,23.63,0,0,1,3.63-2.42c.43,0,3.23.48,3.83.36s1,0,1.05.31.93,1.6.83,2-.34.05-.57.32a1.36,1.36,0,0,1-.88.64c-.57.15-.66-.55-.95-.43s-.39.34-.64.32-.3-.23-.43-.22a2.86,2.86,0,0,1-1.14-.34,2,2,0,0,1-.67-.4s-2.81,2.61-2.84,3a6,6,0,0,1-.58,2.42c-.41.56-1.08.9-1,1.23a1.18,1.18,0,0,0,.46.53,3,3,0,0,1,2,.48c1.1.66,1.17,2.41,1.62,2.47a8.29,8.29,0,0,1,3.63,1.35,7,7,0,0,1,1.77,2.83l2.49.18a12,12,0,0,0,1.6-1.5,1.88,1.88,0,0,0,.23-1.79c-.42-1.59,1.33-3.78,2.89-4.1a5.85,5.85,0,0,1,2.32,0,4.24,4.24,0,0,1,2.54,1.82c.44.75.38,1.49.87,1.65.7.22.63.13.61.17s-.27.13-.43.12,0,.37.41.48.4,0,.4,0a2.25,2.25,0,0,0-.32.19l.28,0a.75.75,0,0,1-.25.39c-.22.17-.58,0-.51,0s.39.17.34.18-.38.05-.38.05l-.13,0a4.76,4.76,0,0,1,0,1.37c-.14.33-.62.9-.52,1.3s0,.65-.32.76l-.86.28a6.29,6.29,0,0,1-.22,1.8c-.21.29-.15.28-.41.21s-.23-.15-.3,0-.3.32-.28.45-.23.17-.28.22a.77.77,0,0,1-.36.29c-.24.11-.33-.1-.35.19a1.2,1.2,0,0,1-.26.69.41.41,0,0,1-.26.08l.6.83a7.66,7.66,0,0,1,3.26,1.48A15.88,15.88,0,0,1,72.57,32a2.14,2.14,0,0,1,1.59.93c.65.92.14,1.51.34,1.67s.66.75.66.63a4.28,4.28,0,0,1,1.81-2,10.11,10.11,0,0,0,2.08-1.72c.29-.28.28-.37.28-.37a2.81,2.81,0,0,1-.79-.48,2.92,2.92,0,0,1-.86-1.08c-.12-.13-.18-.41-.49-.36s-.35-.17-.35-.17,0,.05-.25-.16a.76.76,0,0,1-.12-.6s-.24-.34-.13-.49.78-1.37,1.13-1.27A2.8,2.8,0,0,0,79,26.46c.38-.19.5-.51.84-.12s.19.53.42.89A10.66,10.66,0,0,1,81,28.59c.36.74.18.91.36,1.08s.67.45.43.82a3.94,3.94,0,0,0-.41.63,32.29,32.29,0,0,1-1.25,4.41,9.92,9.92,0,0,1-2.09,2.84,15.5,15.5,0,0,0-1.48,1.8c-.68.81-1.35,1.26-1.89,1.09s-.6-.71-1.35-.71a7.93,7.93,0,0,1-3-1A4.77,4.77,0,0,1,68,37.19a6.7,6.7,0,0,1-.56-1.25,2.76,2.76,0,0,1-.6.85,30.85,30.85,0,0,0-3,2.64,11.89,11.89,0,0,1,.56,2.9c-.15.69-1,.48-.32,1.25s.26,1.16.32,1.72.86,4.12.86,4.12a11.64,11.64,0,0,0,.42,2.17,18.79,18.79,0,0,1,1.33,6.61c-.12,2.64-1.42,6.35-1.36,7.21a5.12,5.12,0,0,1-.65,2.43,1.79,1.79,0,0,0-.27.77S64,71.13,63.42,74s.51,4.57,1.28,5.1a12,12,0,0,0,2.72,1.4c.4.06.45.37.81.37a1.64,1.64,0,0,1,.8.09c.53.15.3.27.58.28s.8.34.55.67-1.1.37-1.5.31-.31-.19-.62-.12a3.71,3.71,0,0,1-2.14.21c-1-.25-1.46-.86-2.84-.64s-1.7.7-3.16.48-1.6-1-1.33-1.54a6.49,6.49,0,0,0,.86-2.6c0-.87-.08-3.42-.16-3.36A63.18,63.18,0,0,0,54,78.52c-1.6,1.45-2,2.76-2.76,3.94s-.69,1.73-.5,2.06a7.07,7.07,0,0,1,.37.79Z"/></g></g></svg>