<svg xmlns="http://www.w3.org/2000/svg" viewBox="0 0 111.59 95.89"><defs><style>.cls-1{fill:#ff7c96;}.cls-2{fill:#ede9e0;}.cls-3{fill:#324b58;}.cls-4{fill:#b6defa;fill-rule:evenodd;}</style></defs><g id="Calque_2" data-name="Calque 2"><g id="_bowling" data-name="
bowling"><path class="cls-1" d="M71.45,19.48h0c-.64,0-1.32,0-2-.08a20.72,20.72,0,0,1-6.2-1.59s-.47-.21-1.17-.47A14.81,14.81,0,0,0,56.44,16h-.51s0,0-.06,0h-.53a15.74,15.74,0,0,0-6,1.5l-.17.06a22.47,22.47,0,0,1-6.83,1.85c-.7.05-1.37.08-2,.08h0a15.51,15.51,0,0,1-4.74-.63l.07,21.59a.41.41,0,0,1,0,.19l0,0a45.29,45.29,0,0,0,.21,6.52c.05.15.09.36.15.64A23.71,23.71,0,0,0,37.59,53l0,.1.46.92a27.47,27.47,0,0,0,6.12,7.84l.11.1c1.89,1.87,3.89,3.71,6,5.48a57.75,57.75,0,0,0,5.5,4.36h.11l.66-.49.17-.13A39.83,39.83,0,0,0,60,68.64a105.56,105.56,0,0,0,8.85-8.14l0,0a23.5,23.5,0,0,0,3.51-4.32l0,0a25.18,25.18,0,0,0,1.44-2.52.16.16,0,0,1,0-.09,22,22,0,0,0,2-6.06.19.19,0,0,1,0-.1c.05-.33.08-.65.11-1s0-.66,0-.73v0l.18-26.8a19,19,0,0,1-3.79.64Z"/><path class="cls-2" d="M97.23,58.44c2.72-.84,4-3.19,4-7l-3.52,2.49a22.74,22.74,0,0,0-.24-4.3c1.16-2.3.67-4.57-1.62-7.13a5,5,0,0,0,1.09,6.85,25.13,25.13,0,0,1,0,5.53,11.7,11.7,0,0,0-2.59-4.31q-.74,4.95,2.14,8.06a14.85,14.85,0,0,1-1.15,3.8q-1-4.59-2.82-6.25-1.68,5.46,1.67,8.55l-2,3.12a11.51,11.51,0,0,0-1.47-6.89q-3.1,4.55-.28,8.59A9.73,9.73,0,0,1,87,71.9a8,8,0,0,0,.38-6.49Q84,69.09,85.26,72.9a16.62,16.62,0,0,1-4.07,1.43q3-3.21,2.11-5.67-3.8,1.41-3.9,5.88l-1.7.5.82.83,2-.79A8.3,8.3,0,0,0,86,77.54a6,6,0,0,0,2-.35,13.68,13.68,0,0,0-4.54-2.75l2.15-.9a7.68,7.68,0,0,0,4,1.36,5.22,5.22,0,0,0,4.08-2.14,12.15,12.15,0,0,0-5-.88l2.21-1.76a8,8,0,0,0,1.49.16A5.21,5.21,0,0,0,97.26,67a21.2,21.2,0,0,0-3.8.52L95,65.24c2.9-.28,4.58-2,5-5h-.13c-1.7,0-2.61,1.23-3.46,1.3A13.47,13.47,0,0,0,97.23,58.44Z"/><path class="cls-2" d="M31.05,74.59q-.07-4.47-3.87-5.9c-.56,1.64.13,3.54,2.08,5.68a17.21,17.21,0,0,1-4.06-1.44q1.29-3.81-2.13-7.5a8,8,0,0,0,.36,6.49,9.78,9.78,0,0,1-3.37-2.41q2.85-4-.25-8.59a11.55,11.55,0,0,0-1.49,6.88l-2-3.12q3.34-3.09,1.7-8.55-1.82,1.65-2.85,6.24a15.12,15.12,0,0,1-1.13-3.8,9.28,9.28,0,0,0,2.17-8.06,11.78,11.78,0,0,0-2.61,4.3,25,25,0,0,1,0-5.52,5.06,5.06,0,0,0,1.11-6.86c-2.3,2.56-2.8,4.82-1.64,7.13a22,22,0,0,0-.26,4.29L9.33,51.36c-.07,3.85,1.24,6.21,3.95,7.06a14,14,0,0,0,.82,3.07c-.85-.07-1.75-1.31-3.46-1.31h-.12q.64,4.6,5,5.05L17,67.52A21.52,21.52,0,0,0,13.22,67a5.22,5.22,0,0,0,4.86,3.28,7.62,7.62,0,0,0,1.46-.15l2.21,1.77a12.21,12.21,0,0,0-5,.87,5.25,5.25,0,0,0,4.1,2.15,7.65,7.65,0,0,0,4-1.35l2.14.91a13.49,13.49,0,0,0-4.55,2.74,6.15,6.15,0,0,0,2,.36,8.29,8.29,0,0,0,5.45-2.45l2,.81.81-.83Z"/><polygon class="cls-3" points="107.71 35.46 108.14 39.34 111.59 41.19 108.02 42.8 107.33 46.65 104.7 43.76 100.83 44.29 102.76 40.89 101.06 37.37 104.89 38.16 107.71 35.46"/><polygon class="cls-3" points="4.18 35.46 6.85 38.31 10.71 37.72 8.83 41.15 10.58 44.64 6.74 43.91 3.96 46.65 3.47 42.77 0 40.97 3.54 39.31 4.18 35.46"/><path class="cls-3" d="M105.19,47.67c0,.13,0,.25,0,.38h0A50.44,50.44,0,0,1,90.7,80a49.63,49.63,0,0,1-70.61,0A50.41,50.41,0,0,1,5.65,48.42H4.56c2,26.66,24.29,47.47,50.83,47.47s49-21,50.87-47.84v0c0-.13,0-.24,0-.35Z"/><path class="cls-3" d="M55.25,3a38.08,38.08,0,0,0-35.79,50,36.67,36.67,0,0,0,1.78,4.46A37.55,37.55,0,0,0,90.77,53.7,34.29,34.29,0,0,0,91.85,50c.06-.22.11-.43.15-.65h0c.21-.89.38-1.8.51-2.71A38.06,38.06,0,0,0,55.25,3ZM89.51,49.46c-.05.22-.1.45-.17.67a33.49,33.49,0,0,1-1.08,3.44c-.06.15-.11.3-.17.44a33.44,33.44,0,0,1-2,4.28A35.1,35.1,0,0,1,30.3,66.13a35.83,35.83,0,0,1-5.44-7.07c-.33-.56-.64-1.12-.93-1.69a33.6,33.6,0,0,1-1.66-3.73c-.12-.33-.24-.66-.35-1A35.76,35.76,0,0,1,30.3,15.89a35.07,35.07,0,0,1,49.89,0A35.42,35.42,0,0,1,90.51,41a35.9,35.9,0,0,1-.31,4.76A32.85,32.85,0,0,1,89.51,49.46Z"/><path class="cls-3" d="M5.65,48.42H4.56A51.3,51.3,0,0,0,9.17,66.11L10.3,66A50.33,50.33,0,0,1,5.65,48.42Z"/><path class="cls-3" d="M106.28,47.67c0,.11,0,.22,0,.35v0c-1.87,26.84-24.2,47.84-50.87,47.84A50.93,50.93,0,0,1,14,74.44a51.46,51.46,0,0,1-4.85-8.33L10.3,66a51,51,0,0,0,9.79,14A49.58,49.58,0,0,0,90.7,80a50.44,50.44,0,0,0,14.47-31.89h0c0-.13,0-.25,0-.38Z"/><path class="cls-4" d="M43,65.19c.24-.68-.59-.77-.59-1.37,0-.85-2.11-1.08-2.11-1.38,0-1.69-.12-6.21,1.08-8a28.26,28.26,0,0,0,1.45-5.37c0-1.84-.12-2.69.1-2.87-1.39-3.41-2.19-8.85-.82-10.21.83.62-.13,1.44,1.32,1.44,2.84,0-.18,8.57,1.57,8.57a5.28,5.28,0,0,1,1.87.82c.61,0,1.13-.1,1.33-.1,0,6,3.18,10.36,4.06,15.34a12.31,12.31,0,0,1-.2,3.12c-.28,2.92-1.39,8.33-1.81,11.52-.36,2.7-.89,5.7-1,6.51.44.45,1.36.21,1.72.6a8.31,8.31,0,0,1-.11,2.72c-.53,1.74-1.43,2.47-1.45,3.19,0,.11.28,1.32.31,1.41,2.25.72,7.22.65,8.8-1.19A25.15,25.15,0,0,0,58,86.81a8.46,8.46,0,0,1,.6-3.8c.78-1.69.59-6.28,1.09-9a37.21,37.21,0,0,1,1.53-5.11,9.38,9.38,0,0,0,2.81,1.92c1.39,0,3.07.18,4.16-.91.06-.06.06-.24.84.54,1.33,1.33,2.42,2.16,2.42,4,0,1,2.17,2.26,2.83,2.19a4,4,0,0,0,1.33-3c0-2.81-1.15-4.84-2.69-7-.54-.78-.44-2.75-.57-3.53a3.66,3.66,0,0,0-3.13-3.33A7.28,7.28,0,0,0,67,61.18c-.36.36-.66-.24-1-.24a6.24,6.24,0,0,1-1.75-.61c-.08,0-1.42.06-1.72-.24-.12,0,.31-2.22.15-2.77a4.3,4.3,0,0,1,.06-3.38c.18-.36-1.2-1.15-.48-1.15.18,0,1.15-1.87,1.45-2.17a26.81,26.81,0,0,0,3.49-3.8,18.54,18.54,0,0,0,2.66-5.06c.19,0-.06.24.54.54,2.84,1.33,2.41,3.26,4,5.67a6,6,0,0,1,1.45,3.5c0,.78-.14,3,.89,2.73a11.67,11.67,0,0,0-1.1,2.65,7.9,7.9,0,0,1-.44,1.75c-.7,1-1.26.48-1.51,1.34a1.73,1.73,0,0,0,2.14.27c1.09-.47,1.23-2.11,1.9-2.38.19.36.91.92,1,1.58.09.48.36,1.21.47,2.05.13,1.08.76,2.31,1,3.28.17.78.54.89,1,.79.7-.13.2-1.34.2-1.4s-.3-1.08-.3-1.2c0-1.34-.33-1.55,0-3a29.62,29.62,0,0,1,1.59,4c.14.66.71,1.55,1.45,1.37s.34-1.07.24-1.55a20.85,20.85,0,0,0-.9-2.7s-.47-1.6-.57-1.9a4.36,4.36,0,0,0,.87,1,11.92,11.92,0,0,1,1.39,1.8c.36.53,1.22,2.14,2,1.47s-.55-2.43-1.43-3.45a22.9,22.9,0,0,1-1.93-2.56,9,9,0,0,0,2.17,1c.18.05,1.66,1,1.9.55s0-1-.51-1.33a19.31,19.31,0,0,1-2.47-1.87c-1.06-1.06-1-1.69-1.59-2.9.82-.31.89-.49,1.43-.49C83.31,43.86,77.46,30.86,69.46,22c-3.22-3.58-6.45-6.83-10.18-8.66a19.76,19.76,0,0,0-8.66-1.56c.6-.9.28-2.61.28-3.36a.65.65,0,0,0-1.07-.55c.1-2.45-1.21-9.13-9.07-7.62a6.92,6.92,0,0,0-4.27,3.5c-1,1.76-.29,4.81-.29,6.21a14,14,0,0,0,2.27,7.22c-2.62,1.64-4.24,5.6-5.54,8.2-1,2.17-1.51,8.33-1.51,11.34,0,1.45.3,4.84,1.09,5.62a13.81,13.81,0,0,1,1.32,1.77c-.24.57.43,2,.43,2.68s0,1.33-.06,2c0,.12-.55.61-.55.91s.12.42.3.6,1.12.33,1.18.39c-.36.73.63,4.13.63,5.22,0,1.33-.24,2.89-.24,4.1s-1,4.77-1.81,4.77c-1,0-.69,1.18-.16,1.94A7.87,7.87,0,1,0,43,65.19Z"/></g></g></svg>