<svg xmlns="http://www.w3.org/2000/svg" viewBox="0 0 111.59 93.27"><defs><style>.cls-1{fill:#ff7c96;}.cls-2{fill:#ede9e0;}.cls-3{fill:#324b58;}.cls-4{fill:#b6defa;}</style></defs><g id="Calque_2" data-name="Calque 2"><g id="Hockey"><path class="cls-1" d="M71.45,16.86h0c-.64,0-1.32,0-2-.08a20.43,20.43,0,0,1-6.2-1.59s-.47-.2-1.17-.46a14.81,14.81,0,0,0-5.63-1.35h-1.1a15.92,15.92,0,0,0-6,1.49l-.17.07a22.19,22.19,0,0,1-6.83,1.84c-.7,0-1.37.08-2,.08h0a15.51,15.51,0,0,1-4.74-.63l.07,21.6a.45.45,0,0,1,0,.19l0,0a45.24,45.24,0,0,0,.21,6.52,6.66,6.66,0,0,1,.15.65,24,24,0,0,0,1.64,5.18l0,.09.46.92a27.2,27.2,0,0,0,6.12,7.84l.11.11c1.89,1.87,3.89,3.71,6,5.47a56.15,56.15,0,0,0,5.5,4.36h.11l.66-.48.17-.13C57.55,68,58.64,67.16,60,66a103.89,103.89,0,0,0,8.85-8.14h0a24.27,24.27,0,0,0,3.51-4.33l0,0A25,25,0,0,0,73.83,51a.16.16,0,0,1,0-.09,22,22,0,0,0,2-6.06.23.23,0,0,1,0-.11c.05-.32.08-.64.11-.95s0-.67,0-.74v0l.18-26.8a18.25,18.25,0,0,1-3.79.64Z"/><path class="cls-2" d="M97.23,55.82c2.72-.84,4-3.19,4-7l-3.52,2.49a22.78,22.78,0,0,0-.24-4.3c1.16-2.3.67-4.57-1.62-7.13a5,5,0,0,0,1.09,6.86,25.17,25.17,0,0,1,0,5.53,11.76,11.76,0,0,0-2.59-4.32A9.27,9.27,0,0,0,96.45,56a14.88,14.88,0,0,1-1.15,3.79q-1-4.59-2.82-6.24Q90.8,59,94.15,62.07l-2,3.12a11.52,11.52,0,0,0-1.47-6.9q-3.1,4.55-.28,8.6A10,10,0,0,1,87,69.29a8,8,0,0,0,.38-6.5q-3.44,3.67-2.16,7.5a17,17,0,0,1-4.07,1.42q3-3.21,2.11-5.67-3.8,1.41-3.9,5.88l-1.7.5.82.84,2-.8A8.27,8.27,0,0,0,86,74.93a6.3,6.3,0,0,0,2-.35,13.51,13.51,0,0,0-4.54-2.76l2.15-.9a7.59,7.59,0,0,0,4,1.36,5.24,5.24,0,0,0,4.08-2.13,12.13,12.13,0,0,0-5-.89l2.21-1.76a7.21,7.21,0,0,0,1.49.16,5.21,5.21,0,0,0,4.84-3.27,21.2,21.2,0,0,0-3.8.52L95,62.62c2.9-.28,4.58-2,5-5h-.13c-1.7,0-2.61,1.23-3.46,1.3A13.32,13.32,0,0,0,97.23,55.82Z"/><path class="cls-2" d="M31.05,72Q31,67.5,27.18,66.08q-.84,2.46,2.08,5.68a16.84,16.84,0,0,1-4.06-1.45q1.29-3.81-2.13-7.5a8,8,0,0,0,.36,6.5,9.82,9.82,0,0,1-3.37-2.42q2.85-4-.25-8.59a11.58,11.58,0,0,0-1.49,6.89l-2-3.13q3.34-3.09,1.7-8.54c-1.21,1.1-2.16,3.17-2.85,6.23A15,15,0,0,1,14.07,56a9.27,9.27,0,0,0,2.17-8.06,11.84,11.84,0,0,0-2.61,4.31,25.1,25.1,0,0,1,0-5.53,5,5,0,0,0,1.11-6.85c-2.3,2.55-2.8,4.82-1.64,7.12a22,22,0,0,0-.26,4.3l-3.52-2.5C9.26,52.6,10.57,55,13.28,55.8a14.13,14.13,0,0,0,.82,3.08c-.85-.07-1.75-1.32-3.46-1.32h-.12q.64,4.62,5,5L17,64.91a21.61,21.61,0,0,0-3.81-.54,5.23,5.23,0,0,0,4.86,3.29,7.62,7.62,0,0,0,1.46-.15l2.21,1.77a12.23,12.23,0,0,0-5,.86,5.22,5.22,0,0,0,4.1,2.15,7.72,7.72,0,0,0,4-1.34l2.14.9a13.65,13.65,0,0,0-4.55,2.74,6.15,6.15,0,0,0,2,.36,8.28,8.28,0,0,0,5.45-2.44l2,.8.81-.83Z"/><polygon class="cls-3" points="107.71 32.84 108.14 36.73 111.59 38.58 108.02 40.19 107.33 44.03 104.7 41.14 100.83 41.67 102.76 38.28 101.06 34.76 104.89 35.55 107.71 32.84"/><polygon class="cls-3" points="4.18 32.84 6.85 35.69 10.71 35.11 8.83 38.53 10.58 42.03 6.74 41.29 3.96 44.03 3.47 40.16 0 38.36 3.54 36.7 4.18 32.84"/><path class="cls-3" d="M105.19,45.05c0,.13,0,.25,0,.38h0A50.44,50.44,0,0,1,90.7,77.33a49.63,49.63,0,0,1-70.61,0A50.41,50.41,0,0,1,5.65,45.8H4.56c2,26.66,24.29,47.47,50.83,47.47s49-21,50.87-47.84v0c0-.13,0-.24,0-.35Z"/><path class="cls-3" d="M55.25.35a38.08,38.08,0,0,0-35.79,50,36.67,36.67,0,0,0,1.78,4.46,37.55,37.55,0,0,0,69.53-3.69,34.29,34.29,0,0,0,1.08-3.66c.06-.22.11-.43.15-.65h0c.21-.89.38-1.8.51-2.71A38.06,38.06,0,0,0,55.25.35ZM89.51,46.84c-.05.22-.1.45-.17.67A33.49,33.49,0,0,1,88.26,51c-.06.15-.11.3-.17.44a33.44,33.44,0,0,1-2,4.28A35.1,35.1,0,0,1,30.3,63.51a35.83,35.83,0,0,1-5.44-7.07c-.33-.56-.64-1.12-.93-1.69A33.6,33.6,0,0,1,22.27,51c-.12-.33-.24-.66-.35-1A35.76,35.76,0,0,1,30.3,13.27a35.07,35.07,0,0,1,49.89,0A35.42,35.42,0,0,1,90.51,38.39a35.9,35.9,0,0,1-.31,4.76A32.85,32.85,0,0,1,89.51,46.84Z"/><path class="cls-4" d="M84.43,75.14l-.22.16c-.33.2-.66.4-1,.62L83,76.1l0,0a.85.85,0,0,0-.19.35,4.39,4.39,0,0,0-.13.52c-.06.23-.12.71.2.79s.63-.17.9-.28l1-.44c.31-.13.59-.33.9-.46a2,2,0,0,0,.72-.47c.13-.13.21-.16.16-.34a.49.49,0,0,0-.28-.3,2.48,2.48,0,0,0-1.15-.2C84.78,75.29,84.6,75.3,84.43,75.14ZM60.43,61c-.23.25-.55.48-.21.78a2,2,0,0,0,1.29.28A13,13,0,0,0,63.05,62a6.17,6.17,0,0,1,.75,0,.75.75,0,0,0,.39-.09,1.07,1.07,0,0,1,.27-.16c.06-.12.14-.19.13-.35a1.45,1.45,0,0,0-.39-.63c-.08-.11-.1-.21-.17-.31a.87.87,0,0,0-.31-.2.74.74,0,0,0-.39-.08,3.48,3.48,0,0,0-.82.29A5.53,5.53,0,0,1,61,61,4.17,4.17,0,0,1,60.43,61Zm6-9.37a3.29,3.29,0,0,1,.5-1.83,4.65,4.65,0,0,0,.51-.66.81.81,0,0,0,.07-.38c-.4.22-.9.3-1.15-.17A6.78,6.78,0,0,1,65.88,47a32.13,32.13,0,0,1-.7-3.94c-.17-1.33-.44-2.76-.53-4.08a8.38,8.38,0,0,1-1.28.38,12.63,12.63,0,0,1-2.12.24,10.64,10.64,0,0,1-1.79-.16A7.08,7.08,0,0,1,58.07,39a1.16,1.16,0,0,0,.21.16,7.44,7.44,0,0,0,.78.31,4.72,4.72,0,0,1,1.4,1.16A8.05,8.05,0,0,1,62.14,44a19.71,19.71,0,0,0,1,3.54,9.39,9.39,0,0,1,.54,2c.11.52.24,1,.33,1.57a11.7,11.7,0,0,1,.88-1c.19-.26.53-1,.91-.85A5.48,5.48,0,0,1,66,50.47c0,.42.33.73.39,1.15Zm-8.32.74c-.3-.28-.58-.56-.87-.86a19.11,19.11,0,0,1-1.36-1.62c-1-1.32-1.91-2.75-3-4.06-.25-.3-.58-.52-.81-.82a3.45,3.45,0,0,1-.4-.79,3.42,3.42,0,0,0-1.39-1.3,2.17,2.17,0,0,1-1-1.5,2.49,2.49,0,0,0-.85-1.65,2.29,2.29,0,0,1-.59-.75,3.65,3.65,0,0,1,0-1,12.44,12.44,0,0,1,.11-1.82,1,1,0,0,0-.24,0,1.55,1.55,0,0,0-.43,0c-.13.08,0,.14-.12.24s0,.18-.24.3-.37.11-.43.21.17.61,0,.9c-.23.55-1.06.94-1.52,1.28s-.16,1.15-.37,1.68a5.11,5.11,0,0,1-1.22,1.76A5.8,5.8,0,0,1,41.5,43.8a3.1,3.1,0,0,1-.91.21,3.93,3.93,0,0,0-1,0c-.29.11-.46.4-.81.46a4.43,4.43,0,0,1-1.21.08,4.54,4.54,0,0,1-1.75-.29L20.38,55.1l0,0c-.35.24-.73.41-1.12.65a3.3,3.3,0,0,1-2,.71,12.13,12.13,0,0,1-2.43-.86c-.95-.29-1.88-.64-2.83-1-1.22-.4-2.48-.72-3.72-1.06-.68-.19-2.32-1-1.54-2,.51-.65,2.07-.12,2.72,0a14.82,14.82,0,0,1,2.69.64c1.85.63,3.72,1.66,5.7,1.82a4.06,4.06,0,0,0,1.48-.39h0L35.57,42.49a2.6,2.6,0,0,0,0-.73,3.62,3.62,0,0,1-.08-.94,4.24,4.24,0,0,1,.7-1.82c.07-.11.17-.17.17-.31s-.21-.22-.15-.38.57-.47.73-.61c.55-.51,1-1.13,1.54-1.62.29-.25.54-.32.77-.66a4.47,4.47,0,0,1,.57-.68c.21-.23.42-.55.72-.66s.62.07.74-.43c.05-.16-.06-.31.12-.4s.38.09.52,0c.3-.1.31-.41.39-.67a5,5,0,0,1,1.14-1.69,11.6,11.6,0,0,0,1.29-1.62c.25-.41.55-1,1-1.26.23-.11.49,0,.72-.18s.31-.43.45-.68c.27-.5.84-.53,1.18-1a4.73,4.73,0,0,0-.83-.78.89.89,0,0,1-.34-.56,2.91,2.91,0,0,1,.12-.63c0-.29.06-.58.11-.87a1.1,1.1,0,0,0-.16-.86,1.24,1.24,0,0,1-.23-.9,1.65,1.65,0,0,1,.21-.47,4,4,0,0,1-1-.37,3,3,0,0,1-1-1.66A5.09,5.09,0,0,1,44.65,17c.05-.42.13-.82.2-1.24a2.8,2.8,0,0,0,0-.36,2.62,2.62,0,0,1-.62.4,2.39,2.39,0,0,1-.92.13,1,1,0,0,1-1-.67c-.14-.5.18-.9-.11-1.39-.11-.2-.33-.31-.44-.52s0-.33,0-.47-.18-.14-.24-.24c-.19-.35.09-.83-.11-1.1s-1.09.08-1.2-.55c-.06-.41.32-.74.36-1.13a1.8,1.8,0,0,0-.26-1c-.15-.23-.3-.58-.49-.83a.94.94,0,0,1-.74-.89,4.83,4.83,0,0,1,.32-2,5.93,5.93,0,0,1,1.07-1.92,7,7,0,0,1,1.14-.84,10.43,10.43,0,0,0,1-.87A5.1,5.1,0,0,1,47,.11a3.85,3.85,0,0,1,1.69.81A7.25,7.25,0,0,1,49.82,2.4c.26.39.53.81.81,1.19a3.26,3.26,0,0,1,.68,1.14c0,.33-.12.31-.32.47a.64.64,0,0,0-.23.52,3.58,3.58,0,0,0,0,.56.48.48,0,0,0,.2,0c.22,0,.28-.21.41-.37.41-.52.9-.24,1.39,0a2.48,2.48,0,0,0,.59.29c.21,0,.52-.11.75-.12a5.07,5.07,0,0,1,1.61.16,12,12,0,0,1,1.79.82A9.7,9.7,0,0,0,59.62,8,5.05,5.05,0,0,1,61.67,9a19.31,19.31,0,0,1,2,1.61c.72.62,1.55,1.1,2.28,1.69s1.31.77,1.89,1.24A16,16,0,0,0,70.61,15c.48.26,1,.44,1.46.71s.59.52,1,.71a3.92,3.92,0,0,1,1,.55c.39.38.28.9.57,1.27s.49.34.71.52l.8.63a2.47,2.47,0,0,1,1,1.41,7.73,7.73,0,0,0,.33,1.85,17.09,17.09,0,0,1,.9,1.62,4,4,0,0,0,1,1.4A10.57,10.57,0,0,1,80.55,27a2.29,2.29,0,0,1,.5.75c.11.51-.37.51-.7.66a5.28,5.28,0,0,1-.95.31l-.18.07a9.35,9.35,0,0,1,.14,1.4c0,.7.21,1.33.24,2a4.19,4.19,0,0,1-.72,1.85c-1.56,3-1,6.53-1.1,9.81,0,.68-.15,1.29-.15,2a3.53,3.53,0,0,1-.24,1.81,2.16,2.16,0,0,0-.47,1.7A15,15,0,0,1,77,51.15a4,4,0,0,1,.67.28c.22.12.3.29.47.46a6,6,0,0,0,.62.48,3.25,3.25,0,0,1,.61.73,5.31,5.31,0,0,1,.47.84,2.52,2.52,0,0,1,.31.87,1.79,1.79,0,0,0,.07.51,1.27,1.27,0,0,0,.2.31c.34.45.81.79,1.14,1.26a4.13,4.13,0,0,1,.64,1.74c.06.66-.09,1.35,0,2a6.78,6.78,0,0,0,.27,1,3.62,3.62,0,0,1,.08,1,10.69,10.69,0,0,0,.21,2c.06.33.12.67.19,1a4.17,4.17,0,0,0,.28.91c.12.25.32.46.46.7a8.42,8.42,0,0,0,1.19,1.63c.23.23.38.5.59.74s.5.5.75.75.4.41.59.63a6.08,6.08,0,0,1,.59.75c.28.49.09,1,.29,1.31a5.48,5.48,0,0,0,1.38,1.07c.39.21.58.09,1,.46,1.19,1.17.37,1.92-.86,2.61-.77.42-1.55.82-2.33,1.21s-1.52.73-2.29,1.07a12.31,12.31,0,0,1-6.2.92,3.23,3.23,0,0,1-.88-.21,1.3,1.3,0,0,1-.31-.21.59.59,0,0,1,0-.66c.07-.12.2-.21.26-.33a1.53,1.53,0,0,0,0-.9,1.48,1.48,0,0,1-.86-.17,1,1,0,0,1-.36-.81,2,2,0,0,1,0-1,1.92,1.92,0,0,1,.63-.67A10.15,10.15,0,0,0,78.46,74a1.42,1.42,0,0,0,.39-.72c0-.31-.28-.57-.44-.82a2.15,2.15,0,0,1-.31-.83c0-.3.09-.62-.15-.84a1.37,1.37,0,0,0-.72-.42,8,8,0,0,0-1,0,1.53,1.53,0,0,1-.87-.17c-.35-.24-.13-.63.05-.93a4.23,4.23,0,0,1,.54-.72c.22-.2.49-.36.72-.55a2.67,2.67,0,0,1,.82-.38,1,1,0,0,1,.29-.07,8.45,8.45,0,0,1-.81-.77,16.61,16.61,0,0,0-1.28-1.5,19.58,19.58,0,0,1-1.55-1.61c-.52-.61-1-1.26-1.51-1.89a7.59,7.59,0,0,1-1-1.74,5.29,5.29,0,0,0-.91-1.84c-.24-.21-.55-.33-.78-.56a5.76,5.76,0,0,1-.51-.83c-.38-.58-1-1-1.35-1.57-.24-.37-.72-.85-1-1.33a11.82,11.82,0,0,0,.5,1.6c.14.33.29.66.42,1a2.7,2.7,0,0,0,.24.55,2.55,2.55,0,0,1,.23.43,2.42,2.42,0,0,1,.21.91,8.15,8.15,0,0,0,.15,1,1.76,1.76,0,0,1,0,.94.57.57,0,0,1-.28.25,2.09,2.09,0,0,1,.41.62,1.86,1.86,0,0,1,.24.9,2,2,0,0,0,.26.84c.06.14.22.3.21.47s-.13.25-.13.38-.23.19-.34.24a1.42,1.42,0,0,1-.4.12,3.62,3.62,0,0,1-1.14.08c-.35,0-.71-.07-1.07-.08A50.94,50.94,0,0,1,61,63.69c-1-.14-6.34-.26-6.11-2.23,0-.32.3-.34.47-.56a1.18,1.18,0,0,0,.16-.66h-.07a1.22,1.22,0,0,1-.51-.59,1.89,1.89,0,0,1,0-.75,2.78,2.78,0,0,1,.16-.63c.1-.3.18-.68.51-.82a6.73,6.73,0,0,1,1.85-.09,3.39,3.39,0,0,0,1-.22c.31-.14.63-.25,1-.37a1.44,1.44,0,0,0,.75-.55,1.37,1.37,0,0,0,.18-.93c-.22-1.11-1.64-1-2.43-1.31S57.63,52.72,58.08,52.36Z"/></g></g></svg>