<svg xmlns="http://www.w3.org/2000/svg" viewBox="0 0 111.59 92.92"><defs><style>.cls-1{fill:#ff7c96;}.cls-2{fill:#ede9e0;}.cls-3{fill:#324b58;}.cls-4{fill:#b6defa;}</style></defs><g id="Calque_2" data-name="Calque 2"><g id="scubadiving"><path class="cls-1" d="M71.45,16.51h0c-.64,0-1.32,0-2-.08a20.72,20.72,0,0,1-6.2-1.59s-.47-.21-1.17-.46A14.64,14.64,0,0,0,56.44,13h-.59l-.51,0h0a15.74,15.74,0,0,0-6,1.5l-.17.06a22.47,22.47,0,0,1-6.83,1.85c-.7.05-1.37.08-2,.08h0a15.51,15.51,0,0,1-4.74-.63l.07,21.59a.41.41,0,0,1,0,.19l0,.05a45.24,45.24,0,0,0,.21,6.52,6.66,6.66,0,0,1,.15.65,23.84,23.84,0,0,0,1.64,5.17l0,.1.46.92a27.33,27.33,0,0,0,6.12,7.84l.11.11c1.89,1.86,3.89,3.7,6,5.47a57.75,57.75,0,0,0,5.5,4.36h.11l.66-.49.17-.13A39.83,39.83,0,0,0,60,65.67a103.89,103.89,0,0,0,8.85-8.14l0,0a23.5,23.5,0,0,0,3.51-4.32l0,0a24.11,24.11,0,0,0,1.44-2.52.11.11,0,0,1,0-.08,22.17,22.17,0,0,0,2-6.07.19.19,0,0,1,0-.1c.05-.33.08-.65.11-.95s0-.67,0-.74v0l.18-26.8a19,19,0,0,1-3.79.64Z"/><path class="cls-2" d="M97.23,55.47c2.72-.84,4-3.19,4-7l-3.52,2.49a22.78,22.78,0,0,0-.24-4.3c1.16-2.3.67-4.57-1.62-7.13a5,5,0,0,0,1.09,6.85,25.13,25.13,0,0,1,0,5.53,11.7,11.7,0,0,0-2.59-4.31q-.74,5,2.14,8.06a14.85,14.85,0,0,1-1.15,3.8q-1-4.59-2.82-6.25-1.68,5.46,1.67,8.56l-2,3.11a11.51,11.51,0,0,0-1.47-6.89q-3.1,4.55-.28,8.59A9.73,9.73,0,0,1,87,68.93a8,8,0,0,0,.38-6.49Q84,66.12,85.26,69.93a16.62,16.62,0,0,1-4.07,1.43q3-3.21,2.11-5.67-3.8,1.41-3.9,5.88l-1.7.5.82.83,2-.79A8.3,8.3,0,0,0,86,74.57a6,6,0,0,0,2-.35,13.68,13.68,0,0,0-4.54-2.75l2.15-.9a7.59,7.59,0,0,0,4,1.36,5.22,5.22,0,0,0,4.08-2.14,12.31,12.31,0,0,0-5-.88l2.21-1.76a8,8,0,0,0,1.49.16A5.21,5.21,0,0,0,97.26,64a21.2,21.2,0,0,0-3.8.52L95,62.27c2.9-.28,4.58-2,5-5h-.13c-1.7,0-2.61,1.23-3.46,1.3A13.32,13.32,0,0,0,97.23,55.47Z"/><path class="cls-2" d="M31.05,71.62q-.07-4.47-3.87-5.9c-.56,1.64.13,3.54,2.08,5.68A17.21,17.21,0,0,1,25.2,70q1.29-3.81-2.13-7.5A8,8,0,0,0,23.43,69a9.78,9.78,0,0,1-3.37-2.41q2.85-4-.25-8.59a11.55,11.55,0,0,0-1.49,6.88l-2-3.12q3.34-3.09,1.7-8.55-1.82,1.65-2.85,6.24a15.12,15.12,0,0,1-1.13-3.8,9.28,9.28,0,0,0,2.17-8.06,11.84,11.84,0,0,0-2.61,4.31,25.1,25.1,0,0,1,0-5.53,5.06,5.06,0,0,0,1.11-6.86c-2.3,2.56-2.8,4.83-1.64,7.13a22,22,0,0,0-.26,4.3l-3.52-2.5c-.07,3.86,1.24,6.21,3.95,7.06a14.31,14.31,0,0,0,.82,3.08c-.85-.08-1.75-1.32-3.46-1.32h-.12c.43,3.07,2.1,4.76,5,5L17,64.55A21.52,21.52,0,0,0,13.22,64a5.23,5.23,0,0,0,4.86,3.29,6.93,6.93,0,0,0,1.46-.16l2.21,1.77a12.38,12.38,0,0,0-5,.87,5.25,5.25,0,0,0,4.1,2.15,7.65,7.65,0,0,0,4-1.35L27,71.5a13.49,13.49,0,0,0-4.55,2.74,6.15,6.15,0,0,0,2,.36,8.29,8.29,0,0,0,5.45-2.45l2,.81.81-.83Z"/><polygon class="cls-3" points="107.71 32.49 108.14 36.38 111.59 38.22 108.02 39.83 107.33 43.68 104.7 40.79 100.83 41.32 102.76 37.92 101.06 34.41 104.89 35.2 107.71 32.49"/><polygon class="cls-3" points="4.18 32.49 6.85 35.34 10.71 34.76 8.83 38.18 10.58 41.67 6.74 40.94 3.96 43.68 3.47 39.8 0 38 3.54 36.34 4.18 32.49"/><path class="cls-3" d="M105.19,44.7c0,.13,0,.25,0,.38h0A50.44,50.44,0,0,1,90.7,77a49.63,49.63,0,0,1-70.61,0A50.41,50.41,0,0,1,5.65,45.45H4.56c2,26.66,24.29,47.47,50.83,47.47s49-21,50.87-47.84v0c0-.13,0-.24,0-.35Z"/><path class="cls-3" d="M55.25,0A38.08,38.08,0,0,0,19.46,50a36.67,36.67,0,0,0,1.78,4.46,37.55,37.55,0,0,0,69.53-3.69,34.29,34.29,0,0,0,1.08-3.66c.06-.22.11-.43.15-.65h0c.21-.89.38-1.8.51-2.71A38.06,38.06,0,0,0,55.25,0ZM89.51,46.49c-.05.22-.1.45-.17.67a33.49,33.49,0,0,1-1.08,3.44c-.06.15-.11.3-.17.44a33.44,33.44,0,0,1-2,4.28A35.1,35.1,0,0,1,30.3,63.16a35.83,35.83,0,0,1-5.44-7.07c-.33-.56-.64-1.12-.93-1.69a33.6,33.6,0,0,1-1.66-3.73c-.12-.33-.24-.66-.35-1A35.76,35.76,0,0,1,30.3,12.92a35.07,35.07,0,0,1,49.89,0A35.42,35.42,0,0,1,90.51,38a35.9,35.9,0,0,1-.31,4.76A32.85,32.85,0,0,1,89.51,46.49Z"/><path class="cls-3" d="M5.65,45.45H4.56A51.3,51.3,0,0,0,9.17,63.14L10.3,63A50.33,50.33,0,0,1,5.65,45.45Z"/><path class="cls-3" d="M106.28,44.7c0,.11,0,.22,0,.35v0c-1.87,26.84-24.2,47.84-50.87,47.84A50.93,50.93,0,0,1,14,71.47a51.46,51.46,0,0,1-4.85-8.33L10.3,63a51,51,0,0,0,9.79,14A49.58,49.58,0,0,0,90.7,77a50.44,50.44,0,0,0,14.47-31.89h0c0-.13,0-.25,0-.38Z"/><path class="cls-4" d="M101.93,16.23a1.93,1.93,0,0,0-.68-1c0-.07,0-.27-.11-.32a4.22,4.22,0,0,0-.53-.29s.09-.25.21-.66a2.76,2.76,0,0,0-.34-2.19,5.08,5.08,0,0,0-3.55-2.36,6.67,6.67,0,0,0-4.41.5A5.45,5.45,0,0,0,91,11.11a13.67,13.67,0,0,0-2-2.39,21.43,21.43,0,0,0-2.74-2.21,5.21,5.21,0,0,0-.78-.91,1.66,1.66,0,0,0-.68.14l-.7-.23a1.84,1.84,0,0,0-1.5.07c-.4.2-.52.89-.52.89s-.59.32-.79.47a.62.62,0,0,0-.24.68c.08.31.28.27.36.27s.08.25.1.39.07.55.07.55-.15-.11-.85-.54a4.31,4.31,0,0,0-2.34-.63,8.91,8.91,0,0,0-3.09,1c-.67.28-1.85.82-1.85.82l-.08-.15c0-.09-.17-.2-.26-.18a1.53,1.53,0,0,0-.28.15l-.23-.65a1.1,1.1,0,0,0-.65,0,2.08,2.08,0,0,0-1,.52,5.25,5.25,0,0,0-.55.48c-.06.11.22.65.22.65a1.53,1.53,0,0,0-.29.16c-.08.07.07.32.07.32s-.45.17-.81.33L52.16,18.45c-.69.29-1.32.43-1.41.92a12,12,0,0,0,.73,3.05,26.51,26.51,0,0,0,1.67,3.48c.39.65.78,1,1.08,1S57.85,25.44,59,25s5.15-2.11,5.21-2.13.15,0,.18.06a.6.6,0,0,0,.22.23.06.06,0,0,1,0,.1s-.63.11-.95.21-.73.27-.91.34-.45.19-.82.31a6.25,6.25,0,0,0-1.76,1.06c-.37.38-.85.81-1.14,1.15a4.8,4.8,0,0,1-.7.72,2.39,2.39,0,0,0-.46.38c-.09.1-.34.16-.46.3a2.08,2.08,0,0,1-.57.46,1.55,1.55,0,0,0-.5.3.83.83,0,0,1-.31.31,3.32,3.32,0,0,0-.55.38.77.77,0,0,1-.39.16,1.09,1.09,0,0,0-.44.35.4.4,0,0,1-.24.15,1,1,0,0,0-.33.19,4.79,4.79,0,0,1-.47.22,1.37,1.37,0,0,1-.43.19.72.72,0,0,0-.36.23,2.41,2.41,0,0,1-.5.16,9.59,9.59,0,0,0-.9.43,1.11,1.11,0,0,1-.38.06c-.11,0-.19.18-.24.24s-.24,0-.33.05a.49.49,0,0,0-.27.16.11.11,0,0,1-.14,0s-.15,0-.18,0a.2.2,0,0,1-.18,0c-.08,0-.12,0-.17,0s-.09,0-.14.09-.06,0-.09-.11-.1-.05-.13,0-.08,0-.16-.08-.12-.12-.2-.25a.23.23,0,0,0-.24-.09l-.21-.27a12,12,0,0,0-2.15-1.79A13.12,13.12,0,0,0,43,27.91l-2.36-.71L39.85,27a3.08,3.08,0,0,0-.43-.27,1.26,1.26,0,0,0-.7-.13,1,1,0,0,1-.42-.08l-.59-.19s0-.11.08-.43a2.47,2.47,0,0,0,0-.67,1.38,1.38,0,0,0-.11-.24.8.8,0,0,1,.06-.2l-.19-.12-.22-.55a1.34,1.34,0,0,0-.45-.58c-.14-.07-.2.15-.19.25s0,.08,0,.08l-.11-.1s-.08-.06-.19-.29a1,1,0,0,0-.64-.48.88.88,0,0,0-.59.12c0-.05.07-.21.13-.42a.9.9,0,0,0,0-.5c0-.14.06-.39,0-.67a4,4,0,0,0-.57-1.1,2.75,2.75,0,0,1-.31-.65c0-.21-.22-1-.3-1.16s-.22-.12-.25.24A5.67,5.67,0,0,0,34,19.94l-.06.31.18.11s.06.24.15.49a5.57,5.57,0,0,0,.68,1c.15.19.07.3.07.3a1.19,1.19,0,0,0-.23.13.37.37,0,0,1-.16.07.39.39,0,0,0,0-.13c-.05-.11-.12-.08-.4,0s-.86.05-1,.09a2.45,2.45,0,0,1-.37,0,.57.57,0,0,0-.28.14,2.08,2.08,0,0,1-.66.07,4.84,4.84,0,0,0-1,.15c-.16.05-.38.21-.54.25a13.43,13.43,0,0,1-1.42.14c-.45,0-1.46.06-2,.12a8.18,8.18,0,0,0-1,.16l-1.41-.15c-1-.11-3.15-.46-4.15-.59s-4.61-.49-5.87-.56-4.1-.13-5-.12-4.83.21-5.11.21a4,4,0,0,0-1,.21c-.16.06-.25.44-.27.9a3.77,3.77,0,0,0,.56,1.94,8.28,8.28,0,0,1,.9,2A5.62,5.62,0,0,0,4.91,29a2.72,2.72,0,0,0,1.38,1.57c.33.09,2.9.13,3.59.16s2.7,0,4,.06,4.41-.07,5.8-.13a25.71,25.71,0,0,0,3.58-.48c.47-.11,2.44-.69,3.44-.92a16.14,16.14,0,0,1,2.13-.33,13.69,13.69,0,0,0,1.79-.37,7.48,7.48,0,0,1,.84-.2,1.71,1.71,0,0,1,.49.07c.05,0,.06,0,.11.09a.22.22,0,0,0,.13.06s-.06-.11,0-.14.21.06.34.11.5.2.66.26a6.36,6.36,0,0,0,1,.32,6.26,6.26,0,0,1,1.19.43c.28.1.25.17.25.17L35,30a8.6,8.6,0,0,0-1.08.29,30,30,0,0,0-3,1.19c-.55.28-1.13.64-1.13.64s-.81.2-1.65.37-2.25.39-3,.54-3.19.7-3.75.84-2.74.63-3.42.76-2.85.62-3.38.73-2.26.44-2.49.52-.16.25,0,.42a5.72,5.72,0,0,0,1.29.42l.5.08A3.23,3.23,0,0,0,15.1,37c.6,0,3.36-.55,3.8-.65a7.7,7.7,0,0,1,1.62-.2c.16.06,1.93-.24,3.15-.4s3.83-.43,5.11-.56,3.53-.7,4-.81,1.14-.28,1.29-.29,1,0,1.24,0a4.31,4.31,0,0,1,.89.25c.28.09.52.08.65.15a1.62,1.62,0,0,1,.39.72c.06.25.2.17.25,0a2.71,2.71,0,0,0,0-.6l1.21.56a5.2,5.2,0,0,0,.71.26c.15,0,1.25.46,1.38.52a.86.86,0,0,1,.29.19.63.63,0,0,0,.53.17c.17,0,.18,0,.39.09s1.61,1,1.87,1.15,1.35.95,1.79,1.23,1.51.89,1.61,1,.8.56.87.6.26.31.37.4,1,.91,2,1.71,1.78.63,3,.39a33.41,33.41,0,0,0,4.08-1.14c1.22-.43,4.15-1.64,5.22-2.17s2.18-1.4,3.55-2.24a11.12,11.12,0,0,0,2.15-1.58,6,6,0,0,1,2.35-.41c1,0,1.74-.06,1.74-.06a.35.35,0,0,0,.13.14.37.37,0,0,1,.18.19,7.44,7.44,0,0,0,.47.74.68.68,0,0,1,.18.41.26.26,0,0,0,0,.28.43.43,0,0,0,.39.12.72.72,0,0,1,.35.08,1.72,1.72,0,0,0,.46.06s-.16.46-.27.81A4.32,4.32,0,0,1,74,39c-.19.3-.58,1.15-.58,1.15l-.11.35-.06.2s-.12.18-.23.21l-.58.08-.06.11a.35.35,0,0,1-.13,0,.47.47,0,0,0-.33,0,12.27,12.27,0,0,0-.48,2c0,.05.1.22.1.22l0,.11s.33.08.57.12.82.31,1.15.37a.63.63,0,0,0,.49-.08l.12,0s.05,0,.14-.26.37-2,.37-2a.48.48,0,0,1-.24-.19,1,1,0,0,0-.29-.27l.06-.14.2.06s.12-.1.18-.08.24-.21.33-.37l.22-.45.08.2c.06.13.33.1.61-.08a5.38,5.38,0,0,0,.9-1,.67.67,0,0,1,.32-.27.73.73,0,0,0,.25-.21,1.32,1.32,0,0,1,.27,0,.6.6,0,0,0,.42-.08,1.13,1.13,0,0,1,.43-.1,1.41,1.41,0,0,0,.38-.11,1.14,1.14,0,0,1,.53-.1,1.38,1.38,0,0,0,.64-.18c.2-.11,0-.46,0-.61a.77.77,0,0,0-.21-.32c-.07,0-.1,0-.15-.2s-.06-.21.09-.27a5.71,5.71,0,0,0,.59-.38,10.88,10.88,0,0,1,.16,1.33c.08.92.06,2.42.05,2.77S80,43,80,43l0,0s-.11.84-.13.93a.1.1,0,0,0,.08.11s0,.06-.06.06a.28.28,0,0,0-.16.14,3.64,3.64,0,0,0-.16.65c0,.15.16.16.16.16a1.41,1.41,0,0,1-.11.3.77.77,0,0,0-.08.27s-.08.07-.08.07a.17.17,0,0,0-.15.07,3.38,3.38,0,0,0-.14.74,4.14,4.14,0,0,0-.46.08,1.87,1.87,0,0,0-1.21.78A2.05,2.05,0,0,0,77.06,49a4.4,4.4,0,0,0,.37,1,2.93,2.93,0,0,0,2.36,1.89c.25.08.21-.64.24-.78s.09-.19.18-.21a1.84,1.84,0,0,0,.41-.29c.1-.09.14.28.25.52a1.16,1.16,0,0,0,.94.53c.48.05.43-.13.5-.31a.76.76,0,0,0-.06-.55.87.87,0,0,1,0-.5c0-.22-.08-.32,0-.44a3.09,3.09,0,0,0,.07-.35,1.13,1.13,0,0,1,.08-.4.51.51,0,0,0,0-.28.37.37,0,0,1-.28-.07.88.88,0,0,0-.41-.12c-.15,0-.15-.13-.22-.29s-.38-.16-.38-.16a1.21,1.21,0,0,0-.07-.24.68.68,0,0,1-.07-.21s.08-.13,0-.2a1.33,1.33,0,0,1-.11-.42,1,1,0,0,0-.3-.45s0-.1,0-.17,0-.1,0-.17a1.27,1.27,0,0,0,0-.32c0-.06-.15-.14-.15-.14s0-.15,0-.24a.39.39,0,0,0-.05-.23.93.93,0,0,1-.07-.13.57.57,0,0,0,.19-.18,5.89,5.89,0,0,0,0-.68s-.18-.12-.18-.12a.28.28,0,0,1,.09-.11,6.08,6.08,0,0,0,.13-.83c0-.16,0-.17,0-.17s0-.33.15-1.2a24.53,24.53,0,0,0,.11-2.48c0-.08,0-.19,0-.31,0-.59-.06-1.51-.06-1.51a.64.64,0,0,1,.16.07.32.32,0,0,0,.2.08,1,1,0,0,1,.19,0s-.24.59-.34.91a2.64,2.64,0,0,0-.11.4l.83.43c.19.09.32.1.39,0s1.41-2.65,1.56-2.93,0-.34,0-.34l1.17-2.52a1.2,1.2,0,0,1,.35.33c.14.19.37.15.62.2a2.23,2.23,0,0,0,.73.12c.2,0,.2.05.23.1a6.22,6.22,0,0,0,.51.86,4.44,4.44,0,0,0,.85.82c.1.1.07.31.54.5s.59,0,.75-.13.38.12.53.24.35.25.37.2.82-1,.82-1.05-.28-.28-.37-.33,0-.12,0-.16a1.32,1.32,0,0,1,.41.07l0-.07c0-.05.08-.08.21-.07s.06.16.06.16l.17.07v.07s.23.1.23.08,0-.15.09-.12.32,0,.32-.13-.23-.19-.32-.24-.09-.12-.09-.12.19-.14.36-.29a1.62,1.62,0,0,0,.37-.57c0-.13,0-.2.09-.23a.27.27,0,0,0,.12-.29c0-.16-.17-.8-.34-1.4s-.31-.72-.47-.8-.45-.19-.54-.33a3.22,3.22,0,0,0-.27-.34s0-.2.06-.33-.07-.2-.13-.27a.49.49,0,0,1-.1-.22c0-.09,0-.14.11-.17s.08-.15,0-.28A4.79,4.79,0,0,0,91,29a.45.45,0,0,0-.22-.15,1.72,1.72,0,0,0,.07-.2c0-.15.12-.41.2-.69s0-.37,0-.37l.45-.29c.3-.2.54-.31.54-.39s-.14-.12-.14-.12l.09-.24a1.89,1.89,0,0,0,0-.7,3.74,3.74,0,0,0-.29-.68,3,3,0,0,1-.07-.45.76.76,0,0,1,.2-.08.91.91,0,0,1,.26,0,.89.89,0,0,0,.21.28c.11.05.13-.1.17-.3a4,4,0,0,0,0-.58c0-.16,0-1.1,0-1.49s-.58-.56-.58-.56a1.72,1.72,0,0,0,.07-.2.91.91,0,0,0,0-.41c0-.11,0-.18.21-.26l1.12-.53a.51.51,0,0,1,.17.07c.08.06,0,.2.07.39s.31.32.44.43.11.2.21.45a1.51,1.51,0,0,0,.76.65,2.73,2.73,0,0,0,1.26.19,1.69,1.69,0,0,0,.61-.3,5.14,5.14,0,0,1,.78-.4.85.85,0,0,0,.54-.47,1.52,1.52,0,0,0,0-.51,2.25,2.25,0,0,1,.09-.26l.52.24a.68.68,0,0,0,.85-.42.57.57,0,0,0-.14-.61,2.71,2.71,0,0,1-.38-.42c0-.08.08-.33.06-.43a.65.65,0,0,1,0-.28c0-.1-.09-.27-.24-.4s-.62-.31-.63-.36.22-.13.22-.13a3.74,3.74,0,0,0,1.23.52,1.57,1.57,0,0,0,1.66-.76A1.66,1.66,0,0,0,101.93,16.23Z"/></g></g></svg>