<svg xmlns="http://www.w3.org/2000/svg" viewBox="0 0 111.59 104.71"><defs><style>.cls-1{fill:#ff7c96;}.cls-2{fill:#ede9e0;}.cls-3{fill:#324b58;}.cls-4{fill:#b6defa;}</style></defs><g id="Calque_2" data-name="Calque 2"><g id="_ping_pong" data-name="
ping pong"><path class="cls-1" d="M71.45,28.29h0c-.64,0-1.32,0-2-.07a20.42,20.42,0,0,1-6.2-1.6s-.47-.2-1.17-.46a14.81,14.81,0,0,0-5.63-1.35h-1.1a15.74,15.74,0,0,0-6,1.5l-.17.06a22.47,22.47,0,0,1-6.83,1.85c-.7.05-1.37.07-2,.07h0a15.2,15.2,0,0,1-4.74-.63l.07,21.6a.41.41,0,0,1,0,.19l0,0A45.29,45.29,0,0,0,35.8,56a6.33,6.33,0,0,1,.15.64,23.87,23.87,0,0,0,1.64,5.18l0,.1c.13.27.28.57.46.91A27.37,27.37,0,0,0,44.2,70.7l.11.1c1.89,1.87,3.89,3.71,6,5.48a57.75,57.75,0,0,0,5.5,4.36h.11l.66-.49.17-.13c.83-.57,1.92-1.43,3.26-2.57a103.8,103.8,0,0,0,8.85-8.13l0,0A24.27,24.27,0,0,0,72.36,65l0,0a25.18,25.18,0,0,0,1.44-2.52.16.16,0,0,1,0-.09,22,22,0,0,0,2-6.06.17.17,0,0,1,0-.1c.05-.33.08-.65.11-1s0-.67,0-.74v0l.18-26.8a18.42,18.42,0,0,1-3.79.63C72.07,28.29,71.76,28.29,71.45,28.29Z"/><path class="cls-2" d="M97.23,67.25c2.72-.83,4-3.18,4-7l-3.52,2.48a22.83,22.83,0,0,0-.24-4.3c1.16-2.29.67-4.56-1.62-7.13a5,5,0,0,0,1.09,6.86,25.15,25.15,0,0,1,0,5.53,11.62,11.62,0,0,0-2.59-4.31,9.25,9.25,0,0,0,2.14,8.06,15,15,0,0,1-1.15,3.8q-1-4.59-2.82-6.25c-1.12,3.63-.56,6.49,1.67,8.55l-2,3.12a11.51,11.51,0,0,0-1.47-6.89q-3.1,4.53-.28,8.59A9.73,9.73,0,0,1,87,80.72a8,8,0,0,0,.38-6.49Q84,77.91,85.26,81.72a17.05,17.05,0,0,1-4.07,1.43q3-3.21,2.11-5.67c-2.53.93-3.83,2.9-3.9,5.88l-1.7.5.82.83,2-.8A8.27,8.27,0,0,0,86,86.36,6.3,6.3,0,0,0,88,86a13.51,13.51,0,0,0-4.54-2.76l2.15-.89a7.68,7.68,0,0,0,4,1.36,5.25,5.25,0,0,0,4.08-2.14,12.15,12.15,0,0,0-5-.88l2.21-1.77a7.21,7.21,0,0,0,1.49.16,5.22,5.22,0,0,0,4.84-3.26,22.06,22.06,0,0,0-3.8.51L95,74.06c2.9-.29,4.58-2,5-5h-.13c-1.7,0-2.61,1.23-3.46,1.3A13.44,13.44,0,0,0,97.23,67.25Z"/><path class="cls-2" d="M31.05,83.41q-.07-4.47-3.87-5.9-.84,2.46,2.08,5.68a17.21,17.21,0,0,1-4.06-1.44q1.29-3.81-2.13-7.5a8,8,0,0,0,.36,6.49,9.91,9.91,0,0,1-3.37-2.41q2.85-4-.25-8.6a11.59,11.59,0,0,0-1.49,6.89l-2-3.12q3.34-3.09,1.7-8.55-1.82,1.65-2.85,6.24a15.22,15.22,0,0,1-1.13-3.81,9.26,9.26,0,0,0,2.17-8,11.78,11.78,0,0,0-2.61,4.3,25.07,25.07,0,0,1,0-5.53,5,5,0,0,0,1.11-6.85c-2.3,2.56-2.8,4.82-1.64,7.12a22.09,22.09,0,0,0-.26,4.3l-3.52-2.5c-.07,3.86,1.24,6.22,3.95,7.07a14.17,14.17,0,0,0,.82,3.07c-.85-.07-1.75-1.31-3.46-1.31h-.12q.64,4.6,5,5L17,76.34a21.52,21.52,0,0,0-3.81-.53,5.22,5.22,0,0,0,4.86,3.28,7.62,7.62,0,0,0,1.46-.15l2.21,1.77a12.23,12.23,0,0,0-5,.86,5.24,5.24,0,0,0,4.1,2.16,7.65,7.65,0,0,0,4-1.35l2.14.91A13.33,13.33,0,0,0,22.42,86a6.15,6.15,0,0,0,2,.36,8.29,8.29,0,0,0,5.45-2.45l2,.8.81-.83Z"/><polygon class="cls-3" points="107.71 44.28 108.14 48.16 111.59 50.01 108.02 51.62 107.33 55.47 104.7 52.58 100.83 53.11 102.76 49.71 101.06 46.19 104.89 46.98 107.71 44.28"/><polygon class="cls-3" points="4.18 44.27 6.85 47.13 10.71 46.54 8.83 49.97 10.58 53.46 6.74 52.72 3.96 55.47 3.47 51.59 0 49.79 3.54 48.13 4.18 44.27"/><path class="cls-3" d="M105.19,56.49c0,.13,0,.25,0,.38h0A50.44,50.44,0,0,1,90.7,88.77a49.63,49.63,0,0,1-70.61,0A50.41,50.41,0,0,1,5.65,57.24H4.56c2,26.66,24.29,47.47,50.83,47.47s49-21,50.87-47.84v0c0-.13,0-.24,0-.35Z"/><path class="cls-3" d="M55.25,11.79a38.08,38.08,0,0,0-35.79,50,36.67,36.67,0,0,0,1.78,4.46,37.55,37.55,0,0,0,69.53-3.69,34.29,34.29,0,0,0,1.08-3.66c.06-.22.11-.43.15-.65h0c.21-.89.38-1.8.51-2.71a38.06,38.06,0,0,0-37.26-43.7ZM89.51,58.28c-.05.22-.1.45-.17.67a33.49,33.49,0,0,1-1.08,3.44c-.06.15-.11.3-.17.44a33.44,33.44,0,0,1-2,4.28A35.1,35.1,0,0,1,30.3,75a35.83,35.83,0,0,1-5.44-7.07c-.33-.56-.64-1.12-.93-1.69a33.6,33.6,0,0,1-1.66-3.73c-.12-.33-.24-.66-.35-1A35.76,35.76,0,0,1,30.3,24.71a35.07,35.07,0,0,1,49.89,0A35.42,35.42,0,0,1,90.51,49.83a35.9,35.9,0,0,1-.31,4.76A32.85,32.85,0,0,1,89.51,58.28Z"/><path class="cls-3" d="M5.65,57.24H4.56A51.3,51.3,0,0,0,9.17,74.93l1.13-.16A50.33,50.33,0,0,1,5.65,57.24Z"/><path class="cls-3" d="M106.28,56.49c0,.11,0,.22,0,.35v0c-1.87,26.84-24.2,47.84-50.87,47.84A50.93,50.93,0,0,1,14,83.26a51.46,51.46,0,0,1-4.85-8.33l1.13-.16a51,51,0,0,0,9.79,14,49.58,49.58,0,0,0,70.61,0,50.44,50.44,0,0,0,14.47-31.89h0c0-.13,0-.25,0-.38Z"/><path class="cls-4" d="M64.48,0a9.63,9.63,0,0,0-4,1.06c-1.78.57-2.36,2.55-2.76,4.19-.09.38-.22.93-.31,1.23a7.39,7.39,0,0,0-.15,1.78V9.52l-.35.16c-.76.45-.61,1.11-1.15,1.56a6,6,0,0,1-2.25.4c-2.27.23-4.27,1.79-6,3.19a3.24,3.24,0,0,0-1.06,1.24c-.63,1.7-1.54,3.28-2.14,5a2.6,2.6,0,0,1-.19.49,115.37,115.37,0,0,0-4.2,11.08,9.64,9.64,0,0,0-1,4.88A21.85,21.85,0,0,0,38,40.7c-.94,2.14-.55,4.78-.14,7,.6,1.85,1.13,4.08,1.9,5.83.48,2.32,1.47,4.71,2,7a5.43,5.43,0,0,0,.28,1c.14.33.44.69.57.69a3.65,3.65,0,0,1,.82,1.4,6.52,6.52,0,0,0,.26.81,17.92,17.92,0,0,1,.51,3.36,1.82,1.82,0,0,1-.11,1,2,2,0,0,0-.21.54,16.42,16.42,0,0,0-1.73,3.76c-.06.24-.14.57-.2.73a32.8,32.8,0,0,0-.1,5.65c-.34,3.35,1.34,7.9.84,11.27-.31,1.1-.85,0-1,2.51,0,1.09-.12,2.17-.11,3.5a.44.44,0,0,0,.16.38,1,1,0,0,0,.78.5c.87.46,2.05.35,2.82,1,2.47,1.41,5.24,1.15,7.9.73,1.46-.35,1.68-1.7.36-2.6-.38-.17-.63-.56-1-.73-.38-.39-.94-.66-1.35-1-.09,0-.12-.09-.09-.28s0-.34-.28-.59a3.14,3.14,0,0,0-.58-.42,1.13,1.13,0,0,1-.44-.49A9.46,9.46,0,0,0,48,91a2.81,2.81,0,0,0-.54-1.52c-.11-.1-.16-.42-.19-1.14,0-.55,0-1-.07-1.11a23.6,23.6,0,0,1,.23-3.33c.67-2.73.64-6,1.38-8.64a5,5,0,0,0,.2-.83,3.08,3.08,0,0,1,.19-.74,4.37,4.37,0,0,0,.2-.84,3.75,3.75,0,0,1,.19-.83,2.48,2.48,0,0,0,.18-.54c.38-1.35,1.12-2.44,1.21-3.84a2.7,2.7,0,0,0,.19-.83,4.88,4.88,0,0,1,.2-1,10.25,10.25,0,0,0,.23-3.48l-.06-1.77.46,0a1.24,1.24,0,0,0,.53-.15.47.47,0,0,1,.3-.14c.19,0,.25,0,.24.13.26.77,2.9,3,3.28,4.14.13.2.27.36.32.36.26,0,.26,1.89,0,2.2-1.41,3-1,6.79-.92,9.93a12.29,12.29,0,0,1,.12,2.61c0,4.45-.07,5.3-.6,5.8a3,3,0,0,0-.6,1.82c0,.51,0,.68-.14.83s-.17.36-.17.9c0,1.18.94,1.5,2,1.63.4,0,1.88,0,3.29,0,1.57-.06,3.19-.06,4.22,0,1.35,0,4.91.37,5.73-1.15.15-.31.07-.86-.14-.94a.2.2,0,0,1-.14-.16,1,1,0,0,0-.27-.35c-.24-.22-.36-.25-1.2-.28a5.21,5.21,0,0,1-2.48-.5c-1.24-.87-2.24-2.14-3.71-2.61-.29-.12-.53-.35-.79-.48s-.19-.25-.19-.47a1.38,1.38,0,0,0-.15-.52,15.12,15.12,0,0,1,.14-3.5c.12-.46.31-1.28.42-1.82a5.85,5.85,0,0,1,.28-1,27.68,27.68,0,0,0,1.21-6,14.65,14.65,0,0,1,.46-2.11c.05-.11.18-.44.28-.74A7.61,7.61,0,0,1,64,66.47a.87.87,0,0,0,.12-.34c0-.16.11-.47.16-.69A5.34,5.34,0,0,0,64,62.59a2.88,2.88,0,0,1-.25-.59,1.88,1.88,0,0,0-.22-.5c-.33-1.27-.83-2.48-1.1-3.77-1-4.64-3.57-8.65-5.55-12.77-.16-.7.25-1.6-.31-2.15,0,0-.08-.09-.08-.2s0-.19.07-.19A32.39,32.39,0,0,0,59,37a3.66,3.66,0,0,0,1,0c.51,0,1.36-.09,1.88-.1s.9-.05.84-.09a5.37,5.37,0,0,1,1.38,0,.46.46,0,0,1,0,.19c0,.18.15.37.66.82.21.19.28.32.25.47-.7,1.49,1.8,2.59,2.87,3a2.21,2.21,0,0,0,1.62-.11c.19-.18.39-.19.39,0s.57.66.9.78c1.62,1.15,5,.72,5.35-1.73-.11-1.82-1.48-3-2.8-4.12s-2.83-.63-4.56-.64c-.86,0-1.25-.05-1.25-.19s-.14-.15-.32-.26c-1.32-.8-1.53-1.49-3.41-1.92-.76-.34-1.6-.35-2.36-.63-.56-.07-.81-.2-.61-.33a1.47,1.47,0,0,0,.26-.38c.09-.18.2-.32.24-.32a.69.69,0,0,0,.2-.32,1.34,1.34,0,0,1,.23-.38,15.77,15.77,0,0,0,2.83-7.61l.43.1c.24.05.42.13.4.16a8.61,8.61,0,0,0,2.21,2.36A2.08,2.08,0,0,0,69.06,25a3.22,3.22,0,0,1,.81.61.55.55,0,0,0,.3.17,3.33,3.33,0,0,1,1,.64,7.18,7.18,0,0,0,.68.47,5,5,0,0,1,.54.37,2,2,0,0,0,.87.39.32.32,0,0,1,.26.1c1.49.55,4.55-2.37,5.38-3.37.23-.24.53-.58.66-.75.48-.58.85-1.21,1.3-1.82a4.1,4.1,0,0,0,.76-1c.2-.38.61-.61,1-1.09a5,5,0,0,0,1.75-1.56c.27-.28.3-.34.3-1,.26-1,1.08-1.15,1.67-2a1,1,0,0,0,.28-.76c-.38-.27-1,.11-1.62.54a2.73,2.73,0,0,1-.78.31,5.28,5.28,0,0,1-.44-1.27c0-.3-.74-.51-1-.3a1.5,1.5,0,0,0-.34.88c0,.21,0,.24-.27.21s-.76.35-.66.52,0,.09,0,.09-.13.12-.19.27-.11.22-.1.07c0-.53,0-.64-.25-.64-.37,0-.58.36-.67,1.12a4.22,4.22,0,0,0,0,.9,5.76,5.76,0,0,1-1,2,1,1,0,0,0-.26.36c-.45.74-1.51,1-2.18,1.47a5.08,5.08,0,0,1-1.54.71,2,2,0,0,0-.54.19.92.92,0,0,1-1,.05l-.47-.27a1.87,1.87,0,0,1-.69-.76,2.82,2.82,0,0,0-.58-.71,19.05,19.05,0,0,1-3.14-3.56,2.69,2.69,0,0,0-1-.9.62.62,0,0,1,.15-.28A.92.92,0,0,0,68,15a1.3,1.3,0,0,1,.18-.45,7,7,0,0,0,.71-1.26.56.56,0,0,1,.53-.41c.27-.05.39-.12.43-.26.25-.65-.08-1-.23-1.91a1.07,1.07,0,0,0,.15-.5,11,11,0,0,1,1.6-2.11c.35,0,.54-.25.61-.79a4.74,4.74,0,0,0-.18-1.9,2.14,2.14,0,0,1-.2-.58,7.24,7.24,0,0,0-2.8-3.2A15.94,15.94,0,0,0,66.61.39,5.46,5.46,0,0,0,64.48,0ZM75.59,10.44A1.38,1.38,0,1,0,77,11.82a1.38,1.38,0,0,0-1.37-1.38Z"/></g></g></svg>