<svg xmlns="http://www.w3.org/2000/svg" viewBox="0 0 111.59 92.92"><defs><style>.cls-1{fill:#ff7c96;}.cls-2{fill:#ede9e0;}.cls-3{fill:#324b58;}.cls-4{fill:#b6defa;}</style></defs><g id="Calque_2" data-name="Calque 2"><g id="_motocross" data-name="
motocross"><path class="cls-1" d="M71.45,16.51h0c-.64,0-1.32,0-2-.08a20.72,20.72,0,0,1-6.2-1.59s-.47-.21-1.17-.46A14.64,14.64,0,0,0,56.44,13h-.59l-.51,0h0a15.74,15.74,0,0,0-6,1.5l-.17.06a22.47,22.47,0,0,1-6.83,1.85c-.7.05-1.37.08-2,.08h0a15.51,15.51,0,0,1-4.74-.63l.07,21.59a.41.41,0,0,1,0,.19l0,.05a45.24,45.24,0,0,0,.21,6.52,6.66,6.66,0,0,1,.15.65,23.84,23.84,0,0,0,1.64,5.17l0,.1.46.92a27.33,27.33,0,0,0,6.12,7.84l.11.11c1.89,1.86,3.89,3.7,6,5.47a57.75,57.75,0,0,0,5.5,4.36h.11l.66-.49.17-.13A39.83,39.83,0,0,0,60,65.67a103.89,103.89,0,0,0,8.85-8.14l0,0a23.5,23.5,0,0,0,3.51-4.32l0,0a24.11,24.11,0,0,0,1.44-2.52.11.11,0,0,1,0-.08,22.17,22.17,0,0,0,2-6.07.19.19,0,0,1,0-.1c.05-.33.08-.65.11-.95s0-.67,0-.74v0l.18-26.8a19,19,0,0,1-3.79.64Z"/><path class="cls-2" d="M97.23,55.47c2.72-.84,4-3.19,4-7l-3.52,2.49a22.78,22.78,0,0,0-.24-4.3c1.16-2.3.67-4.57-1.62-7.13a5,5,0,0,0,1.09,6.85,25.13,25.13,0,0,1,0,5.53,11.7,11.7,0,0,0-2.59-4.31q-.74,5,2.14,8.06a14.85,14.85,0,0,1-1.15,3.8q-1-4.59-2.82-6.25-1.68,5.46,1.67,8.56l-2,3.11a11.51,11.51,0,0,0-1.47-6.89q-3.1,4.55-.28,8.59A9.73,9.73,0,0,1,87,68.93a8,8,0,0,0,.38-6.49Q84,66.12,85.26,69.93a16.62,16.62,0,0,1-4.07,1.43q3-3.21,2.11-5.67-3.8,1.41-3.9,5.88l-1.7.5.82.83,2-.79A8.3,8.3,0,0,0,86,74.57a6,6,0,0,0,2-.35,13.68,13.68,0,0,0-4.54-2.75l2.15-.9a7.59,7.59,0,0,0,4,1.36,5.22,5.22,0,0,0,4.08-2.14,12.31,12.31,0,0,0-5-.88l2.21-1.76a8,8,0,0,0,1.49.16A5.21,5.21,0,0,0,97.26,64a21.2,21.2,0,0,0-3.8.52L95,62.27c2.9-.28,4.58-2,5-5h-.13c-1.7,0-2.61,1.23-3.46,1.3A13.32,13.32,0,0,0,97.23,55.47Z"/><path class="cls-2" d="M31.05,71.62q-.07-4.47-3.87-5.9c-.56,1.64.13,3.54,2.08,5.68A17.21,17.21,0,0,1,25.2,70q1.29-3.81-2.13-7.5A8,8,0,0,0,23.43,69a9.78,9.78,0,0,1-3.37-2.41q2.85-4-.25-8.59a11.55,11.55,0,0,0-1.49,6.88l-2-3.12q3.34-3.09,1.7-8.55-1.82,1.65-2.85,6.24a15.12,15.12,0,0,1-1.13-3.8,9.28,9.28,0,0,0,2.17-8.06,11.84,11.84,0,0,0-2.61,4.31,25.1,25.1,0,0,1,0-5.53,5.06,5.06,0,0,0,1.11-6.86c-2.3,2.56-2.8,4.83-1.64,7.13a22,22,0,0,0-.26,4.3l-3.52-2.5c-.07,3.86,1.24,6.21,3.95,7.06a14.31,14.31,0,0,0,.82,3.08c-.85-.08-1.75-1.32-3.46-1.32h-.12c.43,3.07,2.1,4.76,5,5L17,64.55A21.52,21.52,0,0,0,13.22,64a5.23,5.23,0,0,0,4.86,3.29,6.93,6.93,0,0,0,1.46-.16l2.21,1.77a12.38,12.38,0,0,0-5,.87,5.25,5.25,0,0,0,4.1,2.15,7.65,7.65,0,0,0,4-1.35L27,71.5a13.49,13.49,0,0,0-4.55,2.74,6.15,6.15,0,0,0,2,.36,8.29,8.29,0,0,0,5.45-2.45l2,.81.81-.83Z"/><polygon class="cls-3" points="107.71 32.49 108.14 36.38 111.59 38.22 108.02 39.83 107.33 43.68 104.7 40.79 100.83 41.32 102.76 37.92 101.06 34.41 104.89 35.2 107.71 32.49"/><polygon class="cls-3" points="4.18 32.49 6.85 35.34 10.71 34.76 8.83 38.18 10.58 41.67 6.74 40.94 3.96 43.68 3.47 39.8 0 38 3.54 36.34 4.18 32.49"/><path class="cls-3" d="M105.19,44.7c0,.13,0,.25,0,.38h0A50.44,50.44,0,0,1,90.7,77a49.63,49.63,0,0,1-70.61,0A50.41,50.41,0,0,1,5.65,45.45H4.56c2,26.66,24.29,47.47,50.83,47.47s49-21,50.87-47.84v0c0-.13,0-.24,0-.35Z"/><path class="cls-3" d="M55.25,0A38.08,38.08,0,0,0,19.46,50a36.67,36.67,0,0,0,1.78,4.46,37.55,37.55,0,0,0,69.53-3.69,34.29,34.29,0,0,0,1.08-3.66c.06-.22.11-.43.15-.65h0c.21-.89.38-1.8.51-2.71A38.06,38.06,0,0,0,55.25,0ZM89.51,46.49c-.05.22-.1.45-.17.67a33.49,33.49,0,0,1-1.08,3.44c-.06.15-.11.3-.17.44a33.44,33.44,0,0,1-2,4.28A35.1,35.1,0,0,1,30.3,63.16a35.83,35.83,0,0,1-5.44-7.07c-.33-.56-.64-1.12-.93-1.69a33.6,33.6,0,0,1-1.66-3.73c-.12-.33-.24-.66-.35-1A35.76,35.76,0,0,1,30.3,12.92a35.07,35.07,0,0,1,49.89,0A35.42,35.42,0,0,1,90.51,38a35.9,35.9,0,0,1-.31,4.76A32.85,32.85,0,0,1,89.51,46.49Z"/><path class="cls-4" d="M94.42,36.37c-.13-.15-1-1-1.15-1s-2-.89-2.63-1.13a41.67,41.67,0,0,0-4.57-1.38,30.81,30.81,0,0,0-5.81-.76A19.2,19.2,0,0,0,77,32.2c-.14,0-1.92-.25-1.92-.25s.67-.75.88-1a10.5,10.5,0,0,0,1.11-2,23.69,23.69,0,0,0,.72-2.61,3.1,3.1,0,0,0,0-1.39c0-.28-.18-.66-.2-.77s.05-.57,0-.71-.11-.52-.11-.65a.49.49,0,0,0-.25-.39,2.81,2.81,0,0,1-.42-.43c-.07-.08,0-.46,0-.52s0-.6,0-.73a5.35,5.35,0,0,0,.06-.91,6,6,0,0,0-1-1.55c-.5-.57-.79-.49-.79-.49a1.29,1.29,0,0,1,0-.26c0-.11-.22-.19-.22-.19A1.15,1.15,0,0,0,75,17a12.34,12.34,0,0,0-.38-1.47,9.61,9.61,0,0,0-.79-1c-.19-.26-.58-1.76-1.13-2.27A4.87,4.87,0,0,0,71,11.35c-.27-.07-1.65-.24-1.77-.24s-.7-.15-.7-.15a.51.51,0,0,1,.12-.18.77.77,0,0,0,.1-.41.33.33,0,0,0-.29-.26,2.15,2.15,0,0,1-.57-.21l.06-.54L68,9.23,68,9.17A5,5,0,0,0,68,8.44a.66.66,0,0,0-.16-.17,1.08,1.08,0,0,0,0-.4,5.4,5.4,0,0,0-.42-1c-.13-.23-.29-.12-.29-.12a2.35,2.35,0,0,0,0-.45.54.54,0,0,0-.27-.14c-.09,0-1.09-.47-1.32-.55s-.22,0-.31,0a4.21,4.21,0,0,1-.82-.21,10.37,10.37,0,0,0-1.51,0l-1.17,0c-.19,0-.51.37-.66.46s-1.39.92-1.62,1.1-1.05.7-1.26.83l-.15.18a4.17,4.17,0,0,1-.41.39,9.27,9.27,0,0,1-.89.7,3,3,0,0,0-.69.52c0,.06.37.16.57.21a.72.72,0,0,0,.45,0c.1-.05.33.06.72.08s1.32,0,1.32,0l.18.61a1.41,1.41,0,0,0,.16.21s.08.5.07.56a1,1,0,0,0-.1.35,2.27,2.27,0,0,0,.39.87s.12-.1.19-.13.12.06.11.09-.56.63-.64.68,0,.43,0,.58.12.23.21.3a10.05,10.05,0,0,1,.42,1.42c.09.3.79.5.79.5s.34.2.48.11,1.39-1.28,1.44-1.31a1.43,1.43,0,0,1,.4,0,.46.46,0,0,1-.14.1,5.37,5.37,0,0,0-.69,1,3.71,3.71,0,0,0-.1,1.17,1.89,1.89,0,0,0,.08.68.21.21,0,0,0,.25,0,5,5,0,0,1,.4-.4s.23.17.23.17-.06.2-.11.41a1.47,1.47,0,0,0,.07.71,3.11,3.11,0,0,1,0,.72,2,2,0,0,0,.17.58c.06.2,0,.55.08.62s.09.13.07.2a.14.14,0,0,1-.12.13c-.08,0-.2.37-.2.37a1.57,1.57,0,0,1-.38-.2,1.53,1.53,0,0,0-.28-.21,1.4,1.4,0,0,0,.23-.26.35.35,0,0,0,.05-.34c0-.07,0-.22.07-.34a.68.68,0,0,0,0-.26,3.2,3.2,0,0,1-.19-.44.32.32,0,0,0-.24-.27c-.09,0-.22,0-.34.19a.31.31,0,0,0,.1.44.55.55,0,0,0,.3,0c.06,0,.08.12.12.26a.79.79,0,0,1-.11.48l-.25.15h-.11a1.67,1.67,0,0,0-.28.49c0,.12-.16.25-.18.31A4.53,4.53,0,0,0,62,22s-.15.27-.17.33a3.22,3.22,0,0,1-.53.5,8.78,8.78,0,0,0-.53.85,1.18,1.18,0,0,1-.25.25c-.08.06-.81.49-.81.49l-.12-.06s0-.08,0-.12a11.46,11.46,0,0,0-1.57.21,8.9,8.9,0,0,0-1.49.39c-.2.07-.85.61-1,.67a.66.66,0,0,1-.29.06c-.07,0-1,0-1.5,0s-.63,0-1.39.06a10.82,10.82,0,0,0-1.77.21.18.18,0,0,0-.14.24c0,.07.25.13.68.45a6.62,6.62,0,0,1,.84.78l-.11.07a4.88,4.88,0,0,1-.43-.24C51.14,27,49.65,26,48.9,25.6A33.5,33.5,0,0,0,45.51,24a13.55,13.55,0,0,0-2-.58c-.41-.07-2.48-.22-2.83-.23a3.25,3.25,0,0,0-1.06.16,8.4,8.4,0,0,0-2,.93,1.11,1.11,0,0,0-.2.56c0,.15.41.28.64.48a4.84,4.84,0,0,0,1.44.79c.39.09,2.2.37,2.63.49s.55.15.76.09a3,3,0,0,1,.78-.1c.15,0,.56.33,1.58.86s3,1.88,3,1.88l-5.08,2.56s-.16-.19-.25-.2a2.06,2.06,0,0,0-.5.2L42,31.5l.06-.24-.68-.48-.14.11-.31-.23.06-.09-.48-.32-.06.07-.21-.13-.16-.09L40,29.77l-.84-.37,0,.21-.41-.19v-.06l-.56-.27-.09.08-.3-.1-.08-.27-.78-.19-.11.18-.46-.1V28.6l-.61-.14-.06.13-.34,0-.09-.21-.92,0-.13.21h-.3l0-.13-.45,0-.09.11h-.23L33,28.3l-1,.12,0,.21-.3,0,0-.08-.55.13v.05l-.24.05-.14-.18-.82.25,0,.19a10,10,0,0,0-.94.36l-.16-.09-.67.3.08.16,0,0a8.54,8.54,0,0,0-.82.5l0,0-.14-.13-.71.6.09.08a9.61,9.61,0,0,0-.82.74l-.14-.11-.45.53.12.1a8.38,8.38,0,0,0-.52.66l-.16,0-.37.76.06,0c-.13.24-.25.48-.36.73l-.15,0-.25.78.11,0a6.77,6.77,0,0,0-.22.77s0,.08,0,.11H23.3l-.09.74h.05a8.22,8.22,0,0,0-.06,1l-.12,0,.06.71h.09a8.89,8.89,0,0,0,.13.88l-.13,0,.17.75h.14c.06.22.13.44.21.65l-.1.06.2.57.13,0c.12.27.25.53.39.79l0,0,.46.8.09,0a8.87,8.87,0,0,0,.59.78.57.57,0,0,0,.08.13l.16.18-.14.09.64.69.16-.1a11.72,11.72,0,0,0,.93.81l-.17.12.92.64.11-.13a12.25,12.25,0,0,0,1.06.62l0,.17,1,.41.07-.1c.32.13.65.24,1,.35l0,.1.76.27.06-.16a11.94,11.94,0,0,0,1.22.21v.15l.94.07v-.14c.35,0,.69,0,1,0l0,.12.73,0v-.1c.33,0,.65-.06,1-.1l0,.12.82-.11,0-.16a7.19,7.19,0,0,0,.8-.2l.06.11.68-.24,0-.1c.23-.08.46-.17.68-.27l0,.06.55-.23v-.09l.53-.29.05.05.52-.28,0-.08.2-.15h0l.31-.22.07,0,.39-.31,0-.05.19-.2.29-.26,0,0,.4-.37-.06-.07c.15-.16.29-.33.43-.51l.06,0,.31-.38-.06-.08c.1-.14.2-.29.29-.44l.09,0,.23-.41-.08-.07c.09-.16.18-.33.25-.49l.05,0,.16-.36,0,0c.06-.16.12-.32.17-.48h.07l.1-.28-.07,0c0-.13.07-.26.1-.39l.06,0,.07-.33-.06,0,.06-.33h.06l0-.28h0l0-.34.07,0v-.29h0c0-.12,0-.25,0-.37h.06l0-.32h-.05l0-.34.06,0,0-.26H45.6c0-.13,0-.26-.06-.39s.06,0,.06,0-.05-.27-.05-.27h-.06l0-.13,0-.15.07,0-.1-.28h-.06a1.33,1.33,0,0,0-.05-.19l0,0-.1-.29,6.51-3.39s0,.19.13.71.13,2.38.12,3.21-.12,1.64-.06,1.87-.2.42-.1,1a3.92,3.92,0,0,0,.41,1.56c.21.17.57,1,.88,1.19s.23.64.38.9a2.88,2.88,0,0,0,.83.73,10.93,10.93,0,0,0,1.88.7c.42.11,3.74,1.18,4.44,1.43a12.28,12.28,0,0,0,1.88.78c.25-.06.07-.43,0-.54s.71-.06.87-.08a4.19,4.19,0,0,1,.56.08c.19,0,.19-.44.3-.41l.18.05a4.68,4.68,0,0,0-.16.54,1.49,1.49,0,0,0,.5,1,1.38,1.38,0,0,0,.84.21l0,.2-.15,0,0,.74.13,0c0,.23,0,.55.09.92l-.21.06.22.73.14,0a5.57,5.57,0,0,0,.28.93l-.1.08.26.59.15-.06a5.18,5.18,0,0,0,.62.75l-.14.13.64.56.11-.1q.32.27.69.54L68.2,54l.67.42L69,54.3c.24.14.49.29.76.42l-.07.12.66.29.06-.1c.24.1.49.2.75.29l0,.16.66.21,0-.16.32.08.37.08,0,.17.76.12v-.15q.45.08.9.12v.16l.83,0V56c.31,0,.63,0,.93,0v.19l.85,0V56c.37,0,.71,0,1-.06v.11l.8-.09,0-.1.88-.14,0,.11.69-.14,0-.13.16-.05.52-.16.06.13.65-.17,0-.19.69-.26.06.1.54-.21,0-.12.6-.26.05.1.51-.24-.06-.1.55-.28,0,.12.49-.27,0-.13.55-.36.06.1.38-.3,0-.08a3.73,3.73,0,0,0,.43-.36l.09.06.32-.32-.05-.1.4-.44.09.09.3-.41-.08-.08c.13-.17.24-.33.35-.49l.1.05.22-.41-.06-.06c.1-.18.19-.36.28-.54l.11,0s.18-.48.18-.48l-.07-.06c.07-.2.14-.4.2-.6l.1,0,.11-.44-.1-.06.06-.28,0-.28.07,0s.14-.44,0-.46l-.1,0a4.36,4.36,0,0,0,0-.51l.1,0s-.11-.47-.11-.47l-.08,0c0-.19-.1-.38-.16-.57l.08-.06-.14-.38-.1,0c-.07-.18-.15-.35-.24-.53l.07,0-.18-.36-.1,0c-.08-.14-.18-.29-.27-.43l.06-.08-.2-.28-.08,0-.32-.41.06-.06L86.92,43l-.06,0a4.83,4.83,0,0,0-.41-.39l.06-.07-.29-.23-.06,0c-.16-.12-.31-.23-.44-.31l0-.1-.37-.18-.07,0-.11,0,.44-.24c.1-.05.31-.23.54-.34s.87-.32.9-.36a4.7,4.7,0,0,0,.24-.89,1.78,1.78,0,0,0,0-.54s-2.47-.89-2.56-.91a1.94,1.94,0,0,0-.4,0c-.1,0-.13.15-.13.15l-1.75.23.33-.35,2.42-.17c.34,0,1.86-.07,3.51-.2a45.11,45.11,0,0,1,4.78.18,10.93,10.93,0,0,0,1-.95,1.89,1.89,0,0,0,.34-.46A3,3,0,0,0,94.42,36.37ZM42.29,37.85a6.33,6.33,0,0,1,.07,1l-1.67-.25ZM39.7,39l.74-.33,1.91.29a5.39,5.39,0,0,1-.1.89l-2.79-.49C39.59,39.19,39.7,39,39.7,39ZM34.44,33.3l.43-1.86a10.21,10.21,0,0,1,1.06.18l.13,0-.76,1.7A4,4,0,0,0,34.44,33.3Zm-1.16,8-.18.28,0-.33Zm2.92-9.56a8.27,8.27,0,0,1,1.13.36l-.52,1.78a5.1,5.1,0,0,0-1.35-.45ZM31,31.93A10,10,0,0,1,32,31.6l1.25,1.85a5.23,5.23,0,0,0-1.53.7Zm.65,2.3-.26.2-1.51-2,.44-.23.21-.09.33-.12Zm.57-2.66.24-.05c.28-.05.57-.08.86-.11l.65,1.91-.32.06-.17,0Zm1.26-.16a7.73,7.73,0,0,1,1.27,0l-.43,1.86-.19,0Zm4,.69a8.58,8.58,0,0,1,1.13.58l-.83,1.74A5.6,5.6,0,0,0,37,33.9Zm-1.83,9.42.7-.16.13,1.12-.91-.94Zm3.09-8.77a8.34,8.34,0,0,1,1.36,1l-1.9,1a3.75,3.75,0,0,0-.3-.26Zm0,7.64a1.06,1.06,0,0,1,.21-.34l.62.62-.93-.18A.45.45,0,0,0,38.69,40.39Zm-9-7.9,1.53,2a2.56,2.56,0,0,0-.28.3l-2.17-1.7A6.83,6.83,0,0,1,29.72,32.49Zm-1,.74L30.88,35l-.05.07-2.91-1A6.9,6.9,0,0,1,28.68,33.23Zm-1.2,1.37c.1-.16.22-.32.34-.48l2.93,1c-.14.23-.23.43-.32.58a3.55,3.55,0,0,0-.34,1.12L27.23,35Zm-.66,1.33c.1-.26.21-.52.34-.78L30,37l-3.23-.87Zm-.18.64c0-.11.05-.22.08-.33l3.34.9c0,.13,0,.26,0,.39l-3.52-.18A7,7,0,0,1,26.64,36.57Zm-.13.93,3.18.16-3.16.81A6.26,6.26,0,0,1,26.51,37.5Zm0,1.12,3.5-.9a3.22,3.22,0,0,0,.68,1.89l-.08,0-3.9,0A6.3,6.3,0,0,1,26.55,38.62Zm.25,1.13,3.42,0-3,1A5.78,5.78,0,0,1,26.8,39.75ZM28,42a8.71,8.71,0,0,1-.7-1l3.36-1.16h.22l0,0Zm.1.12,2.9-2.2.09.09.06.05L28.92,43A7.13,7.13,0,0,1,28.11,42.12Zm1.62,1.48a7.63,7.63,0,0,1-.7-.54l2.24-2.91a6.22,6.22,0,0,0,1.62,1L30,43.75Zm.86.47a3.58,3.58,0,0,1-.48-.24L33,41.23l-.06.58-1.67,2.55Zm.8.35,1.49-2.28-.29,2.72C32.21,44.74,31.81,44.59,31.39,44.42Zm1.35.48.32-3,.37-.56.34.1.33,3.78A7.84,7.84,0,0,1,32.74,44.9Zm1.51.29-.32-3.76a4.92,4.92,0,0,0,1.44.13l.06,3.64A6.64,6.64,0,0,1,34.25,45.19Zm1.33,0-.06-3.48,1,1L36.76,45A8.82,8.82,0,0,1,35.58,45.19ZM36.9,45l-.23-2.06,1.59,1.66C37.78,44.72,37.33,44.85,36.9,45Zm1.92-.66-.41.2-1.77-1.84-.15-1.31h.24L39.36,44C39.19,44.09,39,44.19,38.82,44.3Zm.66-.41-2.55-2.55a1.58,1.58,0,0,0,.35-.06,6.76,6.76,0,0,0,.66-.35l2.34,2.32A6.79,6.79,0,0,1,39.48,43.89Zm.92-.74-2.33-2.31a3.54,3.54,0,0,0,.35-.23l1.29.25,1.44,1.44A7.14,7.14,0,0,1,40.4,43.15Zm.84-1L40,40.92l1.8.35A6.3,6.3,0,0,1,41.24,42.17Zm.84-1.61c-.07.18-.14.37-.23.56l-2.06-.39-.8-.79.2-.23.17-.2,2.86.5a.06.06,0,0,1,0,0A4.77,4.77,0,0,1,42.08,40.56Zm39.81,7.6-1.55-.48-.24-.27a2.55,2.55,0,0,0,.82-.91,2.31,2.31,0,0,0,.1-.28l0,0h.19l2.51.91Zm0,.16.29.09-.51,0Zm-1,.62.28-.16,1.27,1.41-1.5,0a.2.2,0,0,0,0-.15c-.1-.2,0-.38.13-.72C81.06,49.15,81,49,80.86,48.94Zm-.13-.11-.17-.14.46,0h0Zm.35-.33-.54-.6,1.18.36-.37.22Zm-1.1-1,.08.09-.14,0Zm-.22.16.5.15.63.7-.45,0c-.12-.22-.07-.49-.46-.58s-.44-.17-.44-.17Zm-5.53,3.48-.57.16.35-.49A1,1,0,0,1,74.23,51.14ZM72.51,49.6l.73.31-1.51.26.53-.61Zm-1.11-.44.46.18-.65-.11Zm-2.06-.24c0-.26,0-.45.12-.5s.82.3,1.73.66l-.26.1Zm0,.16,1.3.21-1.06.44A2.09,2.09,0,0,1,69.36,49.08Zm.32.78L71,49.34l1.14.19-.59.68-1.33.24A3.12,3.12,0,0,1,69.68,49.86Zm.63.72,1-.19-.51.59A4.88,4.88,0,0,1,70.31,50.58Zm.66.48.61-.71,1.9-.33a.49.49,0,0,1,.18.11c.06.15,0,.46.22.6l-.45.63-1.12.31A7,7,0,0,1,71,51.06Zm2.09.82-.48-.13.71-.2Zm.15,0,.31-.43.78-.22a.71.71,0,0,0,.19.23l.14.07-.44.53C73.84,52.05,73.52,52,73.21,51.92Zm1.16.21.42-.52.44.07,0,.54Zm2.67.12-.32,0c-.49,0-1,0-1.39-.05l0-.52a.69.69,0,0,1,.15.07,2.78,2.78,0,0,0,.68.36c.35.1.69-.15,1-.22h0Zm.18,0,.17-.31A3.3,3.3,0,0,0,78,52v.12Zm.91-.15,0-.1h0c.48-.09.42-.32.7-.42s.9.07,1-.23l.06-.13.32.33A14.5,14.5,0,0,1,78.13,52.08Zm2.32-.62-.39-.4a1,1,0,0,1,.43-.4l.05,0,.66.54Zm.9-.37-.69-.56a1.33,1.33,0,0,0,.2-.22l1.69,0,0,0A10.14,10.14,0,0,1,81.35,51.09Zm1.52-.9h-.25L81.27,48.7l.13-.08,1.19-.09,1.53.48A6.58,6.58,0,0,1,82.87,50.19Zm1.35-1.31L83,48.5l1.55-.11A4.68,4.68,0,0,1,84.22,48.88Zm.48-.83a1.87,1.87,0,0,1-.07.18l-2,.15-.52-.16,1.85-1.08.88.32A1.91,1.91,0,0,1,84.7,48.05Zm.11-.75-.7-.26.55-.32A2.36,2.36,0,0,1,84.81,47.3Zm-.4-1.13c.08.15.14.29.19.41l-.68.4-2.33-.86,2.62-.24A1.37,1.37,0,0,1,84.41,46.17ZM82,44.51a6.73,6.73,0,0,1,2.07,1.23L81.26,46l-.1,0L82,44.52Zm-.87,1.18a2.91,2.91,0,0,0,0-1.09l.61-.06Zm.57-1.3-.6.06-.24-.34S81.23,44.21,81.72,44.39Z"/></g></g></svg>