<svg xmlns="http://www.w3.org/2000/svg" viewBox="0 0 111.59 97.92"><defs><style>.cls-1{fill:#ff7c96;}.cls-2{fill:#ede9e0;}.cls-3{fill:#324b58;}.cls-4{fill:#b6defa;}</style></defs><g id="Calque_2" data-name="Calque 2"><g id="Tennis"><path class="cls-1" d="M71.45,21.5h0c-.64,0-1.32,0-2-.07a20.42,20.42,0,0,1-6.2-1.6s-.47-.2-1.17-.46A14.81,14.81,0,0,0,56.44,18h-1.1a15.92,15.92,0,0,0-6,1.49l-.17.07a22.47,22.47,0,0,1-6.83,1.85c-.7.05-1.37.07-2,.07h0a15.2,15.2,0,0,1-4.74-.63l.07,21.6a.41.41,0,0,1,0,.19l0,.05a45.29,45.29,0,0,0,.21,6.52,6.33,6.33,0,0,1,.15.64,23.87,23.87,0,0,0,1.64,5.18l0,.1c.13.27.28.57.46.91a27.37,27.37,0,0,0,6.12,7.85l.11.1c1.89,1.87,3.89,3.71,6,5.48a57.75,57.75,0,0,0,5.5,4.36h.11l.66-.49.17-.13c.83-.57,1.92-1.43,3.26-2.57a103.8,103.8,0,0,0,8.85-8.13l0,0a24.27,24.27,0,0,0,3.51-4.33l0,0a25.18,25.18,0,0,0,1.44-2.52.16.16,0,0,1,0-.09,22,22,0,0,0,2-6.06.17.17,0,0,1,0-.1c.05-.33.08-.65.11-1s0-.67,0-.74v0l.18-26.8a18.42,18.42,0,0,1-3.79.63C72.07,21.5,71.76,21.5,71.45,21.5Z"/><path class="cls-2" d="M97.23,60.46c2.72-.83,4-3.18,4-7L97.69,55.9a22.83,22.83,0,0,0-.24-4.3c1.16-2.29.67-4.56-1.62-7.13a5,5,0,0,0,1.09,6.86,25.15,25.15,0,0,1,0,5.53,11.62,11.62,0,0,0-2.59-4.31,9.25,9.25,0,0,0,2.14,8.06,15,15,0,0,1-1.15,3.8q-1-4.59-2.82-6.25c-1.12,3.63-.56,6.49,1.67,8.55l-2,3.12a11.51,11.51,0,0,0-1.47-6.89q-3.1,4.53-.28,8.59A9.73,9.73,0,0,1,87,73.93a8,8,0,0,0,.38-6.49Q84,71.12,85.26,74.93a17.05,17.05,0,0,1-4.07,1.43q3-3.21,2.11-5.67c-2.53.93-3.83,2.9-3.9,5.88l-1.7.5.82.83,2-.8A8.27,8.27,0,0,0,86,79.57a6.3,6.3,0,0,0,2-.35,13.51,13.51,0,0,0-4.54-2.76l2.15-.89a7.68,7.68,0,0,0,4,1.36,5.25,5.25,0,0,0,4.08-2.14,12.15,12.15,0,0,0-5-.88l2.21-1.77a7.21,7.21,0,0,0,1.49.16A5.22,5.22,0,0,0,97.26,69a22.06,22.06,0,0,0-3.8.51L95,67.27c2.9-.29,4.58-2,5-5h-.13c-1.7,0-2.61,1.23-3.46,1.3A13.44,13.44,0,0,0,97.23,60.46Z"/><path class="cls-2" d="M31.05,76.62q-.07-4.47-3.87-5.9-.84,2.46,2.08,5.68A17.21,17.21,0,0,1,25.2,75q1.29-3.81-2.13-7.5A8,8,0,0,0,23.43,74a9.91,9.91,0,0,1-3.37-2.41q2.85-4-.25-8.6a11.59,11.59,0,0,0-1.49,6.89l-2-3.13q3.34-3.07,1.7-8.54-1.82,1.65-2.85,6.24a15.22,15.22,0,0,1-1.13-3.81,9.26,9.26,0,0,0,2.17-8.05,11.78,11.78,0,0,0-2.61,4.3,25.07,25.07,0,0,1,0-5.53,5,5,0,0,0,1.11-6.85c-2.3,2.56-2.8,4.82-1.64,7.12a22.09,22.09,0,0,0-.26,4.3l-3.52-2.5c-.07,3.86,1.24,6.22,3.95,7.07a14.17,14.17,0,0,0,.82,3.07c-.85-.07-1.75-1.31-3.46-1.31h-.12q.64,4.6,5,5.05L17,69.55A21.52,21.52,0,0,0,13.22,69a5.22,5.22,0,0,0,4.86,3.28,7.62,7.62,0,0,0,1.46-.15l2.21,1.77a12.23,12.23,0,0,0-5,.86,5.24,5.24,0,0,0,4.1,2.16,7.65,7.65,0,0,0,4-1.35L27,76.5a13.33,13.33,0,0,0-4.55,2.74,6.15,6.15,0,0,0,2,.36,8.29,8.29,0,0,0,5.45-2.45l2,.8.81-.83Z"/><polygon class="cls-3" points="107.71 37.49 108.14 41.37 111.59 43.22 108.02 44.83 107.33 48.68 104.7 45.79 100.83 46.32 102.76 42.92 101.06 39.4 104.89 40.19 107.71 37.49"/><polygon class="cls-3" points="4.18 37.48 6.85 40.34 10.71 39.75 8.83 43.18 10.58 46.67 6.74 45.93 3.96 48.68 3.47 44.8 0 43 3.54 41.34 4.18 37.48"/><path class="cls-3" d="M105.19,49.7c0,.13,0,.25,0,.38h0A50.44,50.44,0,0,1,90.7,82a49.63,49.63,0,0,1-70.61,0A50.41,50.41,0,0,1,5.65,50.45H4.56c2,26.66,24.29,47.47,50.83,47.47s49-21,50.87-47.84v0c0-.13,0-.24,0-.35Z"/><path class="cls-3" d="M55.25,5A38.08,38.08,0,0,0,19.46,55a36.67,36.67,0,0,0,1.78,4.46,37.55,37.55,0,0,0,69.53-3.69,34.29,34.29,0,0,0,1.08-3.66c.06-.22.11-.43.15-.65h0c.21-.89.38-1.8.51-2.71A38.06,38.06,0,0,0,55.25,5ZM89.51,51.49c-.05.22-.1.45-.17.67a33.49,33.49,0,0,1-1.08,3.44c-.06.15-.11.3-.17.44a33.44,33.44,0,0,1-2,4.28A35.1,35.1,0,0,1,30.3,68.16a35.83,35.83,0,0,1-5.44-7.07c-.33-.56-.64-1.12-.93-1.69a33.6,33.6,0,0,1-1.66-3.73c-.12-.33-.24-.66-.35-1A35.76,35.76,0,0,1,30.3,17.92a35.07,35.07,0,0,1,49.89,0A35.42,35.42,0,0,1,90.51,43a35.9,35.9,0,0,1-.31,4.76A32.85,32.85,0,0,1,89.51,51.49Z"/><path class="cls-4" d="M81.38,31.26a7.5,7.5,0,0,0-1.17-6A4.48,4.48,0,0,0,72,27.39a8.12,8.12,0,0,0,2,6.14c.2.17.46.41.74.69l0,.07h0a35.4,35.4,0,0,1,2.43,2.66,11.39,11.39,0,0,1,1.11,2.26,8.41,8.41,0,0,1,.11.91c.06.32.59,2.74.59,2.74a5.1,5.1,0,0,0-.57.72,2.32,2.32,0,0,0-.31.92,7.48,7.48,0,0,1-.24,1.17,9.81,9.81,0,0,1-.82.85,18,18,0,0,1-2.2,1.92,9,9,0,0,0-1.39,1.3,1.25,1.25,0,0,1-.44-.41,12.5,12.5,0,0,1-.67-1.07A18.6,18.6,0,0,1,71,45.93a4.16,4.16,0,0,0-1.25-1.61c-.24-.19-.29-.64-.39-1s-1-.26-1-.47a1.82,1.82,0,0,0-.65-.74c-.23-.14-.5-.76-.7-1s.07-.69,0-1.33S66.8,39,66.8,39a2.18,2.18,0,0,1,.54-.57A12.5,12.5,0,0,0,69.26,37a5.4,5.4,0,0,0,1.12-2.45,3.16,3.16,0,0,0-.84-2.4,6.26,6.26,0,0,0-2.26-1.33,3.44,3.44,0,0,0-1.68-.14c-.18,0-.19.3-.19.3l-.9.43a1.67,1.67,0,0,0-.78.67.76.76,0,0,1-.26.43,5.89,5.89,0,0,1-1.06.2c-.22,0-.36,0-.4.2a2.32,2.32,0,0,0,.07.63,3.41,3.41,0,0,0-.39.33.88.88,0,0,0-.08.39.56.56,0,0,0-.22.15,3.34,3.34,0,0,0-.21.29.25.25,0,0,1-.36,0,7.71,7.71,0,0,1-.7-1.13A6.06,6.06,0,0,0,58.44,32a11.7,11.7,0,0,1-1.36-1c-.26-.28-.39-.25-.39-.25a19.67,19.67,0,0,0-1.77-2.4,4.15,4.15,0,0,1-1.16-1.91,10.23,10.23,0,0,0-1.42-2.56,42.74,42.74,0,0,1-2.8-4.28c-.18-.51-.42-.82-.61-1.28a3,3,0,0,1-.18-1.3,5,5,0,0,0-.12-1.32,6.54,6.54,0,0,0-.57-1.09c-.13-.26-.38-.52-.52-.77s-.25-.4-.41-.34S47,14,47,14.24a11.15,11.15,0,0,0,.5,1.22,8,8,0,0,0-.67-.58,1.7,1.7,0,0,1-.54-.69c-.19-.37-.35-.63-.47-.83s-.54-.8-.65-1a.31.31,0,0,0-.44-.12c-.15.09-.05.35-.05.35s-.17-.22-.32-.2-.3.07-.31.25a4.59,4.59,0,0,0,.35,1v.14c0,.14,0,.66,0,.84a4.44,4.44,0,0,0,.3.85,2,2,0,0,1,0,.44,4.31,4.31,0,0,0,.51,1.37A12,12,0,0,0,46,18.53a3,3,0,0,1,.59.49,3,3,0,0,1,.49,1A10.57,10.57,0,0,0,47.87,22c.36.83,1.43,3.64,1.8,4.5s1,1.51,1.16,1.93a2.23,2.23,0,0,0,.59.83c.13.14.29.51.84,1.42s2.15,3.74,2.15,3.74a2.69,2.69,0,0,0-.12.66c0,.19.27.36.57.54s.27.92.51,1.55A3.78,3.78,0,0,1,55,39.63c-.37.94-1.29,2.78-1.4,3.11s-1.1,1.91-1.79,3.07-2.71,6.22-3,7.09-.47,1.46-.53,1.62.38.14.35.18-.18.42-.26.58l-.47.88A15.45,15.45,0,0,0,47,58.68a43.84,43.84,0,0,0-1.11,4.75,51.28,51.28,0,0,0-.31,5.15,12.75,12.75,0,0,0,.49,2.85A21,21,0,0,1,45.68,75c0,.26.21.27.61.41a7.22,7.22,0,0,0,1.75,0l.12.21c.12.21.77,1.58,1.4,2.53a22.76,22.76,0,0,0,3.91,4,13.12,13.12,0,0,1,2.72,3.15c.11.19,0,.43,0,.62a2.05,2.05,0,0,1-.88.88,10.42,10.42,0,0,1-1.71,1.05,9.67,9.67,0,0,0-2,.46.92.92,0,0,0-.22,1.13c.15.37.69.72,2.16,1.06a8.85,8.85,0,0,0,3.71-.11,6.44,6.44,0,0,1,1.59,0,7.38,7.38,0,0,0,2.81-1c.48-.45.37-.74.32-.89a3.77,3.77,0,0,1-.36-1,8.48,8.48,0,0,0-.52-1.5,2.23,2.23,0,0,0-.62-.64.52.52,0,0,0-.37,0s-.76-.84-1.2-1.44-2.3-3.4-2.77-4.31a18.37,18.37,0,0,0-1.43-3.12A16,16,0,0,0,52,73.89a1.31,1.31,0,0,0-.13-.3,6.05,6.05,0,0,1,.17-1.42c.08-.59.14-1.53.14-1.53a10.66,10.66,0,0,0,.38,1c.17.33.18.86.53,1.64s.49.65.78.61a6,6,0,0,1,1,0s1.1,1,1.76,1.47,1.78,2.09,3,3,3,2.46,3.47,2.89a3.22,3.22,0,0,1,.95,1.35l.13.66a.37.37,0,0,1-.07.18c0,.07-.15.78-.37,1.42s-.73.71-1.18.81-.66.09-1,.41,0,1.1.08,1.16a4.15,4.15,0,0,0,2.18.66,6.49,6.49,0,0,0,2.61-.88c.21-.11.73.27,1.48.09a5.13,5.13,0,0,0,1.92-1.1c.14-.19,0-.55-.13-.73a6,6,0,0,1-.57-1,2.79,2.79,0,0,0-.84-1.08c-.16,0-.23-.41-.49-.49a.32.32,0,0,0-.39.13,3.74,3.74,0,0,1-.23-.46c-.06-.16-.62-.5-1-.94a13.46,13.46,0,0,1-1.35-2.37,22.55,22.55,0,0,0-3.18-4.84,12.79,12.79,0,0,0-2.92-2,6.44,6.44,0,0,1-.76-1c-.18-.37,0-.91,0-1.72a4.8,4.8,0,0,0-.41-2.12c-.28-.54-.2-.49.06-1.28a7.25,7.25,0,0,0,.18-1.93c.09-.59.35-1,.39-1.52a4.82,4.82,0,0,1,.48-1.94,3.48,3.48,0,0,0,.29-1.42,1.5,1.5,0,0,0,0-.68c-.05-.26.25-.62.22-1.1a2.09,2.09,0,0,1,.33-1,7.9,7.9,0,0,1,.72-1.31A9.25,9.25,0,0,0,61,53.82l1.57-1.51A6.2,6.2,0,0,1,64,51.45c.39-.19.45-.55,1-1s1.17-1,1.57-1,.93.52,1.29.68a1.49,1.49,0,0,1,.67.64,1.09,1.09,0,0,0,.65.31l.29.16c.19.11,1.58,1.09,2,1.32s1.51.84,1.8.75a6.1,6.1,0,0,0,1.35-.9,19,19,0,0,0,2.45-2.24c.69-.9,2.23-2.92,2.45-3.07s.25-.39.4-.55a4.63,4.63,0,0,1,.69-.55,2,2,0,0,0,.43-.94c0-.29.15-.56.2-.78s-.16-.49-.16-.49a1.69,1.69,0,0,0,0-.45A.52.52,0,0,0,81,43a1.13,1.13,0,0,0,.06-.51c-.07-.13-.35-.2-.35-.2s.15-.18-.08-.39a.35.35,0,0,0-.46,0s-.44-2.26-.56-2.5a2.49,2.49,0,0,1-.25-.82,14.15,14.15,0,0,1,.48-3.15C80.29,33.53,81,33.31,81.38,31.26ZM79.76,33.8l-.11-.54.34-.07.05.24a.21.21,0,0,0,0,.06A2.34,2.34,0,0,1,79.76,33.8Zm-6.55-2.22s0-.07,0-.11l.49-.1.07.31-.41.1C73.28,31.71,73.25,31.64,73.21,31.58Zm6.08-6.7.12.12,0,.23-.4.09L79,25Zm-6.61,1.56c0-.05,0-.09,0-.13l.32-.07.09.38-.39.08Zm8,5.61-.2,0-.1-.48.4-.09,0,.12A2.77,2.77,0,0,1,80.65,32.05Zm-.33-.6-.11-.51.4-.09.11.51ZM75.4,26.29l.08.37-.25.05-.08-.37Zm-.28-.11L75,25.81l.24-.06.08.38Zm1.26,2.54,0,.17-.28.06,0-.18Zm-.31-.11,0-.22.28-.05,0,.21Zm.91.17,0-.18.23-.06,0,.18Zm.27.11,0,.2-.23.05,0-.2Zm-.43-.08-.24.05,0-.18.24-.05Zm-.37.25,0,.2-.28.06,0-.2Zm.17,0,.23-.05,0,.21-.23,0Zm.31.32,0,.2-.23.05,0-.2Zm.16,0,.24,0,0,.2-.24.05Zm.4-.08.22,0,0,.2-.22,0Zm0-.16,0-.21.21-.05,0,.22Zm-.08-.37,0-.18.21-.05,0,.18Zm-.07-.34,0-.21.22-.05,0,.21Zm-.16,0-.24.05,0-.21.23,0Zm-.4.09-.23.05-.05-.22.24-.05Zm-.31-.33-.05-.2.24-.05,0,.2Zm-.17,0-.27.06,0-.2.28-.06Zm-.44.1-.24.05,0-.2.24-.06Zm0,.16,0,.22-.25.05,0-.22Zm.08.38L76,29l-.24.05,0-.18Zm.07.34,0,.2-.25,0,0-.2Zm.08.36,0,.2-.25.05,0-.2Zm.16,0,.28-.06,0,.2-.28.06Zm.36.3.08.39-.27.06-.09-.39Zm.16,0L77,29.7l.08.39-.23.05Zm.4-.08.23-.05.09.39-.24,0Zm.4-.08.21-.05.09.39-.22,0Zm.38-.08.23-.05.08.39-.23,0Zm0-.16,0-.21.23,0,0,.2ZM77.83,29l0-.21.23-.05,0,.21Zm-.08-.37,0-.18.23-.05,0,.18Zm-.07-.34-.05-.21.24,0,0,.21Zm-.08-.37,0-.21.24-.05,0,.21Zm-.16,0-.22.05,0-.21.21,0Zm-.38.08-.24,0,0-.21.23,0Zm-.32-.32,0-.26.23-.05.06.26Zm-.16,0-.23.05-.06-.27.23-.05Zm-.39.08-.28.06-.06-.27.28-.05Zm-.44.09L75.5,28l-.06-.26.25-.05Zm-.41.09-.25.05,0-.27.24-.05Zm0,.16,0,.2-.25,0,0-.2Zm.08.36,0,.23-.24.05-.05-.23Zm.09.39,0,.18-.24.05,0-.18Zm.07.34,0,.19-.24.05,0-.19Zm.08.35,0,.21-.24.05,0-.21Zm.07.37.09.39-.24,0L75.53,30Zm.17,0,.24-.05.08.39-.24,0Zm.36.5,0,.21-.24.06,0-.22Zm.16,0,.28-.06,0,.21-.27.06Zm.44-.09.24-.05,0,.21-.23.05Zm.4-.08.23,0,0,.2-.24.05Zm.4-.09.21,0,0,.2-.22.05Zm.37-.07.24,0,0,.2-.23.05Zm.4-.09.33-.06,0,.19-.33.07Zm0-.16-.08-.38.33-.07.08.38Zm-.12-.55,0-.2L78.6,29l0,.21Zm-.07-.36,0-.21.34-.08,0,.22Zm-.08-.38,0-.18.34-.07,0,.18Zm-.08-.34,0-.2.34-.08,0,.21ZM78,27.81l0-.2.35-.07,0,.2Zm-.08-.36,0-.27.35-.07.05.26Zm-.16,0-.23.05-.06-.26.23-.05Zm-.39.08-.22.05-.06-.27.22,0Zm-.31-.38L77,27l.22,0,0,.21Zm-.16,0-.24.05,0-.22.23,0Zm-.4.08-.23.05-.05-.21.23-.05Zm-.4.08-.27.06,0-.21.28-.06Zm-.44.1-.24.05,0-.22.25,0Zm-.4.08-.25.05,0-.21.25-.06Zm-.41.09-.3.06-.05-.22.3-.06Zm0,.16.06.26-.3.07-.06-.27Zm.1.42,0,.2-.3.07,0-.2Zm.08.37,0,.22-.31.07-.05-.23Zm.08.38,0,.18-.3.07,0-.18Zm.08.34,0,.2-.3.06,0-.19Zm.07.36,0,.2-.3.06,0-.2Zm.08.36.09.39-.3.06-.09-.39Zm.13.55,0,.21-.3.07,0-.22Zm.16,0,.23,0,.05.21-.24.05Zm.31.32.07.3-.23.05-.07-.3Zm.16,0,.25-.06.06.3-.24.05Zm.35.4.07.33-.25.05-.07-.32Zm.16,0,.28-.06.07.32-.28.06Zm0-.17-.06-.29.28-.06.06.29Zm.38-.38.23-.05.07.29L77,31Zm.4-.09.23,0,.06.29-.23.05Zm.39-.08.22-.05.06.29-.21,0Zm.38-.08.23-.05.06.28-.23.05Zm.4-.08.32-.07.06.27-.32.07Zm.48-.11.34-.07.06.27-.34.08Zm0-.16,0-.2.34-.07,0,.2Zm-.08-.36-.08-.39.34-.07.08.39Zm-.11-.55,0-.2.34-.07,0,.2Zm-.07-.36,0-.22.34-.07,0,.22Zm-.08-.38,0-.18.34-.08,0,.18Zm-.07-.35,0-.2.34-.07,0,.2Zm-.08-.36,0-.21.34-.07,0,.21Zm-.07-.37-.06-.27.34-.07.06.27Zm-.09-.43,0-.2.34-.07,0,.2Zm-.16,0-.36.07,0-.21.35-.07Zm-.52.1-.23.05-.05-.21.23,0Zm-.31-.32-.07-.29.24-.05.06.29Zm-.16,0-.22,0-.06-.29.21-.05Zm-.38.07-.24.05-.06-.28.23-.05Zm-.4.09-.24,0-.06-.28.24-.05ZM76,27l-.28.06-.06-.28.28-.06Zm-.44.09-.24,0-.06-.28.24-.05Zm-.4.08-.25.05L74.86,27l.25-.05Zm-.41.09-.31.06-.06-.27L74.7,27Zm-.47.09-.29.06-.06-.26.29-.06Zm0,.17,0,.21-.29.07,0-.22Zm.08.38.06.26-.29.06L74.12,28Zm.09.42,0,.2-.28.06,0-.2Zm.08.36,0,.23-.27.06-.06-.23Zm.09.39,0,.18-.28.06,0-.18Zm.07.34,0,.19-.27.06,0-.19Zm.08.35,0,.21L74.6,30l0-.2Zm.08.37.08.38-.26.06-.08-.39Zm.12.54,0,.22-.26.06,0-.22Zm.08.38.07.31-.25.05-.07-.3Zm.17,0,.3-.07.06.31-.3.06Zm.4.4.07.32-.3.07-.07-.33Zm.16,0,.23-.05.07.33-.23,0Zm.34.44.1.47-.23.05-.1-.47Zm.16,0,.24-.05.11.48-.25.05Zm.4-.09.28-.06.11.48-.28.06Zm.44-.09.24-.05.1.48-.23.05Zm0-.16-.07-.33.23-.05.07.32Zm.32-.42L77.7,31l.07.33-.24.05Zm.4-.08.22-.05.07.32-.22.05Zm.38-.09.23-.05.07.33-.23.05Zm.39-.08.32-.07L79,31l-.32.07Zm.48-.11.34-.08.07.33-.34.08Zm.5-.11.34-.08.07.33-.34.08Zm0-.16-.06-.27.34-.08.06.27ZM79.49,30l0-.19.34-.07,0,.19Zm-.07-.35-.08-.39.34-.07.08.39Zm-.12-.55,0-.2.34-.07,0,.2Zm-.07-.37,0-.22.34-.07,0,.22Zm-.08-.38,0-.18.34-.07,0,.18ZM79.08,28l0-.2.34-.07,0,.19ZM79,27.6l0-.2.34-.07,0,.2Zm-.07-.37L78.87,27l.34-.07.06.26Zm-.09-.42,0-.21.34-.07,0,.21Zm-.08-.37-.06-.31.34-.07.06.31Zm-.16,0-.34.07-.06-.3.34-.07Zm-.5.11-.36.07-.06-.3.36-.07Zm-.46-.39-.08-.38.37-.08.08.38Zm-.16,0-.23.05-.08-.38.23,0Zm-.39.08-.22.05L76.79,26l.22,0Zm-.38.08-.24.05-.08-.37.24-.05Zm-.4.09-.23.05L76,26.16l.23-.05Zm-.39.08-.28.06-.08-.37.28-.06Zm-.85.19-.25.05-.08-.37.25-.05Zm-.41.09-.3.06-.08-.36.3-.07Zm-.46.1-.3.06-.09-.36.31-.07Zm-.46.09-.33.08-.08-.37.32-.07Zm0,.17.06.26-.32.07-.06-.26Zm.1.42,0,.22-.32.07-.06-.22ZM74,28l.06.26-.32.07-.07-.26Zm.1.43,0,.19-.32.07,0-.2Zm.08.35,0,.24-.32.07-.05-.24Zm.09.4,0,.18-.32.07,0-.18Zm.08.34,0,.18-.32.07,0-.18Zm.08.34,0,.2-.33.07,0-.2Zm.08.37.09.38-.32.07-.09-.39Zm.13.54.05.22-.32.07,0-.22Zm.09.38.07.31-.32.07-.07-.31Zm.11.47.07.33-.32.07-.07-.33Zm.16,0,.25,0,.07.33-.25.05Zm.35.44.11.46-.24.05-.11-.46Zm.16,0,.31-.06.1.46-.3.07Zm.45.56L76,33l-.3.06-.11-.48Zm.16,0,.22,0,.11.49-.23,0Zm.39-.08.24,0,.1.48-.24,0Zm.4-.09.28-.06.1.49-.27.06Zm.44-.09.24,0,.1.49-.23.05Zm.4-.08.23-.05.11.48-.24,0Zm0-.17-.1-.48.23-.05.11.48Zm.3-.57.21,0,.11.49-.22,0Zm.37-.08.23-.05.11.49-.23.05Zm.4-.09.31-.07.1.5-.31.07Zm.47-.1.34-.08.1.51-.33.07Zm.5-.11.34-.08.11.51-.34.07Zm.47-.27-.07-.33.4-.09.07.33Zm-.1-.49L80,30l.4-.09.06.27ZM80,29.86l0-.19.4-.09,0,.19Zm-.07-.36-.08-.38.4-.09.08.39ZM79.8,29l0-.2.4-.08,0,.2Zm-.07-.36,0-.23.4-.08,0,.23Zm-.08-.39,0-.18.4-.09,0,.19Zm-.07-.34,0-.2.4-.08,0,.19Zm-.08-.36,0-.21.4-.08,0,.21Zm-.07-.37-.06-.27.4-.08.06.27Zm-.09-.43,0-.2.4-.08,0,.2Zm-.08-.36L79.2,26l.4-.09.07.31Zm-.09-.48-.08-.38.4-.09.08.39Zm-.16,0-.34.07-.08-.38.34-.08Zm-.5.11-.34.07-.08-.38.34-.08Zm-.46-.47L78,25.16l.34-.07.07.37ZM77.94,25l-.09-.46.34-.07.09.46Zm-.16,0-.37.08-.1-.46.38-.09Zm0,.16.07.37-.36.08-.08-.37Zm-.46.49-.23,0-.08-.37.23-.05Zm-.39.08-.21.05-.08-.37.21-.05Zm-.38.09-.23.05-.08-.37.23-.06Zm-.39.08L76,26l-.08-.38.24-.05Zm-.4.09-.28.06-.08-.37.28-.06Zm-.39-.47-.1-.47.28-.06.1.47Zm-.16,0-.25.06-.1-.47.25-.06Zm-.41.09-.25.06-.11-.47.26-.06Zm0,.16.08.38-.25.05-.09-.37Zm-.34.47-.3.06L74.16,26l.3-.07Zm-.46.1-.3.07-.09-.38L74,26Zm-.46.1-.33.07-.09-.37.33-.07Zm-.46.27.09.36-.39.08-.08-.36Zm.13.52.06.26-.39.08-.06-.26Zm.09.42.05.22-.38.08,0-.22Zm.09.38.06.27-.38.08-.06-.27Zm.1.43.05.19-.39.08,0-.19Zm.08.36.06.23-.39.08,0-.23Zm.1.39,0,.18-.39.08,0-.18Zm.08.34,0,.18-.39.08,0-.18Zm.08.34,0,.2-.38.08,0-.2Zm.08.36.09.39-.39.08-.09-.39Zm.13.55,0,.22-.39.08,0-.22Zm.09.38.07.31-.39.09-.07-.31Zm.11.48.07.32-.38.09-.08-.33Zm.11.48.11.46-.39.08L74,32.3Zm.16,0,.32-.07.1.46-.31.06Zm.46.55.11.48-.31.07-.12-.49Zm.16,0,.24,0,.11.49-.24,0Zm.38.6.14.63-.22,0-.15-.63Zm.17,0,.3-.07.14.63-.31.07Zm.46-.1.22,0,.14.63-.22,0Zm.39-.08.24-.06.14.64-.25.05ZM77,33l.28-.06.14.63-.28.06Zm.44-.09.24,0,.13.63-.23.05Zm.4-.09.23-.05.14.64-.24.05Zm.39-.08.22,0,.14.64-.22,0Zm0-.16-.11-.49.22,0,.11.48Zm.27-.57.24-.05.1.49-.23.05Zm.4-.08.31-.07.1.49-.31.07Zm.47-.1.34-.07.1.48-.34.08Zm.5-.11.34-.07.1.49L80,32.2Zm.47.58.09.43a2.56,2.56,0,0,1-.11.24l-.19,0L80,32.36Zm-.11.85,0,.09v-.07Zm.31-.7,0-.18.12,0Zm.34-1.18-.09-.45.19,0C80.93,30.94,80.9,31.1,80.86,31.26ZM81,30.6l-.24,0-.07-.32.36-.08C81,30.36,81,30.48,81,30.6Zm.07-.53-.41.09,0-.26.48-.1C81.06,29.89,81.06,30,81.05,30.07Zm0-.44-.53.11,0-.19.58-.12A1.34,1.34,0,0,0,81.08,29.63Zm-.6-.24L80.4,29l.67-.14c0,.14,0,.27,0,.4Zm-.11-.55-.05-.2.7-.15,0,.21Zm-.08-.37-.05-.23.7-.15a2,2,0,0,1,0,.24Zm-.08-.39,0-.18.69-.15a1.16,1.16,0,0,1,0,.18Zm-.07-.34,0-.19.66-.14c0,.06,0,.12,0,.18Zm-.07-.36,0-.21.61-.12c0,.07.05.13.07.2ZM80,27l0-.26.51-.11a2.72,2.72,0,0,1,.11.25Zm-.09-.43,0-.2.43-.09.09.19Zm-.07-.36-.07-.32.28-.06.17.3Zm-.1-.48-.08-.39h0l.24.36Zm-.84-.39-.34.08-.07-.38.34-.07Zm-.44-.46-.1-.46.29-.06.06,0,.08.42Zm-.13-.62,0-.09.13.07Zm-.16,0-.34.08L77.73,24l.38.13Zm-.51.11-.37.08-.14-.65.41.08Zm-.53.12-.24,0-.16-.78.24,0Zm0,.16.1.46L77,25.2l-.1-.46Zm-.29.55-.22.05-.1-.47.22,0Zm-.38.08-.24.05-.1-.46.24-.05Zm-.4.09-.23.05-.1-.47.23,0Zm-.37-.58-.2-.93.24,0,.2.92Zm-.16,0-.28.06L75.08,24l.27-.09Zm-.44.09-.24.05-.18-.8.24-.11Zm-.4.09-.26.05-.15-.68.24-.14Zm-.42.09L74,25.2l-.1-.49.27-.2Zm0,.16.11.47-.31.07-.1-.47Zm-.36.57-.31.07-.11-.47.32-.07Zm-.47.11-.33.07-.1-.44,0,0,.29-.07Zm-.26-.61.09-.12,0,.09Zm-.23.71-.2.05a2.92,2.92,0,0,1,.14-.31Zm-.45.84.07,0,.08.36-.23,0C72.49,27.18,72.52,27.05,72.55,26.92Zm-.11.56.3-.06.06.25-.39.08Zm.4.35,0,.23-.5.1a1.93,1.93,0,0,1,0-.24Zm.09.39.06.26-.59.13a2.72,2.72,0,0,1,0-.28Zm.09.42,0,.2-.64.13a1.36,1.36,0,0,1,0-.2Zm-.57.5.66-.14,0,.24-.67.14A2,2,0,0,1,72.45,29.14Zm.75.26,0,.18-.68.15a1.16,1.16,0,0,1,0-.18Zm-.61.49.69-.15,0,.17-.68.15C72.62,30,72.61,29.94,72.59,29.89Zm.77.19,0,.2-.66.13-.06-.19Zm.08.36.09.38-.59.13c0-.13-.1-.25-.14-.38Zm.13.54.05.23-.52.11a2.14,2.14,0,0,1-.1-.22Zm.2.87.08.32-.26.06c-.07-.1-.13-.2-.19-.3Zm.11.48.1.41c-.1-.12-.19-.24-.28-.37Zm.31.58.38-.08.12.48-.15,0c-.11-.1-.22-.22-.33-.34Zm.53.56v.05l0,0Zm.23.23-.07-.26.32-.07.15.63h0C75.2,33.91,75.07,33.81,75,33.7Zm.59.43.23-.05,0,.26-.27-.18Zm.39-.08.3-.07.15.66a3.13,3.13,0,0,1-.36-.19Zm.46-.1.22-.05.2.93-.24-.1Zm.61.94-.22-1,.24,0L77.26,35l-.16,0Zm.44.08-.26-1.19.28-.06L77.73,35Zm.45,0-.27-1.24.24,0,.26,1.24Zm.39-.1L78,33.61l.23,0,.26,1.18Zm.38-.17-.24-1.14.21,0,.23,1.07Zm.35-.2-.22-1,.24,0,.19.92Zm-.25-1.18-.14-.63.23,0,.14.63Zm.26-.71.3-.07.13.64-.3.06Zm.46-.1.34-.07L80,33l-.34.07Zm-.34-7.73-.19,0-.06-.24.11.07Zm-2.59-.94.17.81-.21.05-.19-.86Zm-.4,0,.19.89-.23.05-.2-.92Zm-2.42,1,.09.41-.31.07-.05-.22Zm5.35,11.36c-.1.51-.18,1.24-.22,1.5s0,.41-.17.41-.31-.16-.44-.45a15.24,15.24,0,0,0-.92-1.59c-.32-.48-.66-.46-.58-.68s.53,0,1,0A2.27,2.27,0,0,0,79,35c.18-.17.32-.18.37-.1A11.24,11.24,0,0,1,79.08,36.19Zm.29-2-.18-.83.29-.06.14.65Z"/><path class="cls-4" d="M50,1.48A1.48,1.48,0,1,1,48.51,0,1.49,1.49,0,0,1,50,1.48Z"/></g></g></svg>