<svg xmlns="http://www.w3.org/2000/svg" viewBox="0 0 111.59 92.92"><defs><style>.cls-1{fill:#ff7c96;}.cls-2{fill:#ede9e0;}.cls-3{fill:#324b58;}.cls-4{fill:#b6defa;}</style></defs><g id="Calque_2" data-name="Calque 2"><g id="_running" data-name="
running"><path class="cls-1" d="M71.45,16.51h0c-.64,0-1.32,0-2-.08a20.72,20.72,0,0,1-6.2-1.59s-.47-.21-1.17-.46A14.64,14.64,0,0,0,56.44,13h-.59l-.51,0h0a15.74,15.74,0,0,0-6,1.5l-.17.06a22.47,22.47,0,0,1-6.83,1.85c-.7.05-1.37.08-2,.08h0a15.51,15.51,0,0,1-4.74-.63l.07,21.59a.41.41,0,0,1,0,.19l0,.05a45.24,45.24,0,0,0,.21,6.52,6.66,6.66,0,0,1,.15.65,23.84,23.84,0,0,0,1.64,5.17l0,.1.46.92a27.33,27.33,0,0,0,6.12,7.84l.11.11c1.89,1.86,3.89,3.7,6,5.47a57.75,57.75,0,0,0,5.5,4.36h.11l.66-.49.17-.13A39.83,39.83,0,0,0,60,65.67a103.89,103.89,0,0,0,8.85-8.14l0,0a23.5,23.5,0,0,0,3.51-4.32l0,0a24.11,24.11,0,0,0,1.44-2.52.11.11,0,0,1,0-.08,22.17,22.17,0,0,0,2-6.07.19.19,0,0,1,0-.1c.05-.33.08-.65.11-.95s0-.67,0-.74v0l.18-26.8a19,19,0,0,1-3.79.64Z"/><path class="cls-2" d="M97.23,55.47c2.72-.84,4-3.19,4-7l-3.52,2.49a22.78,22.78,0,0,0-.24-4.3c1.16-2.3.67-4.57-1.62-7.13a5,5,0,0,0,1.09,6.85,25.13,25.13,0,0,1,0,5.53,11.7,11.7,0,0,0-2.59-4.31q-.74,5,2.14,8.06a14.85,14.85,0,0,1-1.15,3.8q-1-4.59-2.82-6.25-1.68,5.46,1.67,8.56l-2,3.11a11.51,11.51,0,0,0-1.47-6.89q-3.1,4.55-.28,8.59A9.73,9.73,0,0,1,87,68.93a8,8,0,0,0,.38-6.49Q84,66.12,85.26,69.93a16.62,16.62,0,0,1-4.07,1.43q3-3.21,2.11-5.67-3.8,1.41-3.9,5.88l-1.7.5.82.83,2-.79A8.3,8.3,0,0,0,86,74.57a6,6,0,0,0,2-.35,13.68,13.68,0,0,0-4.54-2.75l2.15-.9a7.59,7.59,0,0,0,4,1.36,5.22,5.22,0,0,0,4.08-2.14,12.31,12.31,0,0,0-5-.88l2.21-1.76a8,8,0,0,0,1.49.16A5.21,5.21,0,0,0,97.26,64a21.2,21.2,0,0,0-3.8.52L95,62.27c2.9-.28,4.58-2,5-5h-.13c-1.7,0-2.61,1.23-3.46,1.3A13.32,13.32,0,0,0,97.23,55.47Z"/><path class="cls-2" d="M31.05,71.62q-.07-4.47-3.87-5.9c-.56,1.64.13,3.54,2.08,5.68A17.21,17.21,0,0,1,25.2,70q1.29-3.81-2.13-7.5A8,8,0,0,0,23.43,69a9.78,9.78,0,0,1-3.37-2.41q2.85-4-.25-8.59a11.55,11.55,0,0,0-1.49,6.88l-2-3.12q3.34-3.09,1.7-8.55-1.82,1.65-2.85,6.24a15.12,15.12,0,0,1-1.13-3.8,9.28,9.28,0,0,0,2.17-8.06,11.84,11.84,0,0,0-2.61,4.31,25.1,25.1,0,0,1,0-5.53,5.06,5.06,0,0,0,1.11-6.86c-2.3,2.56-2.8,4.83-1.64,7.13a22,22,0,0,0-.26,4.3l-3.52-2.5c-.07,3.86,1.24,6.21,3.95,7.06a14.31,14.31,0,0,0,.82,3.08c-.85-.08-1.75-1.32-3.46-1.32h-.12c.43,3.07,2.1,4.76,5,5L17,64.55A21.52,21.52,0,0,0,13.22,64a5.23,5.23,0,0,0,4.86,3.29,6.93,6.93,0,0,0,1.46-.16l2.21,1.77a12.38,12.38,0,0,0-5,.87,5.25,5.25,0,0,0,4.1,2.15,7.65,7.65,0,0,0,4-1.35L27,71.5a13.49,13.49,0,0,0-4.55,2.74,6.15,6.15,0,0,0,2,.36,8.29,8.29,0,0,0,5.45-2.45l2,.81.81-.83Z"/><polygon class="cls-3" points="107.71 32.49 108.14 36.38 111.59 38.22 108.02 39.83 107.33 43.68 104.7 40.79 100.83 41.32 102.76 37.92 101.06 34.41 104.89 35.2 107.71 32.49"/><polygon class="cls-3" points="4.18 32.49 6.85 35.34 10.71 34.76 8.83 38.18 10.58 41.67 6.74 40.94 3.96 43.68 3.47 39.8 0 38 3.54 36.34 4.18 32.49"/><path class="cls-3" d="M105.19,44.7c0,.13,0,.25,0,.38h0A50.44,50.44,0,0,1,90.7,77a49.63,49.63,0,0,1-70.61,0A50.41,50.41,0,0,1,5.65,45.45H4.56c2,26.66,24.29,47.47,50.83,47.47s49-21,50.87-47.84v0c0-.13,0-.24,0-.35Z"/><path class="cls-3" d="M55.25,0A38.08,38.08,0,0,0,19.46,50a36.67,36.67,0,0,0,1.78,4.46,37.55,37.55,0,0,0,69.53-3.69,34.29,34.29,0,0,0,1.08-3.66c.06-.22.11-.43.15-.65h0c.21-.89.38-1.8.51-2.71A38.06,38.06,0,0,0,55.25,0ZM89.51,46.49c-.05.22-.1.45-.17.67a33.49,33.49,0,0,1-1.08,3.44c-.06.15-.11.3-.17.44a33.44,33.44,0,0,1-2,4.28A35.1,35.1,0,0,1,30.3,63.16a35.83,35.83,0,0,1-5.44-7.07c-.33-.56-.64-1.12-.93-1.69a33.6,33.6,0,0,1-1.66-3.73c-.12-.33-.24-.66-.35-1A35.76,35.76,0,0,1,30.3,12.92a35.07,35.07,0,0,1,49.89,0A35.42,35.42,0,0,1,90.51,38a35.9,35.9,0,0,1-.31,4.76A32.85,32.85,0,0,1,89.51,46.49Z"/><path class="cls-4" d="M44.12,28.86a8,8,0,0,1,.57,2.94,7.92,7.92,0,0,1,1.18.44,6.82,6.82,0,0,0-.18-2,12.17,12.17,0,0,1,0-5.94s.12-1.82,1.25-2.38a2.68,2.68,0,0,1-.88-.81,1.3,1.3,0,0,0-.94-.5s-1.43-.32-1.25-.94c0,0,.19,0,.07-.5,0,0-.28-.4.06-.56,0,0,.64,0,0-.61a.69.69,0,0,1-.32-.66s.17-.44-.15-.46c0,0-1-.15-.41-.94l.71-.77a.59.59,0,0,0,.12-.65,1.05,1.05,0,0,1,.32-1.19.81.81,0,0,0,.18-.79s-.94-1.83,3-1.67c0,0,5.72,0,5.86,3a5,5,0,0,1-1,3.55s-.94,1.23,0,1.77c0,0,.79.92,1.23.92a1.69,1.69,0,0,1,1.21.48,8.34,8.34,0,0,0,2,1.39,4.87,4.87,0,0,1,1.93,2.36,4.87,4.87,0,0,0,1.27,1.44,14.4,14.4,0,0,1,3.8,4.67s1.63,2.31-.39,2.73c0,0-1.13.25-2.34.56a10,10,0,0,1-2.65.44s-.75-.23-.62,1a5.58,5.58,0,0,0,.2,2.52s2.78,6.55,2.78,7.57c0,0,.71,3,.33,3.5,0,0-.25.5,0,.69a1.43,1.43,0,0,1,.38,1.11,1,1,0,0,0,.33.91s1.86,2.42.25,3.82A40.06,40.06,0,0,0,63.28,60a1.86,1.86,0,0,0,1.27,1.39s4.57,1,7.13,4.06a43.5,43.5,0,0,0,4.89,3.82,11.42,11.42,0,0,1,4-.15s.94-.27,1.25.42-.15,3.44-.15,3.44-.06,1.06-.39,1.14c0,0-.42-.06-.23.59a5.87,5.87,0,0,1-.42,4.15s-.81,2.1-2.5,2.35c0,0-1,.13-1.06-1.14a4.41,4.41,0,0,0-.32-3.73,8,8,0,0,0-1.56-1.94A.93.93,0,0,1,75,73a12.18,12.18,0,0,0-4.66-3.21,38.22,38.22,0,0,1-6.17-3,9.28,9.28,0,0,0-2.8-1.11,5,5,0,0,1-3.5-2.81l-4.4-6.77s-.18-.86-.71-.3a58.92,58.92,0,0,0-4.4,5,1.54,1.54,0,0,0-.48,1.62s.48,4.94-1.06,7.61c0,0-3,7-2.85,8.57,0,0,.39.08.29.73,0,0,0,2.29-.44,2.73,0,0-.19.23-.12.41,0,0,.25.92-.51.91l-3.62-1s-.67-.14-.71-.56a11.17,11.17,0,0,1-5-2.06s-1.94-1.65-1.06-2.67c0,0,.69-.42,2,.35a6.59,6.59,0,0,0,4-.54s1-1.37,1.63-.81c0,0,1-.19,1.75-4.76,0,0,.31-6,1-8a2.58,2.58,0,0,0-.23-1.73s-1.12-2.39.59-3.92c0,0,2.23-3.9,2.48-5.67a2.59,2.59,0,0,1,.37-3.13s.25-.06.5-.62a1,1,0,0,1,1.07-1.13,2.52,2.52,0,0,1,1-1.43s.5,0,.06-1.5a33,33,0,0,1-.56-4.89S47,39,46.75,36.62a11.77,11.77,0,0,0-3.06-2.13,6.09,6.09,0,0,0-1.26-.31s-2.06-.63-1.81-1.57c0,0-.32-.68.06-1.06,0,0,0-.69.5-.75,0,0-.06-.87,1.19-1.06,0,0,1.32,1,1.06-.69C43.43,29.05,43.56,28.36,44.12,28.86Zm13.69,1.69c.32.5,1-.12,1-.12C57.25,29.11,57.81,30.55,57.81,30.55Z"/><path class="cls-4" d="M57.81,30.55s-.56-1.44,1-.12C58.81,30.43,58.13,31.05,57.81,30.55Z"/><path class="cls-4" d="M46,52a2.59,2.59,0,0,1,.37-3.13s.25-.06.5-.62a1,1,0,0,1,1.07-1.13,2.52,2.52,0,0,1,1-1.43s.5,0,.06-1.5a33,33,0,0,1-.56-4.89S47,39,46.75,36.62a11.77,11.77,0,0,0-3.06-2.13,6.09,6.09,0,0,0-1.26-.31s-2.06-.63-1.81-1.57c0,0-.32-.68.06-1.06,0,0,0-.69.5-.75,0,0-.06-.87,1.19-1.06,0,0,1.32,1,1.06-.69,0,0,.13-.69.69-.19a8,8,0,0,1,.57,2.94,7.92,7.92,0,0,1,1.18.44,6.82,6.82,0,0,0-.18-2,12.17,12.17,0,0,1,0-5.94s.12-1.82,1.25-2.38a2.68,2.68,0,0,1-.88-.81,1.3,1.3,0,0,0-.94-.5s-1.43-.32-1.25-.94c0,0,.19,0,.07-.5,0,0-.28-.4.06-.56,0,0,.64,0,0-.61a.69.69,0,0,1-.32-.66s.17-.44-.15-.46c0,0-1-.15-.41-.94l.71-.77a.59.59,0,0,0,.12-.65,1.05,1.05,0,0,1,.32-1.19.81.81,0,0,0,.18-.79s-.94-1.83,3-1.67c0,0,5.72,0,5.86,3a5,5,0,0,1-1,3.55s-.94,1.23,0,1.77c0,0,.79.92,1.23.92a1.69,1.69,0,0,1,1.21.48,8.34,8.34,0,0,0,2,1.39,4.87,4.87,0,0,1,1.93,2.36,4.87,4.87,0,0,0,1.27,1.44,14.4,14.4,0,0,1,3.8,4.67s1.63,2.31-.39,2.73c0,0-1.13.25-2.34.56a10,10,0,0,1-2.65.44s-.75-.23-.62,1a5.58,5.58,0,0,0,.2,2.52s2.78,6.55,2.78,7.57c0,0,.71,3,.33,3.5,0,0-.25.5,0,.69a1.43,1.43,0,0,1,.38,1.11,1,1,0,0,0,.33.91s1.86,2.42.25,3.82A40.06,40.06,0,0,0,63.28,60a1.86,1.86,0,0,0,1.27,1.39s4.57,1,7.13,4.06a43.5,43.5,0,0,0,4.89,3.82,11.42,11.42,0,0,1,4-.15s.94-.27,1.25.42-.15,3.44-.15,3.44-.06,1.06-.39,1.14c0,0-.42-.06-.23.59a5.87,5.87,0,0,1-.42,4.15s-.81,2.1-2.5,2.35c0,0-1,.13-1.06-1.14a4.41,4.41,0,0,0-.32-3.73,8,8,0,0,0-1.56-1.94A.93.93,0,0,1,75,73a12.18,12.18,0,0,0-4.66-3.21,38.22,38.22,0,0,1-6.17-3,9.28,9.28,0,0,0-2.8-1.11,5,5,0,0,1-3.5-2.81l-4.4-6.77s-.18-.86-.71-.3a58.92,58.92,0,0,0-4.4,5,1.54,1.54,0,0,0-.48,1.62s.48,4.94-1.06,7.61c0,0-3,7-2.85,8.57,0,0,.39.08.29.73,0,0,0,2.29-.44,2.73,0,0-.19.23-.12.41,0,0,.25.92-.51.91l-3.62-1s-.67-.14-.71-.56a11.17,11.17,0,0,1-5-2.06s-1.94-1.65-1.06-2.67c0,0,.69-.42,2,.35a6.59,6.59,0,0,0,4-.54s1-1.37,1.63-.81c0,0,1-.19,1.75-4.76,0,0,.31-6,1-8a2.58,2.58,0,0,0-.23-1.73s-1.12-2.39.59-3.92C43.52,57.67,45.75,53.77,46,52Z"/></g></g></svg>