<svg xmlns="http://www.w3.org/2000/svg" viewBox="0 0 111.59 112.34"><defs><style>.cls-1{fill:#ff7c96;}.cls-2{fill:#ede9e0;}.cls-3{fill:#324b58;}.cls-4{fill:#b6defa;}</style></defs><g id="Calque_2" data-name="Calque 2"><g id="babington"><path class="cls-1" d="M71.45,35.92h0c-.64,0-1.32,0-2-.07a20.42,20.42,0,0,1-6.2-1.6s-.47-.2-1.17-.46a14.81,14.81,0,0,0-5.63-1.35h-1.1a15.74,15.74,0,0,0-6,1.5l-.17.06a22.47,22.47,0,0,1-6.83,1.85c-.7,0-1.37.07-2,.07h0a15.2,15.2,0,0,1-4.74-.63l.07,21.6a.41.41,0,0,1,0,.19l0,.05a45.29,45.29,0,0,0,.21,6.52c.05.15.09.36.15.64a23.87,23.87,0,0,0,1.64,5.18l0,.1c.13.27.28.57.46.91a27.37,27.37,0,0,0,6.12,7.85l.11.1c1.89,1.87,3.89,3.71,6,5.48a57.75,57.75,0,0,0,5.5,4.36h.11l.66-.49.17-.13c.83-.57,1.92-1.43,3.26-2.57A103.8,103.8,0,0,0,68.83,77l0,0a24.4,24.4,0,0,0,3.51-4.32l0,0A25.18,25.18,0,0,0,73.83,70a.16.16,0,0,1,0-.09,22,22,0,0,0,2-6.06.19.19,0,0,1,0-.1c.05-.33.08-.65.11-1s0-.67,0-.73v0l.18-26.8a18.42,18.42,0,0,1-3.79.63C72.07,35.92,71.76,35.92,71.45,35.92Z"/><path class="cls-2" d="M97.23,74.88c2.72-.83,4-3.18,4-7l-3.52,2.48a22.83,22.83,0,0,0-.24-4.3c1.16-2.29.67-4.56-1.62-7.13a5,5,0,0,0,1.09,6.86,25.15,25.15,0,0,1,0,5.53A11.62,11.62,0,0,0,94.31,67,9.25,9.25,0,0,0,96.45,75a14.85,14.85,0,0,1-1.15,3.8q-1-4.59-2.82-6.25c-1.12,3.63-.56,6.49,1.67,8.55l-2,3.12a11.51,11.51,0,0,0-1.47-6.89q-3.1,4.55-.28,8.59A9.73,9.73,0,0,1,87,88.35a8,8,0,0,0,.38-6.49Q84,85.54,85.26,89.35a17.05,17.05,0,0,1-4.07,1.43q3-3.21,2.11-5.67C80.77,86,79.47,88,79.4,91l-1.7.5.82.83,2-.8A8.27,8.27,0,0,0,86,94a6,6,0,0,0,2-.35,13.67,13.67,0,0,0-4.54-2.76L85.64,90a7.68,7.68,0,0,0,4,1.36,5.25,5.25,0,0,0,4.08-2.14,12.15,12.15,0,0,0-5-.88l2.21-1.76a7.92,7.92,0,0,0,1.49.15,5.22,5.22,0,0,0,4.84-3.26,22.06,22.06,0,0,0-3.8.51L95,81.69c2.9-.29,4.58-2,5-5h-.13c-1.7,0-2.61,1.23-3.46,1.3A13.44,13.44,0,0,0,97.23,74.88Z"/><path class="cls-2" d="M31.05,91q-.07-4.47-3.87-5.9-.84,2.46,2.08,5.68a17.21,17.21,0,0,1-4.06-1.44q1.29-3.81-2.13-7.5a8,8,0,0,0,.36,6.49A9.91,9.91,0,0,1,20.06,86q2.85-4-.25-8.6a11.59,11.59,0,0,0-1.49,6.89l-2-3.12q3.34-3.09,1.7-8.55-1.82,1.65-2.85,6.24A15.22,15.22,0,0,1,14.07,75,9.25,9.25,0,0,0,16.24,67a11.78,11.78,0,0,0-2.61,4.3,25.07,25.07,0,0,1,0-5.53,5,5,0,0,0,1.11-6.85C12.45,61.44,12,63.7,13.11,66a22.09,22.09,0,0,0-.26,4.3L9.33,67.8c-.07,3.86,1.24,6.22,3.95,7.07a14.17,14.17,0,0,0,.82,3.07c-.85-.07-1.75-1.31-3.46-1.31h-.12q.64,4.61,5,5.05L17,84a21.52,21.52,0,0,0-3.81-.53,5.22,5.22,0,0,0,4.86,3.28,7.62,7.62,0,0,0,1.46-.15l2.21,1.77a12,12,0,0,0-5,.87,5.25,5.25,0,0,0,4.1,2.15,7.65,7.65,0,0,0,4-1.35l2.14.91a13.33,13.33,0,0,0-4.55,2.74,6.15,6.15,0,0,0,2,.36,8.29,8.29,0,0,0,5.45-2.45l2,.8.81-.83Z"/><polygon class="cls-3" points="107.71 51.91 108.14 55.79 111.59 57.64 108.02 59.25 107.33 63.1 104.7 60.21 100.83 60.74 102.76 57.34 101.06 53.82 104.89 54.61 107.71 51.91"/><polygon class="cls-3" points="4.18 51.91 6.85 54.76 10.71 54.17 8.83 57.6 10.58 61.09 6.74 60.35 3.96 63.1 3.47 59.22 0 57.42 3.54 55.76 4.18 51.91"/><path class="cls-3" d="M105.19,64.12c0,.13,0,.25,0,.38h0A50.44,50.44,0,0,1,90.7,96.4a49.63,49.63,0,0,1-70.61,0A50.41,50.41,0,0,1,5.65,64.87H4.56c2,26.66,24.29,47.47,50.83,47.47s49-21,50.87-47.84v0c0-.13,0-.24,0-.35Z"/><path class="cls-3" d="M55.25,19.42a38.08,38.08,0,0,0-35.79,50,36.67,36.67,0,0,0,1.78,4.46,37.55,37.55,0,0,0,69.53-3.69,34.29,34.29,0,0,0,1.08-3.66c.06-.22.11-.43.15-.65h0c.21-.89.38-1.8.51-2.71a38.06,38.06,0,0,0-37.26-43.7ZM89.51,65.91c-.05.22-.1.45-.17.67A33.49,33.49,0,0,1,88.26,70c-.06.15-.11.3-.17.44a33.44,33.44,0,0,1-2,4.28A35.1,35.1,0,0,1,30.3,82.58a35.83,35.83,0,0,1-5.44-7.07c-.33-.56-.64-1.12-.93-1.69a33.6,33.6,0,0,1-1.66-3.73c-.12-.33-.24-.66-.35-1A35.76,35.76,0,0,1,30.3,32.34a35.07,35.07,0,0,1,49.89,0A35.42,35.42,0,0,1,90.51,57.46a35.9,35.9,0,0,1-.31,4.76A32.85,32.85,0,0,1,89.51,65.91Z"/><path class="cls-3" d="M5.65,64.87H4.56A51.3,51.3,0,0,0,9.17,82.56l1.13-.16A50.33,50.33,0,0,1,5.65,64.87Z"/><path class="cls-3" d="M106.28,64.12c0,.11,0,.22,0,.35v0c-1.87,26.84-24.2,47.84-50.87,47.84A50.93,50.93,0,0,1,14,90.89a51.46,51.46,0,0,1-4.85-8.33l1.13-.16a51,51,0,0,0,9.79,14,49.58,49.58,0,0,0,70.61,0,50.44,50.44,0,0,0,14.47-31.89h0c0-.13,0-.25,0-.38Z"/><path class="cls-4" d="M75,76.75c-1.34-1.09-.64-2.52-1.51-3.83-.59-.91-1.81-2.47-3-2a4.32,4.32,0,0,0-2,1.35,6.69,6.69,0,0,0-1.29-.18c-.87,0-.59,1,.2,1-2.92,1.71-7.06-.55-10,1.58-.73.52-1.59,1.7-2.37.95a2.38,2.38,0,0,1-.66-1.82c.18-1.82-1.77-3.28-1.56-5a19.76,19.76,0,0,0-.89-6.86c-.19-.69-1.53-2.5-.75-2.92s-.14-4.09-.6-4.6c-.7-1.31,0-2.44.88-3.56,1.17-1.47,2.15-3.26,3.51-4.44,1.69-1.47,3.61-.22,5.61-.65,1.44-.31,1.74-1.73,2.15-3,.6-1.83.83-3.77,1.38-5.61.17-.57,1.54-4.92,2.13-3.73a.73.73,0,0,0,1.39,0c.29-.43,0-1.07-.09-1.52-.13-1.11,1.85-2.24,1.39-3.14-.15-.29-.38-.11-.44-.15s.19-.44.06-.65-.17-.45-.55-.41a.67.67,0,0,0-.62-.77c0-.42-.56-.58-.89-.51.1-.31.23-2.06-.78-1-.18.18-2.43-11.72-2.52-12.19a2.07,2.07,0,0,0,.73-.62c.71-1,.52-2.76.47-3.89-.12-2.23-.76-6.38-2.55-8-2-1.87-2.86,1.77-2.91,3.45a17.5,17.5,0,0,0,1.33,7.7,3.32,3.32,0,0,0,1.41,1.44,1.23,1.23,0,0,0,.88.17c.07.44,2.12,10.87,2.25,11.85s-.13.76-.76,1.29c-.88.74-.55,2.63-.9,3.64A31.3,31.3,0,0,1,61,34.94c-.65,1.21-2.12,3-2,4.43a4,4,0,0,1-1.05-2c.75-.42-.13-1.23-.44-1.57A13.71,13.71,0,0,0,61.86,31c.87-1.88-.14-3.51-.65-5.22-.22-.73-.87-.7-1.37-1.05a6.81,6.81,0,0,0-1.56-1.16,5.24,5.24,0,0,1-1.08-.5c-.41-.21-.75.08-1.13-.06a1.68,1.68,0,0,0-1.78.87c-.41.3-1.65,1.05-1.71,1.51-.12.94,0,.7-1,.67-.48,0-1.1-.1-1.17.56a3.12,3.12,0,0,0,.15,1c-.15.16-.58.26-.61.36s-.06.67-.13.89c0,0-.15-.05-.18,0s0,.72,0,.81a2.63,2.63,0,0,0-.44,1.83,1.62,1.62,0,0,0,.37.74l-.25.23a1.94,1.94,0,0,0,0,.83,20.35,20.35,0,0,0-3.08-1.81c-.83-.27-1.66.51-1.47-.91.3-2.16.11-4.34.2-6.51,0-1.08-.14-2,.81-2.58.52-.34,1-.15,1.55-.15s2.21,0,2.07-.74c-.09-.47-1-.22-1.33-.26a35.12,35.12,0,0,0,3.1-3.12c.23-.24.86-.74.42-1s-1.53.79-1.78,1.13c0-.27.57-3.14-.34-2.32-.32.29-.24.81-.34,1.26a2.7,2.7,0,0,1-.81,1.43c.39-.77-.18-2.81-1.26-2.81-.47,0,0,.69.17,1.35a1.19,1.19,0,0,1-.2,1.06c.07-.63-.56-1.88-1.37-1.88s.16.88.36,1.1-.16.81-.44,1.08a3.73,3.73,0,0,1-1.57.58c-.53.17-.65.5-1.07.73-1,.58-1.11,2.59-1.36,3.62-.73,3-2.1,5.9-2.11,9,0,1-.39,2.2.52,3,.58.49,1.91,1.55,2,2.18s.62.58,1,.81c.65.43.63.38.64,1.06a4.31,4.31,0,0,1-.92,2.32c-1.55,2.39-3.45,4.42-4.53,7.12A7.9,7.9,0,0,0,37.43,52c-.34.66-2.08,3.35-1.38,4.07.44.46,1.86.66,1.86,1.33a7.56,7.56,0,0,0,.21,2.06c-.41-.24-.6,1.09-.68,2.43a9.49,9.49,0,0,0,0,1.82,62.09,62.09,0,0,0-1.35,6.48A47.55,47.55,0,0,0,35.71,76a8.26,8.26,0,0,0,.23,2.29c.08.18.81,0,1,0,0,.27.08.54.13.81.44,2.33.7,3.78,2.46,5.49,1.3,1.26,2.68,2.57,3.89,3.91,1.36,1.5,2.42,3.29,3.71,4.86A47.32,47.32,0,0,1,51,98.74c-1.73-.09-.29,1.74.33,2.15A23.4,23.4,0,0,1,53.69,103c.88.77.54,5,2,5,1.07,0,1.81-3.09,1.91-3.88a7.47,7.47,0,0,0,0-3.26,11.69,11.69,0,0,1-.71-2.57c.49,0,.7,0,.69-.42a13.46,13.46,0,0,0-.49-2.6c-.19-.55-.48-1.45-1.14-1.65-.29,0-.42.12-.4.37-.66-.1-2-.25-2.55.37a36.11,36.11,0,0,1-3-5.59c-.78-1.89-1.36-4.21-2.92-5.64s-2.38-2.25-2.6-4.53c-.08-.84.58-.34.63-1.14,0-.26,0-.52,0-.78a5.7,5.7,0,0,0,1.46.32c.53,0,.91.84,1.31,1.24a21.37,21.37,0,0,0,3.94,3.3,5.86,5.86,0,0,0,2.59.92,3.82,3.82,0,0,0,.86-.08,7.69,7.69,0,0,0,3.34-1.19c2.8-1.14,5.22-3.36,8.47-3.36.81,0,1-.14,1.16.66a.58.58,0,0,0,.47.6c.42,0,.37-.66.68-.68.84.14,1.6,1.22,2.22,1.9,1.16,1.27,1.91,4.87,3.87,2.59A4.8,4.8,0,0,0,75,76.75Z"/></g></g></svg>