<svg xmlns="http://www.w3.org/2000/svg" width="53" height="50" viewBox="0 0 53 50">
  <path id="Polygone_12" data-name="Polygone 12" d="M29.4,3.23a5.307,5.307,0,0,1,7.667,2.494l.036.086a5.307,5.307,0,0,0,4.5,3.257l.1.008a5.307,5.307,0,0,1,4.753,6.551h0a5.307,5.307,0,0,0,1.733,5.315l0,0a5.307,5.307,0,0,1,0,8.112l0,0a5.307,5.307,0,0,0-1.733,5.315h0A5.307,5.307,0,0,1,41.7,40.925l-.1.008a5.307,5.307,0,0,0-4.5,3.257l-.036.086A5.307,5.307,0,0,1,29.4,46.77l-.133-.081a5.307,5.307,0,0,0-5.531,0l-.133.081a5.307,5.307,0,0,1-7.667-2.494L15.9,44.19a5.307,5.307,0,0,0-4.5-3.257l-.1-.008a5.307,5.307,0,0,1-4.753-6.551h0A5.307,5.307,0,0,0,4.811,29.06l0,0a5.307,5.307,0,0,1,0-8.112l0,0a5.307,5.307,0,0,0,1.733-5.315h0A5.307,5.307,0,0,1,11.3,9.075l.1-.008A5.307,5.307,0,0,0,15.9,5.81l.036-.086A5.307,5.307,0,0,1,23.6,3.23l.133.081a5.307,5.307,0,0,0,5.531,0Z" fill="#324b56"/>
</svg>
