<svg xmlns="http://www.w3.org/2000/svg" viewBox="0 0 68.47 73.1"><defs><style>.cls-1{fill:#b6dffc;}.cls-2{fill:#324b58;}.cls-3{fill:#ff7c96;}.cls-5{fill:#fff;}</style></defs><title>Saisons-03</title><g id="Calque_2" data-name="Calque 2"><g id="Planche_Vacance_-_21" data-name="Planche Vacance - 21"><path class="cls-1" d="M40.62,15.54a15.49,15.49,0,0,1-2.57,8.56.83.83,0,0,1-.41-.81.7.7,0,0,0-.42-.82,3,3,0,0,0-.31-.15c-.85-.3-1.7-.61-2.55-.89a3.69,3.69,0,0,0-.88-.16,1.69,1.69,0,0,0-.45.06c.2.37.51.65.39,1.07a3.72,3.72,0,0,0-.38.22,2.92,2.92,0,0,1-1.83.5c-.53,0-1.05-.06-1.58-.1a1.37,1.37,0,0,0-1,.25,4.77,4.77,0,0,1-.55.29l-.29.14.46,0-.32.2a4.26,4.26,0,0,1,.58,0,3.77,3.77,0,0,0,1.46-.1,2.88,2.88,0,0,1,2.09.31,7.62,7.62,0,0,0,1.06.55,1,1,0,0,1,.62.81c0,.1,0,.21,0,.31A9.31,9.31,0,0,0,34,27c.09.35.18.7.29,1.05a15.54,15.54,0,0,1-24-8,1.55,1.55,0,0,0,.08-.23c.14-.44.17-.49.61-.51a1.07,1.07,0,0,1,.3.06c.11,0,.23,0,.34,0,.31,0,.62,0,.92-.09a3,3,0,0,0,.65-.18.25.25,0,0,0,.1-.21c-.2-.31-.32-.7-.75-.76l-.85-.08a2.09,2.09,0,0,1-1.34-.54,2.92,2.92,0,0,0-.66-.44,14.88,14.88,0,0,1-.09-1.64,15.54,15.54,0,0,1,30.93-2.16l-.93-.09a1.22,1.22,0,0,0-.75.11l-1,.61.23.05-.13.16a6.24,6.24,0,0,0,1.88,0,3.25,3.25,0,0,1,.82,0C40.6,14.63,40.62,15.09,40.62,15.54Z"/><path class="cls-2" d="M68.47,30.52l-.24,0-1,0c-.17,0-.35-.07-.52-.08a4.74,4.74,0,0,0-.84,0,12.92,12.92,0,0,1-2.78,0,2.49,2.49,0,0,1-.75-.18l-2.4-.83c-.42-.15-.82-.31-1.24-.44a3.78,3.78,0,0,0-1.46-.11,9.38,9.38,0,0,1-1.77-.16l.26-.15-.29-.07c.43-.21.84-.43,1.26-.61a1.5,1.5,0,0,1,1,.06c.46.12.92.24,1.39.33a3,3,0,0,0,1.63-.2c.46-.18.45-.28.37-.68a8.21,8.21,0,0,0-.18-.83,4.86,4.86,0,0,0-.35-.68s-.07-.07-.09-.12A5.27,5.27,0,0,0,60,24.65a3.9,3.9,0,0,1-.46-1,1,1,0,0,1,0-.67,2.26,2.26,0,0,0,.08-.83c0-.29-.06-.57-.08-.85a6.29,6.29,0,0,1,0-.63c.43.25.33.7.54,1l.09-.94c.4.26.29.68.46,1l.2-.59c.24.09.27.31.38.5.21-.1.31.05.39.2s.17.34.37.41a.23.23,0,0,1,.12.1c.2.27.4.55.61.82a.53.53,0,0,0,.11.15,3.11,3.11,0,0,1,.85,1.18,3.72,3.72,0,0,0,.19.34c.21.29.43.59.69.93l0-.7c.24.19.24.19.22,1.22.36-.32.31-.79.52-1.18a.42.42,0,0,1,.08.51c0,.17-.1.33-.17.56.4-.2.48-.6.72-.83l.08,0c0,.13,0,.26-.09.38a2.17,2.17,0,0,1-.16.37c.34,0,.45-.32.71-.41.09.06,0,.31.18.27,0,0,.06,0,.06.05,0,.39.31.71.29,1.11a1.29,1.29,0,0,1-.63,1.25c-.21.1-.41.24-.61.36,0,.07,0,.1.06.11.54.29,1.08.58,1.63.86.19.1.39.19.58.3a.44.44,0,0,1,.15.12C68.31,30.26,68.37,30.37,68.47,30.52Z"/><path class="cls-2" d="M13.23,19a.25.25,0,0,1-.1.21,3,3,0,0,1-.65.18c-.3.05-.61.07-.92.09-.11,0-.23,0-.34,0a1.07,1.07,0,0,0-.3-.06c-.44,0-.47.07-.61.51a1.55,1.55,0,0,1-.08.23A11.38,11.38,0,0,1,9.29,22a1.58,1.58,0,0,0-.18.53,3.22,3.22,0,0,1-.44,1.2,1,1,0,0,0-.06.18c-.06.14-.13.27-.19.41s-.07.19-.1.28c-.1.38-.1.38-.49.36a.73.73,0,0,1-.2.86c-.12.1-.14.31-.21.49-.25-.09-.18-.36-.35-.53-.15.33,0,.73-.3,1.06-.06-.19-.11-.34-.18-.51l-.24.37H6.27c0-.17-.06-.34-.1-.53l-.29,0c0-.11,0-.21,0-.32,0-.93,0-1.86,0-2.79a4.53,4.53,0,0,1,.12-1,3.85,3.85,0,0,0,0-1.22,3,3,0,0,1,.09-1.11c0-.09,0-.2-.08-.37l-.38.49c-.08-.18-.15-.31-.21-.44L5,19.61c0-.16,0-.3-.07-.45l-.31-.06c.06-.32.12-.64.18-1a3.22,3.22,0,0,0-2.26-.63c-.11,0-.23,0-.34.06a4,4,0,0,1-1.72.09,2.6,2.6,0,0,0-.4,0,.69.69,0,0,1,.07-.15L0,17.38l1.14-.64a1.21,1.21,0,0,1,.75-.08c.76.07,1.51.17,2.27.23a3,3,0,0,0,1.3-.25,2.9,2.9,0,0,1,2.46-.17c.49.24,1,.43,1.53.63l.18.08a2.92,2.92,0,0,1,.66.44,2.09,2.09,0,0,0,1.34.54l.85.08C12.91,18.3,13,18.69,13.23,19Z"/><path class="cls-2" d="M50.08,15.35c-.37.11-.67.39-1.09.3a2.89,2.89,0,0,0-.5,0,1.84,1.84,0,0,1-.53-.06,1.27,1.27,0,0,0-.64-.06,7.07,7.07,0,0,1-4.66-.82,5.1,5.1,0,0,0-2.1-.56,3.25,3.25,0,0,0-.82,0,6.24,6.24,0,0,1-1.88,0l.13-.16L37.76,14l1-.61a1.22,1.22,0,0,1,.75-.11l.93.09.88.1a1.42,1.42,0,0,0,.92-.22,2.23,2.23,0,0,0,1.2-1.33,3.89,3.89,0,0,0,0-2.5.53.53,0,0,1,.08-.55s0-.09.08-.12A9.51,9.51,0,0,1,45.56,7.1L47,6.42a1.51,1.51,0,0,1,.35-.1l-.12.36c.12.08.39.06.2.34l.34.16-.13.24.22.13a2.06,2.06,0,0,1,0,.43,4.48,4.48,0,0,1-.57,1.62.44.44,0,0,0,0,.32A3.39,3.39,0,0,1,47.42,11c0,.15,0,.32,0,.49s.05.17-.08.2a.58.58,0,0,0,0,.14c.07.13.09.24-.14.33a2.41,2.41,0,0,0,.45.29c.38.15.76.27,1.14.4.12,0,.28.06.23.29a4.91,4.91,0,0,1-.53,0c-.34-.05-.4,0-.58.34a7.8,7.8,0,0,1-.5.69c.51.22,1,.44,1.45.62A2.85,2.85,0,0,1,50.08,15.35Z"/><path class="cls-2" d="M34.9,14.65l-.81-.05c.18.27.56.24.6.6a1.93,1.93,0,0,1-.24,0c-.22,0-.43-.08-.65-.09a1.78,1.78,0,0,1-.91-.27c-.28-.2-.49-.12-.73.14a2.81,2.81,0,0,1-.69.6,2,2,0,0,1-.7.11c-.38,0-.77,0-1.15.08a1.92,1.92,0,0,0-.41.13.61.61,0,0,1-.33-.56.84.84,0,0,0-.1-.32c0-.07-.1-.13-.11-.2,0-.39-.3-.5-.59-.61a6,6,0,0,1-1.7-1.05,1.75,1.75,0,0,0-1.28-.44,6.05,6.05,0,0,1-1.8-.23c-.09,0-.15-.15-.22-.22l1.09-.46a1.39,1.39,0,0,1,1.08,0c.46.18.91.38,1.37.55A1.13,1.13,0,0,0,28,12.15a1.66,1.66,0,0,0-.66-1.06.69.69,0,0,1-.22-.16c-.21-.26-.25-.61-.51-.88a2.24,2.24,0,0,1-.33-.93c-.12-.49-.21-1-.31-1.47,0-.13,0-.26-.06-.43.35.14.31.48.52.74v-.7c.34.2.31.52.45.84L27,7.48c.31.15.27.45.4.7l.23-.32c.22.06.24.26.31.42l.21-.09a8.5,8.5,0,0,1,1,.77A10.49,10.49,0,0,1,30,10c0,.51.5.7.78,1a1.8,1.8,0,0,1,.64,1.3c.17.23.19.56.5.69a7.2,7.2,0,0,1,1.45.88,1.48,1.48,0,0,0,.53.22A1.81,1.81,0,0,1,34.9,14.65Z"/><path class="cls-2" d="M39.94,25.16a.9.9,0,0,1-.78.28,1.42,1.42,0,0,0-.46,0,1.18,1.18,0,0,1-.86-.13.62.62,0,0,0-.79.18c-.08.11-.16.23-.25.34a1,1,0,0,0-.26.91,2.39,2.39,0,0,1-.18,1.34.43.43,0,0,0,0,.19c0,.4-.3.7-.3,1.11,0,.17-.15.35-.24.55l-.19-.17c0,.24,0,.46,0,.68h-.09L35.27,30c0,.2-.05.35-.07.53a.76.76,0,0,1-.44-.56c-.17-.63-.35-1.26-.52-1.89-.11-.35-.2-.7-.29-1.05a9.31,9.31,0,0,1-.17-1.18c0-.1,0-.21,0-.31a1,1,0,0,0-.62-.81,7.62,7.62,0,0,1-1.06-.55A2.88,2.88,0,0,0,30,23.88a3.77,3.77,0,0,1-1.46.1,4.26,4.26,0,0,0-.58,0l.32-.2-.46,0,.29-.14a4.77,4.77,0,0,0,.55-.29,1.37,1.37,0,0,1,1-.25c.53,0,1.05.1,1.58.1a2.92,2.92,0,0,0,1.83-.5,3.72,3.72,0,0,1,.38-.22c.12-.42-.19-.7-.39-1.07a1.69,1.69,0,0,1,.45-.06,3.69,3.69,0,0,1,.88.16c.85.28,1.7.59,2.55.89a3,3,0,0,1,.31.15.7.7,0,0,1,.42.82.83.83,0,0,0,.41.81.6.6,0,0,0,.32.1C39.17,24.22,39.39,24.37,39.94,25.16Z"/><path class="cls-3" d="M8.21,58.5,9,58.36c-.14-1.28-.21-1.93-.35-3.23l-2.25.25c-.13,1.42-.19,2.14-.32,3.59l.75-.17v4.36c-1.09.38-1.61.57-2.59,1V59.43l.49-.13C5.27,52.52,5.88,45.74,6.57,39c.75.28,1.14.41,1.94.66.66,6.15,1.33,12.3,2.09,18.44l.58-.1v3.88c-1.23.32-1.83.49-3,.85ZM6.74,51.26H8.22c-.31-3-.46-4.55-.76-7.69C7.17,46.58,7,48.12,6.74,51.26Z"/><path class="cls-3" d="M11.59,40.5c1.32.35,2,.51,3.42.8v3.57l-.8-.11v8.29A14.64,14.64,0,0,0,14.32,55a5.26,5.26,0,0,0,.31,1.26,1.52,1.52,0,0,0,.49.67.85.85,0,0,0,.62.15,1.35,1.35,0,0,0,.63-.26,1.69,1.69,0,0,0,.5-.7,4.62,4.62,0,0,0,.32-1.24A12.7,12.7,0,0,0,17.3,53v-7.8l-1-.12V41.56c1.45.28,2.2.4,3.74.62v3.25l-.77-.07v7.06A18.66,18.66,0,0,1,19,55.85a11.87,11.87,0,0,1-.79,2.63,6,6,0,0,1-1.15,1.78,2.64,2.64,0,0,1-1.39.82,1.6,1.6,0,0,1-1.34-.31,3.51,3.51,0,0,1-1.07-1.51,11.48,11.48,0,0,1-.7-2.68,24.38,24.38,0,0,1-.25-3.74V44.48l-.75-.12Z"/><path class="cls-3" d="M22.93,56.64l1-.07V45.63l-1.21-.09v2.23l-2.1-.11v-5.4a84.34,84.34,0,0,0,9.23.84V48l-2.27,0V45.83l-1.43-.07V56.44l1.09,0v3c-1.77.12-2.64.2-4.34.39Z"/><path class="cls-3" d="M30.46,43.12c1.71.07,2.57.09,4.33.09v2.88h-1v6.6a7.39,7.39,0,0,0,.14,1.53,3,3,0,0,0,.39,1,1.69,1.69,0,0,0,.6.59,1.6,1.6,0,0,0,.75.18,1.87,1.87,0,0,0,.76-.15,1.44,1.44,0,0,0,.59-.54,3.08,3.08,0,0,0,.37-1,8,8,0,0,0,.13-1.61V46.08H36.39V43.2c1.72,0,2.56,0,4.23-.13V46l-.83,0v6.26a12.92,12.92,0,0,1-.32,3,7.23,7.23,0,0,1-.88,2.21,4,4,0,0,1-1.32,1.35,3.2,3.2,0,0,1-3.29,0,4.08,4.08,0,0,1-1.34-1.34,7.32,7.32,0,0,1-.89-2.15,11.54,11.54,0,0,1-.33-2.89V46.06l-1,0Z"/><path class="cls-3" d="M41.87,56.36l1,0V45.92l-1,0V43c1.7-.1,2.53-.17,4.16-.34q1.52,6.18,2.87,12.39,1.37-6.52,2.58-13.1c1.54-.25,2.29-.39,3.74-.69v3.58l-.81.1V57.33l.8.1V61c-1.3-.26-2-.39-3.34-.61V57.05l.62.06V46.35c-.89,4.51-1.79,9-2.78,13.51-.7-.1-1.06-.14-1.77-.22-.95-4.16-1.95-8.32-3-12.45V56.5l.75,0V59.6c-1.5-.14-2.26-.2-3.81-.3Z"/><path class="cls-3" d="M61.54,39.61c1.14-.36,1.68-.55,2.71-1v4.51l-.55.14v20c-.61-.22-.93-.33-1.57-.54-1-5-2-9.89-3.2-14.82V58l.67.11V62c-1.2-.32-1.82-.48-3.1-.76V57.61l.69.1V44.55l-.68.11V41c1-.23,1.52-.35,2.49-.62,1.2,4.77,2.19,9.57,3.17,14.38V43.65l-.63.13Z"/><polygon class="cls-3" points="22.19 68.53 22.89 69.95 24.45 70.18 23.32 71.29 23.59 72.85 22.19 72.11 20.79 72.85 21.05 71.29 19.92 70.18 21.49 69.95 22.19 68.53"/><polygon class="cls-3" points="46.95 68.53 47.65 69.95 49.21 70.18 48.08 71.29 48.35 72.85 46.95 72.11 45.55 72.85 45.81 71.29 44.68 70.18 46.25 69.95 46.95 68.53"/><path class="cls-5" d="M27.08,72.55h.43V68.84H26.43v.75h-.65V68.33H30v1.26h-.64v-.75H28.13v3.71h.49v.55H27.08Z"/><path class="cls-5" d="M30.61,68.33h1.52v.54h-.45v3.68h.45v.55H30.61v-.55h.45V68.87h-.45Z"/><path class="cls-5" d="M33,72.55h.46V68.93H33v-.6h1.51l1.52,4.11,1.53-4.11H39v.6h-.45v3.62H39v.55H37.47v-.55H38V68.89L36.31,73.1h-.53l-1.69-4.22v3.67h.49v.55H33Z"/><path class="cls-5" d="M39.92,68.33h3.41v1.35h-.64v-.81H41V70.4h1.43v.54H41v1.61h1.7v-.8h.64V73.1H39.92v-.55h.45V68.87h-.45Z"/></g></g></svg>