<svg xmlns="http://www.w3.org/2000/svg" viewBox="0 0 179.28 164.12"><defs><style>.cls-1{fill:#324b56;}.cls-2{fill:#fff;}</style></defs><title>Shapes02</title><g id="Calque_2" data-name="Calque 2"><g id="Shape_02" data-name="Shape 02"><path class="cls-1" d="M88.25,161.68c-34.87-16.77-78-47.13-85.63-96.52-2.71-17.62,1.54-34,12-46.19A48.11,48.11,0,0,1,51,1.82C65.84,1.82,79.31,9,89.19,22,99.7,9.26,113.86,2.27,129.31,2.27a48.68,48.68,0,0,1,38.17,18.3c9.4,12,12.28,27.9,8.11,44.77-9.85,39.84-41.05,75-85.6,96.34l-.87.42Z"/><path class="cls-2" d="M89.13,164.12l-1.67-.8C52.2,146.36,8.54,115.62.82,65.44-2,47.28,2.43,30.36,13.22,17.78A50,50,0,0,1,51,0C65.66,0,79.16,6.78,89.25,19.14,99.94,7.06,114.08.44,129.31.44a50.55,50.55,0,0,1,39.61,19c9.75,12.45,12.74,28.9,8.44,46.32-10,40.38-41.54,75.93-86.58,97.55ZM89,160l.08,0,.08,0c44.06-21.15,74.9-55.83,84.62-95.14,4-16.31,1.27-31.66-7.77-43.2A46.85,46.85,0,0,0,129.31,4.09c-14.82,0-28.57,6.78-38.71,19.08L89.13,25l-1.39-1.84C78.23,10.56,65.18,3.65,51,3.65A46.27,46.27,0,0,0,16,20.16C5.9,31.92,1.79,47.8,4.42,64.88,11.9,113.49,54.57,143.46,89,160Z"/></g></g></svg>