<svg xmlns="http://www.w3.org/2000/svg" viewBox="0 0 203.55 203.37"><defs><style>.cls-1{fill:#324b56;}.cls-2{fill:#fff;}</style></defs><title>Shapes11</title><g id="Calque_2" data-name="Calque 2"><g id="Shape_11" data-name="Shape 11"><path class="cls-1" d="M101.75,201.59a51,51,0,0,1-50.9-49,50.93,50.93,0,0,1,0-101.79,50.93,50.93,0,0,1,101.79,0,50.93,50.93,0,0,1,0,101.79A51,51,0,0,1,101.75,201.59Z"/><path class="cls-2" d="M101.75,203.37a52.52,52.52,0,0,1-52.59-49.1,52.71,52.71,0,0,1,0-105.18,52.71,52.71,0,0,1,105.17,0,52.71,52.71,0,0,1,0,105.19A52.53,52.53,0,0,1,101.75,203.37Zm0-199.82a49,49,0,0,0-49.12,47.3l-.06,1.65-1.65.06a49.15,49.15,0,0,0,0,98.24l1.65.06.06,1.65a49.16,49.16,0,0,0,98.24,0l.06-1.65,1.65-.06a49.16,49.16,0,0,0,0-98.25l-1.65-.06-.06-1.65A49,49,0,0,0,101.75,3.55Z"/></g></g></svg>