<svg xmlns="http://www.w3.org/2000/svg" viewBox="0 0 79.71 106.07"><defs><style>.cls-1{fill:#ff7c96;}.cls-2{fill:#b6dffc;}.cls-3{fill:#324b58;}.cls-5{fill:#ffffff;}.cls-6{fill:#000000;opacity:0.4;}</style></defs><title>Saisons-11</title><g id="Calque_2" data-name="Calque 2"><g id="Planche_Vacance_-_05" data-name="Planche Vacance - 05"><rect class="cls-1" y="62.11" width="73.94" height="1.33"/><path class="cls-2" d="M15,38.89,13.43,36c.1-.38.22-.75.35-1.11C14.16,36.33,14.57,37.67,15,38.89Z"/><path class="cls-2" d="M15.24,41.78l-.92,9.43v0A21.92,21.92,0,0,1,13,46.87c-.05-.22-.09-.43-.12-.65a22,22,0,0,1-.29-2.46c0-.48,0-1,0-1.46A22.2,22.2,0,0,1,13,37.66Z"/><path class="cls-2" d="M20.89,52.23l-5,2c-.21-.34-.4-.68-.59-1l.95-9.66Z"/><path class="cls-2" d="M21.87,54.05c-1,.07-2.07.17-3.06.27l2.64-1.07Z"/><path class="cls-2" d="M24.62,50.72,22,51.79l-2.33-4.32A9.16,9.16,0,0,0,24.62,50.72Z"/><path class="cls-2" d="M28.46,44.4c-3.32-3.57-5-8.77-5.39-10.18l.68,0,4.57,7.2Z"/><path class="cls-2" d="M31.92,47a10.51,10.51,0,0,1-2.24-1.46l-.1-2.22Z"/><path class="cls-2" d="M35.75,53.05l-1.25.51h-.29c-3.88,0-7.61.14-11.08.39l-.6-1.14,1.34-.54a.5.5,0,0,0,0,.4.57.57,0,0,0,.56.38.39.39,0,0,0,.18,0l9-3.23Z"/><path class="cls-2" d="M44.27,20.62a17.19,17.19,0,0,0-1.41,4.49,8.56,8.56,0,0,0-2-5.13c-.15-.18-.3-.35-.45-.5A22.52,22.52,0,0,1,44.27,20.62Z"/><path class="cls-2" d="M45.53,54c-2.77-.2-5.7-.33-8.74-.37,0-.23.05-.45.07-.66s0-.15,0-.23l-2.11-3.32L38.64,48a.58.58,0,1,0-.39-1.09l-2.87,1a8.42,8.42,0,0,1-1.67-.25L29.47,41l-.07-1.63a.58.58,0,0,0-.61-.55.59.59,0,0,0-.5.33L24,32.39a.59.59,0,0,0-.8-.17A.58.58,0,0,0,23,33l0,0-8.72.41a23.28,23.28,0,0,1,17.1-14c.56-.11,1.14-.2,1.71-.27A22.19,22.19,0,0,1,35.69,19a3.3,3.3,0,0,1,1,.7,3.78,3.78,0,0,0-1.85.3s4.2,1.71,4.94,3.47c-.15,0-1.59-.58-2.06-.27a10.9,10.9,0,0,1,4.06,3.67c-2.76-2.17-8.35-5.63-11.93-1.48,0,0,3.1-.4,4.67.43a5,5,0,0,0-.83,1,8.23,8.23,0,0,1,4.91.38,3.07,3.07,0,0,0-.94.74,10.26,10.26,0,0,1,4.17-.13c-2.43.17-9.27,1.24-7.14,7.6a7.29,7.29,0,0,1,1.6-3.06,2.29,2.29,0,0,0,.93,1.51s.22-2.63,1.73-3.38a3,3,0,0,0,.22,1.33,6.77,6.77,0,0,1,2.77-3.68C40,30.1,36.66,34.56,41.22,39.4c0-.25-.63-2.93-.18-4.18A2,2,0,0,0,42.1,36S40.9,33.4,42,31.73a3.72,3.72,0,0,0,.78,1,11.27,11.27,0,0,1-.3-4.07A65.74,65.74,0,0,1,45.53,54Z"/><path class="cls-2" d="M50.58,24.35a.76.76,0,0,1,0,.11c-3.09-.62-5.84,1.29-7.32,2.61a10.75,10.75,0,0,1,3.34-3,3,3,0,0,0-1.23.11,6.71,6.71,0,0,1,1.55-2.3c.44.24.87.48,1.29.75l.45.29a3.51,3.51,0,0,1,.4.27c.42.28.83.59,1.22.91C50.36,24.15,50.47,24.25,50.58,24.35Z"/><path class="cls-2" d="M55.34,29.66a98.61,98.61,0,0,0-7,24.42A68.15,68.15,0,0,0,43.4,29a7.66,7.66,0,0,1,1.33,3.41,3.13,3.13,0,0,0,.46-1.36c1.42,1.05,1.17,3.86,1.17,3.86a2.43,2.43,0,0,0,1.23-1.43A7.77,7.77,0,0,1,48.7,37c3.11-6-2.83-8.4-5.57-9.15a13,13,0,0,1,5.35.76c-.18-.49-1.29-1-1.29-1a6.1,6.1,0,0,1,2.56.33,13.49,13.49,0,0,0,0,2.19s.38-.8,1-1.78a8.88,8.88,0,0,1,1.32.82,3.07,3.07,0,0,0-.15-1.6,6.86,6.86,0,0,1,2.89,1.65,2.22,2.22,0,0,0,0-.33Q55.1,29.29,55.34,29.66Z"/><path class="cls-2" d="M59.08,42.3a23,23,0,0,1-3.83,12.77c-.9-.15-1.85-.29-2.83-.42a99.66,99.66,0,0,1,4.2-22.77l.05.11a22.82,22.82,0,0,1,2,6.07,8.74,8.74,0,0,1,.14.87A22.1,22.1,0,0,1,59.08,42.3Z"/><path class="cls-3" d="M74,13.76c-4.33-1.11-8.34,1.37-10.55,3.18A28,28,0,0,0,69.32,6.78a1.24,1.24,0,0,1-1.16.37A12.32,12.32,0,0,0,69.51,0c-4.7,2.33-5.83,8.79-5.83,8.79a2.34,2.34,0,0,1-.24-1.41A24.83,24.83,0,0,0,62.23,16a13.05,13.05,0,0,0-4.55-8.63C52,2.73,47,6.33,46.2,7.19c0,0,4-.07,5.65,1.21,0,0-2,.33-2.53,1.06,0,0,6.37,1.16,7.87,3.53,0,0-2.36-.39-2.95.26a14.76,14.76,0,0,1,6.12,3.54c-4.38-2.51-12.68-6-16.83.4a18.16,18.16,0,0,1,5.35-.59c-2.22.39-3.66,2.06-4.61,4a17.19,17.19,0,0,0-1.41,4.49,8.56,8.56,0,0,0-2-5.13c-.15-.18-.3-.35-.45-.5A6.15,6.15,0,0,0,33,18.1a12.37,12.37,0,0,1,2.72.94,3.3,3.3,0,0,1,1,.7,3.78,3.78,0,0,0-1.85.3s4.2,1.71,4.94,3.47c-.15,0-1.59-.58-2.06-.27a10.9,10.9,0,0,1,4.06,3.67c-2.76-2.17-8.35-5.63-11.93-1.48,0,0,3.1-.4,4.67.43a5,5,0,0,0-.83,1,8.23,8.23,0,0,1,4.91.38,3.07,3.07,0,0,0-.94.74,10.26,10.26,0,0,1,4.17-.13c-2.43.17-9.27,1.24-7.14,7.6a7.29,7.29,0,0,1,1.6-3.06,2.29,2.29,0,0,0,.93,1.51s.22-2.63,1.73-3.38a3,3,0,0,0,.22,1.33,6.77,6.77,0,0,1,2.77-3.68C40,30.1,36.66,34.56,41.22,39.4c0-.25-.63-2.93-.18-4.18A2,2,0,0,0,42.1,36S40.9,33.4,42,31.73a3.72,3.72,0,0,0,.78,1,11.27,11.27,0,0,1-.3-4.07A65.74,65.74,0,0,1,45.53,54c-2.77-.2-5.7-.33-8.74-.37,0-.23.05-.45.07-.66s0-.15,0-.23l-2.11-3.32L38.64,48a.58.58,0,1,0-.39-1.09l-2.87,1a8.42,8.42,0,0,1-1.67-.25L29.47,41l-.07-1.63a.58.58,0,0,0-.61-.55.59.59,0,0,0-.5.33L24,32.39a.59.59,0,0,0-.8-.17A.58.58,0,0,0,23,33l0,0-8.72.41-2.17.1L12,33.27a.59.59,0,0,0-.79-.24.57.57,0,0,0-.23.78l.3.56.06.13L13,37.66l2.22,4.12-.92,9.43L14,55C5.81,56.2.44,58.19.1,60.44H68.34C68,58.26,63,56.33,55.25,55.07c-.9-.15-1.85-.29-2.83-.42a99.66,99.66,0,0,1,4.2-22.77,79,79,0,0,1,5.09-12.62,10.43,10.43,0,0,1-1.39,5.56A4.42,4.42,0,0,0,62,23.7c.7,2.35-1.93,5.27-1.93,5.27a3.42,3.42,0,0,0,2.55-.57c.12,1.93-1.7,4.82-1.7,4.82,8.1-3.88,4.3-11,1.85-14.35a13.82,13.82,0,0,1,3.36,4.83,3.91,3.91,0,0,0,.06-1.62,11.14,11.14,0,0,1,4.32,5A7.54,7.54,0,0,0,71,25.38c2.15,1.06,4.17,4.74,4.17,4.74,1.78-7.61-7.51-10.88-11.82-12,3-.36,7.17,1.28,7.4,1.37-.22-.71-1.78-1.44-1.78-1.44,3.72-.25,6.85,2.48,6.85,2.48a4.18,4.18,0,0,0-.12-2.28,9.77,9.77,0,0,1,4,2.49S80.58,15.45,74,13.76ZM13.43,36l-.69-1.27,1,0,.06.2c.38,1.48.79,2.82,1.22,4ZM31.92,47a10.51,10.51,0,0,1-2.24-1.46l-.1-2.22ZM23.75,34.19l4.57,7.2.14,3c-3.32-3.57-5-8.77-5.39-10.18ZM15.14,54.56l.13-1.33.95-9.66,4.67,8.66-5,2Zm3.67-.24,2.64-1.07.42.8C20.83,54.12,19.8,54.22,18.81,54.32Zm.83-6.85a9.16,9.16,0,0,0,5,3.25L22,51.79ZM34.5,53.56h-.29c-3.88,0-7.61.14-11.08.39l-.6-1.14,1.34-.54a.5.5,0,0,0,0,.4.57.57,0,0,0,.56.38.39.39,0,0,0,.18,0l9-3.23,2.09,3.27ZM46.56,24a3,3,0,0,0-1.23.11,6.71,6.71,0,0,1,1.55-2.3,9.54,9.54,0,0,1,1.86-1.47,5.54,5.54,0,0,0-1.37-.18,9.15,9.15,0,0,1,2.8-3.32h0a7.12,7.12,0,0,0-1,1.63,11.8,11.8,0,0,1,7-.43A4.34,4.34,0,0,0,55,19.3a14.91,14.91,0,0,1,5.43-1c-2.84.33-7.85,1.52-9.87,6.07a.76.76,0,0,1,0,.11c-3.09-.62-5.84,1.29-7.32,2.61A10.75,10.75,0,0,1,46.56,24Zm6.72,1.63a2.11,2.11,0,0,0-.23-.19,1.53,1.53,0,0,1,.22-.16S53.27,25.45,53.28,25.66Zm2.06,4a98.61,98.61,0,0,0-7,24.42A68.15,68.15,0,0,0,43.4,29a7.66,7.66,0,0,1,1.33,3.41,3.13,3.13,0,0,0,.46-1.36c1.42,1.05,1.17,3.86,1.17,3.86a2.43,2.43,0,0,0,1.23-1.43A7.77,7.77,0,0,1,48.7,37c3.11-6-2.83-8.4-5.57-9.15a13,13,0,0,1,5.35.76c-.18-.49-1.29-1-1.29-1a6.1,6.1,0,0,1,2.56.33,13.49,13.49,0,0,0,0,2.19s.38-.8,1-1.78a8.88,8.88,0,0,1,1.32.82,3.07,3.07,0,0,0-.15-1.6,6.86,6.86,0,0,1,2.89,1.65,2.22,2.22,0,0,0,0-.33h0A4.22,4.22,0,0,0,54,26.4c.41-1.18,1.44-3.48,3.38-4.16a5.18,5.18,0,0,0,0,1.78s1.41-3.89,3.7-5.32A84.84,84.84,0,0,0,55.34,29.66Z"/><path class="cls-1" d="M.38,83.08l1.37-.31.12-13.11-1.49.08V65.92H7.65a3.73,3.73,0,0,1,1.83.45,4.24,4.24,0,0,1,1.39,1.21,5.07,5.07,0,0,1,.86,1.76A6.49,6.49,0,0,1,12,71.47a5.88,5.88,0,0,1-.49,2.23,4.3,4.3,0,0,1-1.12,1.52,3.41,3.41,0,0,1,1.07,1.33,4.33,4.33,0,0,1,.31,2,7.78,7.78,0,0,1-.46,2.34,7.79,7.79,0,0,1-1,2,6.17,6.17,0,0,1-1.42,1.46,4.65,4.65,0,0,1-1.69.79c-2.8.62-4.16,1-6.77,1.72ZM5.07,69.51C5,71.29,5,72.18,5,74l2.27-.21a.89.89,0,0,0,.51-.22A1.84,1.84,0,0,0,8.18,73a3.13,3.13,0,0,0,.31-.69,2.8,2.8,0,0,0,.06-1.55,2.59,2.59,0,0,0-.26-.69,1.51,1.51,0,0,0-.4-.49.77.77,0,0,0-.51-.17Zm-.2,8c0,1.85-.07,2.77-.12,4.61l2.32-.44a1.07,1.07,0,0,0,.52-.28A2.84,2.84,0,0,0,8,80.85a4.45,4.45,0,0,0,.31-.76,3.58,3.58,0,0,0,.13-.86,2.9,2.9,0,0,0-.07-.85,2,2,0,0,0-.25-.65,1.21,1.21,0,0,0-.4-.41.82.82,0,0,0-.5-.11Z"/><path class="cls-1" d="M14,65.89l11.88,0c-.11,2.26-.17,3.39-.28,5.66-1.31,0-2,.06-3.26.11l.14-2.4c-1.54,0-2.31.05-3.85.1l-.2,3.42,3-.15c-.07,1.3-.11,2-.18,3.26-1.21.08-1.81.12-3,.22l-.24,4c1.54-.17,2.32-.25,3.89-.39.07-1.2.11-1.8.17-3,1.31-.09,2-.13,3.3-.2l-.3,5.94c-4,.38-8,.88-12,1.52.07-1.31.1-2,.18-3.27l1.54-.21.63-11.06-1.56.06Z"/><path class="cls-1" d="M35.17,79.07h1.6c-.29-.93-.43-1.39-.71-2.32-2,0-2.93,0-4.86.09-.31.94-.46,1.41-.78,2.36l1.68-.06c0,1.17-.05,1.76-.08,2.93-2.45.08-3.66.15-6,.33.06-1.19.09-1.79.14-3l1.17-.07c1.58-4.49,3.15-9,4.67-13.48h4q2,6.65,4.19,13.22l1.16,0L41.33,82c-2.46-.06-3.72-.07-6.2,0C35.15,80.82,35.15,80.23,35.17,79.07Zm-3.07-5c1.25,0,1.88,0,3.15,0-.62-2.1-.91-3.14-1.49-5.24C33.11,70.89,32.78,72,32.1,74.07Z"/><path class="cls-1" d="M52.42,71a5.73,5.73,0,0,0-1.07-1.29,3.07,3.07,0,0,0-1-.56A4,4,0,0,0,49.27,69a2.92,2.92,0,0,0-1.54.39,3.7,3.7,0,0,0-1.19,1.08,5.28,5.28,0,0,0-.77,1.6,6.22,6.22,0,0,0-.22,2,6.44,6.44,0,0,0,.38,2,5.64,5.64,0,0,0,.9,1.66,4.88,4.88,0,0,0,1.32,1.17,3.7,3.7,0,0,0,1.64.51,2.77,2.77,0,0,0,1.13-.13,3.15,3.15,0,0,0,1.63-1.26A3.33,3.33,0,0,0,53,77c1.32.5,2,.76,3.27,1.29a6.4,6.4,0,0,1-.78,2,5.17,5.17,0,0,1-1.35,1.48,5.49,5.49,0,0,1-1.86.87A6.67,6.67,0,0,1,50,82.8a7.7,7.7,0,0,1-2.06-.47,8.66,8.66,0,0,1-1.86-1,8.83,8.83,0,0,1-1.6-1.4,9.39,9.39,0,0,1-1.24-1.75,10,10,0,0,1-.81-2,9.26,9.26,0,0,1-.33-2.25,9.12,9.12,0,0,1,.5-3.25A8.39,8.39,0,0,1,44.05,68a7.35,7.35,0,0,1,2.24-1.8,6,6,0,0,1,2.8-.66,5.48,5.48,0,0,1,2.06.34,6.13,6.13,0,0,1,1.9,1.35l2.21,0c.09,1.54.14,2.32.23,3.86Z"/><path class="cls-1" d="M67.66,65.92l6.39,0v3.79l-1.54-.07.12,13.07,1.42.32v3.77c-2.24-.64-3.39-.94-5.76-1.48l-.11-3.51,1.45.28c0-2-.08-3-.13-5.06-2.56-.34-3.86-.5-6.5-.78.09,1.89.14,2.83.23,4.72l1.52.24c.06,1.35.1,2,.16,3.38-2.44-.49-3.68-.71-6.23-1.09l-.18-3.18,1.53.19q-.31-5.7-.64-11.4l-1.54,0-.19-3.2,6.4,0,.15,3.4-1.56-.06c.07,1.53.11,2.3.19,3.83,2.65.19,4,.3,6.57.54l-.1-4.1-1.54-.07C67.73,68,67.7,67.33,67.66,65.92Z"/><polygon class="cls-3" points="14.32 90.41 12.2 94.93 9.01 89.93 14.32 90.41"/><polygon class="cls-3" points="65.42 90.38 62.24 95.38 60.13 90.86 65.42 90.38"/><path class="cls-3" d="M16.21,94.76c-1,.52-2,1.1-3,1.72-.82.5-1.64,1-2.47,1.6l1.48-3.15,2.13-4.52Z"/><path class="cls-2" d="M63.51,98.08c-.4-.31-1.1-.82-2.06-1.45s-1.84-1.16-3-1.81l1.71-4,2.11,4.52Z"/><line class="cls-2" x1="12.19" y1="94.93" x2="14.32" y2="90.41"/><path class="cls-3" d="M63.51,98.08c-.4-.31-1.1-.82-2.06-1.45s-1.84-1.16-3-1.81l1.71-4,2.11,4.52Z"/><path class="cls-3" d="M63.91,98.4l-6.74,7.67C37.54,90.74,17,105.91,17,105.91l-6.29-7.83c.83-.56,1.65-1.1,2.47-1.6,1-.62,2-1.2,3-1.72C34.7,85,50.48,90.5,58.42,94.82c1.19.65,2.21,1.27,3,1.81s1.66,1.14,2.06,1.45Z"/><path class="cls-5" d="M26.1,99.11q-.88-2.67-1.82-5.34c1.18-.39,2.39-.73,3.62-1l.15.61c-.93.21-1.85.46-2.76.74.19.56.37,1.13.55,1.69.76-.23,1.53-.44,2.3-.63.05.18.09.37.14.55-.76.18-1.52.39-2.27.62.21.65.42,1.31.62,2,.88-.27,1.76-.5,2.65-.71,0,.21.1.41.14.61C28.3,98.44,27.19,98.75,26.1,99.11Z"/><path class="cls-5" d="M31,97.87l-.68.13c-.37-1.84-.76-3.68-1.15-5.52l.84-.16a38.62,38.62,0,0,1,3.47,3.55l.29.42-.06-.44c-.13-1.33-.27-2.66-.41-4l.8-.07q.24,2.82.46,5.62l-.73.06a39.87,39.87,0,0,0-3.32-3.6l-.35-.4c0,.15.07.3.1.44C30.51,95.23,30.76,96.55,31,97.87Z"/><path class="cls-5" d="M35.2,96.41l.77,0v0a.39.39,0,0,0,.1.27.54.54,0,0,0,.27.18,1.29,1.29,0,0,0,.4,0,1,1,0,0,0,.44-.11.61.61,0,0,0,.29-.32,3.06,3.06,0,0,0,.09-1c0-1.29,0-2.58,0-3.87h.88c0,1.3-.07,2.59-.1,3.88a2.75,2.75,0,0,1-.24,1.26,1.43,1.43,0,0,1-.51.5,1.77,1.77,0,0,1-.8.16,1.71,1.71,0,0,1-1.2-.3,1,1,0,0,1-.4-.73Z"/><path class="cls-5" d="M41.61,97.71a2.36,2.36,0,0,1-1.69-.94,3.29,3.29,0,0,1-.59-2.25,2.91,2.91,0,0,1,.9-2.16,2.61,2.61,0,0,1,2.1-.58,2.54,2.54,0,0,1,1.9,1,2.86,2.86,0,0,1,.35,2.3,3.42,3.42,0,0,1-1.1,2.06A2.45,2.45,0,0,1,41.61,97.71Zm.07-.56A1.5,1.5,0,0,0,43,96.66,3.12,3.12,0,0,0,43.75,95a2.74,2.74,0,0,0-.19-1.81,1.59,1.59,0,0,0-1.3-.84,1.62,1.62,0,0,0-1.46.52,2.79,2.79,0,0,0-.63,1.72,3.1,3.1,0,0,0,.33,1.79A1.49,1.49,0,0,0,41.68,97.15Z"/><path class="cls-5" d="M47,98.58l-.72-.19c.21-.86.43-1.72.66-2.57-.39-1.13-.84-2.25-1.34-3.36l1,.21c.37.86.7,1.72,1,2.58.7-.59,1.44-1.17,2.2-1.73l.8.25c-1,.72-2,1.47-2.87,2.25C47.48,96.87,47.24,97.73,47,98.58Z"/><path class="cls-6" d="M16.21,94.76c-1,.52-2,1.1-3,1.72-.82.5-1.64,1-2.47,1.6l1.48-3.15,2.13-4.52Z"/><path class="cls-6" d="M63.51,98.08c-.4-.31-1.1-.82-2.06-1.45s-1.84-1.16-3-1.81l1.71-4,2.11,4.52Z"/></g></g></svg>