<svg xmlns="http://www.w3.org/2000/svg" viewBox="0 0 60.72 65.53"><defs><style>.cls-1{fill:#ff7c96;}.cls-2{fill:#324b58;}.cls-3{fill:#fff;}</style></defs><title>Saisons-02</title><g id="Calque_2" data-name="Calque 2"><g id="Planche_Vacance_-_14" data-name="Planche Vacance - 14"><path class="cls-1" d="M4.24,38.57a7.82,7.82,0,0,0-.12-1,5.47,5.47,0,0,0-.23-.85,3.31,3.31,0,0,0-.32-.6.74.74,0,0,0-.38-.28.41.41,0,0,0-.32.06.73.73,0,0,0-.26.32,2.56,2.56,0,0,0-.17.63,6.56,6.56,0,0,0-.07,1A5.65,5.65,0,0,0,2.46,39a3,3,0,0,0,.22.71,1.85,1.85,0,0,0,.31.45l.33.37c.5.61.76.9,1.29,1.47a3.41,3.41,0,0,1,.52.82A6.76,6.76,0,0,1,5.55,44a12.53,12.53,0,0,1,.29,1.64,18.4,18.4,0,0,1,.1,2.07,20.26,20.26,0,0,1-.2,2.91A12.91,12.91,0,0,1,5.18,53a7.15,7.15,0,0,1-.84,1.73,2.37,2.37,0,0,1-1.06.9.9.9,0,0,1-.74,0,1.65,1.65,0,0,1-.63-.67,6,6,0,0,1-.48-1.26,12.66,12.66,0,0,1-.32-1.81L.68,52V47c.6-.07.91-.11,1.55-.17v1a12.92,12.92,0,0,0,.06,1.3,5,5,0,0,0,.2,1,1.52,1.52,0,0,0,.32.61.48.48,0,0,0,.47.13c.28-.06.49-.31.64-.76a6,6,0,0,0,.22-1.77,4.84,4.84,0,0,0-.08-.94,2.51,2.51,0,0,0-.2-.62,2,2,0,0,0-.27-.43L3.3,46c-.42-.42-.63-.64-1-1.09A3.11,3.11,0,0,1,1.72,44a7.21,7.21,0,0,1-.46-1.46A18.32,18.32,0,0,1,1,40.48c-.08-.8-.12-1.72-.12-2.74A26.16,26.16,0,0,1,1,34.6a9.78,9.78,0,0,1,.48-2.18,2.37,2.37,0,0,1,.74-1.14,1,1,0,0,1,1-.11,1.84,1.84,0,0,1,.8.6,5,5,0,0,1,.68,1.07,8.47,8.47,0,0,1,.51,1.34,12.93,12.93,0,0,1,.33,1.47l.49.1v4.3l-1.76-.16Z"/><path class="cls-1" d="M6.46,32.85c1.24.34,1.88.49,3.2.78v3.58l-.75-.1v8.33A14.64,14.64,0,0,0,9,47.36a5.35,5.35,0,0,0,.29,1.26,1.56,1.56,0,0,0,.45.67.81.81,0,0,0,.58.15,1.17,1.17,0,0,0,.6-.27,1.75,1.75,0,0,0,.47-.7,5.33,5.33,0,0,0,.3-1.25,14.57,14.57,0,0,0,.1-1.91V37.49l-.91-.11V33.9c1.36.27,2.07.4,3.51.63v3.25l-.71-.07v7.07a19.81,19.81,0,0,1-.27,3.43,12.82,12.82,0,0,1-.74,2.64,6.41,6.41,0,0,1-1.08,1.8,2.55,2.55,0,0,1-1.3.83,1.42,1.42,0,0,1-1.26-.3,3.53,3.53,0,0,1-1-1.51A12.14,12.14,0,0,1,7.4,49a26,26,0,0,1-.24-3.75V36.84l-.7-.12Z"/><path class="cls-1" d="M15.51,49.11l.86-.08V38l-.86-.08V34.7c1.51.22,2.28.32,3.86.49Q20.74,41.13,22.26,47c1.08-4.67,1.63-6.93,2.75-11.4,1.69.09,2.56.12,4.31.16v2.78h-1V48.4h1v2.78c-1.57,0-2.35,0-3.87.13V48.47l.7,0v-9c-1.23,4.6-1.84,6.93-3,11.76l-1.83.14q-1.56-5.91-2.95-11.89v9.35l.71,0v3c-1.44.17-2.14.26-3.52.46Z"/><path class="cls-1" d="M30.89,48.38c.4,0,.6,0,1,0V38.6h-1V35.81c1.75,0,2.6,0,4.28-.05,1.21,4.42,1.81,6.64,3,11.2,1.1-4.5,1.64-6.79,2.71-11.52,1.63-.13,2.43-.21,4-.4v3.07l-.88.06V48.81l.86.07v3c-1.39-.17-2.11-.24-3.56-.37V48.64l.66,0V39.32q-1.4,6-2.93,11.88c-.73-.05-1.1-.07-1.85-.1C35.92,46.52,35.3,44.29,34,39.85v8.54h.77v2.79c-1.55,0-2.32,0-3.92,0Z"/><path class="cls-1" d="M46.23,34.87c2.92-.39,4.31-.63,6.91-1.2v6.7l-1.79.12V37.81L49.14,38v3.58l1.72-.06v3.58l-1.72-.06v4.2l2.21.26V46.18l1.79.11v7c-2.6-.57-4-.82-6.91-1.22V49l1,.09V38.22l-1,.08Z"/><path class="cls-1" d="M54.07,33.46c1.7-.39,2.51-.61,4-1.07a1,1,0,0,1,1,.22,3,3,0,0,1,.7,1.22,9.28,9.28,0,0,1,.43,2,19.88,19.88,0,0,1,.15,2.5c0,.8,0,1.51-.07,2.12a15.38,15.38,0,0,1-.21,1.62,7.63,7.63,0,0,1-.35,1.23,5.27,5.27,0,0,1-.48,1,4.36,4.36,0,0,1,.41,1.23,15.76,15.76,0,0,1,.27,2.16c.09,1.23.13,1.85.22,3.1.23,0,.34.07.55.12,0,1.87,0,2.8,0,4.67-.76-.28-1.16-.42-2-.69-.11-2.18-.17-3.27-.28-5.42,0-.64-.07-1.19-.13-1.65a6.18,6.18,0,0,0-.24-1.15,1.84,1.84,0,0,0-.36-.66.76.76,0,0,0-.51-.23l-.64,0v4.65l.69.12v3.93c-1.23-.35-1.87-.52-3.2-.83V49.92l.82.12V37l-.82.12Zm2.51,3.24v5.17l1,0a.79.79,0,0,0,.49-.17,1.21,1.21,0,0,0,.37-.51,3.79,3.79,0,0,0,.24-.85,8.6,8.6,0,0,0,.08-1.22,5.06,5.06,0,0,0-.3-2c-.19-.45-.49-.64-.88-.56Z"/><path class="cls-2" d="M59.78,28c-1-1-2-2.07-3-3.21-.36-.41-.73-.83-1.12-1.25l-1-1.1a34.22,34.22,0,0,0-4.27-4.33,10.82,10.82,0,0,0-4.29-2.39.9.9,0,0,0,0-.18v0a5,5,0,0,0-.42-1.23,13.77,13.77,0,0,0-3.6-4.93A9.42,9.42,0,0,0,36.36,7.2a7.35,7.35,0,0,0-1.65.14,18.78,18.78,0,0,0-1.45-2.5,8.24,8.24,0,0,0-4.06-3.3,4.55,4.55,0,0,1-1-.51L27.73.74A6.24,6.24,0,0,0,24.9,0,5.87,5.87,0,0,0,22,.7h-.11L21.33.64,21,.6l-.39,0h-.85A29.07,29.07,0,0,0,16,.9a6.69,6.69,0,0,0-3.27,1.76,3.9,3.9,0,0,1-.67.47,2.45,2.45,0,0,0-1,.88,10.19,10.19,0,0,0-1,2.3,4.22,4.22,0,0,0,.29,3.26,6.92,6.92,0,0,0,1.77,2,3.63,3.63,0,0,0,1.76.83.63.63,0,0,0,.59-.3.94.94,0,0,0-.08-.84,1.61,1.61,0,0,1-.12-.38,2.18,2.18,0,0,1,.4-1.12c.18-.24.32-.26.64-.32l.18,0,.36-.06a6.26,6.26,0,0,0,1-.22,3.06,3.06,0,0,1,1.74,1.22,5.37,5.37,0,0,1,.67,3.43A9.13,9.13,0,0,1,17.58,18c-1.77,2.51-4.91,4.88-9.07,6.86A58.1,58.1,0,0,1,0,28a109,109,0,0,0,27.82,4A107.32,107.32,0,0,0,58,28.51l-.33-.31a17.15,17.15,0,0,0-2.2-1.84,4.93,4.93,0,0,0-1.93-.68,6.62,6.62,0,0,1-1.38-.38,2.17,2.17,0,0,1-.89-1.07A2.53,2.53,0,0,0,50.17,23a1.75,1.75,0,0,0-.55-.12,3.18,3.18,0,0,0-1.09.27,2.9,2.9,0,0,1-.94.24,1.46,1.46,0,0,1-.22,0,.84.84,0,0,1-.66-.74,2.24,2.24,0,0,1,0-.68,2,2,0,0,0,0-.94.94.94,0,0,0-1-.66h-.07a3.93,3.93,0,0,0-1.65.51,6.75,6.75,0,0,1-.75.32,2.66,2.66,0,0,1-.92.16c-.78,0-1.25-.48-1.35-1.36-.23-1.89,1.92-3.37,3.45-3.78a3.45,3.45,0,0,1,1-.11c1.81,0,3.59,1.44,4.76,2.38a34.81,34.81,0,0,1,4.23,4.27l1,1.1,1.11,1.25c1,1.09,1.87,2.13,2.84,3.08l.17.16.38-.23ZM28.43,4.21a1.28,1.28,0,0,0-.8,1.35,2.14,2.14,0,0,1-.18.86.59.59,0,0,1-.59.37,2.74,2.74,0,0,1-.64-.12,3.83,3.83,0,0,0-.74-.13,1.18,1.18,0,0,0-.43.07,1,1,0,0,0-.33.22.58.58,0,0,1-.19.14.65.65,0,0,1-.26,0L24,7l-.18,0-.49,0a1.35,1.35,0,0,0-1.3.69,1.89,1.89,0,0,0-.18.43.76.76,0,0,1-.24.45.65.65,0,0,1-.42.16c-.36,0-.68-.49-.79-.94A1.5,1.5,0,0,0,18.9,6.5a1.91,1.91,0,0,0-1.17.39.78.78,0,0,0-.32.88,1,1,0,0,1,0,.35c-.1.58-1,.71-1.65.81L15.4,9l-.17,0a1.2,1.2,0,0,0-.91.48,2.5,2.5,0,0,0-.48,1.38,1.37,1.37,0,0,0,.15.54c.06.16.15.38.1.46s-.07.1-.21.09a3,3,0,0,1-1.52-.75A6.38,6.38,0,0,1,10.7,9.34a3.84,3.84,0,0,1-.25-2.9,10.43,10.43,0,0,1,1-2.2,2.1,2.1,0,0,1,.86-.75A3.78,3.78,0,0,0,13.05,3a6.25,6.25,0,0,1,3-1.65A28.08,28.08,0,0,1,19.74,1H21l.3,0a4.51,4.51,0,0,0,.6.08.7.7,0,0,0,.32-.06A5.3,5.3,0,0,1,24.89.43a5.65,5.65,0,0,1,2.63.68L28,1.4a5.27,5.27,0,0,0,1.06.54A7.85,7.85,0,0,1,32.9,5.08c.1.13.19.28.28.42.24.36.47.73.68,1.11.1.17.18.36.29.54s.05.29-.09.32a.25.25,0,0,1-.27-.07,2.75,2.75,0,0,1-.17-.29c-.11-.2-.23-.38-.35-.57A6.51,6.51,0,0,0,31.79,5a4.3,4.3,0,0,0-2.28-1A2.54,2.54,0,0,0,28.43,4.21ZM45.45,15c-.15-.2-.32-.41-.49-.6L44.6,14c-.48-.61-2.41-2.22-3.9-2.25a1.45,1.45,0,0,0-1.43.9,1.56,1.56,0,0,0-.14.61c0,.26,0,.37-.34.5a.66.66,0,0,1-.33.07c-.41,0-.79-.36-1.19-.74a2.52,2.52,0,0,0-1.49-.86,1.1,1.1,0,0,0-.47.1.75.75,0,0,0-.51.64.74.74,0,0,1-.13.33.5.5,0,0,1-.4.14,2.21,2.21,0,0,1-.59-.12l-.27-.1a3.75,3.75,0,0,0-1.13-.34.45.45,0,0,0-.43.2.75.75,0,0,0,.07.71.89.89,0,0,0,.48.44c.16.08.19.1.19.27,0,.44-.63.8-1.11.79a.67.67,0,0,1-.3-.06c-.5-.24-.76-1.23-.77-1.85a6.09,6.09,0,0,1,.82-3.29,5.78,5.78,0,0,1,5.12-2.47,9,9,0,0,1,5.47,2,13.35,13.35,0,0,1,3.49,4.78,5.53,5.53,0,0,1,.33.85Z"/><path class="cls-3" d="M33.27,6.54c.12.19.24.37.35.57a2.75,2.75,0,0,0,.17.29.25.25,0,0,0,.27.07c.14,0,.16-.22.09-.32s-.19-.37-.29-.54c-.21-.38-.44-.75-.68-1.11-.09-.14-.18-.29-.28-.42a7.85,7.85,0,0,0-3.84-3.14A5.27,5.27,0,0,1,28,1.4l-.48-.29A5.65,5.65,0,0,0,24.89.43a5.3,5.3,0,0,0-2.71.65.7.7,0,0,1-.32.06,4.51,4.51,0,0,1-.6-.08L21,1H19.74a28.08,28.08,0,0,0-3.66.31,6.25,6.25,0,0,0-3,1.65,3.78,3.78,0,0,1-.75.52,2.1,2.1,0,0,0-.86.75,10.43,10.43,0,0,0-1,2.2,3.84,3.84,0,0,0,.25,2.9,6.38,6.38,0,0,0,1.66,1.88,3,3,0,0,0,1.52.75c.14,0,.18,0,.21-.09s0-.3-.1-.46a1.37,1.37,0,0,1-.15-.54,2.5,2.5,0,0,1,.48-1.38A1.2,1.2,0,0,1,15.23,9l.17,0,.38-.06c.65-.1,1.55-.23,1.65-.81a1,1,0,0,0,0-.35.78.78,0,0,1,.32-.88A1.91,1.91,0,0,1,18.9,6.5a1.5,1.5,0,0,1,1.47,1.21c.11.45.43.94.79.94a.65.65,0,0,0,.42-.16A.76.76,0,0,0,21.82,8,1.89,1.89,0,0,1,22,7.61a1.35,1.35,0,0,1,1.3-.69l.49,0L24,7l.3,0a.65.65,0,0,0,.26,0,.58.58,0,0,0,.19-.14,1,1,0,0,1,.33-.22,1.18,1.18,0,0,1,.43-.07,3.83,3.83,0,0,1,.74.13,2.74,2.74,0,0,0,.64.12.59.59,0,0,0,.59-.37,2.14,2.14,0,0,0,.18-.86,1.28,1.28,0,0,1,.8-1.35A2.54,2.54,0,0,1,29.51,4a4.3,4.3,0,0,1,2.28,1A6.51,6.51,0,0,1,33.27,6.54Z"/><path class="cls-3" d="M41.82,9.66a9,9,0,0,0-5.47-2,5.78,5.78,0,0,0-5.12,2.47,6.09,6.09,0,0,0-.82,3.29c0,.62.27,1.61.77,1.85a.67.67,0,0,0,.3.06c.48,0,1.09-.35,1.11-.79,0-.17,0-.19-.19-.27a.89.89,0,0,1-.48-.44.75.75,0,0,1-.07-.71.45.45,0,0,1,.43-.2,3.75,3.75,0,0,1,1.13.34l.27.1a2.21,2.21,0,0,0,.59.12.5.5,0,0,0,.4-.14A.74.74,0,0,0,34.8,13a.75.75,0,0,1,.51-.64,1.1,1.1,0,0,1,.47-.1,2.52,2.52,0,0,1,1.49.86c.4.38.78.74,1.19.74a.66.66,0,0,0,.33-.07c.32-.13.32-.24.34-.5a1.56,1.56,0,0,1,.14-.61,1.45,1.45,0,0,1,1.43-.9c1.49,0,3.42,1.64,3.9,2.25l.36.44c.17.19.34.4.49.6l.19.25a5.53,5.53,0,0,0-.33-.85A13.35,13.35,0,0,0,41.82,9.66Z"/><path class="cls-3" d="M56.48,25.06l-1.11-1.25-1-1.1a34.81,34.81,0,0,0-4.23-4.27c-1.17-.94-3-2.35-4.76-2.38a3.45,3.45,0,0,0-1,.11c-1.53.41-3.68,1.89-3.45,3.78.1.88.57,1.35,1.35,1.36a2.66,2.66,0,0,0,.92-.16,6.75,6.75,0,0,0,.75-.32,3.93,3.93,0,0,1,1.65-.51h.07a.94.94,0,0,1,1,.66,2,2,0,0,1,0,.94,2.24,2.24,0,0,0,0,.68.84.84,0,0,0,.66.74,1.46,1.46,0,0,0,.22,0,2.9,2.9,0,0,0,.94-.24,3.18,3.18,0,0,1,1.09-.27,1.75,1.75,0,0,1,.55.12,2.53,2.53,0,0,1,1.1,1.25,2.17,2.17,0,0,0,.89,1.07,6.62,6.62,0,0,0,1.38.38,4.93,4.93,0,0,1,1.93.68,17.15,17.15,0,0,1,2.2,1.84l.33.31.45.4c.35-.2.7-.4,1-.61l-.17-.16C58.35,27.19,57.44,26.15,56.48,25.06Z"/><polygon class="cls-1" points="19.44 60.97 20.14 62.39 21.7 62.62 20.57 63.73 20.84 65.28 19.44 64.55 18.04 65.28 18.3 63.73 17.17 62.62 18.74 62.39 19.44 60.97"/><polygon class="cls-1" points="44.2 60.97 44.9 62.39 46.47 62.62 45.33 63.73 45.6 65.28 44.2 64.55 42.8 65.28 43.06 63.73 41.93 62.62 43.5 62.39 44.2 60.97"/><path class="cls-3" d="M24.33,65h.44V61.28H23.68V62H23V60.77h4.25V62h-.64v-.74H25.38V65h.49v.54H24.33Z"/><path class="cls-3" d="M27.86,60.77h1.53v.54h-.46V65h.46v.54H27.86V65h.46V61.31h-.46Z"/><path class="cls-3" d="M30.29,65h.45V61.37h-.45v-.6h1.5l1.52,4.11,1.53-4.11h1.43v.6h-.45V65h.45v.54H34.72V65h.51V61.33l-1.66,4.2H33l-1.69-4.21V65h.49v.54H30.29Z"/><path class="cls-3" d="M37.17,60.77h3.42v1.35h-.65v-.81h-1.7v1.53h1.43v.54H38.24V65h1.7v-.8h.65v1.34H37.17V65h.45V61.31h-.45Z"/></g></g></svg>