<svg xmlns="http://www.w3.org/2000/svg" width="39.441" height="45.5" viewBox="0 0 39.441 45.5">
  <path id="Tracé_16270" data-name="Tracé 16270" d="M35.642,24.373a12.321,12.321,0,0,0-1.748-.813,12.321,12.321,0,0,0,1.748-.813,12.223,12.223,0,0,0,6.1-10.552,12.355,12.355,0,0,0-6.12-1.626A12.175,12.175,0,0,0,29.543,12.2a12.874,12.874,0,0,0-1.586,1.1A12.1,12.1,0,0,0,22.021.81a12.1,12.1,0,0,0-5.937,12.483A11.1,11.1,0,0,0,14.5,12.175,12.175,12.175,0,0,0,8.42,10.548,12.412,12.412,0,0,0,2.3,12.175,12.137,12.137,0,0,0,8.4,22.726a12.321,12.321,0,0,0,1.748.813A12.031,12.031,0,0,0,2.3,34.9a12.355,12.355,0,0,0,6.12,1.626A12.175,12.175,0,0,0,14.5,34.9a12.874,12.874,0,0,0,1.586-1.1,12.64,12.64,0,0,0-.163,1.952,12.192,12.192,0,0,0,6.1,10.552,12.1,12.1,0,0,0,5.937-12.483,10.98,10.98,0,0,0,1.586,1.1,12.175,12.175,0,0,0,6.079,1.626,12.412,12.412,0,0,0,6.12-1.626,12.223,12.223,0,0,0-6.1-10.552Z" transform="translate(-2.3 -0.81)" fill="#324b56"/>
</svg>
