<svg xmlns="http://www.w3.org/2000/svg" viewBox="0 0 172.79 129.64"><defs><style>.cls-1{fill:#fff;}.cls-2{fill:#324b56;}</style></defs><title>Speech Ballon 03</title><g id="Calque_2" data-name="Calque 2"><g id="bubble_03" data-name="bubble 03"><path class="cls-1" d="M115.26,96.69l-.06-.13-.61-1a1,1,0,0,0-.85-.49l-1.16,0L96,94.93,23,94.89l-8.76,0H8.8L7.13,94.7l-.77-.22A7.62,7.62,0,0,1,1.54,91l-.09-.14C1,90.27,1,87.8,1,86c0-.71,0-1.43,0-2.09L1.07,66.4l.18-35.06L1.37,13.8l0-6.57V6.76l0-.27c0-.24.08-.48.1-.72A6,6,0,0,1,5.07,2.12l.69-.32.63-.14.28-.09.39-.12,1-.06.59-.06.23,0h3.27l8.76,0,72.93.07q9.15.06,18.33.07c6.07,0,11.56,0,16.76-.08L164,1a9.22,9.22,0,0,1,5.31,1.65A6.2,6.2,0,0,1,171,4.49l.09.11a.32.32,0,0,1,.05.14,1.07,1.07,0,0,0,.07.19,3.89,3.89,0,0,0,.27.54s0,.09,0,.14,0,.26.05.38l.1.84,0,15.35.11,62.74v3.86c0,.17-.05.33-.07.49s-.06.46-.08.69-.15.38-.22.57-.13.37-.22.55a7.31,7.31,0,0,1-4.1,3.16c-.4.09-.83.2-1.25.33l-1.85.16h-1.68l-1.95,0H132.08a1,1,0,0,0-1,.83l-.33,2-3.49,28.25Z"/><path class="cls-2" d="M164,2a8.24,8.24,0,0,1,4.75,1.48A5.15,5.15,0,0,1,170.16,5a.56.56,0,0,0,.05.08,2.67,2.67,0,0,0,.09.26l.21.43c0,.11,0,.22,0,.32l.1.8,0,15.29.06,31.37,0,31.36v3.81l-.06.43c0,.19-.05.37-.07.56s-.13.33-.18.48-.11.3-.16.42a6.45,6.45,0,0,1-3.46,2.66c-.39.09-.8.19-1.21.31l-1.73.15h-1.59l-2,0H132.08a2,2,0,0,0-2,1.66l-.34,2s0,.06,0,.09l-3,24.44L116.18,96.31a1.92,1.92,0,0,0-.12-.25l-.61-1a2,2,0,0,0-1.69-1l-1.19,0-16.63-.09L23,93.89l-8.78,0H8.88L8,93.77l-.72-.06-.73-.2a6.61,6.61,0,0,1-4.16-3c0-.08-.1-.16-.15-.24A16.74,16.74,0,0,1,2,86c0-.7,0-1.44,0-2.08l.06-17.52.18-35.06.12-17.54,0-4.38,0-2.21V6.84l0-.2c0-.21.07-.45.1-.7A5.06,5.06,0,0,1,5.49,3l.6-.27.52-.12.14,0L7,2.52l.25-.08.9-.06h.06l.53,0,.16,0h3.26l8.78,0,72.9.07c7.35.05,13,.07,18.34.07,6.08,0,11.57,0,16.78-.08L164,2m0-2L128.92.41q-8.37.09-16.76.08Q103,.49,93.84.42L20.92.35l-8.77,0H8.8l-.25,0L8,.39,6.9.46,6.16.68,5.44.85l-.77.35A6.92,6.92,0,0,0,.57,5.61c0,.24-.06.48-.09.72l-.06.35v.54l0,2.2,0,4.37L.25,31.34.07,66.4,0,83.92c.06,2.79-.27,6.41.65,7.59a8.57,8.57,0,0,0,5.43,3.94l.87.24.9.07.93.07,1.09,0h4.37l8.77,0,72.92,0,16.62.09,1.16,0,.61,1,13.46,32.57,4-32,.33-2h28.27l2,0H164l.11,0,2-.16c.44-.15.9-.26,1.36-.37a8.31,8.31,0,0,0,4.69-3.68c.21-.42.32-.86.52-1.29,0-.46.11-.88.17-1.38V84.92l0-31.37-.06-31.37,0-15.4-.11-1c-.06-.32-.06-.74-.17-.82a4.3,4.3,0,0,1-.24-.48,1.23,1.23,0,0,0-.26-.55,7.18,7.18,0,0,0-2-2.12A10.28,10.28,0,0,0,164,0Z"/></g></g></svg>