<svg xmlns="http://www.w3.org/2000/svg" viewBox="0 0 177.01 118.69"><defs><style>.cls-1{fill:#fff;}.cls-2{fill:#324b56;}</style></defs><title>Speech Ballon 05</title><g id="Calque_2" data-name="Calque 2"><g id="bubble_05" data-name="bubble 05"><path class="cls-1" d="M70.16,98.21a6.52,6.52,0,0,0-6-3.86L26.35,95.86l-.51,0a10.45,10.45,0,0,1-9.68-6.62L2.48,50.7A21.43,21.43,0,0,1,10.8,24.89,21.25,21.25,0,0,1,19.22,22L166.56,1.39q.38-.06.75-.15a6.85,6.85,0,0,1,6.83,2A6.75,6.75,0,0,1,176,8.32l-4,70.12a12.78,12.78,0,0,1-12.2,12.06l-76.3,3.07a6.5,6.5,0,0,0-6.25,6.51V114Z"/><path class="cls-2" d="M169.11,2a6,6,0,0,1,4.3,1.88A5.8,5.8,0,0,1,175,8.26l-4,70.12A11.78,11.78,0,0,1,159.72,89.5L83.41,92.57a7.49,7.49,0,0,0-7.21,7.51v9.22L71.08,97.81a7.53,7.53,0,0,0-6.87-4.46L26.29,94.87h-.45a9.44,9.44,0,0,1-8.74-5.95L3.42,50.37l0-.06a20.41,20.41,0,0,1,7.93-24.57,20,20,0,0,1,8-2.76L166.69,2.38a8.1,8.1,0,0,0,.88-.18,6.26,6.26,0,0,1,1.54-.2m0-2a8,8,0,0,0-2.05.27,4.52,4.52,0,0,1-.64.12L19.08,21a22.15,22.15,0,0,0-8.82,3.06A22.36,22.36,0,0,0,1.54,51L15.23,89.62a11.45,11.45,0,0,0,10.61,7.26l.55,0,37.82-1.51a5.53,5.53,0,0,1,5,3.27l9,20.07V100.08a5.52,5.52,0,0,1,5.29-5.51L159.8,91.5a13.78,13.78,0,0,0,13.15-13l4-70.11a7.79,7.79,0,0,0-2.12-5.87A8,8,0,0,0,169.11,0Z"/></g></g></svg>