<svg xmlns="http://www.w3.org/2000/svg" viewBox="0 0 197.29 149.63"><defs><style>.cls-1{fill:#ff7d97;}.cls-2{fill:#fff;}.cls-3{fill:none;}.cls-4{fill:#324b56;}</style></defs><title>Speech Ballon 08</title><g id="Calque_2" data-name="Calque 2"><g id="bubble_08" data-name="bubble 08"><path class="cls-1" d="M19.3,108.37c-1.81,0-3.92.9-6.26,2.63a34.8,34.8,0,0,0-6.73,6.67,22.66,22.66,0,0,0-4.12,7.65A37.3,37.3,0,0,0,1,135.64,14.44,14.44,0,0,0,4,145a8.57,8.57,0,0,0,6.9,3.63,9.82,9.82,0,0,0,6.65-2.52,7.23,7.23,0,0,0,2.8-5.55,5.17,5.17,0,0,0-1.52-4,34.18,34.18,0,0,0-4.32-3.28,6.54,6.54,0,0,1-3.29-5,11.85,11.85,0,0,1,.57-5.07A15.27,15.27,0,0,1,16,116.46a30.59,30.59,0,0,1,5.76-4.18c1.08-1.47.59-2.16.4-2.42A3.89,3.89,0,0,0,19.3,108.37Z"/><path class="cls-1" d="M193.29,4.62A8.59,8.59,0,0,0,186.38,1a9.83,9.83,0,0,0-6.65,2.52,7.21,7.21,0,0,0-2.8,5.55,5.15,5.15,0,0,0,1.52,4,31.9,31.9,0,0,0,4.33,3.28,6.56,6.56,0,0,1,3.28,5,11.85,11.85,0,0,1-.57,5.07,15.3,15.3,0,0,1-4.2,6.73,31,31,0,0,1-5.77,4.19c-1.08,1.46-.59,2.15-.4,2.42A4,4,0,0,0,178,41.26c1.82,0,3.92-.91,6.26-2.64A34,34,0,0,0,191,32a22.4,22.4,0,0,0,4.12-7.65A37.25,37.25,0,0,0,196.29,14,14.51,14.51,0,0,0,193.29,4.62Z"/><path class="cls-1" d="M45.71,109.37c-1.59,0-3.47.86-5.61,2.44a31.86,31.86,0,0,0-3.44,3c-.48.48-.95,1-1.4,1.49s-1.14,1.31-1.68,2a21.53,21.53,0,0,0-4,7.34,36.42,36.42,0,0,0-1.14,10,13.32,13.32,0,0,0,2.78,8.73,7.66,7.66,0,0,0,6.13,3.26,8.77,8.77,0,0,0,6-2.27,6.3,6.3,0,0,0,2.46-4.8,4.19,4.19,0,0,0-1.2-3.29,32.15,32.15,0,0,0-4.19-3.18,7.52,7.52,0,0,1-3.74-5.73,12.79,12.79,0,0,1,.63-5.5,17.92,17.92,0,0,1,1-2.38,14.6,14.6,0,0,1,1.07-1.89,15.19,15.19,0,0,1,2.44-2.86,31.49,31.49,0,0,1,5.75-4.21c.51-.75.33-1,.27-1.08A2.8,2.8,0,0,0,45.71,109.37Z"/><path class="cls-1" d="M159.92,2a8.7,8.7,0,0,0-6,2.27,6.24,6.24,0,0,0-2.46,4.8,4.24,4.24,0,0,0,1.19,3.29,32.15,32.15,0,0,0,4.19,3.17,7.52,7.52,0,0,1,3.74,5.73,12.94,12.94,0,0,1-.62,5.5,17.25,17.25,0,0,1-2.08,4.34,12.6,12.6,0,0,1-1.27,1.64,13.73,13.73,0,0,1-1.13,1.16,31.61,31.61,0,0,1-5.75,4.21c-.5.74-.33,1-.27,1.07a2.76,2.76,0,0,0,2.12,1.08c1.58,0,3.46-.86,5.6-2.44.63-.47,1.25-1,1.85-1.49s1-.9,1.49-1.38a34.5,34.5,0,0,0,3.18-3.59,21.71,21.71,0,0,0,4-7.34,36.45,36.45,0,0,0,1.15-10A13.31,13.31,0,0,0,166,5.25,7.63,7.63,0,0,0,159.92,2Z"/><path class="cls-2" d="M158.38,39.42c-2.56,1.9-4.87,2.84-6.92,2.84a5,5,0,0,1-3.62-1.91q-1.14-1.62.55-3.78a29.32,29.32,0,0,0,5.75-4.15,13.1,13.1,0,0,0,1.26-1.32,73.16,73.16,0,0,0-50-28.66L98.64,2H15.15l3.63,3.83C37.27,25.32,33,38.1,29.18,49.37l-.29.88c-.16.47-.32,1-.46,1.41A82.41,82.41,0,0,0,24.69,74.8a72.32,72.32,0,0,0,10.88,38.25,32.05,32.05,0,0,1,3.34-2.85q3.84-2.83,6.92-2.83a4.92,4.92,0,0,1,3.62,1.91c.77,1.07.58,2.34-.55,3.77a29.73,29.73,0,0,0-5.75,4.15,13.21,13.21,0,0,0-2.48,3.07A72.79,72.79,0,0,0,170.34,74.8,71.64,71.64,0,0,0,160.1,38.06C159.54,38.53,159,39,158.38,39.42Z"/><path class="cls-3" d="M170.34,74.8A72.79,72.79,0,0,1,40.67,120.27a13.21,13.21,0,0,1,2.48-3.07,29.73,29.73,0,0,1,5.75-4.15c1.13-1.43,1.32-2.7.55-3.77a4.92,4.92,0,0,0-3.62-1.91q-3.07,0-6.92,2.83a32.05,32.05,0,0,0-3.34,2.85A72.32,72.32,0,0,1,24.69,74.8a82.41,82.41,0,0,1,3.74-23.14c.14-.46.3-.94.46-1.41l.29-.88c3.79-11.27,8.09-24-10.4-43.54L15.15,2H98.64l6.74.44a73.16,73.16,0,0,1,50,28.66,13.1,13.1,0,0,1-1.26,1.32,29.32,29.32,0,0,1-5.75,4.15q-1.69,2.16-.55,3.78a5,5,0,0,0,3.62,1.91c2,0,4.36-.94,6.92-2.84.59-.43,1.16-.89,1.72-1.36A71.64,71.64,0,0,1,170.34,74.8Z"/><path class="cls-3" d="M168.83,14a36.45,36.45,0,0,1-1.15,10,21.71,21.71,0,0,1-4,7.34A34.5,34.5,0,0,1,160.53,35c-.48.48-1,.94-1.49,1.38s-1.22,1-1.85,1.49c-2.14,1.58-4,2.4-5.6,2.44a2.76,2.76,0,0,1-2.12-1.08c-.06-.08-.23-.33.27-1.07a31.61,31.61,0,0,0,5.75-4.21,13.73,13.73,0,0,0,1.13-1.16,12.6,12.6,0,0,0,1.27-1.64A17.25,17.25,0,0,0,160,26.76a12.94,12.94,0,0,0,.62-5.5,7.52,7.52,0,0,0-3.74-5.73,32.15,32.15,0,0,1-4.19-3.17,4.24,4.24,0,0,1-1.19-3.29,6.24,6.24,0,0,1,2.46-4.8,8.7,8.7,0,0,1,6-2.27A7.63,7.63,0,0,1,166,5.25,13.31,13.31,0,0,1,168.83,14Z"/><path class="cls-3" d="M37.33,122.86a12.79,12.79,0,0,0-.63,5.5,7.52,7.52,0,0,0,3.74,5.73,32.15,32.15,0,0,1,4.19,3.18,4.19,4.19,0,0,1,1.2,3.29,6.3,6.3,0,0,1-2.46,4.8,8.77,8.77,0,0,1-6,2.27,7.66,7.66,0,0,1-6.13-3.26,13.32,13.32,0,0,1-2.78-8.73,36.42,36.42,0,0,1,1.14-10,21.53,21.53,0,0,1,4-7.34c.54-.7,1.09-1.37,1.68-2s.92-1,1.4-1.49a31.86,31.86,0,0,1,3.44-3c2.14-1.58,4-2.4,5.61-2.44a2.8,2.8,0,0,1,2.11,1.07c.06.09.24.33-.27,1.08a31.49,31.49,0,0,0-5.75,4.21,15.19,15.19,0,0,0-2.44,2.86,14.6,14.6,0,0,0-1.07,1.89A17.92,17.92,0,0,0,37.33,122.86Z"/><path class="cls-3" d="M19.24,109.37c-1.58,0-3.47.86-5.6,2.44a32.94,32.94,0,0,0-6.52,6.46,21.53,21.53,0,0,0-4,7.34,36.37,36.37,0,0,0-1.15,10,13.32,13.32,0,0,0,2.78,8.73,7.66,7.66,0,0,0,6.13,3.26,8.77,8.77,0,0,0,6-2.27,6.27,6.27,0,0,0,2.46-4.8,4.22,4.22,0,0,0-1.19-3.29,33,33,0,0,0-4.2-3.18,7.54,7.54,0,0,1-3.74-5.73,12.94,12.94,0,0,1,.63-5.5,16.28,16.28,0,0,1,4.47-7.13,31.83,31.83,0,0,1,5.75-4.21c.51-.75.34-1,.28-1.08A2.83,2.83,0,0,0,19.24,109.37Z"/><path class="cls-4" d="M19.36,107.37q-3.08,0-6.91,2.83a35,35,0,0,0-6.92,6.85,23.4,23.4,0,0,0-4.3,8A38.06,38.06,0,0,0,0,135.64a15.38,15.38,0,0,0,3.23,10,9.63,9.63,0,0,0,7.68,4,10.77,10.77,0,0,0,7.31-2.77,8.2,8.2,0,0,0,3.14-6.3,6.11,6.11,0,0,0-1.84-4.76,33.86,33.86,0,0,0-4.46-3.39,5.56,5.56,0,0,1-2.83-4.23,10.78,10.78,0,0,1,.52-4.68,14.27,14.27,0,0,1,3.93-6.3,29.8,29.8,0,0,1,5.76-4.15c1.12-1.43,1.31-2.7.54-3.77A4.92,4.92,0,0,0,19.36,107.37Zm1.72,4.15a31.83,31.83,0,0,0-5.75,4.21,16.28,16.28,0,0,0-4.47,7.13,12.94,12.94,0,0,0-.63,5.5A7.54,7.54,0,0,0,14,134.09a33,33,0,0,1,4.2,3.18,4.22,4.22,0,0,1,1.19,3.29,6.27,6.27,0,0,1-2.46,4.8,8.77,8.77,0,0,1-6,2.27,7.66,7.66,0,0,1-6.13-3.26A13.32,13.32,0,0,1,2,135.64a36.37,36.37,0,0,1,1.15-10,21.53,21.53,0,0,1,4-7.34,32.94,32.94,0,0,1,6.52-6.46c2.13-1.58,4-2.4,5.6-2.44a2.83,2.83,0,0,1,2.12,1.07C21.42,110.53,21.59,110.77,21.08,111.52Z"/><path class="cls-3" d="M186.38,2a8.72,8.72,0,0,0-6,2.27,6.27,6.27,0,0,0-2.46,4.8,4.2,4.2,0,0,0,1.2,3.29,32.15,32.15,0,0,0,4.19,3.17,7.55,7.55,0,0,1,3.74,5.73,12.79,12.79,0,0,1-.63,5.5A16.16,16.16,0,0,1,182,33.9a32,32,0,0,1-5.75,4.21c-.51.74-.33,1-.27,1.07a2.76,2.76,0,0,0,2.11,1.08c1.59,0,3.47-.86,5.61-2.44a33.21,33.21,0,0,0,6.52-6.46,21.89,21.89,0,0,0,4-7.34,36.5,36.5,0,0,0,1.14-10,13.36,13.36,0,0,0-2.78-8.73A7.65,7.65,0,0,0,186.38,2Z"/><path class="cls-4" d="M194.07,4a9.65,9.65,0,0,0-7.69-4,10.78,10.78,0,0,0-7.31,2.76,8.23,8.23,0,0,0-3.14,6.31,6.15,6.15,0,0,0,1.85,4.76,33.7,33.7,0,0,0,4.45,3.38,5.62,5.62,0,0,1,2.84,4.23,10.89,10.89,0,0,1-.53,4.68,14.27,14.27,0,0,1-3.93,6.3,29.32,29.32,0,0,1-5.75,4.15c-1.13,1.44-1.32,2.7-.55,3.78a5,5,0,0,0,3.62,1.91c2,0,4.35-.94,6.92-2.84a34.94,34.94,0,0,0,6.91-6.84,23.49,23.49,0,0,0,4.3-8A38.14,38.14,0,0,0,197.29,14,15.42,15.42,0,0,0,194.07,4Zm.08,20a21.89,21.89,0,0,1-4,7.34,33.21,33.21,0,0,1-6.52,6.46c-2.14,1.58-4,2.4-5.61,2.44a2.76,2.76,0,0,1-2.11-1.08c-.06-.08-.24-.33.27-1.07A32,32,0,0,0,182,33.9a16.16,16.16,0,0,0,4.47-7.14,12.79,12.79,0,0,0,.63-5.5,7.55,7.55,0,0,0-3.74-5.73,32.15,32.15,0,0,1-4.19-3.17,4.2,4.2,0,0,1-1.2-3.29,6.27,6.27,0,0,1,2.46-4.8,8.72,8.72,0,0,1,6-2.27,7.65,7.65,0,0,1,6.13,3.25A13.36,13.36,0,0,1,195.29,14,36.5,36.5,0,0,1,194.15,24Z"/><path class="cls-4" d="M161.61,36.69a35.43,35.43,0,0,0,3.68-4.11,23.53,23.53,0,0,0,4.31-8A38.14,38.14,0,0,0,170.83,14,15.42,15.42,0,0,0,167.6,4a9.62,9.62,0,0,0-7.68-4,10.76,10.76,0,0,0-7.31,2.76,8.23,8.23,0,0,0-3.14,6.31,6.14,6.14,0,0,0,1.84,4.76,33.19,33.19,0,0,0,4.46,3.38,5.58,5.58,0,0,1,2.83,4.23,10.89,10.89,0,0,1-.53,4.68,15.21,15.21,0,0,1-1.47,3.27,75.06,75.06,0,0,0-51-28.95L98.71,0H14.46a1.71,1.71,0,0,0-1.57,1,1.69,1.69,0,0,0,.34,1.84l4.1,4.32C35,25.82,31.08,37.46,27.28,48.73c-.25.79-.52,1.57-.76,2.34A84.63,84.63,0,0,0,22.69,74.8a74.33,74.33,0,0,0,11.44,39.72c-.74.8-1.45,1.64-2.13,2.53a23.4,23.4,0,0,0-4.3,8,38.06,38.06,0,0,0-1.23,10.6,15.38,15.38,0,0,0,3.22,10,9.64,9.64,0,0,0,7.69,4,10.81,10.81,0,0,0,7.31-2.77,8.2,8.2,0,0,0,3.14-6.3A6.12,6.12,0,0,0,46,135.8a33.71,33.71,0,0,0-4.45-3.39,5.57,5.57,0,0,1-2.84-4.23,10.93,10.93,0,0,1,.53-4.68,12.76,12.76,0,0,1,.47-1.27A74.79,74.79,0,0,0,172.34,74.8,73.67,73.67,0,0,0,161.61,36.69ZM97.51,147.63a72.69,72.69,0,0,1-56.84-27.36,13.21,13.21,0,0,1,2.48-3.07,29.73,29.73,0,0,1,5.75-4.15c1.13-1.43,1.32-2.7.55-3.77a4.92,4.92,0,0,0-3.62-1.91q-3.07,0-6.92,2.83a32.05,32.05,0,0,0-3.34,2.85A72.32,72.32,0,0,1,24.69,74.8a82.41,82.41,0,0,1,3.74-23.14c.14-.46.3-.94.46-1.41l.29-.88c3.79-11.27,8.09-24-10.4-43.54L15.15,2H98.64l6.74.44a73.16,73.16,0,0,1,50,28.66,13.1,13.1,0,0,1-1.26,1.32,29.32,29.32,0,0,1-5.75,4.15q-1.69,2.16-.55,3.78a5,5,0,0,0,3.62,1.91c2,0,4.36-.94,6.92-2.84.59-.43,1.16-.89,1.72-1.36A71.64,71.64,0,0,1,170.34,74.8,72.91,72.91,0,0,1,97.51,147.63ZM38.29,120.48a17.92,17.92,0,0,0-1,2.38,12.79,12.79,0,0,0-.63,5.5,7.52,7.52,0,0,0,3.74,5.73,32.15,32.15,0,0,1,4.19,3.18,4.19,4.19,0,0,1,1.2,3.29,6.3,6.3,0,0,1-2.46,4.8,8.77,8.77,0,0,1-6,2.27,7.66,7.66,0,0,1-6.13-3.26,13.32,13.32,0,0,1-2.78-8.73,36.42,36.42,0,0,1,1.14-10,21.53,21.53,0,0,1,4-7.34c.54-.7,1.09-1.37,1.68-2s.92-1,1.4-1.49a31.86,31.86,0,0,1,3.44-3c2.14-1.58,4-2.4,5.61-2.44a2.8,2.8,0,0,1,2.11,1.07c.06.09.24.33-.27,1.08a31.49,31.49,0,0,0-5.75,4.21,15.19,15.19,0,0,0-2.44,2.86A14.6,14.6,0,0,0,38.29,120.48ZM160,26.76a12.94,12.94,0,0,0,.62-5.5,7.52,7.52,0,0,0-3.74-5.73,32.15,32.15,0,0,1-4.19-3.17,4.24,4.24,0,0,1-1.19-3.29,6.24,6.24,0,0,1,2.46-4.8,8.7,8.7,0,0,1,6-2.27A7.63,7.63,0,0,1,166,5.25,13.31,13.31,0,0,1,168.83,14a36.45,36.45,0,0,1-1.15,10,21.71,21.71,0,0,1-4,7.34A34.5,34.5,0,0,1,160.53,35c-.48.48-1,.94-1.49,1.38s-1.22,1-1.85,1.49c-2.14,1.58-4,2.4-5.6,2.44a2.76,2.76,0,0,1-2.12-1.08c-.06-.08-.23-.33.27-1.07a31.61,31.61,0,0,0,5.75-4.21,13.73,13.73,0,0,0,1.13-1.16,12.6,12.6,0,0,0,1.27-1.64A17.25,17.25,0,0,0,160,26.76Z"/></g></g></svg>