<svg xmlns="http://www.w3.org/2000/svg" viewBox="0 0 193 176.87"><defs><style>.cls-1{fill:#fff;}.cls-2{fill:#324b56;}</style></defs><title>Speech Ballon 10</title><g id="Calque_2" data-name="Calque 2"><g id="bubble_10" data-name="bubble 10"><path class="cls-1" d="M144.9,175.44a55.84,55.84,0,0,1-37.38-21.86,1,1,0,0,0-.8-.4h0c-2.88.15-5.48.22-7.93.22-51.42,0-93.25-24.56-93.25-54.74,0-10,4.63-19.72,13.39-28.22a1,1,0,0,0,.29-.81,1,1,0,0,0-.44-.75C7.3,61.37,1,51.62,1,41.42,1,19.13,30.75,1,67.33,1s66.32,18.13,66.32,40.42a25,25,0,0,1-.6,5.35A1,1,0,0,0,133.8,48C169.15,56.4,192,76.31,192,98.66c0,25.14-29,47-70.54,53.09a1,1,0,0,0-.77.59,1,1,0,0,0,.09,1A74.22,74.22,0,0,0,144.9,175.44Z"/><path class="cls-2" d="M67.33,2c36,0,65.32,17.69,65.32,39.42a24.14,24.14,0,0,1-.57,5.13,2,2,0,0,0,1.48,2.38c16.91,4,31.3,10.86,41.61,19.73S191,87.94,191,98.66c0,12-6.75,23.43-19.52,33S141,147.85,121.31,150.76a2,2,0,0,0-1.35,3.12,75.36,75.36,0,0,0,20,19.65A54.89,54.89,0,0,1,108.32,153a2,2,0,0,0-1.59-.8h-.1c-2.87.14-5.44.21-7.89.21-50.87,0-92.25-24.11-92.25-53.74C6.49,89,11,79.47,19.57,71.16a2,2,0,0,0,.6-1.63,2,2,0,0,0-.89-1.48C8.14,60.73,2,51.27,2,41.42,2,19.69,31.3,2,67.33,2m0-2C30.14,0,0,18.55,0,41.42c0,10.95,6.91,20.9,18.18,28.3C9.49,78.16,4.49,88.06,4.49,98.66c0,30.78,42.2,55.74,94.25,55.74,2.7,0,5.35-.09,8-.22a56.87,56.87,0,0,0,43,22.69,73.19,73.19,0,0,1-28.14-24.13c41-6.05,71.4-28,71.4-54.08,0-23.4-24.4-43.42-59-51.68a25.82,25.82,0,0,0,.62-5.56C134.65,18.55,104.51,0,67.33,0Z"/></g></g></svg>