<svg xmlns="http://www.w3.org/2000/svg" viewBox="0 0 177.73 169.87"><defs><style>.cls-1{fill:#fff;}.cls-2{fill:#324b56;}</style></defs><title>Speech Ballon 09</title><g id="Calque_2" data-name="Calque 2"><g id="bubble_09" data-name="bubble 09"><path class="cls-1" d="M90.44,168.87l-.74,0-.64,0h-.39c-22.09-.46-44.3-9.64-60.94-25.17C10.49,127.56,1,106.71,1,84.93a83.94,83.94,0,1,1,163.5,26.71,1.19,1.19,0,0,0-.05.26c-1.29,3.56-10.71,32.31,11,56.93H91.84l-.65,0Z"/><path class="cls-2" d="M84.93,2a82.93,82.93,0,0,1,78.63,109.32,2.14,2.14,0,0,0-.09.34A59.8,59.8,0,0,0,160.25,131a56.77,56.77,0,0,0,13,36.85H91.82l-.67,0-.71,0-.7,0-.7,0h-.35c-21.85-.46-43.82-9.53-60.28-24.9C11.38,127,2,106.42,2,84.93A83,83,0,0,1,84.93,2m0-2A84.93,84.93,0,0,0,0,84.93c0,46.31,42.57,83.93,88.65,84.89H89c.47,0,.94,0,1.4,0s.94,0,1.4,0h85.89c-25-26.34-12.21-57.92-12.21-57.92l-.07,0A84.92,84.92,0,0,0,84.93,0Z"/></g></g></svg>