<svg xmlns="http://www.w3.org/2000/svg" viewBox="0 0 189 129.98"><defs><style>.cls-1{fill:#fff;}.cls-2{fill:#324b56;}</style></defs><title>Speech Ballon 06</title><g id="Calque_2" data-name="Calque 2"><g id="bubble_06" data-name="bubble 06"><path class="cls-1" d="M138.12,127.6c-6.71-3.93-23.42-15.42-31.51-26.85a1,1,0,0,0-.81-.43H20.49A19.51,19.51,0,0,1,1,80.83V20.49A19.51,19.51,0,0,1,20.49,1h148A19.51,19.51,0,0,1,188,20.49V80.83a19.51,19.51,0,0,1-19.49,19.49h-24.2a.94.94,0,0,0-.56.18c-2.79,1.88-7.63,6-8.82,12.58C134.1,117.62,135.17,122.49,138.12,127.6Z"/><path class="cls-2" d="M168.51,2A18.52,18.52,0,0,1,187,20.49V80.83a18.51,18.51,0,0,1-18.49,18.49h-24.2a2,2,0,0,0-1.13.35c-2.91,2-8,6.32-9.24,13.23a20.53,20.53,0,0,0,1.7,12c-7.68-4.9-21.21-14.83-28.21-24.73a2,2,0,0,0-1.63-.85H20.49A18.51,18.51,0,0,1,2,80.83V20.49A18.52,18.52,0,0,1,20.49,2h148m0-2h-148A20.55,20.55,0,0,0,0,20.49V80.83a20.55,20.55,0,0,0,20.49,20.49H105.8c10,14.2,33.36,28.66,35,28.66,0,0,.06,0,.07,0-11.39-16.17-1-25.56,3.49-28.64h24.2A20.55,20.55,0,0,0,189,80.83V20.49A20.55,20.55,0,0,0,168.51,0Z"/></g></g></svg>