<svg xmlns="http://www.w3.org/2000/svg" viewBox="0 0 171.71 176.83"><defs><style>.cls-1{fill:#fff;}.cls-2{fill:#324b56;}</style></defs><title>Speech Ballon 07</title><g id="Calque_2" data-name="Calque 2"><g id="bubble_07" data-name="bubble 07"><path class="cls-1" d="M170.48,70.83,170,74.72a15,15,0,0,1-.56,2.76c-.13.48-.25,1-.37,1.46l-.9,3.48-.44,1.15a62.26,62.26,0,0,1-12.25,20.84,84,84,0,0,1-23.8,18.72,97.17,97.17,0,0,1-25.81,9.35l.77.52,1.08.88a6,6,0,0,1,.54.49l.73.71a6.45,6.45,0,0,1,.45.48l.86,1,.14.2a17.39,17.39,0,0,1,2.65,4.93,15.63,15.63,0,0,1,.87,6,9,9,0,0,1,2.74,1,10.84,10.84,0,0,1,3.06,2.65,11.67,11.67,0,0,1,1.8,3.26l.1.24.23.79a2.66,2.66,0,0,1,.1.38l.14.71a4.39,4.39,0,0,1,.07.44l.12,1.09,0,1a3.93,3.93,0,0,1,0,.48l0,.71a2.55,2.55,0,0,1,0,.43l-.15.9,0,.16c0,.19-.08.38-.14.57a4,4,0,0,1,1.27-.21h.2a4.09,4.09,0,0,1,2,.66,5.81,5.81,0,0,1,1.61,1.56,7.19,7.19,0,0,1,1,1.94s.07.23.07.23l.11.41a1.46,1.46,0,0,1,0,.2l.08.44c0,.12,0,.2,0,.27l.07.69v.57a2.62,2.62,0,0,1,0,.28l0,.44c0,.11,0,.18,0,.25l-.08.58a8.29,8.29,0,0,1-.78,2.21,6.11,6.11,0,0,1-1.44,1.82,4.3,4.3,0,0,1-1.94.95l-.49.07H123l-.16,0a1.76,1.76,0,0,1-.39-.06l-.35-.1-.3-.11a2,2,0,0,1-.38-.18l-.27-.14-.11-.08-.31-.21-.11-.1a5.61,5.61,0,0,1-1.15-1.24,8.22,8.22,0,0,1-1.39-4.28v-.62a.76.76,0,0,1,0-.16v-.14l-.18.15a8.93,8.93,0,0,1-3.81,1.68l-.94.11h-.81a2.11,2.11,0,0,1-.35,0l-.3,0a4.42,4.42,0,0,1-.86-.14l-.63-.15-.59-.2a6.15,6.15,0,0,1-.76-.32c-.14-.07-.29-.15-.44-.21l-.84-.51-.25-.19a10.35,10.35,0,0,1-2.17-2.11,12.56,12.56,0,0,1-2.53-6.49,15.61,15.61,0,0,1-2.56.19h-.64a18.67,18.67,0,0,1-10.38-3.83l-1.12-.92-.37-.34-.72-.72a6.87,6.87,0,0,1-.69-.76L85.7,153l-.3-.36-.39-.57a16.49,16.49,0,0,1-2.31-4.59,6.14,6.14,0,0,1-.25-.84l-.13-.56a5.62,5.62,0,0,1-.17-.77L82,144.21l-.06-1.27a2.44,2.44,0,0,1,0-.27l0-.86c0-.21,0-.42,0-.63a5.54,5.54,0,0,0,.1-.61,8.09,8.09,0,0,1,.22-1.13,13.24,13.24,0,0,1,2.21-4.69h-.38c-.66,0-1.31,0-2,0-1,0-1.91,0-2.77-.11l-2.1-.13a69,69,0,0,1-7.86-.76l-5-.74-5-1.12a55.49,55.49,0,0,1-6.73-1.87c-1.08-.35-2.16-.7-3.24-1s-2.11-.81-3.17-1.24l-1.69-.69-2.47-1c-.49-.21-1-.47-1.49-.73l-.87-.44a77.6,77.6,0,0,1-18.16-12.1C9.37,102.1,1.85,87.22,1,72l.07-5.66a12.55,12.55,0,0,1,.17-2.07l.12-.85.42-3.08a22.57,22.57,0,0,1,.89-4.14c.16-.56.31-1.11.46-1.68.08-.3.18-.64.27-1,.16-.61.32-1.22.52-1.82L5,49a62,62,0,0,1,12.1-19.1,29.13,29.13,0,0,1,2.88-3l1-1,.83-.79A32.4,32.4,0,0,1,25,22.39L29.33,19l4.43-2.91.77-.51c.47-.31.94-.62,1.42-.89l2.32-1.25,1.62-.87c1-.53,2-1.09,3-1.57s2-.87,3.06-1.33a52.36,52.36,0,0,1,6.37-2.53A109.12,109.12,0,0,1,89,1h1.31a100.8,100.8,0,0,1,34.12,6.4A84.94,84.94,0,0,1,150.2,22.67,61.71,61.71,0,0,1,165,41.47l.6,1.12,1.35,3.33c.17.45.36.91.54,1.35a14.22,14.22,0,0,1,.9,2.58l1,3.72a16.75,16.75,0,0,1,.62,2.9l.74,5.76,0,5.6A16.61,16.61,0,0,1,170.48,70.83Z"/><path class="cls-2" d="M171.7,67.83c0-3.58,0-5.49,0-5.49v-.19s-.26-2-.74-5.76a18.53,18.53,0,0,0-.65-3.08c-.3-1.12-.62-2.34-1-3.66a30.19,30.19,0,0,0-1.49-4.1l-.9-2.23c-.16-.38-.31-.77-.47-1.16s-.41-.74-.61-1.12a62.76,62.76,0,0,0-15-19.12A85.38,85.38,0,0,0,124.8,6.48,101.79,101.79,0,0,0,90.34,0H89V2h1.28a99.49,99.49,0,0,1,33.78,6.34,83.81,83.81,0,0,1,25.44,15.06A60.49,60.49,0,0,1,164,41.9l.05.09.3.56.25.46.21.5.22.56.65,1.59.24.61c.18.48.37.94.56,1.39a14.35,14.35,0,0,1,.84,2.39.43.43,0,0,1,0,.11c.35,1.32.68,2.54,1,3.68a16,16,0,0,1,.58,2.72s0,.06,0,.09l.73,5.66v0l0,5.49a.45.45,0,0,0,0,.11,17.83,17.83,0,0,1-.22,2.77c-.12.94-.24,1.94-.37,3l-.11.87a.31.31,0,0,0,0,.1,14.34,14.34,0,0,1-.53,2.53c-.12.47-.25,1-.37,1.46L167.51,81l-.14.52-.15.6-.42,1.09,0,.1a61.6,61.6,0,0,1-12.05,20.45,83,83,0,0,1-23.52,18.49,96,96,0,0,1-25.1,9.17l-.16-.1a5.63,5.63,0,0,0-.7-.42l-.86-.48a9.71,9.71,0,0,0-1-.47l-.56-.25-.29-.13-.3-.1a18,18,0,0,0-5.69-1.13h-.59a16.47,16.47,0,0,0-5.69,1,14.07,14.07,0,0,0-5.48,3.6c-.25.27-.49.55-.71.84-.63,0-1.24,0-1.88,0-1,0-1.86,0-2.72-.11l-2.09-.13a66.28,66.28,0,0,1-7.74-.75h-.06l-5-.72-2-.46-2.9-.66h-.07A54.61,54.61,0,0,1,53,129.11c-1-.34-2.13-.69-3.22-1s-2-.78-3.11-1.23l-1.7-.68-2.44-1c-.46-.2-.93-.44-1.43-.7l-.9-.46,0,0a76.34,76.34,0,0,1-17.9-11.93C10.25,101.54,2.86,86.94,2,72l.06-5.66v-.12a11.81,11.81,0,0,1,.16-1.82c0-.3.09-.59.11-.83l.43-3.1a.28.28,0,0,0,0-.09,21.81,21.81,0,0,1,.85-3.92c.16-.55.32-1.11.46-1.67.09-.34.18-.68.28-1,.15-.59.3-1.15.48-1.69L5.94,49.4A61,61,0,0,1,17.85,30.6l.11-.12a26.6,26.6,0,0,1,2.72-2.82l1-.95.84-.81a31.32,31.32,0,0,1,3.08-2.7l.06-.05L27.18,22l2.7-2.13,2-1.31,2.42-1.58.81-.53c.47-.31.91-.61,1.32-.84l2.32-1.25,1.63-.88c1-.54,1.94-1.06,2.91-1.52s2.08-.9,3.08-1.35A52.31,52.31,0,0,1,52.6,8.09l.09,0A108.24,108.24,0,0,1,89,2V0h0A110.72,110.72,0,0,0,52,6.17a102.91,102.91,0,0,0-9.57,3.92c-1.57.76-3.1,1.64-4.66,2.46l-2.33,1.26c-.77.43-1.5,1-2.25,1.44l-4.5,2.95-4.29,3.38a45.87,45.87,0,0,0-4.11,3.67,44.65,44.65,0,0,0-3.92,4A62.79,62.79,0,0,0,4.09,48.65L3,51.4c-.31.94-.54,1.92-.81,2.88A38.68,38.68,0,0,0,.79,60.2L.36,63.3a20.64,20.64,0,0,0-.29,3L0,72.06c1,16.88,9.61,31.58,21,41.52a78.3,78.3,0,0,0,18.37,12.25c.81.4,1.6.84,2.42,1.2l2.48,1c1.65.65,3.29,1.37,4.94,2,3.37,1,6.66,2.26,10,2.89l5,1.14,5,.73a91.55,91.55,0,0,0,10,.91c1,.08,1.93.11,2.86.11h.53a13.62,13.62,0,0,0-1.33,3.35,16.83,16.83,0,0,0-.36,2c0,.33,0,.69-.06,1l0,.53a4.87,4.87,0,0,0,0,.54c0,.37,0,.73,0,1.1s.12.76.17,1.14a8.76,8.76,0,0,0,.25,1.17,9.69,9.69,0,0,0,.33,1.19,17.87,17.87,0,0,0,2.45,4.88l.42.6.49.59a13.8,13.8,0,0,0,1,1.16l.58.57a5.72,5.72,0,0,0,.58.54l1.15,1a19.7,19.7,0,0,0,11,4h.67a15.81,15.81,0,0,0,1.71-.08,13.46,13.46,0,0,0,2.6,6,11.32,11.32,0,0,0,2.37,2.29l.31.23.32.19c.21.13.42.27.63.38a10.16,10.16,0,0,0,1.28.56l.64.23.64.15a9.45,9.45,0,0,0,1.28.2l.49,0h.89l.15,0,.3,0,.59-.07a9.89,9.89,0,0,0,2.89-1,8.87,8.87,0,0,0,1.49,4,6.94,6.94,0,0,0,1.34,1.44l.18.15.18.12.35.23a6.16,6.16,0,0,0,.73.36l.36.14.36.09a4.54,4.54,0,0,0,.72.13l.28,0h.58l.17,0,.34,0a5.31,5.31,0,0,0,2.39-1.17,7.3,7.3,0,0,0,1.69-2.13,9,9,0,0,0,.85-2.4l0-.13a.59.59,0,0,1,0-.14,2.51,2.51,0,0,1,0-.27c0-.18.05-.33.06-.49s0-.31,0-.45a2.25,2.25,0,0,0,0-.36c0-.41,0-.63,0-.63v0l-.06-.66c0-.11,0-.23-.05-.36s0-.27-.08-.42a3.25,3.25,0,0,0-.12-.47l-.06-.26a.65.65,0,0,1,0-.13.5.5,0,0,0-.05-.13,8.1,8.1,0,0,0-1.1-2.23,6.76,6.76,0,0,0-1.9-1.83,5.24,5.24,0,0,0-2.47-.81h-.25a7.31,7.31,0,0,0,.11-.78c0-.26,0-.49,0-.71s0-.41,0-.57c0-.65,0-1,0-1v0s0-.36-.11-1.05a4.44,4.44,0,0,0-.09-.57l-.14-.67a5.57,5.57,0,0,0-.2-.75l-.12-.41-.06-.22a1.19,1.19,0,0,1-.08-.2,12.56,12.56,0,0,0-2-3.54,11.76,11.76,0,0,0-3.35-2.91,10,10,0,0,0-2.21-.93,16.83,16.83,0,0,0-1-5.54,18.59,18.59,0,0,0-2.78-5.18l-.19-.26-.21-.24-.4-.47c-.27-.3-.48-.59-.76-.85l-.73-.7a5.58,5.58,0,0,0-.61-.55l-.14-.11a97.36,97.36,0,0,0,23.94-9,84.4,84.4,0,0,0,24.08-19,63.35,63.35,0,0,0,12.44-21.13c.15-.41.31-.81.46-1.2s.21-.82.31-1.23l.61-2.34a29,29,0,0,0,.94-4.32c.18-1.4.34-2.69.48-3.88A16.74,16.74,0,0,0,171.7,67.83Zm-50.19,95.88.13-.07a3,3,0,0,1,1-.35,2.42,2.42,0,0,1,.47,0h.14a3.15,3.15,0,0,1,1.51.5,4.79,4.79,0,0,1,1.33,1.29,6.55,6.55,0,0,1,.84,1.67.25.25,0,0,0,0,.07l0,.06h0v0l.06.22.06.2,0,.07s0,0,0,.08l.08.43a1,1,0,0,1,0,.12.13.13,0,0,0,0,.06l0,.59,0,.61s0,.09,0,.16l0,.43v.06s0,.07,0,.11,0,.14,0,.17l0,.16v.16h0l0,.07a.2.2,0,0,1,0,.07,6.7,6.7,0,0,1-.65,1.83,5.29,5.29,0,0,1-1.21,1.53,3.23,3.23,0,0,1-1.43.72h-.07l-.2,0-.13,0h-.36a0,0,0,0,1,0,0l-.17,0a1.3,1.3,0,0,1-.22,0l-.09,0-.25-.07h0l-.22-.09-.07,0-.19-.1-.2-.11-.09-.06-.13-.09-.14-.09-.08-.07,0,0a4.87,4.87,0,0,1-.92-1,7.26,7.26,0,0,1-1.2-3.71v-.8l0-.36v-.06a1.9,1.9,0,0,1,0-.25l0-.18,0-.14s0-.07,0-.1l.06-.26a6.13,6.13,0,0,1,.63-1.67.75.75,0,0,1,.07-.12l.07-.12.07-.11.07-.1.07-.11,0-.06,0-.06.19-.24.13-.14.1-.1.08-.09,0,0h0l.07-.06.13-.12a.27.27,0,0,0,.08-.07l.2-.13ZM114.84,149a8.67,8.67,0,0,1,1.36.62A9.58,9.58,0,0,1,119,152a10.89,10.89,0,0,1,1.65,3,.14.14,0,0,0,0,.07l0,.11,0,0,0,.12.08.27,0,.1.09.3a2.17,2.17,0,0,1,.07.24s0,0,0,.07l.14.69c0,.07,0,.25.06.31v.06l.11,1,0,.94v.07c0,.09,0,.2,0,.33l0,.56v.21a1.66,1.66,0,0,1,0,.26c0,.1,0,.21,0,.27l-.07.43v.14h0l0,.13s0,0,0,.06h0a3.14,3.14,0,0,0-.37.18,4.54,4.54,0,0,0-.68.43l-.33.27-.16.14-.16.16-.32.33-.3.38c-.1.12-.19.27-.29.41a4.87,4.87,0,0,0-.27.45,7.94,7.94,0,0,0-.84,2.2l-.08.32c0,.1,0,.22,0,.33s-.06.35-.08.54A7.68,7.68,0,0,1,114,169.2l-.19,0-.35.05-.3,0h-1l-.28,0a4.93,4.93,0,0,1-.7-.11l-.08,0-.54-.13-.13,0-.41-.15-.09,0a5.16,5.16,0,0,1-.56-.24l-.4-.19-.26-.16-.22-.14-.28-.16-.07,0-.15-.11a.1.1,0,0,0,0,0A9.36,9.36,0,0,1,106,165.8a11.14,11.14,0,0,1-2.19-5.08,10.77,10.77,0,0,1-.17-1.39v-1a.13.13,0,0,0,0-.06c0-.05,0-.11,0-.17l0-.15,0-.56v-.07a4.33,4.33,0,0,1,.08-.51c0-.11,0-.22,0-.34l0-.17a1.55,1.55,0,0,0,0-.21l.12-.45a10.47,10.47,0,0,1,1.24-2.93l.08-.13a3.34,3.34,0,0,1,.21-.32l.13-.16.11-.16a3.69,3.69,0,0,1,.23-.3l.05-.06.34-.38.13-.15.1-.1.37-.34.13-.12.06-.06.23-.17.23-.18.23-.17.38-.23a4.63,4.63,0,0,1,.51-.3l.12,0a7.84,7.84,0,0,1,3.52-.81h.34l.18,0A7.35,7.35,0,0,1,114.84,149ZM108.3,135.8l0,0a4.4,4.4,0,0,1,.33.36l.25.3.4.46.08.1.08.09.1.14,0,0,0,.06a16.52,16.52,0,0,1,2.47,4.61,14.83,14.83,0,0,1,.83,4.52h-.61a9.89,9.89,0,0,0-4.4,1,9.74,9.74,0,0,0-1.2.69c-.2.13-.39.29-.58.43l-.29.22a3.45,3.45,0,0,0-.28.26l-.56.52-.54.61c-.18.19-.34.43-.51.65a8.18,8.18,0,0,0-.48.72,12.27,12.27,0,0,0-1.49,3.5l-.14.5-.09.52a7.39,7.39,0,0,0-.15,1.08l-.05.57a5.15,5.15,0,0,0,0,.55v.7a14.64,14.64,0,0,1-1.52.07h-.61a17.68,17.68,0,0,1-9.78-3.6l-1.11-.92-.07-.06-.23-.21-.15-.16-.58-.57,0,0a6.17,6.17,0,0,1-.58-.64l-.3-.36-.17-.2-.23-.28-.39-.56a15.82,15.82,0,0,1-2.18-4.32,1.21,1.21,0,0,0-.05-.14,5.13,5.13,0,0,1-.18-.64c0-.11,0-.21-.07-.29l-.06-.26a6.56,6.56,0,0,1-.14-.65s0-.05,0-.08l-.06-.37-.09-.67,0-.48,0-.49a1.93,1.93,0,0,1,0-.24.88.88,0,0,1,0-.14l0-.5c0-.13,0-.26,0-.39l0-.5c0-.21.07-.42.1-.63a6.17,6.17,0,0,1,.19-1l0-.13a11.78,11.78,0,0,1,1.75-3.87,12.26,12.26,0,0,1,1.16-1.47,6,6,0,0,1,.57-.56,12.27,12.27,0,0,1,4.14-2.53,14.8,14.8,0,0,1,5-.86h.51a15.8,15.8,0,0,1,5,1l.07,0,.16,0,.07,0,.07,0,.14.06.43.19.1,0,.38.17.21.09.22.11.07,0,.87.48a4.64,4.64,0,0,1,.48.29l.06,0,.86.58.33.22,1.08.88.06.05a4.81,4.81,0,0,1,.42.38l.53.52Z"/></g></g></svg>