<svg xmlns="http://www.w3.org/2000/svg" viewBox="0 0 180.4 155.44"><defs><style>.cls-1{fill:#fff;}.cls-2{fill:#324b56;}</style></defs><title>Speech Ballon 01</title><g id="Calque_2" data-name="Calque 2"><g id="bubble_01" data-name="bubble 01"><path class="cls-1" d="M38,152.89a143.33,143.33,0,0,0,.34-15.62,5.91,5.91,0,0,0-5.18-5.66c-7-.84-13.9-2-20.5-3.34-2.52-.53-4.75-3.1-6.65-7.65C-3.7,97.46,3.27,43.44,6.86,36c15.88-10.89,109-35,135.4-35a19.36,19.36,0,0,1,2.64.14c20.83,25.93,35.76,96.13,34.43,109.68-5.35,2.35-53.51,22.61-114.93,22.61-2.55,0-5.13,0-7.67-.1h-.16A5.85,5.85,0,0,0,51.13,137C49.7,140.48,44.84,146.34,38,152.89Z"/><path class="cls-2" d="M142.26,2c1,0,1.65,0,2.11.08,20.33,25.71,34.93,93.55,34,108.09-5.53,2.5-19.24,7.73-38.27,12.52a315.52,315.52,0,0,1-75.71,9.74c-2.54,0-5.11,0-7.63-.1h-.2a6.85,6.85,0,0,0-6.37,4.28c-1.25,3.06-5.28,8.05-11.05,13.75.29-4.87.26-9.61.16-13.1a6.92,6.92,0,0,0-6.06-6.63c-7-.84-13.84-2-20.41-3.33-2.15-.45-4.2-2.89-5.94-7.05-9.5-22.75-2.83-75.48.75-83.59C15,31.8,39.4,23.57,70.37,15.53,102.05,7.31,130.27,2,142.26,2m0-2C115.54,0,21.33,24.49,6.08,35.3c-3.77,7-11,61.81-1,85.71,2,4.87,4.52,7.64,7.38,8.23C19.06,130.63,26,131.76,33,132.6a4.88,4.88,0,0,1,4.3,4.7,133.73,133.73,0,0,1-.6,18.14c6.26-5.77,13.38-13.27,15.34-18.08a4.88,4.88,0,0,1,4.52-3h.13c2.55.08,5.14.11,7.7.11,57.95,0,106.64-18.51,115.85-22.92,1.83-12.16-13-84.6-34.82-111.3A17.87,17.87,0,0,0,142.26,0Z"/></g></g></svg>