<svg xmlns="http://www.w3.org/2000/svg" viewBox="0 0 70.43 97.46"><defs><style>.cls-1{fill:none;}.cls-2{fill:#ff7c96;}.cls-5{fill:#b6dffc;}.cls-6{fill:#324b58;}.cls-7{fill:#fff;}</style></defs><title>Saisons-09</title><g id="Calque_2" data-name="Calque 2"><g id="Planche_Vacance_-_28" data-name="Planche Vacance - 28"><path class="cls-1" d="M47.89,6.31l-.69-.14.71.2Z"/><path class="cls-1" d="M56.94,58.18l-.61-.44-.68.11-1.46-1.19a27.52,27.52,0,0,1-4.91,3.4l7.63-1.87Z"/><path class="cls-2" d="M33,13.09a30.63,30.63,0,0,1,6.72,3.07,26.57,26.57,0,0,1,7.69-.69A8.9,8.9,0,0,1,49.17,13a12.86,12.86,0,0,1,1.25-1.2l-.05-1.1a22.66,22.66,0,0,1-2.46-4.28l-.71-.2h0a22.59,22.59,0,0,1-5-1.44l-.07.42A16.85,16.85,0,0,0,46.7,6.29,18.48,18.48,0,0,0,48.45,10a10.35,10.35,0,0,0-1.75,1.75A6.06,6.06,0,0,0,45.94,13a19.48,19.48,0,0,0-5.64.51,22.82,22.82,0,0,0-4.93-2.26A4.85,4.85,0,0,0,35,9.4a13.23,13.23,0,0,0-.92-2.16C35,6.89,37.7,5.91,38.19,5.3a14,14,0,0,0,3.08-.25l.08-.47a27.13,27.13,0,0,1-4.55.29c-.94.92-4.2,2.25-5.41,2.81a15.66,15.66,0,0,1,.85,1.86A9.38,9.38,0,0,1,33,13.09Z"/><path class="cls-5" d="M17.66,50.06l.45,2.17,1.37.12,1.44-1.12A8.76,8.76,0,0,1,17.66,50.06Z"/><path class="cls-5" d="M21.77,51.35l-1.33,1.08,3.49.31L22.44,51.4Z"/><ellipse class="cls-7" cx="26.08" cy="45" rx="0.1" ry="0.19"/><path class="cls-4" d="M30.13,50.7c-.06,0-.1.09-.1.19s0,.19.1.19.11-.09.11-.19S30.19,50.7,30.13,50.7Z"/><path class="cls-5" d="M49,52.43l-1.33-1.08-.67,0L45.5,52.74Z"/><path class="cls-4" d="M43.36,45.19s.1-.09.1-.19-.05-.19-.1-.19-.11.09-.11.19S43.3,45.19,43.36,45.19Z"/><path class="cls-5" d="M51.33,52.23l.45-2.17a8.76,8.76,0,0,1-3.26,1.17L50,52.35Z"/><path class="cls-5" d="M15.11,55.76,19,52.7l1,.1-4.3,3.5a27.48,27.48,0,0,0,5.63,3.94l5.88-6.94.19.77L22,60.6a29.65,29.65,0,0,0,25.61.3L42,54.07l.2-.77,5.91,7a1,1,0,0,1,.09.34,3.49,3.49,0,0,0,.39-.19.45.45,0,0,0-.07-.18l.73-.18a27.52,27.52,0,0,0,4.91-3.4L49.44,52.8l1-.1,4.39,3.42a26.45,26.45,0,0,0,8.76-19.59,26,26,0,0,0-1.84-9.63,37.59,37.59,0,0,0-2.83,5.41,54.58,54.58,0,0,0-21.66,2.62l-4.6,27.49a.46.46,0,0,1-.5.36.42.42,0,0,1-.37-.5L33,55l-.11-.08-6.15-7.74L27,48.67h.57L29,50.36a2.83,2.83,0,0,1-1.5.48l.36,1.73,1.48-1.75.39.46L28.27,53l2.86.21.3.28-3.38-.23-.06.08.19.89c-.06.29-.29.36-.46.26l-.8-3.28a28.43,28.43,0,0,1-3.61.21l1.47,1.38,2.31.2.05.25-9.42-.91h0l0,.22.48,0,.08.39-.45.33-.93-3.84C15.08,48,14.11,45.66,13,42.81l-1.54-1.42c-.21-.38,0-1,.24-1l.56.53,8.23-1.12a.44.44,0,0,0,.06.22l.16.2L12.07,41.4l.49.35h0L21,40.58a32,32,0,0,0,2.95,8.05l2.16,0,.48,2.05a5.71,5.71,0,0,1-2.28-1.55v0c.8,1.2,1.69,2,2.65,2l-1.5-6.12c0-.48.47-.91.73-.64l.24,1.14,2.35,3.09,1.87,0a7.62,7.62,0,0,1-1,1.14l.24.31,1.36-1.61c.22-.06.42.33.23.6l-1.23,1.49,2.84,3.73,3.29-19.66a73.12,73.12,0,0,0-18.6-9.39,23.3,23.3,0,0,0-1.44-9.1,26.3,26.3,0,0,0-1.21,39.54Zm29-1.78c-.24.1-.48,0-.48-.19l.58-.52.83-.08Zm4.11-15.12c.27-.06.54.52.39.92l-4.28,5.4a1,1,0,0,0-.31-.81Zm-9,11.78L38,49.15c-.19-.27,0-.66.22-.6l1.37,1.61.24-.31a7.08,7.08,0,0,1-1-1.14l1.87,0,2.35-3.09.23-1.14c.26-.27.73.16.73.64l-1.49,6.12c.95,0,1.84-.82,2.65-2,0,0,0,0,0,0a5.71,5.71,0,0,1-2.28,1.55l.48-2.05,2.16,0a31.63,31.63,0,0,0,2.95-8.05l8.4,1.16h0l.49-.35-8.62-1.15.16-.2a.36.36,0,0,0,.07-.22L57.2,41l.56-.53c.27,0,.45.59.24,1l-1.55,1.42c-1.13,2.85-2.09,5.17-3.9,6.69l-.93,3.84L51.17,53l.08-.39.48,0,0-.22h0l-9.42.91.05-.25,2.31-.2,1.47-1.38a28.33,28.33,0,0,1-3.61-.21l-.8,3.28a.3.3,0,0,1-.46-.26l.18-.89-.06-.08L38,53.51l.31-.28L41.16,53l-1.43-1.74.39-.46,1.49,1.75L42,50.84a2.88,2.88,0,0,1-1.5-.48l1.38-1.69h.57l.32-1.51L36.58,54.9c-.15.17-.54.11-.54-.12Zm-14,2.63.59.52c0,.14-.24.29-.49.19l-.92-.79Zm-4-14.41,4.21,5.51a.92.92,0,0,0-.31.81l-4.28-5.4C20.71,39.38,21,38.8,21.24,38.86Z"/><path class="cls-4" d="M39.3,51.08c.06,0,.11-.09.11-.19s0-.19-.11-.19-.1.09-.1.19S39.25,51.08,39.3,51.08Z"/><rect class="cls-6" x="0.91" y="65.14" width="68.47" height="0.7"/><rect class="cls-6" x="0.34" y="81.91" width="14.66" height="0.7"/><rect class="cls-6" x="56.12" y="81.91" width="12.68" height="0.7"/><path class="cls-6" d="M19.91,94.17h0L17,93.75l-1.55-6c-.33,0-6.92,1.9-8.26,3l5.25,1.84L9.82,97.46a39.51,39.51,0,0,1,12-3l-1.95-.29Z"/><path class="cls-6" d="M54,87.2l-1.56,6-4.84.7a39.69,39.69,0,0,1,12,3L57,92l5.24-1.84C60.91,89.09,54.32,87.15,54,87.2Z"/><path class="cls-6" d="M54,84.86l.12,0,0-.16-.12,0,.2-.76s-21.11-5.83-39.21.52l.19.68-.08,0,.06.16h0l.06,0,2,7.47c0-.76,21.91-4.31,34.71,0Z"/><path class="cls-6" d="M25.84,53.79l-.59-.52-.82-.08.92.79C25.6,54.08,25.84,53.93,25.84,53.79Z"/><path class="cls-6" d="M25.14,45.18a.92.92,0,0,1,.31-.81l-4.21-5.51c-.27-.06-.53.52-.38.92Z"/><path class="cls-6" d="M27.21,53.3l-5.88,6.94,0,0a1.08,1.08,0,0,0,.11,1.09L22,60.6l5.36-6.53Z"/><path class="cls-6" d="M19,52.7l-3.92,3.06L12.22,58c-.25.32.08.91.37.82l.23-.2,8,2.1a.87.87,0,0,1,.1-.5l-8.36-2.05h0l.6-.44.69.11L15.7,56.3,20,52.8Z"/><path class="cls-6" d="M17.76,25.32a73.12,73.12,0,0,1,18.6,9.39L33.07,54.37l-2.84-3.73,1.23-1.49c.19-.27,0-.66-.23-.6l-1.36,1.61-.24-.31a7.62,7.62,0,0,0,1-1.14l-1.87,0L26.39,45.6l-.24-1.14c-.26-.27-.73.16-.73.64l1.5,6.12c-1,0-1.85-.82-2.65-2v0a5.71,5.71,0,0,0,2.28,1.55l-.48-2.05-2.16,0A32,32,0,0,1,21,40.58l-8.4,1.16h0l-.49-.35,8.62-1.15-.16-.2a.44.44,0,0,1-.06-.22L12.24,41l-.56-.53c-.28,0-.45.59-.24,1L13,42.81c1.13,2.85,2.1,5.17,3.91,6.69l.93,3.84.45-.33-.08-.39-.48,0,0-.22h0l9.42.91L27.09,53l-2.31-.2-1.47-1.38a28.43,28.43,0,0,0,3.61-.21l.8,3.28c.17.1.4,0,.46-.26L28,53.36l.06-.08,3.38.23-.3-.28L28.27,53l1.43-1.74-.39-.46-1.48,1.75-.36-1.73a2.83,2.83,0,0,0,1.5-.48l-1.38-1.69H27l-.31-1.51,6.15,7.74L33,55l-1.22,7.3a.42.42,0,0,0,.37.5.46.46,0,0,0,.5-.36l4.6-27.49a54.58,54.58,0,0,1,21.66-2.62,37.59,37.59,0,0,1,2.83-5.41,28.15,28.15,0,0,1,6.27-7C64.75,16,61.54,12,60.24,7A84.32,84.32,0,0,1,41.76,0,68.53,68.53,0,0,1,25.45,1.72c-2.29,2.83-6.15,6-11,9.43.68,1.72,1.31,3.42,1.83,5.07A23.3,23.3,0,0,1,17.76,25.32Zm8.32,19.87c-.06,0-.1-.09-.1-.19s0-.19.1-.19.1.09.1.19S26.14,45.19,26.08,45.19Zm-8,7-.45-2.17a8.76,8.76,0,0,0,3.26,1.17l-1.44,1.12Zm5.82.51-3.49-.31,1.33-1.08.67,0Zm6.2-1.66c-.06,0-.1-.09-.1-.19s0-.19.1-.19.11.09.11.19S30.19,51.08,30.13,51.08ZM16.62,10.58c4.1-2.91,8.61-6,10.57-8.4A64.78,64.78,0,0,0,41.81.77a72.45,72.45,0,0,0,17,6.13c1.12,4.3,4.23,8.47,7,11.79a26.7,26.7,0,0,0-5.25,5.73,32.35,32.35,0,0,0-3,5.4c-6.33-.58-14,.64-20.16,2.64a61.66,61.66,0,0,0-17.62-8.81c.23-2.36-.47-5.66-1.57-8.92C17.76,13.32,17.21,11.9,16.62,10.58Z"/><path class="cls-6" d="M48.58,39.78c.15-.4-.12-1-.39-.92L44,44.37a1,1,0,0,1,.31.81Z"/><path class="cls-6" d="M36.58,54.9l6.15-7.74-.32,1.51h-.57l-1.38,1.69a2.88,2.88,0,0,0,1.5.48l-.35,1.73-1.49-1.75-.39.46L41.16,53l-2.85.21-.31.28,3.38-.23.06.08-.18.89a.3.3,0,0,0,.46.26l.8-3.28a28.33,28.33,0,0,0,3.61.21l-1.47,1.38-2.31.2-.05.25,9.42-.91h0l0,.22-.48,0-.08.39.45.33.93-3.84c1.81-1.52,2.77-3.84,3.9-6.69L58,41.39c.21-.38,0-1-.24-1L57.2,41,49,39.83a.36.36,0,0,1-.07.22l-.16.2,8.62,1.15-.49.35h0l-8.4-1.16a31.63,31.63,0,0,1-2.95,8.05l-2.16,0-.48,2.05a5.71,5.71,0,0,0,2.28-1.55s0,0,0,0c-.81,1.2-1.7,2-2.65,2L44,45.1c0-.48-.47-.91-.73-.64l-.23,1.14L40.7,48.69l-1.87,0a7.08,7.08,0,0,0,1,1.14l-.24.31L38.2,48.55c-.21-.06-.41.33-.22.6l1.23,1.49L36,54.78C36,55,36.43,55.07,36.58,54.9Zm15.2-4.84-.45,2.17L50,52.35l-1.43-1.12A8.76,8.76,0,0,0,51.78,50.06Zm-4.12,1.29L49,52.43l-3.49.31L47,51.4Zm-4.3-6.54s.1.09.1.19-.05.19-.1.19-.11-.09-.11-.19S43.3,44.81,43.36,44.81ZM39.3,50.7c.06,0,.11.09.11.19s0,.19-.11.19-.1-.09-.1-.19S39.25,50.7,39.3,50.7Z"/><path class="cls-6" d="M43.6,53.79c0,.14.24.29.48.19l.93-.79-.83.08Z"/><path class="cls-6" d="M49.44,52.8l4.75,3.86,1.46,1.19.68-.11.61.44h0l-7.63,1.87-.73.18a.45.45,0,0,1,.07.18.83.83,0,0,1,0,.32l8-2.1.24.2c.29.09.61-.5.37-.82l-2.43-1.9L50.4,52.7Z"/><path class="cls-6" d="M42.23,53.3l-.2.77,5.62,6.83.38.46a1.05,1.05,0,0,0,.2-.75,1,1,0,0,0-.09-.34Z"/><path class="cls-2" d="M19.81,23.65a61.66,61.66,0,0,1,17.62,8.81c6.21-2,13.83-3.22,20.16-2.64a32.35,32.35,0,0,1,3-5.4,26.7,26.7,0,0,1,5.25-5.73c-2.75-3.32-5.86-7.49-7-11.79a72.45,72.45,0,0,1-17-6.13A64.78,64.78,0,0,1,27.19,2.18c-2,2.41-6.47,5.49-10.57,8.4.59,1.32,1.14,2.74,1.62,4.15C19.34,18,20,21.29,19.81,23.65ZM29.23,2.57A54.44,54.44,0,0,0,41.87,1.35,65.92,65.92,0,0,0,56.22,6.5c1,3.83,4.35,7.55,6.8,10.51a22.8,22.8,0,0,0-4.23,4.49,28.94,28.94,0,0,0-3.09,5.44,47.75,47.75,0,0,0-17.92,2.2,54.51,54.51,0,0,0-15.7-7.73c.22-2.18-.51-5.16-1.58-8.12-.42-1.16-.89-2.31-1.38-3.41C22.53,7.91,27.59,4.68,29.23,2.57Z"/><path class="cls-6" d="M22.08,21.41a54.51,54.51,0,0,1,15.7,7.73,47.75,47.75,0,0,1,17.92-2.2,28.94,28.94,0,0,1,3.09-5.44A22.8,22.8,0,0,1,63,17c-2.45-3-5.8-6.68-6.8-10.51A65.92,65.92,0,0,1,41.87,1.35,54.44,54.44,0,0,1,29.23,2.57c-1.64,2.11-6.7,5.34-10.11,7.31.49,1.1,1,2.25,1.38,3.41C21.57,16.25,22.3,19.23,22.08,21.41ZM30.61,3.09a50.37,50.37,0,0,0,11.24-1C45,4,50.29,5.47,54.39,6.46c.88,3.38,4.08,7,6.25,9.65a22.25,22.25,0,0,0-3.42,3.37A21.35,21.35,0,0,0,54,24.71,56.11,56.11,0,0,0,38.09,26.5a63.33,63.33,0,0,0-13.78-6.63c.19-2-.67-4.88-1.75-7.65h0c-.36-.93-.75-1.85-1.13-2.72C24.4,8,29.07,5,30.61,3.09Z"/><path class="cls-2" d="M22.56,12.22c1.08,2.77,1.94,5.65,1.75,7.65A63.33,63.33,0,0,1,38.09,26.5,56.11,56.11,0,0,1,54,24.71a21.35,21.35,0,0,1,3.27-5.23,22.25,22.25,0,0,1,3.42-3.37c-2.17-2.61-5.37-6.27-6.25-9.65C50.29,5.47,45,4,41.85,2.08a50.37,50.37,0,0,1-11.24,1C29.07,5,24.4,8,21.42,9.5c.38.87.77,1.79,1.13,2.72Zm10-8.76a39.68,39.68,0,0,0,9.38-.75A48.07,48.07,0,0,0,52.76,6.3c.75,2.92,3.49,6.39,5.35,8.64a20.66,20.66,0,0,0-2.69,2.6,18.8,18.8,0,0,0-3.08,4.82,48.33,48.33,0,0,0-13.68,1.55,54.23,54.23,0,0,0-11.9-5.73c.17-1.74-.66-4.54-1.68-7-.33-.8-.68-1.56-1-2.25C26.46,7.65,31.23,5.1,32.56,3.46Z"/><path class="cls-6" d="M26.76,18.18a54.23,54.23,0,0,1,11.9,5.73,48.33,48.33,0,0,1,13.68-1.55,18.8,18.8,0,0,1,3.08-4.82,20.66,20.66,0,0,1,2.69-2.6c-1.86-2.25-4.6-5.72-5.35-8.64A48.07,48.07,0,0,1,41.94,2.71a39.68,39.68,0,0,1-9.38.75c-1.33,1.64-6.1,4.19-8.5,5.45.34.69.69,1.45,1,2.25C26.1,13.64,26.93,16.44,26.76,18.18ZM34,3.9a33.5,33.5,0,0,0,7.91-.64,33.3,33.3,0,0,0,9.48,3c.91,2.54,3.27,5.75,4.57,7.65a21.79,21.79,0,0,0-2.26,2,14.35,14.35,0,0,0-2.93,4.16,40.35,40.35,0,0,0-11.68,1.06,46.69,46.69,0,0,0-10.2-4.67c.14-1.47-.72-4-1.66-6-.33-.72-.67-1.39-1-1.94C28.3,7.43,32.54,5.3,34,3.9Z"/><path class="cls-2" d="M28.85,16.52a46.69,46.69,0,0,1,10.2,4.67,40.35,40.35,0,0,1,11.68-1.06A14.35,14.35,0,0,1,53.66,16a21.79,21.79,0,0,1,2.26-2c-1.3-1.9-3.66-5.11-4.57-7.65a33.3,33.3,0,0,1-9.48-3A33.5,33.5,0,0,1,34,3.9c-1.42,1.4-5.66,3.53-7.75,4.65.31.55.65,1.22,1,1.94C28.13,12.55,29,15.05,28.85,16.52ZM35.6,4.39a27.22,27.22,0,0,0,5.85-.34.42.42,0,0,1,.47-.27.43.43,0,0,1,.36.4A25.3,25.3,0,0,0,49.4,6.24a32.65,32.65,0,0,0,3.72,6.19,18.41,18.41,0,0,0-1.91,1.73,11.48,11.48,0,0,0-2.3,3.29,32.77,32.77,0,0,0-9.46.86,37.72,37.72,0,0,0-8.26-3.78A11,11,0,0,0,30,9.85,16.2,16.2,0,0,0,29.06,8C30.65,7.41,34.45,5.53,35.6,4.39Z"/><path class="cls-6" d="M31.19,14.53a37.72,37.72,0,0,1,8.26,3.78,32.77,32.77,0,0,1,9.46-.86,11.48,11.48,0,0,1,2.3-3.29,18.41,18.41,0,0,1,1.91-1.73A32.65,32.65,0,0,1,49.4,6.24a25.3,25.3,0,0,1-7.12-2.06.43.43,0,0,0-.36-.4.42.42,0,0,0-.47.27,27.22,27.22,0,0,1-5.85.34c-1.15,1.14-5,3-6.54,3.64A16.2,16.2,0,0,1,30,9.85,11,11,0,0,1,31.19,14.53Zm10.7-7.86L42,6l0-.15.05-.31a14.33,14.33,0,0,0,3.83.94A15.12,15.12,0,0,0,47.4,9.56a8,8,0,0,0-1.71,1.78,4.54,4.54,0,0,0-.43.77,16.68,16.68,0,0,0-4.8.43,19.67,19.67,0,0,0-4.19-1.92,4.21,4.21,0,0,0-.12-1.19,8.89,8.89,0,0,0-.83-2.32,11.65,11.65,0,0,0,3.33-1.57,12.21,12.21,0,0,0,2.57-.18l-.06.33,0,.12L41,6.55ZM36.8,4.87a27.13,27.13,0,0,0,4.55-.29l-.08.47a14,14,0,0,1-3.08.25c-.49.61-3.15,1.59-4.07,1.94A13.23,13.23,0,0,1,35,9.4a4.85,4.85,0,0,1,.33,1.85,22.82,22.82,0,0,1,4.93,2.26A19.48,19.48,0,0,1,45.94,13a6.06,6.06,0,0,1,.76-1.25A10.35,10.35,0,0,1,48.45,10,18.48,18.48,0,0,1,46.7,6.29a16.85,16.85,0,0,1-4.56-1.14l.07-.42a22.59,22.59,0,0,0,5,1.44h0l.69.14,0,.06a22.66,22.66,0,0,0,2.46,4.28l.05,1.1A12.86,12.86,0,0,0,49.17,13a8.9,8.9,0,0,0-1.72,2.52,26.57,26.57,0,0,0-7.69.69A30.63,30.63,0,0,0,33,13.09a9.38,9.38,0,0,0-.8-3.55,15.66,15.66,0,0,0-.85-1.86C32.6,7.12,35.86,5.79,36.8,4.87Z"/><path class="cls-2" d="M41.14,5.81c-.65,0-1.15.26-1.21.66s.54.93,1.36,1,1.52-.17,1.59-.64S42.57,6.15,42,6l-.12.72L41,6.55Z"/><path class="cls-2" d="M44.7,8.09c-.14,1-1.75,1.68-3.58,1.42s-3.19-1.31-3-2.36,1.48-1.56,3.09-1.46l.06-.33a12.21,12.21,0,0,1-2.57.18,11.65,11.65,0,0,1-3.33,1.57,8.89,8.89,0,0,1,.83,2.32,4.21,4.21,0,0,1,.12,1.19,19.67,19.67,0,0,1,4.19,1.92,16.68,16.68,0,0,1,4.8-.43,4.54,4.54,0,0,1,.43-.77A8,8,0,0,1,47.4,9.56a15.12,15.12,0,0,1-1.48-3.13,14.33,14.33,0,0,1-3.83-.94L42,5.8C43.68,6.14,44.84,7.11,44.7,8.09Z"/><path class="cls-6" d="M42.88,6.88c-.07.47-.78.75-1.59.64s-1.42-.59-1.36-1,.56-.66,1.21-.66l0-.12c-1.61-.1-2.95.52-3.09,1.46s1.22,2.1,3,2.36,3.44-.38,3.58-1.42S43.68,6.14,42,5.8L42,6C42.57,6.15,42.93,6.52,42.88,6.88Z"/><path class="cls-2" d="M16.59,68.18c-1.33,0-4,1.87-4.1,3.21a1.9,1.9,0,0,1-.93-1.82A7,7,0,0,1,13,67.7a1.53,1.53,0,0,0-.49-.08c-3.11,0-10.07,6.11-10.07,7,0,0,5.22-2.74,8.4-2.74,1.58,0,2.84,2.45,2.84,3,0,1.8-3.47,6.23-5.29,6.23S5.76,77.58,6.1,77.58c0,0,.1.56,1,.56,1.69,0,4.74-3.59,4.74-4.24,0-.15-.33-.13-.78-.13-3,0-8.89,3.4-9.13,3.4A11,11,0,0,1,0,73c0-3.18,9.2-8.26,11.29-8.26.92,0,2,1.2,2.7,2.12a1.7,1.7,0,0,1,.71-.37C15.47,66.46,16.86,68.18,16.59,68.18Z"/><path class="cls-2" d="M25.57,73.22s-4.42,6.24-4.69,6.24h0c-.36,0-2.72-1.56-2.72-2.16a7.25,7.25,0,0,1,.56-2.22c-1.09,1.75-2.19,3.38-2.46,3.38,0,0,0,0-.07,0v0c-.34,0-2.7-1.56-2.7-2.18,0-2,2.21-5.44,2.21-6.56.52,0,2.44,1.23,2.44,1.89s-1.24,2.5-1.78,5c1.12-1,4.2-6.68,4.2-6.68.52,0,2.45,1.21,2.45,1.87s-1.33,3-1.94,5.69A53,53,0,0,0,25,72.31S25.57,71.25,25.57,73.22Z"/><path class="cls-2" d="M39.08,73.53s-4.45,7-4.71,7a.18.18,0,0,1-.1,0v0c-.27,0-2.36-1.4-2.36-1.81a59.52,59.52,0,0,1,2-6.35c-1.16,1.61-3.79,5.35-4.06,6.29-.26,0-2.3-1.26-2.3-1.67a10.7,10.7,0,0,1,.8-2.33A25.86,25.86,0,0,0,25.62,79c-.27,0-2.37-1.4-2.37-1.8,0-1,2.28-6.12,2.28-7.33.41,0,2.31,1.09,2.31,1.58a42,42,0,0,1-1.59,4.81C27.54,74.07,30,70.66,30,70.66c.36,0,2.06,1.12,2.06,1.46s-.67,1.72-1.26,3.23c1.48-2.47,3.94-6.07,3.94-6.07.41,0,2.3,1.36,2.3,1.87,0,.7-1.53,4.54-2.31,7.22,1.2-1.47,4-6.08,4-6.08S39.08,71.81,39.08,73.53Z"/><path class="cls-2" d="M52.68,73.53s-4.45,7-4.71,7a.18.18,0,0,1-.1,0v0c-.27,0-2.36-1.4-2.36-1.81a59.52,59.52,0,0,1,2-6.35c-1.16,1.61-3.79,5.35-4.06,6.29-.26,0-2.3-1.26-2.3-1.67a10.7,10.7,0,0,1,.8-2.33A25.86,25.86,0,0,0,39.22,79c-.28,0-2.37-1.4-2.37-1.8,0-1,2.28-6.12,2.28-7.33.41,0,2.31,1.09,2.31,1.58a42,42,0,0,1-1.59,4.81c1.29-2.18,3.72-5.59,3.72-5.59.36,0,2.06,1.12,2.06,1.46s-.67,1.72-1.26,3.23c1.48-2.47,3.94-6.07,3.94-6.07.41,0,2.3,1.36,2.3,1.87,0,.7-1.53,4.54-2.32,7.22,1.21-1.47,4-6.08,4-6.08S52.68,71.81,52.68,73.53Z"/><path class="cls-2" d="M61.27,73.29c-.67,1.09-4.17,5.48-6.06,5.48-1.54,0-4-1-4-3.28,0-3.25,2.6-5.94,3.88-6a5.93,5.93,0,0,1,2.5,1.34c.3,0,1,.29,1,1.57a3,3,0,0,1-2.89,3.06c-1,0-1.52-.38-1.7-.87A4.25,4.25,0,0,0,53.77,76a1.43,1.43,0,0,0,1.53,1.53c1.34-.07,4.2-3.42,5.23-5C61,72.21,61.37,73.12,61.27,73.29Zm-7,.75a1,1,0,0,0,.63.19c1.31,0,2.26-1.82,2.52-2.93a.42.42,0,0,0-.29-.1A4.59,4.59,0,0,0,54.26,74Z"/><path class="cls-2" d="M70.27,73.84s-4.91,5.86-5.42,5.86h0a.13.13,0,0,1-.08,0,.8.8,0,0,1-.34-.13c-.75-.38-2.21-1.33-2.21-2,0-1.34,1.37-4.25,2.27-6.13a7.9,7.9,0,0,0-1.76.76,1.79,1.79,0,0,1-.46-.17L61,73.7s-.49.71-.49-1.1l.78-1.13c-.63-.42-1.21-1-1.21-1.34,0-1.27,1.9-3.47,1.9-3.76.24,0,2.61,1.19,2.33,1.77s-.74,1.31-1.15,2.23a9.07,9.07,0,0,1,2.12-.61h0c.34.1,2.55,1.76,2.29,2.34a29,29,0,0,0-2.65,6,76.25,76.25,0,0,0,5.22-5.8A1.47,1.47,0,0,1,70.27,73.84Z"/><path class="cls-7" d="M36.27,84.2c-.71-.39-3.13-.12-5.13.18-.6,1-2,3.46-1.9,5.68-.66,0-1.62-.61-1.62-1.09,0-.2,1.16-2.52,1.82-4.31l-1.2.2c-1.34.19-1.78-.7-1.81-.92a.88.88,0,0,1,.17-.5,6.12,6.12,0,0,0,3.2.1,3,3,0,0,0,.1-.64,3.48,3.48,0,0,1,.91.48c1.35-.23,2.66-.53,3.47-.64C36.11,82.47,36.65,84.49,36.27,84.2Z"/><path class="cls-7" d="M33.45,86.64a30.16,30.16,0,0,1-1.76,2.57.48.48,0,0,1-.24-.09c-.28-.11-1.1-.62-1.1-.93a14,14,0,0,1,1-3.09c.1,0,1.15.52,1,.78a10.67,10.67,0,0,0-.88,2.51l1.64-2.16S33.45,85.8,33.45,86.64ZM31.53,84.3c0-.4.54-1.1.54-1.24s1.15.53,1,.78a4.71,4.71,0,0,0-.44,1.2C32.52,85,31.53,84.65,31.53,84.3Z"/><path class="cls-7" d="M39.33,86.88s-2,3.12-2.1,3.12h0c-.12,0-1-.63-1-.81A26.65,26.65,0,0,1,37,86.35a23.29,23.29,0,0,0-1.82,2.81c-.11,0-1-.56-1-.74a4.47,4.47,0,0,1,.36-1,11.4,11.4,0,0,0-1.21,1.93c-.12,0-1-.62-1-.8,0-.46,1-2.73,1-3.27.19,0,1,.49,1,.71a18,18,0,0,1-.71,2.14c.58-1,1.66-2.49,1.66-2.49.16,0,.92.5.92.65s-.3.76-.56,1.44c.66-1.1,1.76-2.71,1.76-2.71.18,0,1,.61,1,.84s-.68,2-1,3.22c.54-.66,1.77-2.72,1.77-2.72S39.33,86.11,39.33,86.88Z"/><path class="cls-7" d="M43.16,86.77c-.29.49-1.86,2.44-2.7,2.44s-1.76-.44-1.76-1.46c0-1.45,1.16-2.65,1.72-2.67a2.53,2.53,0,0,1,1.12.6c.14,0,.45.13.45.7a1.34,1.34,0,0,1-1.28,1.36c-.45,0-.68-.16-.76-.38a1.77,1.77,0,0,0-.13.6.65.65,0,0,0,.68.69c.6,0,1.87-1.53,2.34-2.23C43,86.29,43.21,86.7,43.16,86.77ZM40,87.11a.44.44,0,0,0,.28.08c.58,0,1-.81,1.12-1.31a.17.17,0,0,0-.13,0A2,2,0,0,0,40,87.11Z"/><path class="cls-7" d="M44.56,86.13c0,.15-.68.11-.68.94,0,.51.45,1,.45,1.6A1.62,1.62,0,0,1,42.52,90c-.8,0-1.53-.48-1.53-1s.95-.57,1-.46-.25.54.1.54.75-.18.75-.56-.25-1.13-.25-1.57c0-.76.44-1.79,1.12-1.79C44.59,85.19,44.56,86,44.56,86.13Z"/></g></g></svg>