<svg xmlns="http://www.w3.org/2000/svg" viewBox="0 0 95.33 102.6"><defs><style>.cls-1{fill:#ff7c96;}.cls-2{fill:#324b58;}.cls-3{fill:#b6dffc;}.cls-4{fill:none;}.cls-6{fill:#ffffff;}.cls-7{fill:#000000;opacity:0.4;}</style></defs><title>Saisons-12</title><g id="Calque_2" data-name="Calque 2"><g id="Planche_Vacance_-_04" data-name="Planche Vacance - 04"><path class="cls-1" d="M18.73,70a4.37,4.37,0,0,0-.11-.84,2.35,2.35,0,0,0-.25-.68A1.5,1.5,0,0,0,18,68a.62.62,0,0,0-.42-.15.85.85,0,0,0-.37.12,1,1,0,0,0-.31.34,2.55,2.55,0,0,0-.21.58,4,4,0,0,0-.08.83,3.11,3.11,0,0,0,.09.94,1.48,1.48,0,0,0,.25.55,1.18,1.18,0,0,0,.34.33,2.9,2.9,0,0,1,.36.25l1.39,1.06a2.23,2.23,0,0,1,.53.65,4.33,4.33,0,0,1,.41,1A7.68,7.68,0,0,1,20.25,76a13.4,13.4,0,0,1,.05,1.84A15.8,15.8,0,0,1,20,80.43a11.4,11.4,0,0,1-.62,2.1A5.86,5.86,0,0,1,18.5,84a2.14,2.14,0,0,1-1.1.74,1.15,1.15,0,0,1-.78,0,1.77,1.77,0,0,1-.67-.57,4.28,4.28,0,0,1-.52-1,7.79,7.79,0,0,1-.35-1.49l-.5.12v-4.1l1.79-.31v.83a9.06,9.06,0,0,0,.06,1.09,4,4,0,0,0,.2.83,1.17,1.17,0,0,0,.35.5.6.6,0,0,0,.51.1,1,1,0,0,0,.68-.68,4.48,4.48,0,0,0,.27-1.54,3.12,3.12,0,0,0-.07-.81,1.73,1.73,0,0,0-.2-.53,1.32,1.32,0,0,0-.28-.33l-.31-.24-1.13-.81a2.23,2.23,0,0,1-.63-.66A4.68,4.68,0,0,1,15.28,74a9.75,9.75,0,0,1-.37-1.67,14.88,14.88,0,0,1-.13-2.23A14.71,14.71,0,0,1,15,67.43a7.29,7.29,0,0,1,.6-1.94,3.1,3.1,0,0,1,.92-1.19,1.86,1.86,0,0,1,1.16-.4,1.61,1.61,0,0,1,.92.28,2.71,2.71,0,0,1,.73.74,4,4,0,0,1,.54,1,6.24,6.24,0,0,1,.31,1.22l.53,0c-.05,1.53-.07,2.3-.12,3.83l-1.88.16Z"/><path class="cls-1" d="M21.61,64.46l6.45,0c-.14,2.44-.2,3.66-.34,6.09L26,70.63c.05-1,.08-1.54.13-2.57l-2.06.08c-.07,1.47-.1,2.2-.17,3.66l1.58-.12c-.06,1.39-.1,2.09-.17,3.49l-1.56.18-.2,4.29,2-.32c.06-1.29.1-1.93.16-3.22l1.71-.2-.35,6.4c-2.51.44-3.75.68-6.14,1.22,0-1.37.07-2.06.12-3.44l.8-.14q.23-5.86.46-11.72l-.84,0C21.53,66.74,21.56,66,21.61,64.46Z"/><path class="cls-1" d="M32.33,78.44l.81-.09c-.09-1-.13-1.45-.22-2.42l-2.5.24c-.2,1-.3,1.53-.51,2.55l.86-.11-.19,3.14c-1.23.18-1.83.27-3,.48.07-1.29.11-1.93.18-3.22l.6-.08c1-4.85,2-9.68,3-14.52h2.15q.66,6.89,1.36,13.77l.6-.06-.18,3c-1.26.14-1.88.21-3.13.38C32.22,80.29,32.25,79.67,32.33,78.44ZM31,73.2l1.64-.12c-.2-2.2-.3-3.31-.5-5.54C31.7,69.79,31.47,70.92,31,73.2Z"/><path class="cls-1" d="M44.31,69.27a5.42,5.42,0,0,0-.51-1.2,1.42,1.42,0,0,0-.51-.5,1.17,1.17,0,0,0-.58-.15,1.22,1.22,0,0,0-.86.41,3.75,3.75,0,0,0-.73,1.11,8.67,8.67,0,0,0-.53,1.63,11.92,11.92,0,0,0-.25,2,10.35,10.35,0,0,0,.06,2,7.14,7.14,0,0,0,.38,1.59,2.8,2.8,0,0,0,.64,1.05,1.1,1.1,0,0,0,.87.35,1.12,1.12,0,0,0,.63-.24,2.17,2.17,0,0,0,.56-.57,4.28,4.28,0,0,0,.45-.79,6,6,0,0,0,.31-.93l1.78.89a11,11,0,0,1-.57,1.94,7.72,7.72,0,0,1-.87,1.56,4.7,4.7,0,0,1-1.12,1.07,2.71,2.71,0,0,1-1.32.45,2.1,2.1,0,0,1-1.1-.23,3.11,3.11,0,0,1-.95-.78,5.39,5.39,0,0,1-.76-1.26,9.58,9.58,0,0,1-.54-1.69,14.67,14.67,0,0,1-.3-2,19,19,0,0,1,0-2.27A18,18,0,0,1,39,69.28a13,13,0,0,1,1-2.72,6.19,6.19,0,0,1,1.34-1.82,2.35,2.35,0,0,1,1.57-.66,1.86,1.86,0,0,1,1.1.32,4.1,4.1,0,0,1,.95,1.28h1.2L46,69.24Z"/><path class="cls-1" d="M47.49,64.37H51.8a1.82,1.82,0,0,1,1.12.37,3.16,3.16,0,0,1,.85,1,5.6,5.6,0,0,1,.54,1.43,7.83,7.83,0,0,1,.21,1.7,8.8,8.8,0,0,1-.07,1.42,5.36,5.36,0,0,1-.25,1.08,3.4,3.4,0,0,1-.42.83,3.6,3.6,0,0,1-.58.65,2.48,2.48,0,0,1,.52.84,6.66,6.66,0,0,1,.35,1.46c.12.82.19,1.24.32,2.07h.71c0,1.24,0,1.86.07,3.1l-2.56,0c-.15-1.51-.23-2.26-.37-3.77a9.57,9.57,0,0,0-.16-1.16,3.08,3.08,0,0,0-.28-.8,1.28,1.28,0,0,0-.43-.46,1.16,1.16,0,0,0-.6-.14H50l0,3.46h.8c0,1.15,0,1.72,0,2.87-1.47,0-2.21,0-3.66.06,0-1.15,0-1.73.06-2.88l.9,0,.18-10.17h-.85C47.45,66.11,47.47,65.53,47.49,64.37Zm2.6,2.89c0,1.54,0,2.31,0,3.85h1.11a1.32,1.32,0,0,0,.57-.11,1,1,0,0,0,.44-.34,1.69,1.69,0,0,0,.27-.59,3.52,3.52,0,0,0,.09-.85,2.55,2.55,0,0,0-.35-1.44,1.15,1.15,0,0,0-1-.52Z"/><path class="cls-1" d="M55.37,64.37h3.26l.1,2.91H58c.09,2.66.13,4,.22,6.66a9.25,9.25,0,0,0,.16,1.55,4.47,4.47,0,0,0,.34,1,1.59,1.59,0,0,0,.49.6,1,1,0,0,0,.6.22,1,1,0,0,0,1-.66,3.45,3.45,0,0,0,.25-1,10.42,10.42,0,0,0,0-1.63c-.11-2.69-.17-4-.29-6.73H60l-.12-2.93h3.26l.15,3h-.66c.13,2.54.19,3.81.31,6.36a15.59,15.59,0,0,1-.1,3.05,8.46,8.46,0,0,1-.6,2.22,3.3,3.3,0,0,1-1,1.33,1.92,1.92,0,0,1-1.31.4,2.31,2.31,0,0,1-1.33-.53,4.51,4.51,0,0,1-1.11-1.41,8.89,8.89,0,0,1-.77-2.19,14.61,14.61,0,0,1-.34-2.9l-.15-6.41h-.75C55.41,66.11,55.39,65.53,55.37,64.37Z"/><path class="cls-1" d="M64.07,64.39h3.47c.07,1.22.11,1.83.18,3l-.86,0,.61,10.7.87.08c.07,1.22.11,1.82.18,3-1.42-.16-2.14-.24-3.58-.37-.07-1.19-.1-1.79-.16-3l.87.07-.58-10.58h-.84C64.16,66.18,64.13,65.58,64.07,64.39Z"/><path class="cls-1" d="M72.59,69.34a3.76,3.76,0,0,0-.17-.77,2.76,2.76,0,0,0-.31-.62,1.59,1.59,0,0,0-.39-.42.7.7,0,0,0-.44-.16.67.67,0,0,0-.37.08.68.68,0,0,0-.29.27,1.19,1.19,0,0,0-.19.47,2.6,2.6,0,0,0,0,.7,2.8,2.8,0,0,0,.15.82,1.62,1.62,0,0,0,.3.5,1.48,1.48,0,0,0,.38.33,4.68,4.68,0,0,1,.4.27c.61.45.91.68,1.52,1.15a2.73,2.73,0,0,1,.61.68,4.85,4.85,0,0,1,.51,1A8.52,8.52,0,0,1,74.65,75a13.49,13.49,0,0,1,.21,1.72,10.79,10.79,0,0,1-.09,2.32,5.74,5.74,0,0,1-.49,1.73,2.49,2.49,0,0,1-.86,1,1.66,1.66,0,0,1-1.18.24,2.28,2.28,0,0,1-.9-.35,3.66,3.66,0,0,1-.8-.74,6.09,6.09,0,0,1-.66-1.07,7.39,7.39,0,0,1-.48-1.35l-.56-.06-.2-3.35,2,.16,0,.7a5.58,5.58,0,0,0,.13,1,3.32,3.32,0,0,0,.28.77,1.76,1.76,0,0,0,.42.53,1,1,0,0,0,.56.24.63.63,0,0,0,.7-.38,2.68,2.68,0,0,0,.18-1.3,2.82,2.82,0,0,0-.13-.74,1.94,1.94,0,0,0-.26-.52,2,2,0,0,0-.33-.37c-.11-.1-.23-.19-.35-.28L70.57,74a3.74,3.74,0,0,1-.71-.68,4.8,4.8,0,0,1-.64-1,8.1,8.1,0,0,1-.48-1.44,11.09,11.09,0,0,1-.17-4,5.4,5.4,0,0,1,.51-1.59,2.6,2.6,0,0,1,.86-1,2,2,0,0,1,1.14-.34,1.8,1.8,0,0,1,.93.25,2.77,2.77,0,0,1,.8.66,4.48,4.48,0,0,1,.62,1,7.28,7.28,0,0,1,.42,1.13h.53l.2,3.54-1.93-.11C72.62,70,72.61,69.74,72.59,69.34Z"/><path class="cls-1" d="M75.07,64.43l6.44,0c.09,2.6.13,3.9.22,6.5L80,70.85c0-1.07-.06-1.6-.11-2.66l-2.06-.09L78,71.72l1.57.13.15,3.56-1.56-.18.2,4.25,2,.33c0-1.33-.08-2-.13-3.33l1.67.24c.09,2.73.14,4.1.23,6.83-2.39-.54-3.62-.79-6.14-1.22-.07-1.3-.1-1.94-.17-3.24l.83.12Q76.39,73.63,76.1,68l-.84,0C75.18,66.57,75.14,65.86,75.07,64.43Z"/><rect class="cls-1" x="11.54" y="60.45" width="73.68" height="1.33"/><path class="cls-2" d="M74.5,30l.25.22-12-4.83-1-.51-5.91-3-2.14-1.09a92.9,92.9,0,0,0-15.61-.58l1.76-.5,11.84-1.19s-10-.74-14.43.22l-1.19,1.62c-.49,0-1,.08-1.47.14l1.88-2.6a56,56,0,0,1,18.38,0l4.33,2.23.66-.69-2.53-.59,3.41-.33,12.1,6.41,2.06,5.33Z"/><polygon class="cls-3" points="89.18 40.45 69.5 31.8 57.75 25.42 89.18 40.45"/><path class="cls-3" d="M90.58,42.4h0l-37-15.23-.33-.13-.44-.19h0l-.62-.25-.2-.09a.11.11,0,0,0,0,.08c-.57-.16-1.2-.3-1.87-.42q-.72-.14-1.5-.24h0C41.82,25,32,25.4,28.32,25.6l0,0V23.66s7.38-2.07,24.2-1.32c.51.28.35,1.47-.12,3l.43.19,1.26.57.54.24Z"/><polygon class="cls-4" points="69.5 31.8 89.18 40.45 57.75 25.42 69.5 31.8"/><path class="cls-2" d="M91.59,43l-.1-2.44L88.35,39,55.49,22.77l-.87-.43-1.81,3.15,1.26.57.54.24,36,16.1h0l-37-15.22h0l-.33-.13-.44-.19h0c-.21-.07-.42-.14-.65-.2a.76.76,0,0,0-.2-.06c-.57-.16-1.2-.3-1.87-.42q-.72-.14-1.5-.24h0C41.82,25,32,25.4,28.32,25.6l0,0V23.66s7.38-2.07,24.2-1.32a66.18,66.18,0,0,0-25,.44l-.7,2.91.74,1.41-.89,1.08,2.11.27h0l.46-.71,2,.13a.55.55,0,0,1,.43-.37h.06l.28.06a.41.41,0,0,1,.27.37l15.22,1c.09-.29.29-.48.48-.48h0l.29.07c.17,0,.27.24.28.49l1.42.09.81.06.68.05L50.92,33l.13,0,1,.28c3.44,1,7.36,2.07,11.4,3.22,1.25.36,2.52,1.9,3.79,2.27h0l.24.07.1,0c4.87,1.38,10.29,2.74,15,3.87l.42.1,1.24.28a5,5,0,0,1,1.38-.27l6.46,1.86.07,0ZM69.5,31.8,57.75,25.42l31.43,15ZM62.26,34l-7.91-3.1L81.64,40Z"/><polygon class="cls-3" points="62.26 34.02 81.64 40.04 54.35 30.92 62.26 34.02"/><path class="cls-3" d="M92.29,45,89,44.25l-1.78-.41H87c-.57,0-1.14.49-1.72.35-2.29-.55-6.36-1.46-10.51-2.4s-8.58-2-11.18-2.67a6.71,6.71,0,0,0-.87-.78,5.34,5.34,0,0,0-2-1l-2.91-.7c-1.72-.41-3.37-.81-4.93-1.17l-2.25-.54-.33-.08-2.22-.53c-3.93-.93-6.66-1.55-7.3-1.66-6.05-1-11.38-1.73-15.9-2.27A142.49,142.49,0,0,0,9.75,29.18a33.34,33.34,0,0,0-6.07.54l-2.37-2.1a30.83,30.83,0,0,1,7.82-.92,156.63,156.63,0,0,1,17.53,1.48l2.11.27h0l.46-.71,2,.13a.55.55,0,0,1,.43-.37h.06l.28.06a.41.41,0,0,1,.27.37l15.22,1c.09-.29.29-.48.48-.48h0l.29.07c.17,0,.27.24.28.49l1.42.09.81.06c-.61,1.41-1.23,2.67-1.57,3.36l1.64.46.13,0,1,.28c3.44,1,7.36,2.07,11.4,3.22,1.25.36,2.52,1.9,3.79,2.27h0l.24.07.1,0c4.87,1.38,10.29,2.74,15,3.87l.42.1,1.21.28h0a5,5,0,0,1,1.38-.27l6.46,1.86Z"/><path class="cls-2" d="M95.27,45.69l-.48-.11-.45-.1-2-.44,0,0L89,44.25l-1.78-.41H87c-.57,0-1.14.49-1.72.35-2.29-.55-6.36-1.46-10.51-2.4s-8.58-2-11.18-2.67a6.71,6.71,0,0,0-.87-.78,5.34,5.34,0,0,0-2-1l-2.91-.7c-1.72-.41-3.37-.81-4.93-1.17l-2.25-.54-.33-.08-2.22-.53c-3.93-.93-6.66-1.55-7.3-1.66-6.05-1-11.38-1.73-15.9-2.27A142.49,142.49,0,0,0,9.75,29.18a33.34,33.34,0,0,0-6.07.54c-1.12.2-1.75.38-1.75.38l9.82,8.69c4.09,3.38,8.18,7.65,9.44,10.55a.07.07,0,0,1,0,.07,4.74,4.74,0,0,1,.2.56L22,50c.55,0,1.11,0,1.66,0s1.18,0,1.76,0a.58.58,0,0,1,.37.22s-.23.16-.35.16c-1.28,0-2.58.09-3.87,0a3,3,0,0,1,0,.5H24l-.06,0a1.29,1.29,0,0,1,.41-.16c.88-.06,1.76-.13,2.63-.12,1.19,0,1.22.11,2.4.14,1.59,0,3.18,0,4.77.09.41,0,.83,0,1.24.07H47.8a.6.6,0,0,1,.24-.12,16.93,16.93,0,0,1,1.74-.11c.79,0,1.58.11,2.37.14,1.05,0,2.11,0,3.17.07l.26,0H74.2a2.35,2.35,0,0,1-.51-.16,6.26,6.26,0,0,1,2.4,0,3.63,3.63,0,0,1-.64.13h5.17a2.08,2.08,0,0,1-.3-.13c.71,0,1.26,0,1.81,0a.41.41,0,0,1,.28.13h8.46l2-.44c1.53,0,2.48-4.76,2.48-4.76ZM15.74,38.14a45.65,45.65,0,0,0-7.7-7c.55.23,7.21,3.13,9.48,6.08a40.41,40.41,0,0,1,4.36,8C21.73,45,20.08,42.92,15.74,38.14ZM76.51,49.42c.41.06.87,0,1.3.06l1,0a.78.78,0,0,1,0,.16l-3.76,0A2.16,2.16,0,0,1,76.51,49.42Zm.34,1.46a.31.31,0,0,1,0-.1,3.88,3.88,0,0,1,2,.09Zm-3.7-.69a38.35,38.35,0,0,1,7.63.06A42.26,42.26,0,0,1,73.15,50.19Zm8.06-.52-1.65-.05.06-.2,1.62.08Zm.41.52,2.15-.09A2.62,2.62,0,0,1,81.62,50.19Z"/><path class="cls-3" d="M21.88,45.22c-.15-.2-1.8-2.3-6.14-7.08a45.65,45.65,0,0,0-7.7-7c.55.23,7.21,3.13,9.48,6.08A40.41,40.41,0,0,1,21.88,45.22Z"/><polygon class="cls-3" points="88.35 39.03 55.49 22.77 55.89 21.85 61.8 24.87 62.02 25.07 62.78 25.38 74.75 30.21 74.76 30.22 74.97 30.3 74.94 30.23 82.66 34.44 82.69 34.45 87.94 36.14 87.9 37.28 87.94 37.3 87.87 38.21 87.65 38.1 87.79 38.18 88.35 39.03"/><path class="cls-3" d="M51.74,18.49,39.9,19.68l-1.76.5-2.43.7.41-.55,1.19-1.62C41.75,17.75,51.74,18.49,51.74,18.49Z"/><path class="cls-2" d="M18.77,20.12s-2.51.52-3.41,2.05a3.41,3.41,0,0,0-2.71-1.87,2,2,0,0,1,2.69.84A3,3,0,0,1,18.77,20.12Z"/><path class="cls-2" d="M7,6.44S4.1,7,3.08,8.77A3.87,3.87,0,0,0,0,6.64a2.3,2.3,0,0,1,3.06,1A3.38,3.38,0,0,1,7,6.44Z"/><path class="cls-2" d="M57.13.22S54.25.8,53.22,2.56A3.89,3.89,0,0,0,50.12.41a2.33,2.33,0,0,1,3.08,1A3.4,3.4,0,0,1,57.13.22Z"/><path class="cls-2" d="M26.27,11.82s-3.52.71-4.77,2.86c-1.08-2.09-2.46-2.26-3.8-2.62a2.83,2.83,0,0,1,3.76,1.17A4.18,4.18,0,0,1,26.27,11.82Z"/><path class="cls-3" d="M36.11,51.17c-.34,0-.69,0-1,0-.58,0-1.15-.14-1.72-.14-3.2,0-5.24,0-8.43,0a3,3,0,0,1-.52,0c-.16,0-.3-.08-.45-.12l-.06,0a1.29,1.29,0,0,1,.41-.16c.88-.06,1.76-.13,2.63-.12,1.19,0,1.22.11,2.4.14,1.59,0,3.18,0,4.77.09.41,0,.83,0,1.24.07l.74.05A1.55,1.55,0,0,0,36.11,51.17Z"/><path class="cls-3" d="M73,50.71a10.09,10.09,0,0,0-1.1-.18c-1.12-.07-2.26-.15-3.39-.16-.94,0-1.88.07-2.81.11-.36,0-.72,0-1.07,0-.68,0-1.35-.14-2-.12a6.67,6.67,0,0,0-1.24.26l.07.13,11.46.13Z"/><path class="cls-3" d="M43.9,50.18a13.42,13.42,0,0,0-1.67,0,19.38,19.38,0,0,1-2.75,0c-1.23-.06-2.49,0-3.74,0-.54,0-1.07,0-1.61,0s-.81.06-1.21.09v.16a8,8,0,0,0,.84.09h5.91c1.32,0,2.63-.07,3.94-.1a1.57,1.57,0,0,0,.29-.08Z"/><path class="cls-3" d="M66.07,50.18a6.16,6.16,0,0,0-2.83-.4,13.2,13.2,0,0,0-1.51.13,2.34,2.34,0,0,1-.53,0,16,16,0,0,0-3.46-.1l-.08.14a8.81,8.81,0,0,0,1,.15c1.49,0,3,0,4.48.08.48,0,1,.06,1.45.07S65.49,50.21,66.07,50.18Z"/><path class="cls-3" d="M25.75,50.19s-.23.16-.35.16c-1.28,0-2.58.09-3.87,0a11.55,11.55,0,0,1-1.31-.1c-.29,0-.59,0-.89-.08v-.17L21.42,50,22,50c.55,0,1.11,0,1.66,0s1.18,0,1.76,0A.58.58,0,0,1,25.75,50.19Z"/><path class="cls-3" d="M52.63,50.37c.27,0,.54.06.81.07l2.17.14,4.15.21c.21,0,.43-.06.89-.12a4.46,4.46,0,0,0-.81-.24c-2.26-.08-4.51-.14-6.77-.2a2.85,2.85,0,0,0-.41,0Z"/><path class="cls-3" d="M80.78,50.25a42.26,42.26,0,0,1-7.63-.06A38.35,38.35,0,0,1,80.78,50.25Z"/><path class="cls-3" d="M67.22,51.51a7.09,7.09,0,0,0,1.3,0,23.65,23.65,0,0,1,4.29,0,6.77,6.77,0,0,0,1.35-.11c-2.31-.12-4.61-.51-6.91,0Z"/><path class="cls-3" d="M18.7,49.82l-1.82-.1c-1-.06-2.07-.14-3.11-.19a3.84,3.84,0,0,0-.76.07.19.19,0,0,0-.14.18.52.52,0,0,0,.28.08l5.52.11Z"/><path class="cls-3" d="M51.67,50.25l-1.91-.34a.94.94,0,0,0-.29,0c-1,.08-2,.17-3.26.33l.5.05a8.65,8.65,0,0,0,1.24.06,13.2,13.2,0,0,1,2.74,0A4.8,4.8,0,0,0,51.67,50.25Z"/><path class="cls-3" d="M35.11,51.5a31,31,0,0,0-5.37-.07A21.56,21.56,0,0,0,35.11,51.5Z"/><path class="cls-3" d="M56.64,51v.19a3.77,3.77,0,0,1-.67,0c-.39,0-.77-.12-1.15-.13-2.13,0-4.25,0-6.37-.05a2,2,0,0,1-.35,0,2.37,2.37,0,0,1-.34-.13l0,0a.6.6,0,0,1,.24-.12,16.93,16.93,0,0,1,1.74-.11c.79,0,1.58.11,2.37.14,1.05,0,2.11,0,3.17.07l.26,0C55.93,50.92,56.29,51,56.64,51Z"/><path class="cls-3" d="M51.08,51.64a31,31,0,0,0-5.37-.07A21.56,21.56,0,0,0,51.08,51.64Z"/><path class="cls-3" d="M35.16,49.63a18.24,18.24,0,0,0,5,.09v-.11Z"/><path class="cls-3" d="M42,51l4.71-.12A11.5,11.5,0,0,0,42,51Z"/><path class="cls-3" d="M78.85,49.5a.78.78,0,0,1,0,.16l-3.76,0a2.16,2.16,0,0,1,1.44-.26c.41.06.87,0,1.3.06Z"/><path class="cls-3" d="M21.79,51a10,10,0,0,0-3.53-.07A18.07,18.07,0,0,0,21.79,51Z"/><path class="cls-3" d="M31.09,49.46l2.92.06A4.72,4.72,0,0,0,31.09,49.46Z"/><path class="cls-3" d="M28.12,50l3.56,0A8.55,8.55,0,0,0,28.12,50Z"/><path class="cls-3" d="M63.88,49.44a2.46,2.46,0,0,0-.5-.13c-.79,0-1.59,0-2.37,0,0,0-.15.1-.13.11a1,1,0,0,0,.37.13h2.47Z"/><path class="cls-3" d="M18,49.52h3.16c.08,0,.27-.22-.26-.23-1,0-1.92,0-2.88,0Z"/><path class="cls-3" d="M58.18,51.28l2.77.15A3.33,3.33,0,0,0,58.18,51.28Z"/><path class="cls-3" d="M68.06,49.77l4,.15A6.9,6.9,0,0,0,68.06,49.77Z"/><path class="cls-3" d="M21.81,49.51l2.53.17A2.61,2.61,0,0,0,21.81,49.51Z"/><path class="cls-3" d="M37,50.89a2.25,2.25,0,0,0,2.33.08Z"/><path class="cls-3" d="M18.36,50.25l-2.66.09a5.08,5.08,0,0,0,2.67,0Z"/><path class="cls-3" d="M46.63,49.4a13.49,13.49,0,0,0-2.77,0v.13h2.77Z"/><path class="cls-3" d="M83.77,50.1a2.62,2.62,0,0,1-2.15.09Z"/><path class="cls-3" d="M55.27,50h1.91c-.23-.12-.37-.23-.49-.23-.49,0-1,.06-1.46.1Z"/><path class="cls-3" d="M78.83,50.87h-2a.31.31,0,0,1,0-.1A3.88,3.88,0,0,1,78.83,50.87Z"/><path class="cls-3" d="M81.24,49.5l0,.17-1.65-.05.06-.2Z"/><path class="cls-3" d="M26.41,49.21l1.64,0,0-.17L26.46,49Z"/><path class="cls-3" d="M26.48,51.49h1.64v-.12l-1.64,0Z"/><path class="cls-3" d="M66.42,51.27l-1.25.08,0,.17,1.29-.05Z"/><path class="cls-3" d="M22,49.05l.85-.1c0-.05-.08-.14-.12-.14l-.84,0Z"/><path class="cls-3" d="M51.08,60A51.28,51.28,0,0,0,44,59.88,37.92,37.92,0,0,0,51.08,60Z"/><path class="cls-3" d="M52.87,57.78c-.48-.07-.95-.16-1.45-.19-1.5-.08-3-.16-4.51-.17-1.24,0-2.48.08-3.73.12-.47,0-1,0-1.42,0-.9,0-1.79-.14-2.67-.12a11.49,11.49,0,0,0-1.66.27l.1.13L52.75,58Z"/><path class="cls-3" d="M43.72,57.23A10.25,10.25,0,0,0,40,56.81c-.65,0-1.33.09-2,.13a3.35,3.35,0,0,1-.71,0,28.23,28.23,0,0,0-4.6-.1l-.1.14c.45.05.9.14,1.36.15,2,0,4,.05,6,.09.65,0,1.29.07,1.93.08S43,57.25,43.72,57.23Z"/><path class="cls-3" d="M25.87,57.41l1.08.08,2.87.14c1.84.08,3.68.16,5.52.22.28,0,.57-.06,1.17-.12a6.49,6.49,0,0,0-1.07-.25c-3-.08-6-.14-9-.21a4.9,4.9,0,0,0-.54,0Z"/><path class="cls-3" d="M53.12,57.24a73,73,0,0,0,10.14.06A65.1,65.1,0,0,0,53.12,57.24Z"/><path class="cls-3" d="M45.24,58.6a14.26,14.26,0,0,0,1.72,0,40.31,40.31,0,0,1,5.71,0,9.73,9.73,0,0,0,1.79-.11c-3.07-.13-6.12-.53-9.18,0Z"/><path class="cls-3" d="M60.69,56.53l-1.38,0c-.57,0-1.18,0-1.72-.06a3.61,3.61,0,0,0-1.92.27l5,0Z"/><path class="cls-3" d="M40.8,56.46a3.11,3.11,0,0,0-.66-.14c-1,0-2.1,0-3.15,0-.06,0-.19.1-.17.11a1.43,1.43,0,0,0,.5.14c1.09,0,2.18,0,3.28,0Z"/><path class="cls-3" d="M47.26,56.75h4.59c.11-.05.39-.23-.38-.24-1.39,0-2.79,0-4.18,0Z"/><path class="cls-3" d="M33.24,58.36l3.68.16A5.5,5.5,0,0,0,33.24,58.36Z"/><path class="cls-3" d="M53.83,57.81a6.44,6.44,0,0,0,3.2,0A10.42,10.42,0,0,0,53.83,57.81Z"/><path class="cls-3" d="M62.65,57.85a5.09,5.09,0,0,0,2.53.26c.12,0,.27-.11.24-.14a.8.8,0,0,0-.37-.13C64.32,57.83,63.58,57.84,62.65,57.85Z"/><path class="cls-3" d="M64.38,57.24a4.22,4.22,0,0,0,2.84-.09Z"/><path class="cls-3" d="M29.37,57h2.54a2.11,2.11,0,0,0-.65-.23c-.65,0-1.3.06-1.94.1Z"/><path class="cls-3" d="M60.66,58a6.41,6.41,0,0,0-2.62-.1V58Z"/><path class="cls-3" d="M61.64,56.65l2.18.05,0-.17-2.15-.09Z"/><path class="cls-3" d="M68.9,57.53l1.62.15.15-.2-1.61-.16Z"/><path class="cls-3" d="M44.18,58.36l-1.66.08,0,.17,1.72,0Z"/><path class="cls-3" d="M51.57,54.74c-1-.05-1.91-.12-2.87-.14-2.32,0-4.64,0-7-.09-1.73,0-1.78-.14-3.51-.16-1.27,0-2.55.07-3.83.12a2.56,2.56,0,0,0-.6.17c.25,0,.48.12.75.15s.5,0,.75,0l12.28.06c.84,0,1.67.12,2.51.15.49,0,1,0,1.49,0Z"/><path class="cls-3" d="M62.94,54c-.81,0-1.65-.1-2.43-.06a38.26,38.26,0,0,1-4,0c-1.79-.06-3.63,0-5.45,0-.78,0-1.56,0-2.35,0-.59,0-1.17.06-1.76.09v.17c.41,0,.82.09,1.23.09,2.87,0,5.74,0,8.61,0,1.91,0,3.82-.06,5.73-.1a3,3,0,0,0,.43-.07Z"/><path class="cls-3" d="M27.14,54c.43,0,.88,0,1.3.08,2.5.24,5,0,7.55.06.17,0,.54-.13.51-.17A1.08,1.08,0,0,0,36,53.7c-.85,0-1.71,0-2.56,0s-1.62,0-2.43,0c-1.28,0-2.55.06-3.83.09Z"/><path class="cls-3" d="M26.22,53.53l-2.65-.11c-1.51-.06-3-.14-4.54-.19a5.86,5.86,0,0,0-1.11.07c-.12,0-.21.12-.19.18a.86.86,0,0,0,.4.09l8.05.12Z"/><path class="cls-3" d="M74.26,54l-2.78-.36a1.93,1.93,0,0,0-.42,0c-1.45.08-2.89.17-4.75.34l.73.05c.6,0,1.21.09,1.8.07a25.42,25.42,0,0,1,4,0A11.92,11.92,0,0,0,74.26,54Z"/><path class="cls-3" d="M50.13,55.31a61.65,61.65,0,0,0-7.82-.09A44.42,44.42,0,0,0,50.13,55.31Z"/><path class="cls-3" d="M78.85,54.83c-.51,0-1-.11-1.52-.12l-3.68-.09c-.91,0-1.82-.13-2.74-.15-.67,0-1.35.06-2,.11a1,1,0,0,0-.32.14,1.9,1.9,0,0,0,.4.14,2.54,2.54,0,0,0,.39,0l7.38.07c.45,0,.89.11,1.33.14a7,7,0,0,0,.79,0Z"/><path class="cls-3" d="M73.41,55.48a60,60,0,0,0-7.83-.08A45.61,45.61,0,0,0,73.41,55.48Z"/><path class="cls-3" d="M50.21,53.37a36.85,36.85,0,0,0,7.2.1v-.11Z"/><path class="cls-3" d="M60.22,54.77l6.86-.12A23.52,23.52,0,0,0,60.22,54.77Z"/><path class="cls-3" d="M30.71,54.72a20.92,20.92,0,0,0-5.13-.08A38.15,38.15,0,0,0,30.71,54.72Z"/><path class="cls-3" d="M64.4,53.19a20.53,20.53,0,0,0-5.14-.07A36.69,36.69,0,0,0,64.4,53.19Z"/><path class="cls-3" d="M44.27,53.09l4.26.07A7.22,7.22,0,0,0,44.27,53.09Z"/><path class="cls-3" d="M39.94,53.72l5.19,0A17.4,17.4,0,0,0,39.94,53.72Z"/><path class="cls-3" d="M25.14,53.22h4.6c.12,0,.4-.22-.38-.23-1.39,0-2.79,0-4.19,0Z"/><path class="cls-3" d="M30.75,53.21l3.68.18A5.19,5.19,0,0,0,30.75,53.21Z"/><path class="cls-3" d="M52.83,54.67a4.39,4.39,0,0,0,3.39.09Z"/><path class="cls-3" d="M25.73,54l-3.88.09a10.26,10.26,0,0,0,3.89,0Z"/><path class="cls-3" d="M56,52.74a28.8,28.8,0,0,0-4,0v.14h4Z"/><path class="cls-3" d="M37.45,52.92l2.39,0,0-.17-2.36-.09Z"/><path class="cls-3" d="M37.55,55.28h2.39l0-.12-2.4,0Z"/><path class="cls-3" d="M66.15,53.12A5.14,5.14,0,0,0,69.27,53Z"/><path class="cls-3" d="M31,52.74l1.25-.11c-.06-.05-.12-.14-.18-.14-.41,0-.81,0-1.22,0Z"/><polygon class="cls-2" points="25.43 86.94 23.3 91.46 20.11 86.46 25.43 86.94"/><polygon class="cls-2" points="76.53 86.91 73.35 91.91 71.24 87.39 76.53 86.91"/><path class="cls-2" d="M27.32,91.29c-1,.52-2,1.1-3,1.72-.82.5-1.64,1-2.47,1.6l1.48-3.15,2.13-4.52Z"/><path class="cls-3" d="M74.62,94.61c-.4-.31-1.1-.82-2.06-1.45s-1.84-1.16-3-1.81l1.71-4,2.11,4.52Z"/><line class="cls-3" x1="23.3" y1="91.46" x2="25.43" y2="86.94"/><path class="cls-2" d="M74.62,94.61c-.4-.31-1.1-.82-2.06-1.45s-1.84-1.16-3-1.81l1.71-4,2.11,4.52Z"/><path class="cls-2" d="M75,94.93l-6.74,7.67c-19.63-15.33-40.17-.16-40.17-.16l-6.29-7.83c.83-.56,1.65-1.1,2.47-1.6,1-.62,2-1.2,3-1.72,18.49-9.81,34.27-4.26,42.21.06,1.19.65,2.21,1.27,3,1.81s1.66,1.14,2.06,1.45Z"/><path class="cls-6" d="M37.21,95.64Q36.32,93,35.38,90.3a37.53,37.53,0,0,1,3.63-1l.15.6q-1.39.33-2.76.75c.19.56.37,1.12.55,1.69.76-.23,1.52-.44,2.3-.63,0,.18.09.36.14.54-.77.19-1.52.4-2.27.63.21.65.42,1.3.62,2,.87-.27,1.76-.51,2.65-.71,0,.2.09.4.14.61C39.41,95,38.3,95.28,37.21,95.64Z"/><path class="cls-6" d="M42.11,94.4l-.68.12q-.55-2.76-1.16-5.51l.85-.16a38.62,38.62,0,0,1,3.47,3.55l.29.42-.06-.44c-.13-1.33-.27-2.66-.41-4l.79-.07c.17,1.87.32,3.74.47,5.62l-.73.06a37.37,37.37,0,0,0-3.33-3.6c-.11-.14-.23-.27-.35-.4,0,.14.07.29.11.44C41.62,91.76,41.87,93.08,42.11,94.4Z"/><path class="cls-6" d="M46.31,92.93l.76,0v0a.45.45,0,0,0,.09.28.5.5,0,0,0,.28.17,1.29,1.29,0,0,0,.4.06,1,1,0,0,0,.43-.11.6.6,0,0,0,.29-.32,2.72,2.72,0,0,0,.1-1c0-1.29,0-2.58,0-3.87h.87l-.09,3.88a2.82,2.82,0,0,1-.24,1.26,1.4,1.4,0,0,1-.51.49,1.76,1.76,0,0,1-.8.17,1.81,1.81,0,0,1-1.21-.3,1,1,0,0,1-.39-.73Z"/><path class="cls-6" d="M52.72,94.23A2.35,2.35,0,0,1,51,93.3a3.31,3.31,0,0,1-.59-2.25,2.91,2.91,0,0,1,.9-2.16,2.65,2.65,0,0,1,2.1-.59,2.6,2.6,0,0,1,1.9,1,2.89,2.89,0,0,1,.35,2.31,3.32,3.32,0,0,1-1.11,2A2.34,2.34,0,0,1,52.72,94.23Zm.07-.56a1.45,1.45,0,0,0,1.33-.49,3.16,3.16,0,0,0,.74-1.66,2.8,2.8,0,0,0-.19-1.81,1.74,1.74,0,0,0-2.76-.32,2.76,2.76,0,0,0-.63,1.71,3.08,3.08,0,0,0,.33,1.79A1.45,1.45,0,0,0,52.79,93.67Z"/><path class="cls-6" d="M58.12,95.11l-.73-.19c.22-.86.44-1.72.67-2.58-.4-1.12-.84-2.24-1.34-3.35l1,.2c.36.86.7,1.73,1,2.59q1-.9,2.19-1.74l.8.26c-1,.71-2,1.47-2.87,2.25C58.59,93.4,58.35,94.25,58.12,95.11Z"/><path class="cls-7" d="M27.32,91.29c-1,.52-2,1.1-3,1.72-.82.5-1.64,1-2.47,1.6l1.48-3.15,2.13-4.52Z"/><path class="cls-7" d="M74.62,94.61c-.4-.31-1.1-.82-2.06-1.45s-1.84-1.16-3-1.81l1.71-4,2.11,4.52Z"/></g></g></svg>