<svg xmlns="http://www.w3.org/2000/svg" viewBox="0 0 64.86 100.48"><defs><style>.cls-1{fill:#ff7c96;}.cls-2{fill:#fff;}.cls-3{fill:#324b58;}</style></defs><title>Saisons-04</title><g id="Calque_2" data-name="Calque 2"><g id="Planche_Vacance_-_22" data-name="Planche Vacance - 22"><path class="cls-1" d="M4.58,73.75a5.14,5.14,0,0,0-.15-1,4.34,4.34,0,0,0-.3-.84,2.87,2.87,0,0,0-.42-.6A.94.94,0,0,0,3.22,71a.57.57,0,0,0-.41,0,.74.74,0,0,0-.34.3,2,2,0,0,0-.22.61,5.23,5.23,0,0,0,0,2.08,2.55,2.55,0,0,0,.28.7,1.61,1.61,0,0,0,.4.45l.43.37c.65.61,1,.9,1.68,1.45a3.44,3.44,0,0,1,.68.8A5.73,5.73,0,0,1,6.31,79a8.85,8.85,0,0,1,.37,1.57,12,12,0,0,1,.14,2,14.41,14.41,0,0,1-.26,2.8,10.9,10.9,0,0,1-.74,2.32,6.66,6.66,0,0,1-1.11,1.74,3.31,3.31,0,0,1-1.37,1,1.55,1.55,0,0,1-1,0,1.73,1.73,0,0,1-.8-.6A4.4,4.4,0,0,1,1,88.63a9.31,9.31,0,0,1-.4-1.77L0,87V82c.76-.09,1.15-.14,2-.22v1A8.36,8.36,0,0,0,2.06,84a3.77,3.77,0,0,0,.25,1,1.3,1.3,0,0,0,.42.59.78.78,0,0,0,.61.11,1.22,1.22,0,0,0,.83-.78,4.4,4.4,0,0,0,.28-1.73,3.32,3.32,0,0,0-.1-.91,2,2,0,0,0-.26-.61,1.76,1.76,0,0,0-.35-.41L3.36,81c-.54-.4-.81-.61-1.33-1a3,3,0,0,1-.71-.86,6.06,6.06,0,0,1-.58-1.45,13.9,13.9,0,0,1-.4-2.09,22.44,22.44,0,0,1-.15-2.75,19,19,0,0,1,.22-3.12A7.64,7.64,0,0,1,1,67.54a2.09,2.09,0,0,1,1-1.06,1.61,1.61,0,0,1,1.26,0,2.7,2.7,0,0,1,1,.65,5.6,5.6,0,0,1,.88,1.09,7.32,7.32,0,0,1,.68,1.34A9.36,9.36,0,0,1,6.25,71l.65.12v4.13c-1-.07-1.42-.11-2.32-.2Z"/><path class="cls-1" d="M7.93,68.43c1.89.45,2.89.65,5,1a3.87,3.87,0,0,1,1.62.69,5.31,5.31,0,0,1,1.29,1.3,6.35,6.35,0,0,1,.87,1.7A6,6,0,0,1,17,75a9.81,9.81,0,0,1-.24,2.22A5.59,5.59,0,0,1,16,79.07a4.3,4.3,0,0,1-1.28,1.27,3.69,3.69,0,0,1-1.8.53L11.35,81v3.57l1-.12v3.33c-1.85.33-2.74.51-4.44.92V85L9,84.84V72.25L7.93,72.1Zm3.42,4.13v5l1,0a1.71,1.71,0,0,0,1.35-.55,2.6,2.6,0,0,0,.5-1.77,3.21,3.21,0,0,0-.47-1.82,1.86,1.86,0,0,0-1.38-.8Z"/><path class="cls-1" d="M18.3,70.18c2.57.29,3.9.4,6.64.53a4.67,4.67,0,0,1,1.8.43,4.54,4.54,0,0,1,1.35,1,4.17,4.17,0,0,1,.84,1.39,4.54,4.54,0,0,1,.3,1.64,5.49,5.49,0,0,1-.15,1.36,4.12,4.12,0,0,1-.42,1,3.25,3.25,0,0,1-.68.8,5.1,5.1,0,0,1-.91.64,2.39,2.39,0,0,1,.78.8,4.29,4.29,0,0,1,.52,1.41c.17.8.26,1.19.44,2h1.1c0,1.2,0,1.79,0,3-1.55,0-2.32,0-3.84.09-.21-1.47-.31-2.2-.51-3.68a6.19,6.19,0,0,0-.24-1.13,2.45,2.45,0,0,0-.42-.77,1.54,1.54,0,0,0-.65-.44,2.39,2.39,0,0,0-.89-.13H22.3v3.47l1.17,0v2.85c-2.12.14-3.16.23-5.17.46v-3l1.27-.08V73.29l-1.27-.08Zm4,3.26V77.3l1.67,0a3.25,3.25,0,0,0,.87-.1,1.77,1.77,0,0,0,.67-.34,1.44,1.44,0,0,0,.43-.57,2.09,2.09,0,0,0,.15-.83,1.88,1.88,0,0,0-.54-1.42A2.38,2.38,0,0,0,24,73.51Z"/><path class="cls-1" d="M31.29,70.85c2.27,0,3.38,0,5.56-.15v2.83l-1.35,0v9.9l1.35,0v2.83c-2.18-.11-3.29-.15-5.56-.16V83.41h1.36v-9.8H31.29Z"/><path class="cls-1" d="M45.84,69.87c1.76-.24,2.61-.38,4.26-.69v3.4l-.89.1v15c-1-.17-1.45-.25-2.45-.4-1.48-3.78-3.13-7.55-4.91-11.2v7.63l1,.07v3c-1.82-.2-2.76-.28-4.67-.4V83.56l1,0V73.44l-1,0V70.62c1.52-.09,2.27-.15,3.73-.3,2,4.1,3,6.24,4.88,10.94V72.92l-1,.09Z"/><path class="cls-1" d="M58.34,90V86.05a10,10,0,0,1-.71,2.21,2.77,2.77,0,0,1-.81,1,1.43,1.43,0,0,1-1.25.07,2.9,2.9,0,0,1-.8-.41,4.64,4.64,0,0,1-.78-.71,8.54,8.54,0,0,1-.76-1,7.33,7.33,0,0,1-.68-1.17,16.74,16.74,0,0,1-1.19-3.48,18.15,18.15,0,0,1-.43-4.07,18.65,18.65,0,0,1,.18-2.61,18,18,0,0,1,.51-2.41,16.33,16.33,0,0,1,.78-2.14,12.39,12.39,0,0,1,1-1.78,7.74,7.74,0,0,1,1.16-1.33,3.34,3.34,0,0,1,1.27-.72,1.61,1.61,0,0,1,1.27.08A3.51,3.51,0,0,1,58.22,69l1.29-.36v5.26l-1.8.23a6,6,0,0,0-.52-1.44,2.55,2.55,0,0,0-.53-.68,1,1,0,0,0-.83-.16,1.66,1.66,0,0,0-1,.68,5.7,5.7,0,0,0-.81,1.5,10.7,10.7,0,0,0-.55,2.07,13.41,13.41,0,0,0-.2,2.38,14.11,14.11,0,0,0,.18,2.3,9.84,9.84,0,0,0,.54,2,5.27,5.27,0,0,0,.84,1.47,1.73,1.73,0,0,0,1,.64c.44.08.83-.15,1.15-.7a6.57,6.57,0,0,0,.69-2.38l-1.78-.16V77.83L60,77.75V90.56C59.38,90.31,59,90.19,58.34,90Z"/><path class="cls-2" d="M48.73,49.31a11.7,11.7,0,0,0-3.92,2.28.28.28,0,0,0,0-.2.3.3,0,0,0,.13-.12.33.33,0,0,0,0-.29,34.61,34.61,0,0,1,2.56-2.64,5.09,5.09,0,0,1,1.56-1.09c0,.08-.06.15,0,.15s.06-.06.11-.16.07,0,.1,0v0a.11.11,0,0,0-.07-.06s0-.1,0-.11-.05.05-.09.12a.93.93,0,0,0-.42.17,8.85,8.85,0,0,0-1.14.93A32.76,32.76,0,0,0,44.94,51s-.06-.11-.11-.13-.07,0-.11,0a31.17,31.17,0,0,0,.42-3.5,8.9,8.9,0,0,0,0-1.47c0-.34-.13-.53-.25-.5,0-.09.07-.17,0-.18s-.07.07-.12.17a.41.41,0,0,0-.06.19s.07-.06.12-.16c.21.14.28.93.23,2s-.2,2.17-.39,3.4a.34.34,0,0,0-.31.17.37.37,0,0,0,0,.18c-.07,0-.16.09-.29.35l-.06.16c.37-2-.19-3.17-1.28-5.53-1.16-2.53-4.89-5.75-5.57-4.85a.75.75,0,0,0-.12.59c0,.26,0,.5.07.72,0,3.3-1.87,4.55-.52,7.14a2,2,0,0,0,.19.29,4,4,0,0,0-2.28,2v0a2,2,0,0,0-.25.94c-.11,1.68,1.49,3.22,3.29,4.07.76.36,2.41-.19,3.79-1.15-.6,1.17-.92,2.2-.68,2.4.6.48,1.68.49,2.86-.4a4.28,4.28,0,0,0,.84-.77l0,0h0a7.51,7.51,0,0,0,1.46-2.37l.22-.06c2-.75,2.91-2.61,5.55-4.52l.24-.17a1.61,1.61,0,0,0,.44-.4C53,48.74,50.59,48.52,48.73,49.31Z"/><path class="cls-2" d="M7.5,10.44l-.2-.31L7.21,10a.86.86,0,0,1,.07.1C7.36,10.2,7.43,10.32,7.5,10.44Z"/><path class="cls-2" d="M23.3,21.88a0,0,0,0,1,0,0c-.16,1.85-1.82,3.06-3.55,3.48-.88.21-2.69-1.36-3.83-3.21,0,1-.07,1.65-.32,1.71-.83.21-2-.29-2.86-1.85A5.92,5.92,0,0,1,12.24,21c-.1-.27-.19-.55-.26-.81a8,8,0,0,1-.35-2.35l-.19-.16C9.78,16,9.51,13.86,7.8,10.92a2,2,0,0,0-.12-.19,2.29,2.29,0,0,0-.18-.29c-.07-.12-.14-.24-.22-.36a.86.86,0,0,0-.07-.1c0-.05,0-.09-.07-.14a1.07,1.07,0,0,1-.09-.19,1,1,0,0,1,0-.14,1,1,0,0,1,0-.15c-.1-1,2.28-.08,3.82,1.52a14.43,14.43,0,0,1,3.37,4.6.17.17,0,0,1,.06-.09.46.46,0,0,1,0-.21.37.37,0,0,1,.25-.34,38.67,38.67,0,0,0-1.1-3.75c-.44-1.2-.86-2-1.14-2.06,0,.13,0,.23-.05.23s0-.11,0-.23,0-.23,0-.23,0,.09,0,.21c.11-.08.29.08.48.42A11.37,11.37,0,0,1,13.35,11c.39,1.1.77,2.46,1.11,3.86a.22.22,0,0,1,.11,0,.25.25,0,0,1,.18.08.38.38,0,0,1,.14.33.32.32,0,0,1-.07.19.18.18,0,0,1,.06.13,14.5,14.5,0,0,1,1.76-3.69c1.44-2.48,5.39-5,5.74-3.65a.29.29,0,0,1,0,.09.32.32,0,0,1,0,.14,1.15,1.15,0,0,1,0,.4c-.06.29-.12.56-.17.81-.51,3.59,1,5.5-.57,8a1.5,1.5,0,0,1-.21.26,5,5,0,0,1,1.67,2.5c0,.13.08.26.11.4A3,3,0,0,1,23.3,21.88Z"/><path class="cls-2" d="M17.62,9v0l-.1,0v0c0,.13,0,.23-.05.23s0-.09,0-.2A6,6,0,0,0,16.28,11c-.42.9-.87,2-1.29,3.19a31.52,31.52,0,0,1,1.31-3.3,10.55,10.55,0,0,1,.79-1.48A1.38,1.38,0,0,1,17.46,9c0-.09,0-.16,0-.16s0,.06,0,.14A.08.08,0,0,1,17.62,9Z"/><path class="cls-3" d="M30.66,39.56a.13.13,0,0,0-.17,0,.1.1,0,0,0,0,.13,1.82,1.82,0,0,1-2.07.27V39.9a1.23,1.23,0,0,0,.49,0,2.08,2.08,0,0,0,1.33-1.28.11.11,0,0,0,.12,0,.1.1,0,0,0,0-.16.12.12,0,0,0-.17,0,.1.1,0,0,0,0,.16h0a2,2,0,0,1-1.31,1.25,1.13,1.13,0,0,1-.49,0,.45.45,0,0,0-.12-.21.42.42,0,0,0-.56.05l0,0a4.24,4.24,0,0,0-.44,0,9.11,9.11,0,0,0,1.88-3.5c.78-2,.86-5.65.13-5.45-.09,0-.21.1-.34.29l-.34.45a10.81,10.81,0,0,1-2.33,2,1.85,1.85,0,0,0,0-.23c-.24-1.38-1.53-3-1.92-2.49a.75.75,0,0,0-.11.34c0,.09,0,.15,0,.23-.28,2-1.29,2.83-1,4.28l-.34.12h0a1.85,1.85,0,0,0-.51.36,4.41,4.41,0,0,0-.74,4c.2.88,2.36,1.49,3.79.91l.13,0h0a2.08,2.08,0,0,0,.29-.19.48.48,0,0,0,.29-.11h0l0,0h.09a2.73,2.73,0,0,0,1.56-.41.42.42,0,0,0,.52-.07.46.46,0,0,0,.08-.19,1.85,1.85,0,0,0,2.1-.27.14.14,0,0,0,.17,0A.12.12,0,0,0,30.66,39.56Z"/><path class="cls-3" d="M28.58,7.48l-.08.06,0,0c-.75.39-.71,1-1.41,1H27a.84.84,0,0,1,0,.47,1,1,0,0,1-.09.22l-.11.13-.05,0a1.1,1.1,0,0,1-1.17-.12c-.23-.15-.32-.84-.17-1.3a.64.64,0,0,1,.08-.19.35.35,0,0,1,.06-.09,0,0,0,0,1,0,0v0l-.06,0h0a.86.86,0,0,1-.14.13c-.38.32-1,.48-1.25.33a1.13,1.13,0,0,1-.57-1,.2.2,0,0,1,0-.1.4.4,0,0,1,.08-.16,1.14,1.14,0,0,1,.15-.16.94.94,0,0,1,.36-.18l.08,0s0,0,0-.06c-.21-.68.36-.86.43-1.74a.23.23,0,0,1,0-.11.05.05,0,0,1,.05,0h0a.44.44,0,0,1,.24.13l.14.14a2.88,2.88,0,0,1,.36.51,2.25,2.25,0,0,1,.24.56c.07.25.12.45.15.62a1.38,1.38,0,0,1-.1.68l0-.06c0-.06.06-.07.08-.07a.06.06,0,0,1,0,0s.05,0,.07,0h0s0,0,0,0,0,0,0,.07l0,0s0,0,0,.09h0a1.33,1.33,0,0,1,.46-.23c.17,0,.38-.07.64-.11l.22,0a3.45,3.45,0,0,1,.71.09l.17,0,.15.05.07,0,.05,0,.11.06.1.08A.11.11,0,0,1,28.58,7.48Z"/><path class="cls-3" d="M64.83,22.41a.28.28,0,0,1,0,.12.25.25,0,0,1,0,.07,1.65,1.65,0,0,1-.68.54c-.49.25-.94.5-1.35.76-4.93,3.14-5,7.21-10.21,7.69a3.17,3.17,0,0,1-.61,0h-.07a7.25,7.25,0,0,1-.35,4.66c-.06.14-.12.27-.19.4l-.24.43-.21.33-.14.18a4.92,4.92,0,0,1-.64.65c-2.42,2-6.48,1.07-9.62-.9-1.92-1.2-2.69-7.29-1.14-11a5.28,5.28,0,0,1,.4-.83,4.78,4.78,0,0,1,.29-.44,2.53,2.53,0,0,1,.28-.35h0a.55.55,0,0,1,0-.17c-.24.22-.41.32-.48.27a.06.06,0,0,1,0-.05,4.92,4.92,0,0,1-.63.66l-.17.14c-2.94,2.66-8.56,4.11-10.33,2.84-2.9-2.1-5.25-5.35-4.54-8.27,0,0,0-.06,0-.09a3.74,3.74,0,0,1,.75-1.57,7.45,7.45,0,0,1,.57-.67,7.24,7.24,0,0,1,4.2-2.18,3.13,3.13,0,0,1-.24-.56C27.9,10,31.74,8.4,32.73,2.5c.07-.43.13-.88.17-1.35a1.65,1.65,0,0,1,.26-.86l.07-.08c1.44-1.52,7.09,5.53,8.34,10.45,1.14,4.52,1.78,6.76.5,10.15l.11-.15c.29-.4.47-.52.6-.53a.63.63,0,0,1,.12-.31.59.59,0,0,1,.62-.23h0a.38.38,0,0,1,.17.08.49.49,0,0,1,.17.25h0a.59.59,0,0,1-.1.55.63.63,0,0,1-.26.2c0,.12,0,.33-.34.72,2.36-1.84,4.65-2.11,8.82-2.69C57,18,65.46,20.51,64.83,22.41Z"/><path class="cls-3" d="M33.16.29a1.65,1.65,0,0,0-.26.86c0,.47-.1.92-.17,1.35q.06-.6.12-1.29A1.58,1.58,0,0,1,33.16.29Z"/><path class="cls-3" d="M40.27,24.71a2.53,2.53,0,0,0-.28.35A1.54,1.54,0,0,1,40.27,24.71Z"/><path class="cls-3" d="M51.29,36.64a3.13,3.13,0,0,1-.19.36l-.05.07Z"/><path class="cls-3" d="M51.48,36.24a7.25,7.25,0,0,0,.35-4.66h.07A7.2,7.2,0,0,1,51.48,36.24Z"/><path class="cls-3" d="M64.75,22.6a1.51,1.51,0,0,1-.72.61c-.48.24-.91.47-1.31.69.41-.26.86-.51,1.35-.76A1.65,1.65,0,0,0,64.75,22.6Z"/><path class="cls-3" d="M50.7,37.58a3,3,0,0,1-.64.65A4.92,4.92,0,0,0,50.7,37.58Z"/><path class="cls-3" d="M43.8,18.8c-.08.26-.17.53-.27.79h0Z"/><path class="cls-3" d="M45.89,10.92a17,17,0,0,1-.48,2.61c-.33,1.37-.81,3-1.36,4.56.51-1.59,1-3.11,1.27-4.4.46-2,.6-3.4.27-3.72-.12.16-.24.28-.26.26s.05-.17.17-.33.24-.27.27-.25,0,.14-.16.29C45.84,9.92,45.92,10.29,45.89,10.92Z"/><path class="cls-3" d="M52.74,14.67l0,0a.33.33,0,0,0-.15,0h0c-.12.16-.24.28-.27.26s0-.13.14-.27a9.68,9.68,0,0,0-3.15,1.44,60.42,60.42,0,0,0-5.4,3.82h0a60.31,60.31,0,0,1,5.52-4,16.65,16.65,0,0,1,2.33-1.26,1.73,1.73,0,0,1,.8-.18h0c.09-.12.17-.19.19-.17s0,.09-.08.2A.14.14,0,0,1,52.74,14.67Z"/><path class="cls-3" d="M15.67,40.19s0,0,0,0v0a.49.49,0,0,1-.06.2,2.59,2.59,0,0,0-.17.33c-.57,1.3,0,2.13-1,2.93l-.12.08h0a1.78,1.78,0,0,1,.55,1,.36.36,0,0,1,0,.1s0,.08,0,.12v.15a.79.79,0,0,1,0,.22c-.21.73-1.16,1.09-2.06,1.11-.55,0-1.52-1.11-1.71-2.06a.89.89,0,0,1,0-.22v-.13A.37.37,0,0,1,11,44h0l0,0C11,44,11,44,11,44h0a.93.93,0,0,1,0,.22v0c-.24.93-1.17,2-1.7,2a2.16,2.16,0,0,1-2-1.06v0a.87.87,0,0,1-.06-.41,1.5,1.5,0,0,1,0-.22,1.76,1.76,0,0,1,.56-1l-.13-.08c-1-.82-.43-1.65-1-3l-.15-.29A.4.4,0,0,1,6.3,40s0,0,0,0c.08-.5,2.17.17,3.09,1s1.27,1.12,1.47,2v0c0-.11,0-.16.05-.18a.12.12,0,0,1,0-.08c0-.06,0-.12.09-.13h0a.09.09,0,0,1,.07,0h0a.11.11,0,0,1,.05.12.19.19,0,0,1,0,.08s0,.07,0,.19a4,4,0,0,1,1.41-1.73C13.49,40.36,15.54,39.72,15.67,40.19Z"/><path class="cls-3" d="M8.45,37.68a.44.44,0,0,0-.06.21,3.11,3.11,0,0,1,0,.32c0-.09,0-.2,0-.31A.38.38,0,0,1,8.45,37.68Z"/><path class="cls-3" d="M10.18,43.6l-.07.09Z"/><path class="cls-3" d="M12.85,46.5a.59.59,0,0,1,0,.08s0,0,0,0Z"/><path class="cls-3" d="M12.9,46.4A1.76,1.76,0,0,0,13,45.27h0A1.76,1.76,0,0,1,12.9,46.4Z"/><path class="cls-3" d="M16.12,43.09a.41.41,0,0,1-.18.15c-.11.06-.22.11-.31.17a1.93,1.93,0,0,1,.32-.19A.35.35,0,0,0,16.12,43.09Z"/><path class="cls-3" d="M12.71,46.72a.61.61,0,0,1-.16.16A.81.81,0,0,0,12.71,46.72Z"/><path class="cls-3" d="M11,42.17l-.07.19h0A1.46,1.46,0,0,1,11,42.17Z"/><path class="cls-3" d="M11.54,40.26a4,4,0,0,1-.11.63c-.08.33-.2.72-.33,1.11.12-.39.23-.76.3-1.07.12-.48.15-.83.07-.9l-.06.06s0,0,0-.08.06-.07.06-.06,0,0,0,.07S11.55,40.1,11.54,40.26Z"/><path class="cls-3" d="M13.2,41.17h0s-.06.07-.07.06a.17.17,0,0,1,0-.06,2.38,2.38,0,0,0-.77.35,12.87,12.87,0,0,0-1.31.92h0c.46-.36.94-.71,1.34-1a3.58,3.58,0,0,1,.57-.3.44.44,0,0,1,.19,0h0l0,0,0,0S13.2,41.16,13.2,41.17Z"/><path class="cls-3" d="M18.62,51.2v0h0a.38.38,0,0,1-.1.13l-.2.19c-.73.78-.56,1.5-1.46,1.82l-.11,0h0a1.32,1.32,0,0,1,.15.83s0,.05,0,.08a.29.29,0,0,1,0,.09l0,.06s0,0,0,0a1.09,1.09,0,0,1-.08.15,1.6,1.6,0,0,1-1.74.27c-.39-.13-.8-1.17-.69-1.89l0-.16,0-.09a.2.2,0,0,1,0-.08h0v0s-.06.07-.07.07h0a.64.64,0,0,1-.08.14l0,0c-.4.6-1.33,1.1-1.7,1-.6-.24-1.16-.71-1.17-1.25v0a.77.77,0,0,1,.06-.31l.07-.14a1.35,1.35,0,0,1,.65-.58l-.07-.08c-.5-.83.1-1.28,0-2.36a1.13,1.13,0,0,0,0-.25.39.39,0,0,1,0-.16v0c.19-.33,1.5.66,1.94,1.47a2.74,2.74,0,0,1,.54,1.77v0c0-.08.06-.11.08-.12a.13.13,0,0,1,0-.06.1.1,0,0,1,.1-.06h0s0,0,0,0h0a.09.09,0,0,1,0,.1.09.09,0,0,1,0,.05s0,.06,0,.14a3,3,0,0,1,1.43-.87C17,50.78,18.65,50.83,18.62,51.2Z"/><path class="cls-3" d="M12.05,48.72a.39.39,0,0,0,0,.16,1.13,1.13,0,0,1,0,.25l0-.23A.33.33,0,0,1,12.05,48.72Z"/><path class="cls-3" d="M14.4,52.7a.2.2,0,0,0,0,.08A.3.3,0,0,1,14.4,52.7Z"/><path class="cls-3" d="M16.87,54.31s0,0,0,.07v0A.29.29,0,0,0,16.87,54.31Z"/><path class="cls-3" d="M16.89,54.23a1.32,1.32,0,0,0-.15-.83h0A1.29,1.29,0,0,1,16.89,54.23Z"/><path class="cls-3" d="M18.62,51.23a.31.31,0,0,1-.1.14l-.2.18.2-.19A.38.38,0,0,0,18.62,51.23Z"/><path class="cls-3" d="M16.81,54.5a.53.53,0,0,1-.08.15A1.09,1.09,0,0,0,16.81,54.5Z"/><path class="cls-3" d="M14.75,51.5a.76.76,0,0,1,0,.15h0A.86.86,0,0,0,14.75,51.5Z"/><path class="cls-3" d="M14.77,50a3.14,3.14,0,0,1,0,.48c0,.26,0,.56,0,.87a8.09,8.09,0,0,0,0-.83c0-.37,0-.63-.12-.67l0,.06s0,0,0-.07l0-.06s0,0,0,.06S14.75,49.91,14.77,50Z"/><path class="cls-3" d="M16.14,50.38h0s0,.06,0,0,0,0,0,0a1.72,1.72,0,0,0-.49.39,9.79,9.79,0,0,0-.78.92h0a10.19,10.19,0,0,1,.79-1,3,3,0,0,1,.36-.32.28.28,0,0,1,.13-.07h0s0,0,0,0a.1.1,0,0,1,0,0A0,0,0,0,1,16.14,50.38Z"/><path class="cls-3" d="M21.73,61.88h0a.24.24,0,0,1-.09.08l-.18.12c-.64.48-.61,1-1.32,1.15H20a1,1,0,0,1,0,.64L20,64,20,64l0,0,0,0a.34.34,0,0,1-.08.09,1.19,1.19,0,0,1-1.32,0c-.28-.15-.44-1-.27-1.5a1.17,1.17,0,0,1,.05-.11.16.16,0,0,1,0-.07l0,0h0v0a.13.13,0,0,1-.07,0h0a.39.39,0,0,1-.08.1l0,0c-.38.39-1.13.64-1.39.49s-.77-.68-.7-1.09h0a.57.57,0,0,1,.09-.22.86.86,0,0,1,.07-.1,1,1,0,0,1,.55-.34s0,0,0-.07c-.27-.68.24-.93.32-1.75a1.15,1.15,0,0,0,0-.19.21.21,0,0,1,0-.12h0c.18-.22,1,.69,1.24,1.35a2,2,0,0,1,.17,1.38v0c0-.06.06-.08.08-.08a.06.06,0,0,1,0,0s.06-.05.08,0h0l0,0h0a.11.11,0,0,1,0,.08l0,0s0,0,0,.1a2.34,2.34,0,0,1,1.18-.45C20.61,61.35,21.79,61.61,21.73,61.88Z"/><path class="cls-3" d="M17.18,59.16a.21.21,0,0,0,0,.12,1.15,1.15,0,0,1,0,.19,1.09,1.09,0,0,1,0-.18A.23.23,0,0,1,17.18,59.16Z"/><path class="cls-3" d="M18.39,62.43l0,0Z"/><path class="cls-3" d="M20,64,20,64h0Z"/><path class="cls-3" d="M20,63.9a1,1,0,0,0,0-.64h0A1.08,1.08,0,0,1,20,63.9Z"/><path class="cls-3" d="M21.72,61.9a.18.18,0,0,1-.1.09l-.17.11.18-.12A.24.24,0,0,0,21.72,61.9Z"/><path class="cls-3" d="M19.94,64.09a.24.24,0,0,1-.08.09A.34.34,0,0,0,19.94,64.09Z"/><path class="cls-3" d="M18.82,61.59l0,.11h0S18.81,61.63,18.82,61.59Z"/><path class="cls-3" d="M19,60.49a1.78,1.78,0,0,1,0,.36c0,.19-.08.41-.14.64.06-.22.1-.44.13-.61s.05-.48,0-.52a.07.07,0,0,1,0,0l0,0s0,0,0,0l0,0S19,60.4,19,60.49Z"/><path class="cls-3" d="M20,60.94h0l0,0s0,0,0,0a1.26,1.26,0,0,0-.41.23,7.67,7.67,0,0,0-.7.57h0a6.91,6.91,0,0,1,.71-.59,2.2,2.2,0,0,1,.31-.2l.11,0h0l0,0a0,0,0,0,1,0,0Z"/><path class="cls-3" d="M35.53,61.3h0a.08.08,0,0,1,0,0s0,.08,0,.11c.11.4.38.5.3.86,0,0,0,0,0,0h0a.53.53,0,0,1,.31.13l0,0,0,0,0,0h0l0,.06c.08.2-.07.46-.27.63s-.55,0-.77-.17l0,0,0,0v0h0s0,0,0,0h0l0,.06v0c.11.25.09.66,0,.75a.63.63,0,0,1-.65.13h0l-.09-.09,0,0a.48.48,0,0,1-.06-.33h0c-.38,0-.4-.3-.77-.49l-.09,0,0,0h0c-.07-.13.53-.35.89-.33a1,1,0,0,1,.69.19h0a.08.08,0,0,1,0-.06h0a0,0,0,0,1,0,0h.07s0,0,0,0l0,0a1.14,1.14,0,0,1,0-.66C35.06,61.73,35.41,61.21,35.53,61.3Z"/><path class="cls-3" d="M33.35,63l0,0,.09,0-.09,0A.11.11,0,0,1,33.35,63Z"/><path class="cls-3" d="M35.15,63v0Z"/><path class="cls-3" d="M36.19,62.52l0,0h0Z"/><path class="cls-3" d="M36.17,62.5a.53.53,0,0,0-.31-.13h0A.51.51,0,0,1,36.17,62.5Z"/><path class="cls-3" d="M35.54,61.31a.08.08,0,0,1,0,.06.44.44,0,0,1,0,.1s0-.07,0-.11A.08.08,0,0,0,35.54,61.31Z"/><path class="cls-3" d="M36.24,62.58s0,0,0,.06Z"/><path class="cls-3" d="M34.83,62.64l0,0h0Z"/><path class="cls-3" d="M34.34,62.32l.17.09.27.19-.27-.18a.52.52,0,0,0-.24-.1,0,0,0,0,1,0,0l0,0a0,0,0,0,1,0,0l0,0S34.3,62.31,34.34,62.32Z"/><path class="cls-3" d="M34.74,61.94h0v0a.84.84,0,0,0,0,.25,3.74,3.74,0,0,0,.14.45h0a3.85,3.85,0,0,1-.14-.46c0-.08,0-.14,0-.19a.07.07,0,0,1,0,0h0a0,0,0,0,1,0,0h0Z"/><path class="cls-3" d="M42.46,58.7h0a.14.14,0,0,1,0,.07l0,.12c.12.45.42.56.33,1,0,0,0,0,0,0h0a.64.64,0,0,1,.35.14l0,0,0,0,0,0h0l0,.07a.7.7,0,0,1-.31.71c-.14.12-.62,0-.87-.18,0,0,0,0,0,0l0,0,0,0h0s0,0,0,.05h0l0,.06v0a.92.92,0,0,1,0,.86.7.7,0,0,1-.74.14h0a.24.24,0,0,1-.1-.1.21.21,0,0,1,0-.06.61.61,0,0,1-.06-.37h0c-.43,0-.45-.34-.88-.56l-.1,0a.1.1,0,0,1,0,0h0c-.08-.14.6-.4,1-.37a1.18,1.18,0,0,1,.79.21h0s0,0,0-.06l0,0s0,0,0-.05h0l0,0s0,0,0,0,0,0,0,0a1.34,1.34,0,0,1,0-.74C41.93,59.19,42.33,58.61,42.46,58.7Z"/><path class="cls-3" d="M40,60.57a.1.1,0,0,0,0,0l.1,0-.09,0S40,60.59,40,60.57Z"/><path class="cls-3" d="M42,60.63l0,0Z"/><path class="cls-3" d="M43.21,60.09l0,0h0Z"/><path class="cls-3" d="M43.18,60.06a.64.64,0,0,0-.35-.14h0A.56.56,0,0,1,43.18,60.06Z"/><path class="cls-3" d="M42.47,58.71a.24.24,0,0,1,0,.07.5.5,0,0,0,0,.12l0-.12A.14.14,0,0,0,42.47,58.71Z"/><path class="cls-3" d="M43.26,60.15l0,.07Z"/><path class="cls-3" d="M41.66,60.22a.1.1,0,0,1,.05,0h0Z"/><path class="cls-3" d="M41.11,59.86l.19.1.31.22-.3-.21a.62.62,0,0,0-.28-.11s0,0,0,0l0,0v0l0,0S41.06,59.85,41.11,59.86Z"/><path class="cls-3" d="M41.57,59.43h0l0,0s0,0,0,0a.78.78,0,0,0,0,.27,4.84,4.84,0,0,0,.16.51h0a5.19,5.19,0,0,1-.17-.52c0-.08,0-.16,0-.21s0,0,0-.06h0v0h0Z"/><path class="cls-3" d="M59.32,40.51v0h0a.19.19,0,0,1-.08.07,1,1,0,0,0-.17.1c-.6.41-.59.92-1.23,1h-.09a.89.89,0,0,1,0,.58s0,0,0,.05l0,.06,0,0v0l-.08.09a1.08,1.08,0,0,1-1.2-.07,1.44,1.44,0,0,1-.19-1.37.47.47,0,0,1,.05-.1l0-.06,0,0h0v0s-.05,0-.06,0h0a.34.34,0,0,1-.08.09l0,0c-.35.34-1,.55-1.27.4-.37-.25-.68-.65-.6-1h0a.45.45,0,0,1,.09-.2l.06-.09a1,1,0,0,1,.52-.29.25.25,0,0,1,0-.07c-.21-.62.26-.83.36-1.57a1,1,0,0,0,0-.17.53.53,0,0,1,0-.11h0c.17-.2.91.66,1.08,1.26a1.78,1.78,0,0,1,.11,1.26h0c0-.06.06-.07.08-.07s0,0,0,0a.07.07,0,0,1,.08,0h0s0,0,0,0h0a.06.06,0,0,1,0,.07l0,0s0,0,0,.09a2.06,2.06,0,0,1,1.09-.37C58.32,40,59.39,40.28,59.32,40.51Z"/><path class="cls-3" d="M55.28,37.9a.53.53,0,0,0,0,.11,1,1,0,0,1,0,.17.86.86,0,0,1,0-.16A.17.17,0,0,1,55.28,37.9Z"/><path class="cls-3" d="M56.27,40.91l0,0Z"/><path class="cls-3" d="M57.7,42.34s0,0,0,0h0Z"/><path class="cls-3" d="M57.72,42.29a.89.89,0,0,0,0-.58h0A.89.89,0,0,1,57.72,42.29Z"/><path class="cls-3" d="M59.31,40.54a.24.24,0,0,1-.09.08l-.16.09a1,1,0,0,1,.17-.1A.19.19,0,0,0,59.31,40.54Z"/><path class="cls-3" d="M57.63,42.46a.36.36,0,0,1-.08.09Z"/><path class="cls-3" d="M56.69,40.16l0,.1h0Z"/><path class="cls-3" d="M56.91,39.17a1.57,1.57,0,0,1,0,.32,5.36,5.36,0,0,1-.14.58c.05-.2.1-.39.13-.56s.06-.42,0-.46,0,0,0,0l0,0,0,0a.06.06,0,0,1,0,0S56.91,39.09,56.91,39.17Z"/><path class="cls-3" d="M57.78,39.6h0l0,0s0,0,0,0a1.07,1.07,0,0,0-.38.19,6.05,6.05,0,0,0-.66.5h0a8.25,8.25,0,0,1,.67-.52l.28-.17c.05,0,.08,0,.1,0h0l0,0v0Z"/><path class="cls-3" d="M10.86,28.48h0a.35.35,0,0,1,0,.14,1.89,1.89,0,0,0,0,.23c-.16.87.3,1.3-.19,1.93a.13.13,0,0,1-.06.07h0a1,1,0,0,1,.49.52l0,.06,0,.07s0,0,0,.06v0a.66.66,0,0,1,0,.14c0,.48-.54.84-1.09,1-.33.09-1.09-.44-1.35-1a.5.5,0,0,1,0-.13.19.19,0,0,1,0-.08.13.13,0,0,1,0-.06h0s0,0,0,0,0,.08,0,.08h0a.33.33,0,0,1,0,.14v0c0,.61-.41,1.39-.74,1.46a1.35,1.35,0,0,1-1.39-.34h0a.52.52,0,0,1-.1-.25s0-.08,0-.13a1.05,1.05,0,0,1,.19-.69l-.09,0c-.73-.35-.51-.94-1.08-1.66l-.13-.16a.28.28,0,0,1-.07-.11v0c0-.32,1.35-.23,2,.13s.94.49,1.19,1v0c0-.08,0-.11,0-.12s0,0,0-.05,0-.08,0-.09h0l0,0h0a.13.13,0,0,1,.05.07.09.09,0,0,1,0,.05s0,0,0,.11a2.59,2.59,0,0,1,.6-1.27C9.56,28.91,10.71,28.21,10.86,28.48Z"/><path class="cls-3" d="M5.13,29.78a.28.28,0,0,0,.07.11l.13.16L5.2,29.9A.22.22,0,0,1,5.13,29.78Z"/><path class="cls-3" d="M8.61,31.48a.13.13,0,0,0,0,.06A.13.13,0,0,1,8.61,31.48Z"/><path class="cls-3" d="M11.08,31.46s0,0,0,.06h0Z"/><path class="cls-3" d="M11.05,31.4a1,1,0,0,0-.49-.52h0A1.13,1.13,0,0,1,11.05,31.4Z"/><path class="cls-3" d="M10.88,28.5a.27.27,0,0,1,0,.15,2.25,2.25,0,0,0,0,.22,1.89,1.89,0,0,1,0-.23A.35.35,0,0,0,10.88,28.5Z"/><path class="cls-3" d="M11.12,31.62a.34.34,0,0,1,0,.14A.66.66,0,0,0,11.12,31.62Z"/><path class="cls-3" d="M8.3,30.47l.06.12h0Z"/><path class="cls-3" d="M7.63,29.43a2.64,2.64,0,0,1,.24.32c.12.18.25.4.38.62-.13-.22-.25-.42-.37-.59s-.32-.42-.39-.41,0,.05,0,.05l0-.05v-.06s0,0,0,.05S7.56,29.36,7.63,29.43Z"/><path class="cls-3" d="M8.75,29h0v.05s0,0,0,0a1.59,1.59,0,0,0-.16.5,8.58,8.58,0,0,0-.12,1h0a7.49,7.49,0,0,1,.12-1,3.91,3.91,0,0,1,.09-.39.23.23,0,0,1,.07-.11h0s0,0,0,0,0,0,0,0Z"/><polygon class="cls-1" points="20.38 95.92 21.08 97.34 22.65 97.57 21.52 98.67 21.78 100.23 20.38 99.5 18.98 100.23 19.25 98.67 18.12 97.57 19.68 97.34 20.38 95.92"/><polygon class="cls-1" points="45.14 95.92 45.84 97.34 47.41 97.57 46.28 98.67 46.54 100.23 45.14 99.5 43.74 100.23 44.01 98.67 42.88 97.57 44.44 97.34 45.14 95.92"/><path class="cls-2" d="M25.27,99.94h.44V96.23H24.62V97H24V95.72h4.25V97h-.64v-.74H26.33v3.71h.49v.54H25.27Z"/><path class="cls-2" d="M28.81,95.72h1.52v.54h-.45v3.68h.45v.54H28.81v-.54h.45V96.26h-.45Z"/><path class="cls-2" d="M31.23,99.94h.45V96.32h-.45v-.6h1.51l1.51,4.11,1.54-4.11h1.43v.6h-.45v3.62h.45v.54H35.67v-.54h.51V96.28l-1.67,4.2H34l-1.69-4.21v3.67h.49v.54H31.23Z"/><path class="cls-2" d="M38.12,95.72h3.41v1.34h-.64v-.8H39.18v1.52h1.44v.55H39.18v1.61h1.71v-.8h.64v1.34H38.12v-.54h.45V96.26h-.45Z"/></g></g></svg>